<svg xmlns="http://www.w3.org/2000/svg" xmlns:xlink="http://www.w3.org/1999/xlink" width="512" height="430" viewBox="0 0 512 430">
  <defs>
    <clipPath id="clip-path">
      <rect id="Rectangle_30" data-name="Rectangle 30" width="512" height="430" transform="translate(0 0)" fill="none"/>
    </clipPath>
  </defs>
  <g id="_404_Image" data-name="404_Image" transform="translate(0 0.001)">
    <g id="Group_56" data-name="Group 56" transform="translate(0 -0.001)" clip-path="url(#clip-path)">
      <path id="Path_146" data-name="Path 146" d="M404.691,115.282c1.038,14.823.25,30.251-1,45.043s-3.05,30.134-6.557,44.577a103.394,103.394,0,0,1-13.27,31.948c-13.812,21.359-38.187,25.728-62.09,23.731-23.841-1.993-46.627-10.443-56.606-33.648a106.255,106.255,0,0,1-7.885-33.855c-1.147-14.785-.423-30.163.82-44.919,2.07-24.555,6.956-58.129,21.545-78.764,13.806-19.529,37.605-23.07,60.023-21.2,23.721,1.98,47.335,10.075,57.281,33.389a104.059,104.059,0,0,1,7.736,33.694m-60.3-7.835c-1.728-3.806-5.242-5.129-9.252-5.466-3.857-.323-7.53.309-9.628,3.733a41.241,41.241,0,0,0-5.218,15.44c-1.182,9.549-2.257,19.125-3.066,28.714l-.4,4.814c-.772,9.151-1.509,18.37-1.879,27.546-.11,2.714-.2,5.452-.145,8.169a22.073,22.073,0,0,0,.306,4.046,61.152,61.152,0,0,0,2.752,9.279l.022.057.021.058c1.587,4.425,6.122,5.679,10.422,6.04,6.154.512,9.086-3.032,10.778-8.6a113.838,113.838,0,0,0,3.283-16.64c1.3-9.135,2.193-18.377,2.967-27.571l.408-4.815c.694-8.236,1.351-16.541,1.645-24.8.089-2.455.15-4.935.083-7.39a19.681,19.681,0,0,0-.324-3.662,66.455,66.455,0,0,0-2.769-8.951M226.46,220.842l7.717,38.22-59.485,11.908L157.3,262.041l9.669-29.291L95.4,247.08,78.01,238.15l3.08-31.305L122.715,70.553,175.874,47.5l17.388,8.93L216.54,171.72l7.213-13.854,17.387,8.93,7.36,49.635ZM541.19,265.017l-7.714,38.22-59.487-11.9-9.566-15.245L481.7,253.117,410.121,238.8l2.415-42.616L503.815,86.486,564.8,85.357l9.566,15.241L551.1,215.892l15.034-10.323,9.566,15.244-12.471,48.613Z" transform="translate(-63.702 -38.827)" fill="#2e71fe" fill-rule="evenodd"/>
      <path id="Path_147" data-name="Path 147" d="M323.6,67.525c1.04,14.822.25,30.25-1,45.041s-3.049,30.134-6.556,44.577a103.409,103.409,0,0,1-13.27,31.949c-13.812,21.358-38.187,25.728-62.09,23.731-23.841-1.993-46.628-10.443-56.606-33.648a106.25,106.25,0,0,1-7.885-33.854c-1.145-14.785-.424-30.163.82-44.919,2.069-24.556,6.955-58.13,21.545-78.765,13.806-19.528,37.6-23.07,60.023-21.2,23.721,1.98,47.335,10.075,57.281,33.39A104.059,104.059,0,0,1,323.6,67.525m-60.3-7.836c-1.729-3.806-5.243-5.129-9.252-5.465-3.858-.323-7.53.31-9.629,3.734A41.252,41.252,0,0,0,239.206,73.4c-1.182,9.549-2.256,19.125-3.066,28.714l-.4,4.815c-.773,9.151-1.509,18.37-1.88,27.545-.11,2.714-.195,5.452-.145,8.169a22.155,22.155,0,0,0,.306,4.046,60.97,60.97,0,0,0,2.753,9.28l.021.056.022.058c1.587,4.425,6.122,5.679,10.421,6.04,6.155.512,9.087-3.032,10.777-8.6a113.849,113.849,0,0,0,3.284-16.64c1.3-9.135,2.192-18.378,2.967-27.572l.408-4.815c.694-8.235,1.35-16.541,1.645-24.8.089-2.455.15-4.934.083-7.39a19.672,19.672,0,0,0-.324-3.662,66.794,66.794,0,0,0-2.769-8.952m-117.935,113.4,7.717,38.219L93.6,223.214l-7.719-38.22L14.308,199.322,0,159.087,41.626,22.8,112.172,8.675l23.279,115.288,24.6-4.924,7.36,49.635ZM77.553,135.554,70.34,99.841,58.33,139.4ZM467.92,210.945l-7.712,38.22-59.487-11.9,7.712-38.22-71.579-14.321,2.415-42.612,91.279-109.7L501.1,46.53,477.834,161.82l24.6,4.922-12.471,48.613Zm-47.989-60.708,7.208-35.711-26.431,31.865Z" transform="translate(0 0.001)" fill="#015caf" fill-rule="evenodd"/>
      <path id="Path_148" data-name="Path 148" d="M1117.068,82.534q1.255,17.888-.992,44.532t-6.475,44.078a101.734,101.734,0,0,1-12.836,30.935q-16.782,25.757-59.021,22.226-41.591-3.476-53.831-31.655a104.658,104.658,0,0,1-7.626-32.808q-1.4-18.06.821-44.385,4.543-53.94,20.949-77.14t57.032-19.805q42.562,3.555,54.5,31.388a101.508,101.508,0,0,1,7.478,32.634m-52.717,41.829.406-4.818q2.652-31.461,1.324-36.907a70.7,70.7,0,0,0-2.935-9.461q-3.007-6.717-12.035-7.47t-12.792,5.4a44.182,44.182,0,0,0-5.626,16.664q-2,16-3.079,28.842l-.408,4.815q-2.947,35-1.649,40.763a64.809,64.809,0,0,0,2.911,9.781q2.63,7.33,13.267,8.22t14.235-10.935q3.594-11.825,6.382-44.892" transform="translate(-796.778 -14.777)" fill="#fefefe" fill-rule="evenodd"/>
      <path id="Path_149" data-name="Path 149" d="M179.217,222.293l-22.207,4.447,7.717,38.22-52.974,10.6-7.717-38.217L32.027,251.76,19.043,215.253,59.776,81.891l65.347-13.082L148.4,184.1l24.426-4.892ZM97.011,194.385l-9.756-48.324-1.9.378L69.1,199.974Z" transform="translate(-15.55 -56.242)" fill="#fefefe" fill-rule="evenodd"/>
      <path id="Path_150" data-name="Path 150" d="M2002.713,372.826l-22.206-4.441-7.711,38.22-52.98-10.6,7.714-38.222-72.012-14.4,2.193-38.668,89.317-107.335,65.346,13.072L1989.11,325.742l24.429,4.886Zm-64.992-57.367,9.75-48.327-1.9-.378L1909.8,309.876Z" transform="translate(-1515.187 -161.33)" fill="#fefefe" fill-rule="evenodd"/>
      <path id="Path_151" data-name="Path 151" d="M650.8,864.82l-98.582.387a4.381,4.381,0,0,0,1.658-6.253,11.123,11.123,0,0,1,.453-1.086,4.809,4.809,0,0,0-.231-3.446,13.615,13.615,0,0,0-2.076-2.956l-1.233-1.335c-.483-.381-.793-.81-1.281-1.184l-2.783-2.362c-.52-.406-.925-.729-1.431-1.136l-2.882-2.157a27.368,27.368,0,0,0-6.164-3.915c-.343-.126-.571-.174-.952-.283-5.939-1.756-7.477.184-12.516,4.182l-7.151,6c-.209.173-.25.171-.459.365-1.118,1.036-4.291,3.133-5.632,3.424-.46.1-8.389-.523-9.22-.585-1.975-.155-4.09-.381-6.065-.627-3.9-.486-7.72-1.006-11.5-1.681-8.666-1.551-17.13-4.575-25.793-6.7-2.6-.638-5.293-1.3-5.891-1.345l1.032-.718c1.962-1.049,9.426-6.029,11.442-8.41a5.686,5.686,0,0,0,1.23-2.972,25.506,25.506,0,0,0-.061-7.74c-.359-1.906-.555-3.4-.97-5.188,2.015-.467,2.286-.82,4.736-.82,8.271.3,18.829.144,25.983-4.6a7.775,7.775,0,0,0,3.581-6.379,12.358,12.358,0,0,0-.41-2.77,4.6,4.6,0,0,0,2.922-.477,2.972,2.972,0,0,0,1.4-1.37c6.057,3.018,14.584,5.285,20.845,2.192,1.011-.5.828-.475,1.156-1.62,1.4-4.9,2.613-9.808,4.074-14.713l2.141-7.684c1.091-3.921,1.4-3.385-2.367-5.349a49.438,49.438,0,0,0-22.759-5.236c-1.745,0-3.709-.04-5.365-.2a48.347,48.347,0,0,0-16.7,1.1,92.972,92.972,0,0,0-26.434,11.937c-3.267,2.169-6.079,4.384-9.1,6.837l-1.766,1.423a38.629,38.629,0,0,1-4.23,2.149c-5.039,2.57-9.416,5.122-14.278,8.039-.692.413-1.325.835-2.067,1.228a73.911,73.911,0,0,1,.767-12.266l3-16.6c1.248-6.216,1.782-10.678,2.744-15.036a55.309,55.309,0,0,1,4.613-13.024c2.275-4.892,4.669-9.52,7.143-14.326a20.976,20.976,0,0,0,2.541-9.779,10.673,10.673,0,0,1,2.311,1.495c3.589,2.7,7.673,5.618,11.873,7.253,6.42,2.5,12.855,1.522,16.345-4.905a43.659,43.659,0,0,1,2.53-4.542,9.646,9.646,0,0,1,2.007-2.13,6.044,6.044,0,0,0,1.1-1.054,7.506,7.506,0,0,0,1.943-5.244c0-.75-.193-1.129-.206-1.746a5.567,5.567,0,0,0,3.916-2.565c3.9,1.417,7.132-2.461,7.414-5.845a10.833,10.833,0,0,1,3.664,1.89c5,3.734,7.333,1.142,8.62-4.128a40.546,40.546,0,0,0,.807-6.472c.233-3.064.282-6.224,1.678-8.911,1.029-1.975,3.567-4.206,4.985-6.107,2.434-3.264,2.951-5.73,4.675-10a59.887,59.887,0,0,0,3.1-10.45,21,21,0,0,0,.08-8.54,5,5,0,0,1-.209-1.231c2.337-.542,5.208-5.448,6.044-7.11a22.37,22.37,0,0,0,2.815-11.761c0-10-8.554-13.379-16.725-16.064a28.711,28.711,0,0,1-4.187-1.782c-11.576-6-15.46-11.964-29.91-15.568a47.687,47.687,0,0,0-11.807-1.049,55.8,55.8,0,0,0-14.642,2.242,23.679,23.679,0,0,1-3.345.876c-14.788,3.36-21.282,11.03-25.5,25.282-.981,3.312-1.4,7.089-2.235,10.392-2.5,9.154-4.056,16.037-9.585,24.2a33.245,33.245,0,0,1-3.594,3.7c-.215.2-.354.361-.563.566l-3.814,3.59a3.964,3.964,0,0,1-.593.539l-.957-.9a22.459,22.459,0,0,0-3.307-2.551c-2.4-1.58-4.093-3.179-6.685-2.319a21.571,21.571,0,0,0-5.707,3.792,4.334,4.334,0,0,0-1.68,2.794c0,7.461,1.607,8.958-7.147,12.065-.554.195-1.037.366-1.581.579-1.3.515-3.509,1.145-4.884,1.6-2.2.731-4.224,1.5-6.36,2.284-.995.366-2.064.811-3.075,1.247-1.053.451-2.007.806-3.052,1.268-1.994.886-4.069,1.66-6.01,2.633l-4.427,2.05a115.073,115.073,0,0,0-12.456,6.984l-5.119,3.52c-1.842,1.375-3.689,2.735-5.4,4.259-.249.218-.389.3-.621.509l-2.834,2.514c-.214.206-.351.355-.563.566l-1.131,1.031c-.287.261-.169.28-.482.541-.58.483-1.088,1.171-1.668,1.625l-5.122,5.669a104.312,104.312,0,0,0-10.74,15.151c-.56.948-1.008,1.823-1.568,2.746-.156.256-.215.387-.365.665l-4.05,7.865a157.019,157.019,0,0,0-7.207,18.671c-.729,2.175-1.5,4.275-2.123,6.5-.137.5-.33,1.1-.5,1.652-.166.515-.336,1.131-.491,1.664-.321,1.1-.684,2.307-.914,3.4-.5,2.373-1.214,4.513-1.734,6.888-1.707,7.806-4.089,19.624-4.779,27.553l-.723,8.919c-.086,1.666-.311,3.52-.311,5.128,0,1.436-.054,2.725-.1,4.211l-.206,5.129c-.089,1.1-.064,5.608.056,6.4.158,1.043-.04,2.166.048,3.234a12.224,12.224,0,0,1,.1,1.442l.282,4.643c.282,2.077.193,3.936.485,5.982,1.11,7.8.738,8.356,3.943,11.454,1.366,1.318,2.662,2.759,4.127,4.083,17.339,15.637,47.187,26.064,79.163,31.845,32.937,5.954,84.265,9.456,116.667-.9l-3.873,3.432c-.233.205-.324.234-.565.461s-.314.262-.561.468l-9.815,8.673c-.659.931.164,1.652,1.533.713.748-.686,1.557-1.321,2.3-2.007l3.5-3.077c.252-.252.368-.291.616-.512,1.367-1.212,4.685-4.227,5.806-5.1l2.9-2.543c.935-.867,1.989-1.663,2.884-2.567,6.2-5.477,12.45-10.923,18.645-16.41,2.337-2.074,4.736-4.112,7.058-6.2.113-.109.032-.048.466-.438,1.9-1.708,1.769-1.571,3.916-2.052a26.311,26.311,0,0,0,6.156-2.3,28.573,28.573,0,0,0,2.678-1.641c.668-.5.689-.4,1.418.01.265.15.45.272.707.425s.463.256.722.41c5.99,3.606,10.376,2.357,15.99-1.065l.289-.179q-2.693,4.032-5.369,8.073c-.437.691-2.407,3.147-2.235,3.817.3,1.163,1.791.91,2.723.987q15.99.561,31.982,1.041l81.335,2.442c2.5,0,2.11-.128,2.551-2.387.305-1.564.025-.659,1.188-1.07,1.4-.494,9.191-11.076,10.183-12.394,1.33-1.764,2.653-3.533,3.989-5.292l54.5-71.9c.389-.762.343-1.606-.914-1.628-.694-.013-1.616-.15-2.275-.2-1.794-.134-5.115-.478-6.688-.518l-4.447-.4a39.973,39.973,0,0,0-4.441-.253c-.678.167-.878.691-1.267,1.206l-2.08,2.749L652.92,862.007a22.679,22.679,0,0,0-2.12,2.812m-4.09-42.749L635.536,801.9a1.752,1.752,0,0,1,.683-2.39,1.772,1.772,0,0,1,2.4.683L649.8,820.363a1.754,1.754,0,0,1-.687,2.389,1.773,1.773,0,0,1-2.4-.681m-2.182,13.264L617.1,804.178a1.759,1.759,0,0,1,2.653-2.31l27.431,31.152a1.749,1.749,0,0,1-.166,2.477,1.769,1.769,0,0,1-2.487-.163m-10.5,4.755-13.879-8.954a1.75,1.75,0,0,1-.52-2.428,1.769,1.769,0,0,1,2.44-.518l13.878,8.956a1.748,1.748,0,0,1,.52,2.428,1.767,1.767,0,0,1-2.439.515M417.568,877.142a120.715,120.715,0,0,0,18.57,5.527,58.259,58.259,0,0,0,12.359,1.105c1.694,0,4.383-.16,5.959.016,9.207.243,19.051.362,28.106,1.553A84.54,84.54,0,0,1,495,887.833l2.323.66c-.129.48-8.234,7.56-9.475,8.513l-1.12.993c-13.471,5.164-35.429,7.79-60.251,7.587a73.058,73.058,0,0,1-7.178-19.218q-1.03-4.408-1.729-9.226" transform="translate(-227.653 -484.862)" fill="#031c49" fill-rule="evenodd"/>
      <path id="Path_152" data-name="Path 152" d="M1009.694,777.427c0,4.646,1.787,6.565,2.824,10.624.22.865.365,1.636.531,2.549a12.373,12.373,0,0,0,.586,2.594c1.836,4.574,6.152,2.623,6.152,1.772,0-1.34-1.437-.512-2.884-.512-1.271,0-1.939-2.1-2.12-3.222-.828-5.065-3.442-9.041-3.442-13.7,0-4.353,3.262-10.8,7.09-12.327,7.266-2.9,14.321,8.837,14.616,14.377,1.42,26.558-31.815,18.49-36.48,42.816a139.554,139.554,0,0,0-19.606-24.582c-.753-.75-3.281-2.995-3.734-3.667,2.235-2.084,4.457-4.179,6.709-6.242a10.556,10.556,0,0,1,1.017-.836c14.753,3.421,15.951,2.247,26.4-8.588.619-.608,2.123-2.716,2.549-3-.016.662-.206,1.14-.206,1.949m86.736,219.19a6.986,6.986,0,0,0,.962-.477,6.392,6.392,0,0,1,1.084-.459,28.925,28.925,0,0,1,8.563-1.113c2.638,0,5.16.307,7.829.307a31.061,31.061,0,0,1-6.121,3.648c-5.337,2.12-7.854.656-11.911-1.489-.359-.189-.3-.01-.4-.416m-24.724-86.158c-1.83,0-3.8-1.116-5.272-2.031-.308-.192-1.1-.841-1.423-.841a.782.782,0,0,0-.491,1.412c1.228,1.11,3.356,1.769,4.977,3.042,2.472,1.938,6.229,6.269,3.268,9.317-1.788,1.844-3.018,1.052-4.629.246-.394-.2-1.053-.646-1.621-.9-1.8-.812-2.066.568-.652,1.935a7.144,7.144,0,0,1,1.711,2.4c1.67,4.078-.691,4.3-3.8,4.3-1.334,0-.576,1.836-.493,2.13a6.381,6.381,0,0,1-.555,5.237c-1.686,2.565-3.847,3.41-6.974,4.44-7.438,2.452-12.338,2.039-19.792,2.039a14.262,14.262,0,0,0-5.666,1.025c-2.026-6.427-7.409-24.183-15.449-26.053,3.568-2.8,6.941-5.212,10.67-7.836a121.058,121.058,0,0,1,10.754-5.8,74.629,74.629,0,0,1,16.8-5.839c5.36-1.073,14.307-1.276,18.151,2.012,1.94,1.66,3.369,4.112,3.369,5.775,0,1.831-1.069,4-2.884,4m33.067,72.926c-.209-.282-.2-.182-.6-.326a10.824,10.824,0,0,1-3.806-1.951,2.9,2.9,0,0,1-.354-.47c-.1-.15-.279-.36-.349-.486-.372-.681.52-1.636,1.359-.521a6.212,6.212,0,0,0,3.195,1.844c2.852.993,2.517.892,3.525.15a5.644,5.644,0,0,1,2.181-1.068.786.786,0,0,1,.721.878c0,.512-1.027.659-2.019,1.377l-.662.47a24.264,24.264,0,0,1,9.306,1.812,22.958,22.958,0,0,0,2.541,1.161c.054-.64.206-.2.206-1.538,0-1.584-2.291-3.792-3.325-5l-4.49-3.838c-.531-.422-1.024-.82-1.557-1.217l-3.123-2.431c-.538-.435-1.083-.758-1.616-1.159-.282-.213-.547-.384-.842-.6a10.808,10.808,0,0,0-2.854-1.26,10.351,10.351,0,0,0-4.712-.563c-1.5.259-3.863,2.143-5.1,3.128l-1.53,1.244c-.526.408-1.008.819-1.531,1.244l-5.3,4.473a20.111,20.111,0,0,1-3.985,2.8c-3.3,1.708-3.334,3.061-4.117,6.977-1.812,9.057-1.322,11.537-.421,18.761.541-.144,5.46-4.644,6.208-5.305,1.5-1.508,5-1.46,8.317-3.1,2.615-1.3,5.679-3.806,7.046-4.368a29.5,29.5,0,0,1,9.848-1.58c2.886,0,8.764,1.02,11.533-.518.957-.528,2.627-2.541,1.214-4.176-.257-.3-.321-.246-.576-.451l-.054-.048a9.1,9.1,0,0,0-3.324-1.615c-3.713-1.233-5.693-1.193-9.515-1.193-1.954,0-3.506.205-5.46.205-.818,0-5.356-.526-5.356-1.436,0-1.319,1.008-.886,1.844-.71,4.01.838,3.464.4,7.529.4m-40.585-180.111a2.071,2.071,0,0,0,1.851,2.154c3.206,0,4.964-6.05,1.443-6.05-1.641,0-3.295,2.226-3.295,3.9m-49.827-26.717c0,.777-.166,2.549.841,2.505,1.41-.061.032-2.5,1.249-5.538a9.039,9.039,0,0,1,1.689-2.866,5,5,0,0,1,.611-.528,3.7,3.7,0,0,1,3.125-1.057c1.761,0,3.12,2.277,3.519,3.98-.335-.077-.687-.278-1.1-.416a5.46,5.46,0,0,0-4.224.413c-.362.179-.668.285-.777.739-.108.435.238,1.145,1.179.7.193-.091.375-.179.582-.273a4.081,4.081,0,0,1,3.816.307c.615.417.635.99,1.48.99,1.71,0,.062-4.353-.4-5.1a5.455,5.455,0,0,0-1.627-1.887c-2.817-2.095-6-.638-7.98,2.044a11.328,11.328,0,0,0-1.983,5.981m45.7,16.255a1.513,1.513,0,0,1,.783-1.168c1.522-.822,6.43.362,7.652.771a29.753,29.753,0,0,1,4.476,1.8,20.145,20.145,0,0,1,4.231,2.863c.711.547.389.35.86.886a5.921,5.921,0,0,1,1.056,1.62,1.4,1.4,0,0,1-1.032,2.05c-1.64,0-1.259-.742-2.088-1.713a15.823,15.823,0,0,0-5.962-3.912,23.705,23.705,0,0,0-5.06-1.524c-2.729-.477-4.919.371-4.919-1.671m5.565-42.359c.8,28.736-33.93,31.5-27.219,55.306a36.455,36.455,0,0,0,3.147,8.354,32.358,32.358,0,0,1,2.133,5.057,11.812,11.812,0,0,1,.408,5.746,15,15,0,0,1,1.606-.451,20.213,20.213,0,0,1,7.877-.477,15.523,15.523,0,0,1,3.9,1.046,10.49,10.49,0,0,1,1.658.806c-.126-.541-.329-.79-.456-1.391-.129-.627-.482-3.634.561-3.634,2.123,0-.627,2.777,2.187,5.617,1.155,1.169,2.766,1.549,4.259,2.426,4.085,2.4,5.554,4.159,7.27-2.335.608-2.3.391-3.7.78-6.558.053-.378,0-.72.034-1.094.255-3.184.429-5.383,1.711-7.937,1.262-2.519,2.474-3.216,3.816-4.818,3.833-4.563,5.112-8.844,7.023-14.547,1.844-5.514,3.045-10.2,1.519-15.88-2.8-10.437-12.886-23.074-22.211-25.236m-21.014,85.439c0,2.13.418,4.857,1.63,6.376a3.574,3.574,0,0,0,1.458,1.215,16.4,16.4,0,0,1-2.472,2.461c-.453-.121-1.268-1.084-1.638-1.447-6.655-6.821-1.348-11.022-.442-15.933.375-.841,2.292-1.8,2.675-1.36-.667,1.385-1.211,6.9-1.211,8.689m4.326-5.948,4.533,4.2c-.228.849-2.061,1.745-2.884,1.745-.965,0-1.668-5.129-1.649-5.948m2.249.006c1.67.587,6.668,1.43,6.1,3.89a2.965,2.965,0,0,1-1.984-.32,12.243,12.243,0,0,1-4.111-3.57" transform="translate(-794.723 -613.399)" fill="#fefefe" fill-rule="evenodd"/>
      <path id="Path_153" data-name="Path 153" d="M289.014,1153.633c-.567-6.133-.967-12.482-.967-19.061l.1-6.36c0-.336-.013-.7,0-1.03.013-.507.094-.513.11-1.02.043-1.481.019-2.749.1-4.208.025-.452.092-.43.1-.919.013-.371-.016-.762-.006-1.136l.614-8.105a172.441,172.441,0,0,1,3.056-20.755l2.23-10.907c.231-1.084.526-2.346.844-3.469l.963-3.449c1.275-4.51,2.685-8.8,4.157-13.2.716-2.135,1.5-4.24,2.265-6.36.775-2.146,1.585-4.179,2.431-6.3a103.9,103.9,0,0,1,6.46-13.056c1.616-2.722,3.154-5.487,4.921-8.126l5.586-7.465c1.737-2.215,3.688-4.262,5.6-6.322l1.029-1.132c.206-.216.354-.352.568-.563.381-.381.688-.7,1.08-1.078l2.233-2.084c.49-.377.74-.726,1.192-1.068.415-.315.705-.656,1.147-1.011l7.237-5.719c2.181-1.5,4.339-3.024,6.623-4.38l4.109-2.37a140.949,140.949,0,0,1,13.3-6.351c4.069-1.8,8.133-3.446,12.411-4.978,2.209-.79,6.124-1.922,9.236-3.136,8.792-3.432,8.057-4.782,8.057-12.981,1.032.688,6.741,7.416,7.371,8.251l1.364,1.821a64.777,64.777,0,0,1,5.508,9.284l2.5,5.92c1.59,4.126,2.926,8.314,4.332,12.509a197.4,197.4,0,0,1,6.25,25.265c.029.179.094.619.134.891.528,3.693,1.423,1.6,3.283-.1.745-.678,1.324-1.478,2.035-2.178,4.342-4.35,9.182-9.688,14.028-13.416.63-.486,1.625-1.7,2.327-1.89.265,3.194,1.761,3.008-.073,6.878-1.892,4-3.822,6.171-5.505,10.44-.809,2.418-1.348,5.4-2.023,7.833-.175.63-.419,1.262-.628,1.836-.222.614-.453,1.151-.688,1.775-2.056,5.386-4.544,10.36-6.64,15.648-3.584,9.042-4.022,18.4-3.186,27.972a46.147,46.147,0,0,1,.2,8.854c-.107,2.885-.088,5.557-.1,8.407-.008,1.065.206,1.842.206,2.77-.755.4-1.562,1-2.307,1.5-1.277.851-9.028,5.415-11.116,6.268l-1.308.646c-3.085,1.527-7.55,3.3-10.861,4.674l-5.356,2.359c-2.766,1.149-5.513,2.287-8.341,3.288a27.133,27.133,0,0,1-2.844,1.062c.06-.077.815-.774.957-.892a11.9,11.9,0,0,0,.973-.875l1.8-1.9a23.027,23.027,0,0,0,4.878-9.912,60.577,60.577,0,0,0,1.131-6.36c.064-.451.137-1.308.148-1.7.083-2.944.321-5.991.305-8.927-.008-1.777.564-8.711.78-10.3l.6-4.94c.206-1.454-.153-1.137,1.032-1.844l1.646-1.132c.383-.261.662-.528,1.032-.816a27.64,27.64,0,0,0,3.707-3.693c.282-.358.558-.62.86-.991a45.98,45.98,0,0,0,3.712-5.535c.25-.41.408-.781.66-1.19a33.979,33.979,0,0,0,3.2-8c.241-.931.45-2,.627-3.068a34.508,34.508,0,0,0,.364-5.247c-.064-.572-.05-1.081-.085-1.759-.06-1.079-.244-2.306-.311-3.385a27.573,27.573,0,0,0-.456-3.24c-.155-.832-.343-2.607-1.192-2.607-1.293,0-.491,2.169-.279,3.458l.469,3.942a33.623,33.623,0,0,1-1.23,13.411,39.546,39.546,0,0,1-5.374,10.443c-.214.285-.345.494-.56.777a31.071,31.071,0,0,1-3.042,3.533l-.973.982a20.267,20.267,0,0,1-3.329,2.739c0-2.258,2.415-14.075,2.412-15.2a.7.7,0,0,0-1.109-.64c-.593.4-1.222,4.689-1.332,5.349l-2.295,15.458c-.373,2.685-.557,5.366-.852,8.073l-.432,8.394c-.021.7.008,1.452.008,2.162l-.182,3.2c-.053.379,0,.723-.035,1.095-.63,7.862-2.723,14.739-9.118,19.744a18.039,18.039,0,0,1-2.651,1.77,67.393,67.393,0,0,1-9.429,3.944,81.658,81.658,0,0,0-13.72,6.237c-.888.534-2.716,1.729-3.544,2.114-.477.218-.571.368-.571.867,0,.379.513.627.866.555a23.01,23.01,0,0,0,3.042-1.69,107.5,107.5,0,0,1,10.617-5.121c3.222-1.409,7.115-2.567,10.773-4.153.737-.317,1.276-.1,3.018-.684.777-.259,1.584-.488,2.42-.768l4.669-1.711c1.538-.6,3.045-1.086,4.527-1.748l17.626-7.579a55.686,55.686,0,0,0,7.2-3.7l5.115-2.909c.672-.4,1.222-.8,1.889-1.193,1.311-.766,2.5-1.679,3.8-2.471l7.85-4.8c4.069-2.437,7.816-4.575,12.013-6.808.871-.521,4.75-2.618,5.344-2.442,7.867,2.328,14.193,20.611,15.962,29.45a37.21,37.21,0,0,1,.694,6.795c0,1.289-.3,3.948-.8,4.636-1.161,1.585-8.291,6.494-9.454,7.2-3.246,1.98-5.533,3.045-8.866,4.711-8,4.1-15.52,8.337-23.384,12.615l-14.249,7.865-6.456,3.213c-.368.184-.628.264-1,.443-1.292.617-2.485,1.156-3.835,1.719-10.548,4.4-21.134,8.313-31.862,12.175-3.71,1.335-13.825,4.911-17.32,4.911a10.47,10.47,0,0,1-5.391-1.3,13.292,13.292,0,0,1-2.567-1.751c-.292-.272-.472-.362-.773-.667-3.666-3.694-5.3-6.905-7.419-11.116-3.616-7.163-4.988-13.334-6.333-21.14-1.432-8.284-3.056-16.5-3.788-24.951-.147-1.708-.415-3.5-.6-5.148-.383-3.5-.9-6.737-1.372-10.12-.463-3.28-1.053-6.68-1.426-10.069-.185-1.673-.421-3.366-.649-5.1-.215-1.621-.456-3.417-.687-5.063-.466-3.365-1.018-6.626-1.661-9.832-1.147-5.706-2.785-13.453-4.235-18.755a51.318,51.318,0,0,0-5.379-13.313l-.4-1.04c-.327-1.078-2.381-.742-1.228,1.12a44.634,44.634,0,0,1,3.23,6.838c2.377,5.877,4.592,16.253,5.9,22.845,1.815,9.133,2.726,15.741,3.854,25.087.413,3.416.989,6.7,1.456,10.041l1.324,10.27c.437,3.477.71,6.85,1.211,10.283s1.018,6.69,1.56,9.933c.338,2.007.769,4.546,1.255,7.153,1.359,7.316,2.817,14.177,6.119,20.921,1.142,2.332,2.437,4.62,3.841,6.914a27.44,27.44,0,0,0,3.429,4.486,17.508,17.508,0,0,0,3.536,2.941c4.272,2.541,7,2.549,11.745,1.372,4.573-1.132,8.955-2.859,13.383-4.315,8.618-2.832,17.2-6.355,25.681-9.611,2.806-1.118,5.6-2.22,8.336-3.5,2.68-1.246,5.382-2.471,8-3.83.754-.387,3.1-1.695,5.023-2.73l.06-.032,3.4-1.86a134.519,134.519,0,0,0,3.154,25.2,75.685,75.685,0,0,0,6.91,18.858,355.505,355.505,0,0,1-57.394-5.5c-31.952-5.775-61.725-16.192-78.751-31.791a53.532,53.532,0,0,1-3.857-3.867c-2.37-2.663-2.713-4.575-3.252-10.4m220.094-58.859a6.2,6.2,0,0,0,2.3.342,5.314,5.314,0,0,0,4.31-6.613c-.723-2.554-1.592-3.467-3.31-5.318a5.537,5.537,0,0,0,4-7.262c-.839-2.709-3-4.922-5.233-6.585,1.357,0,5.881.339,7.476.556a59.119,59.119,0,0,1,9.955,2.087,24.415,24.415,0,0,1,5.4,2.089c2.908,1.575,2.945,1.557,2.216,4.054-.812,2.789-1.785,6.04-2.431,8.61l-3.8,13.753c-.222.8-.656.848-2.251,1.244a28.043,28.043,0,0,1-6.681.432,26.855,26.855,0,0,1-10.915-3.181c.185-2.215-.643-2.549-1.032-4.206m-64.691-84.516a22.6,22.6,0,0,0-1.045-2.242c-.657-1.618-3.522-6.712-4.482-8.46-.393-.718-.774-1.324-1.174-2.012l-4.983-7.86a161.613,161.613,0,0,0-16.8-19.955,74.056,74.056,0,0,0-6.889-6.443c-1.316-.972-2.863-1.973-3.833-2.613-1.485-.976-2.032-1.164-3.46-.589-.981.392-5.192,3.052-5.442,4.12,1.107.294,7.392,7.51,8.489,9.085l2.369,3.388a64.581,64.581,0,0,1,4.216,7.393,108.931,108.931,0,0,1,4.9,12.559c2.319,6.958,3.576,10.5,5.43,17.876.963,3.825,1.847,7.93,2.627,11.847a16.842,16.842,0,0,1,.4,2.472c.34-.091.89-.75,1.3-1.166a193.48,193.48,0,0,1,17.114-16.294,9.773,9.773,0,0,0,1.26-1.1m-20.705,150.033q.27,7.842,1.2,14.868c5.65,1.9,12.563,4.366,18.921,5.656a62.54,62.54,0,0,0,13.155.937c2.463,0,4.573.1,7.006.1,7.2-.006,14.734.582,21.939,1.027.447.032,1.182.124,1.578.174,3.5.448,5.481.592,9.181,1.318.89.176,4,.947,6.215,1.551,2.726.742,2.82,1.561,4.941-.2,1.7-1.5,5.138-4.86,7.033-6.125a66.809,66.809,0,0,1-1.131-12.512c0-3.214,1.28-10.107,2.779-12.925l-4.32-.208a120.648,120.648,0,0,1-12.2-1.081,136.183,136.183,0,0,1-22.23-4.433c-4.666-1.292-8.923-2.518-13.626-3.734l-7.551-1.957-5.068,2.386c-9.33,4.882-17.781,9.518-26.953,14.7-.37.2-.646.336-.858.454m7.315-58.85c0-2,.029-3.944.1-5.946-.022-4.286,1.691-13.9,2.616-18.423l3.562-17.377a11.621,11.621,0,0,0-.957,2.124c-1.088,2.776-2.755,8.2-3.8,11.3-.5,1.5-.96,3.082-1.417,4.641-2.665,9.1-3.9,15.922-3.1,25.527.964-.646,2.021-1.2,2.989-1.847M427.73,1084c.27-.31.254-.6.391-1.147.107-.435.209-.854.308-1.234a208.843,208.843,0,0,1,6.6-20.507c.723-1.793,1.286-3.486,1.964-5.289,1.279-3.406,3.166-7.961,3.988-9.809,2.137-4.78,4.232-9.581,6.8-14.15a42.979,42.979,0,0,0,3.637-8.378c.215-.8.85-4.641.257-5.285-.667-.72-3.441-1.486-4.481-1.486-.025,1.081-1.128,3.167-1.544,4-1.972,3.95-3.782,4.764-5.379,10.953-.37,1.433-.668,2.97-1.048,4.495-1.515,6.037-4.489,11.927-7.033,17.614a61.986,61.986,0,0,0-2.314,5.8,34.162,34.162,0,0,0-1.94,8.938c-.094,1.671-.273,3.392-.41,5.029-.286,3.456.2,6.992.2,10.456" transform="translate(-235.215 -784.482)" fill="#2e71fe" fill-rule="evenodd"/>
      <path id="Path_154" data-name="Path 154" d="M2318.179,1766.4c0-2.033.228-.9-.9-3.317-.893-1.94-5.184-10.931-5.184-11.145a30,30,0,0,1,1.973-2.652l53.786-70.554c.361-.483.668-.843,1.029-1.334.6-.806.424-.639,1.522-.547l15.343,1.235c-.3.443-.678.9-1.016,1.35l-53.432,70.492c-1.129,1.561-2.383,3.221-3.657,4.889-.326.427-6.325,8.284-8.44,10.809-.4.478-.463.774-1.029.774" transform="translate(-1888.025 -1370.549)" fill="#2e71fe" fill-rule="evenodd"/>
      <path id="Path_155" data-name="Path 155" d="M1708.343,2103.32c2.334-3.507,7.009-9.864,8.963-13.539,33.373,0,66.751-.216,100.126-.31,1.3,2.8,5.179,9.989,5.768,12.513-1.307,0-2.253.1-3.5.1l-78.922.861c-10.812.121-21.627.369-32.435.369" transform="translate(-1395.006 -1707.875)" fill="#fefefe" fill-rule="evenodd"/>
      <path id="Path_156" data-name="Path 156" d="M1984.737,2170.161l-72.522-2.259,77.979-.923c-.18,2.169-.092,2.936-.944,3.167a27.883,27.883,0,0,1-4.514.014" transform="translate(-1561.485 -1771.228)" fill="#031c49" fill-rule="evenodd"/>
    </g>
  </g>
</svg>
