<svg width="237" height="230" viewBox="0 0 237 230" fill="none" xmlns="http://www.w3.org/2000/svg">
<path d="M219.431 76.8306C217.486 77.4652 216.425 79.5561 217.06 81.5002C220.564 92.2388 222.342 103.468 222.342 114.875C222.342 143.58 211.163 170.567 190.865 190.866C170.567 211.164 143.579 222.342 114.874 222.342C86.168 222.342 59.1806 211.164 38.8824 190.866C18.5841 170.567 7.40625 143.58 7.40625 114.874C7.40625 86.1685 18.5846 59.181 38.8828 38.8828C59.181 18.5846 86.1685 7.40625 114.874 7.40625C130.098 7.40625 144.808 10.5234 158.596 16.6719C171.919 22.6127 183.725 31.0715 193.688 41.8138C195.079 43.3131 197.422 43.402 198.922 42.0106C200.421 40.62 200.509 38.2773 199.119 36.7771C188.472 25.2979 175.854 16.2581 161.614 9.90771C146.869 3.33374 131.144 0 114.874 0C84.1901 0 55.3427 11.9486 33.6461 33.6461C11.9491 55.3427 0 84.1901 0 114.874C0 145.558 11.9491 174.405 33.6461 196.102C55.3427 217.799 84.1901 229.748 114.874 229.748C145.558 229.748 174.406 217.799 196.102 196.102C217.799 174.405 229.748 145.558 229.748 114.874C229.748 102.685 227.848 90.6835 224.101 79.202C223.466 77.2578 221.375 76.1974 219.431 76.8306Z" fill="white"/>
<path d="M233.746 34.9153C231.648 32.8147 228.856 31.658 225.886 31.658C222.915 31.658 220.124 32.8147 218.027 34.9139L214.712 38.2287C213.266 39.6748 213.266 42.0193 214.712 43.4654C216.158 44.911 218.503 44.9114 219.949 43.4649L223.265 40.1488C223.964 39.4489 224.895 39.0637 225.885 39.0637C226.876 39.0637 227.806 39.4489 228.507 40.1506C229.208 40.8514 229.594 41.7818 229.594 42.772C229.594 43.7621 229.208 44.6925 228.507 45.3933L100.819 173.083C100.12 173.783 99.1893 174.168 98.1987 174.168C97.2081 174.168 96.2777 173.782 95.5769 173.081L45.7092 123.213C45.0084 122.512 44.6223 121.582 44.6223 120.592C44.6223 119.602 45.0084 118.671 45.7106 117.969C46.4096 117.269 47.34 116.884 48.3306 116.884C49.3211 116.884 50.2516 117.269 50.9524 117.97L95.5801 162.598C96.2745 163.292 97.2164 163.683 98.1987 163.683C99.1809 163.683 100.123 163.292 100.817 162.598L209.527 53.8887C210.973 52.4422 210.973 50.0981 209.527 48.6516C208.081 47.206 205.736 47.206 204.29 48.6516L98.1987 154.742L56.1914 112.735C54.0931 110.634 51.3019 109.477 48.3315 109.477C45.3611 109.477 42.5694 110.634 40.4725 112.733C38.3729 114.833 37.2166 117.624 37.2166 120.592C37.2166 123.56 38.3729 126.351 40.4725 128.451L90.3388 178.317C92.4366 180.418 95.2283 181.574 98.1987 181.574C101.169 181.574 103.961 180.418 106.057 178.319L233.744 50.6314C235.844 48.5317 237 45.7409 237 42.7724C237 39.8039 235.844 37.0131 233.746 34.9153Z" fill="#326DEC"/>
</svg>
