<svg width="32" height="32" viewBox="0 0 32 32" fill="none" xmlns="http://www.w3.org/2000/svg">
<path d="M12.1473 32L13.2351 20.8044L3.89802 27.2397L0 20.7163L10.3343 16.0441L0 11.1956L3.89802 4.76033L13.2351 11.1956L12.1473 0H19.8527L18.7649 11.1956L28.102 4.76033L32 11.1956L21.6657 16.0441L32 20.7163L28.102 27.2397L18.7649 20.8044L19.8527 32H12.1473Z" fill="#FFF5ED"/>
<path d="M12.8697 30L13.7535 20.2039L6.16714 25.8347L3 20.1267L11.3966 16.0386L3 11.7961L6.16714 6.16529L13.7535 11.7961L12.8697 2H19.1303L18.2465 11.7961L25.8329 6.16529L29 11.7961L20.6034 16.0386L29 20.1267L25.8329 25.8347L18.2465 20.2039L19.1303 30H12.8697Z" fill="#AF37A5"/>
<path d="M13.5921 27L14.272 19.303L8.43626 23.7273L6 19.2424L12.4589 16.0303L6 12.697L8.43626 8.27273L14.272 12.697L13.5921 5H18.4079L17.728 12.697L23.5637 8.27273L26 12.697L19.5411 16.0303L26 19.2424L23.5637 23.7273L17.728 19.303L18.4079 27H13.5921Z" fill="#86E54A"/>
<path d="M14.0737 25L14.6176 18.7025L9.94901 22.3223L8 18.6529L13.1671 16.0248L8 13.2975L9.94901 9.67769L14.6176 13.2975L14.0737 7H17.9263L17.3824 13.2975L22.051 9.67769L24 13.2975L18.8329 16.0248L24 18.6529L22.051 22.3223L17.3824 18.7025L17.9263 25H14.0737Z" fill="#231F20"/>
<path d="M14.3144 24L14.7904 18.4022L10.7054 21.6198L9 18.3581L13.5212 16.022L9 13.5978L10.7054 10.3802L14.7904 13.5978L14.3144 8H17.6856L17.2096 13.5978L21.2946 10.3802L23 13.5978L18.4788 16.022L23 18.3581L21.2946 21.6198L17.2096 18.4022L17.6856 24H14.3144Z" fill="#FFF5ED"/>
</svg>
