<svg width="246" height="40" viewBox="0 0 246 40" fill="none" xmlns="http://www.w3.org/2000/svg">
<path d="M170.082 3.74603L169.145 8.62385H163.427L163.426 8.62986H156.447L156.448 8.62385H147.794C147.784 8.53499 147.772 8.4468 147.759 8.35861C147.613 7.38519 147.248 6.47456 146.672 5.65012C146.132 4.88047 145.346 4.24043 144.333 3.74536H170.082L170.082 3.74603Z" fill="white"/>
<path d="M155.482 10.3997L152.154 27.7363H159.132L162.461 10.3997H155.482Z" fill="white"/>
<path d="M111.441 16.7337L106.974 25.4304L104.247 13.7807L97.2196 27.7474H91.4338L91.4305 27.7314L86.3235 3.74646H93.4802L96.1212 18.6004L103.751 3.74646H108.637L111.441 16.7337Z" fill="white"/>
<path d="M145.852 11.2929C145.682 12.1815 145.367 13.0494 144.909 13.8979C144.45 14.7457 143.821 15.5367 143.023 16.269C142.223 17.0019 141.22 17.5965 140.011 18.0521C139.642 18.1911 139.253 18.302 138.855 18.3989L142.701 27.7363H136.038L132.653 18.7356H131.336L129.609 27.7363H122.613L125.942 10.3997H132.937L132.221 14.1317H133.727C134.887 14.1317 135.794 14.0569 136.448 13.9065C137.101 13.7569 137.606 13.4796 137.963 13.0754C138.319 12.6719 138.57 12.0893 138.716 11.3277C138.935 10.1852 138.76 9.40353 138.188 8.98196C137.616 8.56105 136.435 8.62386 134.75 8.62386H134.03L134.033 8.60649H126.286L123.455 8.60381L113.268 27.7476H107.612L119.941 3.7467H138.8C140.317 3.7467 141.592 3.9772 142.625 4.43886C143.658 4.90052 144.432 5.50047 144.948 6.23873C145.465 6.97765 145.787 7.77937 145.917 8.64457C146.047 9.51043 146.025 10.393 145.852 11.2929Z" fill="white"/>
<path d="M193.24 24.196C193.24 24.196 193.238 24.1973 193.237 24.1973C192.808 24.4218 192.397 24.534 192.005 24.534C191.592 24.534 191.258 24.3864 191.002 24.0904C190.746 23.7944 190.672 23.3675 190.779 22.809C190.929 22.0313 191.359 21.4147 192.072 20.9604C192.555 20.6524 193.225 20.315 194.055 19.9535L194.573 17.2524C194.453 17.2911 194.326 17.3319 194.182 17.3773C193.748 17.5143 193.108 17.714 192.264 17.9773C190.777 18.4376 189.569 18.8812 188.64 19.3081C187.711 19.7351 186.929 20.2856 186.297 20.9597C185.664 21.6331 185.249 22.4856 185.051 23.5145C184.921 24.194 184.939 24.8541 185.108 25.4948C185.276 26.1355 185.683 26.6673 186.327 27.0889C186.972 27.5104 187.882 27.7216 189.058 27.7216C190.234 27.7216 191.377 27.3835 192.17 26.9726C192.373 26.8671 192.58 26.7288 192.784 26.5751L193.241 24.1953L193.24 24.196Z" fill="white"/>
<path d="M234.382 20.0938C234.015 22.0046 232.915 27.7369 232.915 27.7369H227.398L229.056 19.1057C229.061 19.0763 229.373 16.1707 226.316 16.1707C223.26 16.1707 222.59 18.7469 222.472 19.2774C222.439 19.4905 222.4 19.7177 222.353 19.9616C221.987 21.8723 220.861 27.7369 220.861 27.7369H215.345L217.002 19.1057C217.007 19.0763 217.319 16.1707 214.263 16.1707C211.206 16.1707 210.466 19.0215 210.403 19.3469L208.791 27.7369H203.326L203.328 27.7249H197.797L196.834 27.7202C196.834 27.7202 196.625 27.7216 195.889 27.7216C194.974 27.7216 193.886 26.8731 194.193 25.3612L194.572 23.3876C194.572 23.3876 194.576 23.3849 194.578 23.3836L195.338 19.4231C195.338 19.4231 195.335 19.4251 195.333 19.4257L195.844 16.7633C195.844 16.7633 195.848 16.762 195.849 16.7607C196.005 15.9509 195.968 15.3149 195.739 14.8546C195.542 14.4604 195.021 14.2453 194.213 14.1891H189.143L189.87 10.3997H195.09V10.4043C198.396 10.4351 199.781 10.9014 200.748 11.8067C201.75 12.7434 202.092 14.0335 201.777 15.6763L200.331 23.2099C200.252 23.6208 200.521 23.9541 200.932 23.9541H204.052L204.783 20.1486C204.798 20.0471 204.823 19.9094 204.849 19.7745C205.186 18.0207 205.778 16.7988 206.195 16.0318C206.825 14.8713 207.633 13.8477 208.598 12.9879C209.57 12.1214 210.657 11.4613 211.829 11.0263C212.971 10.6021 214.185 10.3876 215.436 10.3876C216.869 10.3876 218.108 10.6442 219.116 11.1493C219.884 11.5348 220.53 12.0439 221.045 12.6679C221.916 11.9617 222.865 11.4038 223.883 11.0263C225.025 10.6021 226.238 10.3876 227.49 10.3876C228.923 10.3876 230.161 10.6442 231.17 11.1493C232.19 11.661 232.996 12.3906 233.563 13.3173C234.113 14.2152 234.456 15.2521 234.581 16.3992C234.66 17.1315 234.751 18.1704 234.382 20.0938Z" fill="white"/>
<path d="M166.191 20.5983H172.148C172.148 20.5983 172.148 20.5956 172.147 20.5942H183.523L183.753 19.399C184.161 17.2738 184.095 15.5387 183.557 14.1938C183.018 12.8489 182.187 11.8808 181.065 11.2882C179.942 10.6963 178.717 10.4003 177.391 10.4003C175.378 10.4003 173.595 10.7738 172.039 11.5207C170.483 12.2683 169.227 13.2972 168.275 14.6087C167.322 15.9209 166.696 17.4067 166.368 19.067C166.25 19.6642 166.201 20.0444 166.192 20.3744C166.187 20.4526 166.195 20.5221 166.192 20.5989L166.191 20.5983ZM173.806 15.057C174.527 14.3989 175.369 14.0689 176.332 14.0689C177.295 14.0689 177.99 14.3929 178.385 15.0403C178.78 15.6877 178.873 16.5542 178.665 17.6386H172.42C172.624 16.5763 173.086 15.7158 173.806 15.057Z" fill="white"/>
<path d="M172.451 21.887H166.212C166.239 22.1342 166.264 22.3821 166.314 22.6246C166.531 23.6642 166.986 24.5835 167.668 25.3558C168.348 26.1255 169.222 26.7161 170.268 27.1096C170.969 27.3742 172.102 27.7249 173.826 27.7249C173.959 27.7249 174.096 27.7229 174.217 27.7189H176.762L177.599 23.3575H175.062C174.957 23.3575 173.201 23.3181 172.451 21.887H172.451Z" fill="white"/>
<path d="M73.7725 0L63.8251 34.4935C63.6895 34.903 63.5632 35.2919 63.4429 35.6587C62.557 38.3558 61.9985 39.8711 60.6242 40H45.636L51.6756 19.057L52.2609 17.0266L57.1708 0H73.7725Z" fill="url(#paint0_linear_7104_31)"/>
<path d="M63.443 35.658C62.5571 38.3551 61.9985 39.8704 60.6242 39.9993H58.503L57.3352 38.9718L51.675 19.0556L51.6516 18.9735L52.2603 17.0253C52.2783 17.0841 52.2963 17.1429 52.3144 17.2023C52.3658 17.3707 52.4173 17.539 52.4694 17.7074C52.5502 17.9713 52.6317 18.2352 52.7139 18.4984C52.8215 18.8438 52.9297 19.1893 53.0379 19.534C53.1675 19.9476 53.2985 20.3618 53.4301 20.7747C53.5791 21.243 53.7287 21.7107 53.8797 22.1783C54.0434 22.6868 54.2091 23.1959 54.3755 23.7036C54.5512 24.2394 54.7282 24.7746 54.9066 25.3097C55.0903 25.8589 55.2754 26.4074 55.4625 26.956C55.6502 27.5045 55.8399 28.053 56.0324 28.6008C56.2208 29.136 56.4105 29.6698 56.6049 30.2029C56.7893 30.71 56.9771 31.2171 57.1695 31.7215C57.3465 32.1879 57.5282 32.6529 57.7153 33.1159C57.8817 33.5274 58.052 33.9376 58.2311 34.3445C58.3827 34.6886 58.5384 35.03 58.7068 35.3667C58.9059 35.7656 59.1076 36.1965 59.425 36.5172C59.7096 36.8038 60.0771 37.0089 60.4732 37.0924C60.6884 37.1372 60.9155 37.1378 61.1313 37.1051C61.4413 37.0577 61.7386 36.9468 62.0146 36.7991C62.5537 36.5105 63.0227 36.0996 63.4423 35.6587L63.443 35.658Z" fill="url(#paint1_linear_7104_31)"/>
<path d="M65.3899 29.0685L73.7725 0H57.3352C57.9024 9.32605 60.5715 20.6604 65.3899 29.0685Z" fill="url(#paint2_linear_7104_31)"/>
<path d="M60.5724 40H43.97C42.3726 39.8497 41.8247 37.8427 40.691 34.255C40.6616 34.1628 39.1263 28.8694 37.3872 22.8692C37.0431 21.684 36.6917 20.4707 36.3416 19.2648C34.3714 12.4681 32.4646 5.89534 32.4178 5.74569C31.2834 2.1573 30.7356 0.150991 29.1375 0H45.6864C46.8869 0.112909 47.4949 1.27474 48.2038 3.36791C48.2038 3.36791 48.2038 3.36924 48.2044 3.36991C48.4389 4.0614 48.6841 4.85444 48.9654 5.74569C49.0636 6.05635 57.1938 33.9443 57.292 34.255C58.4258 37.8427 58.9736 39.8497 60.5717 40H60.5724Z" fill="url(#paint3_linear_7104_31)"/>
<path d="M47.0331 33.1466C45.4176 27.2599 41.0095 20.6604 36.7463 20.6604C38.7319 27.5078 40.6574 34.1507 40.6902 34.2543C41.8239 37.842 42.3724 39.849 43.9699 39.9993H51.4687C49.6614 39.3339 47.8315 36.0548 47.0331 33.1459V33.1466Z" fill="url(#paint4_linear_7104_31)"/>
<path d="M48.2034 3.36791C48.1834 3.32448 48.162 3.28172 48.1393 3.23963C47.705 2.44526 46.8077 2.10787 45.9319 2.1867C45.5223 2.22345 45.1214 2.37911 44.8228 2.66707C44.5308 2.94834 44.3311 3.30978 44.146 3.66655C44.132 3.69461 44.1173 3.722 44.1026 3.75006C43.6296 4.6687 43.216 5.61407 42.8265 6.57146C42.4357 7.5342 42.0742 8.50829 41.7201 9.48506C41.0313 11.3811 40.3866 13.2932 39.7626 15.2114C39.2241 16.8663 38.7016 18.5265 38.1919 20.1907C37.928 21.0533 37.6661 21.9165 37.4115 22.7816C37.3948 22.8391 37.3861 22.8685 37.3861 22.8685L36.0526 24.174C35.9885 24.174 36.1936 21.253 36.3406 19.2641C36.4167 18.2379 36.4769 17.4595 36.4769 17.4595L40.0652 5.74769L42.7944 1.31015L43.9489 0H45.686C46.8866 0.112909 47.4945 1.27474 48.2034 3.36791Z" fill="url(#paint5_linear_7104_31)"/>
<path d="M29.1372 40H14.1483C12.7934 39.8724 12.2315 38.3979 11.367 35.7722C11.236 35.3727 11.097 34.9458 10.9474 34.4942L1 0H17.6017L22.4762 16.9017L22.6191 17.3981L29.1372 39.9993V40Z" fill="url(#paint6_linear_7104_31)"/>
<path d="M23.0474 18.9741L23.024 19.0563L17.3638 38.9725L16.196 40H14.1483C12.7933 39.8724 12.2315 38.3979 11.3669 35.7722C11.7585 36.1698 12.1921 36.5352 12.6844 36.7991C12.9604 36.9468 13.2577 37.0577 13.5677 37.1051C13.7841 37.1385 14.0113 37.1372 14.2258 37.0924C14.6213 37.0089 14.9894 36.8038 15.274 36.5172C15.5914 36.1972 15.7931 35.7656 15.9922 35.3667C16.1599 35.03 16.3163 34.6886 16.4679 34.3445C16.6463 33.9376 16.8173 33.5274 16.9837 33.1159C17.1708 32.6529 17.3518 32.1879 17.5295 31.7215C17.7219 31.2164 17.9097 30.71 18.0941 30.2029C18.2885 29.6698 18.4782 29.1353 18.6666 28.6008C18.8591 28.0536 22.4902 17.0974 22.5122 17.0259L22.6198 17.3987L23.0481 18.9741H23.0474Z" fill="url(#paint7_linear_7104_31)"/>
<path d="M10.3401 32.3863C11.1806 22.8718 14.3681 13.5819 19.0729 5.1003L17.6017 0H1L10.3394 32.3856L10.3401 32.3863Z" fill="url(#paint8_linear_7104_31)"/>
<path d="M42.3557 5.74502C42.2575 6.05569 34.1501 34.0412 34.0826 34.2543C32.9488 37.842 32.401 39.849 30.8029 39.9993H14.2012C15.7986 39.849 16.3471 37.842 17.4809 34.2543C17.5791 33.9436 25.7092 6.05569 25.8075 5.74502C26.9412 2.15797 27.4897 0.150991 29.0872 0H45.6354C44.038 0.150991 43.4895 2.1573 42.3557 5.74502Z" fill="url(#paint9_linear_7104_31)"/>
<path d="M22.0901 40C24.1278 36.1404 25.7741 32.1003 27.6508 28.1505C29.7807 23.6682 32.3983 19.5233 35.4462 15.6102C37.2948 13.2365 39.3259 11.0551 41.4284 8.93187C41.9809 7.02978 42.3357 5.80916 42.3557 5.74569C43.4895 2.15797 44.038 0.150991 45.6354 0H29.0872C27.4897 0.150991 26.9412 2.1573 25.8075 5.74502C25.7092 6.05569 17.5791 33.9436 17.4809 34.2543C16.3471 37.842 15.7986 39.849 14.2012 39.9993H22.0901V40Z" fill="url(#paint10_linear_7104_31)"/>
<path d="M93.6903 37.7953H93.2947V32.5453H91.4695V32.1765H95.5162V32.5453H93.6909V37.7953H93.6903Z" fill="white"/>
<path d="M98.7328 35.3467V37.7946H98.3406V32.1758H99.6781C100.375 32.1758 100.89 32.3048 101.223 32.562C101.555 32.8192 101.723 33.2074 101.723 33.7245C101.723 34.1013 101.623 34.4187 101.425 34.6779C101.226 34.9364 100.924 35.1222 100.519 35.2351L102.045 37.7946H101.576L100.127 35.3467H98.7321H98.7328ZM98.7328 35.0086H99.8051C100.279 35.0086 100.647 34.903 100.908 34.6912C101.169 34.4801 101.3 34.1681 101.3 33.7552C101.3 33.3423 101.172 33.0163 100.916 32.8212C100.66 32.6268 100.242 32.5293 99.6634 32.5293H98.7334V35.0079L98.7328 35.0086Z" fill="white"/>
<path d="M109.141 32.1765V35.8123C109.141 36.4577 108.954 36.9628 108.579 37.3263C108.205 37.6904 107.684 37.8721 107.015 37.8721C106.347 37.8721 105.857 37.6897 105.491 37.3242C105.127 36.9595 104.944 36.4497 104.944 35.797V32.1765H105.339V35.8123C105.339 36.3528 105.489 36.7737 105.789 37.075C106.089 37.3764 106.512 37.5267 107.061 37.5267C107.609 37.5267 108.012 37.379 108.306 37.0831C108.601 36.7871 108.748 36.3769 108.748 35.8511V32.1772H109.141V32.1765Z" fill="white"/>
<path d="M115.763 36.3461C115.763 36.8151 115.59 37.1866 115.246 37.4605C114.901 37.7344 114.443 37.8721 113.872 37.8721C113.185 37.8721 112.659 37.7966 112.293 37.6456V37.2534C112.698 37.4251 113.214 37.5106 113.841 37.5106C114.302 37.5106 114.668 37.4051 114.938 37.1933C115.209 36.9821 115.344 36.7049 115.344 36.3615C115.344 36.149 115.299 35.9726 115.21 35.833C115.12 35.6934 114.974 35.5658 114.771 35.4509C114.569 35.3353 114.272 35.211 113.88 35.0781C113.306 34.881 112.909 34.6678 112.691 34.438C112.472 34.2089 112.362 33.9035 112.362 33.5214C112.362 33.1011 112.527 32.7584 112.856 32.4932C113.185 32.2279 113.608 32.0956 114.126 32.0956C114.644 32.0956 115.15 32.1959 115.613 32.3956L115.471 32.7337C115.005 32.5393 114.559 32.4417 114.133 32.4417C113.708 32.4417 113.388 32.5379 113.142 32.7297C112.896 32.9221 112.773 33.1833 112.773 33.5134C112.773 33.7211 112.81 33.8915 112.887 34.0245C112.962 34.1574 113.086 34.2777 113.257 34.3839C113.429 34.4901 113.724 34.6177 114.141 34.766C114.58 34.917 114.908 35.064 115.129 35.2063C115.349 35.3486 115.51 35.5097 115.611 35.6907C115.713 35.8711 115.763 36.0896 115.763 36.3461Z" fill="white"/>
<path d="M120.406 37.7953H120.01V32.5453H118.185V32.1765H122.232V32.5453H120.406V37.7953H120.406Z" fill="white"/>
<path d="M128.127 37.7953H125.056V32.1765H128.127V32.538H125.448V34.6632H127.977V35.0246H125.448V37.4345H128.127V37.7959V37.7953Z" fill="white"/>
<path d="M135.656 34.9318C135.656 35.8745 135.409 36.5873 134.914 37.0704C134.42 37.5534 133.694 37.7946 132.736 37.7946H131.391V32.1758H132.909C133.805 32.1758 134.487 32.4103 134.955 32.8794C135.423 33.3484 135.656 34.0325 135.656 34.9318H135.656ZM135.23 34.9471C135.23 34.1427 135.025 33.5374 134.617 33.1312C134.208 32.725 133.608 32.5219 132.816 32.5219H131.783V37.4485H132.713C134.391 37.4485 135.23 36.6147 135.23 34.9465L135.23 34.9471Z" fill="white"/>
<path d="M147.24 34.9318C147.24 35.8745 146.993 36.5873 146.498 37.0704C146.004 37.5534 145.278 37.7946 144.319 37.7946H142.975V32.1758H144.493C145.389 32.1758 146.071 32.4103 146.539 32.8794C147.007 33.3484 147.24 34.0325 147.24 34.9318H147.24ZM146.814 34.9471C146.814 34.1427 146.609 33.5374 146.201 33.1312C145.792 32.725 145.192 32.5219 144.4 32.5219H143.367V37.4485H144.297C145.975 37.4485 146.814 36.6147 146.814 34.9465L146.814 34.9471Z" fill="white"/>
<path d="M150.522 37.7953V32.1765H150.914V37.7953H150.522Z" fill="white"/>
<path d="M156.706 34.9625H158.777V37.526C158.234 37.7565 157.623 37.8721 156.944 37.8721C156.058 37.8721 155.378 37.6215 154.905 37.1205C154.432 36.6194 154.196 35.9105 154.196 34.9932C154.196 34.422 154.313 33.9156 154.548 33.4733C154.782 33.031 155.118 32.6903 155.555 32.4491C155.991 32.2079 156.493 32.0876 157.059 32.0876C157.672 32.0876 158.221 32.2006 158.708 32.4257L158.55 32.7791C158.063 32.554 157.559 32.4411 157.036 32.4411C156.296 32.4411 155.709 32.6696 155.275 33.1272C154.84 33.5849 154.623 34.2015 154.623 34.9779C154.623 35.823 154.83 36.459 155.242 36.886C155.654 37.3122 156.26 37.526 157.06 37.526C157.578 37.526 158.017 37.4532 158.378 37.3069V35.3313H156.706V34.9625Z" fill="white"/>
<path d="M162.179 37.7953V32.1765H162.572V37.7953H162.179Z" fill="white"/>
<path d="M167.618 37.7953H167.223V32.5453H165.397V32.1765H169.444V32.5453H167.619V37.7953H167.618Z" fill="white"/>
<path d="M174.974 35.8117H172.691L171.908 37.7946H171.473L173.733 32.1531H173.983L176.196 37.7946H175.754L174.974 35.8117H174.974ZM172.834 35.4582H174.843L174.078 33.4332C174.014 33.2742 173.937 33.0544 173.848 32.7725C173.778 33.0183 173.703 33.2415 173.621 33.4412L172.834 35.4589V35.4582Z" fill="white"/>
<path d="M178.983 37.7953V32.1765H179.376V37.4258H182.054V37.7946H178.983V37.7953Z" fill="white"/>
<path d="M192.431 33.7906C192.431 34.3338 192.247 34.75 191.878 35.0393C191.509 35.3286 190.987 35.4736 190.31 35.4736H189.441V37.7946H189.049V32.1758H190.425C191.762 32.1758 192.431 32.7137 192.431 33.79V33.7906ZM189.441 35.1355H190.214C190.846 35.1355 191.304 35.0313 191.586 34.8222C191.868 34.6138 192.009 34.2744 192.009 33.806C192.009 33.3731 191.875 33.0524 191.609 32.8433C191.343 32.6348 190.93 32.5299 190.372 32.5299H189.442V35.1355H189.441Z" fill="white"/>
<path d="M198.35 35.8117H196.067L195.283 37.7946H194.849L197.108 32.1531H197.358L199.572 37.7946H199.129L198.349 35.8117H198.35ZM196.209 35.4582H198.219L197.454 33.4332C197.39 33.2742 197.313 33.0544 197.223 32.7725C197.154 33.0183 197.078 33.2415 196.997 33.4412L196.209 35.4589V35.4582Z" fill="white"/>
<path d="M202.751 35.3467V37.7946H202.358V32.1758H203.696C204.393 32.1758 204.908 32.3048 205.241 32.562C205.573 32.8192 205.74 33.2074 205.74 33.7245C205.74 34.1013 205.641 34.4187 205.442 34.6779C205.244 34.9364 204.942 35.1222 204.537 35.2351L206.063 37.7946H205.594L204.145 35.3467H202.75H202.751ZM202.751 35.0086H203.823C204.297 35.0086 204.665 34.903 204.926 34.6912C205.187 34.4801 205.318 34.1681 205.318 33.7552C205.318 33.3423 205.19 33.0163 204.934 32.8212C204.678 32.6268 204.26 32.5293 203.681 32.5293H202.751V35.0079L202.751 35.0086Z" fill="white"/>
<path d="M210.491 37.7953H210.096V32.5453H208.27V32.1765H212.317V32.5453H210.492V37.7953H210.491Z" fill="white"/>
<path d="M219.227 37.7953H218.832L215.504 32.8072H215.473C215.504 33.4018 215.519 33.8501 215.519 34.1521V37.7953H215.143V32.1765H215.535L218.859 37.1572H218.883C218.859 36.6962 218.848 36.258 218.848 35.8431V32.1765H219.228V37.7953H219.227Z" fill="white"/>
<path d="M225.879 37.7953H222.809V32.1765H225.879V32.538H223.201V34.6632H225.73V35.0246H223.201V37.4345H225.879V37.7959V37.7953Z" fill="white"/>
<path d="M229.535 35.3467V37.7946H229.143V32.1758H230.481C231.178 32.1758 231.693 32.3048 232.025 32.562C232.358 32.8192 232.525 33.2074 232.525 33.7245C232.525 34.1013 232.426 34.4187 232.227 34.6779C232.029 34.9364 231.727 35.1222 231.322 35.2351L232.848 37.7946H232.379L230.93 35.3467H229.535H229.535ZM229.535 35.0086H230.608C231.081 35.0086 231.45 34.903 231.711 34.6912C231.972 34.4801 232.103 34.1681 232.103 33.7552C232.103 33.3423 231.975 33.0163 231.719 32.8212C231.463 32.6268 231.045 32.5293 230.466 32.5293H229.536V35.0079L229.535 35.0086Z" fill="white"/>
<path d="M244.613 7.83953H244.614C244.614 7.12065 244.322 6.46858 243.849 5.99623C243.377 5.52388 242.726 5.23125 242.007 5.23125V5.23259H242.005V5.23125C241.287 5.23125 240.635 5.52388 240.162 5.99623C239.69 6.46858 239.397 7.11998 239.397 7.83819H239.399V7.83953H239.397C239.397 8.31923 239.527 8.76953 239.753 9.15502C240.206 9.92802 241.045 10.4471 242.004 10.4471V10.4458H242.006V10.4471C242.725 10.4471 243.377 10.1545 243.849 9.68216C243.927 9.60466 244 9.52315 244.065 9.4383C244.408 8.99668 244.613 8.44149 244.613 7.83886V7.83953ZM240.842 9.1744V6.42115H242.261C242.524 6.42115 242.724 6.44386 242.863 6.48929C243.003 6.53405 243.115 6.61757 243.2 6.73983C243.286 6.86209 243.328 7.01041 243.328 7.18546C243.328 7.33912 243.295 7.47007 243.23 7.58097C243.165 7.69188 243.075 7.7814 242.961 7.85089C242.888 7.89431 242.788 7.93106 242.662 7.95912C242.764 7.99319 242.837 8.02727 242.884 8.06134C242.915 8.08405 242.96 8.13216 243.02 8.20565C243.08 8.28048 243.12 8.3366 243.14 8.37668L243.551 9.17507H242.589L242.134 8.33326C242.077 8.22502 242.026 8.1542 241.98 8.1208C241.919 8.07871 241.849 8.05733 241.772 8.05733H241.697V9.17507H240.842V9.1744ZM241.697 7.53621H242.057C242.095 7.53621 242.171 7.52352 242.282 7.4988C242.338 7.48744 242.385 7.45804 242.42 7.41261C242.456 7.36651 242.474 7.31306 242.474 7.2536C242.474 7.16474 242.446 7.0966 242.389 7.04916C242.332 7.00106 242.227 6.97701 242.072 6.97701H241.698V7.53621H241.697ZM245.322 7.83886H245.323C245.323 8.60584 245.063 9.31203 244.626 9.87457C244.54 9.98481 244.448 10.089 244.351 10.1859C243.752 10.7852 242.923 11.1567 242.005 11.1567V11.158H242.003V11.1567C240.784 11.1567 239.717 10.4966 239.141 9.51513C238.853 9.02341 238.688 8.45084 238.688 7.84086H238.687V7.83886H238.688C238.688 6.92155 239.059 6.09311 239.659 5.49382C240.258 4.89453 241.088 4.52306 242.005 4.52306V4.52173H242.007V4.52306C242.923 4.52306 243.753 4.89386 244.351 5.49382C244.95 6.09244 245.322 6.92222 245.322 7.83953V7.83886Z" fill="white"/>
<defs>
<linearGradient id="paint0_linear_7104_31" x1="45.6353" y1="19.9997" x2="73.7725" y2="19.9997" gradientUnits="userSpaceOnUse">
<stop stop-color="#6ABDBD"/>
<stop offset="1" stop-color="#117F7C"/>
</linearGradient>
<linearGradient id="paint1_linear_7104_31" x1="51.6523" y1="28.5133" x2="63.443" y2="28.5133" gradientUnits="userSpaceOnUse">
<stop stop-color="#579D9E"/>
<stop offset="1" stop-color="#00615E"/>
</linearGradient>
<linearGradient id="paint2_linear_7104_31" x1="54.2245" y1="19.9943" x2="76.7376" y2="2.7733" gradientUnits="userSpaceOnUse">
<stop stop-color="#6ABDBD"/>
<stop offset="1" stop-color="#117F7C"/>
</linearGradient>
<linearGradient id="paint3_linear_7104_31" x1="46.8175" y1="-4.9787" x2="43.4983" y2="37.2668" gradientUnits="userSpaceOnUse">
<stop stop-color="#FF0077"/>
<stop offset="1" stop-color="#C60264"/>
</linearGradient>
<linearGradient id="paint4_linear_7104_31" x1="56.9097" y1="30.3305" x2="30.3072" y2="30.3305" gradientUnits="userSpaceOnUse">
<stop stop-color="#FF0077"/>
<stop offset="1" stop-color="#C60264"/>
</linearGradient>
<linearGradient id="paint5_linear_7104_31" x1="36.0406" y1="12.0873" x2="48.2034" y2="12.0873" gradientUnits="userSpaceOnUse">
<stop stop-color="#FF0077"/>
<stop offset="1" stop-color="#79003B"/>
</linearGradient>
<linearGradient id="paint6_linear_7104_31" x1="1.27125" y1="-8.56174" x2="12.8715" y2="14.9381" gradientUnits="userSpaceOnUse">
<stop stop-color="#A7C62A"/>
<stop offset="1" stop-color="#6F8200"/>
</linearGradient>
<linearGradient id="paint7_linear_7104_31" x1="17.277" y1="22.7609" x2="16.9683" y2="43.2129" gradientUnits="userSpaceOnUse">
<stop stop-color="#718B32"/>
<stop offset="1" stop-color="#3C4E1F"/>
</linearGradient>
<linearGradient id="paint8_linear_7104_31" x1="8.70791" y1="-9.82713" x2="13.4314" y2="34.1822" gradientUnits="userSpaceOnUse">
<stop stop-color="#A7C62A"/>
<stop offset="1" stop-color="#6F8200"/>
</linearGradient>
<linearGradient id="paint9_linear_7104_31" x1="26.9619" y1="-9.6895" x2="31.1777" y2="32.6462" gradientUnits="userSpaceOnUse">
<stop stop-color="#FDA037"/>
<stop offset="1" stop-color="#C96400"/>
</linearGradient>
<linearGradient id="paint10_linear_7104_31" x1="7.04445" y1="-0.267241" x2="73.9563" y2="59.0202" gradientUnits="userSpaceOnUse">
<stop stop-color="#FDA037"/>
<stop offset="1" stop-color="#C96400"/>
</linearGradient>
</defs>
</svg>
