<svg width="248" height="40" viewBox="0 0 248 40" fill="none" xmlns="http://www.w3.org/2000/svg">
<g clip-path="url(#clip0_641_687)">
<path d="M171.624 3.80205L170.675 8.75305H164.875V8.75905H157.789V8.75305H149.006C148.996 8.66305 148.984 8.57305 148.971 8.48205C148.824 7.49251 148.447 6.55114 147.871 5.73305C147.257 4.89739 146.44 4.2321 145.497 3.80005L171.624 3.80205Z" fill="white"/>
<path d="M156.805 10.5559L153.426 28.1559H160.509L163.887 10.5559H156.805Z" fill="white"/>
<path d="M96.5559 18.897L93.8729 3.80298H86.6079L91.7949 28.165L96.5559 18.897Z" fill="white"/>
<path d="M112.101 16.986L109.25 3.80298H104.291L91.79 28.149V28.165H97.662L104.795 13.988L107.563 25.813L112.101 16.986Z" fill="white"/>
<path d="M120.729 3.80298L108.214 28.165H113.955L126.92 3.80298H120.729Z" fill="white"/>
<path d="M139.928 18.676C140.326 18.5825 140.718 18.465 141.102 18.324C142.227 17.922 143.265 17.3076 144.159 16.514C145.641 15.1878 146.65 13.4134 147.031 11.461C147.206 10.5753 147.229 9.66637 147.099 8.773C146.967 7.89364 146.63 7.05757 146.116 6.332C145.51 5.51967 144.693 4.88828 143.755 4.506C142.524 4.00363 141.202 3.76516 139.873 3.806H122.445L121.496 8.733H121.277L127.168 8.738H135.03V8.756H135.762C137.472 8.756 138.671 8.688 139.251 9.119C139.831 9.55 140.01 10.34 139.787 11.5C139.694 12.149 139.43 12.7616 139.022 13.275C138.612 13.7123 138.073 14.0076 137.484 14.118C136.574 14.2932 135.649 14.3699 134.723 14.347H133.194L133.922 10.559H126.822L123.443 28.159H130.543L132.297 19.023H133.633L137.069 28.159H143.836L139.928 18.676Z" fill="white"/>
<path d="M195.135 24.56C194.752 24.7719 194.323 24.8882 193.885 24.899C193.693 24.9054 193.501 24.8682 193.325 24.7903C193.149 24.7124 192.992 24.5957 192.867 24.449C192.732 24.2645 192.641 24.0511 192.602 23.8256C192.562 23.6 192.576 23.3685 192.641 23.149C192.714 22.7611 192.869 22.3932 193.095 22.0697C193.321 21.7463 193.614 21.4747 193.953 21.273C194.598 20.8826 195.271 20.541 195.966 20.251L196.492 17.509L196.092 17.6371C195.651 17.7764 195.002 17.9797 194.145 18.247C192.892 18.6198 191.663 19.0714 190.466 19.599C189.572 19.9974 188.764 20.5668 188.088 21.2751C187.426 21.9997 186.987 22.9001 186.824 23.868C186.691 24.5338 186.711 25.2211 186.882 25.8781C187.073 26.5554 187.515 27.1342 188.119 27.496C188.962 27.9717 189.925 28.1946 190.891 28.138C191.989 28.1355 193.071 27.8748 194.049 27.377C194.268 27.2613 194.476 27.1275 194.672 26.9771L195.135 24.56Z" fill="white"/>
<path d="M202.938 24.3149C202.844 24.3184 202.75 24.3 202.665 24.2609C202.579 24.2219 202.503 24.1635 202.444 24.0902C202.385 24.0169 202.344 23.9308 202.323 23.8387C202.303 23.7467 202.305 23.6512 202.328 23.5599L203.795 15.9149C203.989 15.2266 203.995 14.4988 203.811 13.8077C203.628 13.1165 203.262 12.4873 202.752 11.9859C201.77 11.0669 200.364 10.5939 197.007 10.5619V10.5569H191.713L190.974 14.4029H196.12C196.939 14.4599 197.469 14.6779 197.669 15.0809C197.913 15.6971 197.953 16.3756 197.781 17.0159H197.776L197.257 19.7159H197.262L196.488 23.7349H196.482L196.097 25.7349C196.015 26.0082 195.997 26.2966 196.044 26.5779C196.091 26.8593 196.202 27.1261 196.369 27.3578C196.535 27.5896 196.752 27.7802 197.004 27.9149C197.255 28.0496 197.534 28.1249 197.819 28.1349H198.778H199.755H205.846L206.58 24.3079L202.938 24.3149Z" fill="white"/>
<path d="M237.094 16.645C236.986 15.5386 236.633 14.4701 236.061 13.517C235.476 12.5685 234.634 11.8056 233.632 11.317C232.464 10.7725 231.185 10.5075 229.897 10.543C228.648 10.5393 227.407 10.7587 226.235 11.191C225.191 11.5856 224.218 12.1484 223.355 12.857C222.818 12.212 222.151 11.687 221.397 11.316C220.229 10.7714 218.95 10.5064 217.661 10.542C216.412 10.5384 215.172 10.7578 213.999 11.19C212.791 11.6431 211.678 12.3188 210.719 13.182C209.733 14.0627 208.907 15.1079 208.278 16.271C207.625 17.4575 207.164 18.7401 206.912 20.071C206.886 20.207 206.861 20.348 206.844 20.451L205.366 28.151H210.914L212.549 19.635C212.716 18.7212 213.201 17.8959 213.918 17.3057C214.635 16.7155 215.539 16.3985 216.467 16.411C216.858 16.3793 217.25 16.4364 217.616 16.5779C217.981 16.7194 218.31 16.9418 218.578 17.2283C218.845 17.5148 219.045 17.858 219.161 18.2324C219.277 18.6067 219.307 19.0024 219.248 19.39L217.565 28.151H223.165L224.68 20.259C224.728 20.011 224.767 19.78 224.799 19.559C224.976 18.6594 225.464 17.8506 226.177 17.2741C226.889 16.6977 227.783 16.3904 228.699 16.406C229.09 16.3743 229.483 16.4314 229.848 16.5729C230.214 16.7144 230.542 16.9368 230.81 17.2233C231.077 17.5098 231.276 17.853 231.393 18.2274C231.509 18.6017 231.539 18.9974 231.48 19.385L229.798 28.146H235.398L236.89 20.388C237.164 19.1602 237.233 17.8954 237.094 16.645Z" fill="white"/>
<path d="M167.674 20.9081H173.72H185.27L185.503 19.6951C185.939 17.9508 185.869 16.1185 185.303 14.4121C184.848 13.1528 183.946 12.1042 182.77 11.4651C181.62 10.8621 180.338 10.5529 179.04 10.5651C177.166 10.5287 175.309 10.9174 173.607 11.7021C172.09 12.4092 170.776 13.4875 169.786 14.8371C168.817 16.1852 168.156 17.73 167.85 19.3621C167.753 19.7986 167.694 20.2425 167.672 20.6891C167.669 20.7631 167.674 20.8311 167.674 20.9081ZM175.405 15.2831C176.098 14.6311 177.016 14.2727 177.968 14.2831C178.372 14.2435 178.779 14.3144 179.146 14.488C179.513 14.6616 179.826 14.9316 180.052 15.2691C180.473 16.0815 180.575 17.0226 180.336 17.9061H173.997C174.164 16.9016 174.658 15.9805 175.403 15.2861L175.405 15.2831Z" fill="white"/>
<path d="M174.029 22.2161H167.696C167.724 22.4671 167.749 22.7161 167.796 22.9621C168.003 23.9907 168.477 24.9468 169.17 25.7341C169.89 26.5357 170.796 27.1471 171.809 27.5141C172.963 27.9484 174.188 28.1604 175.421 28.1391C175.557 28.1391 175.692 28.1391 175.821 28.1331H178.403L179.253 23.7061H176.676C176.145 23.7014 175.624 23.5624 175.161 23.3018C174.698 23.0413 174.309 22.6677 174.029 22.2161Z" fill="white"/>
<path d="M73.8671 0L63.7671 34.492C63.6338 34.9013 63.5044 35.2893 63.3791 35.656C62.4791 38.356 61.9131 39.865 60.5181 39.999H45.3071L51.4381 19.056L52.0331 17.026L57.0171 0H73.8671Z" fill="url(#paint0_linear_641_687)"/>
<path d="M63.3821 35.5919C62.4821 38.3299 61.9162 39.8639 60.5212 39.9999H58.3641L57.1791 38.9569L51.4341 18.7409L51.4111 18.6579L52.0292 16.6809L52.0842 16.8609C52.1362 17.0322 52.1885 17.2032 52.2411 17.3739C52.3231 17.6406 52.4058 17.9072 52.4891 18.1739C52.5985 18.5246 52.7082 18.8752 52.8182 19.2259C52.9515 19.6452 53.0848 20.0649 53.2181 20.4849C53.3695 20.9602 53.5215 21.4349 53.6741 21.9089C53.8408 22.4249 54.0075 22.9409 54.1741 23.4569C54.3528 23.9996 54.5338 24.5422 54.7172 25.0849C54.9038 25.6422 55.0919 26.1989 55.2812 26.7549C55.4705 27.3109 55.6631 27.8676 55.8591 28.4249C56.0505 28.9676 56.2442 29.5102 56.4402 30.0529C56.6275 30.5682 56.8188 31.0819 57.0142 31.5939C57.1948 32.0673 57.3791 32.5392 57.5671 33.0099C57.7365 33.4279 57.9108 33.8436 58.0901 34.2569C58.2441 34.6059 58.4032 34.9569 58.5732 35.2939C58.7536 35.719 58.9996 36.1131 59.3022 36.4619C59.5928 36.7555 59.9624 36.9584 60.3661 37.0459C60.5863 37.0896 60.8125 37.094 61.0342 37.0589C61.3497 37.0074 61.6541 36.9022 61.9341 36.7479C62.4747 36.4412 62.9634 36.0511 63.3821 35.5919Z" fill="url(#paint1_linear_641_687)"/>
<path d="M65.3581 29.506L73.8661 0H57.1841C57.7581 9.466 60.4671 20.972 65.3581 29.506Z" fill="url(#paint2_linear_641_687)"/>
<path d="M60.4681 40H43.6161C41.9951 39.849 41.4381 37.842 40.2881 34.255C40.2581 34.162 38.7001 28.87 36.9341 22.869L35.8731 19.269C33.8731 12.469 31.9411 5.901 31.8901 5.751C30.7361 2.157 30.1821 0.151 28.5601 0H45.3601C46.5811 0.113 47.1961 1.274 47.9151 3.367C48.1531 4.058 48.4021 4.851 48.6871 5.743C48.7871 6.054 57.0391 33.943 57.1401 34.251C58.2891 37.841 58.8461 39.848 60.4681 40Z" fill="url(#paint3_linear_641_687)"/>
<path d="M46.7247 33.0419C45.0807 27.0659 40.6108 20.3689 36.2808 20.3689C38.2958 27.3189 40.2508 34.0619 40.2808 34.1689C41.4338 37.8109 41.9887 39.8469 43.6097 40.0009H51.2258C49.3928 39.3189 47.5377 35.9949 46.7247 33.0419Z" fill="url(#paint4_linear_641_687)"/>
<path d="M47.9128 3.419C47.8927 3.37437 47.87 3.33097 47.8448 3.289C47.6173 2.9114 47.284 2.60884 46.8862 2.41883C46.4884 2.22881 46.0435 2.15968 45.6068 2.22C45.1869 2.24997 44.7898 2.42209 44.4808 2.708C44.1977 3.00713 43.9656 3.3507 43.7938 3.725L43.7498 3.81C43.2698 4.742 42.8498 5.702 42.4498 6.674C42.0498 7.646 41.6928 8.64 41.3318 9.63C40.6318 11.555 39.9758 13.495 39.3448 15.443C38.7982 17.1223 38.2669 18.807 37.7509 20.497C37.4842 21.371 37.2202 22.247 36.9589 23.125L36.9329 23.213L35.5768 24.538C35.5128 24.538 35.7208 21.573 35.8698 19.555C35.9468 18.513 36.0059 17.724 36.0059 17.724L39.6538 5.832L42.4238 1.332L43.5948 0H45.3579C46.5769 0.115 47.1938 1.294 47.9128 3.419Z" fill="url(#paint5_linear_641_687)"/>
<path d="M28.56 40H13.346C11.971 39.872 11.4 38.4 10.523 35.772C10.3897 35.372 10.2477 34.946 10.097 34.494L0 0H16.851L21.8 16.9L21.945 17.4L28.56 40Z" fill="url(#paint6_linear_641_687)"/>
<path d="M22.3789 18.6579L22.3559 18.741L16.6109 38.958L15.4259 40.001H13.3469C11.9719 39.871 11.4009 38.373 10.5239 35.709C10.9147 36.1215 11.3654 36.4728 11.8609 36.751C12.141 36.9053 12.4454 37.0104 12.7609 37.062C12.983 37.0971 13.2094 37.0927 13.4299 37.049C13.8334 36.9615 14.2027 36.7586 14.4929 36.465C14.7958 36.1164 15.0419 35.7222 15.2219 35.297C15.3919 34.958 15.5509 34.609 15.7049 34.26C15.8856 33.8466 16.0603 33.431 16.2289 33.013C16.4189 32.543 16.6036 32.071 16.7829 31.597C16.9782 31.085 17.1693 30.5713 17.3559 30.056C17.5559 29.5133 17.7496 28.9706 17.9369 28.428C18.1369 27.872 21.8169 16.752 21.8369 16.679L21.9459 17.057L22.3789 18.6579Z" fill="url(#paint7_linear_641_687)"/>
<path d="M9.481 32.873C10.4712 23.1225 13.4905 13.687 18.345 5.173L16.851 0H0L9.481 32.873Z" fill="url(#paint8_linear_641_687)"/>
<path d="M41.9779 5.745C41.8779 6.056 33.6489 34.045 33.5779 34.254C32.4249 37.842 31.8709 39.848 30.2489 39.999H13.3999C15.0209 39.848 15.5779 37.842 16.7289 34.254C16.8289 33.943 25.0809 6.054 25.1809 5.745C26.3339 2.159 26.8879 0.152 28.5099 0H45.3099C43.6859 0.151 43.1309 2.158 41.9779 5.745Z" fill="url(#paint9_linear_641_687)"/>
<path d="M21.4099 40C23.4779 36.14 25.1489 32.1 27.0549 28.151C29.2228 23.6921 31.8766 19.4863 34.9679 15.61C36.8579 13.2648 38.8854 11.0338 41.0399 8.929C41.5999 7.029 41.9599 5.809 41.9809 5.746C43.1309 2.158 43.6859 0.151 45.3099 0H28.5099C26.8879 0.151 26.3319 2.158 25.1809 5.745C25.0809 6.056 16.8289 33.945 16.7289 34.254C15.5759 37.842 15.0209 39.848 13.3999 39.999L21.4099 40Z" fill="url(#paint10_linear_641_687)"/>
<path d="M93.909 35.1789L95.578 32.0579H96.007L94.107 35.5579V37.7579H93.697V35.5849L91.791 32.0579H92.247L93.909 35.1789ZM105.443 34.9019C105.486 35.6764 105.244 36.4398 104.764 37.0489C104.532 37.3129 104.242 37.5211 103.918 37.6579C103.594 37.7947 103.243 37.8566 102.892 37.8389C102.541 37.8563 102.191 37.7943 101.868 37.6575C101.544 37.5207 101.256 37.3127 101.024 37.0489C100.543 36.437 100.302 35.6709 100.345 34.8939C100.301 34.1195 100.545 33.3562 101.03 32.7509C101.264 32.4897 101.553 32.2839 101.877 32.1486C102.2 32.0133 102.55 31.9519 102.9 31.9689C103.25 31.9509 103.6 32.0122 103.924 32.1483C104.247 32.2844 104.536 32.4917 104.768 32.7549C105.247 33.3647 105.487 34.128 105.443 34.9019ZM100.778 34.9019C100.735 35.5774 100.928 36.2469 101.324 36.7959C101.516 37.0214 101.757 37.1992 102.029 37.3153C102.301 37.4314 102.597 37.4826 102.892 37.4649C103.188 37.4834 103.484 37.4332 103.757 37.3182C104.03 37.2031 104.273 37.0264 104.466 36.8019C104.862 36.2509 105.055 35.5792 105.01 34.9019C105.055 34.2277 104.863 33.559 104.466 33.0119C104.273 32.7895 104.031 32.6146 103.76 32.5006C103.488 32.3867 103.194 32.3368 102.9 32.3549C102.605 32.3377 102.31 32.3886 102.038 32.5035C101.766 32.6185 101.523 32.7945 101.33 33.0179C100.93 33.5614 100.735 34.2285 100.778 34.9019ZM114.778 32.0579V35.7479C114.794 36.0296 114.752 36.3115 114.654 36.576C114.556 36.8405 114.404 37.0819 114.208 37.2849C113.993 37.4778 113.742 37.626 113.47 37.7211C113.197 37.8162 112.908 37.8563 112.62 37.8389C112.338 37.8556 112.055 37.8149 111.79 37.7194C111.524 37.6238 111.28 37.4753 111.073 37.2829C110.881 37.0752 110.732 36.8307 110.637 36.5642C110.541 36.2977 110.5 36.0146 110.517 35.7319V32.0579H110.917V35.7479C110.903 35.9811 110.936 36.2148 111.014 36.4349C111.093 36.655 111.215 36.8571 111.373 37.0289C111.546 37.1885 111.75 37.3114 111.972 37.3901C112.193 37.4688 112.429 37.5018 112.664 37.4869C112.894 37.5014 113.125 37.4689 113.342 37.3914C113.56 37.3139 113.759 37.1929 113.928 37.0359C114.083 36.8685 114.203 36.6715 114.28 36.4567C114.357 36.2419 114.39 36.0138 114.377 35.7859V32.0569L114.778 32.0579ZM120.563 35.2759V37.7609H120.163V32.0609H121.52C122.071 32.0186 122.621 32.1561 123.088 32.4529C123.261 32.5949 123.397 32.7761 123.485 32.9813C123.573 33.1866 123.611 33.41 123.595 33.6329C123.607 33.9798 123.501 34.3205 123.295 34.5999C123.059 34.8845 122.736 35.0835 122.376 35.1659L123.925 37.7659H123.449L121.978 35.2809L120.563 35.2759ZM120.563 34.9329H121.651C122.05 34.9577 122.446 34.844 122.771 34.6109C122.907 34.4946 123.014 34.3482 123.084 34.1833C123.153 34.0183 123.183 33.8395 123.171 33.6609C123.187 33.4832 123.159 33.3044 123.092 33.1394C123.024 32.9744 122.917 32.8282 122.781 32.7129C122.399 32.482 121.954 32.3771 121.509 32.4129H120.565L120.563 34.9329ZM139.2 37.7609H138.872L137.62 33.3609C137.516 32.9996 137.438 32.7032 137.386 32.4719C137.345 32.6979 137.286 32.9579 137.209 33.2519C137.132 33.5459 136.713 35.0489 135.951 37.7609H135.616L134.048 32.0609H134.465L135.465 35.7349C135.504 35.8829 135.541 36.0202 135.574 36.1469C135.607 36.2736 135.638 36.3919 135.666 36.5019C135.693 36.6126 135.718 36.7192 135.74 36.8219C135.762 36.9246 135.782 37.0279 135.8 37.1319C135.863 36.7786 135.996 36.2416 136.2 35.5209L137.175 32.0609H137.616L138.759 36.0319C138.892 36.4899 138.987 36.8592 139.044 37.1399C139.078 36.9526 139.122 36.7526 139.175 36.5399C139.228 36.3272 139.628 34.8332 140.375 32.0579H140.775L139.2 37.7609ZM150.41 34.9019C150.453 35.6764 150.211 36.4398 149.731 37.0489C149.499 37.3129 149.209 37.5211 148.885 37.6579C148.561 37.7947 148.21 37.8566 147.859 37.8389C147.508 37.8563 147.158 37.7943 146.835 37.6575C146.511 37.5207 146.223 37.3127 145.991 37.0489C145.51 36.437 145.269 35.6709 145.312 34.8939C145.268 34.1195 145.512 33.3562 145.997 32.7509C146.231 32.4897 146.52 32.2839 146.844 32.1486C147.167 32.0133 147.517 31.9519 147.867 31.9689C148.217 31.9509 148.567 32.0122 148.891 32.1483C149.214 32.2844 149.503 32.4917 149.735 32.7549C150.215 33.3642 150.456 34.1275 150.414 34.9019H150.41ZM145.745 34.9019C145.702 35.5774 145.895 36.2469 146.291 36.7959C146.483 37.0214 146.724 37.1992 146.996 37.3153C147.268 37.4314 147.564 37.4826 147.859 37.4649C148.155 37.4834 148.451 37.4332 148.724 37.3182C148.997 37.2031 149.24 37.0264 149.433 36.8019C149.829 36.2509 150.022 35.5792 149.977 34.9019C150.022 34.2277 149.829 33.559 149.433 33.0119C149.24 32.7895 148.998 32.6145 148.727 32.5005C148.455 32.3866 148.161 32.3368 147.867 32.3549C147.572 32.3377 147.277 32.3886 147.005 32.5035C146.733 32.6185 146.49 32.7945 146.297 33.0179C145.899 33.5619 145.705 34.229 145.749 34.9019H145.745ZM155.953 35.2759V37.7609H155.553V32.0609H156.91C157.461 32.0186 158.011 32.1561 158.478 32.4529C158.651 32.5949 158.787 32.7761 158.875 32.9813C158.963 33.1866 159.001 33.41 158.985 33.6329C158.997 33.9798 158.891 34.3205 158.685 34.5999C158.449 34.8845 158.126 35.0834 157.766 35.1659L159.315 37.7659H158.839L157.368 35.2809L155.953 35.2759ZM155.953 34.9329H157.041C157.44 34.9575 157.835 34.8438 158.16 34.6109C158.296 34.4946 158.403 34.3482 158.473 34.1833C158.542 34.0183 158.572 33.8395 158.56 33.6609C158.576 33.4832 158.548 33.3044 158.481 33.1394C158.413 32.9744 158.306 32.8282 158.17 32.7129C157.788 32.482 157.343 32.3771 156.898 32.4129H155.954L155.953 34.9329ZM167.971 37.7609H167.491L165.303 34.7499L164.542 35.4209V37.7609H164.142V32.0609H164.542V35.0259L165.174 34.3939L167.409 32.0609H167.916L165.579 34.4719L167.971 37.7609ZM181.955 33.6959C181.969 33.9367 181.925 34.1774 181.828 34.3979C181.73 34.6185 181.581 34.8125 181.393 34.9639C180.927 35.285 180.367 35.4403 179.802 35.4049H178.92V37.7609H178.52V32.0609H179.92C181.279 32.0589 181.958 32.6042 181.958 33.6969L181.955 33.6959ZM178.92 35.0609H179.704C180.19 35.1003 180.676 34.9893 181.097 34.7429C181.247 34.6186 181.364 34.4597 181.439 34.2799C181.514 34.1001 181.544 33.9048 181.526 33.7109C181.54 33.5276 181.511 33.3435 181.44 33.1737C181.37 33.0039 181.26 32.8532 181.12 32.7339C180.747 32.4934 180.306 32.3817 179.864 32.4159H178.92V35.0609ZM189.776 35.7479H187.462L186.662 37.7609H186.221L188.515 32.0349H188.769L191.016 37.7609H190.571L189.776 35.7479ZM187.606 35.3849H189.646L188.87 33.3289C188.803 33.1676 188.725 32.9439 188.636 32.6579C188.572 32.8884 188.496 33.1152 188.406 33.3369L187.606 35.3849ZM196.059 35.2719V37.7569H195.659V32.0569H197.016C197.567 32.0146 198.117 32.1521 198.584 32.4489C198.757 32.5909 198.893 32.7721 198.981 32.9773C199.069 33.1826 199.107 33.406 199.091 33.6289C199.103 33.9758 198.997 34.3165 198.791 34.5959C198.555 34.8805 198.232 35.0795 197.872 35.1619L199.421 37.7619H198.945L197.474 35.2769L196.059 35.2719ZM196.059 34.9289H197.147C197.546 34.9535 197.941 34.8398 198.266 34.6069C198.402 34.4906 198.509 34.3442 198.579 34.1793C198.648 34.0143 198.678 33.8355 198.666 33.6569C198.682 33.4792 198.654 33.3003 198.587 33.1354C198.519 32.9704 198.412 32.8241 198.276 32.7089C197.894 32.478 197.449 32.3731 197.004 32.4089H196.06L196.059 34.9289ZM205.729 37.7569H205.329V32.4289H203.476V32.0549H207.583V32.4289H205.73L205.729 37.7569ZM216.409 37.7569H216.009L212.631 32.6939H212.6C212.631 33.2939 212.647 33.7489 212.647 34.0589V37.7589H212.265V32.0589H212.665L216.039 37.1139H216.062C216.039 36.6472 216.027 36.2026 216.027 35.7799V32.0589H216.413L216.409 37.7569ZM224.975 37.7569H221.858V32.0569H224.975V32.4239H222.256V34.5849H224.823V34.9519H222.256V37.3979H224.975V37.7569ZM230.498 35.2719V37.7569H230.098V32.0569H231.455C232.006 32.0146 232.556 32.1521 233.023 32.4489C233.196 32.5909 233.332 32.7721 233.42 32.9773C233.508 33.1826 233.546 33.406 233.53 33.6289C233.542 33.9758 233.436 34.3165 233.23 34.5959C232.994 34.8805 232.671 35.0795 232.311 35.1619L233.86 37.7619H233.384L231.913 35.2769L230.498 35.2719ZM230.498 34.9289H231.591C231.99 34.9537 232.386 34.84 232.711 34.6069C232.847 34.4906 232.954 34.3442 233.023 34.1792C233.093 34.0143 233.123 33.8355 233.111 33.6569C233.127 33.4792 233.099 33.3003 233.032 33.1354C232.964 32.9704 232.857 32.8241 232.721 32.7089C232.339 32.478 231.894 32.3731 231.449 32.4089H230.505L230.498 34.9289Z" fill="white"/>
<path d="M247.275 7.95705C247.274 7.25604 246.994 6.58419 246.499 6.0885C246.003 5.59281 245.331 5.31363 244.63 5.31204C243.929 5.31389 243.258 5.59316 242.762 6.08879C242.266 6.58443 241.987 7.25612 241.985 7.95705C241.985 8.65855 242.264 9.33131 242.76 9.82734C243.256 10.3234 243.929 10.602 244.63 10.602C244.978 10.6022 245.322 10.5338 245.643 10.4006C245.964 10.2675 246.256 10.0722 246.501 9.82604C246.58 9.74793 246.653 9.66511 246.721 9.57804C247.082 9.1141 247.278 8.54289 247.277 7.95505L247.275 7.95705ZM243.448 9.31304V6.51305H244.887C245.093 6.50522 245.299 6.52814 245.498 6.58105C245.637 6.62535 245.756 6.71479 245.837 6.83505C245.926 6.96856 245.972 7.12661 245.966 7.28705C245.972 7.42327 245.941 7.55848 245.875 7.67801C245.809 7.79754 245.712 7.89682 245.594 7.96504C245.5 8.01667 245.399 8.05344 245.294 8.07404C245.374 8.09658 245.45 8.13024 245.52 8.17404C245.571 8.21761 245.616 8.26657 245.656 8.32005C245.702 8.37425 245.742 8.43248 245.777 8.49404L246.195 9.30405H245.218L244.757 8.45004C244.72 8.36813 244.667 8.29464 244.6 8.23405C244.539 8.18987 244.465 8.16609 244.389 8.16605H244.313V9.30004H243.452L243.448 9.31304ZM244.316 7.65005H244.68C244.758 7.64437 244.834 7.63165 244.909 7.61205C244.965 7.60152 245.015 7.57049 245.049 7.52505C245.09 7.47015 245.109 7.4023 245.104 7.3342C245.098 7.26609 245.068 7.2024 245.018 7.15505C244.922 7.09596 244.808 7.07031 244.695 7.08205H244.316V7.65005ZM247.995 7.95705C247.995 8.84978 247.64 9.70588 247.009 10.3372C246.378 10.9686 245.522 11.3235 244.629 11.324C243.737 11.3238 242.881 10.969 242.25 10.3378C241.619 9.7066 241.264 8.85059 241.264 7.95805C241.264 7.51594 241.351 7.07813 241.52 6.66963C241.689 6.26113 241.937 5.88995 242.25 5.57734C242.562 5.26473 242.933 5.0168 243.342 4.84773C243.75 4.67867 244.188 4.59178 244.63 4.59204C245.072 4.59165 245.51 4.67837 245.919 4.84724C246.327 5.01611 246.698 5.26382 247.011 5.57622C247.324 5.88862 247.572 6.25959 247.741 6.66793C247.911 7.07627 247.998 7.51398 247.998 7.95605L247.995 7.95705Z" fill="white"/>
</g>
<defs>
<linearGradient id="paint0_linear_641_687" x1="45.3071" y1="19.9995" x2="73.8671" y2="19.9995" gradientUnits="userSpaceOnUse">
<stop stop-color="#6ABDBD"/>
<stop offset="1" stop-color="#117F7C"/>
</linearGradient>
<linearGradient id="paint1_linear_641_687" x1="51.4111" y1="28.3404" x2="63.3821" y2="28.3404" gradientUnits="userSpaceOnUse">
<stop stop-color="#579D9E"/>
<stop offset="1" stop-color="#00615E"/>
</linearGradient>
<linearGradient id="paint2_linear_641_687" x1="54.0312" y1="20.3001" x2="79.6192" y2="14.0336" gradientUnits="userSpaceOnUse">
<stop stop-color="#6ABDBD"/>
<stop offset="1" stop-color="#117F7C"/>
</linearGradient>
<linearGradient id="paint3_linear_641_687" x1="46.4924" y1="-4.96" x2="41.2565" y2="37.045" gradientUnits="userSpaceOnUse">
<stop stop-color="#FF0077"/>
<stop offset="1" stop-color="#C60264"/>
</linearGradient>
<linearGradient id="paint4_linear_641_687" x1="211.122" y1="-53.5259" x2="238.128" y2="-53.5259" gradientUnits="userSpaceOnUse">
<stop stop-color="#FF0077"/>
<stop offset="1" stop-color="#C60264"/>
</linearGradient>
<linearGradient id="paint5_linear_641_687" x1="35.5649" y1="12.269" x2="47.9128" y2="12.269" gradientUnits="userSpaceOnUse">
<stop stop-color="#FF0077"/>
<stop offset="1" stop-color="#79003B"/>
</linearGradient>
<linearGradient id="paint6_linear_641_687" x1="0.2856" y1="-8.56" x2="17.8065" y2="9.26357" gradientUnits="userSpaceOnUse">
<stop stop-color="#A7C62A"/>
<stop offset="1" stop-color="#6F8200"/>
</linearGradient>
<linearGradient id="paint7_linear_641_687" x1="16.5226" y1="22.5095" x2="15.3326" y2="43.2154" gradientUnits="userSpaceOnUse">
<stop stop-color="#718B32"/>
<stop offset="1" stop-color="#3C4E1F"/>
</linearGradient>
<linearGradient id="paint8_linear_641_687" x1="7.81497" y1="-9.96052" x2="22.1138" y2="31.3993" gradientUnits="userSpaceOnUse">
<stop stop-color="#A7C62A"/>
<stop offset="1" stop-color="#6F8200"/>
</linearGradient>
<linearGradient id="paint9_linear_641_687" x1="26.3554" y1="-9.67976" x2="33.0139" y2="32.2609" gradientUnits="userSpaceOnUse">
<stop stop-color="#FDA037"/>
<stop offset="1" stop-color="#C96400"/>
</linearGradient>
<linearGradient id="paint10_linear_641_687" x1="6.12442" y1="-0.28" x2="83.209" y2="42.5262" gradientUnits="userSpaceOnUse">
<stop stop-color="#FDA037"/>
<stop offset="1" stop-color="#C96400"/>
</linearGradient>
<clipPath id="clip0_641_687">
<rect width="248.001" height="40" fill="white"/>
</clipPath>
</defs>
</svg>
