<svg width="825" height="124" viewBox="0 0 825 124" fill="none" xmlns="http://www.w3.org/2000/svg">
<path d="M375.575 77.8184C376.027 77.5011 376.136 76.8774 375.818 76.4254C375.501 75.9734 374.877 75.8642 374.425 76.1816L375.575 77.8184ZM0.580992 77.908C1.76836 78.4559 2.98164 79.0072 4.22019 79.5614L5.03698 77.7358C3.80538 77.1847 2.59917 76.6366 1.41901 76.092L0.580992 77.908ZM11.6866 82.8047C14.1181 83.8308 16.6295 84.8628 19.2169 85.8971L19.9592 84.0399C17.3834 83.0103 14.8838 81.9832 12.4642 80.962L11.6866 82.8047ZM26.8075 88.8536C29.2981 89.799 31.8489 90.7436 34.457 91.6848L35.1359 89.8035C32.5381 88.866 29.9975 87.9252 27.5173 86.9838L26.8075 88.8536ZM42.1295 94.3858C44.645 95.2496 47.2072 96.1083 49.8137 96.9599L50.4348 95.0588C47.8378 94.2103 45.2851 93.3547 42.779 92.4943L42.1295 94.3858ZM57.5567 99.4269C60.1192 100.223 62.7198 101.01 65.3565 101.788L65.9222 99.8697C63.2947 99.0949 60.7033 98.31 58.15 97.5169L57.5567 99.4269ZM73.1805 104.035C75.7577 104.755 78.3658 105.465 81.0031 106.162L81.5144 104.229C78.8862 103.534 76.2871 102.827 73.7189 102.109L73.1805 104.035ZM88.8831 108.186C91.5004 108.839 94.1436 109.479 96.8111 110.104L97.2675 108.157C94.6092 107.534 91.9752 106.896 89.367 106.246L88.8831 108.186ZM104.713 111.897C107.345 112.474 109.997 113.037 112.67 113.583L113.07 111.623C110.407 111.079 107.764 110.519 105.142 109.943L104.713 111.897ZM120.667 115.157C123.31 115.656 125.97 116.14 128.647 116.605L128.989 114.635C126.323 114.171 123.672 113.69 121.039 113.191L120.667 115.157ZM136.672 117.939C139.341 118.361 142.025 118.765 144.721 119.15L145.003 117.17C142.317 116.787 139.644 116.384 136.985 115.963L136.672 117.939ZM152.769 120.233C155.453 120.572 158.147 120.891 160.852 121.189L161.071 119.201C158.377 118.905 155.693 118.587 153.02 118.248L152.769 120.233ZM168.941 122.012C171.633 122.264 174.334 122.493 177.042 122.699L177.194 120.705C174.497 120.5 171.808 120.271 169.127 120.021L168.941 122.012ZM185.165 123.246C187.865 123.404 190.571 123.539 193.282 123.648L193.363 121.65C190.664 121.541 187.97 121.407 185.282 121.25L185.165 123.246ZM201.414 123.901C204.123 123.959 206.835 123.992 209.55 123.999L209.555 121.999C206.853 121.992 204.154 121.96 201.458 121.901L201.414 123.901ZM217.684 123.937C220.394 123.89 223.106 123.815 225.819 123.711L225.742 121.712C223.044 121.816 220.346 121.89 217.648 121.938L217.684 123.937ZM233.945 123.314C236.652 123.152 239.358 122.961 242.062 122.74L241.899 120.747C239.21 120.967 236.518 121.157 233.826 121.317L233.945 123.314ZM250.165 121.983C252.864 121.7 255.559 121.385 258.25 121.038L257.993 119.054C255.319 119.399 252.639 119.713 249.956 119.994L250.165 121.983ZM266.309 119.896C268.991 119.483 271.668 119.035 274.338 118.553L273.983 116.585C271.33 117.064 268.67 117.509 266.004 117.92L266.309 119.896ZM282.331 117.001C284.988 116.449 287.637 115.86 290.278 115.235L289.817 113.289C287.195 113.91 284.563 114.494 281.923 115.043L282.331 117.001ZM298.176 113.247C300.798 112.547 303.411 111.809 306.012 111.032L305.44 109.115C302.858 109.887 300.264 110.619 297.66 111.315L298.176 113.247ZM313.781 108.583C316.357 107.728 318.92 106.833 321.47 105.897L320.78 104.02C318.251 104.948 315.707 105.837 313.151 106.685L313.781 108.583ZM329.073 102.967C331.589 101.95 334.089 100.892 336.574 99.7912L335.763 97.9627C333.299 99.0546 330.819 100.104 328.324 101.112L329.073 102.967ZM343.966 96.3651C346.408 95.1821 348.833 93.9556 351.241 92.6847L350.307 90.9161C347.92 92.1761 345.516 93.3921 343.094 94.5651L343.966 96.3651ZM358.373 88.7567C360.726 87.4059 363.06 86.0103 365.373 84.5689L364.316 82.8714C362.023 84.3 359.709 85.6833 357.377 87.0222L358.373 88.7567ZM372.206 80.1375C373.334 79.3761 374.457 78.6031 375.575 77.8184L374.425 76.1816C373.318 76.9591 372.205 77.7251 371.087 78.4797L372.206 80.1375Z" fill="#00162B"/>
<path d="M375 76.9998C375 76.9998 396 62.9998 410.5 56.9998C421.9 52.2826 438.37 50.0355 446 49" stroke="#0F172A" stroke-width="2" stroke-dasharray="8 8"/>
<path d="M824.583 47.1874C825.032 47.5093 825.134 48.1341 824.813 48.5829C824.491 49.0316 823.866 49.1345 823.417 48.8126L824.583 47.1874ZM449.574 47.0955C450.759 46.5367 451.969 45.9745 453.205 45.4095L454.037 47.2284C452.808 47.7903 451.604 48.3492 450.426 48.9045L449.574 47.0955ZM460.659 42.1012C463.087 41.0541 465.594 40.0011 468.178 38.9456L468.934 40.7971C466.362 41.8478 463.867 42.8958 461.451 43.9377L460.659 42.1012ZM475.759 35.9276C478.248 34.9624 480.796 33.9979 483.402 33.0368L484.094 34.9132C481.499 35.8705 478.961 36.8311 476.483 37.7923L475.759 35.9276ZM491.067 30.2788C493.581 29.3964 496.142 28.5191 498.747 27.649L499.381 29.546C496.785 30.4129 494.234 31.2869 491.729 32.166L491.067 30.2788ZM506.488 25.1281C509.05 24.3146 511.651 23.5096 514.287 22.7149L514.864 24.6298C512.237 25.4217 509.646 26.2238 507.093 27.0343L506.488 25.1281ZM522.109 20.4186C524.687 19.682 527.296 18.9564 529.934 18.2434L530.456 20.1741C527.827 20.8846 525.228 21.6077 522.659 22.3416L522.109 20.4186ZM537.817 16.1735C540.435 15.5061 543.079 14.852 545.747 14.2128L546.213 16.1578C543.555 16.7947 540.92 17.4465 538.311 18.1115L537.817 16.1735ZM553.655 12.3787C556.289 11.7881 558.943 11.2128 561.618 10.6541L562.027 12.6118C559.362 13.1685 556.717 13.7418 554.093 14.3303L553.655 12.3787ZM569.621 9.04416C572.267 8.53259 574.93 8.03808 577.609 7.56187L577.959 9.53101C575.29 10.0054 572.637 10.4981 570.001 11.0078L569.621 9.04416ZM585.644 6.19754C588.316 5.76505 591.003 5.35155 593.703 4.95823L593.991 6.93733C591.302 7.32912 588.626 7.74102 585.964 8.17185L585.644 6.19754ZM601.761 3.85006C604.448 3.50266 607.147 3.17605 609.856 2.87134L610.079 4.85881C607.382 5.16226 604.694 5.48755 602.018 5.83355L601.761 3.85006ZM617.957 2.02933C620.653 1.77229 623.358 1.53777 626.07 1.32687L626.225 3.32085C623.525 3.53083 620.831 3.76435 618.147 4.0203L617.957 2.02933ZM634.207 0.767478C636.911 0.606085 639.622 0.469019 642.337 0.357359L642.42 2.35567C639.716 2.46681 637.018 2.60326 634.326 2.76393L634.207 0.767478ZM650.483 0.099999C653.197 0.0403764 655.914 0.00701921 658.633 0.000993314L658.638 2.00099C655.932 2.00698 653.228 2.04018 650.527 2.09952L650.483 0.099999ZM666.78 0.0656378C669.496 0.115059 672.212 0.192701 674.929 0.299621L674.851 2.29807C672.148 2.19172 669.446 2.11448 666.744 2.06531L666.78 0.0656378ZM683.069 0.708603C685.78 0.874762 688.491 1.07115 691.199 1.29882L691.032 3.29179C688.339 3.06541 685.643 2.87011 682.947 2.70486L683.069 0.708603ZM699.315 2.07642C702.017 2.36755 704.716 2.691 707.41 3.0478L707.147 5.03049C704.469 4.67585 701.787 4.35434 699.101 4.06491L699.315 2.07642ZM715.479 4.21942C718.164 4.64412 720.844 5.10324 723.517 5.59786L723.153 7.56447C720.497 7.07308 717.835 6.61689 715.167 6.19487L715.479 4.21942ZM731.516 7.18961C734.175 7.75648 736.826 8.35991 739.468 9.00097L738.996 10.9446C736.373 10.308 733.74 9.7087 731.099 9.14566L731.516 7.18961ZM747.367 11.0383C749.99 11.7557 752.602 12.5117 755.203 13.3075L754.618 15.2199C752.036 14.4301 749.443 13.6796 746.839 12.9675L747.367 11.0383ZM762.968 15.8142C765.541 16.6893 768.102 17.605 770.649 18.5624L769.945 20.4345C767.419 19.4846 764.878 18.5761 762.324 17.7077L762.968 15.8142ZM778.243 21.5589C780.753 22.5975 783.249 23.6786 785.728 24.8033L784.902 26.6247C782.443 25.5094 779.968 24.4371 777.478 23.407L778.243 21.5589ZM793.102 28.301C795.537 29.508 797.956 30.7592 800.356 32.0557L799.405 33.8154C797.026 32.5302 794.628 31.2897 792.214 30.0929L793.102 28.301ZM807.461 36.0581C809.804 37.4338 812.128 38.8549 814.432 40.3225L813.358 42.0093C811.074 40.5549 808.771 39.1464 806.448 37.7828L807.461 36.0581ZM821.23 44.8294C822.353 45.6037 823.471 46.3897 824.583 47.1874L823.417 48.8126C822.315 48.022 821.208 47.2431 820.095 46.4758L821.23 44.8294Z" fill="#00162B"/>
</svg>
