<svg id="wrteam_logo" data-name="wrteam logo" xmlns="http://www.w3.org/2000/svg" xmlns:xlink="http://www.w3.org/1999/xlink" width="248.001" height="40" viewBox="0 0 248.001 40">
  <defs>
    <linearGradient id="linear-gradient" y1="0.5" x2="1" y2="0.5" gradientUnits="objectBoundingBox">
      <stop offset="0" stop-color="#6abdbd"/>
      <stop offset="1" stop-color="#117f7c"/>
    </linearGradient>
    <linearGradient id="linear-gradient-2" y1="0.5" x2="1" y2="0.5" gradientUnits="objectBoundingBox">
      <stop offset="0" stop-color="#579d9e"/>
      <stop offset="1" stop-color="#00615e"/>
    </linearGradient>
    <linearGradient id="linear-gradient-3" x1="-0.189" y1="0.688" x2="1.18" y2="0.095" xlink:href="#linear-gradient"/>
    <linearGradient id="linear-gradient-4" x1="0.562" y1="-0.124" x2="0.457" y2="0.932" gradientUnits="objectBoundingBox">
      <stop offset="0" stop-color="#f07"/>
      <stop offset="1" stop-color="#c60264"/>
    </linearGradient>
    <linearGradient id="linear-gradient-5" x1="11.699" y1="-3.764" x2="13.506" y2="-3.764" xlink:href="#linear-gradient-4"/>
    <linearGradient id="linear-gradient-6" y1="0.5" x2="1" y2="0.5" gradientUnits="objectBoundingBox">
      <stop offset="0" stop-color="#f07"/>
      <stop offset="1" stop-color="#79003b"/>
    </linearGradient>
    <linearGradient id="linear-gradient-7" x1="0.01" y1="-0.214" x2="0.422" y2="0.373" gradientUnits="objectBoundingBox">
      <stop offset="0" stop-color="#a7c62a"/>
      <stop offset="1" stop-color="#6f8200"/>
    </linearGradient>
    <linearGradient id="linear-gradient-8" x1="0.506" y1="0.25" x2="0.48" y2="1.14" gradientUnits="objectBoundingBox">
      <stop offset="0" stop-color="#718b32"/>
      <stop offset="1" stop-color="#3c4e1f"/>
    </linearGradient>
    <linearGradient id="linear-gradient-9" x1="0.426" y1="-0.303" x2="0.688" y2="1.055" xlink:href="#linear-gradient-7"/>
    <linearGradient id="linear-gradient-10" x1="0.406" y1="-0.242" x2="0.54" y2="0.816" gradientUnits="objectBoundingBox">
      <stop offset="0" stop-color="#fda037"/>
      <stop offset="1" stop-color="#c96400"/>
    </linearGradient>
    <linearGradient id="linear-gradient-11" x1="-0.228" y1="-0.007" x2="1.901" y2="1.475" xlink:href="#linear-gradient-10"/>
  </defs>
  <path id="Path_1" data-name="Path 1" d="M2171.515,56.023l-.949,4.951h-5.8v.006h-7.086v-.006h-8.783c-.01-.09-.022-.18-.035-.271a6.419,6.419,0,0,0-1.1-2.749,6.1,6.1,0,0,0-2.374-1.933Z" transform="translate(-1999.891 -52.221)" fill="#283042"/>
  <path id="Path_2" data-name="Path 2" d="M2265.809,155.66l-3.379,17.6h7.083l3.378-17.6Z" transform="translate(-2109.004 -145.104)" fill="#283042"/>
  <path id="Path_3" data-name="Path 3" d="M1287.048,71.174l-2.683-15.094H1277.1l5.187,24.362Z" transform="translate(-1190.492 -52.277)" fill="#283042"/>
  <path id="Path_4" data-name="Path 4" d="M1373.851,69.263,1371,56.08h-4.959L1353.54,80.426l0,.016h5.872l7.133-14.177,2.768,11.825Z" transform="translate(-1261.75 -52.277)" fill="#283042"/>
  <path id="Path_5" data-name="Path 5" d="M1608.245,56.08,1595.73,80.442h5.741l12.965-24.362Z" transform="translate(-1487.516 -52.277)" fill="#283042"/>
  <path id="Path_6" data-name="Path 6" d="M1806.973,70.953a10.1,10.1,0,0,0,1.174-.352,9.33,9.33,0,0,0,3.057-1.81,9.123,9.123,0,0,0,2.872-5.053,7.962,7.962,0,0,0,.068-2.688,5.684,5.684,0,0,0-.983-2.441,5.564,5.564,0,0,0-2.361-1.826,9.5,9.5,0,0,0-3.882-.7h-17.428l-.949,4.927h-.219l5.891.005h7.862v.018h.732c1.71,0,2.909-.068,3.489.363s.759,1.221.536,2.381a3.7,3.7,0,0,1-.765,1.775,2.82,2.82,0,0,1-1.538.843,12.909,12.909,0,0,1-2.761.229h-1.529l.728-3.788h-7.1l-3.379,17.6h7.1l1.754-9.136h1.336l3.436,9.136h6.767Z" transform="translate(-1667.045 -52.277)" fill="#283042"/>
  <path id="Path_7" data-name="Path 7" d="M2762,265.222h0a2.723,2.723,0,0,1-1.25.339,1.282,1.282,0,0,1-1.018-.45,1.483,1.483,0,0,1-.226-1.3,2.78,2.78,0,0,1,1.312-1.876,15.108,15.108,0,0,1,2.013-1.022l.526-2.742-.4.128q-.661.209-1.947.61a31.071,31.071,0,0,0-3.679,1.352,7.514,7.514,0,0,0-2.378,1.676,5.1,5.1,0,0,0-1.264,2.593,4.472,4.472,0,0,0,.058,2.01,2.759,2.759,0,0,0,1.237,1.618,5.042,5.042,0,0,0,2.772.642,7,7,0,0,0,3.158-.761,4.438,4.438,0,0,0,.623-.4Z" transform="translate(-2566.865 -240.662)" fill="#283042"/>
  <path id="Path_8" data-name="Path 8" d="M2828.073,169.4a.606.606,0,0,1-.61-.755L2828.93,161a3.992,3.992,0,0,0-1.043-3.929c-.982-.919-2.388-1.392-5.745-1.424v-.005h-5.294l-.739,3.846h5.146c.819.057,1.349.275,1.549.678a3.085,3.085,0,0,1,.112,1.935h-.005l-.519,2.7h.005l-.774,4.019-.006,0-.385,2a1.866,1.866,0,0,0,1.722,2.4h.959l.977,0h6.091l.734-3.827Z" transform="translate(-2625.135 -145.085)" fill="#283042"/>
  <path id="Path_9" data-name="Path 9" d="M3060.039,161.581a7.494,7.494,0,0,0-1.033-3.128,5.886,5.886,0,0,0-2.429-2.2,8.3,8.3,0,0,0-3.735-.774,10.494,10.494,0,0,0-3.662.648,10.241,10.241,0,0,0-2.88,1.666,6,6,0,0,0-1.958-1.541,8.3,8.3,0,0,0-3.736-.774,10.5,10.5,0,0,0-3.662.648,10.321,10.321,0,0,0-3.28,1.992,11.428,11.428,0,0,0-2.441,3.089,12.809,12.809,0,0,0-1.366,3.8c-.026.136-.051.277-.068.38l-1.478,7.7h5.548l1.635-8.516a3.929,3.929,0,0,1,3.918-3.224,2.6,2.6,0,0,1,2.781,2.979l-1.683,8.761h5.6l1.515-7.892c.048-.248.087-.479.119-.7a3.907,3.907,0,0,1,3.9-3.153,2.6,2.6,0,0,1,2.781,2.979l-1.682,8.761h5.6l1.492-7.758A11.387,11.387,0,0,0,3060.039,161.581Z" transform="translate(-2822.945 -144.936)" fill="#283042"/>
  <path id="Path_10" data-name="Path 10" d="M2472.5,166.045h6.046v0h11.55l.233-1.213a9.48,9.48,0,0,0-.2-5.283,5.469,5.469,0,0,0-2.533-2.947,7.874,7.874,0,0,0-3.73-.9,12.4,12.4,0,0,0-5.433,1.137,9.954,9.954,0,0,0-3.821,3.135,11.322,11.322,0,0,0-1.936,4.525,7.958,7.958,0,0,0-.178,1.327C2472.495,165.9,2472.5,165.968,2472.5,166.045Zm7.731-5.625a3.682,3.682,0,0,1,2.563-1,2.244,2.244,0,0,1,2.084.986,3.653,3.653,0,0,1,.284,2.637h-6.339a4.617,4.617,0,0,1,1.406-2.62Z" transform="translate(-2304.826 -145.137)" fill="#283042"/>
  <path id="Path_11" data-name="Path 11" d="M2479.183,327.6h-6.333c.028.251.053.5.1.746a5.972,5.972,0,0,0,1.374,2.772,6.54,6.54,0,0,0,2.639,1.78,9.772,9.772,0,0,0,3.612.625c.136,0,.271,0,.4-.006h2.582l.85-4.427h-2.577A3.145,3.145,0,0,1,2479.183,327.6Z" transform="translate(-2305.154 -305.384)" fill="#283042"/>
  <path id="Path_12" data-name="Path 12" d="M696.65,0l-10.1,34.492q-.2.614-.388,1.164c-.9,2.7-1.466,4.209-2.861,4.343H668.09l6.131-20.943.595-2.03h0L679.8,0Z" transform="translate(-622.783)" fill="url(#linear-gradient)"/>
  <path id="Path_13" data-name="Path 13" d="M770.118,273.762c-.9,2.738-1.466,4.272-2.861,4.408H765.1l-1.185-1.043-5.745-20.216-.023-.083.618-1.977.055.18q.078.257.157.513.123.4.248.8.164.526.329,1.052.2.629.4,1.259.227.713.456,1.424.25.774.5,1.548.268.814.543,1.628.28.836.564,1.67t.578,1.67q.287.814.581,1.628.281.773.574,1.541.271.71.553,1.416.254.627.523,1.247c.154.349.313.7.483,1.037a4.412,4.412,0,0,0,.729,1.168,2.132,2.132,0,0,0,1.064.584,1.905,1.905,0,0,0,.668.013,2.8,2.8,0,0,0,.9-.311A5.9,5.9,0,0,0,770.118,273.762Z" transform="translate(-706.736 -238.17)" fill="url(#linear-gradient-2)"/>
  <path id="Path_14" data-name="Path 14" d="M851.414,29.506,859.922,0H843.24C843.814,9.466,846.523,20.972,851.414,29.506Z" transform="translate(-786.056)" fill="url(#linear-gradient-3)"/>
  <path id="Path_15" data-name="Path 15" d="M453.058,40H436.206c-1.621-.151-2.178-2.158-3.328-5.745-.03-.093-1.588-5.385-3.354-11.386l-1.061-3.6c-2-6.8-3.932-13.368-3.983-13.518C423.326,2.157,422.772.151,421.15,0h16.8c1.221.113,1.836,1.274,2.555,3.367.238.691.487,1.484.772,2.376.1.311,8.352,28.2,8.453,28.508C450.879,37.841,451.436,39.848,453.058,40Z" transform="translate(-392.59)" fill="url(#linear-gradient-4)"/>
  <path id="Path_16" data-name="Path 16" d="M545.444,321.923C543.8,315.947,539.33,309.25,535,309.25c2.015,6.95,3.97,13.693,4,13.8,1.153,3.642,1.708,5.678,3.329,5.832h7.616C548.112,328.2,546.257,324.876,545.444,321.923Z" transform="translate(-498.719 -288.881)" fill="url(#linear-gradient-5)"/>
  <path id="Path_17" data-name="Path 17" d="M536.781,3.419a1.251,1.251,0,0,0-.068-.13,2.253,2.253,0,0,0-2.238-1.069,1.852,1.852,0,0,0-1.126.488,3.764,3.764,0,0,0-.687,1.017l-.044.085c-.48.932-.9,1.892-1.3,2.864S530.561,8.64,530.2,9.63c-.7,1.925-1.356,3.865-1.987,5.813q-.82,2.519-1.594,5.054-.4,1.311-.792,2.628l-.026.088-1.356,1.325c-.064,0,.144-2.965.293-4.983.077-1.042.136-1.831.136-1.831l3.648-11.892,2.77-4.5L532.463,0h1.763C535.445.115,536.062,1.294,536.781,3.419Z" transform="translate(-488.868)" fill="url(#linear-gradient-6)"/>
  <path id="Path_18" data-name="Path 18" d="M28.56,40H13.346c-1.375-.128-1.946-1.6-2.823-4.228q-.2-.6-.426-1.278L0,0H16.851L21.8,16.9l.145.5Z" fill="url(#linear-gradient-7)"/>
  <path id="Path_19" data-name="Path 19" d="M167.026,256.8l-.023.083L161.258,277.1l-1.185,1.043h-2.079c-1.375-.13-1.946-1.628-2.823-4.292a5.654,5.654,0,0,0,1.337,1.042,2.8,2.8,0,0,0,.9.311,1.909,1.909,0,0,0,.669-.013,2.129,2.129,0,0,0,1.063-.584,4.391,4.391,0,0,0,.729-1.168c.17-.339.329-.688.483-1.037q.271-.62.524-1.247.285-.705.554-1.416.293-.768.573-1.541.3-.814.581-1.628c.2-.556,3.88-11.676,3.9-11.749l.109.378Z" transform="translate(-144.647 -238.142)" fill="url(#linear-gradient-8)"/>
  <path id="Path_20" data-name="Path 20" d="M9.481,32.873a70.253,70.253,0,0,1,8.864-27.7L16.851,0H0Z" fill="url(#linear-gradient-9)"/>
  <path id="Path_21" data-name="Path 21" d="M226.168,5.745c-.1.311-8.329,28.3-8.4,28.509-1.153,3.588-1.707,5.594-3.329,5.745H197.59c1.621-.151,2.178-2.157,3.329-5.745.1-.311,8.352-28.2,8.452-28.509C210.524,2.159,211.078.152,212.7,0h16.8C227.876.151,227.321,2.158,226.168,5.745Z" transform="translate(-184.19)" fill="url(#linear-gradient-10)"/>
  <path id="Path_22" data-name="Path 22" d="M205.6,40c2.068-3.86,3.739-7.9,5.645-11.849a67.336,67.336,0,0,1,7.913-12.541,76.083,76.083,0,0,1,6.072-6.681c.56-1.9.92-3.12.941-3.183C227.321,2.158,227.876.151,229.5,0H212.7c-1.622.151-2.178,2.158-3.329,5.745-.1.311-8.352,28.2-8.452,28.509-1.153,3.588-1.708,5.594-3.329,5.745Z" transform="translate(-184.19)" fill="url(#linear-gradient-11)"/>
  <path id="Path_24" data-name="Path 24" d="M2.118-82.206l1.669-3.121h.429l-1.9,3.5v2.2h-.41V-81.8L0-85.327H.456Zm11.534-.277a3.185,3.185,0,0,1-.679,2.147,2.338,2.338,0,0,1-1.872.79,2.333,2.333,0,0,1-1.868-.79,3.2,3.2,0,0,1-.679-2.155,3.143,3.143,0,0,1,.685-2.143,2.357,2.357,0,0,1,1.87-.782,2.331,2.331,0,0,1,1.868.786A3.188,3.188,0,0,1,13.652-82.483Zm-4.665,0a2.921,2.921,0,0,0,.546,1.894,1.908,1.908,0,0,0,1.568.669,1.919,1.919,0,0,0,1.574-.663,2.924,2.924,0,0,0,.544-1.9,2.893,2.893,0,0,0-.544-1.89,1.918,1.918,0,0,0-1.566-.657,1.928,1.928,0,0,0-1.57.663A2.868,2.868,0,0,0,8.987-82.483Zm14-2.844v3.69a2.045,2.045,0,0,1-.57,1.537,2.181,2.181,0,0,1-1.588.554,2.09,2.09,0,0,1-1.547-.556,2.1,2.1,0,0,1-.556-1.551v-3.674h.4v3.69a1.736,1.736,0,0,0,.456,1.281,1.742,1.742,0,0,0,1.291.458,1.7,1.7,0,0,0,1.264-.451,1.694,1.694,0,0,0,.449-1.25v-3.729Zm5.785,3.218v2.485h-.4v-5.7h1.357a2.557,2.557,0,0,1,1.568.392,1.4,1.4,0,0,1,.507,1.18,1.542,1.542,0,0,1-.3.967,1.68,1.68,0,0,1-.919.566l1.549,2.6h-.476l-1.471-2.485Zm0-.343h1.088a1.737,1.737,0,0,0,1.12-.322,1.149,1.149,0,0,0,.4-.95,1.114,1.114,0,0,0-.39-.948,2.129,2.129,0,0,0-1.272-.3h-.944Zm18.637,2.828h-.328l-1.252-4.4q-.156-.542-.234-.889-.062.339-.177.78t-1.258,4.509h-.335l-1.568-5.7h.417l1,3.674q.059.222.109.412t.092.355q.041.166.074.32t.06.31q.094-.53.4-1.611l.975-3.46h.441l1.143,3.971q.2.687.285,1.108.051-.281.131-.6t1.2-4.482h.4Zm11.21-2.859a3.185,3.185,0,0,1-.679,2.147,2.338,2.338,0,0,1-1.872.79,2.333,2.333,0,0,1-1.868-.79,3.2,3.2,0,0,1-.679-2.155,3.143,3.143,0,0,1,.685-2.143,2.357,2.357,0,0,1,1.87-.782,2.331,2.331,0,0,1,1.868.786A3.188,3.188,0,0,1,58.623-82.483Zm-4.665,0a2.921,2.921,0,0,0,.546,1.894,1.908,1.908,0,0,0,1.568.669,1.919,1.919,0,0,0,1.574-.663,2.924,2.924,0,0,0,.544-1.9,2.893,2.893,0,0,0-.544-1.89,1.917,1.917,0,0,0-1.566-.657,1.928,1.928,0,0,0-1.57.663A2.868,2.868,0,0,0,53.958-82.483Zm10.208.374v2.485h-.4v-5.7h1.357a2.557,2.557,0,0,1,1.568.392,1.4,1.4,0,0,1,.507,1.18,1.542,1.542,0,0,1-.3.967,1.681,1.681,0,0,1-.919.566l1.549,2.6h-.476l-1.471-2.485Zm0-.343h1.088a1.737,1.737,0,0,0,1.119-.322,1.149,1.149,0,0,0,.4-.95,1.114,1.114,0,0,0-.39-.948,2.129,2.129,0,0,0-1.272-.3h-.944Zm12.018,2.828H75.7l-2.188-3.011-.761.671v2.34h-.4v-5.7h.4v2.965l.632-.632,2.235-2.333h.507l-2.337,2.411Zm13.984-4.065a1.516,1.516,0,0,1-.562,1.268,2.525,2.525,0,0,1-1.591.441h-.882v2.356h-.4v-5.7h1.4Q90.167-85.327,90.167-83.688Zm-3.035,1.365h.784a2.376,2.376,0,0,0,1.393-.318,1.2,1.2,0,0,0,.429-1.032,1.165,1.165,0,0,0-.406-.977,2.028,2.028,0,0,0-1.256-.318h-.944Zm10.856.687H95.671l-.8,2.013h-.441l2.294-5.726h.254l2.247,5.726H98.78ZM95.815-82h2.04l-.776-2.056q-.1-.242-.234-.671a6.259,6.259,0,0,1-.23.679Zm8.453-.113v2.485h-.4v-5.7h1.357a2.557,2.557,0,0,1,1.568.392,1.4,1.4,0,0,1,.507,1.18,1.542,1.542,0,0,1-.3.967,1.68,1.68,0,0,1-.919.566l1.549,2.6h-.476l-1.471-2.485Zm0-.343h1.088a1.737,1.737,0,0,0,1.119-.322,1.149,1.149,0,0,0,.4-.95,1.114,1.114,0,0,0-.39-.948,2.129,2.129,0,0,0-1.272-.3h-.944Zm9.67,2.828h-.4v-5.328h-1.853v-.374h4.107v.374h-1.853Zm10.68,0h-.4l-3.378-5.063h-.031q.047.9.047,1.365v3.7h-.382v-5.7h.4l3.374,5.055h.023q-.035-.7-.035-1.334v-3.721h.386Zm8.566,0h-3.117v-5.7h3.117v.367h-2.719V-82.8h2.567v.367h-2.567v2.446h2.719Zm5.523-2.485v2.485h-.4v-5.7h1.357a2.557,2.557,0,0,1,1.568.392,1.4,1.4,0,0,1,.507,1.18,1.542,1.542,0,0,1-.3.967,1.68,1.68,0,0,1-.919.566l1.549,2.6h-.476l-1.471-2.485Zm0-.343H139.8a1.737,1.737,0,0,0,1.12-.322,1.15,1.15,0,0,0,.4-.95,1.114,1.114,0,0,0-.39-.948,2.129,2.129,0,0,0-1.272-.3h-.944Z" transform="translate(91.791 117.385)" fill="#283042"/>
  <path id="Path_23" data-name="Path 23" d="M3563.7,71.094h0a2.651,2.651,0,0,0-2.645-2.645h0a2.652,2.652,0,0,0-2.645,2.645h0a2.645,2.645,0,0,0,2.645,2.645h0a2.64,2.64,0,0,0,1.871-.776,2.719,2.719,0,0,0,.22-.248,2.638,2.638,0,0,0,.556-1.623Zm-3.827,1.356v-2.8h1.439a2.073,2.073,0,0,1,.611.068.648.648,0,0,1,.339.254.769.769,0,0,1,.129.452.746.746,0,0,1-.372.678,1.035,1.035,0,0,1-.3.109.88.88,0,0,1,.226.1.915.915,0,0,1,.136.146,1.164,1.164,0,0,1,.121.174l.418.81h-.977l-.461-.854a.662.662,0,0,0-.157-.216.362.362,0,0,0-.211-.068h-.076v1.134h-.861Zm.868-1.663h.364a1.275,1.275,0,0,0,.229-.038.228.228,0,0,0,.14-.087.281.281,0,0,0-.031-.37.517.517,0,0,0-.323-.073h-.379Zm3.679.307h0a3.368,3.368,0,0,1-3.366,3.367h0a3.366,3.366,0,0,1-3.365-3.366h0a3.364,3.364,0,0,1,3.366-3.366h0a3.365,3.365,0,0,1,3.368,3.364Z" transform="translate(-3316.425 -63.137)" fill="#283042"/>
</svg>
