<svg width="595" height="110" viewBox="0 0 595 110" fill="none" xmlns="http://www.w3.org/2000/svg">
<g clip-path="url(#clip0_628_828)">
<path d="M200.971 0.0136719L173.623 94.8469C173.256 95.9739 172.906 97.041 172.573 98.0485C170.14 105.463 168.603 109.619 164.822 109.987H123.615L140.218 52.4071L141.819 46.8236L155.343 0.0136719H200.971Z" fill="url(#paint0_linear_628_828)"/>
<path d="M172.573 98.0434C170.14 105.458 168.603 109.614 164.822 109.982H158.988L155.787 107.158L140.224 52.4116L140.16 52.1843L141.835 46.8281L141.982 47.3147C142.123 47.78 142.265 48.2432 142.408 48.7042C142.621 49.4299 142.845 50.1545 143.08 50.8781C143.377 51.8279 143.673 52.7776 143.97 53.7274C144.326 54.865 144.686 56.0016 145.049 57.1371C145.459 58.4177 145.871 59.6984 146.285 60.979C146.735 62.377 147.19 63.775 147.649 65.173C148.131 66.6415 148.621 68.111 149.118 69.5816C149.624 71.0906 150.133 72.5985 150.645 74.1054C151.158 75.6122 151.679 77.1202 152.211 78.6292C152.729 80.0976 153.254 81.5671 153.786 83.0377C154.294 84.4335 154.812 85.8209 155.339 87.1997C155.83 88.4804 156.329 89.7609 156.837 91.0415C157.294 92.1728 157.767 93.2987 158.255 94.4193C158.671 95.3637 159.101 96.3049 159.562 97.227C160.05 98.3782 160.717 99.4456 161.537 100.39C162.324 101.185 163.325 101.734 164.418 101.972C165.015 102.09 165.627 102.102 166.227 102.007C167.078 101.866 167.899 101.581 168.654 101.165C170.116 100.337 171.438 99.2831 172.573 98.0434Z" fill="url(#paint1_linear_628_828)"/>
<path d="M177.926 79.9309L200.974 0.0136719H155.787C157.343 25.6549 164.678 56.8156 177.926 79.9309Z" fill="url(#paint2_linear_628_828)"/>
<path d="M164.679 109.984H119.034C114.642 109.568 113.137 104.051 110.019 94.1874C109.939 93.9313 105.716 79.3802 100.932 62.8826L98.0511 52.9738C92.6341 34.2895 87.4028 16.2199 87.2619 15.8069C84.15 5.94615 82.6484 0.429874 78.2559 0.0136719H123.753C127.06 0.333827 128.725 3.51617 130.675 9.27257C131.315 11.1743 131.994 13.3546 132.766 15.8037C133.038 16.6586 155.388 93.3294 155.66 94.1842C158.775 104.064 160.286 109.571 164.679 109.984Z" fill="url(#paint3_linear_628_828)"/>
<path d="M127.452 91.1434C123.011 74.9564 110.893 56.8164 99.166 56.8164C104.625 75.6415 109.92 93.9064 110.003 94.1914C113.125 104.055 114.629 109.559 119.019 109.988H139.65C134.681 108.157 129.658 99.1409 127.452 91.1434Z" fill="url(#paint4_linear_628_828)"/>
<path d="M130.675 9.27257C130.621 9.15165 130.56 9.03406 130.492 8.9204C129.874 7.90041 128.971 7.0839 127.894 6.57181C126.817 6.05971 125.613 5.87447 124.432 6.039C123.295 6.12104 122.22 6.58733 121.384 7.36124C120.617 8.17207 119.989 9.10331 119.524 10.1178L119.405 10.3483C118.105 12.8743 116.969 15.4708 115.884 18.1057C114.798 20.7405 113.819 23.433 112.842 26.1095C110.947 31.3249 109.17 36.5786 107.46 41.8548C105.979 46.4053 104.54 50.9685 103.142 55.5446C102.416 57.9116 101.701 60.284 100.996 62.6617L100.926 62.9018L97.2537 66.4907C97.0776 66.4907 97.6444 58.4612 98.0478 52.993C98.2559 50.1692 98.416 48.0338 98.416 48.0338L108.299 15.8229L115.804 3.62182L118.976 0.0136719H123.753C127.054 0.333827 128.725 3.51937 130.675 9.27257Z" fill="url(#paint5_linear_628_828)"/>
<path d="M78.2564 109.984H37.0491C33.3257 109.632 31.7794 105.575 29.4038 98.359C29.0431 97.2577 28.6589 96.0838 28.2513 94.8373L0.900391 0.0136719H46.5418L59.9499 46.4842L60.3437 47.8513L78.2564 109.984Z" fill="url(#paint6_linear_628_828)"/>
<path d="M61.5153 52.177L61.4513 52.4044L45.8886 107.151L42.687 109.975H37.0555C33.3321 109.623 31.7857 105.566 29.4102 98.3498C30.4678 99.4683 31.6886 100.42 33.0311 101.174C33.7863 101.59 34.607 101.875 35.4579 102.016C36.0593 102.111 36.6727 102.099 37.27 101.98C38.3636 101.744 39.3648 101.195 40.1514 100.399C40.9721 99.4549 41.6388 98.3874 42.1267 97.2357C42.5878 96.3169 43.0168 95.3725 43.433 94.428C43.9239 93.3096 44.3966 92.1836 44.8512 91.0503C45.3656 89.7697 45.8662 88.4891 46.3528 87.2085C46.8821 85.8211 47.3997 84.4337 47.9056 83.0464C48.4392 81.578 48.9642 80.1085 49.4807 78.6379C50.009 77.1332 59.9914 47.0129 60.0458 46.8145L60.3404 47.839L61.5153 52.177Z" fill="url(#paint7_linear_628_828)"/>
<path d="M26.5801 89.0521C29.264 62.6448 37.4431 37.0911 50.5917 14.0333L46.5418 0.0136719H0.900391L26.5801 89.0521Z" fill="url(#paint8_linear_628_828)"/>
<path d="M114.597 15.8101C114.328 16.665 92.0392 93.6079 91.8663 94.1938C88.7448 104.058 87.2433 109.561 82.8507 109.99H37.1934C41.5859 109.574 43.0939 104.058 46.209 94.1938C46.4779 93.339 68.8311 16.665 69.1001 15.8101C72.2248 5.94935 73.7231 0.429874 78.1188 0.0136719H123.616C119.224 0.429874 117.722 5.94615 114.597 15.8101Z" fill="url(#paint9_linear_628_828)"/>
<path d="M58.8866 109.983C64.4893 99.3699 69.0131 88.2637 74.1772 77.404C80.0366 65.158 87.2223 53.5919 95.6052 42.9136C100.719 36.4715 106.211 30.3384 112.052 24.5463C113.569 19.3246 114.546 15.9694 114.613 15.7965C117.734 5.93248 119.239 0.429008 123.628 0H78.1215C73.7289 0.416202 72.221 5.93248 69.1059 15.7965C68.837 16.6513 46.4837 93.3253 46.2148 94.1801C43.0933 104.044 41.5886 109.548 37.1992 109.977L58.8866 109.983Z" fill="url(#paint10_linear_628_828)"/>
<path d="M419.072 16.0046L416.872 27.3839H403.427V27.3977H387.002V27.3839H366.642C366.619 27.1771 366.591 26.9702 366.561 26.7611C366.22 24.4867 365.346 22.3231 364.011 20.4428C362.588 18.5221 360.694 16.993 358.508 16L419.072 16.0046Z" fill="#003399"/>
<path d="M384.723 31.5293L376.891 71.9807H393.31L401.14 31.5293H384.723Z" fill="#003399"/>
<path d="M245.06 50.6996L238.841 16.0078H222L234.024 72.0011L245.06 50.6996Z" fill="#003399"/>
<path d="M281.096 46.3055L274.487 16.0059H262.992L234.014 71.9624V71.9991H247.625L264.16 39.4149L270.577 66.5933L281.096 46.3055Z" fill="#003399"/>
<path d="M301.097 16.0059L272.086 71.9991H285.394L315.448 16.0059H301.097Z" fill="#003399"/>
<path d="M345.6 50.1894C346.522 49.9745 347.431 49.7042 348.321 49.3804C350.931 48.4564 353.337 47.0441 355.407 45.2203C358.845 42.1722 361.184 38.0939 362.065 33.6065C362.471 31.5709 362.524 29.4817 362.223 27.4284C361.917 25.4073 361.135 23.4857 359.944 21.818C358.539 19.9509 356.648 18.4998 354.471 17.6212C351.62 16.4665 348.553 15.9184 345.472 16.0123H305.073L302.873 27.3364H302.365L316.021 27.3479H334.246V27.3893H335.943C339.906 27.3893 342.686 27.233 344.03 28.2236C345.375 29.2142 345.79 31.03 345.273 33.6962C345.057 35.1878 344.445 36.5956 343.499 37.7758C342.549 38.7809 341.302 39.4596 339.934 39.7133C337.827 40.1158 335.681 40.2923 333.534 40.2397H329.99L331.677 31.5334H315.219L307.386 71.985H323.845L327.91 50.9869H331.007L338.972 71.985H354.659L345.6 50.1894Z" fill="#003399"/>
<path d="M473.574 63.7137C472.684 64.2008 471.689 64.4681 470.676 64.4929C470.229 64.5074 469.786 64.4219 469.376 64.2428C468.968 64.0638 468.606 63.7958 468.317 63.4586C468.001 63.0343 467.79 62.5441 467.7 62.0256C467.61 61.5073 467.642 60.975 467.793 60.4707C467.962 59.5792 468.319 58.7336 468.845 57.9901C469.369 57.2465 470.046 56.6223 470.834 56.1589C472.327 55.2617 473.887 54.4765 475.5 53.81L476.72 47.5078L475.792 47.802C474.77 48.1222 473.266 48.5897 471.279 49.204C468.372 50.0609 465.523 51.0986 462.751 52.3114C460.676 53.2271 458.803 54.5358 457.239 56.1635C455.702 57.8292 454.686 59.8984 454.309 62.1233C453.998 63.6533 454.044 65.2332 454.443 66.743C454.886 68.2999 455.91 69.6303 457.31 70.4618C459.265 71.5552 461.495 72.0675 463.736 71.9374C466.281 71.9316 468.787 71.3324 471.057 70.1883C471.562 69.9224 472.046 69.6149 472.501 69.2689L473.574 63.7137Z" fill="#003399"/>
<path d="M491.659 63.1505C491.441 63.1588 491.223 63.1163 491.024 63.0266C490.825 62.937 490.651 62.8025 490.514 62.6341C490.375 62.4656 490.28 62.2677 490.234 62.0563C490.187 61.8446 490.19 61.6251 490.245 61.4152L493.646 43.8441C494.096 42.2621 494.107 40.5895 493.683 39.0009C493.256 37.4125 492.41 35.9663 491.228 34.8137C488.952 32.7015 485.692 31.6143 477.911 31.5408V31.5293H465.639L463.926 40.3689H475.855C477.753 40.4999 478.982 41.001 479.445 41.9272C480.011 43.3435 480.101 44.9029 479.705 46.3746H479.693L478.49 52.5802H478.502L476.708 61.8174H476.694L475.801 66.4142C475.611 67.0424 475.569 67.7052 475.678 68.352C475.787 68.9985 476.045 69.6117 476.429 70.1445C476.814 70.6773 477.32 71.1151 477.901 71.4247C478.486 71.7343 479.132 71.9074 479.793 71.9304H482.016H484.281H498.4L500.102 63.1344L491.659 63.1505Z" fill="#003399"/>
<path d="M570.837 45.5207C570.587 42.978 569.768 40.5221 568.442 38.3313C567.086 36.1515 565.134 34.3978 562.812 33.2751C560.104 32.0236 557.139 31.4145 554.154 31.4959C551.258 31.4874 548.382 31.9919 545.665 32.9853C543.245 33.8924 540.989 35.1857 538.989 36.8144C537.744 35.3319 536.198 34.1253 534.45 33.2726C531.743 32.0209 528.778 31.4118 525.79 31.4936C522.895 31.4853 520.02 31.9898 517.301 32.9832C514.501 34.0246 511.921 35.5774 509.698 37.5613C507.412 39.5855 505.497 41.9878 504.039 44.6611C502.526 47.3881 501.457 50.336 500.873 53.3949C500.813 53.7075 500.755 54.0316 500.715 54.2683L497.289 71.9661H510.15L513.94 52.3928C514.327 50.2926 515.451 48.3959 517.113 47.0394C518.775 45.6829 520.871 44.9543 523.022 44.9828C523.928 44.9102 524.839 45.0415 525.685 45.3667C526.532 45.6919 527.294 46.2028 527.915 46.8613C528.534 47.5198 528.998 48.3088 529.267 49.1691C529.536 50.0296 529.605 50.9391 529.469 51.8297L525.567 71.9661H538.548L542.06 53.8273C542.172 53.2573 542.262 52.7261 542.336 52.2182C542.746 50.1505 543.878 48.2916 545.53 46.9668C547.183 45.642 549.253 44.9357 551.377 44.9714C552.283 44.8987 553.194 45.0297 554.04 45.3552C554.889 45.6804 555.649 46.1913 556.27 46.8498C556.889 47.5083 557.353 48.2973 557.622 49.1576C557.89 50.0179 557.96 50.9276 557.823 51.8182L553.924 71.9544H566.905L570.364 54.1238C570.999 51.3016 571.161 48.3946 570.837 45.5207Z" fill="#003399"/>
<path d="M409.915 55.3206H423.93H450.704L451.244 52.5326C452.255 48.5235 452.092 44.3122 450.78 40.3902C449.726 37.4959 447.635 35.086 444.909 33.6171C442.243 32.2312 439.271 31.5205 436.262 31.5483C431.918 31.4647 427.614 32.3583 423.668 34.1616C420.152 35.787 417.106 38.2652 414.811 41.3671C412.565 44.4657 411.032 48.0163 410.323 51.7673C410.098 52.7707 409.961 53.791 409.91 54.8172C409.903 54.9873 409.915 55.1436 409.915 55.3206ZM427.836 42.3921C429.443 40.8938 431.57 40.0701 433.777 40.0937C434.714 40.003 435.657 40.1657 436.508 40.5649C437.359 40.9639 438.084 41.5843 438.608 42.3602C439.584 44.2272 439.821 46.3902 439.267 48.4208H424.572C424.959 46.1123 426.104 43.995 427.831 42.399L427.836 42.3921Z" fill="#003399"/>
<path d="M424.647 58.3262H409.967C410.032 58.9031 410.09 59.4754 410.199 60.0408C410.678 62.4051 411.777 64.6026 413.384 66.4119C415.053 68.2543 417.153 69.6598 419.501 70.503C422.176 71.5012 425.018 71.9887 427.874 71.9395C428.189 71.9395 428.502 71.9395 428.801 71.9257H434.786L436.757 61.7508H430.783C429.552 61.7402 428.344 61.4205 427.271 60.8218C426.198 60.2228 425.296 59.3644 424.647 58.3262Z" fill="#003399"/>
<path d="M226.95 88.1073L230.85 81.2037H231.852L227.412 88.9457V93.8121H226.454V89.0054L222 81.2037H223.066L226.95 88.1073ZM253.903 87.4946C254.004 89.2078 253.438 90.8964 252.317 92.2438C251.774 92.8277 251.097 93.2883 250.339 93.5909C249.582 93.8935 248.762 94.0304 247.942 93.9912C247.122 94.0297 246.304 93.8926 245.549 93.59C244.792 93.2874 244.119 92.8273 243.577 92.2438C242.452 90.8902 241.889 89.1956 241.99 87.4769C241.887 85.7639 242.457 84.0755 243.591 82.7366C244.137 82.1588 244.813 81.7036 245.57 81.4043C246.325 81.105 247.143 80.9692 247.961 81.0068C248.778 80.967 249.596 81.1026 250.354 81.4036C251.108 81.7047 251.784 82.1632 252.326 82.7454C253.445 84.0943 254.006 85.7827 253.903 87.4946ZM243.002 87.4946C242.901 88.9888 243.352 90.4697 244.278 91.6841C244.726 92.1829 245.289 92.5762 245.925 92.833C246.561 93.0899 247.252 93.2031 247.942 93.164C248.634 93.2049 249.325 93.0938 249.963 92.8395C250.601 92.5848 251.169 92.194 251.62 91.6974C252.546 90.4786 252.997 88.9928 252.891 87.4946C252.997 86.0033 252.548 84.5241 251.62 83.3139C251.169 82.822 250.604 82.4351 249.97 82.1829C249.335 81.931 248.648 81.8206 247.961 81.8606C247.271 81.8226 246.582 81.9352 245.946 82.1893C245.311 82.4437 244.743 82.833 244.292 83.3272C243.357 84.5294 242.901 86.005 243.002 87.4946ZM275.718 81.2037V89.3659C275.756 89.9891 275.657 90.6126 275.428 91.1977C275.199 91.7828 274.844 92.3168 274.386 92.7658C273.884 93.1925 273.297 93.5203 272.661 93.7307C272.024 93.941 271.348 94.0297 270.675 93.9912C270.016 94.0282 269.355 93.9382 268.736 93.7269C268.114 93.5154 267.544 93.187 267.06 92.7614C266.611 92.3019 266.263 91.7611 266.041 91.1716C265.817 90.5821 265.721 89.9559 265.761 89.3306V81.2037H266.695V89.3659C266.663 89.8818 266.74 90.3987 266.922 90.8856C267.107 91.3724 267.392 91.8195 267.761 92.1995C268.165 92.5526 268.642 92.8244 269.161 92.9985C269.677 93.1726 270.229 93.2456 270.778 93.2126C271.315 93.2447 271.855 93.1728 272.362 93.0014C272.872 92.8299 273.337 92.5623 273.732 92.215C274.094 91.8447 274.374 91.4089 274.554 90.9338C274.734 90.4587 274.811 89.9541 274.781 89.45V81.2014L275.718 81.2037ZM289.237 88.3219V93.8187H288.302V81.2103H291.473C292.761 81.1167 294.046 81.4209 295.138 82.0774C295.542 82.3915 295.86 82.7923 296.065 83.2462C296.271 83.7003 296.36 84.1945 296.323 84.6876C296.351 85.4549 296.103 86.2085 295.621 86.8266C295.07 87.4561 294.315 87.8963 293.474 88.0786L297.094 93.8298H295.981L292.544 88.3329L289.237 88.3219ZM289.237 87.5632H291.78C292.712 87.618 293.637 87.3665 294.397 86.8509C294.715 86.5936 294.965 86.2698 295.128 85.905C295.29 85.5401 295.36 85.1446 295.332 84.7495C295.369 84.3564 295.304 83.9609 295.147 83.5959C294.988 83.231 294.738 82.9076 294.42 82.6525C293.528 82.1418 292.488 81.9097 291.448 81.9889H289.242L289.237 87.5632ZM332.79 93.8187H332.023L329.097 84.0859C328.854 83.2867 328.672 82.6311 328.551 82.1194C328.455 82.6193 328.317 83.1945 328.137 83.8448C327.957 84.4951 326.978 87.8198 325.197 93.8187H324.414L320.75 81.2103H321.725L324.061 89.3372C324.153 89.6646 324.239 89.9683 324.316 90.2485C324.393 90.5288 324.466 90.7905 324.531 91.0338C324.594 91.2787 324.653 91.5145 324.704 91.7416C324.756 91.9688 324.802 92.1973 324.844 92.4274C324.992 91.6459 325.302 90.458 325.779 88.8638L328.058 81.2103H329.088L331.759 89.9942C332.07 91.0072 332.292 91.8241 332.425 92.4451C332.505 92.0307 332.607 91.5883 332.731 91.1179C332.855 90.6474 333.79 87.3426 335.536 81.2037H336.47L332.79 93.8187ZM358.986 87.4946C359.087 89.2078 358.521 90.8964 357.4 92.2438C356.857 92.8277 356.18 93.2883 355.423 93.5909C354.665 93.8935 353.845 94.0304 353.025 93.9912C352.205 94.0297 351.387 93.8926 350.632 93.59C349.875 93.2874 349.202 92.8273 348.66 92.2438C347.536 90.8902 346.972 89.1956 347.073 87.4769C346.97 85.7639 347.54 84.0755 348.674 82.7366C349.22 82.1588 349.896 81.7036 350.653 81.4043C351.408 81.105 352.226 80.9692 353.044 81.0068C353.862 80.967 354.679 81.1026 355.437 81.4036C356.191 81.7047 356.867 82.1632 357.409 82.7454C358.531 84.0932 359.094 85.7816 358.996 87.4946H358.986ZM348.085 87.4946C347.984 88.9888 348.435 90.4697 349.361 91.6841C349.809 92.1829 350.373 92.5762 351.008 92.833C351.644 93.0899 352.335 93.2031 353.025 93.164C353.717 93.2049 354.408 93.0938 355.046 92.8395C355.684 92.5848 356.252 92.194 356.703 91.6974C357.629 90.4786 358.08 88.9928 357.974 87.4946C358.08 86.0033 357.629 84.5241 356.703 83.3139C356.252 82.822 355.687 82.4349 355.053 82.1827C354.418 81.9307 353.731 81.8206 353.044 81.8606C352.354 81.8226 351.665 81.9352 351.029 82.1893C350.394 82.4437 349.826 82.833 349.375 83.3272C348.445 84.5305 347.991 86.0061 348.094 87.4946H348.085ZM371.94 88.3219V93.8187H371.005V81.2103H374.176C375.464 81.1167 376.749 81.4209 377.84 82.0774C378.245 82.3915 378.562 82.7923 378.768 83.2462C378.974 83.7003 379.063 84.1945 379.025 84.6876C379.053 85.4549 378.805 86.2085 378.324 86.8266C377.773 87.4561 377.018 87.8961 376.176 88.0786L379.796 93.8298H378.684L375.246 88.3329L371.94 88.3219ZM371.94 87.5632H374.482C375.415 87.6176 376.338 87.3661 377.097 86.8509C377.415 86.5936 377.665 86.2698 377.829 85.905C377.99 85.5401 378.06 85.1446 378.032 84.7495C378.069 84.3564 378.004 83.9609 377.847 83.5959C377.688 83.231 377.438 82.9076 377.121 82.6525C376.228 82.1418 375.188 81.9097 374.148 81.9889H371.942L371.94 87.5632ZM400.024 93.8187H398.903L393.79 87.1584L392.011 88.6426V93.8187H391.077V81.2103H392.011V87.7689L393.488 86.3709L398.711 81.2103H399.896L394.435 86.5434L400.024 93.8187ZM432.704 84.8269C432.736 85.3596 432.633 85.892 432.407 86.3797C432.178 86.8677 431.83 87.2968 431.39 87.6317C430.301 88.342 428.993 88.6855 427.672 88.6072H425.611V93.8187H424.676V81.2103H427.948C431.124 81.2059 432.711 82.4121 432.711 84.8291L432.704 84.8269ZM425.611 87.8463H427.443C428.579 87.9335 429.715 87.6879 430.699 87.1429C431.049 86.8679 431.322 86.5164 431.498 86.1187C431.673 85.721 431.743 85.289 431.701 84.8601C431.734 84.4546 431.666 84.0474 431.5 83.6718C431.337 83.2962 431.079 82.9629 430.752 82.699C429.881 82.167 428.85 81.9199 427.817 81.9956H425.611V87.8463ZM450.98 89.3659H445.573L443.703 93.8187H442.673L448.034 81.1528H448.627L453.878 93.8187H452.838L450.98 89.3659ZM445.909 88.563H450.677L448.863 84.0151C448.707 83.6583 448.524 83.1635 448.316 82.5309C448.167 83.0407 447.989 83.5424 447.779 84.0328L445.909 88.563ZM465.663 88.313V93.8099H464.728V81.2014H467.9C469.187 81.1079 470.472 81.412 471.564 82.0685C471.968 82.3827 472.286 82.7835 472.492 83.2374C472.697 83.6915 472.786 84.1857 472.749 84.6787C472.777 85.4461 472.529 86.1997 472.048 86.8177C471.496 87.4473 470.741 87.8874 469.9 88.0697L473.52 93.8209H472.407L468.97 88.3241L465.663 88.313ZM465.663 87.5543H468.206C469.138 87.6087 470.061 87.3572 470.821 86.8421C471.138 86.5848 471.388 86.261 471.552 85.8962C471.713 85.5312 471.783 85.1357 471.755 84.7406C471.793 84.3476 471.727 83.9518 471.571 83.5871C471.412 83.2221 471.162 82.8985 470.844 82.6437C469.951 82.1329 468.911 81.9009 467.871 81.9801H465.665L465.663 87.5543ZM488.261 93.8099H487.326V82.0243H482.996V81.197H492.593V82.0243H488.263L488.261 93.8099ZM513.219 93.8099H512.284L504.39 82.6105H504.318C504.39 83.9377 504.427 84.9442 504.427 85.6299V93.8143H503.535V81.2059H504.47L512.354 92.3875H512.408C512.354 91.3552 512.326 90.3717 512.326 89.4367V81.2059H513.228L513.219 93.8099ZM533.237 93.8099H525.953V81.2014H533.237V82.0133H526.883V86.7934H532.882V87.6052H526.883V93.0157H533.237V93.8099ZM546.143 88.313V93.8099H545.209V81.2014H548.38C549.667 81.1079 550.953 81.412 552.044 82.0685C552.448 82.3827 552.766 82.7835 552.972 83.2374C553.177 83.6915 553.266 84.1857 553.229 84.6787C553.257 85.4461 553.009 86.1997 552.528 86.8177C551.976 87.4473 551.221 87.8874 550.38 88.0697L554 93.8209H552.888L549.45 88.3241L546.143 88.313ZM546.143 87.5543H548.698C549.63 87.6092 550.555 87.3577 551.315 86.8421C551.633 86.5848 551.883 86.261 552.044 85.896C552.208 85.5312 552.278 85.1357 552.25 84.7406C552.287 84.3476 552.222 83.9518 552.065 83.5871C551.906 83.2221 551.656 82.8985 551.338 82.6437C550.446 82.1329 549.406 81.9009 548.366 81.9801H546.16L546.143 87.5543Z" fill="#003399"/>
<path d="M593.39 23.4978C593.385 21.9358 592.764 20.4388 591.659 19.3344C590.556 18.2299 589.059 17.6078 587.498 17.6043C585.936 17.6084 584.439 18.2306 583.335 19.335C582.232 20.4394 581.608 21.936 581.606 23.4978C581.606 25.0608 582.228 26.5598 583.332 27.6651C584.437 28.7703 585.934 29.3913 587.498 29.3913C588.271 29.3917 589.039 29.2391 589.754 28.9425C590.469 28.6457 591.117 28.2106 591.665 27.6622C591.839 27.4881 592.004 27.3036 592.155 27.1096C592.96 26.0759 593.394 24.8031 593.394 23.4933L593.39 23.4978ZM584.865 26.5192V20.2803H588.07C588.529 20.2629 588.988 20.314 589.431 20.4318C589.739 20.5305 590.004 20.7298 590.186 20.9978C590.385 21.2953 590.485 21.6474 590.474 22.0049C590.487 22.3084 590.416 22.6097 590.271 22.876C590.124 23.1424 589.908 23.3636 589.645 23.5156C589.436 23.6306 589.211 23.7126 588.977 23.7585C589.153 23.8087 589.324 23.8837 589.48 23.9813C589.592 24.0783 589.694 24.1874 589.783 24.3066C589.883 24.4274 589.975 24.5571 590.053 24.6943L590.984 26.4991H588.808L587.781 24.5963C587.696 24.4137 587.578 24.25 587.431 24.115C587.293 24.0166 587.128 23.9636 586.961 23.9635H586.792V26.4902H584.874L584.865 26.5192ZM586.798 22.8137H587.609C587.781 22.8011 587.952 22.7728 588.119 22.7291C588.244 22.7056 588.355 22.6365 588.431 22.5352C588.522 22.4129 588.565 22.2617 588.551 22.11C588.538 21.9582 588.471 21.8163 588.362 21.7108C588.146 21.5791 587.894 21.522 587.643 21.5481H586.798V22.8137ZM594.993 23.4978C594.991 25.4869 594.203 27.3945 592.797 28.8012C591.389 30.2079 589.483 30.9989 587.496 31C585.506 30.9993 583.6 30.209 582.194 28.8026C580.789 27.3961 580 25.4887 580 23.5C579.998 22.5149 580.192 21.5394 580.568 20.6292C580.944 19.719 581.497 18.892 582.194 18.1954C582.891 17.4988 583.718 16.9464 584.627 16.5697C585.538 16.193 586.513 15.9994 587.498 16C588.482 15.9991 589.458 16.1924 590.367 16.5686C591.278 16.9449 592.104 17.4968 592.801 18.1929C593.499 18.889 594.051 19.7156 594.428 20.6254C594.804 21.5353 595 22.5106 595 23.4955L594.993 23.4978Z" fill="#003399"/>
</g>
<defs>
<linearGradient id="paint0_linear_628_828" x1="123.615" y1="55.2203" x2="200.971" y2="55.2203" gradientUnits="userSpaceOnUse">
<stop stop-color="#6ABDBD"/>
<stop offset="1" stop-color="#117F7C"/>
</linearGradient>
<linearGradient id="paint1_linear_628_828" x1="140.16" y1="31.8607" x2="172.573" y2="31.8607" gradientUnits="userSpaceOnUse">
<stop stop-color="#579D9E"/>
<stop offset="1" stop-color="#00615E"/>
</linearGradient>
<linearGradient id="paint2_linear_628_828" x1="147.247" y1="55.2365" x2="216.557" y2="72.2118" gradientUnits="userSpaceOnUse">
<stop stop-color="#6ABDBD"/>
<stop offset="1" stop-color="#117F7C"/>
</linearGradient>
<linearGradient id="paint3_linear_628_828" x1="126.825" y1="123.95" x2="112.221" y2="8.41063" gradientUnits="userSpaceOnUse">
<stop stop-color="#FF0077"/>
<stop offset="1" stop-color="#C60264"/>
</linearGradient>
<linearGradient id="paint4_linear_628_828" x1="1045.96" y1="341.709" x2="1119.11" y2="341.709" gradientUnits="userSpaceOnUse">
<stop stop-color="#FF0077"/>
<stop offset="1" stop-color="#C60264"/>
</linearGradient>
<linearGradient id="paint5_linear_628_828" x1="97.2207" y1="76.9941" x2="130.675" y2="76.9941" gradientUnits="userSpaceOnUse">
<stop stop-color="#FF0077"/>
<stop offset="1" stop-color="#79003B"/>
</linearGradient>
<linearGradient id="paint6_linear_628_828" x1="1.67395" y1="133.737" x2="49.8502" y2="85.4546" gradientUnits="userSpaceOnUse">
<stop stop-color="#A7C62A"/>
<stop offset="1" stop-color="#6F8200"/>
</linearGradient>
<linearGradient id="paint7_linear_628_828" x1="45.6554" y1="47.6355" x2="42.4327" y2="-8.4399" gradientUnits="userSpaceOnUse">
<stop stop-color="#718B32"/>
<stop offset="1" stop-color="#3C4E1F"/>
</linearGradient>
<linearGradient id="paint8_linear_628_828" x1="22.0689" y1="137.222" x2="60.8005" y2="25.1009" gradientUnits="userSpaceOnUse">
<stop stop-color="#A7C62A"/>
<stop offset="1" stop-color="#6F8200"/>
</linearGradient>
<linearGradient id="paint9_linear_628_828" x1="72.281" y1="136.825" x2="90.8527" y2="21.5961" gradientUnits="userSpaceOnUse">
<stop stop-color="#FDA037"/>
<stop offset="1" stop-color="#C96400"/>
</linearGradient>
<linearGradient id="paint10_linear_628_828" x1="17.4934" y1="110.973" x2="227.748" y2="-4.04149" gradientUnits="userSpaceOnUse">
<stop stop-color="#FDA037"/>
<stop offset="1" stop-color="#C96400"/>
</linearGradient>
<clipPath id="clip0_628_828">
<rect width="595" height="110" fill="white"/>
</clipPath>
</defs>
</svg>
