<svg width="530" height="592" viewBox="0 0 530 592" fill="none" xmlns="http://www.w3.org/2000/svg">
<path d="M108.903 175.996C109.145 174.924 109.282 173.815 109.282 172.672C109.282 164.576 102.933 157.981 94.95 157.546V157.383C94.95 149.014 88.1823 142.239 79.7998 142.239C78.4388 142.239 77.1151 142.421 75.863 142.765C72.4709 133.581 63.6169 127.023 53.2391 127.023C39.9036 127.023 29.1081 137.802 29.1081 151.097C29.1081 151.477 29.1081 151.839 29.1439 152.203C19.6735 152.62 12.1074 160.426 12.1074 169.992C12.1074 172.102 12.4935 174.118 13.1692 175.996H108.903Z" fill="white"/>
<path d="M456.525 583.014C456.525 586.004 416.222 588.44 366.508 588.44C364.626 588.44 362.764 588.44 360.925 588.418C347.319 590.063 316.558 591.195 280.79 591.195C245.022 591.195 212.294 589.998 199.415 588.269C192.141 588.377 184.505 588.44 176.632 588.44C126.918 588.44 86.6152 586.004 86.6152 583.014C86.6152 580.024 126.918 577.588 176.632 577.588C179.542 577.588 182.451 577.588 185.296 577.61V577.588C185.296 574.598 225.599 572.164 275.313 572.164C325.027 572.164 365.352 574.6 365.352 577.588H366.508C416.222 577.588 456.525 580.024 456.525 583.014Z" fill="white"/>
<path d="M108.906 476.32L100.121 481.189C99.3099 481.638 98.6853 482.342 98.3447 483.203C96.308 488.354 88.5295 507.151 81.6129 512.26C77.7271 501.535 83.6096 450.743 93.5612 437.675C99.8229 437.333 108.456 438.998 111.542 439.65C112.236 439.796 112.747 440.372 112.825 441.075L115.322 463.948C115.872 468.986 113.343 473.861 108.907 476.32H108.906Z" fill="white"/>
<path d="M91.707 481.817C91.707 481.817 95.3956 480.631 97.4433 485.434L91.707 481.817Z" fill="white"/>
<path d="M89.625 487.852C89.625 487.852 94.0265 487.75 94.9738 491.149L89.625 487.852Z" fill="white"/>
<path d="M247.084 410.336C244.604 419.59 241.154 427.019 236.349 430.509C234.613 431.77 232.741 433.031 230.757 434.291C202.658 452.011 152.888 466.622 124.812 469.797C118.114 470.541 115.995 448.813 115.476 441.158C115.363 439.582 116.265 438.142 117.709 437.533L197.743 404.639C190.12 371.901 186.038 341.866 200.358 326.016L253.061 333.244C253.061 333.244 254.932 380.999 247.084 410.336Z" fill="white"/>
<path d="M247.084 410.336C244.604 419.59 241.154 427.019 236.349 430.509C234.613 431.77 232.741 433.031 230.757 434.291C202.658 452.011 152.888 466.622 124.812 469.797C118.114 470.541 115.995 448.813 115.476 441.158C115.363 439.582 116.265 438.142 117.709 437.533L197.743 404.639C190.12 371.901 186.038 341.866 200.358 326.016L253.061 333.244C253.061 333.244 254.932 380.999 247.084 410.336Z" fill="#29323F"/>
<path d="M264.922 514.523L247.45 523.924V533.326H240.562L257.77 566.129L276.23 555.455L264.922 514.523Z" fill="white"/>
<path d="M246.365 552.631C223.746 472.769 171.383 388.967 161.213 348.551C159.026 339.927 158.777 333.264 161.145 329.052L176.277 327.228L214.997 322.59L274.79 514.507C258.599 515.407 245.171 527.029 246.366 552.63L246.365 552.631Z" fill="white"/>
<path d="M246.365 552.631C223.746 472.769 171.383 388.967 161.213 348.551C159.026 339.927 158.777 333.264 161.145 329.052L176.277 327.228L214.997 322.59L274.79 514.507C258.599 515.407 245.171 527.029 246.366 552.63L246.365 552.631Z" fill="#29323F"/>
<path d="M279.924 547.792L290.16 556.048C290.653 556.446 291.245 556.677 291.879 556.713C296.653 556.975 317.975 558.415 325.205 563.525C316.217 570.563 267.696 579.877 252.152 574.525C250.175 569.471 249.537 562.162 249.33 558.23C249.243 556.574 250.171 555.031 251.667 554.311L268.061 546.422C271.948 544.551 276.568 545.085 279.924 547.793V547.792Z" fill="white"/>
<path d="M293.087 563.464C293.087 563.464 290.805 560.338 294.734 556.895L293.087 563.464Z" fill="white"/>
<path d="M299.48 563.552C299.48 563.552 298.008 559.41 300.946 557.449L299.48 563.552Z" fill="white"/>
<path d="M367.018 210.605C354.932 228.482 334.567 253.386 313.496 264.556C309.687 266.585 305.174 266.799 301.131 265.304C294.115 262.697 275.354 255.713 264.06 249.947L255.759 336.662L251.46 336.385L218.302 334.164L191.263 332.348L157.699 330.105H157.678V329.827L157.764 327.457L157.784 327.243L158.619 293.908C149.035 275.946 138.382 263.339 139.238 251.101C140.65 231.43 169.593 198.112 181.658 191.918C192.631 186.28 221.617 186.792 229.725 188.009C232.7 188.436 235.65 188.949 238.56 189.567C249.063 191.745 258.797 194.928 265.729 199.115L306.887 228.141L350.226 196.275C348.621 198.368 351.124 203.109 355.809 206.932C360.216 210.52 364.986 212.015 367.018 210.605Z" fill="#2379FB"/>
<path d="M230.006 182.645V188.165L222.843 207.875L206.314 187.221C208.33 175.812 203.324 157.839 203.324 154.354C203.324 141.926 212.053 131.412 224.118 128.354C236.334 125.259 240.65 115.139 241.075 137.157C241.189 143.045 243.357 158.978 241.802 168.406C240.856 174.136 238.458 180.117 232.27 181.943C231.585 182.145 230.579 182.462 230.006 182.645Z" fill="white"/>
<path d="M208.468 161.544C205.446 161.544 202.996 158.494 202.996 154.736C202.996 150.977 205.448 147.914 208.468 147.914C211.487 147.914 213.95 150.965 213.95 154.736" fill="white"/>
<path d="M251.856 129.995C251.856 120.074 240.765 112.051 227.053 112.051C216.602 112.051 207.681 116.745 204.046 123.383C196.525 124.002 190.605 130.474 190.605 138.378C190.605 143.1 192.751 147.293 196.071 150.042C195.812 152.288 195.865 154.706 196.318 157.245C197.497 163.896 201.014 169.808 205.524 173.572C206.102 174.058 206.681 174.497 207.282 174.912C206.842 169.947 205.964 165.05 205.247 161.24C206.172 161.956 207.282 162.349 208.462 162.349C208.924 162.349 209.272 161.978 209.272 161.541C209.272 161.103 208.924 160.732 208.462 160.732C206.913 160.732 205.547 159.74 204.692 158.239C204.137 157.245 203.814 156.023 203.814 154.728C203.814 154.244 203.86 153.781 203.953 153.319C204.022 152.997 204.093 152.673 204.207 152.373V152.349C204.37 151.869 204.584 151.427 204.83 151.021C204.863 150.967 204.892 150.911 204.927 150.857C205.028 150.701 205.139 150.56 205.252 150.418C205.312 150.345 205.37 150.269 205.432 150.199C205.536 150.081 205.648 149.972 205.761 149.866C205.847 149.786 205.934 149.71 206.023 149.639C206.128 149.555 206.235 149.473 206.346 149.399C206.459 149.323 206.576 149.257 206.695 149.194C206.794 149.14 206.893 149.085 206.997 149.04C207.144 148.976 207.299 148.93 207.452 148.886C207.537 148.861 207.62 148.828 207.707 148.81C207.954 148.758 208.205 148.726 208.464 148.726C210.13 148.726 211.564 149.834 212.373 151.496C212.858 152.421 213.136 153.551 213.136 154.73C213.136 155.191 213.505 155.537 213.945 155.537C214.407 155.537 214.754 155.191 214.754 154.73C214.754 153.206 214.385 151.773 213.737 150.595C215.238 149.506 216.514 148.119 217.519 146.531C220.455 147.419 223.675 147.912 227.054 147.912C232.136 147.912 236.853 146.805 240.784 144.914C241.191 150.063 241.671 156.363 241.539 161.91C242.116 161.494 242.672 161.009 243.181 160.501C246.165 157.569 248.015 153.411 248.015 148.839C248.015 146.133 247.366 143.595 246.231 141.359C249.747 138.265 251.858 134.309 251.858 129.994L251.856 129.995Z" fill="black"/>
<path d="M217.031 179.27C217.031 179.27 225.222 183.436 230.452 182.477L217.031 179.27Z" fill="white"/>
<path d="M190.47 231.965L173.835 258.981L205.224 310.376C203.976 308.463 193.492 310.824 188.523 313.813C183.323 316.952 179.781 321.353 180.58 323.711C178.854 319.786 137.732 272.455 139.246 251.102C140.641 231.425 169.582 198.111 181.657 191.91" fill="#2379FB"/>
<path d="M187.386 353.641V353.667H172.744C169.11 353.667 165.99 356.317 165.449 359.895L150.935 452.908C150.239 457.387 153.693 461.427 158.231 461.427H138.485C134.026 461.427 130.521 457.901 130.34 453.654C130.314 453.139 130.34 452.598 130.417 452.032L144.699 360.538C144.827 359.715 145.06 358.942 145.42 358.221C146.76 355.494 149.57 353.641 152.74 353.641H187.386Z" fill="white"/>
<path d="M145.43 358.216L151.858 370.965L169.806 353.652H152.752C149.573 353.652 146.751 355.489 145.43 358.218V358.216Z" fill="white"/>
<path d="M130.34 453.665C130.519 457.909 134.037 461.438 138.484 461.438H159.967L141.002 442.164L130.34 453.665Z" fill="white"/>
<path d="M165.441 359.908L150.933 452.921C150.236 457.398 153.702 461.441 158.242 461.441H253.035C257.573 461.441 261.041 457.398 260.344 452.921L245.836 359.908C245.275 356.312 242.174 353.66 238.528 353.66H172.751C169.105 353.66 166.004 356.312 165.442 359.908H165.441Z" fill="white"/>
<path d="M202.528 412.007C202.528 415.181 199.954 417.75 196.777 417.75C193.6 417.75 191.025 415.181 191.025 412.007C191.025 408.834 193.6 406.254 196.777 406.254C199.954 406.254 202.528 408.835 202.528 412.007Z" fill="#2379FB"/>
<path d="M227.577 429.722C227.577 432.896 225.003 435.465 221.826 435.465C218.649 435.465 216.074 432.896 216.074 429.722C216.074 426.549 218.649 423.969 221.826 423.969C225.003 423.969 227.577 426.55 227.577 429.722Z" fill="#2379FB"/>
<path d="M206.251 329.401C206.251 329.401 209.069 343.248 205.866 343.838C203.348 344.3 201.756 340.447 201.412 337.905C201.691 340.832 202.809 345.492 200.075 345.629C197.325 345.765 194.889 336.603 194.889 336.603C194.889 336.603 195.943 345.417 193.27 345.14C190.617 344.862 188.939 335.488 188.939 335.167C188.939 335.167 189.504 342.972 186.465 343.067C183.046 343.175 181.45 323.477 181.364 322.857C181.299 321.811 181.407 320.85 181.663 319.932C183.033 317.903 185.493 315.639 188.53 313.801C191.183 312.199 195.204 310.833 198.627 310.191C210.117 319.942 213.205 335.665 213.205 335.665C211.733 333.352 209.112 331.345 206.252 329.401H206.251Z" fill="white"/>
<path d="M378.518 185.525H370.535V181.605C367.401 182.882 364.538 184.579 362.679 185.836C361.589 186.562 358.573 188.909 358.315 189.146C356.735 190.609 356.091 191.624 352.282 195.297C351.512 196.045 350.657 196.835 349.759 197.69C349.631 200.083 351.983 203.819 355.834 206.938C357.717 208.475 359.686 209.629 361.46 210.312C363.707 208.197 365.611 206.553 367.022 205.314C368.348 204.118 369.268 203.285 369.695 202.751C377.675 203.348 382.894 198.479 382.894 198.479L372.519 187.693C372.519 187.693 375.616 186.772 378.518 185.525Z" fill="white"/>
<path d="M478.742 28.8594H280.212C275.681 28.8594 272.008 32.5227 272.008 37.0417V149.437C272.008 153.956 275.681 157.619 280.212 157.619H478.742C483.273 157.619 486.947 153.956 486.947 149.437V37.0417C486.947 32.5227 483.273 28.8594 478.742 28.8594Z" fill="#2379FB"/>
<path d="M478.742 28.8594H280.212C275.681 28.8594 272.008 32.5227 272.008 37.0417V149.437C272.008 153.956 275.681 157.619 280.212 157.619H478.742C483.273 157.619 486.947 153.956 486.947 149.437V37.0417C486.947 32.5227 483.273 28.8594 478.742 28.8594Z" fill="white" fill-opacity="0.8"/>
<path d="M341.253 57.8042L332.912 57.86C332.576 53.8991 330.057 51.9466 325.355 51.9466C323.34 51.9466 321.773 52.3371 320.653 53.1181C319.534 53.8991 318.918 55.0149 318.918 56.4653C318.918 56.9116 319.03 57.3579 319.142 57.7484C319.31 58.0832 319.59 58.4179 319.982 58.7526C320.43 59.0873 320.821 59.3105 321.213 59.5336C321.661 59.7568 322.277 59.9799 323.06 60.2031C323.844 60.4262 324.572 60.6493 325.243 60.8725C325.915 61.0399 326.811 61.263 327.986 61.5977C329.218 61.8767 330.225 62.1556 331.121 62.4345C335.039 63.5503 338.006 64.9449 339.909 66.6185C341.812 68.2921 342.764 70.691 342.764 73.815C342.764 76.0465 342.316 78.0548 341.365 79.7284C340.469 81.402 339.181 82.7409 337.614 83.7451C336.047 84.7492 334.312 85.4745 332.408 85.9208C330.505 86.3671 328.49 86.646 326.363 86.646C320.989 86.646 316.735 85.3629 313.712 82.9083C310.69 80.4537 309.122 76.9391 309.066 72.4761H317.743C317.911 77.4412 320.933 79.9516 326.755 79.9516C329.05 79.9516 330.841 79.4495 332.184 78.5011C333.528 77.5527 334.144 76.2696 334.144 74.6518C334.144 73.2572 333.584 72.253 332.352 71.6393C331.121 70.9699 328.602 70.1331 324.684 69.0174C324.46 68.9616 324.292 68.9058 324.18 68.9058C324.068 68.85 323.956 68.7942 323.732 68.7384C323.564 68.6826 323.396 68.6269 323.228 68.6269C321.885 68.2363 320.989 67.9574 320.43 67.7901C319.926 67.6227 319.086 67.3438 317.967 66.9533C316.847 66.507 316.007 66.1722 315.504 65.8375C314.944 65.5028 314.328 65.0007 313.544 64.4429C312.761 63.8292 312.257 63.2155 311.921 62.5461C311.585 61.8767 311.249 61.0956 310.97 60.1473C310.69 59.1989 310.578 58.1947 310.578 57.079C310.578 53.4529 311.977 50.5519 314.776 48.3763C317.575 46.2564 321.269 45.1406 325.915 45.1406C330.393 45.1406 334.032 46.2006 336.886 48.3205C339.685 50.4404 341.141 53.5644 341.253 57.8042Z" fill="#2379FB"/>
<path d="M367.92 45.9216L383.09 85.6976H373.91L370.775 76.8275H355.941L352.695 85.6976H343.739L358.908 45.9216H367.92ZM368.648 70.4678L363.386 55.6843L358.069 70.4678H368.648Z" fill="#2379FB"/>
<path d="M414.636 78.2222V85.6976H386.424V45.9774H395.157V78.2222H414.636Z" fill="#2379FB"/>
<path d="M449.496 45.9774V53.1181H428.282V61.7651H447.761V68.6269H428.282V78.3895H449.888V85.6976H419.605V45.9774H449.496Z" fill="#2379FB"/>
<path d="M354.08 101.62V108.761H332.866V117.408H352.345V124.27H332.866V134.033H354.472V141.341H324.189V101.62H354.08Z" fill="#2379FB"/>
<path d="M360.486 141.341V101.62H369.386L385.787 128.231V101.62H394.184V141.341H385.451L368.939 114.675V141.341H360.486Z" fill="#2379FB"/>
<path d="M402.032 141.341V101.62H418.153C424.311 101.62 429.069 103.35 432.427 106.753C435.786 110.212 437.465 115.121 437.465 121.481C437.465 127.896 435.786 132.805 432.427 136.208C429.069 139.667 424.311 141.341 418.153 141.341H402.032ZM410.708 134.088H417.034C424.758 134.088 428.621 129.904 428.621 121.481C428.621 117.464 427.669 114.34 425.766 112.164C423.863 109.988 420.952 108.873 417.09 108.873H410.708V134.088Z" fill="#2379FB"/>
<path d="M341.253 57.8042L332.912 57.86C332.576 53.8991 330.057 51.9466 325.355 51.9466C323.34 51.9466 321.773 52.3371 320.653 53.1181C319.534 53.8991 318.918 55.0149 318.918 56.4653C318.918 56.9116 319.03 57.3579 319.142 57.7484C319.31 58.0832 319.59 58.4179 319.982 58.7526C320.43 59.0873 320.821 59.3105 321.213 59.5336C321.661 59.7568 322.277 59.9799 323.06 60.2031C323.844 60.4262 324.572 60.6493 325.243 60.8725C325.915 61.0399 326.811 61.263 327.986 61.5977C329.218 61.8767 330.225 62.1556 331.121 62.4345C335.039 63.5503 338.006 64.9449 339.909 66.6185C341.812 68.2921 342.764 70.691 342.764 73.815C342.764 76.0465 342.316 78.0548 341.365 79.7284C340.469 81.402 339.181 82.7409 337.614 83.7451C336.047 84.7492 334.312 85.4745 332.408 85.9208C330.505 86.3671 328.49 86.646 326.363 86.646C320.989 86.646 316.735 85.3629 313.712 82.9083C310.69 80.4537 309.122 76.9391 309.066 72.4761H317.743C317.911 77.4412 320.933 79.9516 326.755 79.9516C329.05 79.9516 330.841 79.4495 332.184 78.5011C333.528 77.5527 334.144 76.2696 334.144 74.6518C334.144 73.2572 333.584 72.253 332.352 71.6393C331.121 70.9699 328.602 70.1331 324.684 69.0174C324.46 68.9616 324.292 68.9058 324.18 68.9058C324.068 68.85 323.956 68.7942 323.732 68.7384C323.564 68.6826 323.396 68.6269 323.228 68.6269C321.885 68.2363 320.989 67.9574 320.43 67.7901C319.926 67.6227 319.086 67.3438 317.967 66.9533C316.847 66.507 316.007 66.1722 315.504 65.8375C314.944 65.5028 314.328 65.0007 313.544 64.4429C312.761 63.8292 312.257 63.2155 311.921 62.5461C311.585 61.8767 311.249 61.0956 310.97 60.1473C310.69 59.1989 310.578 58.1947 310.578 57.079C310.578 53.4529 311.977 50.5519 314.776 48.3763C317.575 46.2564 321.269 45.1406 325.915 45.1406C330.393 45.1406 334.032 46.2006 336.886 48.3205C339.685 50.4404 341.141 53.5644 341.253 57.8042Z" stroke="black" stroke-width="1.5"/>
<path d="M367.92 45.9216L383.09 85.6976H373.91L370.775 76.8275H355.941L352.695 85.6976H343.739L358.908 45.9216H367.92ZM368.648 70.4678L363.386 55.6843L358.069 70.4678H368.648Z" stroke="black" stroke-width="1.5"/>
<path d="M414.636 78.2222V85.6976H386.424V45.9774H395.157V78.2222H414.636Z" stroke="black" stroke-width="1.5"/>
<path d="M449.496 45.9774V53.1181H428.282V61.7651H447.761V68.6269H428.282V78.3895H449.888V85.6976H419.605V45.9774H449.496Z" stroke="black" stroke-width="1.5"/>
<path d="M354.08 101.62V108.761H332.866V117.408H352.345V124.27H332.866V134.033H354.472V141.341H324.189V101.62H354.08Z" stroke="black" stroke-width="1.5"/>
<path d="M360.486 141.341V101.62H369.386L385.787 128.231V101.62H394.184V141.341H385.451L368.939 114.675V141.341H360.486Z" stroke="black" stroke-width="1.5"/>
<path d="M402.032 141.341V101.62H418.153C424.311 101.62 429.069 103.35 432.427 106.753C435.786 110.212 437.465 115.121 437.465 121.481C437.465 127.896 435.786 132.805 432.427 136.208C429.069 139.667 424.311 141.341 418.153 141.341H402.032ZM410.708 134.088H417.034C424.758 134.088 428.621 129.904 428.621 121.481C428.621 117.464 427.669 114.34 425.766 112.164C423.863 109.988 420.952 108.873 417.09 108.873H410.708V134.088Z" stroke="black" stroke-width="1.5"/>
<path d="M370.234 188.289C368.609 188.929 367.538 189.631 367.636 190.354C367.763 191.285 370.454 191.643 373.71 191.21C370.498 192.171 366.344 193.702 367.108 194.739C367.873 195.777 370.279 196.04 375.152 194.868C375.152 194.868 366.843 197.297 368.092 198.872C368.509 199.398 370.074 199.542 372.112 199.478C370.387 199.973 369.107 200.627 369.457 201.288C369.781 201.89 371.37 202.209 373.491 202.277C373.491 202.277 377.28 202.15 378.555 202.052C381.839 201.8 385.182 200.938 386.863 199.86C389.554 198.13 387.721 196.222 386.313 195.287L386.346 195.218C387.782 193.625 386.161 192.204 384.891 191.444C386.633 189.984 385.686 188.363 384.482 187.467C386.721 185.548 383.383 183.326 380.046 183.923" fill="white"/>
<path d="M362.676 185.832C366.854 183.029 373.635 177.99 379.539 180.789C386.133 183.915 367.462 189.801 367.462 189.801C367.462 189.801 368.855 193.262 366.209 196.597" fill="white"/>
<g opacity="0.05">
<path d="M506.86 417.75H455.649C452.529 417.75 450 420.275 450 423.391V474.52C450 477.635 452.529 480.161 455.649 480.161H506.86C509.98 480.161 512.509 477.635 512.509 474.52V423.391C512.509 420.275 509.98 417.75 506.86 417.75Z" fill="black"/>
</g>
<g opacity="0.05">
<path d="M493.491 552.614C493.454 552.033 493.375 551.454 493.218 550.884C492.886 549.685 492.175 548.507 490.93 547.659C489.685 546.811 487.85 546.343 486.173 546.645C484.167 547.007 482.942 548.37 482.64 549.817C483.265 547.405 482.906 544.872 481.618 542.595C480.863 541.26 479.676 539.937 477.803 539.371C475.69 538.732 473.166 539.226 471.332 540.205C469.498 541.184 468.214 542.574 466.967 543.937C468.935 541.64 467.616 538.355 464.458 536.857C461.301 535.359 456.843 535.598 453.734 537.146C450.625 538.693 448.84 541.359 448.581 544.036C448.061 542.694 448.582 541.279 448.837 539.899C449.093 538.52 448.979 536.942 447.541 535.991C446.186 535.093 444.031 535.06 442.295 535.53C439.182 536.374 437.117 538.574 436.371 540.867C435.739 542.806 435.911 544.818 436.292 546.8C436.005 545.847 435.451 544.944 434.367 544.372C432.69 543.489 430.164 543.738 428.573 544.699C426.983 545.66 426.234 547.173 426.123 548.649C426.022 549.983 426.382 551.308 426.784 552.618H493.488L493.491 552.614Z" fill="black"/>
</g>
<g opacity="0.05">
<path d="M83.7964 557.45C83.7661 556.978 83.7027 556.508 83.5744 556.044C83.3042 555.07 82.7278 554.113 81.7156 553.423C80.7035 552.735 79.2115 552.353 77.8492 552.6C76.2179 552.894 75.2237 554.001 74.9783 555.177C75.4857 553.216 75.1947 551.158 74.1481 549.308C73.5345 548.223 72.5693 547.148 71.0483 546.687C69.3316 546.168 67.2798 546.57 65.7892 547.364C64.2985 548.158 63.2561 549.29 62.2426 550.397C63.8421 548.53 62.7693 545.86 60.2032 544.642C57.637 543.425 54.0146 543.619 51.4884 544.876C48.9622 546.133 47.5102 548.299 47.3006 550.477C46.8773 549.386 47.3006 548.235 47.5102 547.115C47.7184 545.994 47.6261 544.712 46.4567 543.939C45.355 543.209 43.6038 543.181 42.1931 543.564C39.6642 544.25 37.986 546.038 37.3779 547.901C36.865 549.477 37.0043 551.113 37.3145 552.722C37.0815 551.947 36.6306 551.213 35.7494 550.749C34.3871 550.031 32.3339 550.233 31.0404 551.014C29.7484 551.794 29.1403 553.024 29.0493 554.223C28.9666 555.308 29.2603 556.384 29.5871 557.449H83.7964V557.45Z" fill="black"/>
</g>
<g opacity="0.05">
<path d="M253.412 74.4116C253.412 115.505 220.041 148.823 178.883 148.823C137.725 148.823 104.354 115.505 104.354 74.4116C104.354 33.3186 137.723 0 178.883 0C220.042 0 253.412 33.3186 253.412 74.4116Z" fill="black"/>
</g>
<path d="M366.509 576.788H365.631C362.115 574.201 341.76 572.839 321.221 572.123C323.811 571.171 328.884 569.208 328.368 566.488C327.942 564.323 326.061 563.239 325.685 562.863H325.662C318.737 557.987 300.313 556.437 291.915 555.912C291.452 555.89 291.037 555.704 290.666 555.428L280.443 547.16C278.592 545.683 276.372 544.805 274.058 544.597L269.178 526.884C272.278 521.388 274.544 516.908 275.261 515.429C276.856 515.429 278.476 515.406 280.072 515.382C281.691 515.382 283.287 515.359 284.883 515.335C323.881 515.048 358.546 515.929 387.441 505.405C428.22 490.483 467.198 449.852 480.91 374.534C484.374 356.989 486.667 331.714 488.011 313.961C490.555 280.752 492.058 248.399 482.737 217.661C476.191 196.023 464.025 175.746 447.903 158.98H478.92C483.892 158.98 487.941 154.94 487.941 149.974V37.2996C487.941 32.3351 483.894 28.293 478.92 28.293H280.164C275.168 28.293 271.12 32.3337 271.12 37.2996V111.407C261.29 111.638 251.807 112.146 242.623 112.978C242.623 113 242.6 113 242.6 113C240.68 113.139 238.783 113.323 236.887 113.508H236.863C227.31 114.502 218.083 115.84 209.247 117.525H209.223C162.653 126.262 128.863 144.574 107.613 164.151C105.069 160.133 100.767 157.316 95.7479 156.808C95.4473 148.262 88.3927 141.427 79.7883 141.427C78.6314 141.427 77.4759 141.566 76.3644 141.797C72.5945 132.444 63.3888 126.21 53.2345 126.21C39.4729 126.21 28.3009 137.386 28.3009 151.104V151.451C18.7023 152.283 11.3003 160.272 11.3003 169.994C11.3003 171.725 11.554 173.48 12.0628 175.187H4.5932C4.14643 175.187 3.78516 175.548 3.78516 175.994C3.78516 176.44 4.14643 176.801 4.5932 176.801H13.1563C13.1563 176.801 13.1673 176.806 13.1728 176.806H95.6307C73.5749 203.554 67.1478 237.653 75.9935 265.231C78.5142 273.129 82.3076 280.727 85.9852 288.047C92.7639 301.639 99.6571 315.61 98.7525 330.932C96.1933 369.321 49.0412 367.543 24.5985 389.336C7.85296 404.232 3.17981 431.182 13.4734 453.421C24.6137 477.45 49.0481 493.334 74.5139 501.455C74.4809 505.09 74.4478 513.891 77.7985 514.341C81.9904 514.878 86.2237 508.854 88.4617 505.289C97.6356 507.363 107.918 509.125 122.023 510.555C126.811 511.04 131.738 511.479 136.849 511.872C141.684 512.242 146.518 512.588 151.351 512.888C155.538 513.164 159.724 513.396 163.911 513.604C164.628 513.65 165.345 513.696 166.038 513.719C174.411 514.135 182.784 514.482 191.18 514.735C195.39 514.851 199.576 514.967 203.786 515.059C207.972 515.151 212.182 515.22 216.369 515.29C221.966 515.382 227.541 515.429 233.138 515.475C243.191 542.205 245.331 552.63 245.559 552.863C245.582 552.955 245.628 553.024 245.698 553.094C245.745 553.186 245.837 553.255 245.906 553.302C245.906 553.324 245.93 553.349 245.952 553.349C246.08 553.415 246.472 553.496 246.577 553.396C246.646 553.396 246.716 553.374 246.761 553.325C247.154 553.188 248.08 552.795 249.421 551.964L250.531 554.066C249.19 555.035 248.427 556.583 248.519 558.269C248.681 561.48 249.144 566.929 250.37 571.618C225.297 572.057 189.746 573.303 185.005 576.814C182.253 576.791 179.454 576.791 176.632 576.791C172.908 576.791 85.8004 576.861 85.8004 583.026C85.8004 589.191 172.908 589.26 176.632 589.26C183.942 589.26 191.621 589.191 199.3 589.075C228.005 592.918 330.125 592.982 360.909 589.236C362.76 589.258 364.61 589.258 366.507 589.258C370.208 589.258 457.339 589.19 457.339 583.024C457.339 576.859 370.208 576.789 366.507 576.789L366.509 576.788ZM480.171 369.523C471.557 420.804 450.098 468.548 405.137 495.268C386.371 506.246 370.574 508.313 370.21 508.686C344.623 514.318 310.804 513.572 275.424 513.789L258.655 460.004C258.863 459.82 259.071 459.612 259.256 459.38C260.829 457.556 261.523 455.154 261.152 452.798L251.506 391.069C254.259 369.869 254.143 346.614 253.958 337.354L255.716 337.47H255.762C256.178 337.47 256.525 337.146 256.571 336.732L264.759 251.193C268.113 252.855 272.045 254.634 276.116 256.366V293.615C276.116 294.054 276.485 294.423 276.925 294.423H321.103V364.166C321.103 364.605 321.45 364.974 321.912 364.974H347.61C348.05 364.974 348.419 364.604 348.419 364.166V253.71H357.81V305.832C357.81 306.295 358.179 306.64 358.619 306.64H397.616C398.009 306.64 398.333 306.364 398.402 305.995L408.694 251.056H437.144C437.584 251.056 437.954 250.685 437.954 250.248V223.459H445.101V323.57C445.101 324.009 445.47 324.378 445.91 324.378H464.901V353.915C464.901 354.354 465.248 354.7 465.71 354.7H482.387C482.021 357.204 481.58 361.14 480.167 369.526L480.171 369.523ZM116.29 440.814C116.336 439.705 116.983 438.711 118.024 438.274L132.689 432.246C132.653 432.478 129.407 453.236 129.613 451.921C128.893 457.903 133.316 462.244 138.494 462.244C139.567 462.244 159.67 462.244 158.64 462.244C146.15 465.547 134.33 467.903 124.731 468.989C118.926 469.818 116.519 446.99 116.288 440.814H116.29ZM145.594 360.31L151.007 371.071C134.406 480.248 142.628 426.172 140.251 441.806C135.494 446.938 131.09 451.687 131.323 451.437C131.358 451.205 134.629 430.196 134.422 431.53C146.27 355.742 145.487 360.578 145.594 360.31ZM161.092 331.141L177.121 332.227C173.628 335.714 171.245 340.379 170.76 345.459L170.043 352.826H163.242C161.346 346.788 159.02 337.13 161.091 331.141H161.092ZM145.456 234.842C155.236 215.888 173.635 196.952 182.025 192.627C187.3 189.925 196.806 188.655 206.081 188.217L222.203 208.378C222.364 208.586 222.596 208.678 222.851 208.678H222.967C223.267 208.631 223.499 208.425 223.615 208.147L230.577 188.956C233.284 189.372 235.897 189.833 238.395 190.365C249.636 192.698 258.934 195.953 265.272 199.787C290.124 217.297 280.567 210.563 305.427 228.078L298.105 232.508C297.723 232.741 297.602 233.236 297.832 233.621C298.072 234.012 298.577 234.116 298.946 233.893L307.299 228.839C307.322 228.817 307.345 228.792 307.368 228.792L348.956 198.218C348.956 198.263 348.956 198.333 348.979 198.379C349.066 199.06 349.135 199.283 349.187 199.465C349.211 199.487 349.211 199.51 349.211 199.534C349.433 200.29 349.602 200.591 349.881 201.242C349.904 201.266 349.904 201.313 349.95 201.335C350.044 201.428 350.628 203.332 355.293 207.57H355.317C356.03 208.132 357.054 208.933 358.045 209.51C358.812 210.282 362.913 211.958 365.008 211.958H365.147C356.265 224.775 335.795 251.794 313.127 263.85C309.589 265.743 305.309 265.996 301.423 264.542C295.157 262.211 276.301 255.219 264.919 249.471L265.808 240.329C265.851 239.885 265.526 239.488 265.082 239.446C264.594 239.417 264.239 239.729 264.196 240.171C261.991 263.16 257.225 312.87 255.025 335.808L253.939 335.739L252.32 335.624C248.339 335.357 266.739 336.59 213.392 333.013C212.305 329.134 209.575 321.374 204.001 314.539C206.476 312.114 206.199 311.053 206.013 310.567C206.167 309.949 207.846 313.318 174.787 258.975L191.163 232.394C191.395 232.002 191.279 231.517 190.886 231.286C190.517 231.054 190.008 231.17 189.776 231.539L173.475 258.019L168.25 256.352C167.256 256.009 166.721 257.561 167.758 257.89L173.302 259.658C191.909 290.124 184.769 278.432 203.376 308.901C200.932 308.726 197.403 309.576 195.073 310.241C195.057 310.241 195.042 310.248 195.027 310.263C194.44 310.355 190.81 311.659 189.984 312.157C189.961 312.134 189.939 312.157 189.916 312.179C189.655 312.267 189.03 312.629 188.829 312.71C188.805 312.71 188.783 312.734 188.76 312.757C187.202 313.38 183.098 316.62 181.705 318.531C181.659 318.555 181.636 318.602 181.613 318.624V318.647L181.59 318.669V318.692C181.445 318.836 181.272 319.078 181.197 319.154V319.177C181.128 319.269 181.057 319.385 180.988 319.477C180.988 319.499 180.965 319.499 180.965 319.524C180.823 319.759 180.291 320.525 180.087 321.142C180.04 321.21 180.018 321.257 179.994 321.326C176.147 316.046 167.754 305.693 159.039 292.968C159.039 292.945 159.015 292.944 159.015 292.921C144.272 265.623 133.066 258.125 145.461 234.842H145.456ZM207.283 174.913C206.058 162.403 203.772 156.88 204.23 152.305C204.131 152.208 204.713 148.848 204.808 148.564C205.995 143.557 208.392 140.437 208.601 140.019C208.938 139.688 213.552 131.94 224.307 129.141C231.268 127.355 236.083 123.181 238 124.337C240.141 125.647 240.187 134.539 240.267 137.177C240.296 139.309 240.673 143.02 241.215 150.876C239.086 150.282 236.77 151.227 235.723 153.277C235.447 153.816 235.842 154.451 236.444 154.451C237.416 154.451 237.112 153.065 238.986 152.464C239.772 152.216 240.598 152.287 241.333 152.649C241.402 153.728 241.447 154.828 241.494 155.906C241.494 155.906 241.517 155.906 241.494 155.93C241.494 155.932 241.494 155.934 241.494 155.936C240.702 154.43 238.546 154.955 238.409 156.549C238.255 158.361 240.759 159.056 241.539 157.399C241.539 157.408 241.539 157.421 241.539 157.432V157.454C241.677 166.503 241.071 178.512 232.033 181.171C231.593 181.31 230.992 181.494 230.483 181.655H230.46C230.431 181.665 230.41 181.672 230.381 181.682C230.355 181.684 230.33 181.676 230.304 181.682C225.395 182.601 217.479 178.592 217.4 178.551C217.004 178.346 216.515 178.504 216.311 178.903C216.108 179.303 216.265 179.79 216.664 179.991C216.971 180.149 223.492 183.43 228.755 183.43C228.906 183.43 229.041 183.398 229.188 183.394V188.031L228.935 188.724L222.574 206.252L208.072 188.123L207.17 186.992C207.193 186.853 207.215 186.715 207.215 186.577C207.748 183.043 207.655 178.956 207.284 174.915L207.283 174.913ZM357.072 191.564C357.72 190.893 358.205 190.34 358.854 189.74C361.895 187.259 367.568 183.178 371.344 181.727C373.957 180.711 376.687 180.341 379.184 181.518C379.485 181.657 380.155 182.026 380.133 182.373C379.93 184.6 369.28 188.356 367.226 189.024C366.821 189.146 366.515 189.656 366.717 190.11C366.717 190.11 366.764 190.249 366.833 190.456C366.833 190.526 366.857 190.571 366.88 190.64C366.88 190.663 366.88 190.732 366.904 190.779C366.996 191.333 367.088 192.187 366.927 193.204H366.904C366.742 194.127 366.414 195.008 365.585 196.091C364.919 196.86 366.09 197.956 366.835 197.107C367.135 196.738 367.367 196.369 367.552 196.022C367.668 196.091 367.805 196.137 367.945 196.161V197.155C366.748 198.198 367.065 199.322 367.945 199.764V203.367C367.273 204.034 363.394 207.399 361.283 209.371C360.983 209.232 360.682 209.117 360.358 208.931C360.311 208.931 360.266 208.885 360.197 208.863C360.128 208.816 360.081 208.792 360.035 208.77V208.792C360.035 208.792 360.035 208.77 360.012 208.77C359.86 208.71 358.71 208.061 357.584 207.246H357.56C354.539 204.942 352.137 202.761 350.759 199.095C350.759 199.024 350.736 198.979 350.714 198.91C350.714 198.772 350.663 198.905 350.574 198.033C353.356 195.289 352.897 196.024 357.073 191.567L357.072 191.564ZM383.995 188.125C385.089 188.903 385.48 189.935 384.365 190.826C383.955 191.182 383.994 191.85 384.481 192.142C385.406 192.697 386.007 193.321 386.1 193.827C386.1 193.919 386.145 194.22 385.752 194.682C385.399 195.035 385.41 195.679 385.868 195.952C386.84 196.599 387.441 197.361 387.441 197.915C387.441 199.549 382.48 200.777 380.803 200.939C380.803 200.939 380.803 200.963 380.78 200.963C378.278 201.431 375.574 201.3 375.321 201.424C374.329 201.447 371.682 201.563 370.394 201.032C370.851 200.727 371.418 200.524 371.944 200.361C371.967 200.339 371.989 200.339 372.013 200.339C373.782 199.922 376.367 199.314 376.13 199.37C377.15 199.155 376.848 197.582 375.76 197.799L372.014 198.676C370.835 198.699 370.048 198.654 369.562 198.584V197.96C370.743 197.244 373.008 196.32 375.391 195.651C376.391 195.318 375.933 193.808 374.951 194.082C373.437 194.452 369.623 195.262 368.221 194.566C368.267 194.427 368.313 194.29 368.36 194.151C369.972 193.194 373.656 192.003 373.888 192.003C375.468 191.66 376.781 191.377 376.548 191.426C377.597 191.17 377.215 189.62 376.2 189.833C375.969 189.886 373.725 190.394 373.957 190.341L373.703 190.41C372.524 190.511 370.314 190.778 368.753 190.388V190.249C371.444 189.27 376.006 187.775 379.324 185.516V185.492C379.693 185.239 380.041 184.984 380.341 184.708C381.648 184.475 383.871 184.922 384.343 185.932C384.627 186.646 383.673 186.708 383.673 187.502C383.696 187.756 383.812 187.964 383.997 188.126L383.995 188.125ZM250.582 385.135L246.628 359.779C246.003 355.76 242.603 352.851 238.532 352.851H225.278L219.726 335.069L252.339 337.24C252.524 345.554 252.616 365.599 250.581 385.137L250.582 385.135ZM219.056 352.851C217.939 347.397 218.769 342.038 213.968 335.345V335.322C213.922 335.183 213.876 334.953 213.829 334.676L218.015 334.953L223.59 352.851H219.056ZM180.892 352.827L179.874 345.321C179.296 341.281 180.059 337.448 182.025 334.306C183.76 343.982 185.657 343.936 186.489 343.868C188.181 343.81 189.004 342.246 189.403 340.612C189.842 342.02 190.42 343.43 191.137 344.422C192.42 346.273 193.841 346.271 194.722 345.393C195.393 344.699 195.717 343.337 195.856 341.882C198.126 347.019 199.881 346.273 200.111 346.431C201.88 346.377 202.553 344.93 202.679 343.175C204.289 345.189 206.456 345.023 207.351 343.708C208.044 342.668 208.252 340.705 208.183 338.534C209.786 343.383 208.525 347.059 208.183 352.852C200.03 352.852 189.054 352.836 180.89 352.829L180.892 352.827ZM150.452 450.629L141.871 441.899L152.603 371.372C152.835 371.149 165.434 359.005 164.632 359.779C162.072 376.191 154.461 425.051 150.454 450.629H150.452ZM153.344 460.628C137.682 460.581 138.526 460.727 137.245 460.512C134.309 460.033 132.582 457.789 132.503 457.556C131.967 456.777 131.579 455.966 131.346 455.085C131.346 455.038 131.323 455.015 131.346 454.993C131.182 454.5 131.201 454.192 131.161 453.953C131.382 453.715 141.671 442.621 141.015 443.33L150.152 452.614L150.128 452.798C149.64 455.999 151.093 458.991 153.344 460.628ZM179.295 332.366L181.285 332.505C175.706 340.244 179.095 348.389 179.25 352.827H171.663L172.356 345.621C172.865 340.426 175.502 335.692 179.295 332.366ZM182.418 320.265C182.418 320.243 182.442 320.243 182.442 320.218C182.534 320.102 182.627 319.988 182.719 319.872C182.719 319.85 182.742 319.825 182.742 319.825C182.789 319.779 182.811 319.733 182.858 319.686C183.225 318.596 188.091 314.792 189.219 314.353C189.312 314.283 189.404 314.237 189.496 314.19C189.52 314.19 189.52 314.168 189.542 314.168C189.64 314.119 190.388 313.717 190.491 313.684C190.685 313.49 193.101 312.573 193.983 312.252C193.983 312.252 194.007 312.252 194.029 312.229C195.355 311.766 197.431 311.254 198.423 311.073C204.638 316.444 209.081 324.6 211.491 332.413C210.034 330.958 208.392 329.665 206.611 328.602L203.166 324.884C202.488 324.104 201.236 325.162 201.987 325.97L202.704 326.755H202.727L205.503 329.757C205.529 329.993 207.586 340.47 206.012 342.805C205.872 343.013 205.757 343.036 205.711 343.036C203.877 343.443 202.482 339.841 202.218 337.793C202.053 336.744 200.544 336.929 200.599 337.978C200.78 339.872 201.525 343.536 200.646 344.56C200.479 344.769 200.266 344.815 199.998 344.815C198.749 344.815 196.76 340.496 195.672 336.408C195.604 336.155 195.441 335.969 195.233 335.877C194.998 335.783 194.984 335.822 194.747 335.807C194.307 335.899 194.03 336.269 194.077 336.707C194.767 342.438 193.931 347.413 191.625 341.995C190.677 339.708 189.891 336.429 189.751 335.206V335.114C189.642 334.086 188.133 334.097 188.133 335.23C188.261 337.057 188.111 342.25 186.445 342.25C186.421 342.25 184.895 341.973 183.368 332.644C183.368 332.597 183.345 332.552 183.345 332.482C183.253 331.997 183.206 331.513 183.113 330.981C181.998 323.215 181.999 321.779 182.42 320.266L182.418 320.265ZM207.629 332.62C207.56 332.088 207.468 331.626 207.397 331.188C208.091 331.696 208.785 332.227 209.409 332.759L207.628 332.62H207.629ZM181.47 330.888L181.192 330.866C181.261 330.819 181.354 330.75 181.446 330.703C181.446 330.773 181.47 330.819 181.47 330.888ZM208.069 334.306L211.214 334.491C217.258 341.528 216.25 347.205 217.39 352.851H209.804C209.881 348.188 212.36 341.431 208.069 334.306ZM159.357 296.364C168.501 309.421 179.006 322.295 179.827 323.985C179.827 323.999 179.835 324.015 179.851 324.031V324.078C180.036 324.586 180.36 325.002 180.799 325.302C181.026 327.444 181.152 328.28 181.239 328.951C180.383 329.459 179.552 330.059 178.764 330.704C178.53 330.689 157.154 329.252 158.502 329.343L159.359 296.366L159.357 296.364ZM152.743 354.466C153.085 354.466 168.156 354.466 167.8 354.466L167.639 354.605C167.547 354.697 167.431 354.789 167.339 354.928C167.287 354.928 163.417 358.705 163.453 358.67L152.096 369.615L146.336 358.253V358.231C146.405 358.092 146.498 357.954 146.591 357.837C146.63 357.68 147.095 357.127 147.216 357.006C147.314 356.715 148.855 355.263 150.848 354.719C151.449 354.558 152.097 354.466 152.744 354.466H152.743ZM160.283 460.628C160.05 460.628 157.991 460.628 158.224 460.628C158.155 460.628 158.085 460.628 158.016 460.604C153.985 460.503 151.164 456.69 151.702 453.469C151.747 452.833 156.754 420.837 156.79 420.607L156.813 420.585C167.139 354.335 166.095 358.435 167.985 356.546C168.073 356.374 169.008 355.535 169.812 355.161C169.836 355.138 169.881 355.138 169.905 355.114C172.126 354.057 173.362 354.635 179.48 354.467L182.14 373.75C180.128 374.397 178.647 376.29 178.647 378.508C178.647 381.303 180.914 383.543 183.666 383.543C186.419 383.543 188.709 381.303 188.709 378.508C188.709 375.713 186.511 373.543 183.737 373.496L181.124 354.467C183.024 354.467 208.743 354.467 208.023 354.467C209.611 354.467 217.863 354.467 217.622 354.467L220.305 373.865C218.432 374.605 217.137 376.405 217.137 378.508C217.137 381.303 219.38 383.543 222.156 383.543C227.266 383.543 229.169 376.737 224.655 374.142C223.914 373.728 223.059 373.496 222.156 373.496C222.064 373.496 221.971 373.496 221.879 373.518L219.266 354.466C219.97 354.466 226.075 354.466 225.765 354.466H238.532C241.793 354.466 244.522 356.799 245.032 360.032C264.827 486.998 258.099 443.847 259.534 453.052C259.835 454.899 259.303 456.817 258.1 458.247C258.077 458.271 258.055 458.318 258.031 458.34C257.662 458.779 257.245 459.148 256.782 459.448C255.695 460.211 254.399 460.626 253.035 460.626H209.899C208.721 460.626 159.032 460.626 160.285 460.626L160.283 460.628ZM481.188 218.146C490.417 248.606 488.936 280.799 486.416 313.845C485.445 326.753 484.312 339.94 482.599 353.104H466.523V323.567C466.523 323.105 466.154 322.759 465.714 322.759H446.724V222.649C446.724 222.188 446.354 221.843 445.914 221.843H437.148C436.686 221.843 436.339 222.188 436.339 222.649V249.438H408.028C407.635 249.438 407.288 249.715 407.219 250.108L396.949 305.025H359.433V252.903C359.433 252.464 359.085 252.095 358.623 252.095H347.614C347.174 252.095 346.805 252.465 346.805 252.903V363.359H322.702V293.616C322.702 293.155 322.355 292.81 321.916 292.81H277.739V257.038C287.084 260.964 296.706 264.544 300.845 266.068C305.171 267.661 309.935 267.384 313.868 265.283C337.946 252.489 359.434 223.229 367.622 211.151C367.738 211.082 367.854 210.99 367.946 210.851V274.612C367.946 278.77 371.346 282.163 375.509 282.163C379.672 282.163 383.073 278.77 383.073 274.612V202.169C385.511 201.584 389.005 200.418 389.063 197.919C389.063 196.742 388.207 195.748 387.421 195.102C388.182 193.641 387.425 192.328 386.126 191.315C387.043 189.965 386.71 188.543 385.617 187.412C386.811 185.622 385.213 183.844 383.073 183.302V158.985H445.64C462.132 175.774 474.575 196.234 481.191 218.15L481.188 218.146ZM272.74 37.2996C272.74 33.2341 276.07 29.9093 280.164 29.9093H478.92C483.014 29.9093 486.322 33.2341 486.322 37.2996V149.972C486.322 154.037 483.014 157.361 478.92 157.361H280.164C276.07 157.361 272.74 154.037 272.74 149.972V37.2996ZM108.241 175.189H99.1069C101.604 172.303 104.31 169.486 107.176 166.74C108.437 169.467 108.747 172.51 108.241 175.189ZM12.9219 169.996C12.9219 160.897 20.0233 153.461 29.1131 153.022H29.182C29.1931 153.022 29.2027 153.015 29.2138 153.012C31.5372 152.906 33.9131 153.292 36.1015 154.14C36.198 154.178 36.2986 154.193 36.3952 154.193C36.7178 154.193 37.0253 153.999 37.1494 153.68C37.3121 153.263 37.1039 152.796 36.6889 152.634C34.5322 151.798 32.2184 151.4 29.9225 151.401C29.9225 151.395 29.9225 151.389 29.9225 151.382V151.105C29.9225 138.266 40.3775 127.827 53.2373 127.827C62.9517 127.827 71.7409 133.948 75.0945 143.047C75.0972 143.054 75.1055 143.057 75.1083 143.062C75.6502 144.536 76.0432 146.064 76.2776 147.613C76.3369 148.015 76.6816 148.301 77.0773 148.301C77.116 148.301 77.1559 148.298 77.1973 148.291C77.6399 148.225 77.9447 147.814 77.8771 147.373C77.673 146.009 77.3228 144.666 76.8926 143.353C76.9022 143.353 76.9119 143.347 76.9215 143.346C77.8702 143.138 78.841 143.046 79.7897 143.046C89.8337 143.046 96.5394 153.122 93.3279 162.162C92.9707 163.174 94.4986 163.71 94.8543 162.703C95.3425 161.325 95.5824 159.884 95.6762 158.42C95.6927 158.423 95.7093 158.423 95.7258 158.424C100.283 158.932 104.955 163.02 107.175 166.738C103.799 169.946 101.996 171.77 99.1055 175.187H13.7533C13.199 173.48 12.9219 171.726 12.9219 169.994V169.996ZM87.4234 287.334C83.7913 280.06 80.0213 272.532 77.5241 264.725C68.8907 237.785 75.0076 203.736 97.717 176.809C97.9486 176.809 118.075 176.804 116.793 176.804C117.864 176.804 117.862 175.189 116.793 175.189H109.883C110.429 171.825 109.876 168.496 108.402 165.585C129.098 146.442 162.072 128.454 206.82 119.652C217.436 117.527 228.608 115.91 240.336 114.825C240.729 114.757 241.145 114.733 241.538 114.71C251.044 113.809 260.921 113.255 271.121 113.025V149.974C271.121 154.938 275.168 158.98 280.166 158.98H367.943V181.542C364.758 183.291 359.335 187.116 357.766 188.563C357.072 189.186 356.563 189.763 355.892 190.479C355.035 191.379 353.972 192.534 351.959 194.496C350.988 194.612 350.201 195.004 349.646 195.675C349.631 195.689 349.623 195.705 349.623 195.722L306.879 227.151L266.148 198.423C259.625 194.474 250.141 191.148 238.739 188.769C236.195 188.238 233.535 187.776 230.806 187.339V183.228C231.362 183.067 232.008 182.857 232.494 182.72C245.719 178.823 243.423 157.794 242.347 144.061C241.448 133.021 242.114 124.968 238.855 122.952C237.86 122.352 236.75 122.421 235.431 122.86H235.407C234.366 123.206 233.209 123.784 231.891 124.431C229.74 125.47 227.08 126.763 223.911 127.571C211.26 130.761 202.516 141.895 202.516 154.36C202.516 158.231 207.385 175.077 205.592 186.645C197.204 187.078 184.738 188.2 178.276 193.041C166.162 201.233 146.536 225.177 140.157 243.131C137.867 249.881 137.656 255.054 140.297 262.184C140.297 262.231 140.32 262.276 140.365 262.345C143.603 272.022 150.565 283.569 157.806 294.098L157.25 315.83H128.083V258.05C128.083 257.588 127.736 257.241 127.274 257.241H111.662C111.222 257.241 110.853 257.588 110.853 258.05V315.83H98.9401C96.6635 305.852 92.0965 296.67 87.422 287.333L87.4234 287.334ZM17.6626 457.972C16.6918 456.262 15.7666 454.508 14.9558 452.729C14.2153 451.09 13.5451 449.45 12.9439 447.787C12.4585 446.494 12.0656 445.2 11.6946 443.884C6.48783 424.808 11.3292 403.328 25.6644 390.538C34.5984 382.63 46.1607 378.064 57.2141 373.542L57.2375 373.518C59.1335 372.734 61.0543 371.971 62.9738 371.186L62.9972 371.163C79.3484 364.451 94.8116 355.929 99.1497 338.948C100.973 331.66 100.74 324.809 99.2655 317.448H111.663C112.127 317.448 112.473 317.077 112.473 316.64V258.859H126.466V316.64C126.466 317.079 126.836 317.448 127.275 317.448H157.228C157.221 317.685 156.834 330.95 156.859 330.103C156.859 330.542 157.228 330.888 157.645 330.911L159.448 331.027C157.467 337.274 159.622 346.566 161.576 352.827H152.74C148.576 352.827 144.573 355.862 143.904 360.426L132.963 430.4L117.397 436.796C115.639 437.536 114.552 439.268 114.668 441.139L113.674 441.347L113.628 441.001C113.512 439.938 112.75 439.085 111.709 438.853C105.857 437.613 89.5772 434.618 86.2885 439.547C80.737 447.907 75.0007 480.607 74.5622 499.752C45.3209 490.273 26.9206 474.175 17.6626 457.976V457.972ZM82.0332 510.856C81.5423 508.891 81.3327 505.653 81.2927 503.465H81.2693V503.443C81.2693 503.443 81.2692 503.42 81.2927 503.42C80.9507 495.575 82.1752 483.593 83.2825 475.824C83.2825 475.732 83.3059 475.64 83.3294 475.548C83.6534 473.353 84.0009 471.137 84.3704 468.965C84.5318 468.065 84.6945 467.187 84.8558 466.333C85.1095 464.948 85.3881 463.585 85.6652 462.246C87.1186 455.393 89.9178 444.162 93.9925 438.459C100.029 438.228 108.125 439.752 111.386 440.445C111.734 440.515 111.987 440.815 112.011 441.161C112.036 441.392 112.175 442.685 112.15 442.453L112.242 443.262C114.587 466.227 115.284 465.598 113.769 469.634C112.797 472.129 110.97 474.253 108.518 475.615L99.7288 480.489C98.1693 481.341 97.768 482.513 97.346 483.559C94.9412 479.979 91.4939 481.042 91.4484 481.042C90.4363 481.379 90.9548 482.906 91.9572 482.59C92.2578 482.497 94.8723 481.827 96.5601 485.453C96.0512 486.723 95.4955 487.993 94.9412 489.288C93.1831 487.001 89.7372 487.023 89.5979 487.048C88.5692 487.048 88.5486 488.664 89.6214 488.664H89.6448C89.7841 488.687 93.23 488.618 94.1083 491.135C92.0262 495.674 89.5221 500.665 86.7987 504.853C86.7987 504.876 86.7987 504.9 86.7753 504.9C85.1564 507.416 83.5376 509.472 82.0332 510.858V510.856ZM136.968 510.255C119.413 508.894 103.846 507.115 89.3897 503.812C92.5943 498.481 95.8734 491.354 98.2024 485.707C98.2258 485.685 98.2258 485.66 98.2258 485.66C99.0738 483.571 99.3055 482.587 100.516 481.896L109.305 477.023C112.613 475.199 114.926 472.104 115.806 468.57L119.622 466.56C120.723 468.758 122.482 470.958 124.919 470.601C136.022 469.332 150.061 466.374 164.702 462.241H210.638C218.34 479.007 225.857 496.305 232.519 513.833C200.668 513.624 168.633 512.725 136.969 510.254L136.968 510.255ZM234.853 515.475C229.493 501.803 225.64 491.226 212.417 462.243H253.033C254.559 462.243 256.017 461.828 257.288 461.066L273.711 513.788C273.665 513.788 273.642 513.788 273.595 513.81C271.695 513.949 268.548 514.514 266.008 515.403C265.963 515.426 265.892 515.426 265.847 515.473H263.973C263.95 515.473 263.926 515.495 263.881 515.495H265.777C264.577 515.812 261.872 517.008 259.671 518.428C249.762 524.785 246.225 535.268 245.538 546.901C245.169 545.632 244.774 544.385 244.381 543.114V543.045C244.381 543.03 244.374 543.014 244.358 542.998C241.608 534.079 238.143 524.184 234.875 515.494C234.852 515.494 234.852 515.472 234.852 515.472L234.853 515.475ZM247.343 544.503C248.546 530.946 254.745 521.433 264.876 517.414C280.024 572.263 266.476 523.206 272.371 544.549C270.797 544.595 269.202 544.988 267.722 545.704L251.947 553.279C251.422 552.276 247.066 543.97 247.345 544.502L247.343 544.503ZM250.142 558.198C250.097 557.158 250.535 556.166 251.299 555.519C251.508 555.311 251.761 555.148 252.016 555.034L252.688 554.71L268.416 547.159C269.803 546.488 271.307 546.166 272.81 546.143H272.926C273.459 546.143 273.991 546.19 274.522 546.259C276.28 546.535 277.991 547.251 279.425 548.43L289.648 556.674C290.695 557.526 291.607 557.527 292.956 557.597C290.343 560.992 292.401 563.902 292.424 563.948C292.586 564.158 292.841 564.272 293.094 564.272C293.782 564.272 294.106 563.498 293.742 563.003C293.673 562.887 292.031 560.555 295.037 557.737C296.216 557.829 297.628 557.944 299.2 558.082C297.558 560.438 298.645 563.648 298.715 563.833C298.831 564.156 299.155 564.364 299.479 564.364C300.041 564.364 300.441 563.79 300.243 563.278C300.243 563.256 299.086 559.93 301.191 558.29C308.778 559.121 318.701 560.692 323.744 563.555C312.483 570.521 267.769 578.637 252.78 573.877C251.233 570.01 250.38 562.866 250.144 558.196L250.142 558.198ZM366.509 587.642C364.635 587.642 362.763 587.642 360.82 587.619C329.907 591.368 228.189 591.3 199.396 587.458C191.601 587.573 183.945 587.642 176.635 587.642C127.623 587.642 92.0027 585.286 87.7005 583.023C92.0027 580.736 127.623 578.404 176.635 578.404C179.55 578.404 182.44 578.404 185.285 578.426C185.517 578.426 185.725 578.334 185.863 578.173C185.979 578.057 186.048 577.92 186.071 577.781C188.246 575.839 213.527 573.809 250.835 573.185C251.566 575.791 253.446 580.065 256.201 580.829C258.191 581.383 261.128 581.613 264.713 581.613C278.799 581.613 302.762 577.849 316.849 573.601C344.674 574.478 362.739 576.164 364.566 577.781C364.659 578.126 364.959 578.404 365.352 578.404H366.509C415.521 578.404 451.142 580.736 455.444 583.023C451.142 585.286 415.521 587.642 366.509 587.642Z" fill="black"/>
<path d="M208.632 155.775C208.235 154.594 208.685 153.839 209.75 153.594C210.186 153.503 210.466 153.078 210.378 152.643C210.108 151.298 207.933 152.326 207.235 153.536C206.789 154.313 206.74 155.241 207.1 156.294C207.439 157.305 208.977 156.788 208.632 155.775Z" fill="black"/>
<path d="M232.66 164.679C232.681 164.679 232.7 164.679 232.721 164.676C234.763 164.525 236.108 163.779 236.01 161.778C235.915 159.693 235.585 157.594 235.032 155.544C234.751 154.509 233.19 154.937 233.469 155.964C233.993 157.901 234.301 159.881 234.392 161.853C234.414 162.361 234.363 162.523 234.126 162.68C233.918 162.821 233.485 162.998 232.6 163.066C232.154 163.097 231.821 163.486 231.854 163.932C231.886 164.356 232.24 164.678 232.66 164.678V164.679Z" fill="black"/>
<path d="M229.59 170.094C229.331 169.733 228.825 169.649 228.463 169.909C228.099 170.168 228.014 170.673 228.273 171.037C228.318 171.1 229.393 172.575 231.296 172.86C231.511 172.891 231.723 172.906 231.937 172.906C233.087 172.906 234.259 172.453 235.428 171.553C236.278 170.905 235.293 169.619 234.444 170.273C233.423 171.06 232.454 171.396 231.552 171.263C230.344 171.092 229.609 170.124 229.59 170.094Z" fill="black"/>
<path d="M206.309 124.809C210.115 124.809 213.771 126.063 216.598 128.339C217.425 129.001 218.449 127.752 217.614 127.08C214.496 124.575 210.483 123.195 206.308 123.195C205.861 123.195 205.5 123.556 205.5 124.002C205.5 124.448 205.861 124.809 206.308 124.809H206.309Z" fill="black"/>
<path d="M206.309 124.809C210.115 124.809 213.771 126.063 216.598 128.339C217.425 129.001 218.449 127.752 217.614 127.08C214.496 124.575 210.483 123.195 206.308 123.195C205.861 123.195 205.5 123.556 205.5 124.002C205.5 124.448 205.861 124.809 206.308 124.809H206.309Z" fill="white" fill-opacity="0.15"/>
<path d="M198.957 439.936C199.93 439.936 198.634 440.993 219.195 404.719C219.733 403.806 218.347 402.977 217.785 403.933L198.24 438.735C197.968 439.246 198.284 439.936 198.957 439.936Z" fill="black"/>
<path d="M196.782 418.547C200.391 418.547 203.328 415.615 203.328 412.012C203.328 408.409 200.391 405.453 196.782 405.453C193.173 405.453 190.213 408.386 190.213 412.012C190.213 415.638 193.15 418.547 196.782 418.547ZM196.782 407.047C199.511 407.047 201.732 409.287 201.732 412.012C201.732 414.736 199.512 416.931 196.782 416.931C194.052 416.931 191.832 414.736 191.832 412.012C191.832 409.287 194.052 407.047 196.782 407.047Z" fill="black"/>
<path d="M215.264 429.727C215.264 433.328 218.201 436.261 221.833 436.261C225.21 436.261 227.986 433.697 228.355 430.419V430.397C228.379 430.166 228.379 429.958 228.379 429.727C228.379 429.103 228.286 428.526 228.125 427.971C228.125 427.949 228.101 427.925 228.101 427.903C227.337 425.177 224.817 423.168 221.833 423.168C218.201 423.168 215.264 426.1 215.264 429.727ZM221.833 424.786C224.562 424.786 226.76 427.002 226.76 429.728C226.76 432.454 224.562 434.647 221.833 434.647C219.104 434.647 216.883 432.453 216.883 429.728C216.883 427.004 219.103 424.786 221.833 424.786Z" fill="black"/>
<path d="M230.327 158.165C230.327 157.265 229.601 156.516 228.675 156.516C227.748 156.516 227.021 157.266 227.021 158.165C227.021 159.064 227.773 159.814 228.675 159.814C229.577 159.814 230.327 159.089 230.327 158.165Z" fill="black"/>
<path d="M224.815 156.242C225.133 156.242 225.435 156.052 225.565 155.74C226.216 154.152 228.047 153.39 229.649 154.04C230.635 154.443 231.256 152.951 230.259 152.542C227.835 151.559 225.052 152.715 224.065 155.131C223.848 155.66 224.237 156.244 224.815 156.244V156.242Z" fill="black"/>
<path d="M528.23 551.804H516.184C516.102 550.884 516.086 549.981 515.767 548.427C513.52 536.965 503.23 535.017 498.814 540.805C498.854 533.887 496.238 523.644 489.84 520.946C485.648 519.135 479.426 520.261 473.925 527.55C474.25 522.885 472.029 517.874 467.935 515.148C459.776 509.659 447.056 513.098 442.215 524.963C442.307 524.317 442.423 523.67 442.492 523.023C443.093 518.543 442.283 515.24 440.109 513.185C437.865 511.084 434.141 510.598 430.603 511.961C425.676 513.832 421.745 518.843 420.333 524.986C419.615 528.057 419.523 531.175 419.684 534.062C414.858 528.18 404.048 531.548 403.377 543.3C403.227 546.415 403.765 549.023 404.281 551.804H391.367C390.296 551.804 390.298 553.419 391.367 553.419H528.229C528.675 553.419 529.037 553.058 529.037 552.612C529.037 552.166 528.675 551.805 528.229 551.805L528.23 551.804ZM408.768 534.731C411.266 532.607 415.013 532.283 417.325 534.015C418.736 535.055 419.684 536.763 420.193 539.189C420.415 540.243 421.947 539.912 421.789 538.912C421.28 535.101 420.818 530.113 421.904 525.355C424.559 513.806 434.84 510.476 438.998 514.363C440.779 516.025 441.402 518.865 440.894 522.815C440.587 525.559 439.537 529.305 440.501 532.793C440.701 533.588 442.017 533.587 442.074 532.63C442.514 526.234 445.567 520.438 450.238 517.135C455.374 513.555 462.267 513.279 467.031 516.489C472.05 519.837 473.877 527.067 470.94 531.939C470.375 532.842 471.772 533.646 472.305 532.794C474.317 529.7 476.376 526.49 479.336 524.272C481.812 522.401 485.697 520.922 489.212 522.424C491.64 523.464 493.607 525.843 495.064 529.514C497.054 534.479 497.677 540.067 496.822 545.357C496.776 545.565 496.73 545.749 496.707 545.957C496.538 547.016 498.132 547.251 498.302 546.234C498.347 546.049 498.371 545.865 498.394 545.657C500.438 535.75 513.656 536.998 514.562 551.8H405.944C405.366 549.074 404.857 546.212 404.995 543.393C405.203 539.768 406.568 536.605 408.765 534.734L408.768 534.731Z" fill="black"/>
<path d="M101.665 558.259H112.03C112.477 558.259 112.838 557.898 112.838 557.452C112.838 557.006 112.477 556.645 112.03 556.645H102.389C102.145 553.249 101.215 549.843 98.758 547.461C96.7462 545.544 94.0159 544.735 91.6111 545.335C90.3163 545.682 89.1594 546.398 88.281 547.437C88.2341 544.25 87.6109 541.064 86.4539 538.131C82.564 528.42 73.8865 529.156 68.0661 536.63C68.397 523.315 49.3377 519.728 42.4375 533.881C42.9422 530.879 42.7547 527.404 40.5181 525.313C35.554 520.665 22.9479 525.517 23.6333 541.941C20.0908 537.764 10.9693 539.924 10.426 549.885C10.3102 552.169 10.6797 554.475 11.1182 556.645H0.80253C-0.268888 556.645 -0.266131 558.26 0.80253 558.26C1.0397 558.26 12.8432 558.268 12.1138 558.268C34.5019 558.267 79.2781 558.263 101.665 558.26V558.259ZM12.0435 549.953C12.1827 547.066 13.2928 544.527 15.0509 543.025C17.0172 541.363 19.9777 541.085 21.8048 542.448C22.9148 543.28 23.6788 544.643 24.0718 546.582C24.2979 547.603 25.8271 547.316 25.6672 546.306C25.2507 543.211 24.8812 539.169 25.7595 535.336C27.8941 526.051 36.1373 523.404 39.4067 526.49C40.8173 527.806 41.3261 530.07 40.9097 533.21C40.5277 536.003 39.8521 538.681 40.5857 541.385C40.7801 542.164 42.0666 542.2 42.1811 541.224C42.5286 536.052 44.9803 531.409 48.7502 528.754C52.7753 525.913 58.4413 525.682 62.2112 528.222C66.2363 530.9 67.6924 536.674 65.3345 540.554C65.1028 540.946 65.2421 541.431 65.6116 541.662C65.9812 541.893 66.4679 541.778 66.7217 541.409C68.3405 538.914 70.0062 536.327 72.389 534.55C74.8642 532.657 77.9626 532.078 80.253 533.049C82.1959 533.881 83.7692 535.797 84.9482 538.729C86.5436 542.748 87.0303 547.251 86.3588 551.524C86.3133 551.685 86.2899 551.847 86.2664 552.032C86.1051 553.052 87.6977 553.328 87.8618 552.285C88.2948 549.268 90.1233 547.384 92.0027 546.905C95.2377 546.088 99.333 548.491 100.468 554.317C100.606 555.03 100.698 555.791 100.768 556.644H12.7591C12.3206 554.474 11.9276 552.191 12.0435 549.953Z" fill="black"/>
</svg>
