<svg width="185" height="24" viewBox="0 0 185 24" fill="none" xmlns="http://www.w3.org/2000/svg">
<g filter="url(#filter0_dd_826_1450)">
<path d="M47 18.1252L46.9378 19.6239L47 18.1252ZM89.5 4.62512L89.5378 6.12465L89.5 4.62512ZM128 18.1251V19.6251V18.1251ZM185 8.12502L169.704 -0.000195503L170.315 17.3095L185 8.12502ZM0 4.62512V6.12512C12.9591 6.12512 21.0722 9.27498 27.6633 12.5097C34.1766 15.7062 39.7102 19.3241 46.9378 19.6239L47 18.1252L47.0622 16.6265C40.6541 16.3607 35.9377 13.2287 28.985 9.8165C22.11 6.44252 13.5409 3.12512 0 3.12512V4.62512ZM47 18.1252L46.9378 19.6239C55.1276 19.9636 62.2114 16.4882 68.9226 13.102C75.7473 9.65838 82.1876 6.31009 89.5378 6.12465L89.5 4.62512L89.4622 3.1256C81.3128 3.3312 74.2487 7.05424 67.5711 10.4236C60.78 13.8503 54.3637 16.9294 47.0622 16.6265L47 18.1252ZM89.5 4.62512L89.5378 6.12465C96.583 5.9469 102.094 9.08389 107.992 12.528C113.802 15.921 120.003 19.6251 128 19.6251V18.1251V16.6251C120.936 16.6251 115.416 13.3893 109.505 9.93738C103.681 6.53651 97.4727 2.9235 89.4622 3.1256L89.5 4.62512ZM128 18.1251V19.6251C136.545 19.6251 141.25 17.6467 146.874 15.5115C152.402 13.4129 159.013 11.0773 171.627 10.0971L171.51 8.60162L171.394 7.10613C158.413 8.11482 151.515 10.5409 145.809 12.7068C140.2 14.8362 135.947 16.6251 128 16.6251V18.1251Z" fill="#FFF5ED"/>
</g>
<defs>
<filter id="filter0_dd_826_1450" x="0" y="0" width="185" height="23.647" filterUnits="userSpaceOnUse" color-interpolation-filters="sRGB">
<feFlood flood-opacity="0" result="BackgroundImageFix"/>
<feColorMatrix in="SourceAlpha" type="matrix" values="0 0 0 0 0 0 0 0 0 0 0 0 0 0 0 0 0 0 127 0" result="hardAlpha"/>
<feOffset dy="4"/>
<feComposite in2="hardAlpha" operator="out"/>
<feColorMatrix type="matrix" values="0 0 0 0 0.52549 0 0 0 0 0.898039 0 0 0 0 0.290196 0 0 0 1 0"/>
<feBlend mode="normal" in2="BackgroundImageFix" result="effect1_dropShadow_826_1450"/>
<feColorMatrix in="SourceAlpha" type="matrix" values="0 0 0 0 0 0 0 0 0 0 0 0 0 0 0 0 0 0 127 0" result="hardAlpha"/>
<feOffset dy="3"/>
<feComposite in2="hardAlpha" operator="out"/>
<feColorMatrix type="matrix" values="0 0 0 0 0.137255 0 0 0 0 0.121569 0 0 0 0 0.12549 0 0 0 1 0"/>
<feBlend mode="normal" in2="effect1_dropShadow_826_1450" result="effect2_dropShadow_826_1450"/>
<feBlend mode="normal" in="SourceGraphic" in2="effect2_dropShadow_826_1450" result="shape"/>
</filter>
</defs>
</svg>
