<svg width="111" height="11" viewBox="0 0 111 11" fill="none" xmlns="http://www.w3.org/2000/svg">
<path d="M39.8494 3.58664L39.5451 3.98337V3.98337L39.8494 3.58664ZM64.6856 5.44846L64.3572 5.07142L64.6856 5.44846ZM110.028 3.88589C110.193 3.66467 110.148 3.35135 109.926 3.18608L106.321 0.492722C106.1 0.327445 105.787 0.372794 105.622 0.594014C105.456 0.815233 105.502 1.12855 105.723 1.29383L108.927 3.68792L106.533 6.89234C106.368 7.11356 106.413 7.42688 106.635 7.59216C106.856 7.75743 107.169 7.71208 107.334 7.49087L110.028 3.88589ZM0.127197 4.52993L-4.30644e-06 5.01348C10.956 7.89554 17.8996 5.2253 23.5979 3.0774C26.4516 2.00172 28.9242 1.08765 31.4466 1.00591C33.9349 0.925277 36.5122 1.65699 39.5451 3.98337L39.8494 3.58664L40.1537 3.18991C36.9646 0.743712 34.1657 -0.0827265 31.4142 0.00643334C28.6971 0.0944839 26.0666 1.07815 23.2452 2.14167C17.5931 4.27215 10.8975 6.84613 0.254399 4.04638L0.127197 4.52993ZM39.8494 3.58664L39.5451 3.98337C44.254 7.59538 48.3495 10.0562 52.4219 10.5986C56.5393 11.1471 60.5354 9.7263 65.014 5.8255L64.6856 5.44846L64.3572 5.07142C60.0182 8.85062 56.2989 10.1062 52.554 9.60738C48.764 9.10256 44.8502 6.79245 40.1537 3.18991L39.8494 3.58664ZM64.6856 5.44846L65.014 5.8255C66.6775 4.37665 68.4742 3.77982 70.7061 3.64472C72.9676 3.50783 75.6398 3.84548 79.0544 4.25686C85.8633 5.07719 95.3854 6.15321 109.699 4.08147L109.627 3.58663L109.556 3.09178C95.369 5.14515 85.9473 4.08008 79.174 3.26404C75.7974 2.85724 73.0189 2.50289 70.6456 2.64655C68.2428 2.792 66.2208 3.44826 64.3572 5.07142L64.6856 5.44846Z" fill="url(#paint0_linear_288_1382)"/>
<defs>
<linearGradient id="paint0_linear_288_1382" x1="-7.35972" y1="6.17165" x2="79.8226" y2="6.17165" gradientUnits="userSpaceOnUse">
<stop stop-opacity="0"/>
<stop offset="1"/>
</linearGradient>
</defs>
</svg>
