<svg width="106" height="30" viewBox="0 0 106 30" fill="none" xmlns="http://www.w3.org/2000/svg">
<path d="M49.5 3.27799L49.1527 3.63771L49.5 3.27799ZM105.5 17.778L100.5 14.8912V20.6648L105.5 17.778ZM1 26.7781L0.788833 27.2313C4.78942 29.0953 10.8509 29.4648 17.3768 28.7814C23.9225 28.096 31.0176 26.3424 37.1358 23.8833C43.2357 21.4315 48.4408 18.2481 51.1246 14.6583C52.4743 12.8531 53.2095 10.913 53.0574 8.89745C52.9052 6.88054 51.8709 4.87189 49.8473 2.91827L49.5 3.27799L49.1527 3.63771C51.0536 5.47281 51.9314 7.26575 52.0602 8.97269C52.1891 10.681 51.5742 12.387 50.3237 14.0595C47.8074 17.4252 42.8126 20.5238 36.7628 22.9554C30.7312 25.3797 23.7267 27.111 17.2727 27.7868C10.7988 28.4647 4.96058 28.0719 1.21117 26.3249L1 26.7781ZM49.5 3.27799L49.8473 2.91827C47.2304 0.391949 44.482 0.0057379 42.3193 1.01801C40.1933 2.01309 38.7589 4.30614 38.6257 6.88194C38.4912 9.48056 39.6746 12.3556 42.7392 14.5607C45.7916 16.7569 50.6891 18.278 58 18.278V17.778V17.278C50.8109 17.278 46.1459 15.7799 43.3233 13.7489C40.5129 11.7268 39.5088 9.16674 39.6243 6.93361C39.7411 4.67766 40.9942 2.74234 42.7432 1.92371C44.4555 1.12228 46.7696 1.33705 49.1527 3.63771L49.5 3.27799ZM58 17.778V18.278C69.2085 18.278 91.4712 18.278 101.001 18.278V17.778V17.278C91.4712 17.278 69.2085 17.278 58 17.278V17.778Z" fill="url(#paint0_linear_2731_4367)"/>
<defs>
<linearGradient id="paint0_linear_2731_4367" x1="1" y1="10.8891" x2="105.5" y2="10.8891" gradientUnits="userSpaceOnUse">
<stop stop-color="white" stop-opacity="0"/>
<stop offset="1" stop-color="white"/>
</linearGradient>
</defs>
</svg>
