<svg width="182" height="50" viewBox="0 0 182 50" fill="none" xmlns="http://www.w3.org/2000/svg">
<path d="M179.093 1.00949H3.02854C1.89996 1.00949 0.999722 2.06628 0.999722 3.35043V46.7902C0.999722 48.0743 1.89996 49.1311 3.02854 49.1311H179.093C180.221 49.1311 181.121 48.0743 181.121 46.7902V3.35043C181.121 2.06628 180.221 1.00949 179.093 1.00949Z" fill="#212121" stroke="#C6C5C5" stroke-width="0.121649"/>
<path d="M52.3036 13.418C57.9883 13.418 63.5606 16.766 63.5606 24.2483C63.5606 31.7308 63.5383 25.7538 63.471 26.4054C63.471 26.5627 63.336 26.6751 63.1786 26.6751H47.2252C47.6972 29.349 49.5621 31.1016 52.4833 31.1016C55.4041 31.1016 55.6737 30.0231 56.3481 28.7423C56.4377 28.585 56.6177 28.4951 56.7973 28.5401L62.7744 29.8433C62.954 29.8882 63.044 30.068 62.9767 30.2477C61.5834 33.416 58.4153 36.5393 52.4606 36.5393C46.5062 36.5393 40.4844 31.4386 40.4844 24.9898C40.4844 18.5411 44.821 13.4404 52.3259 13.4404L52.3036 13.418ZM56.8874 22.5856C56.595 20.0465 54.8875 18.6758 52.4383 18.6758C49.9891 18.6758 47.8545 20.3386 47.3375 22.5856H56.8874Z" fill="white"/>
<path d="M65.6055 35.5496V14.4057C65.6055 14.2484 65.7405 14.1136 65.8974 14.1136H72.0991C72.2564 14.1136 72.3915 14.2484 72.3915 14.4057V16.9223C73.8744 14.5854 76.0762 13.4395 78.9301 13.4395C83.0868 13.4395 86.6597 16.2931 86.6597 22.6521V35.5721C86.6597 35.7294 86.5246 35.8642 86.3673 35.8642H80.166C80.0087 35.8642 79.8737 35.7294 79.8737 35.5721V23.6407C79.8737 20.7871 78.3908 19.2142 76.2335 19.2142C74.0767 19.2142 72.4138 20.7421 72.4138 24.2249V35.5721C72.4138 35.7294 72.2791 35.8642 72.1218 35.8642H65.9201C65.7628 35.8642 65.6278 35.7294 65.6278 35.5721L65.6055 35.5496Z" fill="white"/>
<path d="M87.0853 14.0918H93.6689C93.8035 14.0918 93.9159 14.1817 93.9382 14.2941L98.8816 30.6969L103.825 14.2941C103.87 14.1817 103.982 14.0918 104.095 14.0918H110.678C110.881 14.0918 111.015 14.2941 110.948 14.4738L103.376 35.5504C103.308 35.7077 103.173 35.82 102.994 35.82H94.7471C94.5675 35.82 94.4102 35.7077 94.3651 35.5504L86.7929 14.4738C86.7256 14.2941 86.8602 14.0918 87.0626 14.0918H87.0853Z" fill="white"/>
<path d="M125.396 35.5506V32.2251C124.34 34.4271 121.958 36.5168 118.273 36.5168C114.588 36.5168 110.791 33.798 110.791 29.9781C110.791 26.1583 113.465 22.9227 119.33 22.9227H122.722C124.587 22.9227 125.104 21.5745 124.925 20.6757C124.677 19.1477 123.307 18.3388 121.397 18.3388C119.487 18.3388 117.532 19.6645 117.33 21.5071C117.33 21.6644 117.15 21.7991 116.993 21.7767L111.24 20.8105C111.083 20.788 110.971 20.6307 110.993 20.4735C111.937 15.4627 116.678 13.418 121.554 13.418C126.43 13.418 131.823 14.6088 131.823 23.6192V35.5506C131.823 35.7079 131.688 35.8427 131.531 35.8427H125.666C125.509 35.8427 125.374 35.7079 125.374 35.5506H125.396ZM120.251 31.5959C122.97 31.5959 124.835 29.5512 125.059 27.0121H120.947C118.453 27.0121 117.554 28.0233 117.599 29.4389C117.644 30.9218 118.835 31.5959 120.273 31.5959H120.251Z" fill="white"/>
<path d="M132.857 19.2378V14.3843C132.857 14.227 132.992 14.0922 133.15 14.0922H135.576C136.7 14.0922 137.621 13.171 137.621 12.0475V8.27256C137.621 8.11529 137.756 7.98047 137.913 7.98047H143.441C143.598 7.98047 143.733 8.11529 143.733 8.27256V14.0922H148.204C148.362 14.0922 148.497 14.227 148.497 14.3843V19.2378C148.497 19.3951 148.362 19.5299 148.204 19.5299H143.733V27.3943C143.733 29.9559 145.912 30.9894 148.182 30.1805C148.339 30.1356 148.497 30.2479 148.497 30.4052V35.5283C148.497 35.7081 148.362 35.8878 148.182 35.9328C147.598 36.0676 146.789 36.2024 145.823 36.2024C140.565 36.2024 136.947 34.4273 136.947 26.7876V19.5749H133.172C133.015 19.5749 132.88 19.44 132.88 19.2827L132.857 19.2378Z" fill="white"/>
<path d="M173.279 24.9674C173.279 31.3263 168.785 36.5168 161.393 36.5168C154 36.5168 149.506 31.3263 149.506 24.9674C149.506 18.6084 154 13.418 161.393 13.418C168.785 13.418 173.279 18.6084 173.279 24.9674ZM166.493 24.9674C166.493 21.8216 164.763 19.1926 161.393 19.1926C158.022 19.1926 156.292 21.8216 156.292 24.9674C156.292 28.1131 158.022 30.7421 161.393 30.7421C164.763 30.7421 166.493 28.1131 166.493 24.9674Z" fill="white"/>
<path d="M23.9011 43.9544C24.8448 43.9544 25.6088 43.1905 25.6088 42.2468C25.6088 41.303 24.8448 40.5391 23.9011 40.5391C22.9574 40.5391 22.1934 41.303 22.1934 42.2468C22.1934 43.1905 22.9574 43.9544 23.9011 43.9544Z" fill="#90C149"/>
<path d="M33.6524 30.6974L24.0803 31.731C23.9005 31.731 23.8107 31.5287 23.9455 31.4164L33.3153 24.1362C33.922 23.6419 34.304 22.8554 34.1467 22.0465C33.9894 20.7658 32.9334 19.9568 31.6076 20.1141L21.4288 21.5971C21.2491 21.6196 21.1592 21.3949 21.2941 21.2826L31.3829 13.5755C33.3827 12.025 33.54 8.99163 31.72 7.21653C30.0572 5.55377 27.4058 5.62118 25.743 7.26147L9.49747 23.7767C8.89076 24.4508 8.62115 25.3271 8.7784 26.2708C9.04806 27.7538 10.5535 28.765 12.0365 28.4729L20.7997 26.6753C20.9795 26.6303 21.0918 26.9 20.9345 26.9899L11.2051 33.214C9.99177 33.9779 9.43003 35.3711 9.81201 36.7417C10.194 38.5618 12.0141 39.6178 13.7892 39.1685L28.3046 35.5957C28.4619 35.5508 28.5967 35.753 28.4843 35.8654L26.2149 38.6741C25.6082 39.4381 26.5969 40.4942 27.4282 39.8875L34.8882 33.7533C36.2139 32.6522 35.3376 30.4951 33.6075 30.6524L33.6524 30.6974Z" fill="#90C149"/>
</svg>
