<svg width="330" height="74" viewBox="0 0 330 74" fill="none" xmlns="http://www.w3.org/2000/svg">
<path d="M125.215 43.566C123.117 43.6054 121.043 43.1107 119.189 42.1286C117.474 41.2111 116.047 39.8381 115.063 38.1609C114.048 36.3953 113.532 34.3869 113.571 32.3507C113.534 30.3117 114.021 28.2973 114.986 26.5007C115.896 24.8438 117.246 23.4706 118.888 22.533C120.633 21.5532 122.607 21.057 124.608 21.0956C126.527 21.0408 128.424 21.5269 130.08 22.4983C131.592 23.4148 132.806 24.7507 133.573 26.3439C134.405 28.1084 134.818 30.0416 134.778 31.992C134.784 32.2301 134.741 32.4668 134.649 32.6866C134.558 32.9064 134.42 33.1044 134.247 33.2675C134.067 33.4367 133.855 33.5685 133.623 33.6555C133.392 33.7424 133.145 33.7827 132.898 33.774H116.431V30.5353H132.772L131.101 31.6693C131.096 30.4165 130.817 29.18 130.284 28.0462C129.797 27.0148 129.033 26.1389 128.078 25.5159C127.038 24.8711 125.83 24.5474 124.607 24.585C123.21 24.5438 121.829 24.8943 120.621 25.5969C119.531 26.257 118.658 27.2208 118.109 28.3702C117.521 29.6155 117.228 30.9792 117.251 32.3559C117.226 33.7464 117.579 35.1176 118.272 36.3236C118.947 37.4782 119.921 38.4292 121.092 39.0763C122.355 39.7673 123.777 40.1161 125.217 40.0882C126.102 40.0811 126.98 39.9237 127.812 39.6227C128.576 39.3739 129.299 39.0125 129.957 38.5505C130.341 38.2621 130.805 38.0996 131.285 38.085C131.739 38.0645 132.184 38.2165 132.531 38.5106C132.738 38.6709 132.911 38.8723 133.037 39.1021C133.164 39.3319 133.242 39.5853 133.266 39.8465C133.275 40.0943 133.22 40.3402 133.105 40.5602C132.991 40.7801 132.821 40.9666 132.613 41.1013C131.573 41.8896 130.405 42.4924 129.161 42.8833C127.892 43.3236 126.561 43.5559 125.219 43.5712L125.215 43.566Z" fill="black"/>
<path d="M154.793 43.7165C152.704 43.7342 150.635 43.329 148.707 42.5253C146.78 41.7217 145.035 40.5362 143.579 39.0404C142.138 37.553 141 35.7998 140.228 33.8782C139.413 31.8452 139.003 29.6721 139.023 27.4818C139.002 25.3109 139.411 23.1574 140.228 21.1458C141.003 19.2317 142.141 17.4855 143.579 16.0029C145.005 14.5343 146.705 13.3585 148.583 12.5418C150.542 11.6943 152.658 11.2668 154.793 11.2869C156.63 11.2467 158.46 11.5207 160.205 12.0969C161.865 12.7223 163.405 13.6258 164.761 14.7687C164.958 14.9088 165.132 15.0799 165.275 15.2752C165.39 15.4332 165.473 15.6117 165.521 15.8011C165.565 16.0072 165.585 16.2177 165.582 16.4285C165.588 16.6684 165.542 16.9066 165.447 17.1268C165.351 17.347 165.209 17.5439 165.031 17.7039C164.647 18.0597 164.146 18.2623 163.623 18.2734C163.1 18.2846 162.59 18.1034 162.192 17.7644C161.258 16.9471 160.203 16.278 159.066 15.7805C157.703 15.2722 156.252 15.0385 154.798 15.0927C153.233 15.0836 151.686 15.4153 150.263 16.0647C148.856 16.7056 147.587 17.6129 146.525 18.7364C145.444 19.8795 144.591 21.2194 144.013 22.6835C143.408 24.21 143.103 25.8386 143.113 27.4805C143.103 29.1358 143.408 30.7779 144.013 32.3186C144.591 33.7828 145.444 35.1226 146.525 36.2658C147.583 37.3867 148.851 38.2876 150.258 38.9169C152.945 40.0952 155.985 40.1823 158.735 39.1599C160.009 38.6686 161.211 38.0082 162.309 37.1967C162.72 36.8706 163.235 36.7051 163.759 36.7312C164.217 36.7633 164.647 36.9656 164.964 37.2982C165.133 37.4873 165.264 37.7079 165.348 37.9475C165.432 38.1871 165.468 38.441 165.454 38.6945C165.453 38.966 165.398 39.2346 165.29 39.4839C165.175 39.7498 165.009 39.9905 164.801 40.1924C163.383 41.3233 161.789 42.2126 160.082 42.8242C158.382 43.4223 156.593 43.7237 154.791 43.7152L154.793 43.7165Z" fill="black"/>
<path d="M176.984 43.7114C175.846 43.73 174.731 43.3899 173.797 42.7394C172.85 42.066 172.102 41.1497 171.632 40.0869C171.096 38.8698 170.833 37.5503 170.86 36.2208V14.1194C170.851 13.8501 170.896 13.5817 170.995 13.3308C171.093 13.08 171.242 12.8521 171.433 12.6614C171.835 12.2953 172.359 12.0924 172.903 12.0924C173.447 12.0924 173.972 12.2953 174.374 12.6614C174.565 12.8521 174.714 13.08 174.812 13.3308C174.91 13.5817 174.956 13.8501 174.946 14.1194V36.2246C174.91 37.0844 175.105 37.9382 175.511 38.6971C175.642 38.9792 175.849 39.2193 176.109 39.3909C176.369 39.5625 176.671 39.6588 176.982 39.6691H178.002C178.252 39.6605 178.5 39.7069 178.73 39.8049C178.959 39.9029 179.164 40.0501 179.331 40.2361C179.682 40.6387 179.866 41.1603 179.845 41.6941C179.848 41.9821 179.779 42.2662 179.644 42.5208C179.509 42.7754 179.313 42.9924 179.073 43.1521C178.484 43.5513 177.783 43.7501 177.072 43.7191L176.984 43.7114Z" fill="black"/>
<path d="M191.975 43.5648C190.086 43.593 188.229 43.0804 186.622 42.0875C185.044 41.1046 183.755 39.722 182.883 38.0799C181.952 36.3158 181.482 34.3452 181.515 32.3508C181.485 30.3352 182 28.3489 183.007 26.6023C183.976 24.9265 185.372 23.5368 187.052 22.5742C188.806 21.605 190.777 21.0966 192.781 21.0966C194.786 21.0966 196.757 21.605 198.511 22.5742C200.182 23.5415 201.57 24.9305 202.535 26.6023C203.542 28.349 204.057 30.3352 204.027 32.3508H202.434C202.467 34.3452 201.997 36.3158 201.066 38.0799C200.195 39.7219 198.906 41.1044 197.328 42.0875C195.721 43.0806 193.864 43.5932 191.975 43.5648ZM192.792 39.9211C194.081 39.9452 195.351 39.6118 196.461 38.958C197.572 38.3041 198.479 37.3553 199.083 36.2169C199.72 35.029 200.043 33.6984 200.023 32.3508C200.043 30.99 199.72 29.6461 199.083 28.4435C198.479 27.3051 197.572 26.3563 196.461 25.7024C195.351 25.0486 194.081 24.7152 192.792 24.7393C191.491 24.7189 190.211 25.0622 189.095 25.7306C187.997 26.386 187.094 27.3226 186.479 28.4435C185.827 29.6409 185.496 30.9872 185.519 32.3508C185.496 33.7013 185.827 35.0343 186.479 36.2169C187.094 37.3378 187.997 38.2744 189.095 38.9298C190.212 39.5948 191.492 39.9379 192.792 39.9211ZM201.944 43.4439C201.669 43.4523 201.394 43.4045 201.138 43.3035C200.882 43.2024 200.648 43.0503 200.453 42.8563C200.258 42.664 200.104 42.4336 200.002 42.1794C199.9 41.9252 199.852 41.6528 199.86 41.3791V35.1845L200.631 30.8928L204.022 32.3508V41.3791C204.03 41.6528 203.981 41.9252 203.879 42.1794C203.777 42.4336 203.624 42.664 203.429 42.8563C203.234 43.0495 203.002 43.2012 202.747 43.3022C202.492 43.4032 202.218 43.4514 201.944 43.4439Z" fill="black"/>
<path d="M218.294 43.5648C216.494 43.5825 214.703 43.288 213.003 42.6943C211.599 42.2422 210.309 41.4893 209.225 40.4881C209.031 40.2984 208.883 40.0663 208.794 39.8099C208.705 39.5536 208.676 39.28 208.71 39.0108C208.741 38.7416 208.828 38.4819 208.966 38.2483C209.103 38.0147 209.288 37.8124 209.508 37.6544C209.725 37.4577 209.98 37.3078 210.258 37.2138C210.535 37.1198 210.829 37.0838 211.121 37.1079C211.647 37.173 212.133 37.4243 212.489 37.8164C213.125 38.4437 213.883 38.9331 214.716 39.2538C215.794 39.7107 216.956 39.9384 218.127 39.9224C219.38 39.9967 220.629 39.7301 221.742 39.1509C222.111 38.9609 222.424 38.6779 222.649 38.3299C222.875 37.9819 223.005 37.5811 223.028 37.1671C223.03 36.746 222.924 36.3315 222.72 35.9631C222.516 35.5947 222.221 35.2846 221.863 35.0623C220.517 34.2758 219.021 33.7792 217.471 33.6043C215.303 33.3124 213.245 32.4769 211.486 31.1756C210.899 30.6956 210.427 30.0899 210.106 29.4032C209.784 28.7165 209.62 27.9663 209.627 27.2079C209.583 25.9527 210.021 24.7283 210.852 23.7866C211.712 22.8555 212.796 22.1593 214 21.7642C215.287 21.3175 216.641 21.0914 218.004 21.0956C219.637 21.0656 221.261 21.3543 222.784 21.9455C224.067 22.4365 225.206 23.2441 226.093 24.2932C226.269 24.4719 226.406 24.6841 226.497 24.9172C226.589 25.1503 226.632 25.3994 226.624 25.6496C226.608 25.8886 226.536 26.1205 226.416 26.3275C226.296 26.5346 226.129 26.7113 225.93 26.8441C225.704 26.993 225.45 27.0948 225.183 27.1433C224.916 27.1919 224.643 27.1864 224.378 27.1269C223.814 27.0361 223.289 26.7827 222.866 26.3979C222.245 25.7863 221.49 25.3287 220.66 25.0621C219.771 24.8056 218.848 24.683 217.923 24.6982C216.875 24.6669 215.835 24.8745 214.879 25.3051C214.516 25.4413 214.202 25.6845 213.98 26.0027C213.757 26.3208 213.637 26.6989 213.634 27.0871C213.628 27.5542 213.762 28.0124 214.019 28.4023C214.417 28.8943 214.95 29.2601 215.552 29.4553C216.64 29.8562 217.761 30.1608 218.902 30.3656C220.58 30.6528 222.209 31.172 223.743 31.9085C224.77 32.393 225.651 33.1404 226.297 34.0749C226.822 34.9328 227.09 35.9235 227.068 36.9292C227.082 38.125 226.732 39.2968 226.066 40.2901C225.329 41.3464 224.31 42.1742 223.125 42.6789C221.596 43.3155 219.949 43.6175 218.294 43.5648Z" fill="black"/>
<path d="M240.415 43.5648C238.615 43.5825 236.825 43.288 235.125 42.6944C233.72 42.2423 232.43 41.4894 231.346 40.4881C231.152 40.2985 231.004 40.0664 230.915 39.81C230.826 39.5537 230.797 39.2801 230.832 39.0109C230.863 38.7417 230.95 38.482 231.087 38.2484C231.224 38.0149 231.409 37.8125 231.629 37.6544C231.846 37.4578 232.101 37.3079 232.379 37.2139C232.656 37.1199 232.95 37.0839 233.242 37.108C233.768 37.173 234.254 37.4243 234.61 37.8164C235.246 38.4438 236.004 38.9331 236.837 39.2538C237.915 39.7108 239.077 39.9385 240.248 39.9224C241.501 39.9967 242.75 39.7301 243.864 39.151C244.232 38.961 244.545 38.678 244.77 38.33C244.996 37.982 245.126 37.5812 245.149 37.1671C245.151 36.7461 245.045 36.3316 244.841 35.9632C244.637 35.5948 244.342 35.2847 243.984 35.0624C242.638 34.2758 241.142 33.7792 239.592 33.6044C237.424 33.3125 235.366 32.4771 233.607 31.1757C233.02 30.6957 232.548 30.09 232.227 29.4033C231.905 28.7165 231.741 27.9663 231.748 27.208C231.704 25.9528 232.142 24.7284 232.974 23.7867C233.833 22.8553 234.916 22.1587 236.12 21.763C237.407 21.3162 238.761 21.0902 240.123 21.0944C241.757 21.0644 243.381 21.353 244.904 21.9443C246.187 22.4353 247.326 23.2429 248.213 24.292C248.388 24.4706 248.526 24.6829 248.617 24.916C248.708 25.1491 248.752 25.3982 248.744 25.6484C248.728 25.8874 248.656 26.1193 248.536 26.3264C248.416 26.5335 248.249 26.7102 248.05 26.8428C247.823 26.9918 247.569 27.0935 247.303 27.1421C247.036 27.1907 246.762 27.1851 246.498 27.1257C245.934 27.0348 245.408 26.7815 244.986 26.3967C244.365 25.7851 243.609 25.3276 242.78 25.0608C241.89 24.8044 240.968 24.6818 240.042 24.697C238.995 24.6657 237.954 24.8733 236.999 25.3038C236.636 25.4401 236.322 25.6833 236.1 26.0014C235.877 26.3196 235.756 26.6977 235.753 27.0858C235.747 27.553 235.882 28.0112 236.139 28.4011C236.537 28.8932 237.07 29.259 237.672 29.4541C238.76 29.855 239.881 30.1596 241.022 30.3644C242.699 30.6516 244.329 31.1708 245.863 31.9073C246.89 32.3917 247.771 33.1391 248.416 34.0737C248.942 34.9315 249.209 35.9223 249.188 36.928C249.202 38.1236 248.853 39.2954 248.187 40.2888C247.45 41.3452 246.431 42.173 245.246 42.6777C243.714 43.3175 242.064 43.6214 240.405 43.5687L240.415 43.5648Z" fill="black"/>
<path d="M256.926 17.9676C256.572 17.9718 256.222 17.9039 255.895 17.7682C255.569 17.6325 255.273 17.4317 255.027 17.1782C254.775 16.9337 254.574 16.6411 254.438 16.3178C254.301 15.9944 254.23 15.6469 254.23 15.2959C254.23 14.9448 254.301 14.5973 254.438 14.274C254.574 13.9506 254.775 13.6581 255.027 13.4136C255.276 13.1633 255.572 12.9646 255.898 12.8291C256.224 12.6936 256.573 12.6238 256.926 12.6238C257.279 12.6238 257.629 12.6936 257.955 12.8291C258.281 12.9646 258.577 13.1633 258.826 13.4136C259.078 13.6581 259.278 13.9506 259.415 14.274C259.552 14.5973 259.622 14.9448 259.622 15.2959C259.622 15.6469 259.552 15.9944 259.415 16.3178C259.278 16.6411 259.078 16.9337 258.826 17.1782C258.58 17.4319 258.284 17.6327 257.957 17.7685C257.63 17.9042 257.279 17.9719 256.926 17.9676ZM256.926 43.7166C256.65 43.7249 256.376 43.6771 256.12 43.5761C255.863 43.4751 255.63 43.323 255.434 43.129C255.239 42.9366 255.086 42.7062 254.984 42.452C254.882 42.1979 254.834 41.9254 254.842 41.6517V23.635C254.83 23.3577 254.877 23.0811 254.979 22.823C255.081 22.565 255.236 22.3313 255.434 22.1371C255.633 21.9487 255.867 21.8016 256.123 21.7043C256.379 21.6069 256.652 21.5614 256.926 21.5701C257.203 21.56 257.479 21.6049 257.738 21.7023C257.998 21.7996 258.236 21.9474 258.438 22.1371C258.631 22.3344 258.781 22.5691 258.879 22.8267C258.978 23.0844 259.022 23.3595 259.01 23.635V41.6504C259.021 41.9263 258.975 42.2015 258.874 42.4585C258.773 42.7155 258.62 42.9486 258.424 43.1429C258.227 43.3372 257.993 43.4885 257.735 43.5871C257.477 43.6856 257.201 43.7306 256.926 43.7166Z" fill="black"/>
<path d="M265.308 25.8605C264.8 25.8831 264.302 25.709 263.919 25.3745C263.748 25.2226 263.612 25.0353 263.52 24.8255C263.428 24.6156 263.383 24.3884 263.388 24.1595C263.378 23.9179 263.42 23.6769 263.512 23.4532C263.603 23.2294 263.742 23.0282 263.919 22.8635C264.302 22.5289 264.8 22.3548 265.308 22.3775H275.399C275.908 22.355 276.405 22.529 276.788 22.8635C276.965 23.0282 277.104 23.2294 277.196 23.4532C277.288 23.6769 277.33 23.9179 277.319 24.1595C277.324 24.3884 277.279 24.6156 277.187 24.8255C277.096 25.0353 276.959 25.2226 276.788 25.3745C276.405 25.709 275.908 25.8831 275.399 25.8605H265.308ZM269.067 43.7113C268.548 43.7106 268.05 43.5072 267.679 43.1443C267.475 42.9534 267.315 42.7207 267.209 42.4622C267.103 42.2038 267.054 41.9255 267.065 41.6465V21.6909C267.022 19.9329 267.423 18.1924 268.23 16.6303C268.975 15.2311 270.101 14.0719 271.478 13.2875C272.951 12.47 274.614 12.0578 276.298 12.093C276.844 12.0736 277.377 12.2615 277.79 12.6189C277.981 12.7839 278.133 12.9892 278.236 13.2202C278.338 13.4512 278.388 13.7021 278.382 13.9547C278.387 14.2042 278.336 14.4515 278.234 14.6789C278.131 14.9064 277.979 15.1083 277.79 15.27C277.382 15.6391 276.847 15.8351 276.298 15.8164C275.367 15.7965 274.448 16.0346 273.643 16.5043C272.884 16.9595 272.268 17.6188 271.866 18.4072C271.425 19.2999 271.207 20.2865 271.232 21.282V41.6542C271.245 41.9297 271.2 42.2048 271.102 42.4625C271.003 42.7201 270.853 42.9548 270.66 43.152C270.446 43.3472 270.194 43.4973 269.921 43.5933C269.647 43.6894 269.357 43.7295 269.067 43.7113Z" fill="black"/>
<path d="M290.476 41.8278C290.25 41.9335 290.006 41.9934 289.757 42.0037C289.508 42.0141 289.259 41.9748 289.025 41.8882C288.551 41.6895 288.166 41.3235 287.943 40.8596L278.588 23.2453C278.456 23.0245 278.378 22.7756 278.36 22.5189C278.343 22.2621 278.386 22.0049 278.486 21.768C278.629 21.409 278.875 21.1002 279.194 20.8806C279.512 20.661 279.888 20.5404 280.274 20.534C280.66 20.5275 281.04 20.6355 281.365 20.8443C281.691 21.0532 281.947 21.3535 282.102 21.7076L291.049 39.3219C291.308 39.7684 291.415 40.2866 291.355 40.7992C291.317 41.035 291.215 41.2558 291.06 41.4372C290.905 41.6187 290.703 41.7539 290.476 41.8278ZM285.656 52.4349C285.316 52.4191 284.982 52.3365 284.675 52.1919C284.417 52.1225 284.18 51.9934 283.982 51.8151C283.785 51.6368 283.632 51.4143 283.536 51.1657C283.441 50.9171 283.405 50.6494 283.432 50.3845C283.46 50.1196 283.549 49.8649 283.694 49.6411L296.155 21.7411C296.239 21.492 296.377 21.2646 296.56 21.0755C296.742 20.8863 296.965 20.7399 297.211 20.647C297.457 20.554 297.72 20.5167 297.982 20.5378C298.244 20.559 298.498 20.6379 298.726 20.769C298.988 20.8318 299.231 20.9563 299.434 21.1323C299.638 21.3083 299.796 21.5305 299.896 21.7804C299.996 22.0303 300.035 22.3005 300.009 22.5683C299.983 22.8362 299.893 23.0939 299.747 23.3199L287.245 51.18C287.154 51.5345 286.949 51.8492 286.661 52.0759C286.374 52.3026 286.021 52.4287 285.656 52.4349Z" fill="black"/>
<path d="M137.897 53.7157C137.953 53.7142 138.009 53.7279 138.058 53.7553C138.107 53.7827 138.148 53.8227 138.176 53.8713C138.206 53.9208 138.223 53.9775 138.224 54.0356C138.225 54.0937 138.211 54.151 138.182 54.2017C138.071 54.4294 137.991 54.6712 137.944 54.9204C137.915 55.0831 137.913 55.2494 137.938 55.4128C137.962 55.5517 137.996 55.679 138.031 55.8075C138.069 55.946 138.087 56.0894 138.085 56.2331C138.086 56.3193 138.069 56.4048 138.035 56.4839C138.001 56.5631 137.95 56.6341 137.887 56.6921C137.825 56.7532 137.752 56.8014 137.671 56.8339C137.59 56.8663 137.504 56.8824 137.417 56.8811C137.313 56.8841 137.21 56.8598 137.118 56.8106C137.026 56.7615 136.948 56.6892 136.893 56.6008C136.764 56.3901 136.7 56.1458 136.709 55.8988C136.716 55.6797 136.756 55.463 136.828 55.256C136.91 55.009 137.01 54.7687 137.128 54.5372C137.231 54.3269 137.361 54.1308 137.514 53.9535C137.557 53.8893 137.614 53.8349 137.68 53.794C137.746 53.753 137.82 53.7263 137.897 53.7157ZM139.575 53.7157C139.631 53.7142 139.686 53.7279 139.736 53.7553C139.785 53.7827 139.825 53.8227 139.854 53.8713C139.884 53.9208 139.901 53.9775 139.902 54.0356C139.903 54.0937 139.888 54.151 139.86 54.2017C139.749 54.4295 139.669 54.6712 139.622 54.9204C139.593 55.0831 139.591 55.2494 139.616 55.4128C139.643 55.5517 139.674 55.679 139.708 55.8075C139.747 55.946 139.765 56.0894 139.762 56.2331C139.764 56.3193 139.747 56.4048 139.713 56.4839C139.679 56.5631 139.628 56.6341 139.564 56.6921C139.503 56.7529 139.429 56.8009 139.349 56.8334C139.268 56.8658 139.182 56.882 139.095 56.8811C138.991 56.884 138.888 56.8596 138.796 56.8105C138.704 56.7613 138.626 56.6891 138.571 56.6008C138.441 56.3901 138.378 56.1458 138.387 55.8988C138.394 55.6797 138.434 55.463 138.506 55.256C138.589 55.0095 138.689 54.7693 138.806 54.5372C138.909 54.3269 139.039 54.1308 139.192 53.9535C139.236 53.8888 139.294 53.8342 139.361 53.7933C139.428 53.7523 139.503 53.7259 139.581 53.7157H139.575Z" fill="black"/>
<path d="M143.285 62.7644C143.211 62.7662 143.137 62.7527 143.068 62.7248C142.999 62.697 142.937 62.6553 142.884 62.6024C142.831 62.5509 142.789 62.4888 142.761 62.4202C142.733 62.3516 142.719 62.278 142.721 62.2039V54.8959C142.718 54.8207 142.731 54.7458 142.76 54.676C142.788 54.6062 142.83 54.5431 142.884 54.4909C142.938 54.4394 143.001 54.3991 143.07 54.3724C143.139 54.3457 143.213 54.3331 143.287 54.3353H145.895C146.345 54.3252 146.791 54.4235 147.195 54.622C147.556 54.8016 147.861 55.0758 148.077 55.4153C148.295 55.7654 148.406 56.1708 148.397 56.5827C148.402 56.9234 148.301 57.2572 148.108 57.538C147.908 57.8277 147.636 58.0604 147.319 58.213C147.769 58.3078 148.175 58.5471 148.476 58.8944C148.779 59.2695 148.934 59.7424 148.912 60.2239C148.923 60.6827 148.803 61.1352 148.565 61.528C148.327 61.9207 147.982 62.2373 147.571 62.4404C147.121 62.6666 146.624 62.78 146.12 62.7709H143.292L143.285 62.7644ZM143.851 57.7977H145.886C146.25 57.8133 146.609 57.7065 146.905 57.4943C147.041 57.3849 147.148 57.2443 147.217 57.0844C147.287 56.9245 147.316 56.7501 147.303 56.5763C147.317 56.4035 147.287 56.2301 147.218 56.0714C147.148 55.9126 147.041 55.7734 146.905 55.666C146.607 55.4578 146.249 55.3534 145.886 55.369H143.851V57.7977ZM143.851 61.7282H146.119C146.422 61.7342 146.723 61.6754 147.001 61.5559C147.246 61.449 147.454 61.2729 147.6 61.0493C147.753 60.8 147.829 60.511 147.818 60.2187C147.83 59.9449 147.754 59.6742 147.6 59.4473C147.448 59.2403 147.241 59.081 147.001 58.9883C146.72 58.8795 146.421 58.8266 146.119 58.8327H143.851V61.7269V61.7282Z" fill="black"/>
<path d="M154.084 62.7824C153.616 62.7907 153.153 62.6816 152.739 62.4648C152.342 62.2515 152.017 61.9265 151.803 61.5301C151.561 61.0637 151.443 60.5431 151.46 60.0181V57.3631C151.457 57.29 151.47 57.2173 151.497 57.1494C151.524 57.0815 151.564 57.0198 151.616 56.9684C151.669 56.9167 151.731 56.8763 151.8 56.8495C151.868 56.8228 151.941 56.8103 152.015 56.8128C152.088 56.8111 152.161 56.824 152.23 56.8507C152.298 56.8774 152.361 56.9174 152.414 56.9684C152.465 57.0198 152.506 57.0815 152.533 57.1494C152.56 57.2173 152.573 57.29 152.57 57.3631V60.0181C152.556 60.3654 152.635 60.7102 152.798 61.0171C152.94 61.2701 153.157 61.4738 153.418 61.6008C153.694 61.7294 153.995 61.794 154.3 61.7898C154.588 61.7965 154.875 61.7339 155.134 61.6072C155.367 61.4943 155.568 61.3235 155.717 61.111C155.86 60.905 155.935 60.6598 155.934 60.409H156.622C156.626 60.8349 156.511 61.2535 156.287 61.6162C156.068 61.9752 155.757 62.2697 155.387 62.47C154.987 62.6835 154.54 62.7915 154.086 62.7837L154.084 62.7824ZM156.491 62.7284C156.417 62.7309 156.344 62.7184 156.275 62.6916C156.207 62.6649 156.144 62.6245 156.092 62.5728C156.04 62.5214 155.999 62.4597 155.972 62.3918C155.945 62.3239 155.933 62.2511 155.935 62.1781V57.3631C155.932 57.2894 155.944 57.2157 155.971 57.147C155.998 57.0783 156.039 57.0161 156.092 56.9645C156.202 56.8668 156.344 56.8129 156.492 56.8129C156.639 56.8129 156.781 56.8668 156.892 56.9645C156.943 57.0169 156.983 57.0793 157.01 57.1479C157.036 57.2165 157.048 57.2897 157.045 57.3631V62.1781C157.047 62.2508 157.035 62.3232 157.008 62.391C156.982 62.4588 156.942 62.5206 156.892 62.5728C156.839 62.6252 156.777 62.666 156.707 62.6928C156.638 62.7196 156.565 62.7317 156.491 62.7284Z" fill="black"/>
<path d="M162.448 62.4597C162.388 62.4877 162.323 62.5035 162.256 62.5064C162.19 62.5093 162.124 62.4991 162.062 62.4764C161.935 62.4223 161.833 62.3241 161.773 62.2L159.277 57.5032C159.242 57.4441 159.222 57.3776 159.217 57.3091C159.212 57.2406 159.224 57.1719 159.25 57.1085C159.285 57.0099 159.349 56.9242 159.434 56.8631C159.52 56.802 159.621 56.7683 159.726 56.7664C159.831 56.7646 159.933 56.7948 160.02 56.8529C160.107 56.9111 160.175 56.9944 160.213 57.0918L162.599 61.7885C162.667 61.9082 162.696 62.0463 162.682 62.1832C162.672 62.2466 162.645 62.3061 162.603 62.3549C162.562 62.4038 162.507 62.4401 162.446 62.4597H162.448ZM161.162 65.2882C161.073 65.2837 160.986 65.2619 160.905 65.224C160.837 65.2047 160.774 65.1698 160.722 65.1218C160.669 65.0739 160.629 65.0144 160.604 64.9481C160.579 64.8819 160.57 64.8106 160.578 64.7402C160.585 64.6697 160.609 64.602 160.648 64.5425L163.97 57.1034C163.993 57.037 164.03 56.9765 164.079 56.9262C164.128 56.8759 164.187 56.8371 164.253 56.8125C164.319 56.788 164.389 56.7782 164.459 56.7841C164.529 56.7899 164.597 56.8111 164.658 56.8462C164.728 56.8631 164.792 56.8964 164.847 56.9435C164.901 56.9905 164.943 57.0498 164.97 57.1166C164.997 57.1833 165.007 57.2554 165 57.3269C164.993 57.3985 164.969 57.4673 164.93 57.5277L161.598 64.9565C161.572 65.0524 161.515 65.1369 161.436 65.1968C161.357 65.2566 161.26 65.2884 161.161 65.287L161.162 65.2882Z" fill="black"/>
<path d="M173.258 62.9122C172.841 62.9196 172.427 62.8317 172.049 62.6551C171.715 62.4977 171.434 62.2467 171.239 61.9325C171.039 61.5919 170.938 61.2014 170.95 60.8062C170.95 60.3171 171.128 59.8447 171.45 59.4768C171.848 59.0207 172.289 58.6047 172.768 58.2348L173.668 57.5225C173.97 57.3121 174.223 57.0394 174.41 56.7228C174.517 56.5001 174.576 56.2575 174.584 56.0105C174.588 55.7457 174.487 55.4899 174.305 55.2982C174.201 55.1932 174.076 55.1118 173.938 55.0595C173.8 55.0071 173.652 54.9851 173.505 54.9948C173.221 54.9825 172.943 55.0833 172.733 55.2751C172.641 55.3582 172.568 55.4597 172.517 55.5731C172.467 55.6865 172.44 55.8092 172.44 55.9334C172.441 56.1241 172.485 56.3122 172.569 56.4837C172.673 56.6891 172.811 56.8753 172.978 57.034L177.934 61.9364C178.032 62.0213 178.101 62.1345 178.132 62.2604C178.135 62.3227 178.122 62.3848 178.096 62.4412C178.069 62.4977 178.029 62.5468 177.979 62.5844C177.938 62.638 177.885 62.6814 177.825 62.7113C177.764 62.7412 177.698 62.7567 177.63 62.7567C177.563 62.7567 177.496 62.7412 177.435 62.7113C177.375 62.6814 177.322 62.638 177.281 62.5844L172.267 57.6279C172.034 57.3977 171.843 57.1294 171.701 56.8347C171.571 56.5594 171.503 56.2585 171.503 55.9539C171.498 55.6242 171.587 55.2999 171.76 55.0192C171.937 54.7405 172.185 54.5144 172.479 54.3648C172.801 54.2067 173.155 54.1256 173.513 54.1279C173.872 54.1301 174.225 54.2156 174.545 54.3777C174.839 54.5375 175.086 54.7727 175.26 55.0591C175.434 55.3529 175.523 55.6895 175.517 56.0311C175.522 56.2956 175.472 56.5582 175.37 56.8025C175.26 57.0519 175.106 57.2803 174.918 57.4775C174.67 57.7363 174.404 57.9765 174.121 58.1962L173.259 58.8777C173.025 59.06 172.803 59.2585 172.596 59.4717C172.414 59.6562 172.258 59.8652 172.133 60.0927C172.022 60.3002 171.963 60.5321 171.963 60.7677C171.951 60.9347 171.974 61.1025 172.032 61.2596C172.09 61.4167 172.182 61.5594 172.3 61.678C172.565 61.897 172.903 62.0069 173.246 61.9852C173.646 61.9952 174.04 61.8922 174.383 61.6882C174.745 61.4589 175.077 61.1846 175.37 60.8718L176.961 59.2081C177.044 59.112 177.149 59.0379 177.267 58.9921C177.325 58.9821 177.385 58.9878 177.441 59.0085C177.497 59.0293 177.546 59.0645 177.583 59.1104C177.634 59.1512 177.676 59.2018 177.707 59.2592C177.738 59.3166 177.757 59.3797 177.763 59.4447C177.759 59.5795 177.702 59.7074 177.606 59.8021L176.016 61.4658C175.66 61.8735 175.244 62.225 174.783 62.5085C174.319 62.7843 173.787 62.9246 173.248 62.9135L173.258 62.9122Z" fill="black"/>
<path d="M187.624 62.8724C187.173 62.8754 186.724 62.8024 186.296 62.6564C185.896 62.5245 185.523 62.3196 185.197 62.0521C184.899 61.8119 184.663 61.5031 184.509 61.1521C184.473 61.0874 184.455 61.0144 184.456 60.9404C184.457 60.8664 184.478 60.794 184.516 60.7304C184.599 60.6106 184.724 60.5253 184.866 60.4905C185.008 60.4557 185.157 60.4738 185.287 60.5414C185.414 60.61 185.516 60.7177 185.576 60.8487C185.68 61.0448 185.826 61.2146 186.006 61.3449C186.226 61.5061 186.471 61.6303 186.731 61.7127C187.019 61.8077 187.32 61.8555 187.623 61.8541C187.951 61.8575 188.277 61.8026 188.586 61.6921C188.86 61.5973 189.105 61.4361 189.301 61.2228C189.484 61.0118 189.582 60.7397 189.574 60.4604C189.572 60.2671 189.532 60.0761 189.454 59.8992C189.376 59.7223 189.263 59.5632 189.121 59.4318C188.703 59.0816 188.179 58.8839 187.633 58.8712C186.861 58.8332 186.119 58.5575 185.509 58.0818C185.265 57.887 185.069 57.639 184.935 57.3567C184.801 57.0743 184.734 56.7652 184.738 56.4528C184.725 56.0154 184.868 55.5877 185.14 55.2455C185.431 54.8988 185.81 54.6375 186.237 54.4895C186.732 54.3117 187.254 54.2246 187.78 54.2324C188.173 54.2251 188.565 54.2869 188.937 54.415C189.254 54.5286 189.547 54.7004 189.801 54.9215C190.053 55.1451 190.269 55.4051 190.444 55.693C190.539 55.8224 190.585 55.9816 190.573 56.1417C190.565 56.2092 190.542 56.2741 190.506 56.3314C190.469 56.3886 190.42 56.4368 190.362 56.4721C190.296 56.5143 190.222 56.5411 190.145 56.5504C190.068 56.5598 189.989 56.5514 189.916 56.5261C189.764 56.4813 189.635 56.3813 189.554 56.2458C189.445 56.0456 189.301 55.8662 189.129 55.7161C188.954 55.5682 188.755 55.4527 188.54 55.3754C188.284 55.2852 188.014 55.2416 187.743 55.2468C187.274 55.224 186.807 55.3265 186.391 55.5438C186.22 55.6328 186.077 55.7691 185.981 55.9366C185.884 56.104 185.837 56.2957 185.846 56.4888C185.848 56.7071 185.906 56.9213 186.016 57.1098C186.166 57.34 186.382 57.5194 186.636 57.6241C187.05 57.7968 187.489 57.8994 187.937 57.9275C188.678 57.9651 189.386 58.2396 189.959 58.7105C190.199 58.9267 190.388 59.1928 190.513 59.4901C190.638 59.7873 190.697 60.1085 190.684 60.4308C190.693 60.8037 190.605 61.1724 190.427 61.5005C190.258 61.803 190.023 62.0635 189.739 62.263C189.443 62.4734 189.11 62.6289 188.758 62.7219C188.388 62.8235 188.006 62.8746 187.622 62.8737L187.624 62.8724Z" fill="black"/>
<path d="M196.222 62.7695C195.662 62.7795 195.109 62.6468 194.615 62.3838C194.157 62.1392 193.777 61.7724 193.515 61.3244C193.245 60.8557 193.107 60.3224 193.117 59.7815C193.107 59.2387 193.235 58.7022 193.491 58.2232C193.734 57.781 194.094 57.4144 194.532 57.1638C194.997 56.9012 195.524 56.768 196.057 56.7781C196.569 56.7636 197.075 56.8923 197.518 57.1496C197.921 57.3958 198.244 57.7529 198.45 58.1782C198.671 58.6482 198.781 59.1631 198.77 59.6825C198.772 59.7462 198.76 59.8095 198.735 59.8682C198.711 59.927 198.674 59.9798 198.627 60.0232C198.579 60.0674 198.522 60.1015 198.46 60.1236C198.398 60.1457 198.332 60.1552 198.266 60.1518H193.874V59.2878H198.231L197.785 59.5912C197.785 59.2576 197.711 58.9282 197.568 58.6269C197.435 58.3402 197.221 58.0993 196.951 57.9348C196.681 57.7702 196.369 57.6894 196.053 57.7025C195.681 57.6919 195.313 57.7854 194.991 57.9725C194.701 58.1484 194.467 58.4053 194.32 58.7118C194.164 59.044 194.086 59.4079 194.093 59.7751C194.087 60.1462 194.181 60.5121 194.365 60.8345C194.545 61.1428 194.805 61.3968 195.117 61.5699C195.454 61.7549 195.833 61.848 196.217 61.8399C196.453 61.8375 196.687 61.794 196.908 61.7114C197.112 61.6436 197.304 61.5471 197.48 61.4246C197.583 61.347 197.706 61.3022 197.834 61.2961C197.956 61.2906 198.075 61.3315 198.167 61.4105C198.222 61.4539 198.268 61.5078 198.302 61.5692C198.336 61.6306 198.358 61.6982 198.365 61.7679C198.367 61.8338 198.352 61.8992 198.322 61.9577C198.291 62.0162 198.247 62.066 198.192 62.1022C197.915 62.3126 197.604 62.4735 197.272 62.5779C196.934 62.6945 196.579 62.7562 196.221 62.7605L196.222 62.7695Z" fill="black"/>
<path d="M202.714 62.7644C202.41 62.7694 202.113 62.6795 201.863 62.5073C201.609 62.3279 201.409 62.083 201.284 61.7989C201.14 61.4755 201.068 61.1243 201.076 60.7703V54.8701C201.073 54.7988 201.086 54.7277 201.112 54.6614C201.138 54.595 201.178 54.5348 201.229 54.4844C201.336 54.3869 201.475 54.3328 201.62 54.3328C201.765 54.3328 201.905 54.3869 202.012 54.4844C202.062 54.5348 202.102 54.595 202.128 54.6614C202.155 54.7277 202.167 54.7988 202.165 54.8701V60.7639C202.155 60.9931 202.208 61.2205 202.318 61.4221C202.353 61.496 202.407 61.5589 202.475 61.6042C202.543 61.6495 202.622 61.6755 202.703 61.6793H202.976C203.042 61.677 203.109 61.6895 203.17 61.7157C203.231 61.7419 203.285 61.7813 203.33 61.831C203.423 61.9374 203.471 62.0754 203.466 62.2167C203.466 62.2933 203.447 62.3687 203.411 62.4361C203.374 62.5035 203.322 62.5607 203.258 62.6024C203.1 62.7092 202.913 62.7624 202.723 62.7541H202.702L202.714 62.7644Z" fill="black"/>
<path d="M207.084 62.7644C206.78 62.7694 206.482 62.6795 206.232 62.5073C205.979 62.3278 205.779 62.083 205.654 61.7989C205.51 61.4754 205.439 61.1242 205.447 60.7703V54.8701C205.445 54.7988 205.457 54.7278 205.483 54.6614C205.51 54.5951 205.549 54.5349 205.6 54.4844C205.707 54.3869 205.847 54.3328 205.991 54.3328C206.136 54.3328 206.276 54.3869 206.383 54.4844C206.433 54.5348 206.473 54.595 206.499 54.6614C206.526 54.7277 206.538 54.7988 206.536 54.8701V60.7639C206.527 60.9931 206.58 61.2205 206.689 61.4221C206.724 61.496 206.778 61.5589 206.846 61.6042C206.914 61.6495 206.993 61.6755 207.075 61.6793H207.347C207.414 61.6771 207.48 61.6896 207.541 61.7158C207.602 61.742 207.657 61.7814 207.701 61.831C207.794 61.9374 207.843 62.0754 207.837 62.2167C207.837 62.2932 207.819 62.3685 207.783 62.4359C207.746 62.5033 207.694 62.5605 207.63 62.6024C207.473 62.7091 207.285 62.7623 207.095 62.7541H207.075L207.084 62.7644Z" fill="black"/>
<path d="M214.106 62.7644C214.012 62.7674 213.919 62.7452 213.836 62.6999C213.754 62.6547 213.685 62.5882 213.637 62.5072C213.584 62.4263 213.553 62.333 213.547 62.2365C213.541 62.14 213.56 62.0436 213.603 61.9569L216.663 54.7132C216.7 54.6012 216.772 54.504 216.868 54.436C216.965 54.3679 217.08 54.3326 217.198 54.3352C217.317 54.3289 217.434 54.3628 217.531 54.4314C217.628 54.5 217.699 54.5992 217.733 54.7132L220.803 61.9801C220.843 62.067 220.861 62.1626 220.854 62.258C220.848 62.3535 220.817 62.4459 220.766 62.5265C220.716 62.6054 220.646 62.6695 220.562 62.7122C220.479 62.7549 220.386 62.7747 220.293 62.7695C220.183 62.769 220.076 62.7374 219.983 62.6782C219.885 62.6191 219.811 62.5284 219.772 62.4211L217.072 55.7714H217.378L214.634 62.4211C214.589 62.5286 214.51 62.6187 214.409 62.6782C214.319 62.7337 214.216 62.7639 214.11 62.7656L214.106 62.7644ZM214.685 60.9091L215.12 59.9808H219.389L219.825 60.9091H214.685Z" fill="black"/>
<path d="M223.665 62.7386C223.592 62.7411 223.518 62.7286 223.45 62.7019C223.381 62.6751 223.319 62.6347 223.267 62.583C223.215 62.5316 223.174 62.47 223.147 62.402C223.12 62.3341 223.107 62.2614 223.11 62.1883V57.3746C223.107 57.301 223.12 57.2276 223.147 57.159C223.174 57.0904 223.214 57.0281 223.267 56.976C223.377 56.8783 223.519 56.8244 223.666 56.8244C223.814 56.8244 223.956 56.8783 224.066 56.976C224.118 57.0284 224.158 57.0908 224.184 57.1594C224.211 57.228 224.223 57.3012 224.219 57.3746V62.1896C224.222 62.2623 224.209 62.3347 224.183 62.4025C224.157 62.4703 224.117 62.5321 224.066 62.5843C224.014 62.6364 223.951 62.6771 223.882 62.7036C223.813 62.7302 223.739 62.7421 223.665 62.7386ZM228.142 62.7386C228.068 62.7411 227.995 62.7286 227.927 62.7019C227.858 62.6751 227.796 62.6347 227.743 62.583C227.692 62.5316 227.651 62.47 227.624 62.402C227.597 62.3341 227.584 62.2614 227.587 62.1883V59.5346C227.602 59.1852 227.523 58.838 227.359 58.5292C227.217 58.279 227.002 58.0777 226.743 57.9519C226.465 57.8223 226.161 57.7577 225.855 57.7629C225.568 57.7585 225.285 57.821 225.027 57.9455C224.792 58.0571 224.589 58.2265 224.438 58.4379C224.292 58.6449 224.216 58.8931 224.221 59.1463H223.533C223.527 58.7178 223.643 58.2965 223.867 57.9313C224.09 57.5733 224.403 57.2809 224.776 57.084C225.175 56.8713 225.621 56.7634 226.073 56.7703C226.541 56.766 227.002 56.875 227.418 57.0879C227.816 57.3002 228.141 57.6254 228.354 58.0226C228.596 58.4889 228.715 59.0095 228.699 59.5346V62.1896C228.701 62.2627 228.688 62.3354 228.662 62.4033C228.635 62.4713 228.594 62.5329 228.542 62.5843C228.489 62.6359 228.427 62.6762 228.358 62.7027C228.289 62.7293 228.216 62.7415 228.142 62.7386Z" fill="black"/>
<path d="M234.004 62.4596C233.944 62.4876 233.879 62.5035 233.813 62.5064C233.747 62.5092 233.681 62.499 233.619 62.4763C233.492 62.4221 233.389 62.3239 233.329 62.1999L230.834 57.5032C230.799 57.444 230.778 57.3775 230.773 57.309C230.769 57.2405 230.78 57.1718 230.807 57.1085C230.834 57.0451 230.873 56.9879 230.923 56.9404C230.973 56.8929 231.032 56.856 231.096 56.832C231.157 56.8026 231.223 56.7859 231.29 56.7829C231.358 56.78 231.425 56.7909 231.488 56.815C231.552 56.8391 231.609 56.8758 231.657 56.923C231.706 56.9701 231.744 57.0267 231.77 57.0892L234.156 61.7859C234.224 61.9056 234.253 62.0437 234.238 62.1806C234.229 62.244 234.202 62.3035 234.16 62.3523C234.118 62.4011 234.064 62.4374 234.003 62.457L234.004 62.4596ZM232.719 65.2882C232.63 65.2837 232.542 65.2619 232.461 65.2239C232.393 65.2044 232.331 65.1693 232.279 65.1214C232.227 65.0734 232.187 65.014 232.162 64.9478C232.137 64.8816 232.128 64.8104 232.135 64.7401C232.142 64.6697 232.166 64.602 232.204 64.5425L235.527 57.1033C235.549 57.0369 235.587 56.9765 235.636 56.9262C235.685 56.8759 235.744 56.8371 235.81 56.8125C235.876 56.7879 235.946 56.7782 236.016 56.784C236.086 56.7898 236.154 56.8111 236.214 56.8462C236.284 56.863 236.349 56.8964 236.403 56.9434C236.458 56.9904 236.5 57.0498 236.527 57.1165C236.553 57.1832 236.564 57.2553 236.557 57.3269C236.55 57.3984 236.526 57.4672 236.487 57.5276L233.154 64.9565C233.129 65.0523 233.072 65.1368 232.993 65.1967C232.913 65.2565 232.817 65.2883 232.717 65.2869L232.719 65.2882Z" fill="black"/>
<path d="M238.378 57.9995C238.242 58.0051 238.11 57.9592 238.007 57.8709C237.961 57.8307 237.924 57.7808 237.899 57.7248C237.874 57.6688 237.862 57.6081 237.864 57.5469C237.861 57.4825 237.872 57.4182 237.896 57.3586C237.921 57.299 237.959 57.2457 238.007 57.2024C238.109 57.1127 238.242 57.0666 238.378 57.0738H240.898C241.033 57.0685 241.166 57.1144 241.268 57.2024C241.316 57.246 241.353 57.2995 241.378 57.359C241.402 57.4185 241.414 57.4826 241.411 57.5469C241.412 57.6081 241.4 57.6687 241.375 57.7246C241.351 57.7805 241.314 57.8305 241.268 57.8709C241.166 57.9603 241.034 58.0064 240.898 57.9995H238.378ZM240.795 62.7567C240.449 62.7621 240.108 62.666 239.816 62.4802C239.523 62.2964 239.286 62.0376 239.128 61.7307C238.955 61.4008 238.867 61.0333 238.871 60.6609V55.5181C238.868 55.4467 238.881 55.3757 238.907 55.3094C238.933 55.243 238.973 55.1828 239.024 55.1324C239.131 55.0348 239.27 54.9807 239.415 54.9807C239.56 54.9807 239.699 55.0348 239.807 55.1324C239.857 55.1828 239.897 55.243 239.923 55.3094C239.949 55.3757 239.962 55.4467 239.96 55.5181V60.6609C239.95 60.9225 240.034 61.1789 240.197 61.3835C240.266 61.4747 240.355 61.5485 240.457 61.599C240.559 61.6495 240.672 61.6752 240.786 61.6741H241.158C241.221 61.6735 241.284 61.6868 241.342 61.713C241.399 61.7392 241.451 61.7777 241.492 61.8258C241.585 61.9322 241.634 62.0702 241.628 62.2115C241.63 62.2853 241.614 62.3583 241.583 62.4251C241.552 62.492 241.506 62.5508 241.448 62.5972C241.317 62.7019 241.153 62.7558 240.986 62.7489H240.788L240.795 62.7567Z" fill="black"/>
<path d="M244.668 60.6146C244.595 60.6172 244.521 60.6046 244.453 60.5779C244.384 60.5511 244.322 60.5107 244.27 60.4591C244.218 60.4076 244.177 60.346 244.15 60.2781C244.123 60.2101 244.11 60.1374 244.113 60.0643V54.8816C244.11 54.808 244.123 54.7346 244.15 54.666C244.177 54.5974 244.217 54.5351 244.27 54.4831C244.38 54.3854 244.522 54.3314 244.669 54.3314C244.817 54.3314 244.959 54.3854 245.069 54.4831C245.121 54.5354 245.161 54.5978 245.187 54.6664C245.214 54.735 245.226 54.8083 245.222 54.8816V60.0643C245.224 60.137 245.212 60.2094 245.186 60.2772C245.159 60.345 245.12 60.4069 245.069 60.4591C245.017 60.5114 244.954 60.5523 244.885 60.5791C244.816 60.6059 244.742 60.618 244.668 60.6146ZM244.668 62.7734C244.595 62.7759 244.521 62.7634 244.453 62.7366C244.384 62.7099 244.322 62.6694 244.27 62.6178C244.218 62.5663 244.177 62.5047 244.15 62.4368C244.123 62.3689 244.11 62.2961 244.113 62.2231V57.4081C244.11 57.3344 244.123 57.261 244.15 57.1924C244.177 57.1239 244.217 57.0616 244.27 57.0095C244.38 56.9118 244.522 56.8578 244.669 56.8578C244.817 56.8578 244.959 56.9118 245.069 57.0095C245.121 57.0618 245.161 57.1242 245.187 57.1928C245.214 57.2614 245.226 57.3347 245.222 57.4081V62.2231C245.224 62.2957 245.212 62.3681 245.186 62.436C245.159 62.5038 245.12 62.5656 245.069 62.6178C245.017 62.6701 244.954 62.711 244.885 62.7378C244.816 62.7646 244.742 62.7767 244.668 62.7734ZM249.145 62.7734C249.071 62.7758 248.998 62.7633 248.93 62.7365C248.861 62.7098 248.799 62.6694 248.746 62.6178C248.695 62.5663 248.654 62.5047 248.627 62.4367C248.6 62.3688 248.587 62.2961 248.589 62.2231V59.5681C248.605 59.2186 248.526 58.8714 248.362 58.5626C248.22 58.3124 248.005 58.1111 247.746 57.9853C247.468 57.8557 247.164 57.7911 246.858 57.7964C246.572 57.792 246.289 57.8545 246.031 57.9789C245.796 58.0905 245.593 58.2599 245.442 58.4713C245.296 58.6784 245.22 58.9265 245.225 59.1798H244.537C244.531 58.7514 244.646 58.3301 244.87 57.9648C245.093 57.6069 245.406 57.3145 245.779 57.1175C246.178 56.9048 246.624 56.7969 247.076 56.8038C247.544 56.7995 248.005 56.9084 248.421 57.1213C248.819 57.3337 249.144 57.6589 249.357 58.0561C249.599 58.5224 249.718 59.0429 249.702 59.5681V62.2231C249.704 62.2961 249.691 62.3689 249.664 62.4368C249.637 62.5047 249.597 62.5663 249.545 62.6178C249.492 62.6694 249.43 62.7099 249.362 62.7366C249.293 62.7634 249.218 62.7759 249.145 62.7734Z" fill="black"/>
<path d="M253.384 55.8948C253.289 55.8956 253.196 55.8774 253.109 55.8414C253.022 55.8054 252.943 55.7523 252.877 55.6852C252.809 55.6206 252.755 55.5426 252.719 55.456C252.682 55.3695 252.665 55.2764 252.666 55.1825C252.667 54.9929 252.744 54.8116 252.879 54.6781C253.013 54.5446 253.195 54.4699 253.385 54.4702C253.479 54.4693 253.573 54.4874 253.66 54.5234C253.747 54.5594 253.826 54.6126 253.893 54.6798C253.961 54.7442 254.015 54.8223 254.051 54.9089C254.088 54.9954 254.105 55.0887 254.104 55.1825C254.102 55.3721 254.026 55.5535 253.891 55.687C253.756 55.8204 253.573 55.8952 253.384 55.8948ZM253.384 62.7605C253.31 62.763 253.237 62.7504 253.168 62.7237C253.1 62.6969 253.037 62.6566 252.985 62.605C252.933 62.5535 252.893 62.4918 252.866 62.4239C252.839 62.356 252.826 62.2833 252.828 62.2103V57.4055C252.825 57.3318 252.837 57.2582 252.864 57.1895C252.891 57.1208 252.932 57.0586 252.985 57.007C253.095 56.9093 253.238 56.8553 253.385 56.8553C253.532 56.8553 253.674 56.9093 253.785 57.007C253.836 57.0593 253.877 57.1217 253.903 57.1903C253.929 57.2589 253.941 57.3322 253.938 57.4055V62.2103C253.94 62.2829 253.928 62.3553 253.901 62.4231C253.875 62.4909 253.835 62.5528 253.785 62.605C253.732 62.6573 253.67 62.6982 253.601 62.725C253.531 62.7517 253.458 62.7639 253.384 62.7605Z" fill="black"/>
<path d="M257.654 62.7386C257.58 62.7411 257.507 62.7286 257.438 62.7019C257.37 62.6751 257.307 62.6347 257.255 62.583C257.203 62.5316 257.162 62.47 257.135 62.402C257.108 62.3341 257.096 62.2614 257.098 62.1883V57.3746C257.095 57.3009 257.107 57.2272 257.134 57.1585C257.161 57.0898 257.202 57.0276 257.255 56.976C257.365 56.8783 257.508 56.8244 257.655 56.8244C257.802 56.8244 257.944 56.8783 258.055 56.976C258.106 57.0284 258.147 57.0908 258.173 57.1593C258.199 57.2279 258.211 57.3012 258.208 57.3746V62.1896C258.21 62.2623 258.198 62.3347 258.171 62.4026C258.145 62.4704 258.105 62.5322 258.055 62.5843C258.002 62.6364 257.939 62.6771 257.87 62.7036C257.801 62.7302 257.728 62.7421 257.654 62.7386ZM262.131 62.7386C262.057 62.7411 261.984 62.7286 261.915 62.7019C261.847 62.6751 261.784 62.6347 261.732 62.583C261.68 62.5316 261.639 62.47 261.612 62.402C261.585 62.3341 261.573 62.2614 261.575 62.1883V59.5346C261.59 59.1852 261.512 58.838 261.348 58.5292C261.205 58.2789 260.991 58.0776 260.732 57.9519C260.454 57.8223 260.15 57.7576 259.843 57.7629C259.557 57.7586 259.274 57.8211 259.017 57.9455C258.782 58.0571 258.579 58.2265 258.428 58.4379C258.282 58.6449 258.205 58.8931 258.21 59.1463H257.522C257.517 58.7178 257.633 58.2965 257.857 57.9313C258.079 57.5733 258.393 57.2809 258.766 57.084C259.165 56.8713 259.611 56.7634 260.063 56.7703C260.53 56.766 260.992 56.875 261.408 57.0879C261.805 57.3012 262.13 57.6262 262.344 58.0226C262.586 58.489 262.704 59.0096 262.687 59.5346V62.1896C262.69 62.263 262.677 62.336 262.65 62.4042C262.622 62.4723 262.582 62.5342 262.529 62.5858C262.477 62.6375 262.415 62.6778 262.347 62.7043C262.278 62.7308 262.205 62.7429 262.132 62.7399L262.131 62.7386Z" fill="black"/>
<path d="M268.101 62.7399C267.601 62.7521 267.108 62.6232 266.677 62.3678C266.247 62.1124 265.898 61.7409 265.67 61.2961C265.423 60.8198 265.298 60.2895 265.308 59.7532C265.297 59.2088 265.43 58.6712 265.694 58.1949C265.946 57.7524 266.313 57.3864 266.756 57.1355C267.233 56.8719 267.771 56.7388 268.316 56.7498C268.855 56.7393 269.387 56.8724 269.858 57.1355C270.302 57.3853 270.67 57.7517 270.92 58.1949C271.185 58.671 271.318 59.2088 271.306 59.7532H270.663C270.673 60.2863 270.559 60.8143 270.33 61.2961C270.127 61.724 269.813 62.0898 269.421 62.3555C269.03 62.6131 268.57 62.747 268.101 62.7399ZM268.299 65.1493C267.799 65.1528 267.305 65.0493 266.849 64.8459C266.402 64.6468 266.01 64.344 265.704 63.9626C265.66 63.9116 265.627 63.851 265.609 63.7855C265.591 63.72 265.589 63.6513 265.601 63.5846C265.614 63.5208 265.639 63.4602 265.675 63.4063C265.711 63.3524 265.758 63.3064 265.812 63.2709C265.871 63.2292 265.937 63.2 266.008 63.1849C266.078 63.1699 266.151 63.1694 266.221 63.1835C266.359 63.2093 266.482 63.2865 266.564 63.3995C266.764 63.6455 267.018 63.8417 267.306 63.9729C267.626 64.1135 267.972 64.1837 268.321 64.1786C268.658 64.1811 268.99 64.0951 269.284 63.9292C269.583 63.7564 269.826 63.5011 269.984 63.1938C270.167 62.8252 270.256 62.417 270.242 62.0058V60.4732L270.603 59.5218L271.311 59.7481V62.0791C271.317 62.6179 271.184 63.1491 270.926 63.6219C270.677 64.0796 270.311 64.4621 269.864 64.7289C269.387 65.0085 268.843 65.1509 268.291 65.1403L268.299 65.1493ZM268.319 61.7692C268.67 61.7764 269.016 61.6875 269.32 61.512C269.608 61.3412 269.843 61.0949 270.001 60.7998C270.169 60.4774 270.254 60.118 270.247 59.7545C270.253 59.3886 270.169 59.0267 270.001 58.7015C269.845 58.4032 269.609 58.1542 269.32 57.9828C269.014 57.8123 268.669 57.7228 268.319 57.7228C267.969 57.7228 267.624 57.8123 267.318 57.9828C267.027 58.1549 266.789 58.4035 266.63 58.7015C266.457 59.0251 266.368 59.3874 266.373 59.7545C266.367 60.1192 266.456 60.4792 266.63 60.7998C266.789 61.096 267.027 61.3424 267.318 61.512C267.622 61.687 267.968 61.7755 268.318 61.7679L268.319 61.7692Z" fill="black"/>
<path d="M274.523 56.8797C274.348 56.881 274.179 56.8131 274.054 56.6907C273.99 56.6326 273.939 56.5616 273.905 56.4825C273.871 56.4033 273.854 56.3178 273.856 56.2317C273.853 56.0879 273.871 55.9446 273.91 55.8061C273.949 55.6765 273.979 55.5447 274.002 55.4114C274.029 55.2481 274.027 55.0815 273.996 54.919C273.948 54.6713 273.872 54.4301 273.768 54.2002C273.739 54.1498 273.725 54.0924 273.726 54.0341C273.727 53.9759 273.744 53.9191 273.775 53.8698C273.8 53.8216 273.838 53.7815 273.885 53.754C273.932 53.7264 273.985 53.7127 274.04 53.7142C274.116 53.7243 274.19 53.7502 274.257 53.7903C274.323 53.8303 274.381 53.8836 274.425 53.9469C274.577 54.1251 274.707 54.3211 274.811 54.5307C274.931 54.7616 275.031 55.002 275.111 55.2494C275.182 55.4564 275.223 55.6732 275.23 55.8922C275.239 56.1392 275.176 56.3835 275.046 56.5942C274.992 56.6833 274.914 56.7562 274.822 56.8055C274.73 56.8547 274.626 56.8786 274.522 56.8745L274.523 56.8797ZM276.157 56.8797C275.982 56.881 275.813 56.8131 275.688 56.6907C275.624 56.6326 275.574 56.5616 275.539 56.4825C275.505 56.4033 275.488 56.3178 275.49 56.2317C275.487 56.0879 275.505 55.9446 275.544 55.8061C275.582 55.6765 275.613 55.5447 275.635 55.4114C275.66 55.248 275.658 55.0816 275.629 54.919C275.581 54.6713 275.505 54.4301 275.401 54.2002C275.372 54.1498 275.357 54.0924 275.359 54.0341C275.36 53.9759 275.377 53.9191 275.408 53.8698C275.433 53.8216 275.471 53.7815 275.518 53.754C275.565 53.7264 275.618 53.7127 275.673 53.7142C275.749 53.7243 275.823 53.7502 275.89 53.7903C275.956 53.8303 276.013 53.8836 276.058 53.9469C276.21 54.125 276.34 54.3211 276.444 54.5307C276.563 54.7616 276.664 55.0019 276.744 55.2494C276.817 55.456 276.857 55.673 276.863 55.8922C276.872 56.1392 276.808 56.3835 276.679 56.5942C276.625 56.6833 276.547 56.7562 276.455 56.8055C276.363 56.8547 276.259 56.8786 276.155 56.8745L276.157 56.8797Z" fill="black"/>
<path d="M42.4106 72.4008C41.6697 72.4009 40.9439 72.1917 40.3168 71.7971C39.6897 71.4026 39.1869 70.8388 38.8664 70.1709C38.5458 69.5029 38.4206 68.758 38.5052 68.0219C38.5897 67.2859 38.8806 66.5887 39.3442 66.0108L46.3308 57.3065C46.9829 56.4927 47.9316 55.9714 48.9682 55.8571C50.0047 55.7428 51.0443 56.0449 51.858 56.6971C52.6718 57.3492 53.1932 58.298 53.3075 59.3345C53.4218 60.3711 53.1196 61.4106 52.4675 62.2244L45.4809 70.9287C45.1125 71.3888 44.6452 71.7601 44.1137 72.015C43.5822 72.2698 43.0001 72.4017 42.4106 72.4008Z" fill="#0DCAF0"/>
<path d="M70.8326 44.4661C68.5126 44.4649 66.2301 43.8799 64.1955 42.7648C62.161 41.6497 60.4398 40.0405 59.1906 38.0855C57.9414 36.1304 57.2043 33.8924 57.0473 31.5776C56.8903 29.2629 57.3184 26.9458 58.2922 24.84C59.266 22.7342 60.7541 20.9073 62.6194 19.5277C64.4847 18.1481 66.6673 17.2601 68.966 16.9457C71.2646 16.6312 73.6055 16.9004 75.7728 17.7283C77.9401 18.5562 79.8642 19.9163 81.3678 21.6833C81.8592 22.2594 82.1098 23.0026 82.0677 23.7587C82.0256 24.5148 81.6939 25.2256 81.1415 25.7435L75.6759 30.8735C75.1061 31.4092 74.3468 31.6967 73.5651 31.6725C72.7834 31.6484 72.0433 31.3148 71.5076 30.745C70.9719 30.1752 70.6845 29.4159 70.7086 28.6342C70.7327 27.8525 71.0664 27.1124 71.6362 26.5767L74.6872 23.7121C73.3741 22.9825 71.8807 22.641 70.381 22.7274C68.8812 22.8138 67.4369 23.3245 66.2163 24.2001C64.9956 25.0756 64.0488 26.2799 63.4862 27.6728C62.9235 29.0657 62.7682 30.5897 63.0383 32.0674C63.3084 33.5451 63.9928 34.9157 65.0118 36.0195C66.0307 37.1233 67.3423 37.9148 68.7938 38.3019C70.2453 38.6891 71.7768 38.6559 73.2101 38.2061C74.6434 37.7564 75.9195 36.9088 76.8896 35.7618C77.4017 35.1883 78.1175 34.8374 78.8845 34.7839C79.6515 34.7305 80.409 34.9786 80.9958 35.4755C81.5825 35.9723 81.952 36.6787 82.0256 37.444C82.0992 38.2093 81.871 38.9731 81.3896 39.5727C80.091 41.1075 78.4731 42.3405 76.6489 43.1857C74.8247 44.0309 72.838 44.4678 70.8275 44.4661H70.8326Z" fill="#F96D52"/>
<path d="M70.5127 59.3997C65.6626 59.3968 60.8912 58.1732 56.6382 55.8419C52.3852 53.5105 48.7874 50.1463 46.1761 46.0592C43.5649 41.9721 42.0242 37.2935 41.6961 32.4545C41.368 27.6155 42.263 22.7718 44.2986 18.3696C46.3343 13.9674 49.4451 10.1483 53.3444 7.26417C57.2438 4.38004 61.8063 2.52364 66.6116 1.86602C71.4169 1.2084 76.3104 1.7707 80.8413 3.50112C85.3722 5.23154 89.3947 8.07442 92.5382 11.7678C93.2142 12.5624 93.547 13.5929 93.4632 14.6327C93.3794 15.6725 92.886 16.6365 92.0914 17.3125C91.2969 17.9885 90.2664 18.3212 89.2266 18.2374C88.1868 18.1536 87.2228 17.6602 86.5468 16.8657C83.7553 13.5841 80.0236 11.2385 75.8561 10.146C71.6887 9.05342 67.2862 9.26651 63.2438 10.7565C59.2013 12.2464 55.7136 14.9414 53.2521 18.4773C50.7905 22.0131 49.4737 26.2194 49.4796 30.5277C49.4855 34.836 50.8139 39.0387 53.2851 42.5678C55.7563 46.0969 59.2513 48.7823 63.2979 50.2612C67.3444 51.7401 71.7474 51.9411 75.9119 50.8371C80.0763 49.7331 83.8015 47.3774 86.5841 44.0881C87.2582 43.2919 88.2211 42.7961 89.2608 42.7098C90.3005 42.6235 91.3319 42.9537 92.1281 43.6278C92.9243 44.302 93.4201 45.2648 93.5064 46.3045C93.5928 47.3442 93.2625 48.3756 92.5884 49.1718C89.8737 52.38 86.4919 54.9574 82.6786 56.7241C78.8654 58.4908 74.7127 59.4044 70.5101 59.401L70.5127 59.3997Z" fill="#0DCAF0"/>
</svg>
