<svg width="330" height="74" viewBox="0 0 330 74" fill="none" xmlns="http://www.w3.org/2000/svg">
<path d="M134.293 58.149C131.882 58.1979 129.492 57.699 127.302 56.6899C125.365 55.7987 123.706 54.3977 122.504 52.6369C121.312 50.828 120.701 48.699 120.751 46.5336V40.9986C120.735 38.9902 121.314 37.022 122.414 35.3415C123.522 33.6302 125.035 32.218 126.818 31.2294C128.668 30.1943 130.756 29.6611 132.876 29.6826C134.884 29.6605 136.867 30.1307 138.651 31.0521C140.367 31.9357 141.824 33.2502 142.879 34.8667C143.956 36.5307 144.514 38.4772 144.481 40.4589C144.58 41.6736 144.315 42.8901 143.719 43.953C143.488 44.2867 143.195 44.572 142.854 44.7922C142.514 45.0125 142.134 45.1635 141.735 45.2367C140.89 45.3947 140.031 45.4725 139.172 45.4693H126.875V46.8044C126.841 47.69 127.016 48.5712 127.386 49.3767C127.756 50.1822 128.31 50.8895 129.004 51.4411C130.566 52.6351 132.493 53.2522 134.459 53.1881C135.596 53.2293 136.729 53.0299 137.783 52.6026C138.522 52.275 139.243 51.9056 139.94 51.4964C140.426 51.177 140.99 50.9951 141.571 50.97C142.042 50.9573 142.501 51.1236 142.855 51.4354C143.202 51.7425 143.481 52.1194 143.673 52.5415C143.851 52.9051 143.95 53.3023 143.965 53.7069C143.909 54.0929 143.774 54.4632 143.568 54.7944C143.362 55.1257 143.09 55.4105 142.769 55.6313C141.777 56.4374 140.637 57.042 139.414 57.4109C137.758 57.9308 136.028 58.18 134.293 58.149ZM126.885 41.7005H136.568C137.163 41.7614 137.762 41.6389 138.285 41.3496C138.455 41.1622 138.582 40.9402 138.658 40.6988C138.734 40.4574 138.756 40.2025 138.723 39.9516C138.725 38.9595 138.462 37.9849 137.96 37.1287C137.466 36.2654 136.739 35.5582 135.862 35.0879C134.931 34.5929 133.889 34.3423 132.834 34.3594C131.8 34.3462 130.778 34.5858 129.858 35.0574C128.986 35.5042 128.243 36.1675 127.701 36.9838C127.146 37.8329 126.86 38.8303 126.883 39.8447L126.885 41.7005Z" fill="#51B176"/>
<path d="M162.81 58.0271C160.52 58.065 158.247 57.6279 156.135 56.7434C154.181 55.8933 152.548 54.4422 151.475 52.6008C150.226 50.276 149.633 47.6554 149.759 45.0193V28.0444C149.635 25.4078 150.228 22.787 151.475 20.4609C152.549 18.6203 154.181 17.1698 156.135 16.3203C158.19 15.4466 160.404 15.0094 162.637 15.0366C165.02 14.9837 167.386 15.4388 169.579 16.3717C171.44 17.1711 173.05 18.4588 174.239 20.0985C175.393 21.7794 175.985 23.7824 175.931 25.8204C175.985 26.2482 175.942 26.6827 175.806 27.0918C175.67 27.5008 175.443 27.874 175.143 28.1836C174.464 28.6377 173.654 28.8531 172.839 28.7958C172.105 28.8125 171.378 28.6626 170.71 28.3572C170.413 28.2101 170.165 27.9802 169.996 27.6952C169.827 27.4103 169.744 27.0824 169.757 26.7513C169.653 25.6739 169.377 24.6204 168.939 23.631C168.5 22.6681 167.765 21.8707 166.84 21.3554C165.593 20.7422 164.21 20.4561 162.822 20.5239C161.891 20.4701 160.959 20.6052 160.082 20.9212C159.205 21.2372 158.401 21.7275 157.718 22.3625C157.05 23.1393 156.544 24.0417 156.229 25.0167C155.915 25.9918 155.798 27.0198 155.887 28.0405V45.0155C155.802 46.038 155.921 47.0672 156.236 48.0435C156.552 49.0198 157.058 49.9238 157.726 50.703C159.155 51.8894 160.954 52.5387 162.811 52.5387C164.669 52.5387 166.468 51.8894 167.897 50.703C168.574 49.9291 169.089 49.0266 169.409 48.0493C169.729 47.072 169.849 46.0401 169.761 45.0155V40.232H163.878C163.59 40.2411 163.304 40.1757 163.049 40.042C162.793 39.9084 162.576 39.711 162.419 39.469C162.065 38.9554 161.881 38.3439 161.891 37.7201C161.894 37.1261 162.077 36.5471 162.416 36.0589C162.568 35.811 162.783 35.6076 163.04 35.4694C163.296 35.3311 163.584 35.2627 163.875 35.2711H173.907C174.191 35.2511 174.476 35.2957 174.74 35.4014C175.004 35.5071 175.241 35.6712 175.433 35.8814C175.786 36.2961 175.973 36.8266 175.959 37.3711V45.0136C176.083 47.6534 175.478 50.2764 174.21 52.5951C173.113 54.4404 171.459 55.8906 169.486 56.7377C167.373 57.6224 165.101 58.0614 162.81 58.0271Z" fill="#51B176"/>
<path d="M184.749 57.6793C183.988 57.7081 183.238 57.482 182.62 57.0366C182.378 56.8876 182.176 56.683 182.029 56.4399C181.882 56.1967 181.795 55.9219 181.775 55.6385V32.0148C181.778 31.723 181.857 31.437 182.005 31.1858C182.154 30.9346 182.366 30.7271 182.62 30.5843C183.26 30.1943 184 30.0012 184.749 30.0292C185.45 30.0087 186.142 30.2024 186.731 30.5843C186.979 30.7314 187.185 30.9406 187.329 31.1914C187.472 31.4422 187.548 31.7259 187.549 32.0148V34.5782C188.005 33.7226 188.583 32.938 189.265 32.2493C190.002 31.4979 190.86 30.8763 191.804 30.4107C192.783 29.923 193.864 29.6733 194.959 29.6821H196.822C197.135 29.6858 197.443 29.7583 197.725 29.8944C198.007 30.0306 198.255 30.227 198.453 30.4699C198.917 30.9908 199.166 31.6681 199.151 32.3656C199.164 33.0713 198.915 33.7567 198.453 34.2902C198.26 34.5402 198.013 34.7434 197.731 34.8848C197.448 35.0261 197.138 35.1019 196.822 35.1064H194.953C193.747 35.1191 192.571 35.4845 191.569 36.1574C190.447 36.8954 189.533 37.9103 188.916 39.1041C188.2 40.5212 187.85 42.0947 187.896 43.6817V55.6385C187.872 55.928 187.777 56.2072 187.62 56.4512C187.462 56.6951 187.246 56.8962 186.992 57.0366C186.331 57.4821 185.546 57.707 184.749 57.6793Z" fill="#51B176"/>
<path d="M212.686 58.1468C210.61 58.1537 208.572 57.5895 206.796 56.516C205.003 55.4624 203.492 53.9915 202.39 52.2284C201.304 50.5305 200.727 48.5566 200.729 46.5409V41.1833C200.715 39.1634 201.27 37.1804 202.331 35.4614C204.002 32.7832 206.641 30.8524 209.699 30.0708C212.758 29.2893 216 29.7171 218.751 31.2653C220.527 32.2662 222.036 33.6808 223.149 35.389C224.26 37.1075 224.839 39.116 224.812 41.1623V46.52C224.808 48.5285 224.231 50.4943 223.149 52.1865C222.051 53.968 220.53 55.4511 218.722 56.5046C216.897 57.5903 214.81 58.158 212.686 58.1468ZM212.745 52.7224C213.801 52.7313 214.837 52.4267 215.72 51.847C216.615 51.2639 217.355 50.4735 217.879 49.5429C218.411 48.6312 218.693 47.5947 218.695 46.5389V41.1814C218.698 40.1436 218.415 39.125 217.879 38.2365C217.343 37.331 216.604 36.562 215.72 35.9898C214.819 35.4053 213.765 35.1006 212.691 35.1143C211.644 35.1024 210.617 35.4077 209.746 35.9898C208.88 36.5635 208.162 37.3332 207.648 38.2365C207.128 39.1303 206.856 40.1471 206.861 41.1814V46.5389C206.861 47.5907 207.132 48.6247 207.648 49.5411C208.154 50.4745 208.885 51.2666 209.775 51.8451C210.655 52.4274 211.688 52.736 212.743 52.7319L212.745 52.7224Z" fill="#51B176"/>
<path d="M241.324 58.1489C238.928 58.2375 236.549 57.7122 234.412 56.623C232.683 55.6956 231.286 54.2522 230.416 52.4937C229.537 50.6358 229.098 48.6001 229.133 46.5449V41.2941C229.106 39.2513 229.545 37.2292 230.416 35.3815C231.27 33.6127 232.655 32.1544 234.378 31.2103C236.483 30.1213 238.834 29.5957 241.202 29.6844C242.791 29.6561 244.374 29.8728 245.896 30.3272C247.04 30.6514 248.111 31.1957 249.047 31.9293C249.375 32.1588 249.648 32.4583 249.846 32.8064C250.044 33.1544 250.162 33.5422 250.191 33.9415C250.169 34.3766 250.059 34.8028 249.869 35.1946C249.669 35.6619 249.37 36.0803 248.993 36.421C248.635 36.747 248.166 36.9243 247.681 36.9169C247.226 36.8942 246.788 36.7317 246.428 36.4515C245.871 36.0843 245.274 35.781 244.649 35.5474C243.692 35.222 242.683 35.0734 241.673 35.1088C240.798 35.0375 239.917 35.1453 239.085 35.4257C238.253 35.706 237.486 36.1531 236.833 36.7395C236.283 37.356 235.862 38.0761 235.594 38.8576C235.327 39.6391 235.218 40.4662 235.274 41.2903V46.5411C235.175 48.2069 235.742 49.8438 236.85 51.0919C237.511 51.6829 238.286 52.1324 239.127 52.4128C239.969 52.6933 240.858 52.7987 241.742 52.7226C242.775 52.7667 243.806 52.5978 244.771 52.2267C245.391 51.9626 245.987 51.6435 246.55 51.273C246.942 50.969 247.424 50.804 247.92 50.804C248.415 50.804 248.897 50.969 249.289 51.273C249.692 51.5776 250.013 51.9783 250.222 52.4384C250.42 52.8383 250.53 53.276 250.544 53.722C250.501 54.1275 250.372 54.5192 250.166 54.8711C249.96 55.223 249.681 55.527 249.348 55.7628C248.388 56.5486 247.278 57.1325 246.087 57.4794C244.544 57.9503 242.937 58.1762 241.324 58.1489Z" fill="#51B176"/>
<path d="M267.109 58.149C264.699 58.1977 262.31 57.6988 260.12 56.6899C258.189 55.7956 256.536 54.3951 255.337 52.6369C254.146 50.828 253.536 48.6987 253.588 46.5336V40.9986C253.573 38.9905 254.151 37.0226 255.249 35.3415C256.358 33.6297 257.871 32.2173 259.655 31.2294C261.505 30.1937 263.593 29.6605 265.713 29.6826C267.721 29.6604 269.704 30.1306 271.488 31.0521C273.204 31.9358 274.661 33.2502 275.716 34.8667C276.794 36.5303 277.353 38.4768 277.322 40.4589C277.423 41.6737 277.157 42.8906 276.559 43.953C276.095 44.6265 275.382 45.0882 274.578 45.2367C273.733 45.3947 272.874 45.4725 272.014 45.4693H259.701V46.8044C259.667 47.6899 259.842 48.5709 260.211 49.3764C260.58 50.1819 261.134 50.8892 261.828 51.4411C263.39 52.6355 265.317 53.2527 267.282 53.1881C268.419 53.2293 269.552 53.0299 270.607 52.6026C271.347 52.2745 272.067 51.9052 272.766 51.4964C273.252 51.1766 273.815 50.9947 274.397 50.97C274.868 50.9573 275.327 51.1236 275.68 51.4354C276.026 51.7434 276.303 52.1201 276.495 52.5415C276.673 52.9051 276.772 53.3023 276.786 53.7069C276.731 54.0929 276.596 54.4632 276.39 54.7944C276.184 55.1257 275.912 55.4106 275.591 55.6313C274.599 56.4374 273.459 57.042 272.236 57.4109C270.578 57.9315 268.846 58.1807 267.109 58.149ZM259.703 41.7005H269.386C269.981 41.7614 270.58 41.6389 271.103 41.3496C271.273 41.1624 271.4 40.9404 271.476 40.6989C271.552 40.4575 271.574 40.2025 271.541 39.9516C271.543 38.9595 271.28 37.9848 270.778 37.1287C270.284 36.2654 269.557 35.5583 268.68 35.0879C267.749 34.593 266.707 34.3424 265.652 34.3594C264.618 34.3462 263.596 34.5858 262.676 35.0574C261.805 35.5051 261.062 36.1682 260.519 36.9838C259.964 37.8331 259.68 38.8305 259.703 39.8447V41.7005Z" fill="#51B176"/>
<path d="M285.307 57.6811C284.545 57.7099 283.796 57.4838 283.178 57.0384C282.936 56.8894 282.733 56.6848 282.586 56.4417C282.439 56.1985 282.352 55.9237 282.333 55.6403V32.0147C282.336 31.723 282.415 31.4372 282.563 31.186C282.712 30.9348 282.924 30.7272 283.178 30.5843C283.818 30.1948 284.558 30.0017 285.307 30.0292C286.009 30.0084 286.702 30.202 287.292 30.5843C287.54 30.7321 287.745 30.9416 287.888 31.1923C288.03 31.4429 288.106 31.7263 288.106 32.0147V34.5781C288.563 33.7226 289.141 32.9381 289.823 32.2493C290.559 31.4975 291.416 30.8758 292.36 30.4107C293.338 29.9239 294.416 29.6743 295.509 29.6821H297.372C297.685 29.6852 297.994 29.7575 298.276 29.8937C298.557 30.0299 298.806 30.2266 299.003 30.4698C299.467 30.9908 299.716 31.6681 299.701 32.3656C299.713 33.0712 299.465 33.7567 299.003 34.2901C298.81 34.5401 298.563 34.7434 298.281 34.8847C297.998 35.0261 297.688 35.1018 297.372 35.1064H295.509C294.302 35.1189 293.126 35.4843 292.125 36.1574C291.001 36.8949 290.086 37.9098 289.468 39.1041C288.752 40.5212 288.402 42.0947 288.448 43.6816V55.6384C288.424 55.928 288.33 56.2073 288.172 56.4512C288.014 56.6952 287.798 56.8963 287.544 57.0365C286.884 57.4816 286.102 57.7071 285.307 57.6811Z" fill="#51B176"/>
<mask id="mask0_2859_4107" style="mask-type:luminance" maskUnits="userSpaceOnUse" x="28" y="0" width="76" height="73">
<path d="M103.039 0.820801H28.6465V72.2775H103.039V0.820801Z" fill="white"/>
</mask>
<g mask="url(#mask0_2859_4107)">
<path d="M45.4597 25.4012C45.276 25.4012 45.0964 25.4557 44.9436 25.5578C44.7909 25.6599 44.6718 25.8049 44.6015 25.9746C44.5312 26.1444 44.5128 26.3311 44.5487 26.5113C44.5845 26.6915 44.673 26.857 44.8029 26.9869C44.9328 27.1168 45.0983 27.2053 45.2785 27.2411C45.4586 27.2769 45.6454 27.2585 45.8151 27.1882C45.9848 27.1179 46.1299 26.9989 46.232 26.8461C46.334 26.6934 46.3885 26.5138 46.3885 26.3301C46.3885 26.0838 46.2907 25.8475 46.1165 25.6733C45.9423 25.4991 45.706 25.4012 45.4597 25.4012ZM86.3406 25.4012C86.1569 25.4012 85.9773 25.4557 85.8245 25.5578C85.6718 25.6599 85.5527 25.8049 85.4824 25.9746C85.4121 26.1444 85.3937 26.3311 85.4296 26.5113C85.4654 26.6915 85.5539 26.857 85.6838 26.9869C85.8137 27.1168 85.9792 27.2053 86.1594 27.2411C86.3396 27.2769 86.5263 27.2585 86.696 27.1882C86.8658 27.1179 87.0108 26.9989 87.1129 26.8461C87.215 26.6934 87.2694 26.5138 87.2694 26.3301C87.2694 26.0838 87.1716 25.8475 86.9974 25.6733C86.8232 25.4991 86.5869 25.4012 86.3406 25.4012ZM86.3406 25.4012C86.1569 25.4012 85.9773 25.4557 85.8245 25.5578C85.6718 25.6599 85.5527 25.8049 85.4824 25.9746C85.4121 26.1444 85.3937 26.3311 85.4296 26.5113C85.4654 26.6915 85.5539 26.857 85.6838 26.9869C85.8137 27.1168 85.9792 27.2053 86.1594 27.2411C86.3396 27.2769 86.5263 27.2585 86.696 27.1882C86.8658 27.1179 87.0108 26.9989 87.1129 26.8461C87.215 26.6934 87.2694 26.5138 87.2694 26.3301C87.2694 26.0838 87.1716 25.8475 86.9974 25.6733C86.8232 25.4991 86.5869 25.4012 86.3406 25.4012ZM45.4597 25.4012C45.276 25.4012 45.0964 25.4557 44.9436 25.5578C44.7909 25.6599 44.6718 25.8049 44.6015 25.9746C44.5312 26.1444 44.5128 26.3311 44.5487 26.5113C44.5845 26.6915 44.673 26.857 44.8029 26.9869C44.9328 27.1168 45.0983 27.2053 45.2785 27.2411C45.4586 27.2769 45.6454 27.2585 45.8151 27.1882C45.9848 27.1179 46.1299 26.9989 46.232 26.8461C46.334 26.6934 46.3885 26.5138 46.3885 26.3301C46.3885 26.0838 46.2907 25.8475 46.1165 25.6733C45.9423 25.4991 45.706 25.4012 45.4597 25.4012ZM94.6678 22.9046C92.8567 22.6587 91.026 22.5897 89.2015 22.6986C88.4119 22.6872 88.1086 22.4583 88.0667 21.6362C87.9923 20.551 87.8399 19.4725 87.6108 18.4091C86.8753 15.0568 85.3759 11.9196 83.2292 9.24173C81.0826 6.56389 78.3467 4.41775 75.2348 2.97049C72.1228 1.52323 68.7188 0.813903 65.2878 0.897773C61.8567 0.981642 58.4914 1.85644 55.4539 3.45402C52.0629 5.20909 49.1879 7.81759 47.1123 11.0224C45.0366 14.2271 43.832 17.9175 43.6172 21.7297C43.5486 22.5193 43.2358 22.7196 42.5301 22.7043C41.2846 22.6757 40.0372 22.6719 38.7937 22.7043C37.3806 22.7583 35.9929 23.0966 34.7137 23.6993C33.4344 24.3019 32.2899 25.1563 31.3485 26.2115C30.4071 27.2667 29.6882 28.5009 29.2348 29.8404C28.7814 31.1798 28.6028 32.5969 28.7098 34.007C29.036 36.7821 29.5338 39.5381 29.9496 42.3037C30.9146 48.7503 31.9389 55.1989 32.8429 61.6627C32.9351 63.2733 33.3547 64.8482 34.0762 66.2911C34.7976 67.7341 35.8058 69.0147 37.039 70.0548C39.1637 71.609 41.7562 72.3897 44.3859 72.2673C51.5407 72.2762 58.7001 72.2762 65.8639 72.2673C73.0639 72.2673 80.262 72.294 87.4602 72.2673C93.7409 72.2386 97.6718 68.9791 98.6655 62.7975C100.149 53.5186 101.469 44.2129 102.909 34.9244C103.342 32.2468 102.728 29.5053 101.195 27.2681C99.661 25.031 97.3253 23.4699 94.6716 22.9084M45.4597 28.266C45.0768 28.266 44.7025 28.1525 44.3841 27.9397C44.0658 27.727 43.8176 27.4247 43.6711 27.0709C43.5246 26.7172 43.4863 26.328 43.561 25.9524C43.6357 25.5769 43.82 25.232 44.0908 24.9612C44.3615 24.6905 44.7065 24.5061 45.082 24.4314C45.4575 24.3567 45.8468 24.395 46.2005 24.5416C46.5542 24.6881 46.8566 24.9362 47.0693 25.2546C47.282 25.5729 47.3956 25.9472 47.3956 26.3301C47.3956 26.8435 47.1916 27.3359 46.8286 27.699C46.4655 28.062 45.9731 28.266 45.4597 28.266ZM81.1451 48.3345C81.0053 48.8192 80.7237 49.251 80.3364 49.5743C79.8552 49.9661 79.2518 50.1767 78.6313 50.1694H66.0031C65.3307 50.1709 64.6851 49.9053 64.2084 49.4311C63.7317 48.9569 63.4627 48.3127 63.4607 47.6403C63.4585 47.3009 63.5247 46.9645 63.6555 46.6512C63.7862 46.338 63.9787 46.0543 64.2216 45.8172C64.4644 45.58 64.7526 45.3943 65.0689 45.271C65.3851 45.1477 65.723 45.0895 66.0622 45.0998H75.9039L75.6102 44.2663C75.0704 42.7401 74.1784 41.3627 73.0067 40.2457C71.1207 38.4445 68.613 37.4397 66.005 37.4401C65.8143 37.4401 65.6236 37.4401 65.4328 37.4553C62.8115 37.572 60.3364 38.6963 58.5238 40.5936C56.7113 42.491 55.7013 45.0148 55.7045 47.6388C55.7077 50.2628 56.7239 52.7842 58.541 54.6771C60.3582 56.57 62.836 57.6882 65.4576 57.7985C65.6484 57.7985 65.8257 57.8119 66.0088 57.8119H78.4272C78.7841 57.8119 79.1376 57.8822 79.4673 58.0188C79.7971 58.1554 80.0967 58.3556 80.3491 58.6079C80.6014 58.8603 80.8016 59.1599 80.9382 59.4897C81.0748 59.8194 81.1451 60.1729 81.1451 60.5298C81.1451 61.1501 80.8992 61.7452 80.4613 62.1846C80.0233 62.624 79.429 62.8718 78.8087 62.8738H66.0107C61.9673 62.8738 58.0895 61.2677 55.2302 58.4088C52.3709 55.5499 50.7644 51.6722 50.7638 47.6288C50.7638 47.3561 50.7638 47.0834 50.7848 46.8106C51.0147 43.0649 52.6066 39.5325 55.2604 36.879C57.9142 34.2256 61.4467 32.6342 65.1925 32.4048C65.4691 32.3896 65.7456 32.3819 66.0165 32.3819C69.7527 32.3833 73.3584 33.7565 76.1491 36.2409C78.9397 38.7253 80.7209 42.1479 81.1547 45.8589L81.1451 48.3345ZM81.8832 22.6853H65.7933C60.039 22.6853 54.2847 22.6681 48.5304 22.7024C47.6206 22.7024 47.3479 22.4964 47.4089 21.5275C47.7934 17.0463 49.7952 12.858 53.0408 9.74425C56.2863 6.63048 60.554 4.80393 65.0473 4.60544C69.5406 4.40695 73.9526 5.85008 77.4601 8.66555C80.9676 11.481 83.3309 15.4765 84.1091 19.9063C84.6622 22.6834 84.6622 22.6834 81.8851 22.6834M86.3425 28.266C85.9596 28.266 85.5853 28.1525 85.267 27.9397C84.9486 27.727 84.7005 27.4247 84.554 27.0709C84.4074 26.7172 84.3691 26.328 84.4438 25.9524C84.5185 25.5769 84.7029 25.232 84.9736 24.9612C85.2443 24.6905 85.5893 24.5061 85.9648 24.4314C86.3403 24.3567 86.7296 24.395 87.0833 24.5416C87.4371 24.6881 87.7394 24.9362 87.9521 25.2546C88.1649 25.5729 88.2784 25.9472 88.2784 26.3301C88.2784 26.8435 88.0744 27.3359 87.7114 27.699C87.3483 28.062 86.8559 28.266 86.3425 28.266ZM86.3425 25.4051C86.1588 25.4051 85.9792 25.4595 85.8265 25.5616C85.6737 25.6637 85.5546 25.8087 85.4843 25.9785C85.414 26.1482 85.3956 26.3349 85.4315 26.5151C85.4673 26.6953 85.5558 26.8608 85.6857 26.9907C85.8156 27.1206 85.9811 27.2091 86.1613 27.2449C86.3415 27.2808 86.5282 27.2624 86.6979 27.1921C86.8677 27.1218 87.0127 27.0027 87.1148 26.85C87.2169 26.6972 87.2713 26.5176 87.2713 26.3339C87.2713 26.0876 87.1735 25.8513 86.9993 25.6771C86.8251 25.5029 86.5888 25.4051 86.3425 25.4051ZM45.4616 25.4051C45.2779 25.4051 45.0983 25.4595 44.9455 25.5616C44.7928 25.6637 44.6737 25.8087 44.6034 25.9785C44.5331 26.1482 44.5147 26.3349 44.5506 26.5151C44.5864 26.6953 44.6749 26.8608 44.8048 26.9907C44.9347 27.1206 45.1002 27.2091 45.2804 27.2449C45.4605 27.2808 45.6473 27.2624 45.817 27.1921C45.9868 27.1218 46.1318 27.0027 46.2339 26.85C46.3359 26.6972 46.3904 26.5176 46.3904 26.3339C46.3904 26.0876 46.2926 25.8513 46.1184 25.6771C45.9442 25.5029 45.7079 25.4051 45.4616 25.4051ZM45.4616 25.4051C45.2779 25.4051 45.0983 25.4595 44.9455 25.5616C44.7928 25.6637 44.6737 25.8087 44.6034 25.9785C44.5331 26.1482 44.5147 26.3349 44.5506 26.5151C44.5864 26.6953 44.6749 26.8608 44.8048 26.9907C44.9347 27.1206 45.1002 27.2091 45.2804 27.2449C45.4605 27.2808 45.6473 27.2624 45.817 27.1921C45.9868 27.1218 46.1318 27.0027 46.2339 26.85C46.3359 26.6972 46.3904 26.5176 46.3904 26.3339C46.3904 26.0876 46.2926 25.8513 46.1184 25.6771C45.9442 25.5029 45.7079 25.4051 45.4616 25.4051ZM45.4616 25.4051C45.2779 25.4051 45.0983 25.4595 44.9455 25.5616C44.7928 25.6637 44.6737 25.8087 44.6034 25.9785C44.5331 26.1482 44.5147 26.3349 44.5506 26.5151C44.5864 26.6953 44.6749 26.8608 44.8048 26.9907C44.9347 27.1206 45.1002 27.2091 45.2804 27.2449C45.4605 27.2808 45.6473 27.2624 45.817 27.1921C45.9868 27.1218 46.1318 27.0027 46.2339 26.85C46.3359 26.6972 46.3904 26.5176 46.3904 26.3339C46.3904 26.0876 46.2926 25.8513 46.1184 25.6771C45.9442 25.5029 45.7079 25.4051 45.4616 25.4051Z" fill="#51B176"/>
</g>
</svg>
