<svg width="160" height="72" viewBox="0 0 160 72" fill="none" xmlns="http://www.w3.org/2000/svg">
<g clip-path="url(#clip0_997_2951)">
<mask id="mask0_997_2951" style="mask-type:luminance" maskUnits="userSpaceOnUse" x="0" y="0" width="72" height="72">
<path d="M72 0H0V72H72V0Z" fill="white"/>
</mask>
<g mask="url(#mask0_997_2951)">
<path d="M71.982 34.0913C71.8827 29.0241 71.5567 24.0023 70.782 18.99C70.378 16.3725 69.7967 13.6779 68.942 11.1519C68.2233 9.03133 67.1747 6.76587 65.3718 5.3386C64.7349 4.83429 63.9608 4.37198 63.0496 3.95167C61.8124 3.38055 60.5313 2.90942 59.2189 2.5428C54.6151 1.25513 49.7945 0.678733 45.0389 0.325133L43.7163 0.2436C38.5045 -0.0840227 33.2772 -0.0811727 28.0657 0.252133C27.5952 0.294889 27.1233 0.319022 26.6501 0.324533C26.5605 0.325533 26.4779 0.367267 26.3793 0.3738C22.8229 0.637933 19.1441 1.09667 15.6385 1.83607C14.2076 2.13745 12.7942 2.51693 11.4047 2.9728C9.77367 3.508 8.1436 4.22173 6.75467 5.24327C6.35292 5.53376 5.98893 5.87323 5.67117 6.2538L5.24343 6.7638C5.14413 6.8652 5.06391 6.9836 5.00663 7.11347L4.61057 7.69747C3.6831 9.26413 3.0485 10.9895 2.55177 12.7495C2.12954 14.2469 1.7803 15.7613 1.50403 17.293C0.6971 21.7668 0.256698 26.3618 0.111298 30.8565C0.0715647 32.0813 0.0199649 33.2789 0.00763153 34.4907C-0.0427018 39.3807 0.152565 44.3001 0.694033 49.1623C0.718167 49.3811 0.7807 49.6423 0.797167 49.8932C0.815787 50.1754 0.843473 50.4565 0.880233 50.7367C1.3281 54.1812 1.95217 57.6408 3.08297 60.9339C3.5817 62.3855 4.21323 63.8065 5.09043 65.0498C6.14423 66.5442 7.6942 67.5367 9.40673 68.27C12.1389 69.44 15.1025 70.1373 18.0259 70.6293C21.1125 71.1493 24.2244 71.506 27.3485 71.6993C27.4488 71.708 27.5495 71.71 27.65 71.7067L27.9751 71.75C29.1491 71.8147 30.3257 71.8927 31.5003 71.9313C35.6446 72.0667 39.7662 71.998 43.9054 71.7613C44.0159 71.7513 44.1257 71.7353 44.234 71.712L44.6207 71.702C47.7833 71.5053 50.9333 71.1407 54.0571 70.6093C57.0837 70.0933 60.1881 69.3787 62.9882 68.088C64.4682 67.4053 65.8859 66.4752 66.8147 65.1831C67.498 64.2204 68.0587 63.1764 68.484 62.0751C69.568 59.3177 70.2473 56.3951 70.7153 53.4785C71.242 50.1804 71.5953 46.8569 71.774 43.5218C71.9507 40.2624 72.0407 37.0855 71.982 34.0913ZM2.12883 51.0118C2.13012 51.0113 2.13155 51.0113 2.13283 51.0118C2.13359 51.0119 2.13428 51.0123 2.13483 51.0128C2.13286 51.0122 2.13082 51.0119 2.12877 51.0118M2.7649 22.0268C2.76543 22.0268 2.7659 22.0273 2.76643 22.0278C2.76697 22.0283 2.76843 22.0303 2.76943 22.0313L2.7649 22.0268ZM27.6199 71.444C27.621 71.444 27.622 71.4447 27.6229 71.4447C27.6253 71.4453 27.6277 71.446 27.6296 71.4473C27.6265 71.446 27.6233 71.4447 27.6201 71.444M69.15 49.8519C69.1513 49.8513 69.1533 49.851 69.1547 49.8509H69.1593C69.156 49.8511 69.1533 49.8514 69.15 49.8519ZM69.1627 21.846C69.1607 21.8464 69.1587 21.8466 69.1573 21.8465C69.1607 21.8465 69.164 21.846 69.1673 21.845C69.1653 21.8456 69.164 21.8459 69.1627 21.846ZM69.2107 50.6336C69.208 50.6359 69.2053 50.6379 69.2027 50.6397C69.206 50.6376 69.2087 50.6352 69.2107 50.6326C69.2107 50.6331 69.2107 50.6331 69.2107 50.6336Z" fill="url(#paint0_linear_997_2951)"/>
<mask id="mask1_997_2951" style="mask-type:luminance" maskUnits="userSpaceOnUse" x="11" y="11" width="50" height="50">
<path d="M61 11H11V61H61V11Z" fill="white"/>
</mask>
<g mask="url(#mask1_997_2951)">
<path d="M60.9665 54.0279C60.9667 55.3211 60.5831 56.5853 59.8643 57.6607C59.1457 58.736 58.1241 59.5741 56.9288 60.0691C55.7335 60.5641 54.4182 60.6937 53.1493 60.4414C51.8803 60.1891 50.7147 59.5665 49.7999 58.652C48.885 57.7376 48.2619 56.5725 48.0095 55.3041C47.7571 54.0357 47.8866 52.721 48.3817 51.5262C48.8768 50.3314 49.7152 49.3102 50.7909 48.5917C51.8667 47.8732 53.1314 47.4897 54.4252 47.4897C56.16 47.4897 57.8237 48.1786 59.0505 49.4047C60.2772 50.6308 60.9664 52.2938 60.9665 54.0279Z" fill="white"/>
<path d="M35.8251 42.4663L39.3329 38.9596C40.4497 37.6802 41.1681 36.1024 41.3999 34.4203C41.6316 32.7381 41.3665 31.025 40.6372 29.4914C39.9079 27.9578 38.7462 26.6707 37.2948 25.7883C35.8435 24.906 34.1658 24.4667 32.4681 24.5247C30.7703 24.5826 29.1265 25.1352 27.7387 26.1146C26.351 27.0938 25.2798 28.4572 24.6569 30.0369C24.0339 31.6166 23.8864 33.3439 24.2324 35.0063C24.5784 36.6688 25.4029 38.1938 26.6045 39.3942L20.4366 45.5588C18.8144 43.9413 17.5281 42.0193 16.6513 39.9033C15.7746 37.7873 15.3249 35.519 15.3279 33.2287C15.3279 23.5992 23.1372 15.7927 32.7715 15.7927C42.4059 15.7927 50.2143 23.5989 50.2143 33.2287C50.218 36.3388 49.3855 39.3928 47.8038 42.0712L50.968 45.234C53.3263 41.6744 54.5813 37.4982 54.5755 33.2287C54.5755 21.1914 44.8135 11.4331 32.7715 11.4331C20.7294 11.4331 10.9668 21.1914 10.9668 33.2287C10.9668 45.266 20.729 55.0245 32.7715 55.0245C37.0423 55.0301 41.2197 53.7758 44.7804 51.4188L35.8251 42.4663Z" fill="white"/>
</g>
</g>
</g>
<g clip-path="url(#clip1_997_2951)">
<mask id="mask2_997_2951" style="mask-type:luminance" maskUnits="userSpaceOnUse" x="88" y="0" width="72" height="72">
<path d="M160 0H88V72H160V0Z" fill="white"/>
</mask>
<g mask="url(#mask2_997_2951)">
<path d="M159.982 34.0913C159.883 29.0241 159.557 24.0023 158.782 18.99C158.378 16.3725 157.797 13.6779 156.942 11.1519C156.223 9.03133 155.175 6.76587 153.372 5.3386C152.735 4.83429 151.961 4.37198 151.05 3.95167C149.812 3.38055 148.531 2.90942 147.219 2.5428C142.615 1.25513 137.795 0.678733 133.039 0.325133L131.716 0.2436C126.505 -0.0840227 121.277 -0.0811727 116.066 0.252133C115.595 0.294889 115.123 0.319022 114.65 0.324533C114.56 0.325533 114.478 0.367267 114.379 0.3738C110.823 0.637933 107.144 1.09667 103.639 1.83607C102.208 2.13745 100.794 2.51693 99.4047 2.9728C97.7737 3.508 96.1436 4.22173 94.7547 5.24327C94.3529 5.53376 93.9889 5.87323 93.6712 6.2538L93.2434 6.7638C93.1441 6.8652 93.0639 6.9836 93.0066 7.11347L92.6106 7.69747C91.6831 9.26413 91.0485 10.9895 90.5518 12.7495C90.1295 14.2469 89.7803 15.7613 89.504 17.293C88.6971 21.7668 88.2567 26.3618 88.1113 30.8565C88.0716 32.0813 88.02 33.2789 88.0076 34.4907C87.9573 39.3807 88.1526 44.3001 88.694 49.1623C88.7182 49.3811 88.7807 49.6423 88.7972 49.8932C88.8158 50.1754 88.8435 50.4565 88.8802 50.7367C89.3281 54.1812 89.9522 57.6408 91.083 60.9339C91.5817 62.3855 92.2132 63.8065 93.0904 65.0498C94.1442 66.5442 95.6942 67.5367 97.4067 68.27C100.139 69.44 103.103 70.1373 106.026 70.6293C109.113 71.1493 112.224 71.506 115.349 71.6993C115.449 71.708 115.549 71.71 115.65 71.7067L115.975 71.75C117.149 71.8147 118.326 71.8927 119.5 71.9313C123.645 72.0667 127.766 71.998 131.905 71.7613C132.016 71.7513 132.126 71.7353 132.234 71.712L132.621 71.702C135.783 71.5053 138.933 71.1407 142.057 70.6093C145.084 70.0933 148.188 69.3787 150.988 68.088C152.468 67.4053 153.886 66.4752 154.815 65.1831C155.498 64.2204 156.059 63.1764 156.484 62.0751C157.568 59.3177 158.247 56.3951 158.715 53.4785C159.242 50.1804 159.595 46.8569 159.774 43.5218C159.951 40.2624 160.041 37.0855 159.982 34.0913ZM90.1288 51.0118C90.1301 51.0113 90.1315 51.0113 90.1328 51.0118C90.1336 51.0119 90.1343 51.0123 90.1348 51.0128C90.1329 51.0122 90.1308 51.0119 90.1288 51.0118M90.7649 22.0268C90.7654 22.0268 90.7659 22.0273 90.7664 22.0278C90.767 22.0283 90.7684 22.0303 90.7694 22.0313L90.7649 22.0268ZM115.62 71.444C115.621 71.444 115.622 71.4447 115.623 71.4447C115.625 71.4453 115.628 71.446 115.63 71.4473C115.627 71.446 115.623 71.4447 115.62 71.444M157.15 49.8519C157.151 49.8513 157.153 49.851 157.155 49.8509H157.159C157.156 49.8511 157.153 49.8514 157.15 49.8519ZM157.163 21.846C157.161 21.8464 157.159 21.8466 157.157 21.8465C157.161 21.8465 157.164 21.846 157.167 21.845C157.165 21.8456 157.164 21.8459 157.163 21.846ZM157.211 50.6336C157.208 50.6359 157.205 50.6379 157.203 50.6397C157.206 50.6376 157.209 50.6352 157.211 50.6326C157.211 50.6331 157.211 50.6331 157.211 50.6336Z" fill="url(#paint1_linear_997_2951)"/>
<path d="M114.5 15.4335C106.973 15.4335 100.702 10.0573 99.3179 2.93499L99.4045 2.90633C100.794 2.45054 102.207 2.07104 103.638 1.76953C107.144 1.03026 110.823 0.571532 114.379 0.307332C114.478 0.300666 114.56 0.259062 114.65 0.258195C115.123 0.252595 115.595 0.228466 116.066 0.185799C117.741 0.0786435 119.416 0.00564132 121.091 -0.0332031H126.823C128.454 0.0046191 130.085 0.0747035 131.716 0.177059L133.039 0.258659C137.794 0.611992 142.615 1.18872 147.219 2.47639C147.733 2.62022 148.242 2.77962 148.745 2.9546C147.353 10.0673 141.087 15.4335 133.566 15.4335H114.5Z" fill="white"/>
<path d="M112.85 12.0911L110.868 3.74832H112.885L113.514 7.18773C113.699 8.17847 113.873 9.2456 114.011 10.0981H114.034C114.169 9.19253 114.369 8.19313 114.581 7.15807L115.283 3.74219H117.288L117.959 7.26987C118.144 8.24887 118.279 9.13953 118.403 10.0685H118.426C118.549 9.13953 118.735 8.1636 118.908 7.17L119.59 3.75412H121.507L119.352 12.0972H117.309L116.604 8.50787C116.442 7.6642 116.31 6.88787 116.21 5.93259H116.186C116.036 6.87333 115.892 7.66407 115.704 8.50787L114.911 12.0972L112.85 12.0911Z" fill="#EB5387"/>
<path d="M128.38 8.56376H125.311V10.545H128.739V12.0917H123.418V3.74854H128.565V5.2948H125.311V7.02623H128.38V8.56376Z" fill="#EB5387"/>
<path d="M130.946 3.86023C131.754 3.73606 132.57 3.67808 133.386 3.6869C134.234 3.61276 135.086 3.77559 135.847 4.15723C136.149 4.30888 136.403 4.54196 136.58 4.83021C136.757 5.11845 136.851 5.45041 136.849 5.7887C136.842 6.19413 136.704 6.58645 136.456 6.90737C136.209 7.2283 135.864 7.4607 135.473 7.5701V7.59363C135.945 7.69263 136.367 7.95163 136.67 8.3267C136.972 8.70177 137.135 9.16976 137.131 9.65143C137.133 9.9921 137.055 10.3284 136.905 10.6343C136.755 10.9402 136.537 11.2075 136.267 11.4153C135.287 12.0191 134.135 12.2845 132.99 12.1708C132.306 12.1777 131.624 12.1364 130.946 12.0474L130.946 3.86023ZM132.816 7.0527H133.434C134.424 7.0527 134.959 6.6471 134.959 6.02683C134.959 5.40657 134.477 5.06256 133.622 5.06256C133.353 5.05834 133.085 5.07506 132.819 5.11256L132.816 7.0527ZM132.816 10.7538C133.059 10.7767 133.302 10.7846 133.545 10.7773C134.401 10.7773 135.153 10.4569 135.153 9.57797C135.153 8.69903 134.401 8.40216 133.457 8.40216H132.816V10.7538Z" fill="#EB5387"/>
<mask id="mask3_997_2951" style="mask-type:luminance" maskUnits="userSpaceOnUse" x="100" y="20" width="48" height="48">
<path d="M147.333 20.6001H100.667V67.2668H147.333V20.6001Z" fill="white"/>
</mask>
<g mask="url(#mask3_997_2951)">
<path d="M147.334 60.7366C147.334 61.942 146.976 63.1203 146.305 64.1226C145.634 65.1248 144.681 65.906 143.565 66.3674C142.449 66.8285 141.222 66.9492 140.037 66.7145C138.853 66.4792 137.765 65.8988 136.911 65.0465C136.057 64.1942 135.476 63.1083 135.24 61.926C135.005 60.7438 135.126 59.5184 135.588 58.4048C136.05 57.2912 136.832 56.3394 137.836 55.6696C138.84 55 140.021 54.6426 141.228 54.6426C142.847 54.6426 144.4 55.2846 145.545 56.4274C146.69 57.5703 147.333 59.1203 147.334 60.7366Z" fill="white"/>
<path d="M123.868 49.961L127.141 46.6925C128.184 45.5 128.854 44.0294 129.071 42.4615C129.287 40.8937 129.04 39.2969 128.359 37.8675C127.678 36.4381 126.594 35.2385 125.239 34.416C123.885 33.5935 122.319 33.1841 120.734 33.2382C119.15 33.2922 117.616 33.8073 116.32 34.7201C115.025 35.6329 114.025 36.9035 113.444 38.376C112.862 39.8484 112.725 41.4583 113.048 43.0078C113.371 44.5573 114.14 45.9788 115.262 47.0975L109.505 52.8434C107.991 51.3358 106.79 49.5444 105.972 47.5721C105.154 45.5999 104.734 43.4857 104.737 41.351C104.737 32.3753 112.026 25.0994 121.018 25.0994C130.01 25.0994 137.298 32.3753 137.298 41.351C137.301 44.2499 136.524 47.0965 135.048 49.5929L138.001 52.5408C140.202 49.223 141.373 45.3305 141.368 41.3511C141.368 30.1316 132.257 21.0361 121.018 21.0361C109.778 21.0361 100.667 30.1316 100.667 41.3511C100.667 52.5707 109.778 61.6662 121.018 61.6662C125.004 61.6715 128.902 60.5024 132.226 58.3055L123.868 49.961Z" fill="white"/>
</g>
</g>
</g>
<defs>
<linearGradient id="paint0_linear_997_2951" x1="-2.01648e-09" y1="33.192" x2="72" y2="33.624" gradientUnits="userSpaceOnUse">
<stop stop-color="#EE5488"/>
<stop offset="1" stop-color="#6D245A"/>
</linearGradient>
<linearGradient id="paint1_linear_997_2951" x1="88" y1="33.192" x2="160" y2="33.624" gradientUnits="userSpaceOnUse">
<stop stop-color="#EE5488"/>
<stop offset="1" stop-color="#6D245A"/>
</linearGradient>
<clipPath id="clip0_997_2951">
<rect width="72" height="72" fill="white"/>
</clipPath>
<clipPath id="clip1_997_2951">
<rect width="72" height="72" fill="white" transform="translate(88)"/>
</clipPath>
</defs>
</svg>
