<svg width="160" height="72" viewBox="0 0 160 72" fill="none" xmlns="http://www.w3.org/2000/svg">
<g clip-path="url(#clip0_997_3016)">
<mask id="mask0_997_3016" style="mask-type:luminance" maskUnits="userSpaceOnUse" x="0" y="0" width="72" height="72">
<path d="M72 0H0V72H72V0Z" fill="white"/>
</mask>
<g mask="url(#mask0_997_3016)">
<path d="M71.982 34.0913C71.8827 29.0241 71.5567 24.0023 70.782 18.99C70.378 16.3725 69.7967 13.6779 68.942 11.1519C68.2233 9.03133 67.1747 6.76587 65.3718 5.3386C64.7349 4.83429 63.9608 4.37198 63.0496 3.95167C61.8124 3.38055 60.5313 2.90942 59.2189 2.5428C54.6151 1.25513 49.7945 0.678733 45.0389 0.325133L43.7163 0.2436C38.5045 -0.0840227 33.2772 -0.0811727 28.0657 0.252133C27.5952 0.294889 27.1233 0.319022 26.6501 0.324533C26.5605 0.325533 26.4779 0.367267 26.3793 0.3738C22.8229 0.637933 19.1441 1.09667 15.6385 1.83607C14.2076 2.13745 12.7942 2.51693 11.4047 2.9728C9.77367 3.508 8.1436 4.22173 6.75467 5.24327C6.35292 5.53376 5.98893 5.87323 5.67117 6.2538L5.24343 6.7638C5.14413 6.8652 5.06391 6.9836 5.00663 7.11347L4.61057 7.69747C3.6831 9.26413 3.0485 10.9895 2.55177 12.7495C2.12954 14.2469 1.7803 15.7613 1.50403 17.293C0.6971 21.7668 0.256698 26.3618 0.111298 30.8565C0.0715647 32.0813 0.0199649 33.2789 0.00763153 34.4907C-0.0427018 39.3807 0.152565 44.3001 0.694033 49.1623C0.718167 49.3811 0.7807 49.6423 0.797167 49.8932C0.815787 50.1754 0.843473 50.4565 0.880233 50.7367C1.3281 54.1812 1.95217 57.6408 3.08297 60.9339C3.5817 62.3855 4.21323 63.8065 5.09043 65.0498C6.14423 66.5442 7.6942 67.5367 9.40673 68.27C12.1389 69.44 15.1025 70.1373 18.0259 70.6293C21.1125 71.1493 24.2244 71.506 27.3485 71.6993C27.4488 71.708 27.5495 71.71 27.65 71.7067L27.9751 71.75C29.1491 71.8147 30.3257 71.8927 31.5003 71.9313C35.6446 72.0667 39.7662 71.998 43.9054 71.7613C44.0159 71.7513 44.1257 71.7353 44.234 71.712L44.6207 71.702C47.7833 71.5053 50.9333 71.1407 54.0571 70.6093C57.0837 70.0933 60.1881 69.3787 62.9882 68.088C64.4682 67.4053 65.8859 66.4752 66.8147 65.1831C67.498 64.2204 68.0587 63.1764 68.484 62.0751C69.568 59.3177 70.2473 56.3951 70.7153 53.4785C71.242 50.1804 71.5953 46.8569 71.774 43.5218C71.9507 40.2624 72.0407 37.0855 71.982 34.0913ZM2.12883 51.0118C2.13012 51.0113 2.13155 51.0113 2.13283 51.0118C2.13359 51.0119 2.13428 51.0123 2.13483 51.0128C2.13286 51.0122 2.13082 51.0119 2.12877 51.0118M2.7649 22.0268C2.76543 22.0268 2.7659 22.0273 2.76643 22.0278C2.76697 22.0283 2.76843 22.0303 2.76943 22.0313L2.7649 22.0268ZM27.6199 71.444C27.621 71.444 27.622 71.4447 27.6229 71.4447C27.6253 71.4453 27.6277 71.446 27.6296 71.4473C27.6265 71.446 27.6233 71.4447 27.6201 71.444M69.15 49.8519C69.1513 49.8513 69.1533 49.851 69.1547 49.8509H69.1593C69.156 49.8511 69.1533 49.8514 69.15 49.8519ZM69.1627 21.846C69.1607 21.8464 69.1587 21.8466 69.1573 21.8465C69.1607 21.8465 69.164 21.846 69.1673 21.845C69.1653 21.8456 69.164 21.8459 69.1627 21.846ZM69.2107 50.6336C69.208 50.6359 69.2053 50.6379 69.2027 50.6397C69.206 50.6376 69.2087 50.6352 69.2107 50.6326C69.2107 50.6331 69.2107 50.6331 69.2107 50.6336Z" fill="#6133BD"/>
<path d="M43.8785 35.8018C43.3803 35.8 42.8913 35.6667 42.4611 35.4154C42.0309 35.1641 41.6747 34.8037 41.4285 34.3706L33.4098 20.1396C33.2825 19.9142 33.1034 19.7225 32.8872 19.5801C32.6711 19.4378 32.4241 19.349 32.1669 19.3211L28.3069 18.9101C28.159 18.8943 28.0234 18.8207 27.9294 18.7056C27.8354 18.5904 27.7907 18.4428 27.8048 18.2948L27.8115 18.2383C27.8267 18.0902 27.9 17.9542 28.0153 17.8601C28.1307 17.7659 28.2786 17.7214 28.4267 17.7362L32.2883 18.1484C32.7338 18.1959 33.1615 18.3493 33.5356 18.5957C33.9098 18.8421 34.2197 19.1743 34.4394 19.5648L42.4527 33.7967C42.6045 34.0648 42.8293 34.2843 43.1009 34.4299C43.3725 34.5753 43.6799 34.6408 43.9872 34.6187L54.1747 33.8806C54.2485 33.8751 54.3227 33.8841 54.3929 33.9073C54.4633 33.9304 54.5283 33.9671 54.5845 34.0155C54.6405 34.0637 54.6866 34.1226 54.7199 34.1887C54.7533 34.2547 54.7733 34.3267 54.7789 34.4006V34.4587C54.7897 34.6078 54.7408 34.7551 54.6431 34.8681C54.5453 34.9813 54.4067 35.0509 54.2576 35.0617H54.2572L44.0693 35.8003C44.0138 35.798 43.9466 35.8018 43.8785 35.8018Z" fill="white"/>
<path d="M58.1696 24.2132L55.5854 31.6465C55.4836 31.9394 55.2946 32.1942 55.0439 32.3768C54.7932 32.5593 54.4927 32.6609 54.1827 32.668L44.5102 32.914C44.2736 32.9194 44.0402 32.859 43.8359 32.7396C43.6316 32.62 43.4646 32.4462 43.3535 32.2372L38.4558 22.8599C38.4072 22.7734 38.3818 22.6758 38.3818 22.5766C38.3886 22.4155 38.4556 22.2629 38.5696 22.1489C38.6836 22.035 38.8363 21.968 38.9974 21.9614H56.5702C56.758 21.9703 56.944 22.0034 57.1235 22.06C57.5451 22.2104 57.891 22.5202 58.0866 22.9228C58.2822 23.3256 58.3119 23.7889 58.1695 24.2133" fill="white"/>
<path d="M44.5615 37.1207C45.3493 37.1207 45.9878 37.8425 45.9878 38.7328C45.9878 39.6231 45.3493 40.3448 44.5615 40.3448C43.7738 40.3448 43.1353 39.6231 43.1353 38.7327C43.1353 37.8423 43.7738 37.1206 44.5615 37.1206" fill="white"/>
<path d="M51.5545 37.6729C51.6426 36.787 52.3127 36.1284 53.0511 36.2019C53.7895 36.2754 54.3167 37.053 54.2287 37.9388C54.1407 38.8246 53.4704 39.4833 52.732 39.4098C51.9936 39.3364 51.4665 38.5587 51.5545 37.6729Z" fill="white"/>
<path d="M50.3819 27.6548C50.3819 27.6548 49.0935 29.4533 50.1032 30.7681C50.1032 30.7681 51.5598 32.9348 54.1471 30.4263L55.9193 28.591C55.9193 28.591 53.1953 30.7997 52.1803 30.7997C52.1803 30.7997 50.8025 30.9417 50.7184 30.2475L50.3819 27.6548Z" fill="#6133BD"/>
<path d="M50.7186 30.2467C50.7186 30.2467 48.4362 29.5523 47.6526 29.5523C47.6526 29.5523 47.424 29.5221 47.7092 29.479C47.7092 29.479 49.3934 29.3364 49.7194 29.4574C50.0455 29.5784 50.7186 30.2467 50.7186 30.2467Z" fill="#6133BD"/>
<path d="M53.4706 28.7965C52.2216 30.0879 50.6984 30.6405 50.0686 30.0312C49.5868 29.565 49.7675 28.5535 50.4386 27.526C50.6589 27.1911 50.9104 26.8779 51.1899 26.5905C52.439 25.2991 53.962 24.7465 54.5918 25.3558C55.2215 25.965 54.7196 27.5059 53.4706 28.7968" fill="#6133BD"/>
<path d="M50.8965 29.5164C50.8965 29.5164 51.517 27.9596 53.9909 26.6431C53.9909 26.6431 53.1732 28.8199 50.8965 29.5164Z" fill="white"/>
<path d="M10.0225 49.5237C10.1252 50.0363 10.4248 50.4882 10.8569 50.7823C11.3365 51.0481 11.8804 51.1756 12.4282 51.1507C12.9019 51.1444 13.3738 51.093 13.8378 50.9973C14.3644 50.8947 14.88 50.7424 15.3778 50.5424C15.6018 50.9708 15.7804 51.4216 15.9104 51.8874C16.0635 52.4165 16.1472 52.9634 16.1591 53.5141C14.8964 53.9873 13.5591 54.23 12.2106 54.2308C11.2979 54.2493 10.3896 54.0989 9.53163 53.7869C8.83916 53.5328 8.21536 53.1211 7.70956 52.5843C7.23163 52.0574 6.87616 51.4313 6.66863 50.7509C6.21802 49.2355 6.2219 47.6211 6.67976 46.1078C6.89456 45.4146 7.24876 44.7725 7.7207 44.2211C8.19803 43.6745 8.79083 43.2409 9.45623 42.9515C10.2234 42.6262 11.0509 42.4673 11.884 42.4853C12.5873 42.4729 13.2855 42.6062 13.9349 42.8764C14.5147 43.1226 15.0358 43.4886 15.464 43.9506C15.8963 44.4277 16.225 44.9892 16.4295 45.5997C16.6582 46.2735 16.7715 46.9811 16.7646 47.6926C16.7666 48.044 16.7481 48.3953 16.7091 48.7446C16.6736 49.0555 16.6403 49.3128 16.6116 49.5148L10.0225 49.5237ZM11.758 45.2516C11.3192 45.2457 10.8942 45.404 10.5662 45.6955C10.203 46.0502 9.9927 46.5329 9.98023 47.0405H13.4492C13.4365 46.5778 13.2728 46.132 12.9832 45.7709C12.8328 45.5957 12.644 45.4575 12.4316 45.367C12.2191 45.2766 11.9886 45.2362 11.758 45.2493L11.758 45.2516ZM24.7062 44.4481C25.3144 44.6936 25.8604 44.9431 26.3442 45.1964C26.8057 45.4325 27.2267 45.7403 27.5916 46.1086C27.9468 46.4739 28.2207 46.9104 28.3951 47.3892C28.8086 48.6576 28.7662 50.0305 28.2751 51.2709C28.009 51.8831 27.604 52.425 27.0922 52.8535C26.5268 53.3181 25.874 53.6644 25.1722 53.872C24.3247 54.123 23.4438 54.2435 22.56 54.2294C21.7629 54.2374 20.967 54.163 20.1852 54.0075C19.4292 53.8439 18.687 53.6213 17.9658 53.3417C18.0311 52.7969 18.1326 52.2571 18.2698 51.7259C18.4177 51.1548 18.5908 50.5725 18.7892 49.9792C19.876 50.4991 21.0567 50.7943 22.2604 50.847C22.8539 50.8772 23.4458 50.7621 23.9848 50.5119C24.1888 50.3985 24.3558 50.2287 24.4656 50.0228C24.5755 49.8169 24.6236 49.5836 24.6041 49.3511C24.6096 49.1444 24.5646 48.9396 24.4733 48.7542C24.389 48.5901 24.2711 48.4457 24.1271 48.3303C23.9778 48.2116 23.8137 48.113 23.6388 48.037C23.4584 47.957 23.2742 47.883 23.0862 47.8151L21.8723 47.3601C21.3776 47.1866 20.9016 46.9635 20.4518 46.6943C20.04 46.4471 19.6699 46.1362 19.3552 45.7733C19.0469 45.4116 18.8077 44.9963 18.6495 44.5481C18.474 44.0241 18.3899 43.4739 18.4008 42.9215C18.3874 42.2217 18.5206 41.5268 18.7915 40.8815C19.0405 40.3045 19.4142 39.79 19.8858 39.3748C20.3818 38.9484 20.9618 38.6307 21.5882 38.4424C22.3121 38.2242 23.065 38.1178 23.821 38.127C24.5392 38.1263 25.2555 38.2007 25.9582 38.3489C26.7052 38.5107 27.4406 38.7214 28.16 38.9794C28.091 39.4958 27.9857 40.0068 27.8449 40.5085C27.6992 41.0486 27.507 41.5749 27.2702 42.0818C26.8942 41.9221 26.4504 41.7556 25.9386 41.5824C25.328 41.3941 24.6908 41.3065 24.052 41.3228C23.8284 41.3215 23.6053 41.3432 23.3861 41.3874C23.1885 41.4264 22.9983 41.4962 22.8223 41.5941C22.6568 41.6874 22.5184 41.8219 22.4206 41.9848C22.3142 42.1725 22.262 42.3861 22.2697 42.6018C22.2565 42.7791 22.2873 42.957 22.3593 43.1196C22.4314 43.2822 22.5424 43.4245 22.6826 43.5339C22.9834 43.7499 23.3118 43.9246 23.659 44.0534L24.7062 44.4481ZM37.6545 49.8281H34.4428V53.9497C34.0668 54.0075 33.7273 54.0512 33.4242 54.0808C33.121 54.1103 32.8466 54.1251 32.6008 54.1252C32.3551 54.1252 32.0806 54.1104 31.7774 54.0808C31.4734 54.0519 31.1426 54.0097 30.7788 53.9497V42.7568C31.0902 42.685 31.4061 42.6338 31.7243 42.6035C32.0348 42.5738 32.3344 42.559 32.6232 42.5591C32.912 42.5593 33.208 42.574 33.5111 42.6035C33.8251 42.6322 34.1366 42.6834 34.4433 42.7568V46.5741H37.6549V42.7568C37.9657 42.6852 38.2808 42.634 38.5982 42.6035C38.9087 42.5738 39.2091 42.559 39.4993 42.5591C39.7895 42.5593 40.0854 42.574 40.3871 42.6035C40.7012 42.6322 41.0128 42.6834 41.3194 42.7568V53.9497C40.9437 54.0075 40.6041 54.0512 40.3007 54.0808C40.0272 54.1089 39.7524 54.1229 39.4774 54.1228C39.2317 54.1228 38.9572 54.108 38.654 54.0784C38.3507 54.0488 38.0178 54.0052 37.6554 53.9474L37.6545 49.8281ZM43.2031 48.4188C43.1936 47.5985 43.3142 46.782 43.5604 45.9996C43.7785 45.3064 44.1408 44.6672 44.6236 44.1242C45.1058 43.5947 45.7025 43.1824 46.3682 42.9189C47.1361 42.624 47.9538 42.4807 48.7762 42.4971C49.606 42.4796 50.4312 42.6228 51.2065 42.9189C51.873 43.1822 52.4704 43.5944 52.9532 44.1241C53.436 44.6671 53.7983 45.3063 54.0163 45.9995C54.2624 46.782 54.3831 47.5985 54.3737 48.4188C54.383 49.2244 54.2623 50.0263 54.0163 50.7936C53.7966 51.4767 53.4342 52.1053 52.9532 52.6379C52.4693 53.1609 51.8717 53.5656 51.2065 53.8209C50.4296 54.1101 49.6051 54.2501 48.7763 54.2332C47.9548 54.2487 47.1378 54.1087 46.3683 53.8204C45.7037 53.5652 45.1068 53.1604 44.6238 52.6374C44.1427 52.1049 43.7802 51.4762 43.5606 50.7931C43.3144 50.0259 43.1937 49.2239 43.2032 48.4183M50.6652 48.4183C50.7096 47.68 50.5483 46.944 50.1991 46.292C50.0506 46.0524 49.8404 45.8574 49.5904 45.7273C49.3404 45.5972 49.06 45.5369 48.7786 45.5529C48.4986 45.5361 48.2194 45.5961 47.9711 45.7263C47.7227 45.8566 47.5146 46.0522 47.3692 46.292C47.0278 46.9465 46.8706 47.6814 46.9144 48.4183C46.872 49.1479 47.0292 49.8753 47.3692 50.5223C47.5149 50.7617 47.7231 50.9569 47.9714 51.0867C48.2198 51.2165 48.4988 51.2761 48.7786 51.2591C49.0598 51.2755 49.3402 51.2157 49.5902 51.086C49.8402 50.9563 50.0506 50.7616 50.1991 50.5223C50.5466 49.8778 50.708 49.1493 50.6652 48.4183ZM59.8404 48.5492C59.9298 48.5661 60.0202 48.5773 60.1111 48.5825H60.3816C60.8284 48.6013 61.2684 48.4675 61.6291 48.2031C61.8051 48.0408 61.9408 47.8398 62.0256 47.616C62.1103 47.3921 62.1417 47.1515 62.1172 46.9135C62.1305 46.6893 62.0936 46.4649 62.0091 46.2568C61.9247 46.0487 61.7948 45.8621 61.6291 45.7105C61.2942 45.4259 60.8655 45.2756 60.4262 45.2888H60.1821C60.07 45.2893 59.9581 45.2968 59.847 45.311L59.8404 48.5492ZM56.2626 42.8007C56.9285 42.7001 57.612 42.6261 58.3132 42.5789C59.0144 42.5315 59.6899 42.5064 60.3396 42.5034C60.995 42.5027 61.649 42.5646 62.2926 42.6882C62.9011 42.7982 63.4828 43.0242 64.0059 43.354C64.5222 43.6907 64.9439 44.1537 65.231 44.6991C65.531 45.3752 65.6896 46.1056 65.6968 46.8453C65.704 47.5851 65.5598 48.3184 65.273 49.0004C65.0156 49.5369 64.6353 50.0052 64.1631 50.3674C63.6936 50.7175 63.1596 50.9717 62.5918 51.1153C62.0073 51.265 61.4062 51.3395 60.8028 51.3372C60.5932 51.3422 60.3836 51.3348 60.1748 51.3149C60.065 51.3097 59.9559 51.2948 59.8487 51.2705V53.9338C59.5159 54.0008 59.1794 54.0483 58.8411 54.0759C58.5452 54.0981 58.2819 54.1092 58.0511 54.1092C57.8203 54.1092 57.5562 54.0981 57.2586 54.0759C56.927 54.047 56.5973 53.9996 56.271 53.9338L56.2626 42.8007Z" fill="white"/>
</g>
</g>
<g clip-path="url(#clip1_997_3016)">
<mask id="mask1_997_3016" style="mask-type:luminance" maskUnits="userSpaceOnUse" x="88" y="0" width="72" height="72">
<path d="M160 0H88V72H160V0Z" fill="white"/>
</mask>
<g mask="url(#mask1_997_3016)">
<path d="M159.982 34.0913C159.883 29.0241 159.557 24.0023 158.782 18.99C158.378 16.3725 157.797 13.6779 156.942 11.1519C156.223 9.03133 155.175 6.76587 153.372 5.3386C152.735 4.83429 151.961 4.37198 151.05 3.95167C149.812 3.38055 148.531 2.90942 147.219 2.5428C142.615 1.25513 137.795 0.678733 133.039 0.325133L131.716 0.2436C126.505 -0.0840227 121.277 -0.0811727 116.066 0.252133C115.595 0.294889 115.123 0.319022 114.65 0.324533C114.56 0.325533 114.478 0.367267 114.379 0.3738C110.823 0.637933 107.144 1.09667 103.639 1.83607C102.208 2.13745 100.794 2.51693 99.4047 2.9728C97.7737 3.508 96.1436 4.22173 94.7547 5.24327C94.3529 5.53376 93.9889 5.87323 93.6712 6.2538L93.2434 6.7638C93.1441 6.8652 93.0639 6.9836 93.0066 7.11347L92.6106 7.69747C91.6831 9.26413 91.0485 10.9895 90.5518 12.7495C90.1295 14.2469 89.7803 15.7613 89.504 17.293C88.6971 21.7668 88.2567 26.3618 88.1113 30.8565C88.0716 32.0813 88.02 33.2789 88.0076 34.4907C87.9573 39.3807 88.1526 44.3001 88.694 49.1623C88.7182 49.3811 88.7807 49.6423 88.7972 49.8932C88.8158 50.1754 88.8435 50.4565 88.8802 50.7367C89.3281 54.1812 89.9522 57.6408 91.083 60.9339C91.5817 62.3855 92.2132 63.8065 93.0904 65.0498C94.1442 66.5442 95.6942 67.5367 97.4067 68.27C100.139 69.44 103.103 70.1373 106.026 70.6293C109.113 71.1493 112.224 71.506 115.349 71.6993C115.449 71.708 115.549 71.71 115.65 71.7067L115.975 71.75C117.149 71.8147 118.326 71.8927 119.5 71.9313C123.645 72.0667 127.766 71.998 131.905 71.7613C132.016 71.7513 132.126 71.7353 132.234 71.712L132.621 71.702C135.783 71.5053 138.933 71.1407 142.057 70.6093C145.084 70.0933 148.188 69.3787 150.988 68.088C152.468 67.4053 153.886 66.4752 154.815 65.1831C155.498 64.2204 156.059 63.1764 156.484 62.0751C157.568 59.3177 158.247 56.3951 158.715 53.4785C159.242 50.1804 159.595 46.8569 159.774 43.5218C159.951 40.2624 160.041 37.0855 159.982 34.0913ZM90.1288 51.0118C90.1301 51.0113 90.1315 51.0113 90.1328 51.0118C90.1336 51.0119 90.1343 51.0123 90.1348 51.0128C90.1329 51.0122 90.1308 51.0119 90.1288 51.0118M90.7649 22.0268C90.7654 22.0268 90.7659 22.0273 90.7664 22.0278C90.767 22.0283 90.7684 22.0303 90.7694 22.0313L90.7649 22.0268ZM115.62 71.444C115.621 71.444 115.622 71.4447 115.623 71.4447C115.625 71.4453 115.628 71.446 115.63 71.4473C115.627 71.446 115.623 71.4447 115.62 71.444M157.15 49.8519C157.151 49.8513 157.153 49.851 157.155 49.8509H157.159C157.156 49.8511 157.153 49.8514 157.15 49.8519ZM157.163 21.846C157.161 21.8464 157.159 21.8466 157.157 21.8465C157.161 21.8465 157.164 21.846 157.167 21.845C157.165 21.8456 157.164 21.8459 157.163 21.846ZM157.211 50.6336C157.208 50.6359 157.205 50.6379 157.203 50.6397C157.206 50.6376 157.209 50.6352 157.211 50.6326C157.211 50.6331 157.211 50.6331 157.211 50.6336Z" fill="#6133BD"/>
<path d="M114.5 15.4999C106.973 15.4999 100.702 10.1237 99.3179 3.0014L99.4045 2.97274C100.794 2.51694 102.207 2.13744 103.638 1.83594C107.144 1.09667 110.823 0.637938 114.379 0.373738C114.478 0.367072 114.56 0.325468 114.65 0.324601C115.123 0.319001 115.595 0.294872 116.066 0.252205C117.741 0.14505 119.416 0.0720478 121.091 0.0332031H126.823C128.454 0.0710251 130.085 0.14111 131.716 0.243465L133.039 0.325065C137.794 0.678397 142.615 1.25513 147.219 2.5428C147.733 2.68662 148.242 2.84602 148.745 3.021C147.353 10.1337 141.087 15.4999 133.566 15.4999H114.5Z" fill="white"/>
<path d="M112.85 12.0911L110.868 3.74832H112.885L113.514 7.18773C113.699 8.17847 113.873 9.2456 114.011 10.0981H114.034C114.169 9.19253 114.369 8.19313 114.581 7.15807L115.283 3.74219H117.288L117.959 7.26987C118.144 8.24887 118.279 9.13953 118.403 10.0685H118.426C118.549 9.13953 118.735 8.1636 118.908 7.17L119.59 3.75412H121.507L119.352 12.0972H117.309L116.604 8.50787C116.442 7.6642 116.31 6.88787 116.21 5.93259H116.186C116.036 6.87333 115.892 7.66407 115.704 8.50787L114.911 12.0972L112.85 12.0911Z" fill="#6133BD"/>
<path d="M128.38 8.56376H125.311V10.545H128.739V12.0917H123.418V3.74854H128.565V5.2948H125.311V7.02623H128.38V8.56376Z" fill="#6133BD"/>
<path d="M130.946 3.86023C131.754 3.73606 132.57 3.67808 133.386 3.6869C134.234 3.61276 135.086 3.77559 135.847 4.15723C136.149 4.30888 136.403 4.54196 136.58 4.83021C136.757 5.11845 136.851 5.45041 136.849 5.7887C136.842 6.19413 136.704 6.58645 136.456 6.90737C136.209 7.2283 135.864 7.4607 135.473 7.5701V7.59363C135.945 7.69263 136.367 7.95163 136.67 8.3267C136.972 8.70177 137.135 9.16976 137.131 9.65143C137.133 9.9921 137.055 10.3284 136.905 10.6343C136.755 10.9402 136.537 11.2075 136.267 11.4153C135.287 12.0191 134.135 12.2845 132.99 12.1708C132.306 12.1777 131.624 12.1364 130.946 12.0474L130.946 3.86023ZM132.816 7.0527H133.434C134.424 7.0527 134.959 6.6471 134.959 6.02683C134.959 5.40657 134.477 5.06256 133.622 5.06256C133.353 5.05834 133.085 5.07506 132.819 5.11256L132.816 7.0527ZM132.816 10.7538C133.059 10.7767 133.302 10.7846 133.545 10.7773C134.401 10.7773 135.153 10.4569 135.153 9.57797C135.153 8.69903 134.401 8.40216 133.457 8.40216H132.816V10.7538Z" fill="#6133BD"/>
<path d="M131.879 38.4683C131.38 38.4665 130.891 38.3332 130.461 38.0819C130.031 37.8306 129.675 37.4702 129.428 37.0371L121.41 22.8061C121.283 22.5807 121.103 22.389 120.887 22.2466C120.671 22.1043 120.424 22.0155 120.167 21.9876L116.307 21.5766C116.159 21.5608 116.023 21.4872 115.929 21.3721C115.835 21.2569 115.791 21.1093 115.805 20.9613L115.811 20.9048C115.827 20.7567 115.9 20.6207 116.015 20.5266C116.131 20.4324 116.279 20.3879 116.427 20.4027L120.288 20.8149C120.734 20.8624 121.161 21.0158 121.536 21.2622C121.91 21.5086 122.22 21.8408 122.439 22.2313L130.453 36.4632C130.605 36.7313 130.829 36.9508 131.101 37.0964C131.373 37.2418 131.68 37.3073 131.987 37.2852L142.175 36.5471C142.248 36.5416 142.323 36.5506 142.393 36.5738C142.463 36.5969 142.528 36.6336 142.584 36.682C142.641 36.7302 142.687 36.7891 142.72 36.8552C142.753 36.9212 142.773 36.9932 142.779 37.0671V37.1252C142.79 37.2743 142.741 37.4216 142.643 37.5346C142.545 37.6478 142.407 37.7174 142.258 37.7282H142.257L132.069 38.4668C132.014 38.4645 131.947 38.4683 131.879 38.4683Z" fill="white"/>
<path d="M146.17 26.8797L143.585 34.313C143.484 34.6059 143.295 34.8607 143.044 35.0433C142.793 35.2258 142.493 35.3274 142.183 35.3345L132.51 35.5805C132.274 35.5859 132.04 35.5255 131.836 35.4061C131.632 35.2865 131.465 35.1127 131.354 34.9037L126.456 25.5264C126.407 25.4399 126.382 25.3423 126.382 25.2431C126.389 25.082 126.456 24.9294 126.57 24.8154C126.684 24.7015 126.836 24.6345 126.997 24.6279H144.57C144.758 24.6368 144.944 24.6699 145.124 24.7265C145.545 24.8769 145.891 25.1867 146.087 25.5893C146.282 25.9921 146.312 26.4554 146.17 26.8798" fill="white"/>
<path d="M132.562 39.7877C133.349 39.7877 133.988 40.5095 133.988 41.3998C133.988 42.2901 133.349 43.0118 132.562 43.0118C131.774 43.0118 131.135 42.2901 131.135 41.3997C131.135 40.5093 131.774 39.7876 132.562 39.7876" fill="white"/>
<path d="M139.555 40.3394C139.643 39.4535 140.313 38.7949 141.051 38.8684C141.79 38.9419 142.317 39.7195 142.229 40.6053C142.141 41.4911 141.47 42.1498 140.732 42.0763C139.994 42.0029 139.466 41.2252 139.555 40.3394Z" fill="white"/>
<path d="M138.382 30.3213C138.382 30.3213 137.093 32.1198 138.103 33.4346C138.103 33.4346 139.56 35.6013 142.147 33.0928L143.919 31.2575C143.919 31.2575 141.195 33.4662 140.18 33.4662C140.18 33.4662 138.802 33.6082 138.718 32.914L138.382 30.3213Z" fill="#6133BD"/>
<path d="M138.719 32.9137C138.719 32.9137 136.436 32.2193 135.653 32.2193C135.653 32.2193 135.424 32.189 135.709 32.146C135.709 32.146 137.393 32.0034 137.719 32.1244C138.045 32.2454 138.719 32.9137 138.719 32.9137Z" fill="#6133BD"/>
<path d="M141.471 31.463C140.222 32.7544 138.698 33.307 138.069 32.6977C137.587 32.2315 137.767 31.22 138.439 30.1925C138.659 29.8576 138.91 29.5444 139.19 29.257C140.439 27.9656 141.962 27.413 142.592 28.0223C143.221 28.6315 142.72 30.1724 141.471 31.4633" fill="#6133BD"/>
<path d="M138.896 32.1834C138.896 32.1834 139.517 30.6266 141.991 29.3101C141.991 29.3101 141.173 31.4869 138.896 32.1834Z" fill="white"/>
<path d="M98.0225 52.1907C98.1252 52.7033 98.4248 53.1551 98.8569 53.4493C99.3365 53.7151 99.8804 53.8426 100.428 53.8177C100.902 53.8113 101.374 53.76 101.838 53.6643C102.364 53.5617 102.88 53.4094 103.378 53.2093C103.602 53.6378 103.78 54.0886 103.91 54.5544C104.063 55.0835 104.147 55.6303 104.159 56.1811C102.896 56.6543 101.559 56.897 100.211 56.8978C99.2979 56.9163 98.3896 56.7659 97.5316 56.4539C96.8392 56.1998 96.2154 55.7881 95.7096 55.2513C95.2316 54.7244 94.8762 54.0983 94.6686 53.4179C94.218 51.9025 94.2219 50.2881 94.6798 48.7748C94.8946 48.0815 95.2488 47.4395 95.7207 46.8881C96.198 46.3415 96.7908 45.9079 97.4562 45.6185C98.2234 45.2932 99.0509 45.1343 99.884 45.1523C100.587 45.1399 101.285 45.2731 101.935 45.5434C102.515 45.7895 103.036 46.1556 103.464 46.6176C103.896 47.0947 104.225 47.6562 104.429 48.2667C104.658 48.9405 104.771 49.6481 104.765 50.3596C104.767 50.711 104.748 51.0623 104.709 51.4116C104.674 51.7225 104.64 51.9798 104.612 52.1817L98.0225 52.1907ZM99.758 47.9186C99.3192 47.9127 98.8942 48.0709 98.5662 48.3625C98.203 48.7172 97.9927 49.1999 97.9802 49.7075H101.449C101.436 49.2448 101.273 48.799 100.983 48.4379C100.833 48.2627 100.644 48.1245 100.432 48.034C100.219 47.9435 99.9886 47.9032 99.758 47.9163L99.758 47.9186ZM112.706 47.1151C113.314 47.3606 113.86 47.6101 114.344 47.8634C114.806 48.0995 115.227 48.4073 115.592 48.7755C115.947 49.1409 116.221 49.5773 116.395 50.0562C116.809 51.3245 116.766 52.6975 116.275 53.9379C116.009 54.5501 115.604 55.0919 115.092 55.5205C114.527 55.9851 113.874 56.3314 113.172 56.539C112.325 56.79 111.444 56.9105 110.56 56.8964C109.763 56.9044 108.967 56.83 108.185 56.6745C107.429 56.5109 106.687 56.2883 105.966 56.0087C106.031 55.4639 106.133 54.9241 106.27 54.3929C106.418 53.8218 106.591 53.2395 106.789 52.6462C107.876 53.1661 109.057 53.4613 110.26 53.514C110.854 53.5442 111.446 53.4291 111.985 53.1789C112.189 53.0655 112.356 52.8957 112.466 52.6898C112.575 52.4839 112.624 52.2506 112.604 52.0181C112.61 51.8114 112.565 51.6066 112.473 51.4212C112.389 51.2571 112.271 51.1127 112.127 50.9973C111.978 50.8786 111.814 50.78 111.639 50.704C111.458 50.624 111.274 50.55 111.086 50.4821L109.872 50.0271C109.378 49.8536 108.902 49.6305 108.452 49.3613C108.04 49.1141 107.67 48.8032 107.355 48.4403C107.047 48.0785 106.808 47.6633 106.649 47.2151C106.474 46.6911 106.39 46.1409 106.401 45.5885C106.387 44.8887 106.521 44.1938 106.791 43.5485C107.04 42.9715 107.414 42.457 107.886 42.0418C108.382 41.6153 108.962 41.2977 109.588 41.1093C110.312 40.8911 111.065 40.7848 111.821 40.794C112.539 40.7933 113.255 40.8677 113.958 41.0159C114.705 41.1777 115.441 41.3883 116.16 41.6463C116.091 42.1628 115.986 42.6737 115.845 43.1755C115.699 43.7155 115.507 44.2419 115.27 44.7488C114.894 44.5891 114.45 44.4226 113.939 44.2494C113.328 44.0611 112.691 43.9735 112.052 43.9898C111.828 43.9885 111.605 44.0102 111.386 44.0544C111.188 44.0934 110.998 44.1631 110.822 44.2611C110.657 44.3543 110.518 44.4889 110.421 44.6518C110.314 44.8395 110.262 45.0531 110.27 45.2688C110.256 45.4461 110.287 45.624 110.359 45.7866C110.431 45.9492 110.542 46.0915 110.683 46.2009C110.983 46.4169 111.312 46.5916 111.659 46.7204L112.706 47.1151ZM125.654 52.4951H122.443V56.6167C122.067 56.6745 121.727 56.7181 121.424 56.7477C121.121 56.7773 120.847 56.7921 120.601 56.7921C120.355 56.7921 120.081 56.7773 119.777 56.7477C119.473 56.7189 119.143 56.6767 118.779 56.6167V45.4238C119.09 45.352 119.406 45.3008 119.724 45.2705C120.035 45.2407 120.334 45.226 120.623 45.2261C120.912 45.2263 121.208 45.241 121.511 45.2705C121.825 45.2992 122.137 45.3504 122.443 45.4238V49.2411H125.655V45.4238C125.966 45.3522 126.281 45.3009 126.598 45.2705C126.909 45.2407 127.209 45.226 127.499 45.2261C127.789 45.2263 128.085 45.241 128.387 45.2705C128.701 45.2992 129.013 45.3504 129.319 45.4238V56.6167C128.944 56.6745 128.604 56.7181 128.301 56.7477C128.027 56.7759 127.752 56.7899 127.477 56.7898C127.232 56.7898 126.957 56.775 126.654 56.7454C126.351 56.7158 126.018 56.6721 125.655 56.6144L125.654 52.4951ZM131.203 51.0858C131.194 50.2655 131.314 49.449 131.56 48.6666C131.778 47.9734 132.141 47.3342 132.624 46.7911C133.106 46.2617 133.702 45.8494 134.368 45.5859C135.136 45.291 135.954 45.1477 136.776 45.1641C137.606 45.1466 138.431 45.2898 139.206 45.5859C139.873 45.8492 140.47 46.2614 140.953 46.7911C141.436 47.3341 141.798 47.9733 142.016 48.6665C142.262 49.449 142.383 50.2655 142.374 51.0857C142.383 51.8914 142.262 52.6933 142.016 53.4605C141.797 54.1437 141.434 54.7723 140.953 55.3049C140.469 55.8279 139.872 56.2326 139.206 56.4879C138.43 56.7771 137.605 56.9171 136.776 56.9002C135.955 56.9157 135.138 56.7757 134.368 56.4874C133.704 56.2322 133.107 55.8274 132.624 55.3044C132.143 54.7719 131.78 54.1432 131.561 53.4601C131.314 52.6929 131.194 51.8909 131.203 51.0853M138.665 51.0853C138.71 50.347 138.548 49.6109 138.199 48.959C138.051 48.7194 137.84 48.5243 137.59 48.3943C137.34 48.2642 137.06 48.2039 136.779 48.2199C136.499 48.2031 136.219 48.2631 135.971 48.3933C135.723 48.5236 135.515 48.7191 135.369 48.959C135.028 49.6135 134.871 50.3484 134.914 51.0853C134.872 51.8149 135.029 52.5423 135.369 53.1893C135.515 53.4287 135.723 53.6239 135.971 53.7537C136.22 53.8835 136.499 53.9431 136.779 53.9261C137.06 53.9425 137.34 53.8827 137.59 53.753C137.84 53.6233 138.051 53.4286 138.199 53.1893C138.547 52.5448 138.708 51.8163 138.665 51.0853ZM147.84 51.2162C147.93 51.2331 148.02 51.2443 148.111 51.2495H148.382C148.828 51.2683 149.268 51.1345 149.629 50.8701C149.805 50.7078 149.941 50.5068 150.026 50.2829C150.11 50.0591 150.142 49.8185 150.117 49.5805C150.13 49.3563 150.094 49.1319 150.009 48.9238C149.925 48.7157 149.795 48.5291 149.629 48.3775C149.294 48.0929 148.866 47.9426 148.426 47.9558H148.182C148.07 47.9563 147.958 47.9638 147.847 47.978L147.84 51.2162ZM144.263 45.4677C144.928 45.3671 145.612 45.2931 146.313 45.2459C147.014 45.1985 147.69 45.1734 148.34 45.1704C148.995 45.1697 149.649 45.2316 150.293 45.3552C150.901 45.4651 151.483 45.6911 152.006 46.021C152.522 46.3577 152.944 46.8207 153.231 47.3661C153.531 48.0422 153.69 48.7726 153.697 49.5123C153.704 50.2521 153.56 50.9854 153.273 51.6673C153.016 52.2039 152.635 52.6721 152.163 53.0343C151.694 53.3845 151.16 53.6387 150.592 53.7823C150.007 53.9319 149.406 54.0065 148.803 54.0041C148.593 54.0092 148.384 54.0018 148.175 53.9819C148.065 53.9767 147.956 53.9617 147.849 53.9375V56.6008C147.516 56.6678 147.179 56.7153 146.841 56.7429C146.545 56.7651 146.282 56.7762 146.051 56.7762C145.82 56.7762 145.556 56.7651 145.259 56.7429C144.927 56.714 144.597 56.6666 144.271 56.6008L144.263 45.4677Z" fill="white"/>
</g>
</g>
<defs>
<clipPath id="clip0_997_3016">
<rect width="72" height="72" fill="white"/>
</clipPath>
<clipPath id="clip1_997_3016">
<rect width="72" height="72" fill="white" transform="translate(88)"/>
</clipPath>
</defs>
</svg>
