<svg width="24" height="24" viewBox="0 0 24 24" fill="none" xmlns="http://www.w3.org/2000/svg">
<path d="M22.1598 20.3921C22.1598 20.3921 19.4961 15.8139 19.0183 14.9928C19.5619 14.827 20.141 14.6805 20.3816 14.265C20.7827 13.5727 20.0688 12.4371 20.2563 11.695C20.4493 10.9313 21.5892 10.2705 21.5892 9.49422C21.5892 8.73791 20.4108 7.85435 20.2175 7.09512C20.0288 6.35322 20.7405 5.21632 20.3382 4.52487C19.9359 3.83336 18.5958 3.89017 18.0442 3.35938C17.4767 2.81314 17.4784 1.47668 16.7938 1.11063C16.1065 0.743206 14.9894 1.48576 14.2262 1.30987C13.4717 1.13599 12.7976 0 12.0095 0C11.2098 0 9.93771 1.2886 9.7382 1.33497C8.97541 1.51229 7.85687 0.771549 7.17022 1.14053C6.48629 1.50782 6.49051 2.84441 5.92398 3.39155C5.37327 3.92332 4.03318 3.86897 3.63209 4.56126C3.23108 5.25342 3.9449 6.38882 3.75753 7.13125C3.56964 7.87556 2.39013 8.62973 2.39013 9.49052C2.39013 10.2669 3.5328 10.9256 3.72705 11.6889C3.91585 12.4309 3.20416 13.5676 3.60648 14.2593C3.8255 14.6358 4.32244 14.7904 4.81873 14.939C4.87665 14.9563 4.9862 15.0211 4.912 15.1292C4.57247 15.7153 1.83968 20.4316 1.83968 20.4316C1.62228 20.8068 1.79882 21.1284 2.23188 21.1466L4.35163 21.235C4.78468 21.2532 5.32793 21.5679 5.55909 21.9345L6.69021 23.7294C6.92136 24.0961 7.28813 24.0892 7.50547 23.7141C7.50547 23.7141 10.6703 18.2501 10.6716 18.2485C10.7351 18.1743 10.799 18.1896 10.8295 18.2155C11.1758 18.5104 11.6585 18.8045 12.0614 18.8045C12.4565 18.8045 12.8224 18.5276 13.1843 18.2188C13.2137 18.1937 13.2854 18.1423 13.3378 18.2491C13.3387 18.2507 16.5 23.6849 16.5 23.6849C16.7179 24.0595 17.0848 24.0658 17.3152 23.6987L18.4432 21.9017C18.6737 21.5348 19.2163 21.2189 19.6494 21.2L21.7689 21.1077C22.2018 21.0887 22.3778 20.7666 22.1598 20.3921ZM15.5127 15.4771C13.169 16.8406 10.3558 16.6945 8.20704 15.3391C5.05851 13.3224 4.02254 9.15047 5.91529 5.88364C7.82963 2.57914 12.0378 1.41312 15.3721 3.22908C15.3896 3.23861 15.4069 3.24847 15.4243 3.2582C15.449 3.27188 15.4736 3.28576 15.4982 3.29977C16.5269 3.89283 17.4189 4.75356 18.0576 5.85141C20.0097 9.2069 18.8681 13.525 15.5127 15.4771Z" fill="white"/>
<path d="M14.9768 4.28727C14.9671 4.28162 14.9572 4.27637 14.9475 4.27079C13.1664 3.23994 10.8962 3.16458 8.99363 4.27151C6.17024 5.9141 5.2095 9.54737 6.85209 12.3707C7.35331 13.2323 8.04015 13.92 8.83259 14.4136C8.89997 14.4563 8.96814 14.4982 9.0378 14.5386C11.8642 16.176 15.4956 15.2087 17.133 12.3824C18.7703 9.556 17.8033 5.92473 14.9768 4.28727ZM15.6839 8.90781L14.6942 9.87244C14.3877 10.1712 14.1961 10.7609 14.2686 11.1828L14.5022 12.5448C14.5746 12.9667 14.3238 13.1489 13.9449 12.9497L12.7217 12.3066C12.3428 12.1074 11.7228 12.1074 11.3439 12.3066L10.1207 12.9497C9.74176 13.1489 9.49096 12.9667 9.56334 12.5448L9.79696 11.1828C9.86934 10.7609 9.67775 10.1712 9.37123 9.87244L8.38163 8.90781C8.07505 8.60907 8.17091 8.31423 8.59449 8.25261L9.96209 8.05389C10.3857 7.99234 10.8873 7.6279 11.0767 7.24407L11.6883 6.00483C11.8778 5.621 12.1878 5.621 12.3772 6.00483L12.9889 7.24407C13.1783 7.6279 13.6799 7.99234 14.1035 8.05389L15.4711 8.25261C15.8946 8.31423 15.9904 8.60907 15.6839 8.90781Z" fill="white"/>
</svg>
