<svg width="40" height="40" viewBox="0 0 40 40" fill="none" xmlns="http://www.w3.org/2000/svg">
<g clip-path="url(#clip0_883_2995)">
<path d="M21.0361 26.5991C21.5733 26.5991 21.9908 27.0788 21.9036 27.6089C21.4217 30.5412 18.8754 32.7781 15.8067 32.7781C12.738 32.7781 10.1917 30.5411 9.70978 27.6089C9.62267 27.0788 10.0401 26.5991 10.5773 26.5991H21.0361Z" fill="white"/>
<path d="M33.0445 5.28332C31.8744 4.11324 29.9773 4.11324 28.8072 5.28332C27.6371 4.11324 25.74 4.11324 24.5699 5.28332C23.3999 6.4534 23.3999 8.35051 24.5699 9.52059L28.0506 13.0013C28.4685 13.4192 29.146 13.4192 29.5638 13.0013L33.0445 9.52059C34.2146 8.35051 34.2146 6.45348 33.0445 5.28332Z" fill="white"/>
<path d="M30.1038 19.5608C30.5763 21.02 30.8316 22.577 30.8316 24.1936C30.8316 32.4917 24.1046 39.2188 15.8064 39.2188C7.5082 39.2188 0.78125 32.4917 0.78125 24.1936C0.78125 15.8955 7.50828 9.16846 15.8064 9.16846C16.6059 9.16846 17.3909 9.23088 18.1566 9.35119" stroke="white" stroke-width="1.5625" stroke-miterlimit="10" stroke-linecap="round" stroke-linejoin="round"/>
<path d="M10.4775 20.2061L10.5062 21.4003" stroke="white" stroke-width="1.5625" stroke-miterlimit="10" stroke-linecap="round" stroke-linejoin="round"/>
<path d="M21.1361 20.2061L21.1074 21.4003" stroke="white" stroke-width="1.5625" stroke-miterlimit="10" stroke-linecap="round" stroke-linejoin="round"/>
<path d="M35.0636 0.78125H22.5506C20.2558 0.78125 18.3955 2.64156 18.3955 4.93633V12.8523C18.3955 15.147 20.2558 17.0073 22.5506 17.0073H27.8064C28.0346 18.2941 27.7296 19.4622 27.222 20.5296C29.1882 20.5296 31.2988 18.9735 31.2988 17.0073H35.0636C37.3583 17.0073 39.2186 15.147 39.2186 12.8523V4.93633C39.2186 2.64156 37.3583 0.78125 35.0636 0.78125Z" stroke="white" stroke-width="1.5625" stroke-miterlimit="10" stroke-linecap="round" stroke-linejoin="round"/>
</g>
<defs>
<clipPath id="clip0_883_2995">
<rect width="40" height="40" fill="white"/>
</clipPath>
</defs>
</svg>
