<svg width="330" height="74" viewBox="0 0 330 74" fill="none" xmlns="http://www.w3.org/2000/svg">
<g clip-path="url(#clip0_2859_4119)">
<path d="M37.691 32.8952C41.2367 32.8952 44.784 32.9105 48.3297 32.8861C49.6975 32.8769 50.7636 33.3524 51.382 34.596C52.0384 35.9157 52.0095 37.2446 51.1825 38.4897C50.5839 39.3919 49.699 39.8811 48.6176 39.8825C41.2474 39.8948 33.8757 39.9039 26.5054 39.8765C24.6275 39.8704 23.2887 38.3281 23.3009 36.3455C23.313 34.4222 24.6686 32.9699 26.5207 32.8983C26.5709 32.8968 26.6227 32.8952 26.673 32.8952C30.3451 32.8952 34.0188 32.8952 37.691 32.8952Z" fill="#EE2936"/>
<path d="M71.9475 39.9342C77.4748 39.9342 83.0007 39.9448 88.5279 39.9296C91.1825 39.9219 92.8259 37.6558 92.031 35.152C91.5418 33.6113 90.2732 32.7716 88.3724 32.7685C83.2015 32.7594 78.0292 32.764 72.8583 32.7624C71.946 32.7624 71.0321 32.7807 70.1198 32.7578C68.2068 32.7106 66.8361 31.3253 66.7873 29.4189C66.7355 27.3387 67.9525 25.9123 69.9218 25.7598C70.3254 25.7278 70.7321 25.7264 71.1372 25.7264C80.7205 25.7248 90.3036 25.7264 99.8869 25.7187C100.543 25.7187 101.218 25.7127 101.852 25.5693C103.587 25.1792 104.647 23.5989 104.452 21.8083C104.246 19.9064 102.962 18.6232 101.125 18.6079C97.1197 18.5745 93.1137 18.5928 89.1083 18.5805C88.6543 18.5805 88.1942 18.5531 87.7479 18.4769C85.8609 18.1538 84.6167 16.6345 84.7627 14.8636C84.9301 12.8292 86.266 11.5201 88.2812 11.5049C91.6532 11.4789 95.0252 11.4789 98.396 11.5125C99.2445 11.5216 99.8827 11.2534 100.501 10.6819C106.298 5.32827 113.138 2.0914 120.989 1.53211C135.751 0.480579 147.192 6.30969 154.692 19.1063C166.69 39.5806 154.751 65.3493 132.071 70.4725C125.709 71.9097 119.447 71.585 113.266 69.5686C108.427 67.9901 104.141 65.4512 100.439 61.9535C99.8624 61.4094 99.2624 61.1687 98.4723 61.1717C91.2224 61.1919 83.9708 61.1884 76.7209 61.1824C74.8916 61.1812 73.5513 60.2621 73.1279 58.7138C72.6299 56.8957 73.5331 54.2791 76.1741 54.177C76.5533 54.1617 76.9341 54.1358 77.3133 54.1358C83.6007 54.1297 89.8877 54.1282 96.1752 54.1206C98.1261 54.1175 99.3142 53.3738 99.8243 51.8682C100.688 49.3201 99.1587 47.0601 96.4815 47.019C93.4903 46.9732 90.4984 47.0052 87.5072 47.0038C77.0621 46.9992 66.6167 46.9992 56.1729 46.9839C55.5439 46.9839 54.8935 46.958 54.2919 46.7965C52.519 46.3241 51.628 44.8169 51.8855 42.8647C52.1184 41.0984 53.4237 39.9509 55.2941 39.9448C60.1862 39.9296 65.0799 39.9387 69.9736 39.9387C70.6331 39.9387 71.2926 39.9387 71.9506 39.9387V39.9342H71.9475Z" fill="#EE2936"/>
<path d="M66.1445 19.0196C64.2353 19.0196 62.3195 19.0997 60.4151 19.0003C57.7365 18.8609 56.2816 16.9715 56.9131 14.6224C57.2903 13.2179 58.5517 12.2377 60.3216 12.2095C63.9778 12.1501 67.6372 12.1368 71.2934 12.2035C72.8533 12.2317 74.0704 12.9643 74.6002 14.3539C75.1399 15.7717 74.8905 17.1361 73.6554 18.1579C73.1207 18.5999 72.2743 18.9054 71.5444 18.9514C69.7515 19.0625 67.9456 18.9884 66.1445 18.9884C66.1445 18.9988 66.1445 19.0106 66.1445 19.0211V19.0196Z" fill="#EE2936"/>
<path d="M109.766 30.4495L143.069 16.0549L126.051 33.1634L137.157 40.1393L104.338 54.786L121.125 37.4093L109.766 30.4495Z" fill="#1B2D51"/>
<path d="M276.216 38.3451C276.216 37.8236 276.078 37.3557 275.801 36.9415C275.523 36.5273 274.999 36.1514 274.228 35.8139C273.473 35.4611 272.364 35.1313 270.899 34.8245C269.605 34.5484 268.41 34.2032 267.316 33.789C266.222 33.3748 265.281 32.8762 264.495 32.2933C263.709 31.695 263.093 30.997 262.646 30.1993C262.214 29.3862 261.999 28.4504 261.999 27.3919C261.999 26.3641 262.222 25.3977 262.669 24.4925C263.116 23.5721 263.763 22.7667 264.611 22.0764C265.459 21.3708 266.491 20.8185 267.709 20.4196C268.926 20.0054 270.298 19.7983 271.824 19.7983C273.951 19.7983 275.777 20.1435 277.303 20.8338C278.844 21.5241 280.023 22.4752 280.84 23.6872C281.657 24.8837 282.065 26.2337 282.065 27.7371H275.962C275.962 27.0774 275.808 26.4791 275.5 25.9423C275.207 25.4053 274.752 24.9758 274.136 24.6537C273.52 24.3162 272.741 24.1474 271.801 24.1474C270.953 24.1474 270.236 24.2855 269.651 24.5616C269.08 24.8377 268.649 25.1982 268.356 25.6431C268.063 26.088 267.917 26.5789 267.917 27.1158C267.917 27.5147 267.994 27.8752 268.148 28.1973C268.318 28.5041 268.587 28.7879 268.957 29.0487C269.327 29.3095 269.828 29.5473 270.46 29.762C271.107 29.9769 271.901 30.1839 272.841 30.3834C274.706 30.7515 276.332 31.2424 277.719 31.8561C279.122 32.4543 280.216 33.2521 281.002 34.2492C281.788 35.2464 282.181 36.5196 282.181 38.069C282.181 39.1735 281.942 40.186 281.465 41.1065C280.987 42.0115 280.293 42.8016 279.384 43.4766C278.474 44.1516 277.388 44.6808 276.124 45.0643C274.86 45.4325 273.434 45.6166 271.847 45.6166C269.551 45.6166 267.609 45.2101 266.021 44.397C264.433 43.5686 263.231 42.5255 262.415 41.2675C261.598 39.9942 261.189 38.675 261.189 37.3097H267.038C267.084 38.2761 267.347 39.0508 267.824 39.6338C268.302 40.2167 268.903 40.6386 269.627 40.8994C270.368 41.1448 271.146 41.2675 271.963 41.2675C272.887 41.2675 273.666 41.1448 274.298 40.8994C274.929 40.6386 275.407 40.2934 275.731 39.8639C276.055 39.419 276.216 38.9128 276.216 38.3451Z" fill="#1B2D51"/>
<path d="M234.464 39.1752L239.943 20.2603H243.827L242.671 26.7954L237.146 45.1581H233.793L234.464 39.1752ZM231.435 20.2603L235.551 39.2212L235.921 45.1581H232.059L225.494 20.2603H231.435ZM248.913 38.9451L252.936 20.2603H258.855L252.335 45.1581H248.474L248.913 38.9451ZM244.428 20.2603L249.861 38.9911L250.578 45.1581H247.226L241.654 26.7954L240.521 20.2603H244.428Z" fill="#1B2D51"/>
<path d="M213.265 45.6166C211.369 45.6166 209.666 45.3098 208.156 44.6961C206.645 44.0825 205.358 43.2312 204.295 42.142C203.247 41.0374 202.438 39.7565 201.868 38.2991C201.313 36.8264 201.035 35.2464 201.035 33.5589V32.6385C201.035 30.7208 201.313 28.9797 201.868 27.4149C202.422 25.8348 203.208 24.4772 204.225 23.342C205.243 22.2068 206.46 21.3324 207.879 20.7188C209.296 20.1051 210.861 19.7983 212.572 19.7983C214.344 19.7983 215.908 20.0975 217.265 20.6958C218.621 21.2787 219.754 22.1071 220.663 23.1809C221.573 24.2548 222.259 25.5434 222.721 27.0468C223.183 28.5348 223.415 30.1839 223.415 31.9941V34.5484H203.809V30.3604H217.403V29.9001C217.373 28.9337 217.188 28.0516 216.849 27.2539C216.51 26.4408 215.985 25.7965 215.276 25.321C214.567 24.83 213.65 24.5846 212.525 24.5846C211.616 24.5846 210.822 24.784 210.144 25.1829C209.481 25.5664 208.926 26.1186 208.479 26.8397C208.048 27.5453 207.724 28.3891 207.509 29.3709C207.293 30.3527 207.185 31.4418 207.185 32.6385V33.5589C207.185 34.6021 207.323 35.5685 207.601 36.4582C207.894 37.348 208.318 38.1227 208.873 38.7823C209.443 39.4266 210.121 39.9329 210.907 40.3011C211.708 40.6539 212.618 40.8303 213.635 40.8303C214.914 40.8303 216.07 40.5849 217.103 40.094C218.151 39.5877 219.06 38.8437 219.831 37.8619L222.906 41.0374C222.382 41.8045 221.673 42.5408 220.779 43.2465C219.9 43.9521 218.837 44.5274 217.588 44.9723C216.34 45.4018 214.899 45.6166 213.265 45.6166Z" fill="#1B2D51"/>
<path d="M196.019 11.6528V45.1567H189.637L175.327 21.9157V45.1567H168.969V11.6528H175.327L189.684 34.9169V11.6528H196.019Z" fill="#1B2D51"/>
<g opacity="0.76">
<path d="M280.777 57.1523C280.777 57.0278 280.744 56.916 280.679 56.8171C280.614 56.7182 280.49 56.6284 280.309 56.5478C280.131 56.4635 279.87 56.3848 279.525 56.3115C279.22 56.2456 278.939 56.1631 278.681 56.0642C278.423 55.9653 278.202 55.8462 278.017 55.707C277.832 55.5641 277.686 55.3974 277.581 55.2069C277.48 55.0127 277.429 54.7892 277.429 54.5364C277.429 54.291 277.481 54.0601 277.587 53.844C277.692 53.6242 277.844 53.4319 278.044 53.267C278.243 53.0984 278.487 52.9665 278.774 52.8713C279.06 52.7724 279.383 52.7229 279.743 52.7229C280.244 52.7229 280.673 52.8053 281.033 52.9702C281.396 53.1351 281.673 53.3622 281.866 53.6517C282.058 53.9374 282.155 54.2598 282.155 54.6189H280.717C280.717 54.4613 280.681 54.3184 280.608 54.1902C280.539 54.062 280.432 53.9594 280.287 53.8824C280.142 53.8019 279.958 53.7615 279.737 53.7615C279.538 53.7615 279.369 53.7946 279.231 53.8605C279.097 53.9264 278.995 54.0125 278.926 54.1188C278.857 54.225 278.823 54.3423 278.823 54.4705C278.823 54.5657 278.841 54.6518 278.877 54.7288C278.917 54.802 278.981 54.8699 279.068 54.9321C279.155 54.9944 279.273 55.0512 279.422 55.1025C279.574 55.1538 279.761 55.2032 279.982 55.2508C280.421 55.3388 280.805 55.456 281.131 55.6026C281.461 55.7455 281.719 55.936 281.904 56.1741C282.089 56.4122 282.182 56.7163 282.182 57.0864C282.182 57.3501 282.126 57.592 282.013 57.8118C281.9 58.0279 281.737 58.2166 281.523 58.3778C281.309 58.5391 281.053 58.6654 280.755 58.757C280.458 58.845 280.122 58.8889 279.748 58.8889C279.208 58.8889 278.75 58.7918 278.376 58.5976C278.002 58.3998 277.719 58.1507 277.527 57.8502C277.334 57.5462 277.238 57.2311 277.238 56.905H278.616C278.627 57.1359 278.688 57.3209 278.801 57.4601C278.913 57.5993 279.055 57.7 279.225 57.7623C279.399 57.8209 279.583 57.8502 279.775 57.8502C279.993 57.8502 280.176 57.8209 280.325 57.7623C280.474 57.7 280.586 57.6176 280.663 57.515C280.739 57.4088 280.777 57.2879 280.777 57.1523Z" fill="#1B2D51"/>
<path d="M270.945 57.3493L272.235 52.832H273.15L272.878 54.3927L271.577 58.7782H270.787L270.945 57.3493ZM270.232 52.832L271.201 57.3603L271.289 58.7782H270.379L268.833 52.832H270.232ZM274.348 57.2944L275.295 52.832H276.689L275.154 58.7782H274.245L274.348 57.2944ZM273.292 52.832L274.571 57.3054L274.74 58.7782H273.95L272.638 54.3927L272.372 52.832H273.292Z" fill="#1B2D51"/>
<path d="M265.952 58.8889C265.506 58.8889 265.105 58.8157 264.749 58.6691C264.393 58.5225 264.091 58.3192 263.84 58.0591C263.593 57.7953 263.402 57.4894 263.268 57.1413C263.138 56.7896 263.072 56.4122 263.072 56.0093V55.7894C263.072 55.3315 263.138 54.9156 263.268 54.5419C263.399 54.1646 263.584 53.8403 263.824 53.5692C264.063 53.2981 264.35 53.0893 264.684 52.9427C265.018 52.7962 265.386 52.7229 265.789 52.7229C266.206 52.7229 266.575 52.7943 266.894 52.9372C267.214 53.0764 267.48 53.2743 267.694 53.5308C267.909 53.7872 268.07 54.0949 268.179 54.454C268.288 54.8094 268.342 55.2032 268.342 55.6355V56.2456H263.725V55.2454H266.927V55.1354C266.92 54.9047 266.876 54.694 266.796 54.5035C266.717 54.3093 266.593 54.1554 266.426 54.0418C266.259 53.9246 266.043 53.866 265.778 53.866C265.564 53.866 265.377 53.9136 265.217 54.0089C265.061 54.1005 264.931 54.2323 264.825 54.4045C264.724 54.5731 264.648 54.7746 264.596 55.009C264.546 55.2435 264.52 55.5037 264.52 55.7894V56.0093C264.52 56.2584 264.553 56.4892 264.619 56.7017C264.688 56.9142 264.787 57.0992 264.918 57.2568C265.052 57.4106 265.212 57.5315 265.397 57.6195C265.586 57.7037 265.8 57.7458 266.04 57.7458C266.341 57.7458 266.613 57.6872 266.856 57.57C267.103 57.4491 267.317 57.2714 267.498 57.0369L268.222 57.7953C268.099 57.9785 267.932 58.1544 267.722 58.3229C267.515 58.4914 267.264 58.6288 266.97 58.735C266.677 58.8376 266.337 58.8889 265.952 58.8889Z" fill="#1B2D51"/>
<path d="M261.89 50.7791V58.7806H260.388L257.018 53.2301V58.7806H255.521V50.7791H257.018L260.399 56.3351V50.7791H261.89Z" fill="#1B2D51"/>
<path d="M250.032 52.8328H251.339V58.5976C251.339 59.1362 251.223 59.5924 250.991 59.966C250.762 60.3434 250.441 60.6292 250.027 60.8233C249.614 61.0211 249.133 61.12 248.585 61.12C248.349 61.12 248.093 61.0872 247.817 61.0211C247.545 60.9555 247.281 60.8508 247.028 60.7079C246.777 60.5687 246.568 60.3874 246.401 60.1639L247.049 59.3066C247.245 59.5374 247.467 59.7114 247.713 59.8287C247.96 59.9496 248.227 60.01 248.514 60.01C248.804 60.01 249.051 59.9551 249.254 59.8451C249.461 59.7389 249.619 59.5813 249.728 59.3725C249.841 59.1673 249.897 58.9146 249.897 58.6141V54.1902L250.032 52.8328ZM246.053 55.8773V55.7619C246.053 55.3076 246.108 54.8955 246.217 54.5254C246.325 54.1517 246.481 53.8311 246.684 53.5637C246.891 53.2963 247.14 53.0893 247.43 52.9427C247.724 52.7962 248.055 52.7229 248.421 52.7229C248.81 52.7229 249.136 52.7943 249.401 52.9372C249.67 53.0801 249.891 53.2834 250.065 53.5472C250.243 53.811 250.381 54.1243 250.479 54.487C250.581 54.846 250.659 55.2417 250.714 55.674V55.9873C250.662 56.4086 250.581 56.7951 250.468 57.1468C250.36 57.4986 250.214 57.8063 250.032 58.07C249.851 58.3302 249.626 58.5317 249.357 58.6746C249.089 58.8175 248.773 58.8889 248.411 58.8889C248.048 58.8889 247.721 58.8138 247.43 58.6636C247.14 58.5134 246.891 58.3027 246.684 58.0316C246.481 57.7605 246.325 57.4418 246.217 57.0754C246.108 56.709 246.053 56.3097 246.053 55.8773ZM247.491 55.7619V55.8773C247.491 56.1338 247.516 56.3738 247.566 56.5973C247.617 56.8208 247.696 57.0186 247.8 57.1908C247.906 57.3593 248.038 57.4912 248.198 57.5864C248.358 57.6817 248.548 57.7293 248.77 57.7293C249.067 57.7293 249.31 57.6671 249.499 57.5425C249.692 57.4142 249.836 57.2403 249.935 57.0204C250.037 56.7969 250.102 56.546 250.131 56.2675V55.4048C250.112 55.1849 250.072 54.9816 250.011 54.7947C249.953 54.6079 249.871 54.4467 249.766 54.3111C249.661 54.1756 249.527 54.0693 249.363 53.9924C249.199 53.9155 249.006 53.877 248.781 53.877C248.562 53.877 248.372 53.9264 248.209 54.0253C248.045 54.1206 247.911 54.2543 247.806 54.4265C247.701 54.5987 247.621 54.7984 247.566 55.0256C247.516 55.2527 247.491 55.4981 247.491 55.7619Z" fill="#1B2D51"/>
<path d="M241.468 54.1023V58.779H240.031V52.8328H241.381L241.468 54.1023ZM241.24 55.5916H240.815C240.819 55.1593 240.877 54.7672 240.989 54.4155C241.102 54.0638 241.26 53.7615 241.463 53.5088C241.67 53.256 241.915 53.0618 242.198 52.9263C242.481 52.7907 242.797 52.7229 243.145 52.7229C243.428 52.7229 243.684 52.7632 243.913 52.8438C244.141 52.9244 244.338 53.0527 244.501 53.2285C244.668 53.4043 244.795 53.6352 244.882 53.9209C244.973 54.203 245.018 54.5511 245.018 54.9651V58.779H243.57V54.9541C243.57 54.683 243.53 54.4687 243.45 54.3111C243.374 54.1536 243.261 54.0418 243.113 53.9759C242.968 53.9099 242.788 53.877 242.574 53.877C242.352 53.877 242.158 53.9228 241.991 54.0144C241.828 54.1023 241.69 54.225 241.578 54.3826C241.468 54.5401 241.385 54.7215 241.327 54.9266C241.269 55.1318 241.24 55.3535 241.24 55.5916Z" fill="#1B2D51"/>
<path d="M238.687 52.834V58.7802H237.244V52.834H238.687ZM237.146 51.2788C237.146 51.0626 237.219 50.883 237.364 50.7402C237.513 50.5973 237.713 50.5259 237.963 50.5259C238.213 50.5259 238.411 50.5973 238.556 50.7402C238.705 50.883 238.78 51.0626 238.78 51.2788C238.78 51.4912 238.705 51.6689 238.556 51.8118C238.411 51.9547 238.213 52.0261 237.963 52.0261C237.713 52.0261 237.513 51.9547 237.364 51.8118C237.219 51.6689 237.146 51.4912 237.146 51.2788Z" fill="#1B2D51"/>
<path d="M234.414 57.5155V50.3384H235.862V58.7795H234.555L234.414 57.5155ZM230.63 55.8779V55.7625C230.63 55.3082 230.681 54.896 230.782 54.526C230.887 54.1523 231.04 53.8317 231.239 53.5643C231.439 53.2968 231.68 53.0898 231.963 52.9433C232.251 52.7967 232.575 52.7234 232.938 52.7234C233.29 52.7234 233.597 52.7949 233.858 52.9378C234.123 53.0807 234.348 53.284 234.533 53.5478C234.722 53.8115 234.872 54.1248 234.985 54.4875C235.098 54.8466 235.179 55.2422 235.23 55.6746V55.9878C235.179 56.4091 235.098 56.7956 234.985 57.1474C234.872 57.499 234.722 57.8068 234.533 58.0706C234.348 58.3307 234.123 58.5322 233.858 58.6751C233.593 58.818 233.283 58.8894 232.928 58.8894C232.568 58.8894 232.245 58.8143 231.958 58.6641C231.675 58.5139 231.434 58.3032 231.234 58.0322C231.038 57.761 230.887 57.4422 230.782 57.0759C230.681 56.7095 230.63 56.3102 230.63 55.8779ZM232.072 55.7625V55.8779C232.072 56.1343 232.094 56.3743 232.138 56.5978C232.181 56.8213 232.252 57.0191 232.35 57.1913C232.448 57.3598 232.574 57.4917 232.726 57.587C232.882 57.6823 233.071 57.7299 233.292 57.7299C233.575 57.7299 233.808 57.6676 233.989 57.543C234.174 57.4148 234.317 57.2408 234.419 57.0209C234.521 56.7975 234.586 56.5465 234.615 56.268V55.4052C234.601 55.1854 234.563 54.9821 234.501 54.7953C234.443 54.6084 234.359 54.4472 234.25 54.3117C234.145 54.1761 234.014 54.0698 233.858 53.9929C233.702 53.9159 233.517 53.8775 233.303 53.8775C233.081 53.8775 232.893 53.927 232.737 54.0259C232.581 54.1211 232.454 54.2549 232.355 54.4271C232.258 54.5992 232.185 54.7989 232.138 55.0261C232.094 55.2532 232.072 55.4987 232.072 55.7625Z" fill="#1B2D51"/>
<path d="M226.062 54.1023V58.779H224.625V52.8328H225.975L226.062 54.1023ZM225.833 55.5916H225.409C225.413 55.1593 225.471 54.7672 225.583 54.4155C225.696 54.0638 225.854 53.7615 226.057 53.5088C226.264 53.256 226.509 53.0618 226.792 52.9263C227.075 52.7907 227.39 52.7229 227.739 52.7229C228.022 52.7229 228.278 52.7632 228.506 52.8438C228.735 52.9244 228.931 53.0527 229.095 53.2285C229.261 53.4043 229.389 53.6352 229.476 53.9209C229.566 54.203 229.612 54.5511 229.612 54.9651V58.779H228.164V54.9541C228.164 54.683 228.124 54.4687 228.044 54.3111C227.968 54.1536 227.855 54.0418 227.706 53.9759C227.561 53.9099 227.381 53.877 227.168 53.877C226.946 53.877 226.752 53.9228 226.585 54.0144C226.422 54.1023 226.284 54.225 226.171 54.3826C226.062 54.5401 225.979 54.7215 225.921 54.9266C225.863 55.1318 225.833 55.3535 225.833 55.5916Z" fill="#1B2D51"/>
<path d="M221.298 58.8889C220.851 58.8889 220.45 58.8157 220.095 58.6691C219.739 58.5225 219.436 58.3192 219.185 58.0591C218.939 57.7953 218.748 57.4894 218.614 57.1413C218.484 56.7896 218.418 56.4122 218.418 56.0093V55.7894C218.418 55.3315 218.484 54.9156 218.614 54.5419C218.745 54.1646 218.93 53.8403 219.169 53.5692C219.409 53.2981 219.696 53.0893 220.029 52.9427C220.363 52.7962 220.732 52.7229 221.135 52.7229C221.552 52.7229 221.92 52.7943 222.24 52.9372C222.559 53.0764 222.826 53.2743 223.04 53.5308C223.255 53.7872 223.416 54.0949 223.525 54.454C223.634 54.8094 223.688 55.2032 223.688 55.6355V56.2456H219.071V55.2454H222.273V55.1354C222.265 54.9047 222.222 54.694 222.142 54.5035C222.062 54.3093 221.938 54.1554 221.771 54.0418C221.605 53.9246 221.389 53.866 221.124 53.866C220.91 53.866 220.723 53.9136 220.563 54.0089C220.407 54.1005 220.276 54.2323 220.171 54.4045C220.069 54.5731 219.993 54.7746 219.942 55.009C219.892 55.2435 219.866 55.5037 219.866 55.7894V56.0093C219.866 56.2584 219.899 56.4892 219.964 56.7017C220.033 56.9142 220.133 57.0992 220.263 57.2568C220.398 57.4106 220.558 57.5315 220.742 57.6195C220.931 57.7037 221.146 57.7458 221.385 57.7458C221.686 57.7458 221.959 57.6872 222.202 57.57C222.448 57.4491 222.663 57.2714 222.844 57.0369L223.568 57.7953C223.445 57.9785 223.278 58.1544 223.067 58.3229C222.861 58.4914 222.61 58.6288 222.316 58.735C222.022 58.8376 221.683 58.8889 221.298 58.8889Z" fill="#1B2D51"/>
<path d="M216.181 54.0473V58.779H214.744V52.8328H216.105L216.181 54.0473ZM217.973 52.7943L217.95 54.1462C217.871 54.1316 217.78 54.1206 217.678 54.1133C217.58 54.106 217.488 54.1023 217.4 54.1023C217.179 54.1023 216.985 54.1334 216.818 54.1957C216.651 54.2543 216.511 54.3404 216.399 54.454C216.29 54.5676 216.206 54.7068 216.149 54.8716C216.091 55.0329 216.058 55.216 216.051 55.4212L215.74 55.3828C215.74 55.0054 215.779 54.6555 215.855 54.3331C215.931 54.0107 216.041 53.7286 216.187 53.4868C216.332 53.245 216.513 53.0581 216.731 52.9263C216.952 52.7907 217.207 52.7229 217.493 52.7229C217.573 52.7229 217.659 52.7302 217.749 52.7449C217.844 52.7559 217.918 52.7724 217.973 52.7943Z" fill="#1B2D51"/>
<path d="M211.775 50.7791V58.7806H210.284V50.7791H211.775ZM214.236 50.7791V51.9716H207.85V50.7791H214.236Z" fill="#1B2D51"/>
<path d="M204.802 52.8344V53.8785H201.427V52.8344H204.802ZM202.331 51.3726H203.773V57.066C203.773 57.2418 203.797 57.3774 203.844 57.4726C203.891 57.5679 203.962 57.632 204.056 57.665C204.151 57.6979 204.263 57.7144 204.394 57.7144C204.488 57.7144 204.575 57.709 204.655 57.6979C204.735 57.687 204.802 57.6759 204.857 57.665L204.862 58.7531C204.742 58.7934 204.606 58.8264 204.454 58.852C204.305 58.8777 204.136 58.8905 203.947 58.8905C203.624 58.8905 203.341 58.8355 203.098 58.7256C202.855 58.612 202.666 58.4307 202.532 58.1815C202.397 57.9288 202.331 57.5954 202.331 57.1814V51.3726Z" fill="#1B2D51"/>
<path d="M199.515 57.1523C199.515 57.0278 199.483 56.916 199.418 56.8171C199.352 56.7182 199.229 56.6284 199.047 56.5478C198.869 56.4635 198.608 56.3848 198.263 56.3115C197.958 56.2456 197.677 56.1631 197.419 56.0642C197.162 55.9653 196.94 55.8462 196.755 55.707C196.57 55.5641 196.425 55.3974 196.32 55.2069C196.218 55.0127 196.167 54.7892 196.167 54.5364C196.167 54.291 196.22 54.0601 196.325 53.844C196.43 53.6242 196.583 53.4319 196.782 53.267C196.982 53.0984 197.225 52.9665 197.512 52.8713C197.799 52.7724 198.122 52.7229 198.481 52.7229C198.982 52.7229 199.412 52.8053 199.771 52.9702C200.134 53.1351 200.412 53.3622 200.604 53.6517C200.796 53.9374 200.893 54.2598 200.893 54.6189H199.455C199.455 54.4613 199.419 54.3184 199.347 54.1902C199.278 54.062 199.17 53.9594 199.026 53.8824C198.88 53.8019 198.697 53.7615 198.476 53.7615C198.276 53.7615 198.107 53.7946 197.969 53.8605C197.835 53.9264 197.733 54.0125 197.664 54.1188C197.596 54.225 197.561 54.3423 197.561 54.4705C197.561 54.5657 197.579 54.6518 197.615 54.7288C197.655 54.802 197.719 54.8699 197.806 54.9321C197.893 54.9944 198.011 55.0512 198.16 55.1025C198.312 55.1538 198.499 55.2032 198.72 55.2508C199.16 55.3388 199.543 55.456 199.869 55.6026C200.199 55.7455 200.457 55.936 200.642 56.1741C200.827 56.4122 200.92 56.7163 200.92 57.0864C200.92 57.3501 200.864 57.592 200.751 57.8118C200.639 58.0279 200.475 58.2166 200.261 58.3778C200.047 58.5391 199.791 58.6654 199.493 58.757C199.196 58.845 198.861 58.8889 198.486 58.8889C197.946 58.8889 197.488 58.7918 197.115 58.5976C196.74 58.3998 196.457 58.1507 196.265 57.8502C196.073 57.5462 195.977 57.2311 195.977 56.905H197.354C197.365 57.1359 197.427 57.3209 197.539 57.4601C197.652 57.5993 197.793 57.7 197.964 57.7623C198.138 57.8209 198.321 57.8502 198.514 57.8502C198.731 57.8502 198.915 57.8209 199.064 57.7623C199.212 57.7 199.325 57.6176 199.401 57.515C199.477 57.4088 199.515 57.2879 199.515 57.1523Z" fill="#1B2D51"/>
<path d="M192.923 58.8889C192.476 58.8889 192.075 58.8157 191.72 58.6691C191.364 58.5225 191.061 58.3192 190.81 58.0591C190.564 57.7953 190.373 57.4894 190.239 57.1413C190.108 56.7896 190.043 56.4122 190.043 56.0093V55.7894C190.043 55.3315 190.108 54.9156 190.239 54.5419C190.37 54.1646 190.555 53.8403 190.794 53.5692C191.034 53.2981 191.321 53.0893 191.654 52.9427C191.988 52.7962 192.357 52.7229 192.76 52.7229C193.177 52.7229 193.545 52.7943 193.865 52.9372C194.184 53.0764 194.451 53.2743 194.665 53.5308C194.879 53.7872 195.04 54.0949 195.15 54.454C195.259 54.8094 195.313 55.2032 195.313 55.6355V56.2456H190.696V55.2454H193.898V55.1354C193.89 54.9047 193.846 54.694 193.767 54.5035C193.687 54.3093 193.563 54.1554 193.396 54.0418C193.23 53.9246 193.013 53.866 192.749 53.866C192.534 53.866 192.348 53.9136 192.188 54.0089C192.032 54.1005 191.901 54.2323 191.796 54.4045C191.694 54.5731 191.618 54.7746 191.567 55.009C191.517 55.2435 191.491 55.5037 191.491 55.7894V56.0093C191.491 56.2584 191.524 56.4892 191.589 56.7017C191.658 56.9142 191.758 57.0992 191.888 57.2568C192.023 57.4106 192.183 57.5315 192.367 57.6195C192.556 57.7037 192.77 57.7458 193.01 57.7458C193.311 57.7458 193.584 57.6872 193.827 57.57C194.073 57.4491 194.288 57.2714 194.469 57.0369L195.193 57.7953C195.07 57.9785 194.903 58.1544 194.692 58.3229C194.485 58.4914 194.235 58.6288 193.941 58.735C193.647 58.8376 193.308 58.8889 192.923 58.8889Z" fill="#1B2D51"/>
<path d="M189.318 52.8344V53.8785H185.942V52.8344H189.318ZM186.846 51.3726H188.289V57.066C188.289 57.2418 188.313 57.3774 188.36 57.4726C188.407 57.5679 188.478 57.632 188.572 57.665C188.666 57.6979 188.779 57.7144 188.91 57.7144C189.004 57.7144 189.091 57.709 189.171 57.6979C189.251 57.687 189.318 57.6759 189.372 57.665L189.378 58.7531C189.258 58.7934 189.122 58.8264 188.969 58.852C188.82 58.8777 188.652 58.8905 188.463 58.8905C188.14 58.8905 187.857 58.8355 187.614 58.7256C187.371 58.612 187.182 58.4307 187.048 58.1815C186.913 57.9288 186.846 57.5954 186.846 57.1814V51.3726Z" fill="#1B2D51"/>
<path d="M184.032 57.1523C184.032 57.0278 183.999 56.916 183.934 56.8171C183.869 56.7182 183.745 56.6284 183.564 56.5478C183.386 56.4635 183.124 56.3848 182.779 56.3115C182.475 56.2456 182.194 56.1631 181.936 56.0642C181.678 55.9653 181.457 55.8462 181.271 55.707C181.087 55.5641 180.941 55.3974 180.836 55.2069C180.734 55.0127 180.684 54.7892 180.684 54.5364C180.684 54.291 180.736 54.0601 180.842 53.844C180.947 53.6242 181.099 53.4319 181.299 53.267C181.498 53.0984 181.742 52.9665 182.028 52.8713C182.315 52.7724 182.638 52.7229 182.998 52.7229C183.498 52.7229 183.928 52.8053 184.288 52.9702C184.651 53.1351 184.928 53.3622 185.121 53.6517C185.313 53.9374 185.409 54.2598 185.409 54.6189H183.972C183.972 54.4613 183.935 54.3184 183.863 54.1902C183.794 54.062 183.687 53.9594 183.542 53.8824C183.397 53.8019 183.213 53.7615 182.992 53.7615C182.793 53.7615 182.623 53.7946 182.486 53.8605C182.352 53.9264 182.25 54.0125 182.181 54.1188C182.112 54.225 182.078 54.3423 182.078 54.4705C182.078 54.5657 182.095 54.6518 182.132 54.7288C182.172 54.802 182.235 54.8699 182.322 54.9321C182.409 54.9944 182.527 55.0512 182.676 55.1025C182.829 55.1538 183.015 55.2032 183.237 55.2508C183.676 55.3388 184.059 55.456 184.386 55.6026C184.716 55.7455 184.973 55.936 185.159 56.1741C185.344 56.4122 185.436 56.7163 185.436 57.0864C185.436 57.3501 185.38 57.592 185.268 57.8118C185.155 58.0279 184.992 58.2166 184.778 58.3778C184.564 58.5391 184.308 58.6654 184.01 58.757C183.713 58.845 183.377 58.8889 183.003 58.8889C182.462 58.8889 182.005 58.7918 181.631 58.5976C181.257 58.3998 180.974 58.1507 180.782 57.8502C180.589 57.5462 180.493 57.2311 180.493 56.905H181.871C181.882 57.1359 181.943 57.3209 182.056 57.4601C182.168 57.5993 182.31 57.7 182.48 57.7623C182.654 57.8209 182.838 57.8502 183.03 57.8502C183.248 57.8502 183.431 57.8209 183.58 57.7623C183.729 57.7 183.841 57.6176 183.918 57.515C183.994 57.4088 184.032 57.2879 184.032 57.1523Z" fill="#1B2D51"/>
<path d="M178.049 57.515V54.7727C178.049 54.5713 178.014 54.3972 177.945 54.2507C177.876 54.1041 177.771 53.9905 177.629 53.9099C177.487 53.8294 177.308 53.789 177.09 53.789C176.898 53.789 176.729 53.822 176.584 53.888C176.442 53.9539 176.333 54.0473 176.257 54.1682C176.181 54.2855 176.143 54.421 176.143 54.5749H174.7C174.7 54.3295 174.758 54.0968 174.874 53.877C174.991 53.6535 175.156 53.4556 175.37 53.2834C175.588 53.1076 175.847 52.9702 176.148 52.8713C176.453 52.7724 176.794 52.7229 177.172 52.7229C177.618 52.7229 178.016 52.7998 178.364 52.9537C178.716 53.104 178.992 53.3311 179.191 53.6352C179.395 53.9392 179.497 54.3221 179.497 54.7838V57.3777C179.497 57.6744 179.514 57.929 179.551 58.1415C179.591 58.3503 179.649 58.5317 179.725 58.6856V58.779H178.261C178.192 58.6288 178.139 58.4383 178.103 58.2075C178.066 57.973 178.049 57.7421 178.049 57.515ZM178.25 55.1574L178.261 56.0202H177.351C177.126 56.0202 176.928 56.0441 176.758 56.0917C176.588 56.1356 176.448 56.2016 176.339 56.2895C176.23 56.3738 176.148 56.4764 176.094 56.5973C176.039 56.7145 176.012 56.8482 176.012 56.9984C176.012 57.145 176.045 57.2769 176.11 57.3941C176.179 57.5114 176.277 57.6048 176.404 57.6744C176.535 57.7404 176.687 57.7733 176.862 57.7733C177.115 57.7733 177.337 57.722 177.525 57.6195C177.714 57.5132 177.861 57.385 177.967 57.2348C178.072 57.0845 178.128 56.9417 178.136 56.8061L178.549 57.4326C178.498 57.5828 178.422 57.7421 178.32 57.9107C178.219 58.0792 178.089 58.2368 177.929 58.3833C177.769 58.5299 177.577 58.6508 177.351 58.7461C177.126 58.8413 176.865 58.8889 176.567 58.8889C176.187 58.8889 175.845 58.812 175.544 58.6581C175.243 58.5042 175.005 58.2936 174.831 58.0261C174.656 57.7586 174.569 57.4546 174.569 57.1139C174.569 56.7988 174.628 56.5203 174.744 56.2785C174.86 56.0367 175.032 55.8334 175.261 55.6685C175.489 55.5 175.772 55.3736 176.11 55.2893C176.451 55.2014 176.841 55.1574 177.281 55.1574H178.25Z" fill="#1B2D51"/>
<path d="M170.465 50.7791V58.7806H168.968V50.7791H170.465ZM173.661 54.2358V55.4283H170.073V54.2358H173.661ZM174.08 50.7791V51.9716H170.073V50.7791H174.08Z" fill="#1B2D51"/>
</g>
</g>
<defs>
<clipPath id="clip0_2859_4119">
<rect width="282" height="72" fill="white" transform="translate(24 1)"/>
</clipPath>
</defs>
</svg>
