<svg width="40" height="40" viewBox="0 0 40 40" fill="none" xmlns="http://www.w3.org/2000/svg">
<path d="M9.0942 25.748L8.21076 24.8645C7.55748 24.2112 7.14865 23.3533 7.05264 22.4345C6.9567 21.5156 6.54779 20.6577 5.89451 20.0044L4.7124 18.8223" fill="white"/>
<path d="M9.0942 25.748L8.21076 24.8645C7.55748 24.2112 7.14865 23.3533 7.05264 22.4345C6.9567 21.5156 6.54779 20.6577 5.89451 20.0044L4.7124 18.8223" stroke="white" stroke-width="1.5625" stroke-miterlimit="10" stroke-linecap="round" stroke-linejoin="round"/>
<path d="M19.9583 14.2524L19.6513 13.9089C18.9604 13.1459 17.9685 12.726 16.9399 12.7613C15.7852 12.8008 14.6658 12.3594 13.8488 11.5425L12.9399 10.6335" fill="white"/>
<path d="M19.9583 14.2524L19.6513 13.9089C18.9604 13.1459 17.9685 12.726 16.9399 12.7613C15.7852 12.8008 14.6658 12.3594 13.8488 11.5425L12.9399 10.6335" stroke="white" stroke-width="1.5625" stroke-miterlimit="10" stroke-linecap="round" stroke-linejoin="round"/>
<path d="M18.9541 35.6082L19.9518 36.6059C20.6231 37.2772 21.7113 37.2772 22.3825 36.6059C23.0538 35.9347 23.0538 34.8465 22.3825 34.1752L20.0901 31.8828" stroke="white" stroke-width="1.5625" stroke-miterlimit="10" stroke-linecap="round" stroke-linejoin="round"/>
<path d="M20.0903 31.883L22.3828 34.1754C23.054 34.8466 24.1422 34.8466 24.8135 34.1754C25.4847 33.5041 25.4847 32.4159 24.8135 31.7447L20.7504 27.6816" stroke="white" stroke-width="1.5625" stroke-miterlimit="10" stroke-linecap="round" stroke-linejoin="round"/>
<path d="M20.7505 27.6817L24.8135 31.7447C25.4848 32.416 26.573 32.416 27.2442 31.7447C27.9155 31.0735 27.9155 29.9853 27.2442 29.314L23.1812 25.251" stroke="white" stroke-width="1.5625" stroke-miterlimit="10" stroke-linecap="round" stroke-linejoin="round"/>
<path d="M23.1811 25.2509L27.2441 29.314C27.9154 29.9852 29.0036 29.9852 29.6748 29.314C30.3461 28.6427 30.3461 27.5545 29.6748 26.8833L21.4121 18.6206" stroke="white" stroke-width="1.5625" stroke-miterlimit="10" stroke-linecap="round" stroke-linejoin="round"/>
<path d="M11.1088 6.51373L0.78125 16.8413L3.68782 19.7479L14.0154 9.42029L11.1088 6.51373Z" stroke="white" stroke-width="1.5625" stroke-miterlimit="10" stroke-linecap="round" stroke-linejoin="round"/>
<path d="M29.7861 26.8672L31.7889 24.8645C32.4421 24.2112 32.851 23.3532 32.947 22.4344C33.0429 21.5156 33.4518 20.6576 34.1051 20.0043L35.2671 18.8423" stroke="white" stroke-width="1.5625" stroke-miterlimit="10" stroke-linecap="round" stroke-linejoin="round"/>
<path d="M28.8909 6.51409L25.9844 9.42065L36.312 19.7482L39.2185 16.8417L28.8909 6.51409Z" stroke="white" stroke-width="1.5625" stroke-miterlimit="10" stroke-linecap="round" stroke-linejoin="round"/>
<path d="M11.1088 6.56902L13.96 9.42021L3.68768 19.6925L0.836492 16.8413L11.1088 6.56902Z" fill="white" stroke="white" stroke-width="0.078125"/>
<path d="M28.8908 6.56947L39.1631 16.8418L36.3119 19.6929L26.0396 9.42065L28.8908 6.56947Z" fill="white" stroke="white" stroke-width="0.078125"/>
<path d="M27.1119 10.5818L26.2564 11.4373C25.4088 12.2849 24.2592 12.7611 23.0604 12.7611C22.0318 12.7258 21.0398 13.1458 20.349 13.9087L16.2994 17.9826C15.5295 18.7593 15.5144 20.0456 16.3032 20.8031C17.0693 21.5388 18.2868 21.5294 19.0413 20.7748L21.2393 18.5769C21.666 18.1501 22.3359 18.115 22.8218 18.473C23.3858 18.8888 24.0829 19.1345 24.8375 19.1345C26.0115 19.1345 27.0467 18.5397 27.658 17.6348" stroke="white" stroke-width="1.5625" stroke-miterlimit="10" stroke-linecap="round" stroke-linejoin="round"/>
<path d="M15.2288 27.0215C14.5575 26.3503 13.4693 26.3503 12.7981 27.0215L10.1172 29.7024C9.44596 30.3736 9.44596 31.4618 10.1172 32.1331C10.7885 32.8043 11.8767 32.8043 12.5479 32.1331L15.2288 29.4522C15.9 28.781 15.9 27.6927 15.2288 27.0215Z" stroke="white" stroke-width="1.5625" stroke-miterlimit="10" stroke-linecap="round" stroke-linejoin="round"/>
<path d="M17.6594 29.4522C16.9882 28.7809 15.9 28.7809 15.2287 29.4522L12.5479 32.133C11.8766 32.8043 11.8766 33.8925 12.5479 34.5637C13.2191 35.235 14.3073 35.235 14.9786 34.5637L17.6594 31.8829C18.3307 31.2117 18.3307 30.1234 17.6594 29.4522Z" stroke="white" stroke-width="1.5625" stroke-miterlimit="10" stroke-linecap="round" stroke-linejoin="round"/>
<path d="M12.7981 24.5908C12.1269 23.9196 11.0387 23.9196 10.3674 24.5908L8.54641 26.4119C7.87516 27.083 7.87516 28.1713 8.54641 28.8426C9.21766 29.5138 10.3059 29.5138 10.9771 28.8426L12.7981 27.0215C13.4693 26.3503 13.4693 25.2621 12.7981 24.5908Z" stroke="white" stroke-width="1.5625" stroke-miterlimit="10" stroke-linecap="round" stroke-linejoin="round"/>
<path d="M20.0899 31.8828C19.4186 31.2116 18.3304 31.2116 17.6592 31.8828L15.9966 33.5454C15.3254 34.2167 15.3254 35.3049 15.9966 35.9761C16.6679 36.6474 17.7561 36.6474 18.4273 35.9761L20.0899 34.3135C20.7611 33.6423 20.7611 32.5541 20.0899 31.8828Z" stroke="white" stroke-width="1.5625" stroke-miterlimit="10" stroke-linecap="round" stroke-linejoin="round"/>
<path d="M23.8112 2.89062L19.705 6.99687L17.5303 4.82219" stroke="white" stroke-width="1.5625" stroke-miterlimit="10" stroke-linecap="round" stroke-linejoin="round"/>
</svg>
