<svg id="iOS" xmlns="http://www.w3.org/2000/svg" width="36" height="36" viewBox="0 0 36 36">
  <rect id="path" width="36" height="36" rx="18" fill="#1d76f2"/>
  <path id="Path_143" data-name="Path 143" d="M159.647,215.7h0l-1.214,2.1a1.605,1.605,0,0,1-2.78-1.605l.895-1.549.086-.149a1.325,1.325,0,0,1,1.289-.529s1.781.193,1.91,1.119A1.083,1.083,0,0,1,159.647,215.7Zm17.224-5.372h-3.787a.559.559,0,0,1-.415-.163l0,0-4.054-7.021-.005,0-.243-.349c-.4-.609-1.031.949-1.031.949a5.441,5.441,0,0,0,.408,4.307l5.63,9.751a1.605,1.605,0,0,0,2.78-1.605l-1.408-2.438c-.027-.059-.075-.219.214-.22h1.913a1.605,1.605,0,1,0,0-3.21Zm-7.355,2.182s.2,1.028-.58,1.028h-14a1.605,1.605,0,1,1,0-3.21h3.6c.581-.034.719-.369.719-.369l0,0,4.7-8.136h0a.358.358,0,0,0,0-.329l-1.551-2.687a1.605,1.605,0,0,1,2.78-1.605l.72,1.246.718-1.244a1.605,1.605,0,0,1,2.78,1.605l-6.537,11.322c-.029.069-.037.177.175.2h3.908v.038A2.625,2.625,0,0,1,169.516,212.508Z" transform="translate(-147.94 -189.491)" fill="#fff"/>
</svg>
