<svg xmlns="http://www.w3.org/2000/svg" width="31.635" height="36" viewBox="0 0 31.635 36">
  <g id="Play_store" data-name="Play store" transform="translate(-5444.183 14422.016)">
    <path id="Path_138" data-name="Path 138" d="M20.913,11.527,1.784.644a.773.773,0,0,0-.775.008.761.761,0,0,0-.388.664s.008,1,.016,2.655L14.57,17.84Z" transform="translate(5443.562 -14422.56)" fill="#4ab96a"/>
    <path id="Path_139" data-name="Path 139" d="M.639,4.436c.023,5.951.093,20.4.124,27.591L14.58,18.289Z" transform="translate(5443.56 -14423.024)" fill="#45afe3"/>
    <path id="Path_140" data-name="Path 140" d="M33.751,19.244,22.8,13.016l-6.35,6.313,7.165,7.132,10.142-5.881a.771.771,0,0,0,.388-.664A.781.781,0,0,0,33.751,19.244Z" transform="translate(5441.671 -14424.064)" fill="#faa51a"/>
    <path id="Path_141" data-name="Path 141" d="M.771,33.94c.016,2.57.023,4.214.023,4.214a.752.752,0,0,0,.388.664.773.773,0,0,0,.775,0l19.8-11.492-7.165-7.132Z" transform="translate(5443.543 -14424.938)" fill="#ec3b50"/>
  </g>
</svg>
