<svg xmlns="http://www.w3.org/2000/svg" width="36" height="36" viewBox="0 0 36 36">
  <path id="internet_6104988" d="M18,0A18,18,0,1,1,0,18,18,18,0,0,1,18,0Zm3.8,16.663,1.214,3.11a.6.6,0,0,0,1.114,0l.658-1.684.658,1.684a.6.6,0,0,0,1.113,0l1.214-3.11a.6.6,0,1,0-1.113-.435L26,17.912l-.658-1.684a.6.6,0,0,0-1.113,0l-.657,1.684-.658-1.685a.6.6,0,1,0-1.114.435Zm-6.783,0,1.214,3.11a.6.6,0,0,0,1.113,0L18,18.088l.658,1.685a.6.6,0,0,0,1.114,0l1.214-3.11a.6.6,0,1,0-1.113-.435l-.658,1.685-.658-1.684a.6.6,0,0,0-1.113,0l-.658,1.684-.658-1.684a.6.6,0,1,0-1.113.435Zm-6.783,0,1.214,3.109a.6.6,0,0,0,1.113,0l.657-1.685.658,1.684a.6.6,0,0,0,1.113,0l1.214-3.11a.6.6,0,1,0-1.113-.435l-.658,1.685-.658-1.684a.6.6,0,0,0-1.113,0L10,17.913l-.658-1.685a.6.6,0,1,0-1.113.435Zm-1.587-.339v3.354a1.193,1.193,0,0,0,1.191,1.192H28.164a1.193,1.193,0,0,0,1.191-1.192V16.323a1.193,1.193,0,0,0-1.191-1.192H7.836a1.193,1.193,0,0,0-1.191,1.192Zm5.8-2.9.2.058.045-.207a13.4,13.4,0,0,1,1.845-4.613l.04-.058.344-.516-.58.22a10.4,10.4,0,0,0-4.747,3.637l-.123.171.177.113a10.567,10.567,0,0,0,2.795,1.2Zm13.9-1.211.184-.113-.127-.174A10.413,10.413,0,0,0,21.66,8.311l-.6-.228.368.528A13.23,13.23,0,0,1,23.3,13.248l.046.208.2-.059a11.523,11.523,0,0,0,2.784-1.18Zm1.2,1.72-.13-.282c-.052-.114-.107-.226-.164-.337l-.1-.192-.184.112q-.283.172-.576.324l-.724.376Zm-18.5-.679-.185-.117-.1.2q-.079.157-.154.317l-.131.283H10.25l-.694-.375q-.266-.144-.523-.3Zm5.878.677.013,0h6.057l.013,0c.331-.045.661-.1.99-.162l.2-.038-.044-.2A12.481,12.481,0,0,0,20.524,9.41,3.363,3.363,0,0,0,18,7.642a3.3,3.3,0,0,0-2.466,1.683,12.354,12.354,0,0,0-1.68,4.228l-.044.2.2.037q.447.081.9.143ZM23.553,22.6l-.2-.059-.046.208a13.191,13.191,0,0,1-1.877,4.638l-.368.527.6-.227A10.38,10.38,0,0,0,26.4,24.071l.127-.174-.184-.113A11.533,11.533,0,0,0,23.554,22.6Zm-13.89,1.18-.184.113.127.174a10.419,10.419,0,0,0,4.736,3.618l.6.228-.368-.528A13.2,13.2,0,0,1,12.7,22.75l-.046-.208-.2.059a11.538,11.538,0,0,0-2.783,1.181Zm-1.2-1.72.13.283c.052.113.107.226.164.337l.1.192.184-.112q.282-.172.575-.324l.722-.376Zm12.537,0-.014,0H15.012l-.014,0q-.494.068-.983.161l-.2.038.044.2a12.329,12.329,0,0,0,1.676,4.219A3.286,3.286,0,0,0,18,28.358a3.373,3.373,0,0,0,2.533-1.782,12.5,12.5,0,0,0,1.609-4.111l.044-.2-.2-.038q-.489-.093-.983-.161Zm5.959.7.184.113.1-.193c.056-.111.111-.224.164-.337l.131-.283H25.661l.724.376q.293.152.576.324Z" fill="#f06800" fill-rule="evenodd"/>
</svg>
