<svg xmlns="http://www.w3.org/2000/svg" width="150" height="150" viewBox="0 0 150 150">
  <g id="Shape_1" transform="translate(0.003 -0.003)" opacity="0.16">
    <g id="Group_47" data-name="Group 47" transform="translate(-0.003 0.003)">
      <path id="Path_106" data-name="Path 106" d="M151.312,23.3A74.623,74.623,0,0,0,128.05,7.51L167.1,46.564A74.623,74.623,0,0,0,151.312,23.3Z" transform="translate(-23.239 -1.381)" fill="#186bf1"/>
      <path id="Path_107" data-name="Path 107" d="M166.2,54.877,114.27,2.939A74.142,74.142,0,0,0,104.79.93l63.427,63.427a75.873,75.873,0,0,0-2.009-9.48Z" transform="translate(-18.971 -0.173)" fill="#186bf1"/>
      <path id="Path_108" data-name="Path 108" d="M165.657,71,94.767.107A73.881,73.881,0,0,0,87.28.09l78.393,78.393C165.8,75.985,165.78,73.487,165.657,71Z" transform="translate(-15.758 -0.003)" fill="#186bf1"/>
      <path id="Path_109" data-name="Path 109" d="M162.461,84.257,78.923.72c-2.147.269-4.279.621-6.393,1.078l88.861,88.861c.449-2.115.808-4.254,1.078-6.393Z" transform="translate(-13.052 -0.135)" fill="#186bf1"/>
      <path id="Path_110" data-name="Path 110" d="M157.8,96.1,65.228,3.53q-2.841.808-5.618,1.853l96.34,96.34q1.041-2.78,1.853-5.618Z" transform="translate(-10.681 -0.651)" fill="#186bf1"/>
      <path id="Path_111" data-name="Path 111" d="M152.056,106.9,53.135,7.98c-1.69.759-3.364,1.576-5.005,2.466l101.46,101.46C150.48,110.265,151.3,108.591,152.056,106.9Z" transform="translate(-8.574 -1.467)" fill="#186bf1"/>
      <path id="Path_112" data-name="Path 112" d="M145.449,116.855,42.364,13.77q-2.278,1.408-4.474,3L142.453,121.329C143.514,119.868,144.5,118.374,145.449,116.855Z" transform="translate(-6.696 -2.529)" fill="#186bf1"/>
      <path id="Path_113" data-name="Path 113" d="M138.1,126.083,32.74,20.72c-1.355,1.11-2.67,2.294-3.96,3.511L134.592,130.043C135.809,128.753,136.992,127.438,138.1,126.083Z" transform="translate(-5.024 -3.805)" fill="#186bf1"/>
      <path id="Path_114" data-name="Path 114" d="M130.043,134.594,24.231,28.79c-1.217,1.29-2.4,2.6-3.511,3.96L126.083,138.113c1.355-1.11,2.67-2.294,3.96-3.511Z" transform="translate(-3.799 -5.029)" fill="#186bf1"/>
      <path id="Path_115" data-name="Path 115" d="M121.329,142.453,16.767,37.89c-1.061,1.462-2.049,2.956-3,4.474L116.855,145.449Q119.133,144.041,121.329,142.453Z" transform="translate(-2.524 -6.698)" fill="#186bf1"/>
      <path id="Path_116" data-name="Path 116" d="M111.906,149.59,10.446,48.13c-.89,1.641-1.707,3.315-2.466,5.005L106.9,152.056c1.69-.759,3.364-1.576,5.005-2.466Z" transform="translate(-1.462 -8.577)" fill="#186bf1"/>
      <path id="Path_117" data-name="Path 117" d="M101.716,155.95,5.383,59.61Q4.342,62.39,3.53,65.228L96.1,157.8q2.841-.808,5.618-1.853Z" transform="translate(-0.645 -10.684)" fill="#186bf1"/>
      <path id="Path_118" data-name="Path 118" d="M90.651,161.391,1.8,72.53C1.349,74.645.989,76.784.72,78.923l83.537,83.537c2.147-.269,4.279-.621,6.393-1.078Z" transform="translate(-0.13 -13.054)" fill="#186bf1"/>
      <path id="Path_119" data-name="Path 119" d="M78.483,165.673.081,87.28c-.122,2.5-.106,5,.016,7.487l70.89,70.89a73.887,73.887,0,0,0,7.487.016Z" transform="translate(0.003 -15.761)" fill="#186bf1"/>
      <path id="Path_120" data-name="Path 120" d="M64.357,168.209.93,104.79a75.876,75.876,0,0,0,2.009,9.48l51.93,51.93a74.141,74.141,0,0,0,9.48,2.009Z" transform="translate(-0.168 -18.974)" fill="#186bf1"/>
      <path id="Path_121" data-name="Path 121" d="M7.51,128.05A74.818,74.818,0,0,0,46.564,167.1Z" transform="translate(-1.376 -23.242)" fill="#186bf1"/>
    </g>
  </g>
</svg>
