<svg width="51" height="51" viewBox="0 0 51 51" fill="none" xmlns="http://www.w3.org/2000/svg">
<path d="M50.9135 25.4561C43.8842 18.4268 32.4869 18.4268 25.4576 25.4561C32.4869 32.4854 43.8842 32.4854 50.9135 25.4561Z" fill="url(#paint0_linear_5112_6141)"/>
<path d="M25.457 50.912C18.4277 43.8827 18.4277 32.4854 25.457 25.4561C32.4863 32.4854 32.4863 43.8827 25.457 50.912Z" fill="url(#paint1_linear_5112_6141)"/>
<path d="M25.457 0.000305176C32.4863 7.02961 32.4863 18.4269 25.457 25.4562C18.4277 18.4269 18.4277 7.02961 25.457 0.000305176Z" fill="url(#paint2_linear_5112_6141)"/>
<path d="M0.000592433 25.4561C7.02989 32.4854 18.4271 32.4854 25.4564 25.4561C18.4271 18.4268 7.02989 18.4268 0.000592433 25.4561Z" fill="url(#paint3_linear_5112_6141)"/>
<path d="M46.6711 25.4544C40.8133 19.5967 31.3156 19.5967 25.4579 25.4544C31.3156 31.3122 40.8133 31.3122 46.6711 25.4544Z" fill="url(#paint4_linear_5112_6141)"/>
<path d="M25.457 46.6676C19.5993 40.8099 19.5993 31.3122 25.457 25.4544C31.3148 31.3122 31.3148 40.8099 25.457 46.6676Z" fill="url(#paint5_linear_5112_6141)"/>
<path d="M25.457 4.24121C31.3148 10.099 31.3148 19.5967 25.457 25.4544C19.5993 19.5967 19.5993 10.099 25.457 4.24121Z" fill="url(#paint6_linear_5112_6141)"/>
<path d="M4.24301 25.4544C10.1008 31.3122 19.5985 31.3122 25.4562 25.4544C19.5985 19.5967 10.1008 19.5967 4.24301 25.4544Z" fill="url(#paint7_linear_5112_6141)"/>
<path d="M41.0126 25.4544C36.7169 21.1588 29.7519 21.1588 25.4562 25.4544C29.7519 29.7501 36.7169 29.7501 41.0126 25.4544Z" fill="url(#paint8_linear_5112_6141)"/>
<path d="M25.457 41.0108C21.1613 36.7151 21.1613 29.7501 25.457 25.4544C29.7527 29.7501 29.7527 36.7151 25.457 41.0108Z" fill="url(#paint9_linear_5112_6141)"/>
<path d="M25.457 9.89807C29.7527 14.1938 29.7527 21.1587 25.457 25.4544C21.1613 21.1587 21.1613 14.1938 25.457 9.89807Z" fill="url(#paint10_linear_5112_6141)"/>
<path d="M9.90151 25.4544C14.1972 29.7501 21.1622 29.7501 25.4579 25.4544C21.1622 21.1588 14.1972 21.1588 9.90151 25.4544Z" fill="url(#paint11_linear_5112_6141)"/>
<path d="M35.356 25.4547C32.6224 22.7211 28.1901 22.7211 25.4565 25.4547C28.1901 28.1883 32.6224 28.1883 35.356 25.4547Z" fill="url(#paint12_linear_5112_6141)"/>
<path d="M25.457 35.3541C22.7234 32.6205 22.7234 28.1883 25.457 25.4547C28.1906 28.1883 28.1906 32.6205 25.457 35.3541Z" fill="url(#paint13_linear_5112_6141)"/>
<path d="M25.457 15.5552C28.1906 18.2888 28.1906 22.7211 25.457 25.4547C22.7234 22.7211 22.7234 18.2888 25.457 15.5552Z" fill="url(#paint14_linear_5112_6141)"/>
<path d="M15.5581 25.4547C18.2917 28.1883 22.7239 28.1883 25.4576 25.4547C22.7239 22.7211 18.2917 22.7211 15.5581 25.4547Z" fill="url(#paint15_linear_5112_6141)"/>
<path d="M31.1136 25.4545C29.5515 23.8924 27.0188 23.8924 25.4567 25.4545C27.0188 27.0165 29.5515 27.0165 31.1136 25.4545Z" fill="url(#paint16_linear_5112_6141)"/>
<path d="M25.457 31.1113C23.895 29.5493 23.895 27.0165 25.457 25.4545C27.0191 27.0165 27.0191 29.5493 25.457 31.1113Z" fill="url(#paint17_linear_5112_6141)"/>
<path d="M25.457 19.7976C27.0191 21.3597 27.0191 23.8924 25.457 25.4545C23.895 23.8924 23.895 21.3597 25.457 19.7976Z" fill="url(#paint18_linear_5112_6141)"/>
<path d="M19.8005 25.4545C21.3625 27.0165 23.8953 27.0165 25.4573 25.4545C23.8953 23.8924 21.3625 23.8924 19.8005 25.4545Z" fill="url(#paint19_linear_5112_6141)"/>
<defs>
<linearGradient id="paint0_linear_5112_6141" x1="25.5401" y1="25.4561" x2="50.6975" y2="25.3226" gradientUnits="userSpaceOnUse">
<stop stop-color="#FEF328"/>
<stop offset="1" stop-color="#D67011"/>
</linearGradient>
<linearGradient id="paint1_linear_5112_6141" x1="25.2411" y1="50.7785" x2="25.2411" y2="25.3226" gradientUnits="userSpaceOnUse">
<stop stop-color="#D67011"/>
<stop offset="1" stop-color="#FEF328"/>
</linearGradient>
<linearGradient id="paint2_linear_5112_6141" x1="25.2411" y1="25.3227" x2="25.2411" y2="-0.133184" gradientUnits="userSpaceOnUse">
<stop stop-color="#FEF328"/>
<stop offset="1" stop-color="#D67011"/>
</linearGradient>
<linearGradient id="paint3_linear_5112_6141" x1="0.0830195" y1="25.4561" x2="25.2405" y2="25.3226" gradientUnits="userSpaceOnUse">
<stop stop-color="#D67011"/>
<stop offset="1" stop-color="#FEF328"/>
</linearGradient>
<linearGradient id="paint4_linear_5112_6141" x1="25.5265" y1="25.4544" x2="46.4911" y2="25.3432" gradientUnits="userSpaceOnUse">
<stop stop-color="#FEF328"/>
<stop offset="1" stop-color="#D67011"/>
</linearGradient>
<linearGradient id="paint5_linear_5112_6141" x1="25.2771" y1="46.5564" x2="25.2771" y2="25.3432" gradientUnits="userSpaceOnUse">
<stop stop-color="#D67011"/>
<stop offset="1" stop-color="#FEF328"/>
</linearGradient>
<linearGradient id="paint6_linear_5112_6141" x1="25.2771" y1="25.3432" x2="25.2771" y2="4.12997" gradientUnits="userSpaceOnUse">
<stop stop-color="#FEF328"/>
<stop offset="1" stop-color="#D67011"/>
</linearGradient>
<linearGradient id="paint7_linear_5112_6141" x1="4.3117" y1="25.4544" x2="25.2763" y2="25.3432" gradientUnits="userSpaceOnUse">
<stop stop-color="#D67011"/>
<stop offset="1" stop-color="#FEF328"/>
</linearGradient>
<linearGradient id="paint8_linear_5112_6141" x1="25.5066" y1="25.4544" x2="40.8806" y2="25.3729" gradientUnits="userSpaceOnUse">
<stop stop-color="#FEF328"/>
<stop offset="1" stop-color="#D67011"/>
</linearGradient>
<linearGradient id="paint9_linear_5112_6141" x1="25.3251" y1="40.9292" x2="25.3251" y2="25.3728" gradientUnits="userSpaceOnUse">
<stop stop-color="#D67011"/>
<stop offset="1" stop-color="#FEF328"/>
</linearGradient>
<linearGradient id="paint10_linear_5112_6141" x1="25.3251" y1="25.3728" x2="25.3251" y2="9.81649" gradientUnits="userSpaceOnUse">
<stop stop-color="#FEF328"/>
<stop offset="1" stop-color="#D67011"/>
</linearGradient>
<linearGradient id="paint11_linear_5112_6141" x1="9.95188" y1="25.4544" x2="25.3259" y2="25.3729" gradientUnits="userSpaceOnUse">
<stop stop-color="#D67011"/>
<stop offset="1" stop-color="#FEF328"/>
</linearGradient>
<linearGradient id="paint12_linear_5112_6141" x1="25.4886" y1="25.4547" x2="35.272" y2="25.4028" gradientUnits="userSpaceOnUse">
<stop stop-color="#FEF328"/>
<stop offset="1" stop-color="#D67011"/>
</linearGradient>
<linearGradient id="paint13_linear_5112_6141" x1="25.3731" y1="35.3022" x2="25.3731" y2="25.4027" gradientUnits="userSpaceOnUse">
<stop stop-color="#D67011"/>
<stop offset="1" stop-color="#FEF328"/>
</linearGradient>
<linearGradient id="paint14_linear_5112_6141" x1="25.3731" y1="25.4028" x2="25.3731" y2="15.5033" gradientUnits="userSpaceOnUse">
<stop stop-color="#FEF328"/>
<stop offset="1" stop-color="#D67011"/>
</linearGradient>
<linearGradient id="paint15_linear_5112_6141" x1="15.5901" y1="25.4547" x2="25.3736" y2="25.4028" gradientUnits="userSpaceOnUse">
<stop stop-color="#D67011"/>
<stop offset="1" stop-color="#FEF328"/>
</linearGradient>
<linearGradient id="paint16_linear_5112_6141" x1="25.475" y1="25.4545" x2="31.0656" y2="25.4248" gradientUnits="userSpaceOnUse">
<stop stop-color="#FEF328"/>
<stop offset="1" stop-color="#D67011"/>
</linearGradient>
<linearGradient id="paint17_linear_5112_6141" x1="25.409" y1="31.0817" x2="25.409" y2="25.4248" gradientUnits="userSpaceOnUse">
<stop stop-color="#D67011"/>
<stop offset="1" stop-color="#FEF328"/>
</linearGradient>
<linearGradient id="paint18_linear_5112_6141" x1="25.409" y1="25.4248" x2="25.409" y2="19.7679" gradientUnits="userSpaceOnUse">
<stop stop-color="#FEF328"/>
<stop offset="1" stop-color="#D67011"/>
</linearGradient>
<linearGradient id="paint19_linear_5112_6141" x1="19.8188" y1="25.4545" x2="25.4094" y2="25.4248" gradientUnits="userSpaceOnUse">
<stop stop-color="#D67011"/>
<stop offset="1" stop-color="#FEF328"/>
</linearGradient>
</defs>
</svg>
