<svg width="51" height="51" viewBox="0 0 51 51" fill="none" xmlns="http://www.w3.org/2000/svg">
<path d="M50.9115 25.4561C43.8822 18.4268 32.485 18.4268 25.4557 25.4561C32.485 32.4854 43.8822 32.4854 50.9115 25.4561Z" fill="url(#paint0_linear_5059_7169)"/>
<path d="M25.4561 50.912C18.4268 43.8827 18.4268 32.4854 25.4561 25.4561C32.4854 32.4854 32.4854 43.8827 25.4561 50.912Z" fill="url(#paint1_linear_5059_7169)"/>
<path d="M25.4561 0.000305176C32.4854 7.02961 32.4854 18.4269 25.4561 25.4562C18.4268 18.4269 18.4268 7.02961 25.4561 0.000305176Z" fill="url(#paint2_linear_5059_7169)"/>
<path d="M0.000592433 25.4561C7.02989 32.4854 18.4271 32.4854 25.4564 25.4561C18.4271 18.4268 7.02989 18.4268 0.000592433 25.4561Z" fill="url(#paint3_linear_5059_7169)"/>
<path d="M46.6691 25.4547C40.8114 19.597 31.3136 19.597 25.4559 25.4547C31.3136 31.3125 40.8114 31.3125 46.6691 25.4547Z" fill="url(#paint4_linear_5059_7169)"/>
<path d="M25.4561 46.6679C19.5983 40.8102 19.5983 31.3125 25.4561 25.4547C31.3138 31.3125 31.3138 40.8102 25.4561 46.6679Z" fill="url(#paint5_linear_5059_7169)"/>
<path d="M25.4561 4.24152C31.3138 10.0993 31.3138 19.597 25.4561 25.4547C19.5983 19.597 19.5983 10.0993 25.4561 4.24152Z" fill="url(#paint6_linear_5059_7169)"/>
<path d="M4.24301 25.4547C10.1008 31.3125 19.5985 31.3125 25.4562 25.4547C19.5985 19.597 10.1008 19.597 4.24301 25.4547Z" fill="url(#paint7_linear_5059_7169)"/>
<path d="M41.0126 25.4547C36.7169 21.1591 29.7519 21.1591 25.4562 25.4547C29.7519 29.7504 36.7169 29.7504 41.0126 25.4547Z" fill="url(#paint8_linear_5059_7169)"/>
<path d="M25.4561 41.0111C21.1604 36.7154 21.1604 29.7504 25.4561 25.4547C29.7517 29.7504 29.7517 36.7154 25.4561 41.0111Z" fill="url(#paint9_linear_5059_7169)"/>
<path d="M25.4561 9.89838C29.7517 14.1941 29.7517 21.159 25.4561 25.4547C21.1604 21.159 21.1604 14.1941 25.4561 9.89838Z" fill="url(#paint10_linear_5059_7169)"/>
<path d="M9.89956 25.4547C14.1952 29.7504 21.1602 29.7504 25.4559 25.4547C21.1602 21.1591 14.1952 21.1591 9.89956 25.4547Z" fill="url(#paint11_linear_5059_7169)"/>
<path d="M35.355 25.455C32.6214 22.7214 28.1891 22.7214 25.4555 25.455C28.1891 28.1886 32.6214 28.1886 35.355 25.455Z" fill="url(#paint12_linear_5059_7169)"/>
<path d="M25.4561 35.3545C22.7224 32.6208 22.7224 28.1886 25.4561 25.455C28.1897 28.1886 28.1897 32.6208 25.4561 35.3545Z" fill="url(#paint13_linear_5059_7169)"/>
<path d="M25.4561 15.5555C28.1897 18.2891 28.1897 22.7214 25.4561 25.455C22.7224 22.7214 22.7224 18.2891 25.4561 15.5555Z" fill="url(#paint14_linear_5059_7169)"/>
<path d="M15.5561 25.455C18.2897 28.1886 22.722 28.1886 25.4556 25.455C22.722 22.7214 18.2897 22.7214 15.5561 25.455Z" fill="url(#paint15_linear_5059_7169)"/>
<path d="M31.1126 25.4548C29.5505 23.8927 27.0178 23.8927 25.4558 25.4548C27.0178 27.0168 29.5505 27.0168 31.1126 25.4548Z" fill="url(#paint16_linear_5059_7169)"/>
<path d="M25.4561 31.1116C23.894 29.5496 23.894 27.0168 25.4561 25.4548C27.0181 27.0168 27.0181 29.5496 25.4561 31.1116Z" fill="url(#paint17_linear_5059_7169)"/>
<path d="M25.4561 19.7979C27.0181 21.36 27.0181 23.8927 25.4561 25.4548C23.894 23.8927 23.894 21.36 25.4561 19.7979Z" fill="url(#paint18_linear_5059_7169)"/>
<path d="M19.7995 25.4548C21.3616 27.0168 23.8943 27.0168 25.4564 25.4548C23.8943 23.8927 21.3616 23.8927 19.7995 25.4548Z" fill="url(#paint19_linear_5059_7169)"/>
<defs>
<linearGradient id="paint0_linear_5059_7169" x1="25.5381" y1="25.4561" x2="50.6956" y2="25.3226" gradientUnits="userSpaceOnUse">
<stop stop-color="#FEF328"/>
<stop offset="1" stop-color="#D67011"/>
</linearGradient>
<linearGradient id="paint1_linear_5059_7169" x1="25.2401" y1="50.7785" x2="25.2401" y2="25.3226" gradientUnits="userSpaceOnUse">
<stop stop-color="#D67011"/>
<stop offset="1" stop-color="#FEF328"/>
</linearGradient>
<linearGradient id="paint2_linear_5059_7169" x1="25.2401" y1="25.3227" x2="25.2401" y2="-0.133184" gradientUnits="userSpaceOnUse">
<stop stop-color="#FEF328"/>
<stop offset="1" stop-color="#D67011"/>
</linearGradient>
<linearGradient id="paint3_linear_5059_7169" x1="0.0830195" y1="25.4561" x2="25.2405" y2="25.3226" gradientUnits="userSpaceOnUse">
<stop stop-color="#D67011"/>
<stop offset="1" stop-color="#FEF328"/>
</linearGradient>
<linearGradient id="paint4_linear_5059_7169" x1="25.5246" y1="25.4547" x2="46.4892" y2="25.3435" gradientUnits="userSpaceOnUse">
<stop stop-color="#FEF328"/>
<stop offset="1" stop-color="#D67011"/>
</linearGradient>
<linearGradient id="paint5_linear_5059_7169" x1="25.2761" y1="46.5567" x2="25.2761" y2="25.3435" gradientUnits="userSpaceOnUse">
<stop stop-color="#D67011"/>
<stop offset="1" stop-color="#FEF328"/>
</linearGradient>
<linearGradient id="paint6_linear_5059_7169" x1="25.2761" y1="25.3435" x2="25.2761" y2="4.13027" gradientUnits="userSpaceOnUse">
<stop stop-color="#FEF328"/>
<stop offset="1" stop-color="#D67011"/>
</linearGradient>
<linearGradient id="paint7_linear_5059_7169" x1="4.3117" y1="25.4547" x2="25.2763" y2="25.3435" gradientUnits="userSpaceOnUse">
<stop stop-color="#D67011"/>
<stop offset="1" stop-color="#FEF328"/>
</linearGradient>
<linearGradient id="paint8_linear_5059_7169" x1="25.5066" y1="25.4547" x2="40.8806" y2="25.3732" gradientUnits="userSpaceOnUse">
<stop stop-color="#FEF328"/>
<stop offset="1" stop-color="#D67011"/>
</linearGradient>
<linearGradient id="paint9_linear_5059_7169" x1="25.3241" y1="40.9295" x2="25.3241" y2="25.3731" gradientUnits="userSpaceOnUse">
<stop stop-color="#D67011"/>
<stop offset="1" stop-color="#FEF328"/>
</linearGradient>
<linearGradient id="paint10_linear_5059_7169" x1="25.3241" y1="25.3731" x2="25.3241" y2="9.8168" gradientUnits="userSpaceOnUse">
<stop stop-color="#FEF328"/>
<stop offset="1" stop-color="#D67011"/>
</linearGradient>
<linearGradient id="paint11_linear_5059_7169" x1="9.94993" y1="25.4547" x2="25.324" y2="25.3732" gradientUnits="userSpaceOnUse">
<stop stop-color="#D67011"/>
<stop offset="1" stop-color="#FEF328"/>
</linearGradient>
<linearGradient id="paint12_linear_5059_7169" x1="25.4876" y1="25.455" x2="35.2711" y2="25.4031" gradientUnits="userSpaceOnUse">
<stop stop-color="#FEF328"/>
<stop offset="1" stop-color="#D67011"/>
</linearGradient>
<linearGradient id="paint13_linear_5059_7169" x1="25.3721" y1="35.3025" x2="25.3721" y2="25.403" gradientUnits="userSpaceOnUse">
<stop stop-color="#D67011"/>
<stop offset="1" stop-color="#FEF328"/>
</linearGradient>
<linearGradient id="paint14_linear_5059_7169" x1="25.3721" y1="25.4031" x2="25.3721" y2="15.5036" gradientUnits="userSpaceOnUse">
<stop stop-color="#FEF328"/>
<stop offset="1" stop-color="#D67011"/>
</linearGradient>
<linearGradient id="paint15_linear_5059_7169" x1="15.5882" y1="25.455" x2="25.3716" y2="25.4031" gradientUnits="userSpaceOnUse">
<stop stop-color="#D67011"/>
<stop offset="1" stop-color="#FEF328"/>
</linearGradient>
<linearGradient id="paint16_linear_5059_7169" x1="25.4741" y1="25.4548" x2="31.0646" y2="25.4251" gradientUnits="userSpaceOnUse">
<stop stop-color="#FEF328"/>
<stop offset="1" stop-color="#D67011"/>
</linearGradient>
<linearGradient id="paint17_linear_5059_7169" x1="25.4081" y1="31.082" x2="25.4081" y2="25.4251" gradientUnits="userSpaceOnUse">
<stop stop-color="#D67011"/>
<stop offset="1" stop-color="#FEF328"/>
</linearGradient>
<linearGradient id="paint18_linear_5059_7169" x1="25.4081" y1="25.4251" x2="25.4081" y2="19.7682" gradientUnits="userSpaceOnUse">
<stop stop-color="#FEF328"/>
<stop offset="1" stop-color="#D67011"/>
</linearGradient>
<linearGradient id="paint19_linear_5059_7169" x1="19.8178" y1="25.4548" x2="25.4084" y2="25.4251" gradientUnits="userSpaceOnUse">
<stop stop-color="#D67011"/>
<stop offset="1" stop-color="#FEF328"/>
</linearGradient>
</defs>
</svg>
