<svg width="651" height="80" viewBox="0 0 651 80" fill="none" xmlns="http://www.w3.org/2000/svg">
<path d="M472.458 158.565L-0.950928 36.3858L535.007 158.565H472.458ZM651 158.565H604.573L-0.967529 36.3858L651 148.265V158.565ZM368.424 158.565L-0.967529 36.3858L419.048 158.565H368.408H368.424ZM278.175 158.565L-0.967529 36.3858L323.076 158.565H278.158H278.175ZM651 67.4864L-0.967529 36.3693L651 54.5983V67.4864ZM651 128.294L-0.967529 36.3858L651 110.347V128.294ZM651 95.0208L-0.967529 36.3693L651 80.5072V95.0374V95.0208ZM10.2784 158.565L-0.967529 36.3858L60.9019 158.565H10.2618H10.2784ZM-184.983 76.7917L-0.967529 36.3858L-184.983 90.0945V76.7917ZM193.067 158.565L-0.967529 36.3858L236.259 158.565H193.067ZM-184.983 53.0723L-0.967529 36.3858L-184.983 64.8823V53.0723ZM-184.983 104.127L-0.967529 36.3858L-184.983 120.581V104.144V104.127ZM651 42.5894L-0.967529 36.3858L651 30.1823V42.5728V42.5894ZM-105.664 158.565L-0.950928 36.3858L-43.0984 158.565H-105.648H-105.664ZM-184.983 158.565V138.86L-0.967529 36.3858L-175.247 158.565H-185H-184.983ZM106.251 158.565L-0.950928 36.3858L151.168 158.565H106.251ZM-184.983 -88.8458L-0.967529 36.3858L-184.983 -66.0885V-88.8458ZM-184.983 -140H-157.466L-0.950928 36.3858L-184.983 -116.048V-140ZM-184.983 -47.8096L-0.967529 36.3858L-184.983 -31.3553V-47.793V-47.8096ZM-7.28717 -140L-0.950928 36.3858L-80.386 -140H-7.28717ZM-184.983 30.7131L-0.967529 36.3858L-184.983 42.0586V30.7131ZM122.987 -140L-0.967529 36.3858L58.1484 -140H122.987ZM-184.983 7.88943L-0.967529 36.3858L-184.983 19.6994V7.88943ZM651 18.1568L-0.967529 36.3858L651 5.26869V18.1568ZM-184.983 -17.3394L-0.967529 36.3693L-184.983 -4.03659V-17.3394ZM651 -37.5755L-0.967529 36.3858L651 -55.5391V-37.592V-37.5755ZM651 -7.73549L-0.967529 36.3858L651 -22.2657V-7.73549ZM651 -75.4933L-0.967529 36.3858L651 -100.341V-75.4933ZM245.847 -140L-0.967529 36.3858L183.496 -140H245.863H245.847ZM371.194 -140L-0.950928 36.3858L306.356 -140H371.194ZM651 -140V-130.031L-0.967529 36.3858L586.808 -140H651ZM509.729 -140L-0.950928 36.3858L436.63 -140H509.729Z" fill="url(#paint0_radial_5112_6017)" fill-opacity="0.8"/>
<defs>
<radialGradient id="paint0_radial_5112_6017" cx="0" cy="0" r="1" gradientUnits="userSpaceOnUse" gradientTransform="translate(5.99998 36.5) rotate(-174.493) scale(283.604 283.604)">
<stop stop-color="#FFAD2B"/>
<stop offset="1" stop-color="#FFB902" stop-opacity="0"/>
</radialGradient>
</defs>
</svg>
