<svg width="196" height="52" viewBox="0 0 196 52" fill="none" xmlns="http://www.w3.org/2000/svg">
<path d="M174.771 36.9903C169.664 44.2018 162.84 52 154.004 52H41.9961C33.1596 52 26.3358 44.2018 21.2292 36.9902C16.5207 30.3406 8.76737 26 0 26C8.76667 26 16.5202 21.6593 21.229 15.0097C26.3357 7.79822 33.1596 0 41.9961 0H154.004C162.84 0 169.664 7.79822 174.771 15.0098C179.479 21.6594 187.233 26 196 26C187.233 26 179.48 30.3407 174.771 36.9903Z" fill="white"/>
<path d="M43.9659 28.728C43.9659 30.604 45.1979 31.78 47.1019 31.78C48.8659 31.78 50.0979 30.604 50.0979 28.728C50.0979 26.432 48.6979 25.62 47.1019 25.62C45.5059 25.62 43.9659 26.6 43.9659 28.728ZM47.2699 35.28C41.3339 35.28 39.1219 31.528 39.1219 25.872C39.1219 20.3 41.0539 15.4 47.3819 15.4C52.0019 15.4 54.4379 17.724 54.4379 21.476H50.0699C49.9859 19.852 49.0619 18.928 47.2699 18.928C44.3859 18.928 43.7139 21.336 43.6579 24.444H43.7699C44.8339 23.296 46.8499 22.428 48.6139 22.428C52.5339 22.428 54.6619 24.612 54.6619 28.588C54.6619 32.424 51.7499 35.28 47.2699 35.28ZM56.6779 25.34C56.6779 18.396 60.3459 15.4 64.8539 15.4C69.3899 15.4 73.0579 18.396 73.0579 25.34C73.0579 32.284 69.3899 35.28 64.8539 35.28C60.3459 35.28 56.6779 32.284 56.6779 25.34ZM61.2419 25.34C61.2419 30.184 63.1459 31.584 64.8539 31.584C66.5899 31.584 68.4939 30.184 68.4939 25.34C68.4939 20.496 66.5899 19.096 64.8539 19.096C63.1459 19.096 61.2419 20.496 61.2419 25.34ZM89.5882 30.324C89.5882 32.116 90.3442 32.816 91.3802 32.816C92.3882 32.816 93.1722 32.116 93.1722 30.324C93.1722 28.504 92.3882 27.804 91.3802 27.804C90.3442 27.804 89.5882 28.504 89.5882 30.324ZM77.9962 20.384C77.9962 22.176 78.7522 22.876 79.7882 22.876C80.7962 22.876 81.5802 22.176 81.5802 20.384C81.5802 18.564 80.7962 17.864 79.7882 17.864C78.7522 17.864 77.9962 18.564 77.9962 20.384ZM77.6322 35.56L89.9242 15.4H93.3402L81.0482 35.56H77.6322ZM86.3402 30.324C86.3402 27.048 88.4682 25.34 91.4082 25.34C94.2922 25.34 96.4482 27.048 96.4482 30.324C96.4482 33.572 94.2922 35.28 91.4082 35.28C88.4682 35.28 86.3402 33.572 86.3402 30.324ZM74.7482 20.384C74.7482 17.108 76.8762 15.4 79.8162 15.4C82.7002 15.4 84.8562 17.108 84.8562 20.384C84.8562 23.632 82.7002 25.34 79.8162 25.34C76.8762 25.34 74.7482 23.632 74.7482 20.384ZM105.048 25.34C105.048 19.236 108.044 15.344 114.372 15.344C120.7 15.344 123.696 19.236 123.696 25.34C123.696 31.444 120.7 35.336 114.372 35.336C108.044 35.336 105.048 31.444 105.048 25.34ZM109.724 25.34C109.724 28.644 110.788 31.584 114.372 31.584C117.956 31.584 119.02 28.644 119.02 25.34C119.02 22.036 117.956 19.096 114.372 19.096C110.788 19.096 109.724 22.036 109.724 25.34ZM126.287 35V15.68H140.287V19.292L130.851 19.376V23.436H139.783V27.02H130.851V35H126.287ZM142.884 35V15.68H156.884V19.292L147.448 19.376V23.436H156.38V27.02H147.448V35H142.884Z" fill="#FF6B21"/>
<path d="M43.9659 28.728C43.9659 30.604 45.1979 31.78 47.1019 31.78C48.8659 31.78 50.0979 30.604 50.0979 28.728C50.0979 26.432 48.6979 25.62 47.1019 25.62C45.5059 25.62 43.9659 26.6 43.9659 28.728ZM47.2699 35.28C41.3339 35.28 39.1219 31.528 39.1219 25.872C39.1219 20.3 41.0539 15.4 47.3819 15.4C52.0019 15.4 54.4379 17.724 54.4379 21.476H50.0699C49.9859 19.852 49.0619 18.928 47.2699 18.928C44.3859 18.928 43.7139 21.336 43.6579 24.444H43.7699C44.8339 23.296 46.8499 22.428 48.6139 22.428C52.5339 22.428 54.6619 24.612 54.6619 28.588C54.6619 32.424 51.7499 35.28 47.2699 35.28ZM56.6779 25.34C56.6779 18.396 60.3459 15.4 64.8539 15.4C69.3899 15.4 73.0579 18.396 73.0579 25.34C73.0579 32.284 69.3899 35.28 64.8539 35.28C60.3459 35.28 56.6779 32.284 56.6779 25.34ZM61.2419 25.34C61.2419 30.184 63.1459 31.584 64.8539 31.584C66.5899 31.584 68.4939 30.184 68.4939 25.34C68.4939 20.496 66.5899 19.096 64.8539 19.096C63.1459 19.096 61.2419 20.496 61.2419 25.34ZM89.5882 30.324C89.5882 32.116 90.3442 32.816 91.3802 32.816C92.3882 32.816 93.1722 32.116 93.1722 30.324C93.1722 28.504 92.3882 27.804 91.3802 27.804C90.3442 27.804 89.5882 28.504 89.5882 30.324ZM77.9962 20.384C77.9962 22.176 78.7522 22.876 79.7882 22.876C80.7962 22.876 81.5802 22.176 81.5802 20.384C81.5802 18.564 80.7962 17.864 79.7882 17.864C78.7522 17.864 77.9962 18.564 77.9962 20.384ZM77.6322 35.56L89.9242 15.4H93.3402L81.0482 35.56H77.6322ZM86.3402 30.324C86.3402 27.048 88.4682 25.34 91.4082 25.34C94.2922 25.34 96.4482 27.048 96.4482 30.324C96.4482 33.572 94.2922 35.28 91.4082 35.28C88.4682 35.28 86.3402 33.572 86.3402 30.324ZM74.7482 20.384C74.7482 17.108 76.8762 15.4 79.8162 15.4C82.7002 15.4 84.8562 17.108 84.8562 20.384C84.8562 23.632 82.7002 25.34 79.8162 25.34C76.8762 25.34 74.7482 23.632 74.7482 20.384ZM105.048 25.34C105.048 19.236 108.044 15.344 114.372 15.344C120.7 15.344 123.696 19.236 123.696 25.34C123.696 31.444 120.7 35.336 114.372 35.336C108.044 35.336 105.048 31.444 105.048 25.34ZM109.724 25.34C109.724 28.644 110.788 31.584 114.372 31.584C117.956 31.584 119.02 28.644 119.02 25.34C119.02 22.036 117.956 19.096 114.372 19.096C110.788 19.096 109.724 22.036 109.724 25.34ZM126.287 35V15.68H140.287V19.292L130.851 19.376V23.436H139.783V27.02H130.851V35H126.287ZM142.884 35V15.68H156.884V19.292L147.448 19.376V23.436H156.38V27.02H147.448V35H142.884Z" fill="url(#paint0_linear_5059_7195)"/>
<defs>
<linearGradient id="paint0_linear_5059_7195" x1="98" y1="10" x2="98" y2="42" gradientUnits="userSpaceOnUse">
<stop offset="0.271676" stop-color="#EE212D"/>
<stop offset="1" stop-color="#861618"/>
</linearGradient>
</defs>
</svg>
