<svg width="639" height="80" viewBox="0 0 639 80" fill="none" xmlns="http://www.w3.org/2000/svg">
<path d="M178.542 158.565L651.951 36.3858L115.993 158.565H178.542ZM0 158.565H46.4269L651.968 36.3858L0 148.265V158.565ZM282.576 158.565L651.968 36.3858L231.952 158.565H282.592H282.576ZM372.825 158.565L651.968 36.3858L327.924 158.565H372.842H372.825ZM0 67.4864L651.968 36.3693L0 54.5983V67.4864ZM0 128.294L651.968 36.3858L0 110.347V128.294ZM0 95.0208L651.968 36.3693L0 80.5072V95.0374V95.0208ZM640.722 158.565L651.968 36.3858L590.098 158.565H640.738H640.722ZM835.983 76.7917L651.968 36.3858L835.983 90.0945V76.7917ZM457.933 158.565L651.968 36.3858L414.741 158.565H457.933ZM835.983 53.0723L651.968 36.3858L835.983 64.8823V53.0723ZM835.983 104.127L651.968 36.3858L835.983 120.581V104.144V104.127ZM0 42.5894L651.968 36.3858L0 30.1823V42.5728V42.5894ZM756.664 158.565L651.951 36.3858L694.098 158.565H756.648H756.664ZM835.983 158.565V138.86L651.968 36.3858L826.247 158.565H836H835.983ZM544.749 158.565L651.951 36.3858L499.832 158.565H544.749ZM835.983 -88.8458L651.968 36.3858L835.983 -66.0885V-88.8458ZM835.983 -140H808.466L651.951 36.3858L835.983 -116.048V-140ZM835.983 -47.8096L651.968 36.3858L835.983 -31.3553V-47.793V-47.8096ZM658.287 -140L651.951 36.3858L731.386 -140H658.287ZM835.983 30.7131L651.968 36.3858L835.983 42.0586V30.7131ZM528.013 -140L651.968 36.3858L592.852 -140H528.013ZM835.983 7.88943L651.968 36.3858L835.983 19.6994V7.88943ZM0 18.1568L651.968 36.3858L0 5.26869V18.1568ZM835.983 -17.3394L651.968 36.3693L835.983 -4.03659V-17.3394ZM0 -37.5755L651.968 36.3858L0 -55.5391V-37.592V-37.5755ZM0 -7.73549L651.968 36.3858L0 -22.2657V-7.73549ZM0 -75.4933L651.968 36.3858L0 -100.341V-75.4933ZM405.153 -140L651.968 36.3858L467.504 -140H405.137H405.153ZM279.806 -140L651.951 36.3858L344.644 -140H279.806ZM0 -140V-130.031L651.968 36.3858L64.1916 -140H0ZM141.271 -140L651.951 36.3858L214.37 -140H141.271Z" fill="url(#paint0_radial_5058_7043)" fill-opacity="0.8"/>
<defs>
<radialGradient id="paint0_radial_5058_7043" cx="0" cy="0" r="1" gradientUnits="userSpaceOnUse" gradientTransform="translate(645 36.5) rotate(-5.50711) scale(283.604 283.604)">
<stop stop-color="#A40009"/>
<stop offset="1" stop-color="#CA1922" stop-opacity="0"/>
</radialGradient>
</defs>
</svg>
