<svg width="757" height="529" viewBox="0 0 757 529" fill="none" xmlns="http://www.w3.org/2000/svg">
<g clip-path="url(#clip0_80_2140)">
<g filter="url(#filter0_di_80_2140)">
<path d="M265.767 327.826C252.342 326.102 238.708 328.398 226.588 334.423C214.468 340.448 204.407 349.932 197.678 361.675C190.948 373.419 187.852 386.894 188.781 400.397C189.709 413.9 194.622 426.824 202.896 437.535C211.17 448.246 222.435 456.263 235.266 460.572C248.096 464.881 261.916 465.288 274.979 461.742C288.041 458.196 299.758 450.857 308.649 440.651C317.539 430.446 323.204 417.833 324.926 404.408C327.235 386.408 322.3 368.228 311.206 353.866C300.112 339.504 283.767 330.138 265.767 327.826Z" fill="white" fill-opacity="0.65" shape-rendering="crispEdges"/>
<path d="M202.896 437.535L204.25 436.489C196.182 426.046 191.393 413.445 190.487 400.279C189.582 387.114 192.6 373.976 199.162 362.526C205.723 351.076 215.533 341.83 227.35 335.955C239.167 330.081 252.46 327.842 265.549 329.523C283.099 331.777 299.035 340.909 309.852 354.912L311.206 353.866L309.852 354.912C320.669 368.914 325.481 386.64 323.229 404.19C321.55 417.28 316.027 429.577 307.359 439.527C298.691 449.478 287.266 456.634 274.531 460.091C261.795 463.548 248.32 463.151 235.81 458.95C223.3 454.749 212.317 446.933 204.25 436.489L202.896 437.535Z" stroke="white" stroke-width="3.42159" shape-rendering="crispEdges"/>
</g>
<path d="M238.093 400.025C238.12 400.08 238.165 400.123 238.219 400.148C238.274 400.173 238.336 400.178 238.394 400.162L249.343 397.801L244.738 393.134L238.175 399.697C238.124 399.732 238.087 399.785 238.071 399.845C238.056 399.906 238.064 399.97 238.093 400.025Z" fill="#FF6C37"/>
<path d="M289.362 353.013C287.837 353.014 286.33 353.358 284.955 354.019C283.58 354.68 282.37 355.64 281.415 356.83C280.46 358.02 279.784 359.41 279.437 360.895C279.09 362.381 279.081 363.926 279.41 365.416C279.739 366.906 280.398 368.303 281.338 369.505C282.279 370.706 283.477 371.682 284.844 372.359C286.211 373.036 287.713 373.398 289.239 373.418C290.764 373.438 292.275 373.116 293.66 372.475L286.721 365.536C286.641 365.456 286.578 365.362 286.535 365.258C286.492 365.154 286.47 365.043 286.47 364.93C286.47 364.818 286.492 364.706 286.535 364.602C286.578 364.498 286.641 364.404 286.721 364.325L295.788 355.264C293.967 353.8 291.699 353.005 289.362 353.013Z" fill="#FF6C37"/>
<path d="M297.033 356.441L288.534 364.906L295.199 371.572C295.69 371.227 296.149 370.837 296.568 370.408C298.395 368.569 299.458 366.107 299.544 363.516C299.631 360.925 298.734 358.398 297.033 356.441Z" fill="#FF6C37"/>
<path d="M280.028 372.064H279.878C279.701 372.063 279.524 372.079 279.351 372.112H279.289C279.098 372.153 278.911 372.208 278.728 372.276L278.584 372.345C278.447 372.402 278.314 372.471 278.187 372.55L278.037 372.646C277.871 372.76 277.716 372.888 277.571 373.029L252.368 398.239L255.489 401.36L282.177 377.936C282.328 377.804 282.465 377.657 282.588 377.498L282.704 377.347C282.795 377.214 282.877 377.074 282.95 376.93C282.991 376.848 283.025 376.766 283.06 376.683C283.106 376.574 283.144 376.462 283.176 376.348C283.176 376.266 283.224 376.184 283.244 376.102C283.278 375.932 283.301 375.761 283.313 375.589V375.363C283.313 375.24 283.313 375.116 283.313 374.993C283.313 374.87 283.313 374.829 283.279 374.747C283.152 374.101 282.837 373.507 282.373 373.041C281.909 372.574 281.316 372.256 280.671 372.126H280.541C280.372 372.093 280.201 372.073 280.028 372.064Z" fill="#FF6C37"/>
<path d="M245.915 391.923L251.088 397.069L276.36 371.797C277.183 370.993 278.254 370.494 279.399 370.381C274.93 366.959 270.058 367.856 245.915 391.923Z" fill="#FF6C37"/>
<path d="M283.6 378.921L283.292 379.222L256.604 402.64L261.141 407.17C272.391 396.529 282.375 386.394 283.6 378.921Z" fill="#FF6C37"/>
<path d="M217.03 433.783C217.044 433.831 217.073 433.874 217.112 433.906C217.151 433.938 217.199 433.957 217.249 433.961L228.883 434.761L222.361 428.24L217.085 433.509C217.051 433.545 217.027 433.59 217.018 433.638C217.008 433.687 217.012 433.737 217.03 433.783Z" fill="#FF6C37"/>
<path d="M223.579 427.029L230.456 433.906C230.538 433.993 230.647 434.05 230.766 434.066C230.884 434.082 231.004 434.057 231.106 433.995C231.213 433.942 231.298 433.854 231.347 433.745C231.395 433.637 231.405 433.514 231.373 433.4L230.217 428.459C230.142 428.139 230.176 427.802 230.314 427.504C230.451 427.205 230.684 426.961 230.976 426.81C243.034 420.767 252.758 414.547 259.896 408.333L255.105 403.543L244.841 405.753L223.579 427.029Z" fill="#FF6C37"/>
<path d="M253.634 402.092L251.061 399.519L247.503 403.071C247.477 403.101 247.463 403.14 247.463 403.18C247.463 403.22 247.477 403.259 247.503 403.29C247.519 403.326 247.548 403.355 247.585 403.372C247.621 403.388 247.663 403.39 247.701 403.378L253.634 402.092Z" fill="#FF6C37"/>
<path d="M297.273 361.957C297.238 361.849 297.18 361.75 297.104 361.667C297.027 361.583 296.934 361.517 296.829 361.473C296.726 361.428 296.613 361.407 296.5 361.409C296.386 361.412 296.275 361.439 296.173 361.488C296.071 361.537 295.981 361.608 295.908 361.695C295.836 361.782 295.783 361.884 295.753 361.993C295.723 362.102 295.717 362.216 295.735 362.328C295.753 362.44 295.794 362.547 295.856 362.641C296.061 363.053 296.142 363.515 296.09 363.971C296.038 364.428 295.854 364.859 295.562 365.214C295.466 365.33 295.405 365.471 295.386 365.62C295.367 365.769 295.391 365.921 295.455 366.057C295.519 366.194 295.62 366.309 295.747 366.39C295.874 366.471 296.021 366.514 296.171 366.514C296.288 366.513 296.402 366.487 296.507 366.437C296.613 366.388 296.705 366.316 296.78 366.227C297.265 365.638 297.569 364.922 297.656 364.165C297.743 363.407 297.61 362.641 297.273 361.957Z" fill="#FF6C37"/>
</g>
<g filter="url(#filter1_di_80_2140)">
<rect x="431.552" y="327.269" width="136.864" height="136.864" rx="68.4318" fill="white" fill-opacity="0.65" shape-rendering="crispEdges"/>
<rect x="433.263" y="328.98" width="133.442" height="133.442" rx="66.721" stroke="white" stroke-width="3.42159" shape-rendering="crispEdges"/>
</g>
<path d="M512.993 368.344L506.818 374.519L528.486 396.075L506.818 417.743L512.993 423.806L540.723 396.075L512.993 368.344Z" fill="#EF443B"/>
<path d="M460.635 396.113L488.421 423.899L516.206 396.113L488.421 368.328L460.635 396.113Z" fill="#EF443B"/>
<g filter="url(#filter2_di_80_2140)">
<mask id="path-17-inside-1_80_2140" fill="white">
<path fill-rule="evenodd" clip-rule="evenodd" d="M414.797 46.2445C410.158 41.6059 403.867 39 397.307 39H324.483C310.822 39 299.748 50.0739 299.748 63.7344V219.561C299.748 233.221 310.822 244.295 324.483 244.295H430.841C444.501 244.295 455.575 233.221 455.575 219.561V97.2682C455.575 90.7082 452.969 84.417 448.33 79.7784L414.797 46.2445Z"/>
</mask>
<path fill-rule="evenodd" clip-rule="evenodd" d="M414.797 46.2445C410.158 41.6059 403.867 39 397.307 39H324.483C310.822 39 299.748 50.0739 299.748 63.7344V219.561C299.748 233.221 310.822 244.295 324.483 244.295H430.841C444.501 244.295 455.575 233.221 455.575 219.561V97.2682C455.575 90.7082 452.969 84.417 448.33 79.7784L414.797 46.2445Z" fill="white" fill-opacity="0.65" shape-rendering="crispEdges"/>
<path d="M448.33 79.7784L451.828 76.2804L448.33 79.7784ZM324.483 43.9469H397.307V34.0531H324.483V43.9469ZM304.695 219.561V63.7344H294.802V219.561H304.695ZM430.841 239.348H324.483V249.242H430.841V239.348ZM450.628 97.2682V219.561H460.522V97.2682H450.628ZM451.828 76.2804L418.295 42.7466L411.299 49.7425L444.833 83.2763L451.828 76.2804ZM460.522 97.2682C460.522 89.3962 457.395 81.8467 451.828 76.2804L444.833 83.2763C448.543 86.9872 450.628 92.0202 450.628 97.2682H460.522ZM430.841 249.242C447.233 249.242 460.522 235.953 460.522 219.561H450.628C450.628 230.489 441.769 239.348 430.841 239.348V249.242ZM294.802 219.561C294.802 235.953 308.09 249.242 324.483 249.242V239.348C313.554 239.348 304.695 230.489 304.695 219.561H294.802ZM397.307 43.9469C402.555 43.9469 407.588 46.0316 411.299 49.7425L418.295 42.7466C412.728 37.1802 405.179 34.0531 397.307 34.0531V43.9469ZM324.483 34.0531C308.09 34.0531 294.802 47.3419 294.802 63.7344H304.695C304.695 52.806 313.555 43.9469 324.483 43.9469V34.0531Z" fill="white" mask="url(#path-17-inside-1_80_2140)"/>
</g>
<g clip-path="url(#clip1_80_2140)">
<path d="M319.669 87.0764H325.333" stroke="#263238" stroke-opacity="0.18" stroke-width="1.20705" stroke-miterlimit="10" stroke-linecap="round" stroke-linejoin="round"/>
<path d="M330.567 87.0764H343.438" stroke="#494949" stroke-opacity="0.63" stroke-width="1.20705" stroke-miterlimit="10" stroke-linecap="round" stroke-linejoin="round"/>
<path d="M347.128 87.0764H356.739" stroke="#263238" stroke-opacity="0.18" stroke-width="1.20705" stroke-miterlimit="10" stroke-linecap="round" stroke-linejoin="round"/>
<path d="M330.567 94.0267H337.003" stroke="#8F8F8F" stroke-width="1.20705" stroke-miterlimit="10" stroke-linecap="round" stroke-linejoin="round"/>
<path d="M340.435 94.0267H356.739" stroke="#263238" stroke-opacity="0.18" stroke-width="1.20705" stroke-miterlimit="10" stroke-linecap="round" stroke-linejoin="round"/>
<path d="M330.567 100.977H343.438" stroke="#494949" stroke-opacity="0.63" stroke-width="1.20705" stroke-miterlimit="10" stroke-linecap="round" stroke-linejoin="round"/>
<path d="M347.128 100.977H356.739" stroke="#263238" stroke-opacity="0.18" stroke-width="1.20705" stroke-miterlimit="10" stroke-linecap="round" stroke-linejoin="round"/>
<path d="M359.914 87.0764H372.871" stroke="#8F8F8F" stroke-width="1.20705" stroke-miterlimit="10" stroke-linecap="round" stroke-linejoin="round"/>
<path d="M376.56 87.0764H386.085" stroke="#263238" stroke-opacity="0.18" stroke-width="1.20705" stroke-miterlimit="10" stroke-linecap="round" stroke-linejoin="round"/>
<path d="M389.432 100.977H399.042" stroke="#263238" stroke-opacity="0.18" stroke-width="1.20705" stroke-miterlimit="10" stroke-linecap="round" stroke-linejoin="round"/>
<path d="M402.131 100.977H415.088" stroke="#8F8F8F" stroke-width="1.20705" stroke-miterlimit="10" stroke-linecap="round" stroke-linejoin="round"/>
<path d="M418.778 100.977H428.389" stroke="#263238" stroke-opacity="0.18" stroke-width="1.20705" stroke-miterlimit="10" stroke-linecap="round" stroke-linejoin="round"/>
<path d="M359.914 94.0267H366.349" stroke="#494949" stroke-opacity="0.63" stroke-width="1.20705" stroke-miterlimit="10" stroke-linecap="round" stroke-linejoin="round"/>
<path d="M369.781 94.0267H386.085" stroke="#8F8F8F" stroke-width="1.20705" stroke-miterlimit="10" stroke-linecap="round" stroke-linejoin="round"/>
<path d="M388.917 94.0267H405.221" stroke="#263238" stroke-opacity="0.18" stroke-width="1.20705" stroke-miterlimit="10" stroke-linecap="round" stroke-linejoin="round"/>
<path d="M408.395 94.0267H414.831" stroke="#494949" stroke-opacity="0.63" stroke-width="1.20705" stroke-miterlimit="10" stroke-linecap="round" stroke-linejoin="round"/>
<path d="M418.264 94.0267H434.567" stroke="#8F8F8F" stroke-width="1.20705" stroke-miterlimit="10" stroke-linecap="round" stroke-linejoin="round"/>
<path d="M359.914 100.977H372.871" stroke="#263238" stroke-opacity="0.18" stroke-width="1.20705" stroke-miterlimit="10" stroke-linecap="round" stroke-linejoin="round"/>
<path d="M376.56 100.977H386.085" stroke="#494949" stroke-opacity="0.63" stroke-width="1.20705" stroke-miterlimit="10" stroke-linecap="round" stroke-linejoin="round"/>
<path d="M319.669 109.301H325.333" stroke="#263238" stroke-opacity="0.18" stroke-width="1.20705" stroke-miterlimit="10" stroke-linecap="round" stroke-linejoin="round"/>
<path d="M330.567 109.301H343.438" stroke="#263238" stroke-opacity="0.18" stroke-width="1.20705" stroke-miterlimit="10" stroke-linecap="round" stroke-linejoin="round"/>
<path d="M347.128 109.301H356.739" stroke="#494949" stroke-opacity="0.63" stroke-width="1.20705" stroke-miterlimit="10" stroke-linecap="round" stroke-linejoin="round"/>
<path d="M330.567 116.251H337.003" stroke="#263238" stroke-opacity="0.18" stroke-width="1.20705" stroke-miterlimit="10" stroke-linecap="round" stroke-linejoin="round"/>
<path d="M340.435 116.251H356.739" stroke="#8F8F8F" stroke-width="1.20705" stroke-miterlimit="10" stroke-linecap="round" stroke-linejoin="round"/>
<path d="M330.567 123.116H343.438" stroke="#494949" stroke-opacity="0.63" stroke-width="1.20705" stroke-miterlimit="10" stroke-linecap="round" stroke-linejoin="round"/>
<path d="M347.128 123.116H356.739" stroke="#263238" stroke-opacity="0.18" stroke-width="1.20705" stroke-miterlimit="10" stroke-linecap="round" stroke-linejoin="round"/>
<path d="M359.914 109.301H372.871" stroke="#263238" stroke-opacity="0.18" stroke-width="1.20705" stroke-miterlimit="10" stroke-linecap="round" stroke-linejoin="round"/>
<path d="M376.56 109.301H386.085" stroke="#8F8F8F" stroke-width="1.20705" stroke-miterlimit="10" stroke-linecap="round" stroke-linejoin="round"/>
<path d="M359.914 116.251H366.349" stroke="#494949" stroke-opacity="0.63" stroke-width="1.20705" stroke-miterlimit="10" stroke-linecap="round" stroke-linejoin="round"/>
<path d="M369.781 116.251H386.085" stroke="#263238" stroke-opacity="0.18" stroke-width="1.20705" stroke-miterlimit="10" stroke-linecap="round" stroke-linejoin="round"/>
<path d="M388.831 123.116H405.135" stroke="#8F8F8F" stroke-width="1.20705" stroke-miterlimit="10" stroke-linecap="round" stroke-linejoin="round"/>
<path d="M408.224 123.116H414.745" stroke="#494949" stroke-opacity="0.63" stroke-width="1.20705" stroke-miterlimit="10" stroke-linecap="round" stroke-linejoin="round"/>
<path d="M418.178 123.116H434.481" stroke="#263238" stroke-opacity="0.18" stroke-width="1.20705" stroke-miterlimit="10" stroke-linecap="round" stroke-linejoin="round"/>
<path d="M359.914 123.116H372.871" stroke="#8F8F8F" stroke-width="1.20705" stroke-miterlimit="10" stroke-linecap="round" stroke-linejoin="round"/>
<path d="M376.56 123.116H386.085" stroke="#494949" stroke-opacity="0.63" stroke-width="1.20705" stroke-miterlimit="10" stroke-linecap="round" stroke-linejoin="round"/>
<path d="M319.669 131.525H325.333" stroke="#263238" stroke-opacity="0.18" stroke-width="1.20705" stroke-miterlimit="10" stroke-linecap="round" stroke-linejoin="round"/>
<path d="M330.567 131.525H343.438" stroke="#8F8F8F" stroke-width="1.20705" stroke-miterlimit="10" stroke-linecap="round" stroke-linejoin="round"/>
<path d="M347.128 131.525H356.739" stroke="#263238" stroke-opacity="0.18" stroke-width="1.20705" stroke-miterlimit="10" stroke-linecap="round" stroke-linejoin="round"/>
<path d="M330.567 138.39H337.003" stroke="#263238" stroke-opacity="0.18" stroke-width="1.20705" stroke-miterlimit="10" stroke-linecap="round" stroke-linejoin="round"/>
<path d="M340.435 138.39H356.739" stroke="#494949" stroke-opacity="0.63" stroke-width="1.20705" stroke-miterlimit="10" stroke-linecap="round" stroke-linejoin="round"/>
<path d="M330.567 145.34H343.438" stroke="#494949" stroke-opacity="0.63" stroke-width="1.20705" stroke-miterlimit="10" stroke-linecap="round" stroke-linejoin="round"/>
<path d="M347.128 145.34H356.739" stroke="#8F8F8F" stroke-width="1.20705" stroke-miterlimit="10" stroke-linecap="round" stroke-linejoin="round"/>
<path d="M359.914 131.525H372.871" stroke="#494949" stroke-opacity="0.63" stroke-width="1.20705" stroke-miterlimit="10" stroke-linecap="round" stroke-linejoin="round"/>
<path d="M376.56 131.525H386.085" stroke="#263238" stroke-opacity="0.18" stroke-width="1.20705" stroke-miterlimit="10" stroke-linecap="round" stroke-linejoin="round"/>
<path d="M389.432 138.39H399.042" stroke="#263238" stroke-opacity="0.18" stroke-width="1.20705" stroke-miterlimit="10" stroke-linecap="round" stroke-linejoin="round"/>
<path d="M388.574 145.255H401.531" stroke="#494949" stroke-opacity="0.63" stroke-width="1.20705" stroke-miterlimit="10" stroke-linecap="round" stroke-linejoin="round"/>
<path d="M405.221 145.255H414.831" stroke="#263238" stroke-opacity="0.18" stroke-width="1.20705" stroke-miterlimit="10" stroke-linecap="round" stroke-linejoin="round"/>
<path d="M359.914 138.39H366.349" stroke="#263238" stroke-opacity="0.18" stroke-width="1.20705" stroke-miterlimit="10" stroke-linecap="round" stroke-linejoin="round"/>
<path d="M369.781 138.39H386.085" stroke="#8F8F8F" stroke-width="1.20705" stroke-miterlimit="10" stroke-linecap="round" stroke-linejoin="round"/>
<path d="M359.914 145.34H372.871" stroke="#494949" stroke-opacity="0.63" stroke-width="1.20705" stroke-miterlimit="10" stroke-linecap="round" stroke-linejoin="round"/>
<path d="M376.56 145.34H386.085" stroke="#263238" stroke-opacity="0.18" stroke-width="1.20705" stroke-miterlimit="10" stroke-linecap="round" stroke-linejoin="round"/>
<path d="M319.669 153.664H325.333" stroke="#263238" stroke-opacity="0.18" stroke-width="1.20705" stroke-miterlimit="10" stroke-linecap="round" stroke-linejoin="round"/>
<path d="M330.567 153.664H343.438" stroke="#8F8F8F" stroke-width="1.20705" stroke-miterlimit="10" stroke-linecap="round" stroke-linejoin="round"/>
<path d="M347.128 153.664H356.739" stroke="#494949" stroke-opacity="0.63" stroke-width="1.20705" stroke-miterlimit="10" stroke-linecap="round" stroke-linejoin="round"/>
<path d="M330.567 160.614H337.003" stroke="#263238" stroke-opacity="0.18" stroke-width="1.20705" stroke-miterlimit="10" stroke-linecap="round" stroke-linejoin="round"/>
<path d="M388.917 160.614H405.221" stroke="#494949" stroke-opacity="0.63" stroke-width="1.20705" stroke-miterlimit="10" stroke-linecap="round" stroke-linejoin="round"/>
<path d="M340.778 160.614H357.082" stroke="#494949" stroke-opacity="0.63" stroke-width="1.20705" stroke-miterlimit="10" stroke-linecap="round" stroke-linejoin="round"/>
<path d="M330.567 167.479H343.438" stroke="#494949" stroke-opacity="0.63" stroke-width="1.20705" stroke-miterlimit="10" stroke-linecap="round" stroke-linejoin="round"/>
<path d="M347.128 167.479H356.739" stroke="#263238" stroke-opacity="0.18" stroke-width="1.20705" stroke-miterlimit="10" stroke-linecap="round" stroke-linejoin="round"/>
<path d="M359.914 153.664H372.871" stroke="#263238" stroke-opacity="0.18" stroke-width="1.20705" stroke-miterlimit="10" stroke-linecap="round" stroke-linejoin="round"/>
<path d="M376.56 153.664H386.085" stroke="#263238" stroke-opacity="0.18" stroke-width="1.20705" stroke-miterlimit="10" stroke-linecap="round" stroke-linejoin="round"/>
<path d="M359.914 160.614H366.349" stroke="#263238" stroke-opacity="0.18" stroke-width="1.20705" stroke-miterlimit="10" stroke-linecap="round" stroke-linejoin="round"/>
<path d="M369.781 160.614H386.085" stroke="#8F8F8F" stroke-width="1.20705" stroke-miterlimit="10" stroke-linecap="round" stroke-linejoin="round"/>
<path d="M359.914 167.479H372.871" stroke="#263238" stroke-opacity="0.18" stroke-width="1.20705" stroke-miterlimit="10" stroke-linecap="round" stroke-linejoin="round"/>
<path d="M376.56 167.479H386.085" stroke="#494949" stroke-opacity="0.63" stroke-width="1.20705" stroke-miterlimit="10" stroke-linecap="round" stroke-linejoin="round"/>
<path d="M390.118 167.479H402.99" stroke="#263238" stroke-opacity="0.18" stroke-width="1.20705" stroke-miterlimit="10" stroke-linecap="round" stroke-linejoin="round"/>
<path d="M406.679 167.479H416.29" stroke="#494949" stroke-opacity="0.63" stroke-width="1.20705" stroke-miterlimit="10" stroke-linecap="round" stroke-linejoin="round"/>
<path d="M319.669 175.888H325.333" stroke="#263238" stroke-opacity="0.18" stroke-width="1.20705" stroke-miterlimit="10" stroke-linecap="round" stroke-linejoin="round"/>
<path d="M330.567 175.889H343.438" stroke="#263238" stroke-opacity="0.18" stroke-width="1.20705" stroke-miterlimit="10" stroke-linecap="round" stroke-linejoin="round"/>
<path d="M347.128 175.889H356.739" stroke="#494949" stroke-opacity="0.63" stroke-width="1.20705" stroke-miterlimit="10" stroke-linecap="round" stroke-linejoin="round"/>
<path d="M330.567 182.839H337.003" stroke="#263238" stroke-opacity="0.18" stroke-width="1.20705" stroke-miterlimit="10" stroke-linecap="round" stroke-linejoin="round"/>
<path d="M340.435 182.839H356.739" stroke="#263238" stroke-opacity="0.18" stroke-width="1.20705" stroke-miterlimit="10" stroke-linecap="round" stroke-linejoin="round"/>
<path d="M330.567 189.704H343.438" stroke="#494949" stroke-opacity="0.63" stroke-width="1.20705" stroke-miterlimit="10" stroke-linecap="round" stroke-linejoin="round"/>
<path d="M347.128 189.704H356.739" stroke="#263238" stroke-opacity="0.18" stroke-width="1.20705" stroke-miterlimit="10" stroke-linecap="round" stroke-linejoin="round"/>
<path d="M359.914 175.889H372.871" stroke="#263238" stroke-opacity="0.18" stroke-width="1.20705" stroke-miterlimit="10" stroke-linecap="round" stroke-linejoin="round"/>
<path d="M376.56 175.889H386.085" stroke="#263238" stroke-opacity="0.18" stroke-width="1.20705" stroke-miterlimit="10" stroke-linecap="round" stroke-linejoin="round"/>
<path d="M359.914 182.839H366.349" stroke="#494949" stroke-opacity="0.63" stroke-width="1.20705" stroke-miterlimit="10" stroke-linecap="round" stroke-linejoin="round"/>
<path d="M369.781 182.839H386.085" stroke="#263238" stroke-opacity="0.18" stroke-width="1.20705" stroke-miterlimit="10" stroke-linecap="round" stroke-linejoin="round"/>
<path d="M359.914 189.704H372.871" stroke="#263238" stroke-opacity="0.18" stroke-width="1.20705" stroke-miterlimit="10" stroke-linecap="round" stroke-linejoin="round"/>
<path d="M376.56 189.704H386.085" stroke="#494949" stroke-opacity="0.63" stroke-width="1.20705" stroke-miterlimit="10" stroke-linecap="round" stroke-linejoin="round"/>
</g>
<g filter="url(#filter3_bdi_80_2140)">
<path d="M378.517 287.921C402.041 287.921 421.287 268.674 421.287 245.151C421.287 221.627 402.041 202.381 378.517 202.381C354.994 202.381 335.747 221.627 335.747 245.151C335.747 268.674 354.994 287.921 378.517 287.921Z" fill="white" fill-opacity="0.65" shape-rendering="crispEdges"/>
<path d="M419.576 245.151C419.576 267.729 401.096 286.21 378.517 286.21C355.939 286.21 337.458 267.729 337.458 245.151C337.458 222.572 355.939 204.092 378.517 204.092C401.096 204.092 419.576 222.572 419.576 245.151Z" stroke="white" stroke-width="3.42159" shape-rendering="crispEdges"/>
</g>
<path d="M360.34 245.15L372.444 257.254L396.694 233.047" stroke="#CA1111" stroke-width="6.41548" stroke-linecap="round" stroke-linejoin="round"/>
<g filter="url(#filter4_di_80_2140)">
<rect x="573.548" y="104.865" width="136.864" height="136.864" rx="68.4318" fill="white" fill-opacity="0.65" shape-rendering="crispEdges"/>
<rect x="575.259" y="106.576" width="133.442" height="133.442" rx="66.721" stroke="white" stroke-width="3.42159" shape-rendering="crispEdges"/>
</g>
<g clip-path="url(#clip2_80_2140)">
<path d="M618.029 160.274H632.256L630.055 168.871C629.752 170.018 629.089 171.032 628.166 171.758C627.249 172.483 626.117 172.867 624.956 172.848H618.344C616.904 172.828 615.5 173.302 614.357 174.195C613.187 175.119 612.337 176.401 611.934 177.852C611.642 178.919 611.61 180.042 611.839 181.124C612.05 182.111 612.466 183.041 613.059 183.851C613.659 184.653 614.435 185.301 615.325 185.743C616.263 186.217 617.299 186.459 618.346 186.449H622.375C622.735 186.443 623.091 186.524 623.414 186.685C623.737 186.847 624.017 187.085 624.232 187.379C624.467 187.663 624.629 188.003 624.703 188.367C624.776 188.732 624.758 189.109 624.652 189.464L622.134 198.959H617.727C614.827 198.989 611.964 198.295 609.387 196.938C606.912 195.651 604.747 193.822 603.048 191.581C601.363 189.343 600.19 186.749 599.617 183.99C599.008 181.09 599.085 178.085 599.839 175.222L600.091 174.26C601.156 170.24 603.489 166.689 606.73 164.155C608.32 162.927 610.09 161.963 611.976 161.3C613.922 160.612 615.969 160.265 618.029 160.274Z" fill="#FF6C2C"/>
<path d="M625.206 198.959L637.609 151.613C637.911 150.466 638.575 149.452 639.497 148.726C640.414 148.001 641.545 147.616 642.706 147.635H655.864C658.764 147.606 661.628 148.3 664.205 149.656C666.677 150.942 668.838 152.771 670.531 155.013C672.224 157.254 673.407 159.851 673.993 162.616C674.624 165.514 674.537 168.527 673.742 171.383L673.49 172.346C672.959 174.365 672.109 176.283 670.972 178.023C669.29 180.604 667.007 182.719 664.326 184.18C661.646 185.641 658.652 186.402 655.612 186.396H644.218L646.485 177.735C646.8 176.611 647.462 175.621 648.373 174.912C649.29 174.187 650.423 173.802 651.584 173.821H655.235C656.705 173.823 658.134 173.326 659.297 172.408C660.459 171.49 661.289 170.204 661.655 168.753C661.945 167.726 661.974 166.64 661.739 165.599C661.526 164.611 661.107 163.681 660.512 162.872C659.907 162.067 659.132 161.409 658.246 160.948C657.316 160.455 656.282 160.202 655.235 160.21H648.184L638.994 195.046C638.679 196.169 638.016 197.159 637.105 197.869C636.208 198.587 635.098 198.971 633.958 198.959H625.206Z" fill="#FF6C2C"/>
<path d="M674.996 154.545H674.218V148.429H672.099V147.725H677.116V148.429H674.996V154.545Z" fill="#FF6C2C"/>
<path d="M681.084 154.545L678.813 148.491H678.778C678.82 148.97 678.841 149.54 678.841 150.201V154.545H678.123V147.725H679.294L681.413 153.349H681.451L683.587 147.725H684.75V154.545H683.982V150.15C683.982 149.645 684.005 149.1 684.047 148.508H684.011L681.711 154.545H681.084Z" fill="#FF6C2C"/>
</g>
<g filter="url(#filter5_di_80_2140)">
<rect x="46.6232" y="104.865" width="136.864" height="136.864" rx="68.4318" fill="white" fill-opacity="0.65" shape-rendering="crispEdges"/>
<rect x="48.334" y="106.576" width="133.442" height="133.442" rx="66.721" stroke="white" stroke-width="3.42159" shape-rendering="crispEdges"/>
</g>
<g clip-path="url(#clip3_80_2140)">
<path d="M154.403 178.188V184.187C154.403 187.778 151.485 190.698 147.894 190.698H142.135C140.666 190.698 139.467 189.502 139.467 188.029V174.344C139.467 172.98 140.501 171.866 141.818 171.708C138.894 159.63 128.022 150.62 115.057 150.62C102.092 150.62 91.2182 159.632 88.2943 171.71C89.6126 171.868 90.6455 172.98 90.6455 174.346V188.031C90.6455 189.504 89.4478 190.7 87.9768 190.7H82.2156C78.6246 190.698 75.7067 187.778 75.7067 184.187V178.188C75.7067 174.599 78.6246 171.679 82.2156 171.679H82.8104C85.8407 156.646 99.1437 145.289 115.057 145.289C130.97 145.289 144.273 156.646 147.304 171.679H147.9C151.485 171.675 154.403 174.597 154.403 178.188ZM123.103 190.854C122.185 192.299 120.328 193.3 118.166 193.3C115.097 193.3 112.607 191.31 112.607 188.857C112.607 186.399 115.095 184.41 118.166 184.41C120.328 184.41 122.185 185.41 123.103 186.855H136.474C137.56 184.179 138.17 181.255 138.17 178.19C138.17 165.422 127.821 155.073 115.053 155.073C102.285 155.073 91.9336 165.424 91.9336 178.19C91.9336 190.959 102.285 201.308 115.053 201.308C123.137 201.308 130.247 197.152 134.378 190.864H123.103V190.854Z" fill="#CA1111"/>
</g>
<path d="M205.157 174.153C205.157 171.633 203.114 169.591 200.595 169.591C198.075 169.591 196.033 171.633 196.033 174.153C196.033 176.672 198.075 178.715 200.595 178.715C203.114 178.715 205.157 176.672 205.157 174.153ZM292.978 173.297H200.595V175.008H292.978V173.297Z" fill="#301A1A" fill-opacity="0.16"/>
<path d="M562.713 174.153C562.713 171.633 560.67 169.591 558.151 169.591C555.631 169.591 553.589 171.633 553.589 174.153C553.589 176.672 555.631 178.715 558.151 178.715C560.67 178.715 562.713 176.672 562.713 174.153ZM558.151 173.297H465.768V175.008H558.151V173.297Z" fill="#301A1A" fill-opacity="0.16"/>
<defs>
<filter id="filter0_di_80_2140" x="142.941" y="300.409" width="228.22" height="228.22" filterUnits="userSpaceOnUse" color-interpolation-filters="sRGB">
<feFlood flood-opacity="0" result="BackgroundImageFix"/>
<feColorMatrix in="SourceAlpha" type="matrix" values="0 0 0 0 0 0 0 0 0 0 0 0 0 0 0 0 0 0 127 0" result="hardAlpha"/>
<feOffset dy="18.8187"/>
<feGaussianBlur stdDeviation="22.8391"/>
<feComposite in2="hardAlpha" operator="out"/>
<feColorMatrix type="matrix" values="0 0 0 0 0 0 0 0 0 0 0 0 0 0 0 0 0 0 0.04 0"/>
<feBlend mode="plus-darker" in2="BackgroundImageFix" result="effect1_dropShadow_80_2140"/>
<feBlend mode="normal" in="SourceGraphic" in2="effect1_dropShadow_80_2140" result="shape"/>
<feColorMatrix in="SourceAlpha" type="matrix" values="0 0 0 0 0 0 0 0 0 0 0 0 0 0 0 0 0 0 127 0" result="hardAlpha"/>
<feOffset dx="-6.84318" dy="8.55397"/>
<feGaussianBlur stdDeviation="10.0937"/>
<feComposite in2="hardAlpha" operator="arithmetic" k2="-1" k3="1"/>
<feColorMatrix type="matrix" values="0 0 0 0 1 0 0 0 0 1 0 0 0 0 1 0 0 0 0.25 0"/>
<feBlend mode="normal" in2="shape" result="effect2_innerShadow_80_2140"/>
</filter>
<filter id="filter1_di_80_2140" x="385.874" y="300.409" width="228.22" height="228.22" filterUnits="userSpaceOnUse" color-interpolation-filters="sRGB">
<feFlood flood-opacity="0" result="BackgroundImageFix"/>
<feColorMatrix in="SourceAlpha" type="matrix" values="0 0 0 0 0 0 0 0 0 0 0 0 0 0 0 0 0 0 127 0" result="hardAlpha"/>
<feOffset dy="18.8187"/>
<feGaussianBlur stdDeviation="22.8391"/>
<feComposite in2="hardAlpha" operator="out"/>
<feColorMatrix type="matrix" values="0 0 0 0 0 0 0 0 0 0 0 0 0 0 0 0 0 0 0.04 0"/>
<feBlend mode="plus-darker" in2="BackgroundImageFix" result="effect1_dropShadow_80_2140"/>
<feBlend mode="normal" in="SourceGraphic" in2="effect1_dropShadow_80_2140" result="shape"/>
<feColorMatrix in="SourceAlpha" type="matrix" values="0 0 0 0 0 0 0 0 0 0 0 0 0 0 0 0 0 0 127 0" result="hardAlpha"/>
<feOffset dx="-6.84318" dy="8.55397"/>
<feGaussianBlur stdDeviation="10.0937"/>
<feComposite in2="hardAlpha" operator="arithmetic" k2="-1" k3="1"/>
<feColorMatrix type="matrix" values="0 0 0 0 1 0 0 0 0 1 0 0 0 0 1 0 0 0 0.25 0"/>
<feBlend mode="normal" in2="shape" result="effect2_innerShadow_80_2140"/>
</filter>
<filter id="filter2_di_80_2140" x="233.708" y="0.167038" width="287.908" height="337.377" filterUnits="userSpaceOnUse" color-interpolation-filters="sRGB">
<feFlood flood-opacity="0" result="BackgroundImageFix"/>
<feColorMatrix in="SourceAlpha" type="matrix" values="0 0 0 0 0 0 0 0 0 0 0 0 0 0 0 0 0 0 127 0" result="hardAlpha"/>
<feOffset dy="27.2078"/>
<feGaussianBlur stdDeviation="33.0204"/>
<feComposite in2="hardAlpha" operator="out"/>
<feColorMatrix type="matrix" values="0 0 0 0 0 0 0 0 0 0 0 0 0 0 0 0 0 0 0.04 0"/>
<feBlend mode="plus-darker" in2="BackgroundImageFix" result="effect1_dropShadow_80_2140"/>
<feBlend mode="normal" in="SourceGraphic" in2="effect1_dropShadow_80_2140" result="shape"/>
<feColorMatrix in="SourceAlpha" type="matrix" values="0 0 0 0 0 0 0 0 0 0 0 0 0 0 0 0 0 0 127 0" result="hardAlpha"/>
<feOffset dx="-9.89375" dy="12.3672"/>
<feGaussianBlur stdDeviation="14.5933"/>
<feComposite in2="hardAlpha" operator="arithmetic" k2="-1" k3="1"/>
<feColorMatrix type="matrix" values="0 0 0 0 1 0 0 0 0 1 0 0 0 0 1 0 0 0 0.25 0"/>
<feBlend mode="normal" in2="shape" result="effect2_innerShadow_80_2140"/>
</filter>
<filter id="filter3_bdi_80_2140" x="221.552" y="135.232" width="313.931" height="313.931" filterUnits="userSpaceOnUse" color-interpolation-filters="sRGB">
<feFlood flood-opacity="0" result="BackgroundImageFix"/>
<feGaussianBlur in="BackgroundImageFix" stdDeviation="17.1079"/>
<feComposite in2="SourceAlpha" operator="in" result="effect1_backgroundBlur_80_2140"/>
<feColorMatrix in="SourceAlpha" type="matrix" values="0 0 0 0 0 0 0 0 0 0 0 0 0 0 0 0 0 0 127 0" result="hardAlpha"/>
<feOffset dy="47.0468"/>
<feGaussianBlur stdDeviation="57.0978"/>
<feComposite in2="hardAlpha" operator="out"/>
<feColorMatrix type="matrix" values="0 0 0 0 0 0 0 0 0 0 0 0 0 0 0 0 0 0 0.04 0"/>
<feBlend mode="plus-darker" in2="effect1_backgroundBlur_80_2140" result="effect2_dropShadow_80_2140"/>
<feBlend mode="normal" in="SourceGraphic" in2="effect2_dropShadow_80_2140" result="shape"/>
<feColorMatrix in="SourceAlpha" type="matrix" values="0 0 0 0 0 0 0 0 0 0 0 0 0 0 0 0 0 0 127 0" result="hardAlpha"/>
<feOffset dx="-17.1079" dy="21.3849"/>
<feGaussianBlur stdDeviation="25.2342"/>
<feComposite in2="hardAlpha" operator="arithmetic" k2="-1" k3="1"/>
<feColorMatrix type="matrix" values="0 0 0 0 1 0 0 0 0 1 0 0 0 0 1 0 0 0 0.25 0"/>
<feBlend mode="normal" in2="shape" result="effect3_innerShadow_80_2140"/>
</filter>
<filter id="filter4_di_80_2140" x="527.87" y="78.006" width="228.22" height="228.22" filterUnits="userSpaceOnUse" color-interpolation-filters="sRGB">
<feFlood flood-opacity="0" result="BackgroundImageFix"/>
<feColorMatrix in="SourceAlpha" type="matrix" values="0 0 0 0 0 0 0 0 0 0 0 0 0 0 0 0 0 0 127 0" result="hardAlpha"/>
<feOffset dy="18.8187"/>
<feGaussianBlur stdDeviation="22.8391"/>
<feComposite in2="hardAlpha" operator="out"/>
<feColorMatrix type="matrix" values="0 0 0 0 0 0 0 0 0 0 0 0 0 0 0 0 0 0 0.04 0"/>
<feBlend mode="plus-darker" in2="BackgroundImageFix" result="effect1_dropShadow_80_2140"/>
<feBlend mode="normal" in="SourceGraphic" in2="effect1_dropShadow_80_2140" result="shape"/>
<feColorMatrix in="SourceAlpha" type="matrix" values="0 0 0 0 0 0 0 0 0 0 0 0 0 0 0 0 0 0 127 0" result="hardAlpha"/>
<feOffset dx="-6.84318" dy="8.55397"/>
<feGaussianBlur stdDeviation="10.0937"/>
<feComposite in2="hardAlpha" operator="arithmetic" k2="-1" k3="1"/>
<feColorMatrix type="matrix" values="0 0 0 0 1 0 0 0 0 1 0 0 0 0 1 0 0 0 0.25 0"/>
<feBlend mode="normal" in2="shape" result="effect2_innerShadow_80_2140"/>
</filter>
<filter id="filter5_di_80_2140" x="0.945042" y="78.006" width="228.22" height="228.22" filterUnits="userSpaceOnUse" color-interpolation-filters="sRGB">
<feFlood flood-opacity="0" result="BackgroundImageFix"/>
<feColorMatrix in="SourceAlpha" type="matrix" values="0 0 0 0 0 0 0 0 0 0 0 0 0 0 0 0 0 0 127 0" result="hardAlpha"/>
<feOffset dy="18.8187"/>
<feGaussianBlur stdDeviation="22.8391"/>
<feComposite in2="hardAlpha" operator="out"/>
<feColorMatrix type="matrix" values="0 0 0 0 0 0 0 0 0 0 0 0 0 0 0 0 0 0 0.04 0"/>
<feBlend mode="plus-darker" in2="BackgroundImageFix" result="effect1_dropShadow_80_2140"/>
<feBlend mode="normal" in="SourceGraphic" in2="effect1_dropShadow_80_2140" result="shape"/>
<feColorMatrix in="SourceAlpha" type="matrix" values="0 0 0 0 0 0 0 0 0 0 0 0 0 0 0 0 0 0 127 0" result="hardAlpha"/>
<feOffset dx="-6.84318" dy="8.55397"/>
<feGaussianBlur stdDeviation="10.0937"/>
<feComposite in2="hardAlpha" operator="arithmetic" k2="-1" k3="1"/>
<feColorMatrix type="matrix" values="0 0 0 0 1 0 0 0 0 1 0 0 0 0 1 0 0 0 0.25 0"/>
<feBlend mode="normal" in2="shape" result="effect2_innerShadow_80_2140"/>
</filter>
<clipPath id="clip0_80_2140">
<rect width="136.864" height="136.864" fill="white" transform="translate(188.619 327.269)"/>
</clipPath>
<clipPath id="clip1_80_2140">
<rect width="117.043" height="104.772" fill="white" transform="translate(318.639 86.0469)"/>
</clipPath>
<clipPath id="clip2_80_2140">
<rect width="85.5397" height="51.3238" fill="white" transform="translate(599.21 147.635)"/>
</clipPath>
<clipPath id="clip3_80_2140">
<rect width="78.6965" height="78.6965" fill="white" transform="translate(75.7067 133.949)"/>
</clipPath>
</defs>
</svg>
