<svg width="33" height="33" viewBox="0 0 33 33" fill="none" xmlns="http://www.w3.org/2000/svg">
<g clip-path="url(#clip0_732_1172)">
<path d="M10.7731 32.2333H22.227C23.5702 32.2316 24.8579 31.6973 25.8078 30.7475C26.7576 29.7976 27.2919 28.5099 27.2936 27.1667V5.83333C27.2919 4.49009 26.7576 3.20234 25.8078 2.25253C24.8579 1.30271 23.5702 0.768356 22.227 0.766663H10.7731C9.42984 0.768356 8.1421 1.30271 7.19228 2.25253C6.24247 3.20234 5.70811 4.49009 5.70642 5.83333V27.1667C5.70811 28.5099 6.24247 29.7976 7.19228 30.7475C8.1421 31.6973 9.42984 32.2316 10.7731 32.2333ZM7.30642 5.83333C7.30755 4.91426 7.67315 4.03315 8.32303 3.38327C8.97291 2.73339 9.85402 2.36779 10.7731 2.36666H22.227C23.146 2.36779 24.0271 2.73339 24.677 3.38327C25.3269 4.03315 25.6925 4.91426 25.6936 5.83333V27.1667C25.6925 28.0857 25.3269 28.9668 24.677 29.6167C24.0271 30.2666 23.146 30.6322 22.227 30.6333H10.7731C9.85402 30.6322 8.97291 30.2666 8.32303 29.6167C7.67315 28.9668 7.30755 28.0857 7.30642 27.1667V5.83333Z" fill="black"/>
<path d="M15.5069 6.0328H17.493C17.7052 6.0328 17.9087 5.94851 18.0587 5.79849C18.2088 5.64846 18.293 5.44497 18.293 5.2328C18.293 5.02063 18.2088 4.81714 18.0587 4.66711C17.9087 4.51709 17.7052 4.4328 17.493 4.4328H15.5069C15.2947 4.4328 15.0913 4.51709 14.9412 4.66711C14.7912 4.81714 14.7069 5.02063 14.7069 5.2328C14.7069 5.44497 14.7912 5.64846 14.9412 5.79849C15.0913 5.94851 15.2947 6.0328 15.5069 6.0328Z" fill="black"/>
<path d="M12.5266 18.0627C12.6008 18.1371 12.6889 18.1962 12.7859 18.2366C12.8829 18.277 12.987 18.2979 13.0921 18.2981C13.1972 18.2983 13.3013 18.2778 13.3984 18.2378C13.4956 18.1977 13.5839 18.139 13.6584 18.0648C13.7328 17.9906 13.7919 17.9025 13.8323 17.8055C13.8727 17.7085 13.8936 17.6045 13.8938 17.4994C13.894 17.3943 13.8735 17.2902 13.8335 17.193C13.7935 17.0958 13.7347 17.0075 13.6605 16.9331L11.6082 14.8744C11.5586 14.8241 11.5308 14.7563 11.5308 14.6856C11.5308 14.6149 11.5586 14.5471 11.6082 14.4968L13.6605 12.436C13.8059 12.2848 13.8861 12.0825 13.8838 11.8727C13.8815 11.6629 13.7969 11.4625 13.6482 11.3145C13.4995 11.1665 13.2986 11.0828 13.0889 11.0815C12.8791 11.0802 12.6772 11.1613 12.5266 11.3075L10.4744 13.3672C10.1269 13.7178 9.93188 14.1914 9.93188 14.6851C9.93188 15.1787 10.1269 15.6523 10.4744 16.0029L12.5266 18.0627Z" fill="black"/>
<path d="M19.3395 16.9331C19.2654 17.0075 19.2066 17.0958 19.1665 17.193C19.1265 17.2902 19.106 17.3943 19.1062 17.4994C19.1064 17.6045 19.1273 17.7085 19.1677 17.8055C19.2081 17.9025 19.2672 17.9906 19.3417 18.0648C19.4161 18.139 19.5044 18.1977 19.6016 18.2378C19.6988 18.2778 19.8029 18.2983 19.908 18.2981C20.0131 18.2979 20.1171 18.277 20.2141 18.2366C20.3111 18.1962 20.3992 18.1371 20.4734 18.0627L22.5257 16.0019C22.8731 15.6515 23.0681 15.178 23.0681 14.6845C23.0681 14.1911 22.8731 13.7176 22.5257 13.3672L20.4734 11.3075C20.3229 11.1613 20.121 11.0802 19.9112 11.0815C19.7014 11.0828 19.5005 11.1665 19.3518 11.3145C19.2031 11.4625 19.1185 11.6629 19.1162 11.8727C19.1139 12.0825 19.1941 12.2848 19.3395 12.436L21.3918 14.4968C21.4416 14.5468 21.4696 14.6145 21.4696 14.6851C21.4696 14.7556 21.4416 14.8233 21.3918 14.8733L19.3395 16.9331Z" fill="black"/>
<path d="M15.2669 19.6147C15.3307 19.6311 15.3963 19.6394 15.4621 19.6392C15.6404 19.6389 15.8134 19.5791 15.9539 19.4694C16.0943 19.3596 16.1942 19.2062 16.2376 19.0333L18.3133 10.7251C18.3406 10.6226 18.3472 10.5157 18.3327 10.4107C18.3183 10.3056 18.2831 10.2045 18.2292 10.1131C18.1753 10.0218 18.1038 9.94209 18.0189 9.87864C17.9339 9.81519 17.8372 9.76926 17.7343 9.74352C17.6315 9.71779 17.5245 9.71276 17.4197 9.72873C17.3148 9.74471 17.2142 9.78136 17.1237 9.83656C17.0332 9.89177 16.9545 9.96442 16.8923 10.0503C16.8301 10.1362 16.7856 10.2336 16.7613 10.3368L14.6867 18.6451C14.661 18.7468 14.6556 18.8527 14.6708 18.9565C14.6861 19.0604 14.7217 19.1602 14.7756 19.2503C14.8295 19.3404 14.9006 19.4189 14.985 19.4814C15.0693 19.544 15.1651 19.5892 15.2669 19.6147Z" fill="black"/>
<path d="M22.0947 21.5987H10.9053C10.6932 21.5987 10.4897 21.683 10.3397 21.833C10.1896 21.983 10.1053 22.1865 10.1053 22.3987C10.1053 22.6109 10.1896 22.8143 10.3397 22.9644C10.4897 23.1144 10.6932 23.1987 10.9053 23.1987H22.0947C22.3069 23.1987 22.5103 23.1144 22.6604 22.9644C22.8104 22.8143 22.8947 22.6109 22.8947 22.3987C22.8947 22.1865 22.8104 21.983 22.6604 21.833C22.5103 21.683 22.3069 21.5987 22.0947 21.5987Z" fill="black"/>
<path d="M20.5875 25.3352H12.4125C12.2004 25.3352 11.9969 25.4195 11.8469 25.5695C11.6968 25.7195 11.6125 25.923 11.6125 26.1352C11.6125 26.3474 11.6968 26.5509 11.8469 26.7009C11.9969 26.8509 12.2004 26.9352 12.4125 26.9352H20.5875C20.7997 26.9352 21.0031 26.8509 21.1532 26.7009C21.3032 26.5509 21.3875 26.3474 21.3875 26.1352C21.3875 25.923 21.3032 25.7195 21.1532 25.5695C21.0031 25.4195 20.7997 25.3352 20.5875 25.3352Z" fill="black"/>
</g>
<defs>
<clipPath id="clip0_732_1172">
<rect width="32" height="32" fill="white" transform="translate(0.5 0.5)"/>
</clipPath>
</defs>
</svg>
