<svg width="32" height="33" viewBox="0 0 32 33" fill="none" xmlns="http://www.w3.org/2000/svg">
<g clip-path="url(#clip0_732_1488)">
<path d="M6.05118 6.964C6.69507 6.964 7.21705 6.44202 7.21705 5.79813C7.21705 5.15424 6.69507 4.63226 6.05118 4.63226C5.40729 4.63226 4.88531 5.15424 4.88531 5.79813C4.88531 6.44202 5.40729 6.964 6.05118 6.964Z" fill="black"/>
<path d="M9.90189 6.964C10.5458 6.964 11.0678 6.44202 11.0678 5.79813C11.0678 5.15424 10.5458 4.63226 9.90189 4.63226C9.258 4.63226 8.73602 5.15424 8.73602 5.79813C8.73602 6.44202 9.258 6.964 9.90189 6.964Z" fill="black"/>
<path d="M13.7525 6.964C14.3964 6.964 14.9184 6.44202 14.9184 5.79813C14.9184 5.15424 14.3964 4.63226 13.7525 4.63226C13.1086 4.63226 12.5867 5.15424 12.5867 5.79813C12.5867 6.44202 13.1086 6.964 13.7525 6.964Z" fill="black"/>
<path d="M6.48319 32.2333H25.5168C27.1428 32.2314 28.7017 31.5845 29.8515 30.4347C31.0013 29.2849 31.6481 27.726 31.6501 26.1V6.9C31.6481 5.27394 31.0013 3.71505 29.8515 2.56526C28.7017 1.41546 27.1428 0.768639 25.5168 0.766663H6.48319C4.85713 0.768639 3.29824 1.41546 2.14845 2.56526C0.998653 3.71505 0.351829 5.27394 0.349854 6.9V26.1C0.351829 27.726 0.998653 29.2849 2.14845 30.4347C3.29824 31.5845 4.85713 32.2314 6.48319 32.2333ZM14.432 25.4952C14.4325 25.4881 14.4325 25.481 14.432 25.4739V25.4493C14.432 25.4301 14.4224 25.4152 14.4213 25.396C14.4181 25.3113 14.4012 25.2278 14.3712 25.1485C14.3637 25.1304 14.3509 25.1155 14.3413 25.0973C14.3067 25.0216 14.2599 24.952 14.2027 24.8915C14.1899 24.8776 14.1728 24.8701 14.16 24.8584C14.1085 24.8061 14.05 24.7612 13.9861 24.7251C13.2721 24.3727 12.6639 23.838 12.223 23.175C11.7822 22.512 11.5243 21.7443 11.4756 20.9496C11.4269 20.1549 11.589 19.3614 11.9456 18.6495C12.3021 17.9377 12.8405 17.3326 13.5061 16.8957V19.2264C13.5067 19.8229 13.7439 20.3947 14.1656 20.8165C14.5874 21.2382 15.1593 21.4754 15.7557 21.476H16.2368C16.8332 21.4754 17.4051 21.2382 17.8269 20.8165C18.2486 20.3947 18.4858 19.8229 18.4864 19.2264V16.8957C19.1539 17.3312 19.6942 17.9356 20.0523 18.6476C20.4104 19.3596 20.5736 20.1537 20.5253 20.9492C20.4769 21.7448 20.2188 22.5133 19.7771 23.1767C19.3354 23.8401 18.726 24.3747 18.0107 24.7261C17.9469 24.7624 17.8887 24.8077 17.8379 24.8605C17.8251 24.8712 17.8101 24.8787 17.7973 24.8915C17.7389 24.9543 17.6913 25.0264 17.6565 25.1048C17.648 25.1208 17.6363 25.1347 17.6288 25.1517C17.5978 25.2333 17.5805 25.3194 17.5776 25.4067C17.5776 25.4227 17.568 25.4365 17.568 25.4525V25.4749C17.5685 25.4845 17.5685 25.4941 17.568 25.5037V30.6333H14.432V25.4952ZM6.48319 2.36666H25.5168C26.5887 2.37039 27.6246 2.75392 28.4405 3.44914C29.2564 4.14435 29.7995 5.10626 29.9733 6.164H21.7717C21.2801 6.1627 20.7962 6.28597 20.3652 6.52229C19.9341 6.75862 19.5699 7.10031 19.3067 7.51546L18.6037 8.6184C18.4847 8.80618 18.3201 8.96073 18.1251 9.06761C17.9302 9.1745 17.7114 9.23023 17.4891 9.2296H1.94985V6.9C1.95126 5.69811 2.42934 4.54586 3.27919 3.696C4.12905 2.84614 5.2813 2.36807 6.48319 2.36666ZM1.94985 10.8296H17.4933C17.9849 10.8308 18.4688 10.7075 18.8998 10.4712C19.3309 10.2348 19.695 9.89321 19.9584 9.47813L20.6603 8.3752C20.7793 8.18741 20.9439 8.03286 21.1388 7.92598C21.3338 7.81909 21.5526 7.76336 21.7749 7.764H30.0533V26.1C30.0519 27.3019 29.5738 28.4541 28.724 29.304C27.8741 30.1538 26.7219 30.6319 25.52 30.6333H19.168V25.8995C20.0709 25.359 20.8185 24.5942 21.3383 23.6793C21.8581 22.7643 22.1323 21.7305 22.1342 20.6782C22.1361 19.626 21.8658 18.5911 21.3493 17.6743C20.8329 16.7575 20.0881 15.9899 19.1872 15.4461C18.9582 15.3055 18.6958 15.2285 18.4271 15.2231C18.1585 15.2177 17.8932 15.2841 17.6588 15.4154C17.4243 15.5467 17.2291 15.7382 17.0933 15.9701C16.9576 16.202 16.8861 16.4659 16.8864 16.7347V19.2253C16.8864 19.3976 16.8179 19.5628 16.6961 19.6847C16.5743 19.8065 16.4091 19.8749 16.2368 19.8749H15.7557C15.5834 19.8749 15.4182 19.8065 15.2964 19.6847C15.1746 19.5628 15.1061 19.3976 15.1061 19.2253V16.7357C15.1065 16.4674 15.0353 16.2038 14.9 15.972C14.7647 15.7403 14.5701 15.5488 14.3362 15.4172C14.1023 15.2857 13.8376 15.2188 13.5693 15.2235C13.3009 15.2282 13.0387 15.3043 12.8096 15.444C11.9102 15.989 11.1668 16.7572 10.6516 17.674C10.1364 18.5909 9.86692 19.6253 9.86917 20.677C9.87143 21.7287 10.1454 22.7619 10.6645 23.6765C11.1836 24.5912 11.9302 25.3562 12.832 25.8973V30.6333H6.48319C5.2813 30.6319 4.12905 30.1538 3.27919 29.304C2.42934 28.4541 1.95126 27.3019 1.94985 26.1V10.8296Z" fill="black"/>
</g>
<defs>
<clipPath id="clip0_732_1488">
<rect width="32" height="32" fill="white" transform="translate(0 0.5)"/>
</clipPath>
</defs>
</svg>
