<svg width="33" height="33" viewBox="0 0 33 33" fill="none" xmlns="http://www.w3.org/2000/svg">
<g clip-path="url(#clip0_732_1263)">
<path d="M28.708 0.766663C27.8203 0.770039 26.9667 1.10867 26.3181 1.71473C25.6695 2.32079 25.2738 3.14952 25.2104 4.03493L24.7688 4.47653C21.4909 7.75333 18.5832 9.14 14.8349 9.22533C14.5739 8.79969 14.2083 8.44792 13.7729 8.20352C13.3374 7.95912 12.8467 7.83021 12.3474 7.82906H8.62903C6.6942 7.82862 4.82718 8.54182 3.38541 9.83213C1.94363 11.1224 1.02841 12.8992 0.814964 14.8222C0.601514 16.7452 1.10483 18.6794 2.22856 20.2545C3.35229 21.8295 5.01747 22.9348 6.9053 23.3587L9.73197 30.4243C9.98342 31.0408 10.4407 31.5512 11.0261 31.8685C11.6115 32.1859 12.2887 32.2906 12.9426 32.1648C13.5965 32.0391 14.1866 31.6907 14.6125 31.1788C15.0384 30.667 15.2738 30.0234 15.2786 29.3576V22.18C18.8136 22.3624 21.6221 23.7608 24.772 26.9096L25.2136 27.3501C25.2994 28.2434 25.7232 29.0702 26.3983 29.6614C27.0734 30.2527 27.9488 30.5638 28.8457 30.5311C29.7425 30.4984 30.5929 30.1244 31.2232 29.4856C31.8535 28.8467 32.2159 27.9913 32.2365 27.0941V4.29093C32.2354 3.35584 31.8631 2.45944 31.2015 1.79864C30.5399 1.13783 29.6431 0.766662 28.708 0.766663ZM2.36664 15.6925C2.36833 14.0321 3.02863 12.4401 4.20266 11.2658C5.37669 10.0916 6.96856 9.43104 8.62903 9.42906H12.3474C12.701 9.42935 13.0399 9.56991 13.2899 9.8199C13.5399 10.0699 13.6805 10.4089 13.6808 10.7624V21.9219H7.9837C6.44357 21.7602 5.0177 21.0344 3.98066 19.8843C2.94361 18.7342 2.3687 17.2411 2.36664 15.6925ZM12.404 30.6333C12.1485 30.634 11.8987 30.5577 11.6871 30.4145C11.4756 30.2712 11.3121 30.0676 11.2178 29.8301L8.7069 23.5549H13.6808V29.3555C13.6802 29.694 13.5455 30.0186 13.3062 30.2581C13.0669 30.4975 12.7425 30.6325 12.404 30.6333ZM15.284 20.5619V10.8232C18.9725 10.6515 22.0136 9.26266 25.188 6.30053V25.0856C22.0114 22.1224 18.9693 20.7336 15.2808 20.5619H15.284ZM30.6333 27.0941C30.6333 27.6045 30.4306 28.0939 30.0697 28.4548C29.7088 28.8157 29.2194 29.0184 28.709 29.0184C28.1987 29.0184 27.7092 28.8157 27.3484 28.4548C26.9875 28.0939 26.7848 27.6045 26.7848 27.0941V4.29093C26.7848 3.78058 26.9875 3.29114 27.3484 2.93027C27.7092 2.5694 28.1987 2.36666 28.709 2.36666C29.2194 2.36666 29.7088 2.5694 30.0697 2.93027C30.4306 3.29114 30.6333 3.78058 30.6333 4.29093V27.0941Z" fill="black"/>
<path d="M6.73677 14.5363H10.3794C10.5916 14.5363 10.7951 14.452 10.9451 14.302C11.0951 14.1519 11.1794 13.9485 11.1794 13.7363C11.1794 13.5241 11.0951 13.3206 10.9451 13.1706C10.7951 13.0206 10.5916 12.9363 10.3794 12.9363H6.73677C6.63171 12.9363 6.52768 12.957 6.43062 12.9972C6.33356 13.0374 6.24537 13.0963 6.17108 13.1706C6.0968 13.2449 6.03787 13.3331 5.99766 13.4301C5.95746 13.5272 5.93677 13.6312 5.93677 13.7363C5.93677 13.8413 5.95746 13.9454 5.99766 14.0424C6.03787 14.1395 6.0968 14.2277 6.17108 14.302C6.24537 14.3763 6.33356 14.4352 6.43062 14.4754C6.52768 14.5156 6.63171 14.5363 6.73677 14.5363Z" fill="black"/>
<path d="M10.3794 18.4477C10.5916 18.4477 10.7951 18.3634 10.9451 18.2134C11.0951 18.0634 11.1794 17.8599 11.1794 17.6477C11.1794 17.4355 11.0951 17.2321 10.9451 17.082C10.7951 16.932 10.5916 16.8477 10.3794 16.8477H6.73677C6.52459 16.8477 6.32111 16.932 6.17108 17.082C6.02105 17.2321 5.93677 17.4355 5.93677 17.6477C5.93677 17.8599 6.02105 18.0634 6.17108 18.2134C6.32111 18.3634 6.52459 18.4477 6.73677 18.4477H10.3794Z" fill="black"/>
</g>
<defs>
<clipPath id="clip0_732_1263">
<rect width="32" height="32" fill="white" transform="translate(0.5 0.5)"/>
</clipPath>
</defs>
</svg>
