<svg width="32" height="33" viewBox="0 0 32 33" fill="none" xmlns="http://www.w3.org/2000/svg">
<g clip-path="url(#clip0_732_971)">
<path d="M6.09175 18.0147H25.9083C27.2515 18.013 28.5393 17.4786 29.4891 16.5288C30.4389 15.579 30.9733 14.2912 30.9749 12.948V5.83333C30.9733 4.49009 30.4389 3.20234 29.4891 2.25253C28.5393 1.30271 27.2515 0.768356 25.9083 0.766663H6.09175C4.74851 0.768356 3.46077 1.30271 2.51095 2.25253C1.56113 3.20234 1.02678 4.49009 1.02509 5.83333V12.948C1.02678 14.2912 1.56113 15.579 2.51095 16.5288C3.46077 17.4786 4.74851 18.013 6.09175 18.0147ZM2.62509 5.83333C2.62621 4.91426 2.99181 4.03315 3.6417 3.38327C4.29158 2.73339 5.17268 2.36779 6.09175 2.36666H25.9083C26.8274 2.36779 27.7085 2.73339 28.3583 3.38327C29.0082 4.03315 29.3738 4.91426 29.375 5.83333V12.948C29.3738 13.8671 29.0082 14.7482 28.3583 15.3981C27.7085 16.0479 26.8274 16.4135 25.9083 16.4147H6.09175C5.17268 16.4135 4.29158 16.0479 3.6417 15.3981C2.99181 14.7482 2.62621 13.8671 2.62509 12.948V5.83333Z" fill="black"/>
<path d="M10.1899 12.9459C10.264 13.0203 10.3521 13.0794 10.4491 13.1197C10.5461 13.16 10.6502 13.1807 10.7552 13.1807C10.8603 13.1807 10.9643 13.16 11.0613 13.1197C11.1583 13.0794 11.2464 13.0203 11.3205 12.9459L14.5611 9.70533C14.6354 9.63104 14.6944 9.54283 14.7346 9.44573C14.7749 9.34864 14.7956 9.24457 14.7956 9.13947C14.7956 9.03437 14.7749 8.9303 14.7346 8.8332C14.6944 8.73611 14.6354 8.64789 14.5611 8.5736L11.3205 5.33307C11.2467 5.25669 11.1584 5.19579 11.0608 5.15391C10.9632 5.11203 10.8582 5.09001 10.7519 5.08914C10.6457 5.08827 10.5404 5.10856 10.4421 5.14883C10.3438 5.1891 10.2545 5.24854 10.1794 5.32369C10.1043 5.39884 10.045 5.48819 10.0048 5.58653C9.96463 5.68486 9.94443 5.79022 9.94541 5.89644C9.94638 6.00266 9.9685 6.10763 10.0105 6.20521C10.0524 6.30279 10.1134 6.39104 10.1899 6.4648L12.8651 9.14L10.1899 11.8141C10.1155 11.8884 10.0566 11.9766 10.0163 12.0737C9.97609 12.1708 9.95538 12.2749 9.95538 12.38C9.95538 12.4851 9.97609 12.5892 10.0163 12.6863C10.0566 12.7834 10.1155 12.8716 10.1899 12.9459Z" fill="black"/>
<path d="M17.008 12.5854H21.2448C21.457 12.5854 21.6605 12.5011 21.8105 12.351C21.9605 12.201 22.0448 11.9975 22.0448 11.7854C22.0448 11.5732 21.9605 11.3697 21.8105 11.2197C21.6605 11.0696 21.457 10.9854 21.2448 10.9854H17.008C16.7958 10.9854 16.5924 11.0696 16.4423 11.2197C16.2923 11.3697 16.208 11.5732 16.208 11.7854C16.208 11.9975 16.2923 12.201 16.4423 12.351C16.5924 12.5011 16.7958 12.5854 17.008 12.5854Z" fill="black"/>
<path d="M5.02509 32.2333H26.9749C28.0354 32.2319 29.052 31.81 29.8018 31.0602C30.5517 30.3104 30.9735 29.2938 30.9749 28.2333V25.2637C30.9735 24.2033 30.5517 23.1867 29.8018 22.4369C29.052 21.687 28.0354 21.2651 26.9749 21.2637H5.02509C3.96465 21.2651 2.94806 21.687 2.19822 22.4369C1.44838 23.1867 1.0265 24.2033 1.02509 25.2637V28.2333C1.0265 29.2938 1.44838 30.3104 2.19822 31.0602C2.94806 31.81 3.96465 32.2319 5.02509 32.2333ZM2.62509 25.2637C2.62593 24.6275 2.87906 24.0175 3.32896 23.5676C3.77887 23.1177 4.38883 22.8646 5.02509 22.8637H26.9749C27.6112 22.8646 28.2212 23.1177 28.6711 23.5676C29.121 24.0175 29.3741 24.6275 29.375 25.2637V28.2333C29.3741 28.8696 29.121 29.4796 28.6711 29.9295C28.2212 30.3794 27.6112 30.6325 26.9749 30.6333H5.02509C4.38883 30.6325 3.77887 30.3794 3.32896 29.9295C2.87906 29.4796 2.62593 28.8696 2.62509 28.2333V25.2637Z" fill="black"/>
<path d="M7.44962 27.7757C7.65279 27.7757 7.85138 27.7155 8.02031 27.6026C8.18923 27.4897 8.32089 27.3293 8.39863 27.1416C8.47638 26.9539 8.49672 26.7474 8.45709 26.5481C8.41745 26.3489 8.31962 26.1658 8.17596 26.0222C8.03231 25.8785 7.84928 25.7807 7.65002 25.7411C7.45076 25.7014 7.24423 25.7218 7.05653 25.7995C6.86884 25.8773 6.70841 26.0089 6.59554 26.1778C6.48267 26.3468 6.42242 26.5454 6.42242 26.7485C6.42242 26.8834 6.44899 27.017 6.50062 27.1416C6.55224 27.2662 6.6279 27.3795 6.72328 27.4749C6.81867 27.5702 6.93191 27.6459 7.05653 27.6975C7.18116 27.7491 7.31473 27.7757 7.44962 27.7757Z" fill="black"/>
<path d="M12.4384 27.7757C12.6416 27.7759 12.8403 27.7159 13.0094 27.6031C13.1785 27.4904 13.3103 27.33 13.3882 27.1423C13.4661 26.9547 13.4866 26.7481 13.4471 26.5488C13.4076 26.3494 13.3098 26.1663 13.1662 26.0226C13.0226 25.8788 12.8396 25.7809 12.6403 25.7411C12.441 25.7014 12.2344 25.7217 12.0466 25.7994C11.8589 25.8771 11.6984 26.0088 11.5855 26.1777C11.4726 26.3467 11.4123 26.5453 11.4123 26.7485C11.4123 27.0208 11.5204 27.2819 11.7128 27.4745C11.9052 27.6671 12.1662 27.7754 12.4384 27.7757Z" fill="black"/>
<path d="M22.128 28.2205C22.3402 28.2205 22.5437 28.1362 22.6937 27.9862C22.8437 27.8362 22.928 27.6327 22.928 27.4205V26.0776C22.928 25.8654 22.8437 25.6619 22.6937 25.5119C22.5437 25.3619 22.3402 25.2776 22.128 25.2776C21.9158 25.2776 21.7123 25.3619 21.5623 25.5119C21.4123 25.6619 21.328 25.8654 21.328 26.0776V27.4205C21.328 27.6327 21.4123 27.8362 21.5623 27.9862C21.7123 28.1362 21.9158 28.2205 22.128 28.2205Z" fill="black"/>
<path d="M25.4934 28.2205C25.7055 28.2205 25.909 28.1362 26.059 27.9862C26.2091 27.8362 26.2934 27.6327 26.2934 27.4205V26.0776C26.2934 25.8654 26.2091 25.6619 26.059 25.5119C25.909 25.3619 25.7055 25.2776 25.4934 25.2776C25.2812 25.2776 25.0777 25.3619 24.9277 25.5119C24.7776 25.6619 24.6934 25.8654 24.6934 26.0776V27.4205C24.6934 27.6327 24.7776 27.8362 24.9277 27.9862C25.0777 28.1362 25.2812 28.2205 25.4934 28.2205Z" fill="black"/>
</g>
<defs>
<clipPath id="clip0_732_971">
<rect width="32" height="32" fill="white" transform="translate(0 0.5)"/>
</clipPath>
</defs>
</svg>
