<svg width="32" height="33" viewBox="0 0 32 33" fill="none" xmlns="http://www.w3.org/2000/svg">
<g clip-path="url(#clip0_732_1275)">
<path d="M8.58875 13.62C7.69215 13.62 6.81567 13.8859 6.07017 14.384C5.32467 14.8821 4.74362 15.5901 4.4005 16.4185C4.05738 17.2469 3.96761 18.1584 4.14253 19.0377C4.31745 19.9171 4.74921 20.7249 5.3832 21.3589C6.0172 21.9929 6.82496 22.4246 7.70434 22.5996C8.58373 22.7745 9.49523 22.6847 10.3236 22.3416C11.1519 21.9985 11.86 21.4174 12.3581 20.6719C12.8562 19.9264 13.1221 19.0499 13.1221 18.1533C13.121 16.9514 12.643 15.7989 11.7931 14.949C10.9431 14.0991 9.79072 13.6211 8.58875 13.62ZM8.58875 21.0867C8.0086 21.0867 7.44147 20.9146 6.95908 20.5923C6.4767 20.27 6.10073 19.8119 5.87871 19.2759C5.65669 18.7399 5.5986 18.1501 5.71178 17.5811C5.82497 17.0121 6.10434 16.4894 6.51457 16.0791C6.92481 15.6689 7.44748 15.3895 8.01649 15.2764C8.5855 15.1632 9.1753 15.2213 9.71129 15.4433C10.2473 15.6653 10.7054 16.0413 11.0277 16.5237C11.35 17.006 11.5221 17.5732 11.5221 18.1533C11.5215 18.9311 11.2123 19.6769 10.6623 20.2269C10.1123 20.7769 9.36655 21.0861 8.58875 21.0867Z" fill="black"/>
<path d="M17.8954 18.1501C17.1179 18.1497 16.3577 18.3799 15.711 18.8116C15.0643 19.2433 14.5602 19.8571 14.2624 20.5754C13.9646 21.2936 13.8865 22.0841 14.038 22.8467C14.1895 23.6094 14.5638 24.31 15.1135 24.8598C15.6633 25.4097 16.3637 25.7842 17.1263 25.9359C17.889 26.0876 18.6794 26.0098 19.3978 25.7122C20.1161 25.4146 20.73 24.9106 21.1619 24.264C21.5938 23.6174 21.8242 22.8573 21.824 22.0797C21.8226 21.0382 21.4083 20.0396 20.6718 19.303C19.9354 18.5664 18.937 18.1518 17.8954 18.1501ZM17.8954 24.4104C17.4344 24.4108 16.9836 24.2745 16.6 24.0187C16.2165 23.7628 15.9174 23.399 15.7407 22.9731C15.5639 22.5473 15.5175 22.0786 15.6072 21.6264C15.6969 21.1741 15.9187 20.7586 16.2445 20.4325C16.5704 20.1063 16.9857 19.8841 17.4378 19.794C17.89 19.7039 18.3587 19.7499 18.7847 19.9263C19.2107 20.1026 19.5749 20.4014 19.831 20.7847C20.0872 21.168 20.224 21.6187 20.224 22.0797C20.2231 22.6972 19.9776 23.2892 19.5412 23.7261C19.1047 24.1629 18.5129 24.409 17.8954 24.4104Z" fill="black"/>
<path d="M17.8955 15.9037C18.6273 15.9037 19.3428 15.6867 19.9513 15.28C20.5599 14.8734 21.0341 14.2954 21.3142 13.6192C21.5942 12.943 21.6674 12.199 21.5245 11.4812C21.3817 10.7634 21.0292 10.104 20.5116 9.58658C19.994 9.06913 19.3345 8.7168 18.6167 8.57415C17.8988 8.43149 17.1548 8.50492 16.4787 8.78515C15.8026 9.06538 15.2247 9.53981 14.8183 10.1485C14.4118 10.7571 14.195 11.4726 14.1952 12.2045C14.196 13.1855 14.5862 14.1261 15.28 14.8197C15.9738 15.5133 16.9144 15.9031 17.8955 15.9037ZM17.8955 10.1042C18.3109 10.1042 18.7169 10.2274 19.0623 10.4582C19.4077 10.689 19.6769 11.017 19.8359 11.4008C19.9948 11.7845 20.0364 12.2068 19.9554 12.6143C19.8743 13.0217 19.6743 13.3959 19.3806 13.6896C19.0868 13.9833 18.7126 14.1834 18.3052 14.2644C17.8978 14.3455 17.4755 14.3039 17.0917 14.1449C16.7079 13.9859 16.3799 13.7167 16.1491 13.3714C15.9184 13.026 15.7952 12.6199 15.7952 12.2045C15.7948 11.9284 15.8488 11.6549 15.9541 11.3996C16.0595 11.1444 16.2141 10.9124 16.4091 10.717C16.6042 10.5215 16.8359 10.3664 17.0909 10.2605C17.3459 10.1547 17.6193 10.1001 17.8955 10.1V10.1042Z" fill="black"/>
<path d="M28.6528 1.75547C28.4782 1.5382 28.257 1.36292 28.0055 1.24256C27.7541 1.12219 27.4788 1.0598 27.2 1.06C26.9215 1.05968 26.6465 1.12191 26.3952 1.2421C26.1439 1.36228 25.9229 1.53736 25.7483 1.7544C24.9699 2.70442 24.2635 3.71132 23.6353 4.76667C21.5654 3.1624 19.1003 2.14768 16.501 1.82997C13.9016 1.51225 11.2646 1.90335 8.86938 2.96187C8.42645 3.16693 8.06675 3.51699 7.84973 3.95418C7.6327 4.39137 7.57135 4.88953 7.67581 5.36632C7.78027 5.84311 8.04429 6.26998 8.42423 6.57639C8.80417 6.88279 9.27729 7.05038 9.76538 7.05147H9.77818C9.99992 7.05147 10.2195 7.09514 10.4244 7.18C10.6292 7.26485 10.8154 7.38923 10.9722 7.54603C11.129 7.70282 11.2533 7.88896 11.3382 8.09382C11.423 8.29869 11.4667 8.51826 11.4667 8.74C11.4667 8.96174 11.423 9.18131 11.3382 9.38617C11.2533 9.59103 11.129 9.77718 10.9722 9.93397C10.8154 10.0908 10.6292 10.2151 10.4244 10.3C10.2195 10.3849 9.99992 10.4285 9.77818 10.4285H4.87685C3.7812 10.4313 2.72339 10.8296 1.89809 11.5503C1.07278 12.2709 0.535503 13.2654 0.385117 14.3507C0.0526893 16.9009 0.405671 19.4936 1.40775 21.8621C2.40983 24.2307 4.02482 26.2895 6.08658 27.8268C8.14835 29.364 10.5824 30.3243 13.1385 30.6087C15.6945 30.8931 18.2801 30.4915 20.6294 29.4451C22.081 28.8021 23.4149 27.9209 24.576 26.8381L25.0027 30.0125C25.0734 30.5464 25.3356 31.0364 25.7406 31.3913C26.1456 31.7463 26.6658 31.9419 27.2043 31.9419C27.7428 31.9419 28.263 31.7463 28.668 31.3913C29.073 31.0364 29.3353 30.5464 29.4059 30.0125L31.392 15.1208C31.407 15.0141 31.4006 14.8989 31.4112 14.788C31.4248 14.7438 31.4341 14.6985 31.439 14.6525C31.439 14.6259 31.4262 14.6035 31.424 14.5779C31.5312 13.1231 31.2861 11.6639 30.7094 10.324C31.3677 9.52795 31.7296 8.52821 31.7334 7.4952C31.7334 6.20773 30.6966 4.27707 28.6528 1.75547ZM29.4486 11.4291C29.7188 12.2086 29.8579 13.0275 29.8603 13.8525H24.5398C24.542 13.0274 24.6815 12.2084 24.9526 11.4291C25.1242 11.5274 25.3024 11.6136 25.4859 11.6872C25.5414 11.7096 25.6011 11.7224 25.6576 11.7437C25.8214 11.8027 25.9885 11.8522 26.1579 11.892C26.2827 11.9219 26.4075 11.9453 26.5355 11.9645C26.6422 11.9795 26.7403 11.9859 26.8438 11.9944C26.9643 12.004 27.0816 12.0285 27.2032 12.0285C27.3249 12.0285 27.4432 12.004 27.5638 11.9944C27.6704 11.9859 27.7675 11.9795 27.8689 11.9645C27.9969 11.9453 28.1216 11.9219 28.2475 11.892C28.4192 11.8519 28.5884 11.8017 28.7542 11.7416C28.8086 11.7213 28.8608 11.7096 28.9174 11.6883C29.1 11.6136 29.2774 11.527 29.4486 11.4291ZM26.9953 2.76133C27.0199 2.72945 27.0515 2.70364 27.0876 2.68588C27.1238 2.66812 27.1635 2.65889 27.2038 2.65889C27.2441 2.65889 27.2838 2.66812 27.32 2.68588C27.3561 2.70364 27.3877 2.72945 27.4123 2.76133C29.119 4.86373 30.1366 6.63333 30.1366 7.49307C30.1361 7.88825 30.0552 8.2792 29.8988 8.64211C29.7423 9.00502 29.5137 9.33229 29.2267 9.604C28.9548 9.86459 28.6335 10.0681 28.2816 10.2024C27.9346 10.3346 27.5661 10.4018 27.1947 10.4008C26.811 10.4046 26.4304 10.3322 26.0749 10.1878C25.7194 10.0434 25.3961 9.82992 25.1238 9.55964C24.8514 9.28937 24.6354 8.96772 24.4883 8.61334C24.3412 8.25896 24.2659 7.8789 24.2667 7.4952C24.3005 7.09156 24.4167 6.69913 24.608 6.34213C25.2655 5.06265 26.0652 3.86145 26.9921 2.76133H26.9953ZM19.9819 27.9827C17.8925 28.9102 15.5939 29.2652 13.322 29.0112C11.05 28.7572 8.88658 27.9034 7.05351 26.5374C5.22044 25.1714 3.78376 23.3424 2.89083 21.2379C1.99791 19.1334 1.6809 16.8293 1.97232 14.5619C2.07426 13.8558 2.42812 13.2104 2.96861 12.7448C3.5091 12.2792 4.19974 12.0248 4.91312 12.0285H9.77818C10.6504 12.0285 11.4868 11.6821 12.1035 11.0653C12.7202 10.4486 13.0667 9.61217 13.0667 8.74C13.0667 7.86783 12.7202 7.03137 12.1035 6.41465C11.4868 5.79793 10.6504 5.45147 9.77818 5.45147C9.65511 5.45186 9.53553 5.41051 9.43899 5.33417C9.34245 5.25783 9.27465 5.151 9.24667 5.03115C9.21869 4.9113 9.23218 4.78549 9.28493 4.6743C9.33768 4.5631 9.42659 4.47307 9.53712 4.41893C11.7185 3.45766 14.1233 3.11895 16.4853 3.44032C18.8473 3.76169 21.0743 4.7306 22.9195 6.23973C22.9099 6.26747 22.9067 6.29093 22.8982 6.3176C22.841 6.48158 22.7929 6.64859 22.7542 6.81787C22.7435 6.87013 22.7318 6.92453 22.7222 6.97147C22.6883 7.14407 22.6697 7.31933 22.6667 7.4952C22.6708 8.52833 23.0331 9.52805 23.6918 10.324C23.0347 11.8329 22.7999 13.492 23.0123 15.124L24.3051 24.82C23.1048 26.169 21.6311 27.2471 19.9819 27.9827ZM27.8155 29.796C27.7949 29.9447 27.7212 30.081 27.608 30.1797C27.4948 30.2783 27.3497 30.3326 27.1995 30.3326C27.0493 30.3326 26.9043 30.2783 26.791 30.1797C26.6778 30.081 26.6041 29.9447 26.5835 29.796L24.671 15.4525H29.7302L27.8155 29.796Z" fill="black"/>
</g>
<defs>
<clipPath id="clip0_732_1275">
<rect width="32" height="32" fill="white" transform="translate(0 0.5)"/>
</clipPath>
</defs>
</svg>
