<svg width="32" height="33" viewBox="0 0 32 33" fill="none" xmlns="http://www.w3.org/2000/svg">
<g clip-path="url(#clip0_379_1099)">
<path d="M5.33339 32.2333H26.6667C28.01 32.2316 29.2977 31.6973 30.2475 30.7475C31.1973 29.7976 31.7317 28.5099 31.7334 27.1667V5.83333C31.7317 4.49009 31.1973 3.20234 30.2475 2.25253C29.2977 1.30271 28.01 0.768356 26.6667 0.766663H5.33339C3.99015 0.768356 2.7024 1.30271 1.75259 2.25253C0.802769 3.20234 0.268417 4.49009 0.266724 5.83333V27.1667C0.268417 28.5099 0.802769 29.7976 1.75259 30.7475C2.7024 31.6973 3.99015 32.2316 5.33339 32.2333ZM1.86672 5.83333C1.86785 4.91426 2.23345 4.03315 2.88333 3.38327C3.53322 2.73339 4.41432 2.36779 5.33339 2.36666H26.6667C27.5858 2.36779 28.4669 2.73339 29.1168 3.38327C29.7667 4.03315 30.1323 4.91426 30.1334 5.83333V8.23333H1.86672V5.83333ZM1.86672 9.83333H30.1334V27.1667C30.1323 28.0857 29.7667 28.9668 29.1168 29.6167C28.4669 30.2666 27.5858 30.6322 26.6667 30.6333H5.33339C4.41432 30.6322 3.53322 30.2666 2.88333 29.6167C2.23345 28.9668 1.86785 28.0857 1.86672 27.1667V9.83333Z" fill="#181C24"/>
<path d="M6.06837 4.09363C5.82981 4.09384 5.59667 4.16477 5.39842 4.29746C5.20017 4.43015 5.04571 4.61864 4.95456 4.8391C4.86342 5.05956 4.83968 5.30209 4.88635 5.53604C4.93302 5.76999 5.048 5.98485 5.21676 6.15346C5.38552 6.32207 5.60048 6.43686 5.83447 6.48333C6.06846 6.52979 6.31097 6.50584 6.53135 6.41449C6.75173 6.32315 6.94008 6.16853 7.0726 5.97016C7.20511 5.77179 7.27584 5.53859 7.27584 5.30003C7.27584 5.14151 7.2446 4.98455 7.1839 4.83811C7.12321 4.69168 7.03425 4.55864 6.92211 4.4466C6.80998 4.33456 6.67686 4.24572 6.53037 4.18515C6.38388 4.12459 6.22689 4.09349 6.06837 4.09363Z" fill="#181C24"/>
<path d="M11.6139 5.30002C11.6141 5.06112 11.5435 4.82752 11.4109 4.62879C11.2783 4.43006 11.0897 4.27513 10.869 4.18361C10.6483 4.09209 10.4055 4.06809 10.1711 4.11464C9.93681 4.1612 9.72157 4.27622 9.55263 4.44515C9.3837 4.61408 9.26868 4.82933 9.22212 5.06366C9.17557 5.29798 9.19957 5.54085 9.29109 5.76153C9.38262 5.98221 9.53754 6.17078 9.73627 6.30337C9.935 6.43597 10.1686 6.50664 10.4075 6.50643C10.5659 6.50643 10.7228 6.47522 10.8692 6.41459C11.0155 6.35397 11.1485 6.2651 11.2606 6.15308C11.3726 6.04105 11.4614 5.90806 11.5221 5.76169C11.5827 5.61533 11.6139 5.45845 11.6139 5.30002Z" fill="#181C24"/>
<path d="M19.4133 6.1H27.137C27.3492 6.1 27.5527 6.01571 27.7027 5.86569C27.8527 5.71566 27.937 5.51217 27.937 5.3C27.937 5.08783 27.8527 4.88434 27.7027 4.73431C27.5527 4.58429 27.3492 4.5 27.137 4.5H19.4133C19.2011 4.5 18.9976 4.58429 18.8476 4.73431C18.6976 4.88434 18.6133 5.08783 18.6133 5.3C18.6133 5.51217 18.6976 5.71566 18.8476 5.86569C18.9976 6.01571 19.2011 6.1 19.4133 6.1Z" fill="#181C24"/>
<path d="M11.0442 24.4221C11.1947 24.5682 11.3966 24.6494 11.6064 24.6481C11.8162 24.6468 12.0171 24.5631 12.1658 24.4151C12.3145 24.2671 12.3991 24.0666 12.4014 23.8569C12.4037 23.6471 12.3235 23.4448 12.1781 23.2936L9.3162 20.4221C9.26689 20.3719 9.23926 20.3043 9.23926 20.2338C9.23926 20.1634 9.26689 20.0958 9.3162 20.0456L12.1781 17.173C12.3235 17.0218 12.4037 16.8195 12.4014 16.6098C12.3991 16.4 12.3145 16.1995 12.1658 16.0515C12.0171 15.9035 11.8162 15.8199 11.6064 15.8186C11.3966 15.8172 11.1947 15.8984 11.0442 16.0445L8.1834 18.916C7.83544 19.2661 7.64014 19.7397 7.64014 20.2333C7.64014 20.7269 7.83544 21.2005 8.1834 21.5506L11.0442 24.4221Z" fill="#181C24"/>
<path d="M19.822 23.2936C19.7458 23.3676 19.6851 23.456 19.6434 23.5537C19.6017 23.6514 19.5799 23.7564 19.5792 23.8626C19.5786 23.9688 19.5991 24.0741 19.6395 24.1723C19.68 24.2705 19.7396 24.3597 19.8149 24.4346C19.8902 24.5096 19.9796 24.5687 20.078 24.6087C20.1764 24.6487 20.2818 24.6687 20.388 24.6676C20.4942 24.6664 20.5991 24.6441 20.6966 24.602C20.7941 24.5598 20.8823 24.4987 20.9559 24.4221L23.8167 21.5506C24.1646 21.2005 24.3599 20.7269 24.3599 20.2333C24.3599 19.7397 24.1646 19.2661 23.8167 18.916L20.9559 16.0445C20.8053 15.8984 20.6034 15.8172 20.3937 15.8186C20.1839 15.8199 19.983 15.9035 19.8343 16.0515C19.6856 16.1995 19.601 16.4 19.5987 16.6098C19.5964 16.8195 19.6766 17.0218 19.822 17.173L22.6839 20.0456C22.7332 20.0958 22.7608 20.1634 22.7608 20.2338C22.7608 20.3043 22.7332 20.3719 22.6839 20.4221L19.822 23.2936Z" fill="#181C24"/>
<path d="M14.4671 26.3624C14.531 26.378 14.5965 26.3859 14.6623 26.3859C14.8406 26.3857 15.0137 26.3261 15.1542 26.2163C15.2947 26.1065 15.3945 25.953 15.4377 25.78L18.114 15.076C18.1656 14.8702 18.1334 14.6523 18.0244 14.4703C17.9154 14.2882 17.7385 14.157 17.5327 14.1053C17.3269 14.0537 17.109 14.086 16.927 14.195C16.7449 14.304 16.6136 14.4809 16.562 14.6867L13.8857 25.3917C13.8602 25.4937 13.8549 25.5996 13.8703 25.7035C13.8857 25.8075 13.9214 25.9074 13.9754 25.9975C14.0294 26.0876 14.1006 26.1662 14.1849 26.2289C14.2693 26.2915 14.3652 26.3369 14.4671 26.3624Z" fill="#181C24"/>
</g>
<defs>
<clipPath id="clip0_379_1099">
<rect width="32" height="32" fill="white" transform="translate(0 0.5)"/>
</clipPath>
</defs>
</svg>
