<svg xmlns="http://www.w3.org/2000/svg" width="207.765" height="198.056" viewBox="0 0 207.765 198.056">
  <g id="Arrow" transform="translate(67.261 198.056) rotate(-130)" opacity="0.3">
    <path id="Path_72" data-name="Path 72" d="M103.775.437A78.265,78.265,0,0,0,46.341,17.746C35.286,26.783,29.3,39.194,34.133,51.493,15.9,62.317,4.147,82.45,13.893,104.562a35.432,35.432,0,0,0,5.778,8.963c-.237.343-.465.681-.681,1.015C7.254,132.7,7.838,154.682,15.073,174.246q-6.189-4.67-12.381-9.338c-1.846-1.394-3.485,1.436-2.278,2.952,2.95,3.71,10.6,16.734,16.729,15.469,5.842-1.206,10.268-14.392,12.8-18.8,1.22-2.117-2.056-4.031-3.274-1.912-1.485,2.582-4.236,9.251-7.127,12.961-6.353-15.405-8.568-32.717-2.65-48.668A55.282,55.282,0,0,1,22.34,116.3c8.392,7.838,20.35,11.939,31.617,8.638C66.021,121.4,76.534,104.792,63.7,95.287c-13.572-10.055-32.446,3.7-41.817,15.3-11.713-14.206-8.547-35.754,3.782-48.718A45.523,45.523,0,0,1,35.371,54.2a32.111,32.111,0,0,0,3.744,5.556C48.276,70.8,72.059,80.918,85.779,72.729,99.725,64.4,88.522,48.5,77.063,45.067c-13-3.9-27.734-1.6-40.045,4.822a21.481,21.481,0,0,1,.135-16.446C40.592,25.256,49,18.793,56.343,14.229,70.782,5.255,86.94,1.922,103.775,2.235c1.182.023,1.123-1.675,0-1.8M54.687,96.21c14,2.259,13.373,17.125,3.255,23.142a24.5,24.5,0,0,1-13.075,3.1c-7.656-.256-15-3.86-20.473-9.139,7.462-10.179,18.614-18.995,30.293-17.108M74.5,48.117a23.746,23.746,0,0,1,7.263,2.718q11.291,6.649,2.314,18.98C80.9,71.983,76.02,72.052,72.4,71.832a50.487,50.487,0,0,1-23.808-8.009,31.53,31.53,0,0,1-10.34-11.214c11.08-5.668,24.5-7.5,36.251-4.492" transform="translate(0 0)" fill="#283042"/>
  </g>
</svg>
