<svg id="digital_marketing_color" xmlns="http://www.w3.org/2000/svg" width="40" height="40" viewBox="0 0 40 40">
  <rect id="Rectangle_262" data-name="Rectangle 262" width="40" height="40" fill="none"/>
  <g id="Vocal" transform="translate(0.063 2.055)">
    <path id="Path_533" data-name="Path 533" d="M28.252,31.4c-.58-.988-1.186-2.011-1.782-3.04q-2.078-3.589-4.139-7.189a.364.364,0,0,1,.093-.339c1.07-.73,2.223-1.359,3.212-2.184a41.533,41.533,0,0,0,3.331-3.226c.77-.8,1.469-1.678,2.171-2.543.747-.921,1.461-1.869,2.191-2.8.083-.107.178-.206.289-.334L43.668,27.15c-.359.077-.678.163-1,.208-1.233.17-2.478.271-3.7.5-1.742.327-3.477.7-5.195,1.14a18.333,18.333,0,0,0-2.826,1c-.917.4-1.784.924-2.7,1.406" transform="translate(-13.42 -5.855)" fill="#57b0af"/>
    <path id="Path_534" data-name="Path 534" d="M7.435,39.548l6.11,10.578c-.581.37-1.154.754-1.745,1.107a16.827,16.827,0,0,1-4.466,2.085,4.555,4.555,0,0,1-4.346-.826,10.71,10.71,0,0,1-2.65-4.144,4.061,4.061,0,0,1,.6-4.187,8.982,8.982,0,0,1,2.578-2.3c1.27-.8,2.58-1.531,3.917-2.318" transform="translate(0 -23.775)" fill="#57b0af"/>
    <path id="Path_535" data-name="Path 535" d="M51.367,1.353a2.861,2.861,0,0,1,4.1-.841,4.025,4.025,0,0,1,1.092,1.316q3.176,5.421,6.3,10.871c1.028,1.781,2.056,3.562,3.062,5.355a2.911,2.911,0,0,1-1.782,4.174.7.7,0,0,1-.953-.364c-1.691-3-3.443-5.97-5.168-8.953-1.252-2.165-2.493-4.337-3.741-6.5-.963-1.675-1.929-3.345-2.913-5.051" transform="translate(-30.883 0.005)" fill="#57b0af"/>
    <path id="Path_536" data-name="Path 536" d="M26.74,70.4c1.567-.9,3.128-1.8,4.683-2.706.16-.093.249-.215.394.043.675,1.2,1.406,2.371,2.057,3.584a2.44,2.44,0,0,1-.221,2.982,7.3,7.3,0,0,1-1.475,1.13A13.055,13.055,0,0,1,30.9,76.1a.569.569,0,0,1-.8-.124c-.528-.727-1.093-1.436-1.548-2.2-.644-1.089-1.2-2.227-1.808-3.365" transform="translate(-16.077 -40.633)" fill="#57b0af"/>
    <path id="Path_537" data-name="Path 537" d="M76.026,17.03A2.476,2.476,0,0,1,78.7,18.562a2.684,2.684,0,0,1-.16,2.831l-2.512-4.364" transform="translate(-45.711 -10.22)" fill="#57b0af"/>
    <path id="Path_538" data-name="Path 538" d="M89.542,12.4a.675.675,0,0,1,.776.573.709.709,0,0,1-.431.837c-.6.312-1.167.7-1.77,1.008a.7.7,0,0,1-1.129-.454.758.758,0,0,1,.136-.628A6.18,6.18,0,0,1,89.542,12.4" transform="translate(-52.29 -7.446)" fill="#57b0af"/>
    <path id="Path_539" data-name="Path 539" d="M94.585,25.543a.845.845,0,0,1-.947.835c-.716-.173-1.427-.369-2.133-.578a.729.729,0,0,1-.492-.862c.184-.554.436-.7.953-.572.67.167,1.346.316,2.014.492a.728.728,0,0,1,.605.685" transform="translate(-54.71 -14.621)" fill="#57b0af"/>
    <path id="Path_540" data-name="Path 540" d="M81.08,4.1c.065-.232.2-.691.322-1.153.057-.21.111-.421.153-.634a.758.758,0,0,1,.885-.631.691.691,0,0,1,.634.821c-.159.751-.359,1.5-.579,2.233a.854.854,0,0,1-1.015.478c-.271-.067-.408-.363-.4-1.116" transform="translate(-48.75 -1.005)" fill="#57b0af"/>
  </g>
</svg>
