<svg xmlns="http://www.w3.org/2000/svg" width="40" height="40" viewBox="0 0 40 40">
  <g id="double-quotes-l" transform="translate(-191 -6636)">
    <rect id="Rectangle_17" data-name="Rectangle 17" width="40" height="40" transform="translate(191 6636)" fill="none"/>
    <path id="Path_77" data-name="Path 77" d="M6.552,32.859C4.241,30.406,3,27.652,3,23.189,3,15.339,8.511,8.3,16.528,4.823l2,3.09c-7.482,4.048-8.944,9.3-9.529,12.61a8.04,8.04,0,0,1,4.327-.7A7.852,7.852,0,0,1,12.716,35.5,8.685,8.685,0,0,1,6.552,32.859Zm22.433,0c-2.311-2.453-3.552-5.207-3.552-9.67,0-7.85,5.511-14.888,13.528-18.366l2,3.09c-7.482,4.048-8.944,9.3-9.529,12.61a8.041,8.041,0,0,1,4.327-.7A7.852,7.852,0,0,1,35.149,35.5,8.685,8.685,0,0,1,28.985,32.859Z" transform="translate(188 6635.836)" fill="#fff"/>
  </g>
</svg>
