<svg xmlns="http://www.w3.org/2000/svg" width="56" height="56" viewBox="0 0 56 56">
  <g id="Happy_Clients" data-name="Happy Clients" transform="translate(11845.312 17510.313)">
    <rect id="Rectangle_246" data-name="Rectangle 246" width="56" height="56" transform="translate(-11845.312 -17510.313)" fill="none"/>
    <g id="emoji_star" transform="translate(-11845.096 -17510.096)">
      <path id="Path_485" data-name="Path 485" d="M30.77,55.356A27.764,27.764,0,1,1,55.356,30.77,27.764,27.764,0,0,1,30.77,55.356M29.834,2.393A25.449,25.449,0,1,0,53.119,25.684,25.449,25.449,0,0,0,29.834,2.393" transform="translate(0.008 0.008)" fill="#2e71fe"/>
      <path id="Path_486" data-name="Path 486" d="M57.8,36.381c-.218,0-.368-.2-.4-.541-.222-2.186,1.62-3.98,3.461-4.556a5.634,5.634,0,0,1,1.7-.268,5.513,5.513,0,0,1,1.675.266c1.956.622,3.785,2.426,3.5,4.667a.485.485,0,0,1-.488.427.424.424,0,0,1-.3-.114,1.455,1.455,0,0,1-.3-.626,1.921,1.921,0,0,0-.722-1.145A5.993,5.993,0,0,0,62.6,33.426a6.285,6.285,0,0,0-2.636.62,2.824,2.824,0,0,0-1.556,1.738c-.136.412-.4.6-.611.6" transform="translate(-25.49 -13.777)" fill="#2e71fe"/>
      <path id="Path_487" data-name="Path 487" d="M33.739,36.4a.567.567,0,0,1-.376-.2c-.4-1.714-1.959-2.723-4.2-2.723a6.527,6.527,0,0,0-2.523.486,2.872,2.872,0,0,0-1.731,1.889.606.606,0,0,1-.583.527.389.389,0,0,1-.4-.378,3.828,3.828,0,0,1,.961-3.1,5.7,5.7,0,0,1,4.133-1.866,5.445,5.445,0,0,1,4.822,2.8c.333.588.718,2.139.1,2.5a.406.406,0,0,1-.2.061" transform="translate(-10.612 -13.788)" fill="#2e71fe"/>
      <path id="Path_488" data-name="Path 488" d="M37.961,70.7A15.669,15.669,0,0,1,27.8,66.94a16.679,16.679,0,0,1-4.223-5.594,4.1,4.1,0,0,1,.772-5.143,4.856,4.856,0,0,1,3.535-1.1q6.271-.029,12.54-.03,4.148,0,8.294.013a4.373,4.373,0,0,1,3.122,1.31,3.945,3.945,0,0,1,1.126,2.885,7.547,7.547,0,0,1-1.106,3.195,15.912,15.912,0,0,1-13.9,8.23m-.078-7.215a7.672,7.672,0,0,0-6,2.764.46.46,0,0,0,.056.646l.094.061a13.577,13.577,0,0,0,11.9.005.426.426,0,0,0,.207-.563,4.223,4.223,0,0,0-.937-1.046,8.613,8.613,0,0,0-5.331-1.866M38,61.154a10.383,10.383,0,0,1,8.085,3.9.445.445,0,0,0,.351.176h.1l.193-.111c.851-.71,4.539-4.685,3.834-6.641-.259-.718-1-1.084-2.195-1.086q-3.96-.012-7.921-.012-6.5,0-12.992.032a1.971,1.971,0,0,0-1.79.8,2.266,2.266,0,0,0,.028,2.167,13.118,13.118,0,0,0,3.551,4.736l.074.062.214.049a.445.445,0,0,0,.357-.174A10.464,10.464,0,0,1,38,61.154" transform="translate(-10.222 -24.466)" fill="#2e71fe"/>
    </g>
  </g>
</svg>
