<svg width="41" height="40" viewBox="0 0 41 40" fill="none" xmlns="http://www.w3.org/2000/svg">
<g clip-path="url(#clip0_142_645)">
<path d="M21.7857 26.5991C22.3229 26.5991 22.7404 27.0788 22.6532 27.6089C22.1713 30.5412 19.625 32.7781 16.5563 32.7781C13.4876 32.7781 10.9414 30.5411 10.4594 27.6089C10.3723 27.0788 10.7897 26.5991 11.3269 26.5991H21.7857Z" fill="#181C24"/>
<path d="M33.7945 5.2832C32.6244 4.11312 30.7273 4.11312 29.5572 5.2832C28.3871 4.11312 26.49 4.11312 25.3199 5.2832C24.1499 6.45328 24.1499 8.35039 25.3199 9.52046L28.8006 13.0012C29.2185 13.4191 29.896 13.4191 30.3138 13.0012L33.7945 9.52046C34.9646 8.35039 34.9646 6.45335 33.7945 5.2832Z" fill="#181C24"/>
<path d="M30.8538 19.5608C31.3263 21.02 31.5816 22.577 31.5816 24.1936C31.5816 32.4917 24.8546 39.2188 16.5564 39.2188C8.2582 39.2188 1.53125 32.4917 1.53125 24.1936C1.53125 15.8955 8.25828 9.16846 16.5564 9.16846C17.3559 9.16846 18.1409 9.23088 18.9066 9.35119" stroke="#181C24" stroke-width="1.5625" stroke-miterlimit="10" stroke-linecap="round" stroke-linejoin="round"/>
<path d="M11.2271 20.2061L11.2557 21.4003" stroke="#181C24" stroke-width="1.5625" stroke-miterlimit="10" stroke-linecap="round" stroke-linejoin="round"/>
<path d="M21.8857 20.2061L21.8571 21.4003" stroke="#181C24" stroke-width="1.5625" stroke-miterlimit="10" stroke-linecap="round" stroke-linejoin="round"/>
<path d="M35.8137 0.78125H23.3007C21.0059 0.78125 19.1456 2.64156 19.1456 4.93633V12.8523C19.1456 15.147 21.0059 17.0073 23.3007 17.0073H28.5566C28.7847 18.2941 28.4798 19.4622 27.9721 20.5296C29.9383 20.5296 32.0489 18.9735 32.0489 17.0073H35.8137C38.1084 17.0073 39.9688 15.147 39.9688 12.8523V4.93633C39.9688 2.64156 38.1084 0.78125 35.8137 0.78125Z" stroke="#181C24" stroke-width="1.5625" stroke-miterlimit="10" stroke-linecap="round" stroke-linejoin="round"/>
</g>
<defs>
<clipPath id="clip0_142_645">
<rect width="40" height="40" fill="white" transform="translate(0.75)"/>
</clipPath>
</defs>
</svg>
