<svg width="20" height="20" viewBox="0 0 20 20" fill="none" xmlns="http://www.w3.org/2000/svg">
<path d="M3.07566 5.2435C4.24483 3.976 6.01399 3.3335 8.33316 3.3335H9.16649V5.68266L8.49649 5.81683C7.35483 6.04516 6.56066 6.49433 6.13566 7.1535C5.91391 7.5086 5.78814 7.9152 5.77066 8.3335H8.33316C8.55418 8.3335 8.76614 8.42129 8.92242 8.57757C9.0787 8.73385 9.16649 8.94582 9.16649 9.16683V15.0002C9.16649 15.9193 8.419 16.6668 7.49983 16.6668H2.49983C2.27881 16.6668 2.06685 16.579 1.91057 16.4228C1.75429 16.2665 1.66649 16.0545 1.66649 15.8335V11.6668L1.66899 9.23433C1.66149 9.14183 1.50316 6.95016 3.07566 5.2435ZM16.6665 16.6668H11.6665C11.4455 16.6668 11.2335 16.579 11.0772 16.4228C10.921 16.2665 10.8332 16.0545 10.8332 15.8335V11.6668L10.8357 9.23433C10.8282 9.14183 10.6698 6.95016 12.2423 5.2435C13.4115 3.976 15.1807 3.3335 17.4998 3.3335H18.3332V5.68266L17.6632 5.81683C16.5215 6.04516 15.7273 6.49433 15.3023 7.1535C15.0806 7.5086 14.9548 7.9152 14.9373 8.3335H17.4998C17.7208 8.3335 17.9328 8.42129 18.0891 8.57757C18.2454 8.73385 18.3332 8.94582 18.3332 9.16683V15.0002C18.3332 15.9193 17.5857 16.6668 16.6665 16.6668Z" fill="white"/>
</svg>
