<svg xmlns="http://www.w3.org/2000/svg" width="80" height="80" viewBox="0 0 80 80">
  <g id="iOS" transform="translate(12108.994 10024.161)">
    <rect id="Rectangle_12" data-name="Rectangle 12" width="80" height="80" transform="translate(-12108.994 -10024.161)" fill="none"/>
    <path id="apple-black-logo-svgrepo-com" d="M54.155,42.307A17.6,17.6,0,0,0,64.843,58.42a43.582,43.582,0,0,1-5.511,11.326c-3.319,4.851-6.764,9.685-12.191,9.785-5.332.1-7.047-3.162-13.143-3.162s-8,3.062-13.047,3.26c-5.238.2-9.227-5.246-12.574-10.079C1.539,59.663-3.687,41.612,3.33,29.427a19.494,19.494,0,0,1,16.478-9.981c5.144-.1,10,3.46,13.143,3.46s9.042-4.28,15.245-3.651a18.6,18.6,0,0,1,14.565,7.9c-.377.234-8.7,5.077-8.606,15.152M44.133,12.715A17.54,17.54,0,0,0,48.275,0C44.267.161,39.42,2.671,36.545,6.036c-2.577,2.979-4.833,7.748-4.224,12.318,4.468.346,9.032-2.27,11.813-5.639" transform="translate(-12101.415 -10023.957)" fill="#283042"/>
  </g>
</svg>
