<?xml version="1.0" encoding="UTF-8"?>
<svg xmlns="http://www.w3.org/2000/svg" xmlns:xlink="http://www.w3.org/1999/xlink" width="80px" height="80px" viewBox="0 0 80 80" version="1.1">
<g id="surface1">
<path style=" stroke:none;fill-rule:nonzero;fill:rgb(0%,0%,0%);fill-opacity:1;" d="M 37.378906 0.0234375 C 37.207031 0.0390625 36.660156 0.09375 36.167969 0.132812 C 24.804688 1.15625 14.164062 7.285156 7.421875 16.707031 C 3.667969 21.945312 1.265625 27.886719 0.359375 34.183594 C 0.0390625 36.378906 0 37.027344 0 40.007812 C 0 42.988281 0.0390625 43.636719 0.359375 45.832031 C 2.535156 60.851562 13.222656 73.472656 27.722656 78.148438 C 30.320312 78.984375 33.054688 79.554688 36.167969 79.898438 C 37.378906 80.035156 42.621094 80.035156 43.832031 79.898438 C 49.203125 79.304688 53.753906 77.976562 58.246094 75.6875 C 58.933594 75.335938 59.066406 75.238281 58.972656 75.160156 C 58.910156 75.113281 55.976562 71.183594 52.457031 66.429688 L 46.0625 57.789062 L 38.046875 45.925781 C 33.632812 39.40625 30.007812 34.074219 29.972656 34.074219 C 29.941406 34.066406 29.910156 39.335938 29.894531 45.769531 C 29.871094 57.039062 29.863281 57.492188 29.722656 57.757812 C 29.519531 58.140625 29.363281 58.296875 29.035156 58.46875 C 28.785156 58.59375 28.566406 58.617188 27.386719 58.617188 L 26.035156 58.617188 L 25.671875 58.390625 C 25.4375 58.242188 25.265625 58.046875 25.148438 57.820312 L 24.984375 57.46875 L 25 41.789062 L 25.023438 26.105469 L 25.265625 25.800781 C 25.390625 25.636719 25.65625 25.425781 25.84375 25.324219 C 26.167969 25.167969 26.292969 25.152344 27.644531 25.152344 C 29.238281 25.152344 29.503906 25.214844 29.917969 25.667969 C 30.039062 25.792969 34.378906 32.328125 39.570312 40.203125 C 44.761719 48.078125 51.863281 58.828125 55.351562 64.105469 L 61.683594 73.699219 L 62.007812 73.488281 C 64.84375 71.644531 67.847656 69.015625 70.226562 66.28125 C 75.285156 60.46875 78.546875 53.386719 79.640625 45.832031 C 79.960938 43.636719 80 42.988281 80 40.007812 C 80 37.027344 79.960938 36.378906 79.640625 34.183594 C 77.464844 19.164062 66.777344 6.542969 52.277344 1.867188 C 49.71875 1.039062 47 0.46875 43.949219 0.125 C 43.199219 0.046875 38.03125 -0.0429688 37.378906 0.0234375 Z M 53.753906 24.214844 C 54.132812 24.402344 54.4375 24.761719 54.546875 25.136719 C 54.609375 25.339844 54.625 29.6875 54.609375 39.484375 L 54.585938 53.542969 L 52.105469 49.742188 L 49.617188 45.941406 L 49.617188 35.722656 C 49.617188 29.117188 49.648438 25.402344 49.695312 25.222656 C 49.820312 24.785156 50.097656 24.441406 50.472656 24.238281 C 50.792969 24.074219 50.910156 24.058594 52.136719 24.058594 C 53.292969 24.058594 53.496094 24.074219 53.753906 24.214844 Z M 53.753906 24.214844 "/>
</g>
</svg>
