<svg xmlns="http://www.w3.org/2000/svg" width="56" height="56" viewBox="0 0 56 56">
  <g id="Projects_Done" data-name="Projects Done" transform="translate(12091.198 17498.199)">
    <rect id="Rectangle_243" data-name="Rectangle 243" width="56" height="56" transform="translate(-12091.198 -17498.199)" fill="none"/>
    <g id="diamond" transform="translate(-12091 -17495.221)">
      <path id="Path_423" data-name="Path 423" d="M36.338,8.639C35.448,7.222,33.987,7.164,32.2,6.9a.741.741,0,0,1-.351-1.3,1.341,1.341,0,0,1,.6-.209,11.942,11.942,0,0,0,2.493-.513c1.873-.808,1.842-2.464,2.21-4.251a.742.742,0,0,1,1.476.093,8.575,8.575,0,0,0,.767,2.969c.949,1.49,2.618,1.49,4.221,1.756a.739.739,0,0,1,.226,1.315,1.653,1.653,0,0,1-.625.182c-1.645.239-2.961.349-3.827,1.724-.021.033-.012.049.028.049q3.36-.036,6.71.006a1.05,1.05,0,0,1,.815.453q4.2,4.494,8.378,9a.784.784,0,0,1,.041,1.176Q41.9,34.58,28.4,49.775c-.452.508-.974.213-1.357-.219Q19.711,41.31,12.337,33q-.148-.167-.188.049-.167.862-.313,1.809c-.088.563-.315,1.056-.977.909a.772.772,0,0,1-.6-.757A10.247,10.247,0,0,0,9.7,32.453c-.787-1.689-2.4-1.779-4.064-2.044-1.171-.185-1.187-1.4-.106-1.54a8.646,8.646,0,0,0,2.58-.525q.068-.038.016-.1Q4.153,23.784.2,19.313C-.159,18.9.011,18.5.358,18.126q4.186-4.509,8.387-9.008c.43-.46.667-.389,1.38-.4,2.879-.038,5.757.031,8.631.013q5.616-.038,11.232-.023a.075.075,0,0,1,.038.016.056.056,0,0,0,.038.013L36.3,8.7q.071,0,.035-.059M37.83,4.148a4.622,4.622,0,0,1-1.981,1.959q-.09.048,0,.1a4.68,4.68,0,0,1,1.966,1.933q.052.1.1,0A4.633,4.633,0,0,1,39.912,6.2q.087-.044,0-.088A4.665,4.665,0,0,1,37.9,4.151q-.035-.062-.068,0M16.919,17.688a.044.044,0,0,0,.061.007h0L25.7,10.273a.042.042,0,0,0,.006-.06.044.044,0,0,0-.033-.015H11.084a.043.043,0,0,0-.043.043.042.042,0,0,0,.009.026Zm21.8-.006,5.86-7.421a.039.039,0,0,0-.006-.056.037.037,0,0,0-.025-.008H38.973a.087.087,0,0,0-.094.075,6.339,6.339,0,0,1-.381,1.715.723.723,0,0,1-1.083.167c-.418-.376-.451-1.334-.538-1.865a.1.1,0,0,0-.107-.09H29.92a.03.03,0,0,0-.031.029.029.029,0,0,0,.011.023l8.745,7.435a.056.056,0,0,0,.076-.006h0m-19.795.342a.028.028,0,0,0,0,.04.029.029,0,0,0,.022.009H36.665a.04.04,0,0,0,.033-.043A.039.039,0,0,0,36.685,18l-8.832-7.517a.056.056,0,0,0-.068,0ZM9.433,10.668a.047.047,0,0,0-.065-.008l-.006.006L2.535,17.993a.044.044,0,0,0,0,.064.047.047,0,0,0,.032.012H15.2a.046.046,0,0,0,.046-.046.045.045,0,0,0-.01-.028Zm36.746.017q-2.895,3.66-5.786,7.322-.049.064.032.064H52.967q.2,0,.067-.147L46.239,10.64q-.031-.033-.052.007a.087.087,0,0,0-.009.037M10.258,24.261c.16-.962,1.377-1.056,1.526-.153.262,1.6.278,3.184,1.852,4.091a8.883,8.883,0,0,0,2.818.672c.625.1,1.141.535.739,1.193a.529.529,0,0,1-.359.278c-1.557.25-2.8.285-3.731,1.142a.066.066,0,0,0-.006.1L25.633,45.706q.136.155.067-.039L16.326,19.633a.1.1,0,0,0-.106-.074H2.521q-.1,0-.033.074l6.824,7.682a.056.056,0,0,0,.1,0,6.62,6.62,0,0,0,.85-3.051m27.431-4.646a.042.042,0,0,0-.027-.056H17.979a.043.043,0,0,0-.043.043.041.041,0,0,0,0,.014l9.836,27.332a.044.044,0,0,0,.056.024.043.043,0,0,0,.025-.024Zm1.626-.026L29.906,45.73a.027.027,0,0,0,.01.037.028.028,0,0,0,.038-.01L53.169,19.6a.026.026,0,0,0,0-.036.023.023,0,0,0-.016-.006H39.364a.048.048,0,0,0-.045.031M9.06,29.721a4.531,4.531,0,0,1,1.918,1.911q.051.1.1,0a4.711,4.711,0,0,1,1.968-1.939q.094-.051,0-.1a4.741,4.741,0,0,1-1.964-1.925q-.048-.085-.1,0a5.988,5.988,0,0,1-.96,1.223c-.252.247-.667.455-.979.723q-.077.065.012.111" transform="translate(0 0.001)" fill="#2e71fe"/>
    </g>
  </g>
</svg>
