<svg width="41" height="40" viewBox="0 0 41 40" fill="none" xmlns="http://www.w3.org/2000/svg">
<g clip-path="url(#clip0_142_675)">
<path d="M9.8442 25.748L8.96076 24.8645C8.30748 24.2112 7.89865 23.3533 7.80264 22.4345C7.7067 21.5156 7.29779 20.6577 6.64451 20.0044L5.4624 18.8223" fill="#181C24"/>
<path d="M9.8442 25.748L8.96076 24.8645C8.30748 24.2112 7.89865 23.3533 7.80264 22.4345C7.7067 21.5156 7.29779 20.6577 6.64451 20.0044L5.4624 18.8223" stroke="#181C24" stroke-width="1.5625" stroke-miterlimit="10" stroke-linecap="round" stroke-linejoin="round"/>
<path d="M20.7081 14.2524L20.401 13.9089C19.7102 13.1459 18.7183 12.726 17.6896 12.7613C16.5349 12.8008 15.4156 12.3594 14.5986 11.5425L13.6897 10.6335" fill="#181C24"/>
<path d="M20.7081 14.2524L20.401 13.9089C19.7102 13.1459 18.7183 12.726 17.6896 12.7613C16.5349 12.8008 15.4156 12.3594 14.5986 11.5425L13.6897 10.6335" stroke="#181C24" stroke-width="1.5625" stroke-miterlimit="10" stroke-linecap="round" stroke-linejoin="round"/>
<path d="M19.7041 35.6083L20.7018 36.6061C21.3731 37.2773 22.4613 37.2773 23.1325 36.6061C23.8038 35.9348 23.8038 34.8466 23.1325 34.1754L20.8401 31.8829" stroke="#181C24" stroke-width="1.5625" stroke-miterlimit="10" stroke-linecap="round" stroke-linejoin="round"/>
<path d="M20.8401 31.8828L23.1325 34.1753C23.8038 34.8465 24.892 34.8465 25.5632 34.1753C26.2345 33.504 26.2345 32.4158 25.5632 31.7446L21.5002 27.6815" stroke="#181C24" stroke-width="1.5625" stroke-miterlimit="10" stroke-linecap="round" stroke-linejoin="round"/>
<path d="M21.5002 27.6816L25.5633 31.7446C26.2345 32.4159 27.3227 32.4159 27.994 31.7446C28.6652 31.0734 28.6652 29.9852 27.994 29.3139L23.9309 25.2509" stroke="#181C24" stroke-width="1.5625" stroke-miterlimit="10" stroke-linecap="round" stroke-linejoin="round"/>
<path d="M23.9308 25.2508L27.9939 29.3138C28.6651 29.9851 29.7533 29.9851 30.4246 29.3138C31.0958 28.6426 31.0958 27.5544 30.4246 26.8831L22.1619 18.6205" stroke="#181C24" stroke-width="1.5625" stroke-miterlimit="10" stroke-linecap="round" stroke-linejoin="round"/>
<path d="M11.8588 6.51373L1.53125 16.8413L4.43782 19.7479L14.7654 9.42029L11.8588 6.51373Z" stroke="#181C24" stroke-width="1.5625" stroke-miterlimit="10" stroke-linecap="round" stroke-linejoin="round"/>
<path d="M30.5366 26.8675L32.5394 24.8647C33.1926 24.2114 33.6015 23.3535 33.6975 22.4346C33.7934 21.5158 34.2023 20.6578 34.8556 20.0046L36.0176 18.8425" stroke="#181C24" stroke-width="1.5625" stroke-miterlimit="10" stroke-linecap="round" stroke-linejoin="round"/>
<path d="M29.6407 6.51384L26.7341 9.42041L37.0617 19.748L39.9683 16.8414L29.6407 6.51384Z" stroke="#181C24" stroke-width="1.5625" stroke-miterlimit="10" stroke-linecap="round" stroke-linejoin="round"/>
<path d="M4.43782 19.6926L1.58649 16.8413L11.8588 6.56897L14.7102 9.42029L4.43782 19.6926Z" fill="#181C24" stroke="#181C24" stroke-width="0.078125"/>
<path d="M37.0617 19.6927L26.7894 9.42041L29.6407 6.56909L39.913 16.8414L37.0617 19.6927Z" fill="#181C24" stroke="#181C24" stroke-width="0.078125"/>
<path d="M27.8619 10.5819L27.0064 11.4375C26.1588 12.285 25.0092 12.7612 23.8104 12.7612C22.7818 12.726 21.7898 13.1459 21.099 13.9089L17.0494 17.9828C16.2795 18.7594 16.2644 20.0457 17.0532 20.8032C17.8193 21.5389 19.0368 21.5295 19.7913 20.775L21.9893 18.577C22.416 18.1503 23.0859 18.1151 23.5718 18.4732C24.1358 18.8889 24.8329 19.1346 25.5875 19.1346C26.7615 19.1346 27.7967 18.5398 28.408 17.635" stroke="#181C24" stroke-width="1.5625" stroke-miterlimit="10" stroke-linecap="round" stroke-linejoin="round"/>
<path d="M15.9788 27.0216C15.3075 26.3504 14.2193 26.3504 13.5481 27.0216L10.8672 29.7025C10.196 30.3737 10.196 31.4619 10.8672 32.1332C11.5385 32.8044 12.6267 32.8044 13.2979 32.1332L15.9788 29.4523C16.65 28.7811 16.65 27.6928 15.9788 27.0216Z" stroke="#181C24" stroke-width="1.5625" stroke-miterlimit="10" stroke-linecap="round" stroke-linejoin="round"/>
<path d="M18.4094 29.4522C17.7382 28.7809 16.65 28.7809 15.9787 29.4522L13.2979 32.133C12.6266 32.8043 12.6266 33.8925 13.2979 34.5637C13.9691 35.235 15.0573 35.235 15.7286 34.5637L18.4094 31.8829C19.0807 31.2117 19.0807 30.1234 18.4094 29.4522Z" stroke="#181C24" stroke-width="1.5625" stroke-miterlimit="10" stroke-linecap="round" stroke-linejoin="round"/>
<path d="M13.5481 24.5908C12.8769 23.9196 11.7887 23.9196 11.1174 24.5908L9.29641 26.4119C8.62516 27.083 8.62516 28.1713 9.29641 28.8426C9.96766 29.5138 11.0559 29.5138 11.7271 28.8426L13.5481 27.0215C14.2193 26.3503 14.2193 25.2621 13.5481 24.5908Z" stroke="#181C24" stroke-width="1.5625" stroke-miterlimit="10" stroke-linecap="round" stroke-linejoin="round"/>
<path d="M20.8401 31.883C20.1689 31.2117 19.0807 31.2117 18.4094 31.883L16.7468 33.5455C16.0756 34.2168 16.0756 35.305 16.7468 35.9762C17.4181 36.6475 18.5063 36.6475 19.1775 35.9762L20.8401 34.3137C21.5113 33.6424 21.5113 32.5542 20.8401 31.883Z" stroke="#181C24" stroke-width="1.5625" stroke-miterlimit="10" stroke-linecap="round" stroke-linejoin="round"/>
<path d="M24.5615 2.89062L20.4552 6.99687L18.2805 4.82219" stroke="#181C24" stroke-width="1.5625" stroke-miterlimit="10" stroke-linecap="round" stroke-linejoin="round"/>
</g>
<defs>
<clipPath id="clip0_142_675">
<rect width="40" height="40" fill="white" transform="translate(0.75)"/>
</clipPath>
</defs>
</svg>
