<svg xmlns="http://www.w3.org/2000/svg" width="56" height="56" viewBox="0 0 56 56">
  <g id="Reconecct" transform="translate(11744.303 17509.295)">
    <rect id="Rectangle_255" data-name="Rectangle 255" width="56" height="56" transform="translate(-11744.303 -17509.295)" fill="none"/>
    <g id="hand_sack" transform="translate(-11744.011 -17500.135)">
      <path id="Path_513" data-name="Path 513" d="M25.894,38a3.259,3.259,0,0,1-2.744-1.511.955.955,0,0,0-.839-.539,1.629,1.629,0,0,0-.314.034,3.97,3.97,0,0,1-.755.076,3.052,3.052,0,0,1-2.552-1.365.859.859,0,0,0-.706-.426,1.336,1.336,0,0,0-.388.068,3.546,3.546,0,0,1-1.028.156,3.222,3.222,0,0,1-3.233-3.144.8.8,0,0,0-.767-.857,3.415,3.415,0,0,1-2.468-1.9,3.027,3.027,0,0,1,.166-2.8,4.37,4.37,0,0,0,.346-3.819,3.269,3.269,0,0,0-2.332-1.779.57.57,0,0,0-.554.425.737.737,0,0,1-.029.071A2.419,2.419,0,0,1,5.562,22.3a3.572,3.572,0,0,1-1.411-.345l-.618-.27c-.683-.3-1.366-.6-2.043-.91A2.3,2.3,0,0,1,.233,17.589Q3.78,9.521,7.358,1.465A2.272,2.272,0,0,1,9.461,0a2.8,2.8,0,0,1,1.095.237c.828.352,1.649.72,2.469,1.092l.37.166a2.349,2.349,0,0,1,1.292,3.373c-.382.887-.388,1.065.392,1.526l.175.1a5.688,5.688,0,0,0,3.015.848A7.844,7.844,0,0,0,20.4,7.027a11.255,11.255,0,0,1,3.043-.487,6.027,6.027,0,0,1,2.608.554,2.837,2.837,0,0,0,1.225.3,3.036,3.036,0,0,0,1.385-.376,7.057,7.057,0,0,1,3.163-.745,9.776,9.776,0,0,1,3.644.78c.2.079.4.162.6.245a11.045,11.045,0,0,0,2.39.791,2.347,2.347,0,0,0,.4.035,3.736,3.736,0,0,0,1.939-.71c.234-.141.455-.273.685-.382.166-.079.33-.257.162-.65-.062-.163-.106-.277-.151-.393-.064-.166-.127-.332-.186-.5a2.293,2.293,0,0,1,1.33-3.011c1.027-.426,2.083-.827,3.071-1.2a2.869,2.869,0,0,1,1-.192A2.3,2.3,0,0,1,48.874,2.7q1.662,4.243,3.3,8.491l1.562,4.029q.72,1.863,1.441,3.73a2.344,2.344,0,0,1-1.453,3.309c-.787.311-1.828.72-2.9,1.113a2.869,2.869,0,0,1-.99.187,2.241,2.241,0,0,1-2.106-1.524c-.075-.186-.253-.62-.68-.62a.984.984,0,0,0-.511.177,2.071,2.071,0,0,1-.419.174c-.859.283-1.627.646-1.607,1.958a2.626,2.626,0,0,1-1.541,2.135c-.715.4-.769.5-.731,1.284a3.171,3.171,0,0,1-3.016,3.415.729.729,0,0,0-.789.743,3.139,3.139,0,0,1-3.205,2.78.781.781,0,0,0-.887.739,3.141,3.141,0,0,1-3.077,2.648,3.461,3.461,0,0,1-1.712-.467,1.405,1.405,0,0,0-.7-.226,1.249,1.249,0,0,0-.824.391A3.19,3.19,0,0,1,25.9,38m1.525-7.85a1.574,1.574,0,0,0-1.5.9c-.321.649-.657,1.29-.994,1.931-.175.332-.351.665-.524,1a1.586,1.586,0,0,0,.559,2.216,1.833,1.833,0,0,0,.974.283,1.584,1.584,0,0,0,1.37-.755,29.378,29.378,0,0,0,1.723-3.23,1.585,1.585,0,0,0-.116-1.517,1.79,1.79,0,0,0-1.478-.831H27.42Zm3.627,2.127a.48.48,0,0,0-.472.415,5.2,5.2,0,0,1-.585,1.33c-.111.2-.217.392-.315.593a.64.64,0,0,1-.033.055.561.561,0,0,0-.1.443.5.5,0,0,0,.259.3c.068.037.135.077.2.118a2.323,2.323,0,0,0,1.282.428,1.63,1.63,0,0,0,1.492-1.1,1.932,1.932,0,0,0-.326-1.718,1.773,1.773,0,0,0-1.372-.869h-.033Zm-7.954-4.439a1.536,1.536,0,0,0-1.5.9c-.546,1.1-1.137,2.244-1.807,3.5a1.407,1.407,0,0,0,.126,1.565,1.73,1.73,0,0,0,2.956-.16c.583-1.065,1.14-2.165,1.679-3.229L24.6,30.3a1.688,1.688,0,0,0-.048-1.646,1.71,1.71,0,0,0-1.455-.817ZM18.685,25.5a1.3,1.3,0,0,0-1.161.561l-.157.268c-.81,1.378-1.647,2.809-2.378,4.265a1.485,1.485,0,0,0,.065,1.473,2.057,2.057,0,0,0,1.785.913,1.532,1.532,0,0,0,1.248-.823c.9-1.67,1.622-3.059,2.272-4.372a1.662,1.662,0,0,0-.812-2.072,1.863,1.863,0,0,0-.867-.212m8.8,3.123a2.908,2.908,0,0,1,1.919.7,19.171,19.171,0,0,0,3.41,2.14c.554.295,1.124.6,1.667.924a1.522,1.522,0,0,0,.79.222,1.692,1.692,0,0,0,1.271-.61,1.627,1.627,0,0,0,.395-1.349A1.859,1.859,0,0,0,36,29.367c-.947-.554-1.9-1.09-2.858-1.627l-1.805-1.017c-.515-.289-1.03-.578-1.538-.88a.7.7,0,0,1-.36-.853.733.733,0,0,1,.655-.554.572.572,0,0,1,.081-.006,1.267,1.267,0,0,1,.578.222l.744.419q3.224,1.812,6.446,3.628a2.3,2.3,0,0,0,1.113.369,1.427,1.427,0,0,0,.391-.055,1.645,1.645,0,0,0,1.256-1.33,1.689,1.689,0,0,0-.936-1.856q-1.514-.864-3.034-1.718-1.251-.7-2.5-1.412a1.144,1.144,0,0,1-.587-.635.675.675,0,0,1,.085-.525.641.641,0,0,1,.585-.365,1.416,1.416,0,0,1,.672.211q1.1.619,2.2,1.244l1.867,1.057c.529.3,1.058.6,1.6.881a1.645,1.645,0,0,0,.771.2,1.662,1.662,0,0,0,.993-.346,1.607,1.607,0,0,0,.657-1.637,1.894,1.894,0,0,0-1.086-1.356l-1.824-1.034c-1.995-1.129-4.054-2.3-6.065-3.471a3.879,3.879,0,0,0-2-.571,4.1,4.1,0,0,0-1.078.152c-.541.148-1.092.327-1.686.546-.424.156-.843.322-1.262.489a26.3,26.3,0,0,1-2.61.931,8.243,8.243,0,0,1-2.2.325,5.984,5.984,0,0,1-4.832-2.451A1.444,1.444,0,0,1,18,15.249a1.381,1.381,0,0,1,.74-.852A36.006,36.006,0,0,0,22.36,11.93,37.028,37.028,0,0,0,25.579,8.97l.294-.294-.383-.162a5.268,5.268,0,0,0-2.117-.443,8.513,8.513,0,0,0-2.318.375,10.169,10.169,0,0,1-2.809.431,7.05,7.05,0,0,1-3.879-1.13.928.928,0,0,0-.493-.175c-.4,0-.569.393-.652.582-1.4,3.214-2.779,6.357-4.2,9.479a1.164,1.164,0,0,0-.116.952,1.1,1.1,0,0,0,.745.512,3.167,3.167,0,0,1,2.453,2.447l.021.095.107.1.155.147.209-.088a4.386,4.386,0,0,1,2.262-.72,3.231,3.231,0,0,1,3,2.417.73.73,0,0,0,.8.5A3.142,3.142,0,0,1,21.644,25.8a.851.851,0,0,0,.836.542c.06,0,.125,0,.194-.01.134-.012.265-.017.393-.017a3.13,3.13,0,0,1,2.944,1.857.789.789,0,0,0,.734.5,1.312,1.312,0,0,0,.2-.017,3.6,3.6,0,0,1,.536-.041M14.679,22.589a1.666,1.666,0,0,0-1.45.813c-.322.525-.61,1.077-.887,1.611l-.205.391-.152.282a7.121,7.121,0,0,0-.515,1.092,1.734,1.734,0,0,0,1.656,2.256,1.556,1.556,0,0,0,1.434-.878c.362-.717.783-1.425,1.19-2.109q.2-.342.405-.684a1.786,1.786,0,0,0,.3-.962,1.726,1.726,0,0,0-1.205-1.723,1.858,1.858,0,0,0-.571-.091M46.634,2.635a1.34,1.34,0,0,0-.5.108c-.5.2-1.011.394-1.517.588l-1.08.417c-.91.355-1.037.649-.679,1.573l3.491,9,2.666,6.89c.129.332.324.834.865.834a1.046,1.046,0,0,0,.37-.074c.74-.277,1.476-.567,2.213-.855l.872-.342a.826.826,0,0,0,.541-.863v-.037l-.031-.111a2.9,2.9,0,0,0-.086-.277l-1.75-4.51q-2.26-5.812-4.506-11.624a.938.938,0,0,0-.873-.72m-37.1-1.1a.983.983,0,0,0-.857.687Q5.191,10.14,1.685,18.048a1.079,1.079,0,0,0-.079.85,1.041,1.041,0,0,0,.617.55c.54.227,1.074.466,1.607.706q.468.21.937.417a1.922,1.922,0,0,0,.728.209c.459,0,.665-.383.872-.847Q9.8,12.169,13.228,4.4c.055-.13.111-.263.151-.371l.062-.153V3.829a.931.931,0,0,0-.653-.948l-.8-.354c-.641-.28-1.281-.561-1.914-.856a1.269,1.269,0,0,0-.534-.135m22.583,13.3a5.394,5.394,0,0,1,2.826.807c.97.579,1.974,1.135,2.946,1.674,1.517.841,3.087,1.712,4.551,2.678a3.48,3.48,0,0,0,1.939.678,3.427,3.427,0,0,0,1.709-.514c.485-.277.7-.541.457-1.164-1.441-3.653-2.679-6.853-3.786-9.783-.076-.2-.256-.677-.7-.677a1.108,1.108,0,0,0-.618.248,4.493,4.493,0,0,1-2.611.844,5.879,5.879,0,0,1-2.3-.52c-.464-.2-.936-.378-1.408-.559l-.229-.088A8.315,8.315,0,0,0,31.966,7.8l-.159.006c-.1,0-.21.008-.314.015a8.4,8.4,0,0,0-5.22,2.629,34.821,34.821,0,0,1-5.865,4.7.66.66,0,0,0-.367.48.679.679,0,0,0,.323.533,4.377,4.377,0,0,0,2.958,1.108,8.526,8.526,0,0,0,2.809-.6c.554-.2,1.1-.414,1.643-.632.821-.328,1.671-.665,2.53-.918a6.491,6.491,0,0,1,1.81-.277" transform="translate(0.011 0)" fill="#2e71fe"/>
      <path id="Path_514" data-name="Path 514" d="M18.853,7.292a1.053,1.053,0,0,1-1.1,1.027,1.023,1.023,0,0,1-1.007-1.039A1.042,1.042,0,0,1,17.8,6.21a1.074,1.074,0,0,1,1.053,1.082" transform="translate(-7.37 -2.735)" fill="#2e71fe"/>
      <path id="Path_515" data-name="Path 515" d="M80.746,10.189A1.056,1.056,0,0,1,79.7,9.108a1.088,1.088,0,0,1,1.108-1.03,1.053,1.053,0,0,1,1,1.059,1.03,1.03,0,0,1-1.063,1.053" transform="translate(-35.089 -3.557)" fill="#2e71fe"/>
    </g>
  </g>
</svg>
