<svg width="41" height="40" viewBox="0 0 41 40" fill="none" xmlns="http://www.w3.org/2000/svg">
<g clip-path="url(#clip0_142_689)">
<path d="M38.5832 3.77626C37.4022 2.59525 35.4875 2.59525 34.3065 3.77626C33.1255 2.59533 31.2108 2.59533 30.0297 3.77626C28.8488 4.9572 28.8488 6.87197 30.0297 8.05298L33.2447 11.2679C33.8311 11.8543 34.7818 11.8543 35.3682 11.2679L38.5831 8.05298C39.7641 6.87205 39.7641 4.95728 38.5832 3.77626Z" fill="#181C24"/>
<path d="M9.36563 16.0256H1.03125V37.1093H9.36563V16.0256Z" fill="#181C24" stroke="#181C24" stroke-width="1.5625" stroke-miterlimit="10" stroke-linecap="round" stroke-linejoin="round"/>
<path d="M6.54314 21.5608C6.54314 22.3034 5.9411 22.9054 5.19845 22.9054C4.4558 22.9054 3.85376 22.3034 3.85376 21.5608C3.85376 20.8181 4.4558 20.2161 5.19845 20.2161C5.9411 20.2161 6.54314 20.8181 6.54314 21.5608Z" fill="white" stroke="#181C24" stroke-width="0.078125"/>
<path d="M27.3119 32.3574H28.627C29.9392 32.3574 31.0029 33.4212 31.0029 34.7334C31.0029 36.0455 29.9392 37.1093 28.627 37.1093H19.5404C17.3109 37.1093 15.1399 36.395 13.346 35.0712H9.36572" stroke="#181C24" stroke-width="1.5625" stroke-miterlimit="10" stroke-linecap="round" stroke-linejoin="round"/>
<path d="M28.8577 27.6055H30.1728C31.485 27.6055 32.5487 28.6692 32.5487 29.9814C32.5487 31.2936 31.485 32.3573 30.1728 32.3573H27.7087" stroke="#181C24" stroke-width="1.5625" stroke-miterlimit="10" stroke-linecap="round" stroke-linejoin="round"/>
<path d="M29.6097 22.8535H30.9248C32.2369 22.8535 33.3007 23.9173 33.3007 25.2295C33.3007 26.5416 32.2369 27.6054 30.9248 27.6054H28.4607" stroke="#181C24" stroke-width="1.5625" stroke-miterlimit="10" stroke-linecap="round" stroke-linejoin="round"/>
<path d="M29.3635 22.8535H31.8275C33.1397 22.8535 34.2035 21.7897 34.2035 20.4775C34.2035 19.1654 33.1397 18.1016 31.8275 18.1016H23.5224C23.2917 18.1016 23.0739 17.9946 22.9329 17.8119C22.6882 17.495 22.7381 17.0412 23.0456 16.7848L26.3215 14.0543C27.4781 13.0904 27.5751 11.3479 26.5327 10.2615C25.801 9.49903 24.6487 9.32246 23.7223 9.83098L17.3406 13.334C16.2755 13.9187 15.3431 14.7178 14.6024 15.6809L12.7405 18.1015H9.36572" stroke="#181C24" stroke-width="1.5625" stroke-miterlimit="10" stroke-linecap="round" stroke-linejoin="round"/>
<path d="M38.5832 3.77626C37.4022 2.59525 35.4875 2.59525 34.3065 3.77626C33.1255 2.59533 31.2108 2.59533 30.0297 3.77626C28.8488 4.9572 28.8488 6.87197 30.0297 8.05298L33.2447 11.2679C33.8311 11.8543 34.7818 11.8543 35.3682 11.2679L38.5831 8.05298C39.7641 6.87205 39.7641 4.95728 38.5832 3.77626Z" stroke="#181C24" stroke-width="1.5625" stroke-miterlimit="10" stroke-linecap="round" stroke-linejoin="round"/>
</g>
<defs>
<clipPath id="clip0_142_689">
<rect width="40" height="40" fill="white" transform="translate(0.25)"/>
</clipPath>
</defs>
</svg>
