<svg xmlns="http://www.w3.org/2000/svg" width="56" height="55.881" viewBox="0 0 56 55.881">
  <g id="Satisfaction" transform="translate(11964 17509)">
    <rect id="Rectangle_251" data-name="Rectangle 251" width="56" height="55.881" transform="translate(-11964 -17509)" fill="none"/>
    <g id="like_Thumb" data-name="like Thumb" transform="translate(-11958.5 -17507.059)">
      <path id="Path_436" data-name="Path 436" d="M21.754,62.221l-.1-.027a2.331,2.331,0,0,0-.347-.08c-.289-.037-.579-.066-.87-.094a13.9,13.9,0,0,1-1.687-.235c-1.019-.229-2.049-.5-3.046-.756-.67-.173-1.339-.347-2.011-.511l-.035-.008-.083-.006a.954.954,0,0,0-.6.278c-.137.135-.264.282-.391.429a4,4,0,0,1-.522.538,2.923,2.923,0,0,1-.648.346c-.1.041-.19.083-.283.127H.39a1.053,1.053,0,0,1-.4-.94Q.012,51.846,0,42.413V37.289c0-.8.129-.936.922-.936h9.466A2.711,2.711,0,0,1,13.063,38l.111.218.233-.059a33.825,33.825,0,0,0,7.153-2.668,16.1,16.1,0,0,0,4.9-3.619A7.845,7.845,0,0,0,27.679,26.8l0-.161a13.827,13.827,0,0,1,.2-2.329,3.61,3.61,0,0,1,3.48-2.84,3.807,3.807,0,0,1,3.726,3.885l.013.616a23.554,23.554,0,0,1-.025,2.408c-.128,1.6-.3,3.009-.531,4.316a22.936,22.936,0,0,1-.554,2.248c-.1.338-.191.675-.278,1.014l-.1.394h.4c.731,0,1.466,0,2.2-.009s1.492-.009,2.241-.009c1.108,0,2.025.01,2.88.032a3.731,3.731,0,0,1,2.688,1.149,3.863,3.863,0,0,1,.96,2.755,3.571,3.571,0,0,1-2.425,3.388l-.323.135.172.311a3.96,3.96,0,0,1,.433,3.275,3.591,3.591,0,0,1-2.255,2.378l-.334.127.173.319a4.089,4.089,0,0,1,.427,3.306,3.553,3.553,0,0,1-2.165,2.342l-.262.1.231.82c.118.42.234.828.343,1.233a3.7,3.7,0,0,1-1.259,3.325,9.023,9.023,0,0,1-1.2.64c-.174.082-.348.165-.519.25ZM31.371,22.91a2.315,2.315,0,0,0-2.225,2.129c-.013.259-.023.522-.035.783-.019.461-.039.921-.067,1.381a8.8,8.8,0,0,1-2.224,5.22,17.733,17.733,0,0,1-5.452,4.255,34.751,34.751,0,0,1-7.36,2.805.808.808,0,0,0-.566.311.853.853,0,0,0-.171.636q.015,7.2.009,14.4v4.123l.23.06c.45.116.9.238,1.342.359,1,.271,2.03.551,3.057.762l.252.052a22.676,22.676,0,0,0,4.1.587c1.952.037,4.009.052,6.289.052h0c1.984,0,4.1-.013,6.856-.042a2.192,2.192,0,0,0,1.88-1.035,2.481,2.481,0,0,0,.135-2.306A2.263,2.263,0,0,0,35.2,56.11c-.328-.006-.655-.007-.984-.007l-1.7,0a.862.862,0,0,1-.63-.191.738.738,0,0,1-.157-.529c0-.342.1-.691.765-.692h.14c.469,0,.939,0,1.41.009s.943.008,1.414.008c.755,0,1.38-.011,1.956-.035a2.255,2.255,0,0,0,1.847-1.037,2.454,2.454,0,0,0,.17-2.214A2.258,2.258,0,0,0,37.17,50c-.316,0-.631-.006-.947-.006H34.489c-.671,0-.768-.332-.771-.688a.738.738,0,0,1,.156-.532.848.848,0,0,1,.624-.19h.134c.47,0,.939,0,1.41.009s.943.009,1.414.009c.761,0,1.385-.012,1.964-.037a2.243,2.243,0,0,0,1.826-1.026,2.444,2.444,0,0,0,.188-2.188,2.249,2.249,0,0,0-2.248-1.464c-.337-.008-.675-.01-1.012-.01l-1.721,0c-.665,0-.751-.379-.751-.705s.086-.7.752-.7h.175c.467,0,.936,0,1.4.008s.939.007,1.41.007c.748,0,1.362-.009,1.933-.032a2.253,2.253,0,0,0,1.888-1.083,2.435,2.435,0,0,0,.109-2.264A2.277,2.277,0,0,0,41.1,37.764l-12.593,0a.763.763,0,0,1-.567-.184.746.746,0,0,1-.164-.538c0-.466.233-.686.721-.688h3.458l.082-.182A21.518,21.518,0,0,0,33.712,28.7c.064-.88.042-1.778.021-2.644l-.013-.543a2.418,2.418,0,0,0-2-2.568,1.9,1.9,0,0,0-.349-.032M6.461,60.8c1.2,0,2.4,0,3.6.019h.063a1.829,1.829,0,0,0,1.36-.431,1.983,1.983,0,0,0,.431-1.449q-.018-6.487-.009-12.974V39.374a1.471,1.471,0,0,0-.661-1.4,2.17,2.17,0,0,0-1.03-.207q-2.19-.01-4.381-.008H1.39V60.809S5.674,60.8,6.461,60.8" transform="translate(0.011 -10.222)" fill="#2e71fe"/>
      <path id="Path_437" data-name="Path 437" d="M60.46,3.351c0-.772-.006-1.544,0-2.316A.943.943,0,0,1,61.448,0a1.091,1.091,0,0,1,1.074,1.063q.013,2.342,0,4.683a1.091,1.091,0,0,1-1.075,1.06.939.939,0,0,1-.983-1.037c-.008-.806,0-1.613,0-2.419" transform="translate(-30.065 0.003)" fill="#2e71fe"/>
      <path id="Path_438" data-name="Path 438" d="M72.582,13.126a1.04,1.04,0,0,1-1-.716.866.866,0,0,1,.233-1.042c.987-1.024,2-2.025,3-3.033a1.144,1.144,0,0,1,1.29,0A.974.974,0,0,1,76.333,9.7a3.467,3.467,0,0,1-.557.656c-.841.825-1.684,1.649-2.547,2.452a2.486,2.486,0,0,1-.646.318" transform="translate(-35.855 -3.873)" fill="#2e71fe"/>
      <path id="Path_439" data-name="Path 439" d="M47.6,13.16a3.651,3.651,0,0,1-.738-.438c-.95-.918-1.859-1.88-2.818-2.787a1.115,1.115,0,0,1-.094-1.467,1.122,1.122,0,0,1,1.366-.141,4.57,4.57,0,0,1,.655.561q1.257,1.282,2.493,2.582a.866.866,0,0,1,.119,1.032,1.128,1.128,0,0,1-.983.658" transform="translate(-21.806 -3.883)" fill="#2e71fe"/>
      <path id="Path_440" data-name="Path 440" d="M39.867,26.868c-.669,0-1.338.005-2.007,0a1.032,1.032,0,1,1,.023-2.06q2.007-.008,4.014,0a1.112,1.112,0,0,1,1.121,1.015,1.1,1.1,0,0,1-1.144,1.048c-.669,0-1.338,0-2.007,0" transform="translate(-18.39 -11.936)" fill="#2e71fe"/>
      <path id="Path_441" data-name="Path 441" d="M79.242,26.87c-.686,0-1.372.008-2.059,0a.943.943,0,0,1-.969-1.048.929.929,0,0,1,.961-1.006q2.084-.014,4.169,0a1.029,1.029,0,1,1,.008,2.057c-.7.012-1.407,0-2.11,0" transform="translate(-38.096 -11.938)" fill="#2e71fe"/>
      <path id="Path_442" data-name="Path 442" d="M15.163,74.416c0-1.339,0-2.678,0-4.017,0-.694.367-1.092.983-1.091a1.089,1.089,0,0,1,1.076,1.112q.006,4.042,0,8.085a1.092,1.092,0,0,1-1.07,1.118.954.954,0,0,1-.987-1.086c0-1.374,0-2.746,0-4.12" transform="translate(-7.533 -33.496)" fill="#2e71fe"/>
      <path id="Path_443" data-name="Path 443" d="M15.165,62.432a.948.948,0,0,1,1.015-1,1.128,1.128,0,0,1,1.048,1.035,1.113,1.113,0,0,1-1.1,1.028.948.948,0,0,1-.958-1.06" transform="translate(-7.535 -29.564)" fill="#2e71fe"/>
    </g>
  </g>
</svg>
