<svg xmlns="http://www.w3.org/2000/svg" width="40" height="40" viewBox="0 0 40 40">
  <g id="ui_ux_icone_color" data-name="ui/ux_icone_color" transform="translate(-0.001)">
    <rect id="Rectangle_259" data-name="Rectangle 259" width="40" height="40" transform="translate(0.001)" fill="none"/>
    <g id="ui_ux_icone" data-name="ui/ux_icone" transform="translate(3.554 0.418)">
      <path id="Path_525" data-name="Path 525" d="M19.728,38.479c-1.075-2.147-2.158-4.29-3.212-6.446a.878.878,0,0,1,.011-.681c1.388-2.811,2.8-5.61,4.2-8.415q2.12-4.241,4.23-8.486c.265-.531.658-.642.924-.245a.906.906,0,0,1,.093.476q.007,5.729,0,11.458c0,.94,0,1.877,0,2.816a.674.674,0,0,1-.407.7,1.753,1.753,0,0,0-.929,1.974,1.733,1.733,0,0,0,1.376,1.43,1.823,1.823,0,0,0,2.154-2.127,1.915,1.915,0,0,0-1-1.31c-.128-.072-.2-.262-.27-.41a.68.68,0,0,1-.013-.271q0-7.157,0-14.313c0-.543.178-.752.565-.615a.8.8,0,0,1,.378.385q2.8,5.573,5.581,11.155,1.391,2.781,2.8,5.554a1.193,1.193,0,0,1,.009,1.208c-1.014,1.975-1.995,3.968-2.984,5.956a.42.42,0,0,1-.428.3q-6.453-.016-12.906-.009a1.07,1.07,0,0,1-.117-.013l-.059-.061" transform="translate(-10.012 -8.496)" fill="#f07"/>
      <path id="Path_526" data-name="Path 526" d="M18.232,2.457c0,.244-.007.452,0,.658a.457.457,0,0,1-.5.537q-1.31.016-2.621,0c-.364,0-.545-.215-.554-.591,0-.193,0-.387,0-.581C8.486,2.927,2.368,8.692,2.367,15.98c.28,0,.563.005.845,0a.413.413,0,0,1,.475.467c.005.862,0,1.721,0,2.581a.489.489,0,0,1-.544.548c-.886,0-1.773-.007-2.659,0a.392.392,0,0,1-.439-.424c-.016-.94-.022-1.877,0-2.815.007-.3.27-.419.546-.436.258-.016.518,0,.8,0a14.9,14.9,0,0,1,2.781-8.26,15.157,15.157,0,0,1,6.87-5.352h-.357c-2.216,0-4.433.009-6.649-.01a.546.546,0,0,0-.578.357A1.814,1.814,0,0,1,1.32,3.6,1.856,1.856,0,0,1,.01,1.744,1.748,1.748,0,0,1,1.4.045,1.8,1.8,0,0,1,3.444.979a.559.559,0,0,0,.631.392c3.337-.016,6.675-.01,10.013-.01h.467c0-.286-.014-.555,0-.822.021-.313.163-.53.523-.528.886,0,1.773-.006,2.659,0a.45.45,0,0,1,.492.511c0,.26,0,.52,0,.807H29.215a1.805,1.805,0,0,1,2.067-1.3,1.824,1.824,0,0,1,1.508,1.6,1.708,1.708,0,0,1-1.349,1.953A1.75,1.75,0,0,1,29.2,2.3H21.732c.575.271,1.112.512,1.639.775a14.155,14.155,0,0,1,4.164,3.169,14.323,14.323,0,0,1,3.121,5.323,25.289,25.289,0,0,1,.635,2.923,7.382,7.382,0,0,1,.082,1.115c.01.259.083.414.384.381.193-.021.392.01.587-.007.346-.03.485.168.49.462.013.873.018,1.747,0,2.62a.5.5,0,0,1-.552.52c-.873,0-1.747,0-2.62,0-.316,0-.477-.143-.477-.459V16.384c0-.325.206-.456.487-.478s.544,0,.815,0A13.928,13.928,0,0,0,18.232,2.457" transform="translate(-0.008 0)" fill="#f07"/>
      <path id="Path_527" data-name="Path 527" d="M29.155,82.653H21.609c-.5,0-.622-.118-.624-.606q0-1.212,0-2.423c0-.505.117-.629.608-.629q7.565,0,15.131,0c.489,0,.674.19.676.681q0,1.154,0,2.306c0,.525-.145.671-.661.671H29.155" transform="translate(-12.768 -48.055)" fill="#f07"/>
      <path id="Path_528" data-name="Path 528" d="M38.159,90.689c0,1.07.019,2.123-.02,3.172-.005.157-.27.319-.439.446-.068.051-.2.013-.307.013H25.266c-.738,0-.768-.03-.768-.77V90.687Z" transform="translate(-14.906 -55.169)" fill="#f07"/>
      <path id="Path_529" data-name="Path 529" d="M24.815,76.552l.059.061-.059-.061" transform="translate(-15.099 -46.57)" fill="#f07"/>
    </g>
  </g>
</svg>
