<svg xmlns="http://www.w3.org/2000/svg" width="40" height="40" viewBox="0 0 40 40">
  <g id="web_development_color" transform="translate(-0.001)">
    <rect id="Rectangle_261" data-name="Rectangle 261" width="40" height="40" transform="translate(0.001)" fill="none"/>
    <g id="code" transform="translate(1.024 1.414)">
      <path id="Path_531" data-name="Path 531" d="M37.85,33.2c.032.452.063.9.085,1.355.031.638.039,1.278.036,1.916s-.044,1.292-.044,1.936c-.052,1.284-.144,2.566-.266,3.845q-.085.891-.188,1.778a19.083,19.083,0,0,1-.647,3.485,9.24,9.24,0,0,1-.758,1.774,10.594,10.594,0,0,1-2.121,2.675,10.816,10.816,0,0,1-2.7,1.844,6.506,6.506,0,0,1-1.458.5c-1.582.31-3.182.54-4.782.742-.63.079-1.27.055-1.9.127s-1.259.058-1.882.077c-1.266.039-2.532.052-3.8.031S14.9,55.2,13.638,55.1s-2.513-.246-3.759-.447q-.8-.129-1.6-.29a2.932,2.932,0,0,1-.75-.178c-.2-.106-.426-.188-.639-.282a9.74,9.74,0,0,1-3.633-2.679A20.455,20.455,0,0,1,1.764,49.15a7.087,7.087,0,0,1-.726-1.556,12.959,12.959,0,0,1-.384-1.677,34.647,34.647,0,0,1-.432-3.684C.115,40.955.038,39.674.01,38.392v-.039C-.006,37.591,0,36.829,0,36.068c.012-1.3.051-2.595.092-3.892C.1,31.893.1,31.61.13,31.328c.007-.075.072-.883.08-.883L1.8,30.3c1.025-.1,2.05-.2,3.076-.293.4-.036.8-.044,1.2-.077,1.149-.095,2.3-.215,3.447-.29s2.3-.112,3.447-.151c1.068-.036,2.136-.075,3.2-.072,1.82.006,3.643.043,5.465.07,1.28.019,2.561.034,3.841.072q1.949.058,3.9.165t3.892.261q1.944.155,3.884.358c.071.007.14.019.211.025.252.021.343.088.347.345.011.829.071,1.659.129,2.489m-15.032.246-.053-.024a2.835,2.835,0,0,0-.071-.462A1.3,1.3,0,0,0,21.361,32a1.267,1.267,0,0,0-1.286.96q-.48,1.528-.94,3.062c-.612,2.035-1.216,4.073-1.829,6.108q-1.076,3.569-2.162,7.135a1.411,1.411,0,0,0,.775,1.633,1.342,1.342,0,0,0,1.693-.434,8.173,8.173,0,0,0,.542-1.476c.628-2.062,1.239-4.128,1.861-6.192q1.1-3.665,2.21-7.329c.2-.675.4-1.353.592-2.029m5.94,8.089a2.608,2.608,0,0,0-.3.222q-1.916,1.909-3.828,3.824a1.407,1.407,0,0,0-.423,1.487,1.38,1.38,0,0,0,2.4.525c1.711-1.659,3.386-3.357,5.059-5.054a1.4,1.4,0,0,0,.034-2q-2.56-2.572-5.134-5.131a1.42,1.42,0,0,0-2.216.211,1.543,1.543,0,0,0,.179,1.711c1.4,1.358,2.772,2.746,4.233,4.2m-19.569.008c1.382-1.384,2.768-2.756,4.131-4.147a1.362,1.362,0,0,0,.005-2.026,1.42,1.42,0,0,0-1.975.035c-1.692,1.73-3.412,3.433-5.127,5.139a1.341,1.341,0,0,0,.019,1.984c1.715,1.707,3.432,3.412,5.131,5.135a1.383,1.383,0,0,0,2-.018,1.345,1.345,0,0,0-.025-1.942L9.188,41.536" transform="translate(0.002 -18.022)" fill="#97b21e"/>
      <path id="Path_532" data-name="Path 532" d="M1.1,11.034c.055-.405.091-.787.162-1.162a18.741,18.741,0,0,1,.432-2.038,9.813,9.813,0,0,1,2.2-3.768A10.952,10.952,0,0,1,7.4,1.444a9.836,9.836,0,0,1,2.9-.786C11.13.551,11.962.416,12.795.3c.29-.039.581-.069.871-.082Q15.592.137,17.519.069C18.315.039,19.112,0,19.909,0c1.007,0,2.014.025,3.021.074,1.034.05,2.071.1,3.1.227,1.456.181,2.91.4,4.352.666a8.277,8.277,0,0,1,3.369,1.621,10.793,10.793,0,0,1,3.418,4.225,9.571,9.571,0,0,1,.783,3.029c.039.358.116.712.182,1.123-.426-.027-.8-.043-1.166-.077-.687-.066-1.373-.148-2.06-.216q-1.159-.116-2.319-.22-.564-.05-1.131-.077c-.661-.03-1.322-.05-1.983-.075-1.31-.049-2.62-.1-3.931-.148-.8-.029-1.593-.057-2.39-.074-1.439-.03-2.878-.071-4.316-.07-1.538,0-3.075.041-4.613.072q-1.046.021-2.093.072-1.39.065-2.779.148c-.742.044-1.484.085-2.224.15-.977.086-1.952.2-2.928.29-.592.056-1.186.094-1.778.148-.428.039-.855.094-1.321.146m28.153-3.42.55.011a1.981,1.981,0,0,0,.944-.118A1.281,1.281,0,0,0,31.5,6.462a1.39,1.39,0,0,0-1.112-1.575c-.352-.039-.7-.059-1.058-.077-1.089-.052-2.177-.107-3.266-.146-1.007-.036-2.014-.07-3.021-.075-2.085-.011-4.17-.015-6.254.013a1.551,1.551,0,0,0-.842.327,1.317,1.317,0,0,0-.377,1.482,1.278,1.278,0,0,0,1.245.929c1.559.031,3.118.047,4.677.077q2.385.048,4.769.113c.785.022,1.569.045,2.353.065l.639.015M11.975,4.738A1.317,1.317,0,0,0,10.6,6.08a1.428,1.428,0,0,0,1.38,1.394A1.361,1.361,0,0,0,13.4,6.065,1.281,1.281,0,0,0,11.975,4.74M9.264,6.275A1.352,1.352,0,0,0,7.856,4.881a1.394,1.394,0,0,0-1.342,1.48,1.365,1.365,0,0,0,1.459,1.27A1.275,1.275,0,0,0,9.264,6.276" transform="translate(-0.673)" fill="#97b21e"/>
    </g>
  </g>
</svg>
