<svg width="330" height="74" viewBox="0 0 330 74" fill="none" xmlns="http://www.w3.org/2000/svg">
<path d="M131.252 33.5039L95.7188 1.70742C95.1846 1.25083 94.5054 1 93.8031 1C93.1008 1 92.4215 1.25083 91.8873 1.70742L81.2178 11.2623V8.04517C81.2159 7.53413 81.0118 7.04469 80.6502 6.6841C80.2886 6.32351 79.799 6.12119 79.2887 6.12146H75.7534C75.2431 6.12119 74.7535 6.32351 74.3919 6.6841C74.0303 7.04469 73.8262 7.53413 73.8243 8.04517V17.8803L56.3661 33.5039C55.3124 34.4473 55.6076 35.2203 57.0221 35.2203H60.376C61.0564 35.2208 61.709 35.491 62.1911 35.9719C62.6731 36.4528 62.9456 37.1052 62.9488 37.7866V70.2935C62.9518 70.9744 63.2237 71.6265 63.7052 72.1074C64.1867 72.5882 64.8386 72.8587 65.5186 72.8598H122.1C122.78 72.8587 123.432 72.5882 123.913 72.1074C124.395 71.6265 124.667 70.9744 124.67 70.2935V37.7856C124.673 37.1042 124.945 36.4517 125.427 35.9709C125.909 35.49 126.562 35.2198 127.242 35.2193H130.596C132.01 35.2193 132.306 34.4494 131.252 33.5039ZM108.458 56.6202C106.841 59.0508 104.637 61.0331 102.051 62.3831C101.738 62.5525 101.419 62.7044 101.094 62.8471C98.8585 63.8486 96.4366 64.365 93.9876 64.3622C84.2591 64.3622 76.6349 56.9908 76.6349 47.5745C76.6349 47.3907 76.6349 47.2039 76.6462 47.0201C76.6775 45.9842 76.8038 44.9534 77.0234 43.9406C77.869 40.0639 80.0128 36.5933 83.099 34.1048C86.1852 31.6162 90.0284 30.2593 93.9906 30.2591C95.7652 30.2568 97.5297 30.5255 99.2234 31.0557C101.427 31.7457 103.47 32.871 105.232 34.365C106.994 35.8591 108.439 37.6916 109.482 39.7544C109.652 40.0904 109.752 40.4573 109.776 40.8331C109.8 41.2089 109.748 41.5857 109.623 41.9407C109.497 42.2957 109.301 42.6216 109.047 42.8987C108.792 43.1757 108.484 43.3982 108.141 43.5526L107.447 43.8677L107.298 43.9324L104.465 45.2155L100.479 47.0191L91.3389 51.1498L89.3545 52.0491C88.9942 52.2133 88.6033 52.299 88.2075 52.3006H88.1952C87.6596 52.2987 87.1357 52.1429 86.6859 51.8518C86.236 51.5606 85.879 51.1464 85.6572 50.6581C85.444 50.1902 85.365 49.6721 85.4291 49.1617C85.4932 48.6514 85.6978 48.169 86.0201 47.7685C86.2708 47.4498 86.5913 47.193 86.9569 47.0181C86.9862 46.9993 87.0175 46.9838 87.0502 46.9719L88.8953 46.1343L93.7713 43.9365L102.294 40.0829L102.851 39.8314C101.396 38.1854 99.512 36.977 97.4104 36.3415C95.3089 35.7059 93.0722 35.6682 90.9504 36.2324C89.0624 36.7406 87.3297 37.7099 85.9077 39.0536C84.4857 40.3973 83.4187 42.0732 82.8025 43.9313C82.4771 44.9278 82.2871 45.9637 82.2377 47.0109C82.2264 47.1947 82.2234 47.3815 82.2234 47.5652C82.2234 47.749 82.2234 47.9358 82.2377 48.1196C82.3321 50.0075 82.9096 51.8394 83.9148 53.4393C84.9201 55.0392 86.3192 56.3534 87.9779 57.2556C89.8209 58.2707 91.8924 58.7972 93.9958 58.7851C95.8597 58.7882 97.6977 58.3475 99.3582 57.4993C101.019 56.6512 102.454 55.4199 103.546 53.9071C103.637 53.7849 103.721 53.6556 103.806 53.5303C104.219 52.9141 104.858 52.4862 105.584 52.3397C106.311 52.1931 107.065 52.34 107.684 52.7481C107.757 52.7955 107.828 52.8473 107.895 52.9031C108.235 53.1743 108.504 53.5227 108.682 53.9194C108.878 54.3505 108.96 54.8243 108.923 55.2963C108.885 55.7682 108.728 56.2228 108.466 56.6171L108.458 56.6202Z" fill="#087C7C"/>
<path d="M152.935 51.782C150.364 51.782 148.327 51.0411 146.822 49.5592C145.317 48.0772 144.506 45.9702 144.391 43.2379C144.367 43.0064 144.356 42.7169 144.356 42.3696C144.356 41.9991 144.367 41.7097 144.391 41.5013C144.483 39.7647 144.877 38.2596 145.571 36.9861C146.289 35.7126 147.273 34.7401 148.524 34.0686C149.774 33.374 151.244 33.0266 152.935 33.0266C154.81 33.0266 156.385 33.4203 157.658 34.2075C158.932 34.9716 159.893 36.0483 160.541 37.4376C161.189 38.8038 161.513 40.3899 161.513 42.1959V42.9253C161.513 43.1569 161.432 43.3537 161.27 43.5158C161.108 43.6778 160.9 43.7589 160.645 43.7589H149.114C149.114 43.7589 149.114 43.7936 149.114 43.8631C149.114 43.9325 149.114 43.9904 149.114 44.0367C149.137 44.8472 149.288 45.5997 149.566 46.2943C149.867 46.9658 150.295 47.51 150.851 47.9267C151.43 48.3435 152.113 48.5519 152.9 48.5519C153.548 48.5519 154.092 48.4593 154.532 48.2741C154.972 48.0657 155.331 47.8341 155.609 47.5794C155.887 47.3247 156.084 47.1163 156.199 46.9542C156.408 46.6764 156.57 46.5143 156.686 46.468C156.825 46.3985 157.021 46.3638 157.276 46.3638H160.263C160.495 46.3638 160.68 46.4333 160.819 46.5722C160.981 46.7111 161.05 46.8848 161.027 47.0932C161.004 47.4636 160.807 47.9152 160.437 48.4477C160.089 48.9803 159.58 49.5013 158.909 50.0107C158.237 50.5201 157.392 50.9484 156.373 51.2958C155.377 51.6199 154.231 51.782 152.935 51.782ZM149.114 40.8414H156.79V40.7372C156.79 39.8341 156.639 39.0469 156.338 38.3754C156.037 37.7039 155.597 37.1713 155.019 36.7777C154.44 36.3841 153.745 36.1873 152.935 36.1873C152.124 36.1873 151.43 36.3841 150.851 36.7777C150.272 37.1713 149.832 37.7039 149.531 38.3754C149.253 39.0469 149.114 39.8341 149.114 40.7372V40.8414ZM166.451 51.4347C166.219 51.4347 166.022 51.3537 165.86 51.1916C165.698 51.0295 165.617 50.8327 165.617 50.6011V27.9905C165.617 27.7358 165.698 27.5274 165.86 27.3653C166.022 27.2032 166.219 27.1222 166.451 27.1222H176.523C178.398 27.1222 179.927 27.4116 181.108 27.9905C182.288 28.5462 183.157 29.3219 183.712 30.3175C184.291 31.3132 184.581 32.4709 184.581 33.7908C184.581 34.6706 184.419 35.4463 184.095 36.1178C183.794 36.7661 183.411 37.2987 182.948 37.7155C182.508 38.1323 182.069 38.4564 181.629 38.688C182.532 39.1048 183.33 39.7994 184.025 40.7719C184.72 41.7444 185.067 42.9022 185.067 44.2451C185.067 45.6344 184.754 46.8732 184.129 47.9615C183.504 49.0498 182.578 49.9065 181.351 50.5317C180.123 51.1337 178.607 51.4347 176.801 51.4347H166.451ZM170.445 47.7531H176.245C177.495 47.7531 178.445 47.4173 179.093 46.7458C179.741 46.0512 180.066 45.2176 180.066 44.2451C180.066 43.2263 179.73 42.3812 179.058 41.7097C178.41 41.0382 177.472 40.7025 176.245 40.7025H170.445V47.7531ZM170.445 37.0903H175.898C177.125 37.0903 178.04 36.8009 178.642 36.222C179.267 35.62 179.579 34.8443 179.579 33.8949C179.579 32.9224 179.267 32.1699 178.642 31.6374C178.04 31.0816 177.125 30.8038 175.898 30.8038H170.445V37.0903ZM189.844 51.4347C189.613 51.4347 189.416 51.3537 189.254 51.1916C189.092 51.0295 189.011 50.8327 189.011 50.6011V34.2423C189.011 33.9876 189.092 33.7792 189.254 33.6171C189.416 33.455 189.613 33.374 189.844 33.374H192.658C192.889 33.374 193.086 33.455 193.248 33.6171C193.433 33.7792 193.526 33.9876 193.526 34.2423V35.6663C194.059 34.9253 194.742 34.358 195.575 33.9644C196.432 33.5708 197.416 33.374 198.527 33.374H199.951C200.206 33.374 200.403 33.455 200.542 33.6171C200.704 33.7792 200.785 33.976 200.785 34.2075V36.7083C200.785 36.9398 200.704 37.1366 200.542 37.2987C200.403 37.4608 200.206 37.5418 199.951 37.5418H197.242C196.131 37.5418 195.263 37.8544 194.637 38.4796C194.035 39.1048 193.734 39.9615 193.734 41.0498V50.6011C193.734 50.8327 193.653 51.0295 193.491 51.1916C193.329 51.3537 193.121 51.4347 192.866 51.4347H189.844ZM211.245 51.782C209.392 51.782 207.829 51.4578 206.556 50.8095C205.306 50.1612 204.345 49.2466 203.673 48.0657C203.025 46.8848 202.654 45.5071 202.562 43.9325C202.539 43.5158 202.527 43.0064 202.527 42.4043C202.527 41.8023 202.539 41.2929 202.562 40.8761C202.654 39.2784 203.036 37.9007 203.708 36.743C204.403 35.5621 205.375 34.6475 206.625 33.9991C207.899 33.3508 209.439 33.0266 211.245 33.0266C213.051 33.0266 214.579 33.3508 215.829 33.9991C217.103 34.6475 218.075 35.5621 218.747 36.743C219.442 37.9007 219.835 39.2784 219.928 40.8761C219.951 41.2929 219.963 41.8023 219.963 42.4043C219.963 43.0064 219.951 43.5158 219.928 43.9325C219.835 45.5071 219.453 46.8848 218.782 48.0657C218.133 49.2466 217.172 50.1612 215.899 50.8095C214.649 51.4578 213.097 51.782 211.245 51.782ZM211.245 48.3435C212.472 48.3435 213.421 47.9615 214.093 47.1974C214.764 46.4101 215.135 45.2639 215.204 43.7589C215.227 43.4116 215.239 42.96 215.239 42.4043C215.239 41.8486 215.227 41.3971 215.204 41.0498C215.135 39.5679 214.764 38.4333 214.093 37.646C213.421 36.8588 212.472 36.4651 211.245 36.4651C210.018 36.4651 209.068 36.8588 208.397 37.646C207.725 38.4333 207.355 39.5679 207.285 41.0498C207.262 41.3971 207.251 41.8486 207.251 42.4043C207.251 42.96 207.262 43.4116 207.285 43.7589C207.355 45.2639 207.725 46.4101 208.397 47.1974C209.068 47.9615 210.018 48.3435 211.245 48.3435ZM224.679 51.4347C224.448 51.4347 224.251 51.3537 224.089 51.1916C223.927 51.0295 223.846 50.8327 223.846 50.6011V27.6084C223.846 27.3769 223.927 27.1801 224.089 27.018C224.251 26.8559 224.448 26.7749 224.679 26.7749H227.492C227.747 26.7749 227.944 26.8559 228.083 27.018C228.245 27.1801 228.326 27.3769 228.326 27.6084V39.4868L234.161 33.9644C234.369 33.7792 234.555 33.6402 234.717 33.5476C234.879 33.4319 235.122 33.374 235.446 33.374H238.676C238.908 33.374 239.093 33.4434 239.232 33.5824C239.371 33.7213 239.44 33.9065 239.44 34.1381C239.44 34.2307 239.417 34.3349 239.371 34.4507C239.324 34.5664 239.232 34.6706 239.093 34.7633L231.938 41.4666L239.961 50.0801C240.193 50.3117 240.309 50.5085 240.309 50.6706C240.309 50.9021 240.228 51.0874 240.065 51.2263C239.926 51.3652 239.753 51.4347 239.544 51.4347H236.245C235.898 51.4347 235.643 51.3884 235.481 51.2958C235.342 51.18 235.168 51.0295 234.96 50.8442L228.326 43.8631V50.6011C228.326 50.8327 228.245 51.0295 228.083 51.1916C227.944 51.3537 227.747 51.4347 227.492 51.4347H224.679ZM249.839 51.782C247.269 51.782 245.231 51.0411 243.726 49.5592C242.221 48.0772 241.41 45.9702 241.295 43.2379C241.271 43.0064 241.26 42.7169 241.26 42.3696C241.26 41.9991 241.271 41.7097 241.295 41.5013C241.387 39.7647 241.781 38.2596 242.476 36.9861C243.193 35.7126 244.177 34.7401 245.428 34.0686C246.678 33.374 248.148 33.0266 249.839 33.0266C251.714 33.0266 253.289 33.4203 254.562 34.2075C255.836 34.9716 256.797 36.0483 257.445 37.4376C258.093 38.8038 258.418 40.3899 258.418 42.1959V42.9253C258.418 43.1569 258.337 43.3537 258.174 43.5158C258.012 43.6778 257.804 43.7589 257.549 43.7589H246.018C246.018 43.7589 246.018 43.7936 246.018 43.8631C246.018 43.9325 246.018 43.9904 246.018 44.0367C246.041 44.8472 246.192 45.5997 246.47 46.2943C246.771 46.9658 247.199 47.51 247.755 47.9267C248.334 48.3435 249.017 48.5519 249.804 48.5519C250.452 48.5519 250.996 48.4593 251.436 48.2741C251.876 48.0657 252.235 47.8341 252.513 47.5794C252.791 47.3247 252.988 47.1163 253.104 46.9542C253.312 46.6764 253.474 46.5143 253.59 46.468C253.729 46.3985 253.926 46.3638 254.18 46.3638H257.167C257.399 46.3638 257.584 46.4333 257.723 46.5722C257.885 46.7111 257.954 46.8848 257.931 47.0932C257.908 47.4636 257.711 47.9152 257.341 48.4477C256.994 48.9803 256.484 49.5013 255.813 50.0107C255.141 50.5201 254.296 50.9484 253.277 51.2958C252.282 51.6199 251.135 51.782 249.839 51.782ZM246.018 40.8414H253.694V40.7372C253.694 39.8341 253.543 39.0469 253.242 38.3754C252.941 37.7039 252.502 37.1713 251.923 36.7777C251.344 36.3841 250.649 36.1873 249.839 36.1873C249.028 36.1873 248.334 36.3841 247.755 36.7777C247.176 37.1713 246.736 37.7039 246.435 38.3754C246.157 39.0469 246.018 39.8341 246.018 40.7372V40.8414ZM262.938 51.4347C262.706 51.4347 262.51 51.3537 262.347 51.1916C262.185 51.0295 262.104 50.8327 262.104 50.6011V34.2423C262.104 33.9876 262.185 33.7792 262.347 33.6171C262.51 33.455 262.706 33.374 262.938 33.374H265.751C265.983 33.374 266.18 33.455 266.342 33.6171C266.527 33.7792 266.62 33.9876 266.62 34.2423V35.6663C267.152 34.9253 267.835 34.358 268.669 33.9644C269.525 33.5708 270.51 33.374 271.621 33.374H273.045C273.3 33.374 273.497 33.455 273.635 33.6171C273.798 33.7792 273.879 33.976 273.879 34.2075V36.7083C273.879 36.9398 273.798 37.1366 273.635 37.2987C273.497 37.4608 273.3 37.5418 273.045 37.5418H270.336C269.224 37.5418 268.356 37.8544 267.731 38.4796C267.129 39.1048 266.828 39.9615 266.828 41.0498V50.6011C266.828 50.8327 266.747 51.0295 266.585 51.1916C266.423 51.3537 266.214 51.4347 265.96 51.4347H262.938Z" fill="#087C7C"/>
</svg>
