<svg width="330" height="74" viewBox="0 0 330 74" fill="none" xmlns="http://www.w3.org/2000/svg">
<g clip-path="url(#clip0_2859_4106)">
<path d="M147.595 43.0542L150.624 46.1462C149.11 47.7237 146.207 48.7333 143.746 48.7333C138.95 48.9227 134.912 45.1365 134.785 40.3408C134.785 40.2146 134.785 40.0253 134.785 39.8991C134.659 35.2296 138.319 31.2541 142.989 31.1279C143.115 31.1279 143.304 31.1279 143.43 31.1279C148.731 31.1279 151.823 35.1664 151.823 41.5397H139.707C140.212 43.3697 141.853 44.6317 143.746 44.6317C145.134 44.5686 146.522 44.0007 147.595 43.0542ZM139.77 38.0691H147.343C146.964 36.3654 145.45 35.2296 143.746 35.3558C141.916 35.2927 140.338 36.4285 139.77 38.0691Z" fill="url(#paint0_linear_2859_4106)"/>
<path d="M155.421 25.9534H163.435C171.007 25.9534 176.308 30.5598 176.308 37.1224C176.308 43.685 170.944 48.3545 163.435 48.3545H155.421V25.9534ZM164.066 44.0005C168.357 44.0005 171.386 41.1609 171.386 37.1224C171.386 33.147 168.357 30.3074 164.066 30.3074H160.217V44.0005H164.066Z" fill="url(#paint1_linear_2859_4106)"/>
<path d="M191.767 43.0542L194.796 46.1462C193.281 47.7237 190.379 48.7333 187.918 48.7333C183.122 48.9227 179.147 45.1365 178.957 40.3408C178.957 40.2146 178.957 40.0253 178.957 39.8991C178.831 35.2296 182.491 31.2541 187.161 31.1279C187.287 31.1279 187.476 31.1279 187.602 31.1279C192.903 31.1279 195.995 35.1664 195.995 41.5397H183.879C184.384 43.3697 186.025 44.6317 187.918 44.6317C189.306 44.5686 190.694 44.0007 191.767 43.0542ZM183.942 38.0691H191.515C191.136 36.3654 189.621 35.2296 187.918 35.3558C186.088 35.2927 184.51 36.4285 183.942 38.0691Z" fill="url(#paint2_linear_2859_4106)"/>
<path d="M225.589 37.6278V48.4182H221.046V38.4481C221.046 36.4919 219.784 35.1037 218.017 35.1037C216.313 34.9775 214.862 36.2395 214.736 37.9433C214.736 38.0064 214.736 38.0695 214.736 38.1957V48.4182H210.192V38.4481C210.192 36.4919 208.93 35.1037 207.226 35.1037C205.27 35.1037 203.945 36.3657 203.945 38.1957V48.3551H199.149V31.5069H203.945V33.7154C204.829 32.0117 206.595 31.0021 208.488 31.1283C210.697 31.0652 212.779 32.2641 213.852 34.2203C214.736 32.3903 216.818 31.1283 219.342 31.1283C222.876 31.1283 225.589 33.8417 225.589 37.6278Z" fill="url(#paint3_linear_2859_4106)"/>
<path d="M244.583 38.3216V48.4179H239.976V46.7142C238.714 48.1024 236.885 48.8596 234.991 48.7965C231.395 48.7965 228.618 46.6511 228.618 43.4329C228.618 40.0885 231.71 37.8168 235.622 37.8168C237.074 37.8168 238.588 38.1323 239.913 38.6371V38.3216C239.913 36.5548 238.778 34.9772 236.001 34.9772C234.487 35.0403 232.972 35.4189 231.647 36.1762L230.069 33.0211C232.215 31.8221 234.676 31.1911 237.137 31.1911C241.554 31.128 244.583 33.9045 244.583 38.3216ZM239.976 43.0543V41.4767C238.841 41.035 237.579 40.8457 236.38 40.8457C234.676 40.8457 233.288 41.8553 233.288 43.2436C233.288 44.6318 234.487 45.4521 236.127 45.4521C237.894 45.5152 239.661 44.6318 239.976 43.0543Z" fill="url(#paint4_linear_2859_4106)"/>
<path d="M264.586 37.6276V48.3549H259.98V38.6372C259.98 36.5549 258.655 35.1035 256.762 35.1035C254.932 35.0404 253.354 36.4286 253.228 38.3217V38.3848L253.165 38.2586V48.3549H248.369V31.5067H253.165V33.6522C254.364 32.0115 256.257 31.065 258.276 31.1281C261.999 31.1281 264.586 33.8415 264.586 37.6276Z" fill="url(#paint5_linear_2859_4106)"/>
<path d="M285.978 25.5751V48.4179H281.182V46.0201C279.857 47.7869 277.711 48.8597 275.503 48.7966C271.022 48.7966 267.741 45.1366 267.741 39.9623C267.741 34.7879 271.022 31.128 275.503 31.128C277.711 31.0649 279.857 32.1377 281.182 33.9045V25.5751H285.978ZM281.245 39.9623C281.245 37.1858 279.478 35.1666 276.954 35.1666C274.304 35.1666 272.474 37.1858 272.474 39.9623C272.474 42.8019 274.304 44.8211 276.954 44.8211C279.415 44.758 281.245 42.8019 281.245 39.9623Z" fill="url(#paint6_linear_2859_4106)"/>
<path d="M96.4174 41.8335C97.2844 38.7744 97.2844 35.5822 96.4174 32.5896H103.687C104.687 32.5896 105.487 31.7916 105.487 30.794C105.487 30.661 105.487 30.4615 105.42 30.3285C101.619 16.2298 87.081 7.85043 72.943 11.6411C58.7382 15.4318 50.4021 29.9295 54.2034 44.0281C57.3378 55.5997 67.8079 63.58 79.8119 63.58H94.0166C95.6839 63.58 97.0176 64.9101 97.0176 66.5727V69.8978C97.0176 71.5604 95.6839 72.8905 94.0166 72.8905H79.5452C59.8719 72.8905 44 56.9962 44 37.3778C44 37.2448 44 37.1118 44 37.0453C44 37.0453 44 37.0453 44 36.9788C44.0667 17.2274 60.1387 1.33313 79.8786 1.33313C99.6852 1.39963 115.624 17.4269 115.557 37.1118C115.557 37.7103 115.557 38.3754 115.49 38.9739C115.424 40.57 114.09 41.767 112.556 41.767L96.4174 41.8335Z" fill="url(#paint7_linear_2859_4106)"/>
<path d="M97.4162 37.1186C97.4162 46.5749 89.7377 54.2457 80.2721 54.2457C74.9104 54.2457 69.8135 51.7328 66.57 47.3684C66.1067 46.7071 66.239 45.7813 66.8348 45.3184C67.0996 45.1201 67.4305 45.0539 67.6953 45.0539H78.882L81.5298 42.4088V31.8284L78.882 29.1833H67.6291C66.8348 29.1833 66.1729 28.522 66.1729 27.7285C66.1729 27.3979 66.3052 27.1334 66.4376 26.8688C72.0641 19.2642 82.7874 17.7432 90.3997 23.3641C94.9008 26.6043 97.4162 31.6962 97.4162 37.1186Z" fill="url(#paint8_linear_2859_4106)"/>
<path d="M109.764 63.9425C112.96 63.9425 115.558 66.5396 115.558 69.7359V70.868C115.558 72.0666 114.625 72.9989 113.427 72.9989H106.102C104.903 72.9989 103.971 72.0666 103.971 70.868V69.7359C103.971 66.5396 106.568 63.9425 109.764 63.9425Z" fill="url(#paint9_linear_2859_4106)"/>
<path d="M109.763 53.4208C111.894 53.4208 113.559 55.1521 113.559 57.2165C113.559 59.3474 111.828 61.0121 109.763 61.0121C107.632 61.0121 105.968 59.2808 105.968 57.2165C105.901 55.1521 107.632 53.4208 109.763 53.4208Z" fill="url(#paint10_linear_2859_4106)"/>
</g>
<defs>
<linearGradient id="paint0_linear_2859_4106" x1="134.782" y1="39.934" x2="151.864" y2="39.934" gradientUnits="userSpaceOnUse">
<stop stop-color="#1F4AC9"/>
<stop offset="0.385" stop-color="#183C9E"/>
<stop offset="1" stop-color="#163890"/>
</linearGradient>
<linearGradient id="paint1_linear_2859_4106" x1="155.421" y1="37.154" x2="176.347" y2="37.154" gradientUnits="userSpaceOnUse">
<stop stop-color="#1F4AC9"/>
<stop offset="0.385" stop-color="#183C9E"/>
<stop offset="1" stop-color="#163890"/>
</linearGradient>
<linearGradient id="paint2_linear_2859_4106" x1="178.982" y1="39.934" x2="196.063" y2="39.934" gradientUnits="userSpaceOnUse">
<stop stop-color="#1F4AC9"/>
<stop offset="0.385" stop-color="#183C9E"/>
<stop offset="1" stop-color="#163890"/>
</linearGradient>
<linearGradient id="paint3_linear_2859_4106" x1="199.192" y1="39.7679" x2="225.604" y2="39.7679" gradientUnits="userSpaceOnUse">
<stop stop-color="#1F4AC9"/>
<stop offset="0.385" stop-color="#183C9E"/>
<stop offset="1" stop-color="#163890"/>
</linearGradient>
<linearGradient id="paint4_linear_2859_4106" x1="228.639" y1="39.9952" x2="244.57" y2="39.9952" gradientUnits="userSpaceOnUse">
<stop stop-color="#1F4AC9"/>
<stop offset="0.385" stop-color="#183C9E"/>
<stop offset="1" stop-color="#163890"/>
</linearGradient>
<linearGradient id="paint5_linear_2859_4106" x1="248.487" y1="39.74" x2="264.614" y2="39.74" gradientUnits="userSpaceOnUse">
<stop stop-color="#1F4AC9"/>
<stop offset="0.385" stop-color="#183C9E"/>
<stop offset="1" stop-color="#163890"/>
</linearGradient>
<linearGradient id="paint6_linear_2859_4106" x1="267.782" y1="37.1871" x2="285.997" y2="37.1871" gradientUnits="userSpaceOnUse">
<stop stop-color="#1F4AC9"/>
<stop offset="0.385" stop-color="#183C9E"/>
<stop offset="1" stop-color="#163890"/>
</linearGradient>
<linearGradient id="paint7_linear_2859_4106" x1="44" y1="37.1118" x2="115.557" y2="37.1118" gradientUnits="userSpaceOnUse">
<stop stop-color="#1F4AC9"/>
<stop offset="0.385" stop-color="#183C9E"/>
<stop offset="1" stop-color="#163890"/>
</linearGradient>
<linearGradient id="paint8_linear_2859_4106" x1="66.1729" y1="37.1122" x2="97.4162" y2="37.1122" gradientUnits="userSpaceOnUse">
<stop stop-color="#1F4AC9"/>
<stop offset="0.385" stop-color="#183C9E"/>
<stop offset="1" stop-color="#163890"/>
</linearGradient>
<linearGradient id="paint9_linear_2859_4106" x1="103.971" y1="68.4707" x2="115.558" y2="68.4707" gradientUnits="userSpaceOnUse">
<stop stop-color="#1F4AC9"/>
<stop offset="0.385" stop-color="#183C9E"/>
<stop offset="1" stop-color="#163890"/>
</linearGradient>
<linearGradient id="paint10_linear_2859_4106" x1="105.966" y1="57.2165" x2="113.559" y2="57.2165" gradientUnits="userSpaceOnUse">
<stop stop-color="#1F4AC9"/>
<stop offset="0.385" stop-color="#183C9E"/>
<stop offset="1" stop-color="#163890"/>
</linearGradient>
<clipPath id="clip0_2859_4106">
<rect width="242" height="72" fill="white" transform="translate(44 1)"/>
</clipPath>
</defs>
</svg>
