<svg width="330" height="74" viewBox="0 0 330 74" fill="none" xmlns="http://www.w3.org/2000/svg">
<path d="M107.184 62.1594C107.184 63.8775 106.674 65.5571 105.72 66.9858C104.765 68.4144 103.409 69.5279 101.821 70.1855C100.234 70.8431 98.4873 71.0152 96.8021 70.6801C95.117 70.3449 93.5691 69.5176 92.3541 68.3028C91.1392 67.0879 90.3118 65.54 89.9765 63.8549C89.6413 62.1697 89.8133 60.423 90.4708 58.8357C91.1283 57.2483 92.2417 55.8915 93.6703 54.937C95.0988 53.9824 96.7784 53.4729 98.4966 53.4729C100.8 53.473 103.01 54.3881 104.639 56.0171C106.268 57.6461 107.183 59.8555 107.184 62.1594Z" fill="url(#paint0_linear_2859_4110)"/>
<path d="M73.7943 46.7995L78.4527 42.1406C79.9359 40.4408 80.89 38.3445 81.1977 36.1097C81.5055 33.8748 81.1534 31.5988 80.1849 29.5613C79.2163 27.5239 77.6735 25.8139 75.7461 24.6415C73.8187 23.4692 71.5907 22.8857 69.3361 22.9627C67.0815 23.0397 64.8985 23.7739 63.0556 25.075C61.2126 26.3761 59.7901 28.1873 58.9628 30.2861C58.1355 32.3849 57.9396 34.6797 58.3991 36.8883C58.8586 39.097 59.9535 41.1232 61.5492 42.7179L53.3582 50.9081C51.204 48.7591 49.4957 46.2056 48.3315 43.3944C47.1673 40.5831 46.57 37.5695 46.5741 34.5267C46.5741 21.7328 56.9449 11.3616 69.7395 11.3616C82.534 11.3616 92.9038 21.7327 92.9038 34.5267C92.9086 38.6589 91.8028 42.7164 89.7022 46.2748L93.9045 50.4768C97.0364 45.7475 98.703 40.1992 98.6955 34.5269C98.6955 18.5346 85.7313 5.56982 69.7393 5.56982C53.7473 5.56982 40.7822 18.5346 40.7822 34.5269C40.7822 50.5193 53.7466 63.4842 69.7392 63.4842C75.4108 63.4917 80.9584 61.8253 85.6871 58.6938L73.7943 46.7995Z" fill="url(#paint1_linear_2859_4110)"/>
<path d="M140.543 32.529V37H125.735V32.529H140.543ZM127.607 9.18071V37H121.875V9.18071H127.607ZM138.613 20.511V24.8673H125.735V20.511H138.613ZM140.524 9.18071V13.6708H125.735V9.18071H140.524ZM149.351 7.65218V37H143.829V7.65218H149.351ZM159.707 16.3266V37H154.185V16.3266H159.707ZM153.841 10.9385C153.841 10.136 154.121 9.47368 154.682 8.95143C155.242 8.42918 155.994 8.16806 156.936 8.16806C157.866 8.16806 158.611 8.42918 159.172 8.95143C159.745 9.47368 160.031 10.136 160.031 10.9385C160.031 11.741 159.745 12.4034 159.172 12.9256C158.611 13.4479 157.866 13.709 156.936 13.709C155.994 13.709 155.242 13.4479 154.682 12.9256C154.121 12.4034 153.841 11.741 153.841 10.9385ZM174.381 16.3266V20.2244H162.343V16.3266H174.381ZM165.324 11.2251H170.827V30.7712C170.827 31.3699 170.903 31.8285 171.056 32.1469C171.222 32.4654 171.464 32.6883 171.782 32.8156C172.1 32.9303 172.502 32.9876 172.986 32.9876C173.33 32.9876 173.635 32.9749 173.903 32.9494C174.183 32.9112 174.419 32.873 174.61 32.8347L174.629 36.8854C174.158 37.0382 173.648 37.1592 173.1 37.2484C172.553 37.3376 171.948 37.3821 171.285 37.3821C170.075 37.3821 169.018 37.1847 168.114 36.7898C167.222 36.3822 166.534 35.7326 166.05 34.8409C165.566 33.9493 165.324 32.7774 165.324 31.3253V11.2251ZM187.029 37.3821C185.424 37.3821 183.985 37.1274 182.711 36.6179C181.437 36.0956 180.355 35.3759 179.463 34.4588C178.584 33.5417 177.909 32.4781 177.438 31.268C176.966 30.0452 176.731 28.7459 176.731 27.3702V26.606C176.731 25.0392 176.954 23.6062 177.399 22.307C177.845 21.0077 178.482 19.8804 179.31 18.9251C180.151 17.9698 181.17 17.2373 182.367 16.7278C183.564 16.2056 184.915 15.9445 186.418 15.9445C187.883 15.9445 189.182 16.1865 190.316 16.6705C191.449 17.1546 192.398 17.8424 193.162 18.734C193.939 19.6257 194.525 20.6957 194.92 21.944C195.315 23.1795 195.513 24.5552 195.513 26.071V28.3638H179.081V24.6953H190.105V24.275C190.105 23.5107 189.965 22.8292 189.685 22.2306C189.417 21.6191 189.01 21.1351 188.462 20.7784C187.914 20.4218 187.214 20.2435 186.36 20.2435C185.634 20.2435 185.01 20.4027 184.488 20.7211C183.966 21.0396 183.539 21.4854 183.208 22.0586C182.889 22.6318 182.647 23.3069 182.482 24.0839C182.329 24.8482 182.252 25.6889 182.252 26.606V27.3702C182.252 28.1982 182.367 28.9625 182.596 29.663C182.838 30.3636 183.176 30.9687 183.609 31.4782C184.055 31.9877 184.59 32.3826 185.214 32.6628C185.851 32.943 186.571 33.0831 187.373 33.0831C188.367 33.0831 189.29 32.8921 190.144 32.5099C191.01 32.1151 191.755 31.5228 192.379 30.733L195.054 33.6372C194.621 34.2614 194.029 34.8601 193.277 35.4333C192.538 36.0065 191.647 36.4778 190.602 36.8471C189.558 37.2038 188.367 37.3821 187.029 37.3821ZM223.848 32.873L231.376 38.8342L227.765 41.9677L220.351 36.0065L223.848 32.873ZM231.567 22.4407V23.7591C231.567 25.8736 231.28 27.7715 230.707 29.4529C230.147 31.1343 229.338 32.5673 228.28 33.7519C227.223 34.9237 225.975 35.8218 224.536 36.4459C223.096 37.0701 221.498 37.3821 219.74 37.3821C217.995 37.3821 216.396 37.0701 214.944 36.4459C213.492 35.8218 212.237 34.9237 211.18 33.7519C210.123 32.5673 209.301 31.1343 208.715 29.4529C208.142 27.7715 207.855 25.8736 207.855 23.7591V22.4407C207.855 20.3135 208.142 18.4156 208.715 16.7469C209.301 15.0656 210.116 13.6326 211.161 12.4479C212.205 11.2633 213.454 10.359 214.906 9.7348C216.358 9.11065 217.956 8.79858 219.702 8.79858C221.459 8.79858 223.058 9.11065 224.497 9.7348C225.949 10.359 227.204 11.2633 228.261 12.4479C229.319 13.6326 230.134 15.0656 230.707 16.7469C231.28 18.4156 231.567 20.3135 231.567 22.4407ZM225.777 23.7591V22.4025C225.777 20.9249 225.637 19.6257 225.357 18.5048C225.09 17.3838 224.695 16.4412 224.173 15.677C223.663 14.9127 223.032 14.3395 222.281 13.9574C221.529 13.5625 220.67 13.3651 219.702 13.3651C218.733 13.3651 217.874 13.5625 217.122 13.9574C216.371 14.3395 215.74 14.9127 215.231 15.677C214.721 16.4412 214.333 17.3838 214.065 18.5048C213.798 19.6257 213.664 20.9249 213.664 22.4025V23.7591C213.664 25.2239 213.798 26.5232 214.065 27.6568C214.333 28.7778 214.721 29.7267 215.231 30.5037C215.753 31.268 216.39 31.8476 217.141 32.2424C217.906 32.6373 218.772 32.8347 219.74 32.8347C220.708 32.8347 221.561 32.6373 222.3 32.2424C223.052 31.8476 223.682 31.268 224.192 30.5037C224.714 29.7267 225.109 28.7778 225.376 27.6568C225.644 26.5232 225.777 25.2239 225.777 23.7591ZM247.597 32.0514V16.3266H253.1V37H247.922L247.597 32.0514ZM248.209 27.8097L249.833 27.7715C249.833 29.1472 249.674 30.4273 249.355 31.6119C249.037 32.7838 248.559 33.8028 247.922 34.669C247.285 35.5224 246.483 36.1912 245.515 36.6752C244.547 37.1465 243.407 37.3821 242.095 37.3821C241.088 37.3821 240.158 37.242 239.305 36.9618C238.464 36.6688 237.738 36.2166 237.127 35.6052C236.528 34.9811 236.057 34.185 235.713 33.2169C235.382 32.2361 235.216 31.0578 235.216 29.6822V16.3266H240.719V29.7204C240.719 30.3318 240.789 30.8477 240.929 31.268C241.082 31.6883 241.292 32.0323 241.56 32.2998C241.827 32.5673 242.139 32.7583 242.496 32.873C242.865 32.9876 243.273 33.0449 243.719 33.0449C244.852 33.0449 245.744 32.8156 246.394 32.3571C247.056 31.8985 247.521 31.2744 247.788 30.4846C248.069 29.6822 248.209 28.7905 248.209 27.8097ZM263.112 16.3266V37H257.59V16.3266H263.112ZM257.246 10.9385C257.246 10.136 257.526 9.47368 258.087 8.95143C258.647 8.42918 259.399 8.16806 260.341 8.16806C261.271 8.16806 262.016 8.42918 262.577 8.95143C263.15 9.47368 263.437 10.136 263.437 10.9385C263.437 11.741 263.15 12.4034 262.577 12.9256C262.016 13.4479 261.271 13.709 260.341 13.709C259.399 13.709 258.647 13.4479 258.087 12.9256C257.526 12.4034 257.246 11.741 257.246 10.9385ZM284.11 32.701V37H268.404V32.701H284.11ZM283.804 19.4983L270.621 37H266.933V33.7328L280.059 16.3266H283.804V19.4983ZM281.855 16.3266V20.6447H267.239V16.3266H281.855Z" fill="#70255B"/>
<path d="M142.49 61.5123L145.815 48.5694H147.557L147.363 51.9054L143.809 65.261H141.997L142.49 61.5123ZM140.003 48.5694L142.697 61.4091L142.938 65.261H141.012L137.148 48.5694H140.003ZM151.329 61.3747L153.989 48.5694H156.855L152.991 65.261H151.065L151.329 61.3747ZM148.234 48.5694L151.524 61.5467L152.006 65.261H150.194L146.698 51.9054L146.514 48.5694H148.234ZM163.813 65.4903C162.896 65.4903 162.067 65.3412 161.326 65.0432C160.592 64.7375 159.965 64.3133 159.446 63.7707C158.934 63.228 158.54 62.5899 158.265 61.8562C157.99 61.1225 157.852 60.3315 157.852 59.4831V59.0246C157.852 58.054 157.994 57.175 158.276 56.3879C158.559 55.6007 158.953 54.9281 159.457 54.3702C159.962 53.8046 160.558 53.3728 161.246 53.0748C161.933 52.7767 162.678 52.6277 163.481 52.6277C164.368 52.6277 165.143 52.7767 165.808 53.0748C166.473 53.3728 167.023 53.7932 167.459 54.3358C167.902 54.8708 168.231 55.5089 168.445 56.2503C168.667 56.9916 168.777 57.8094 168.777 58.7036V59.8844H159.193V57.9011H166.049V57.6833C166.034 57.1865 165.934 56.7203 165.751 56.2847C165.575 55.849 165.304 55.4975 164.937 55.23C164.57 54.9625 164.081 54.8288 163.47 54.8288C163.011 54.8288 162.602 54.9281 162.243 55.1268C161.891 55.3179 161.597 55.5968 161.36 55.9637C161.123 56.3305 160.94 56.7738 160.81 57.2935C160.688 57.8056 160.626 58.3826 160.626 59.0246V59.4831C160.626 60.0258 160.699 60.5302 160.844 60.9964C160.997 61.4549 161.219 61.8562 161.509 62.2001C161.8 62.544 162.151 62.8153 162.564 63.014C162.977 63.2051 163.447 63.3006 163.974 63.3006C164.639 63.3006 165.231 63.1669 165.751 62.8994C166.271 62.6319 166.721 62.2536 167.104 61.7645L168.56 63.1745C168.292 63.5643 167.944 63.9388 167.516 64.298C167.088 64.6496 166.565 64.9362 165.946 65.1578C165.334 65.3794 164.624 65.4903 163.813 65.4903ZM170.944 47.6523H173.707V62.6128L173.443 65.261H170.944V47.6523ZM181.8 58.9443V59.1851C181.8 60.1022 181.697 60.9467 181.491 61.7186C181.292 62.4829 180.986 63.1478 180.574 63.7133C180.169 64.2789 179.664 64.7184 179.061 65.0317C178.464 65.3374 177.773 65.4903 176.986 65.4903C176.214 65.4903 175.541 65.3451 174.968 65.0546C174.395 64.7642 173.913 64.3515 173.523 63.8165C173.141 63.2815 172.832 62.6434 172.595 61.902C172.358 61.1607 172.19 60.3429 172.09 59.4487V58.6807C172.19 57.7788 172.358 56.9611 172.595 56.2274C172.832 55.486 173.141 54.8479 173.523 54.3129C173.913 53.7702 174.391 53.3537 174.956 53.0633C175.53 52.7729 176.198 52.6277 176.963 52.6277C177.757 52.6277 178.457 52.7805 179.061 53.0862C179.672 53.3919 180.18 53.8276 180.585 54.3931C180.99 54.951 181.292 55.6159 181.491 56.3879C181.697 57.1598 181.8 58.0119 181.8 58.9443ZM179.038 59.1851V58.9443C179.038 58.3864 178.992 57.8629 178.9 57.3738C178.808 56.877 178.655 56.4414 178.441 56.0669C178.235 55.6924 177.952 55.3981 177.593 55.1841C177.242 54.9625 176.802 54.8517 176.275 54.8517C175.786 54.8517 175.365 54.9357 175.014 55.1039C174.662 55.272 174.368 55.5013 174.131 55.7917C173.894 56.0821 173.707 56.4184 173.569 56.8006C173.439 57.1827 173.351 57.5954 173.306 58.0387V60.1137C173.374 60.6869 173.52 61.2142 173.741 61.6957C173.971 62.1695 174.292 62.5517 174.704 62.8421C175.117 63.1249 175.648 63.2663 176.298 63.2663C176.81 63.2663 177.242 63.1631 177.593 62.9567C177.945 62.7504 178.224 62.4638 178.43 62.0969C178.644 61.7224 178.797 61.2868 178.889 60.79C178.988 60.2933 179.038 59.7583 179.038 59.1851ZM195.981 62.2116L200.372 48.5694H203.548L197.563 65.261H195.42L195.981 62.2116ZM191.923 48.5694L196.279 62.2116L196.876 65.261H194.72L188.759 48.5694H191.923ZM210.105 65.4903C209.188 65.4903 208.359 65.3412 207.617 65.0432C206.884 64.7375 206.257 64.3133 205.737 63.7707C205.225 63.228 204.832 62.5899 204.556 61.8562C204.281 61.1225 204.144 60.3315 204.144 59.4831V59.0246C204.144 58.054 204.285 57.175 204.568 56.3879C204.851 55.6007 205.244 54.9281 205.749 54.3702C206.253 53.8046 206.849 53.3728 207.537 53.0748C208.225 52.7767 208.97 52.6277 209.773 52.6277C210.659 52.6277 211.435 52.7767 212.1 53.0748C212.765 53.3728 213.315 53.7932 213.751 54.3358C214.194 54.8708 214.523 55.5089 214.737 56.2503C214.958 56.9916 215.069 57.8094 215.069 58.7036V59.8844H205.485V57.9011H212.341V57.6833C212.325 57.1865 212.226 56.7203 212.042 56.2847C211.867 55.849 211.595 55.4975 211.229 55.23C210.862 54.9625 210.373 54.8288 209.761 54.8288C209.303 54.8288 208.894 54.9281 208.534 55.1268C208.183 55.3179 207.889 55.5968 207.652 55.9637C207.415 56.3305 207.231 56.7738 207.101 57.2935C206.979 57.8056 206.918 58.3826 206.918 59.0246V59.4831C206.918 60.0258 206.991 60.5302 207.136 60.9964C207.289 61.4549 207.51 61.8562 207.801 62.2001C208.091 62.544 208.443 62.8153 208.855 63.014C209.268 63.2051 209.738 63.3006 210.266 63.3006C210.93 63.3006 211.523 63.1669 212.042 62.8994C212.562 62.6319 213.013 62.2536 213.395 61.7645L214.851 63.1745C214.584 63.5643 214.236 63.9388 213.808 64.298C213.38 64.6496 212.856 64.9362 212.237 65.1578C211.626 65.3794 210.915 65.4903 210.105 65.4903ZM219.998 55.2185V65.261H217.236V52.8569H219.872L219.998 55.2185ZM223.793 52.7767L223.77 55.3446C223.602 55.3141 223.419 55.2911 223.22 55.2758C223.029 55.2606 222.838 55.2529 222.647 55.2529C222.173 55.2529 221.756 55.3217 221.397 55.4593C221.038 55.5892 220.736 55.7803 220.491 56.0325C220.255 56.277 220.071 56.5751 219.941 56.9267C219.811 57.2782 219.735 57.6718 219.712 58.1075L219.081 58.1533C219.081 57.3738 219.158 56.6515 219.311 55.9866C219.463 55.3217 219.693 54.737 219.998 54.2326C220.312 53.7282 220.702 53.3346 221.168 53.0518C221.642 52.7691 222.188 52.6277 222.807 52.6277C222.975 52.6277 223.155 52.6429 223.346 52.6735C223.545 52.7041 223.694 52.7385 223.793 52.7767ZM232.483 61.902C232.483 61.6269 232.414 61.3785 232.276 61.1569C232.139 60.9276 231.875 60.7212 231.485 60.5378C231.103 60.3544 230.538 60.1863 229.789 60.0334C229.131 59.8882 228.528 59.7162 227.977 59.5175C227.435 59.3112 226.969 59.0628 226.579 58.7724C226.189 58.4819 225.887 58.138 225.673 57.7406C225.459 57.3432 225.352 56.8846 225.352 56.3649C225.352 55.8605 225.463 55.3828 225.685 54.9319C225.906 54.481 226.223 54.0836 226.636 53.7397C227.049 53.3958 227.549 53.1244 228.138 52.9257C228.734 52.727 229.399 52.6277 230.133 52.6277C231.172 52.6277 232.062 52.8034 232.804 53.155C233.553 53.4989 234.126 53.969 234.523 54.5651C234.921 55.1536 235.119 55.8185 235.119 56.5598H232.357C232.357 56.2312 232.273 55.9255 232.104 55.6427C231.944 55.3523 231.699 55.1192 231.371 54.9434C231.042 54.76 230.629 54.6683 230.133 54.6683C229.659 54.6683 229.265 54.7447 228.952 54.8975C228.646 55.0427 228.417 55.2338 228.264 55.4707C228.119 55.7077 228.046 55.9675 228.046 56.2503C228.046 56.4566 228.084 56.6439 228.161 56.812C228.245 56.9725 228.382 57.1215 228.574 57.2591C228.765 57.389 229.024 57.5113 229.353 57.626C229.689 57.7406 230.11 57.8514 230.614 57.9584C231.562 58.1571 232.376 58.4132 233.056 58.7265C233.744 59.0322 234.271 59.4296 234.638 59.9188C235.005 60.4003 235.188 61.0117 235.188 61.753C235.188 62.3033 235.07 62.8077 234.833 63.2663C234.604 63.7172 234.267 64.1108 233.824 64.447C233.381 64.7757 232.85 65.0317 232.231 65.2151C231.619 65.3986 230.931 65.4903 230.167 65.4903C229.044 65.4903 228.092 65.2916 227.313 64.8941C226.533 64.4891 225.941 63.9732 225.536 63.3465C225.138 62.7122 224.939 62.0549 224.939 61.3747H227.611C227.641 61.8868 227.783 62.2956 228.035 62.6013C228.295 62.8994 228.616 63.1172 228.998 63.2548C229.387 63.3847 229.789 63.4497 230.201 63.4497C230.698 63.4497 231.115 63.3847 231.451 63.2548C231.787 63.1172 232.043 62.9338 232.219 62.7045C232.395 62.4676 232.483 62.2001 232.483 61.902ZM240.565 52.8569V65.261H237.791V52.8569H240.565ZM237.607 49.6012C237.607 49.1808 237.745 48.8331 238.02 48.5579C238.303 48.2752 238.692 48.1338 239.189 48.1338C239.678 48.1338 240.064 48.2752 240.347 48.5579C240.63 48.8331 240.771 49.1808 240.771 49.6012C240.771 50.0139 240.63 50.3578 240.347 50.6329C240.064 50.9081 239.678 51.0456 239.189 51.0456C238.692 51.0456 238.303 50.9081 238.02 50.6329C237.745 50.3578 237.607 50.0139 237.607 49.6012ZM243.064 59.1965V58.9329C243.064 58.0387 243.194 57.2094 243.454 56.4452C243.714 55.6733 244.088 55.0045 244.577 54.439C245.074 53.8658 245.678 53.4225 246.389 53.1092C247.107 52.7882 247.917 52.6277 248.819 52.6277C249.728 52.6277 250.539 52.7882 251.249 53.1092C251.968 53.4225 252.575 53.8658 253.072 54.439C253.569 55.0045 253.947 55.6733 254.207 56.4452C254.467 57.2094 254.597 58.0387 254.597 58.9329V59.1965C254.597 60.0907 254.467 60.92 254.207 61.6842C253.947 62.4485 253.569 63.1172 253.072 63.6904C252.575 64.256 251.972 64.6993 251.261 65.0202C250.55 65.3336 249.744 65.4903 248.842 65.4903C247.932 65.4903 247.118 65.3336 246.4 65.0202C245.689 64.6993 245.086 64.256 244.589 63.6904C244.092 63.1172 243.714 62.4485 243.454 61.6842C243.194 60.92 243.064 60.0907 243.064 59.1965ZM245.827 58.9329V59.1965C245.827 59.7544 245.884 60.2818 245.999 60.7786C246.113 61.2753 246.293 61.711 246.538 62.0855C246.782 62.46 247.096 62.7542 247.478 62.9682C247.86 63.1822 248.315 63.2892 248.842 63.2892C249.354 63.2892 249.797 63.1822 250.172 62.9682C250.554 62.7542 250.867 62.46 251.112 62.0855C251.356 61.711 251.536 61.2753 251.651 60.7786C251.773 60.2818 251.834 59.7544 251.834 59.1965V58.9329C251.834 58.3826 251.773 57.8629 251.651 57.3738C251.536 56.877 251.352 56.4375 251.1 56.0554C250.856 55.6733 250.542 55.3752 250.16 55.1612C249.786 54.9396 249.339 54.8288 248.819 54.8288C248.299 54.8288 247.848 54.9396 247.466 55.1612C247.092 55.3752 246.782 55.6733 246.538 56.0554C246.293 56.4375 246.113 56.877 245.999 57.3738C245.884 57.8629 245.827 58.3826 245.827 58.9329ZM259.652 55.5051V65.261H256.89V52.8569H259.492L259.652 55.5051ZM259.159 58.6004L258.265 58.5889C258.273 57.71 258.395 56.9037 258.632 56.17C258.877 55.4363 259.213 54.8058 259.641 54.2785C260.077 53.7511 260.596 53.3461 261.2 53.0633C261.804 52.7729 262.476 52.6277 263.218 52.6277C263.814 52.6277 264.353 52.7117 264.834 52.8799C265.323 53.0404 265.74 53.304 266.084 53.6709C266.435 54.0377 266.703 54.5154 266.886 55.1039C267.07 55.6847 267.161 56.3993 267.161 57.2477V65.261H264.387V57.2362C264.387 56.6401 264.299 56.17 264.123 55.8261C263.955 55.4746 263.707 55.2262 263.378 55.081C263.057 54.9281 262.656 54.8517 262.175 54.8517C261.701 54.8517 261.277 54.951 260.902 55.1497C260.528 55.3485 260.21 55.6198 259.95 55.9637C259.698 56.3076 259.503 56.705 259.366 57.1559C259.228 57.6069 259.159 58.0883 259.159 58.6004Z" fill="#70255B"/>
<defs>
<linearGradient id="paint0_linear_2859_4110" x1="45.7488" y1="18.452" x2="101.862" y2="68.6172" gradientUnits="userSpaceOnUse">
<stop stop-color="#ED5387"/>
<stop offset="1" stop-color="#6D245A"/>
</linearGradient>
<linearGradient id="paint1_linear_2859_4110" x1="42.3831" y1="31.2869" x2="104.601" y2="66.6608" gradientUnits="userSpaceOnUse">
<stop stop-color="#ED5387"/>
<stop offset="1" stop-color="#6E245A"/>
</linearGradient>
</defs>
</svg>
