<svg width="330" height="74" viewBox="0 0 330 74" fill="none" xmlns="http://www.w3.org/2000/svg">
<g clip-path="url(#clip0_2859_4116)">
<path d="M121.483 73.0004C121.132 72.9968 120.676 72.9832 120.438 72.959C117.39 72.7069 114.911 70.4717 114.183 67.4017C113.73 65.5341 114.032 63.563 115.024 61.9171C116.017 60.2712 117.619 59.0837 119.482 58.6127C121.345 58.1418 123.319 58.4255 124.974 59.4022C126.629 60.3789 127.832 61.9697 128.32 63.8284C128.339 63.9009 128.357 63.9735 128.373 64.046C128.81 65.929 128.48 67.9083 127.458 69.5485C126.435 71.1887 124.802 72.3554 122.919 72.7921C122.85 72.8084 122.78 72.8235 122.71 72.8375C122.306 72.9255 121.896 72.98 121.483 73.0004Z" fill="url(#paint0_linear_2859_4116)"/>
<path d="M210.709 1.04291C211.447 1.13659 212.148 1.41798 212.746 1.86019C213.214 2.2052 213.607 2.64027 213.904 3.13977C214.201 3.63927 214.395 4.19311 214.474 4.76865C214.554 5.3442 214.517 5.92982 214.367 6.49102C214.216 7.05223 213.955 7.57767 213.599 8.03641C212.969 8.87071 212.048 9.43819 211.02 9.6266C210.035 9.82611 209.012 9.6775 208.125 9.20617C207.238 8.73484 206.542 7.97006 206.157 7.04254C205.967 6.60905 205.861 6.1438 205.843 5.67101C205.798 5.07176 205.877 4.46971 206.075 3.90225C206.322 3.19329 206.75 2.56165 207.318 2.0707C207.886 1.57976 208.573 1.24678 209.31 1.10518C209.548 1.04959 209.79 1.01632 210.034 1.0058C210.26 0.993956 210.486 1.00639 210.709 1.04291ZM210.164 2.42935C209.395 2.41623 208.653 2.70901 208.1 3.24331C207.547 3.7776 207.229 4.50965 207.215 5.27844C207.215 5.3056 207.215 5.33243 207.215 5.3596C207.214 5.7468 207.29 6.13039 207.437 6.48849C207.584 6.84658 207.801 7.17215 208.074 7.44661C208.347 7.72108 208.671 7.93907 209.029 8.08813C209.386 8.23719 209.769 8.3144 210.157 8.31536H210.193C210.973 8.3022 211.716 7.98422 212.264 7.42955C212.812 6.87488 213.121 6.12766 213.125 5.348C213.122 4.96193 213.043 4.58016 212.893 4.22447C212.743 3.86879 212.524 3.54616 212.25 3.27501C211.975 3.00386 211.649 2.78951 211.291 2.64418C210.934 2.49885 210.551 2.42541 210.165 2.42802L210.164 2.42935Z" fill="url(#paint1_linear_2859_4116)"/>
<path d="M117.211 54.5943C116.951 54.4118 113.979 51.4444 113.769 51.1535C113.808 51.0724 113.845 50.9793 113.894 50.8925C114.883 49.1474 115.596 47.2601 116.008 45.2973C116.19 44.4238 116.313 43.5391 116.377 42.649C116.425 42.0387 116.443 41.4264 116.429 40.8143C116.32 36.2896 114.649 31.9419 111.7 28.5086C108.751 25.0753 104.705 22.7679 100.249 21.9776C99.4466 21.8252 98.6336 21.7384 97.8175 21.7179C97.5247 21.7135 97.2321 21.6711 96.9396 21.6735C93.8146 21.6682 90.7332 22.4063 87.9498 23.8268C84.9846 25.3362 82.4541 27.5778 80.5979 30.3392C78.7418 33.1006 77.6216 36.2902 77.3435 39.6058C77.2595 40.5336 77.2461 41.4664 77.3035 42.3962C77.4996 45.8923 78.6373 49.2702 80.5961 52.1726C81.2275 53.117 81.9422 54.003 82.7316 54.8199C82.8079 54.9293 82.9154 55.0131 83.0401 55.0604C83.1726 55.0273 83.257 54.9077 83.3541 54.8116C83.9968 54.1736 84.6383 53.5342 85.2786 52.8935C86.7314 51.4418 88.1838 49.9897 89.6357 48.5373C89.7424 48.4307 89.8427 48.3174 89.9338 48.2206C89.8901 48.0756 89.8018 47.9481 89.6814 47.8562C88.7022 46.7905 87.9746 45.5187 87.5522 44.1345C87.2136 43.0482 87.0722 41.9101 87.1345 40.7739C87.2186 39.1543 87.7068 37.5815 88.5545 36.199C89.4022 34.8164 90.5825 33.668 91.9878 32.8584C93.0349 32.2411 94.1936 31.8368 95.3975 31.6688C97.8981 31.294 100.447 31.9067 102.504 33.3773C104.561 34.8479 105.965 37.061 106.419 39.5485C106.55 40.2896 106.595 41.0435 106.552 41.795C106.473 43.4595 105.959 45.0744 105.061 46.478C104.73 47.009 104.339 47.5003 103.897 47.9423C102.782 49.0466 101.673 50.1561 100.568 51.2708C100.441 51.3638 100.341 51.4898 100.28 51.6352C100.312 51.6865 100.348 51.7356 100.386 51.7823C100.472 51.8761 100.564 51.9649 100.654 52.055C103.73 55.1307 106.806 58.2066 109.882 61.2827C109.999 61.3772 110.099 61.4912 110.178 61.6196C109.546 62.3004 106.093 63.9552 103.998 64.586C99.804 65.876 95.339 66.0058 91.0775 64.9613C86.9077 63.9693 83.0815 61.8738 80.0001 58.8944C75.3298 54.4255 72.6259 48.2843 72.4835 41.8218C72.341 35.3593 74.7716 29.1048 79.2405 24.4344C79.3534 24.3165 79.4674 24.1996 79.5827 24.0839C81.8475 21.8168 84.5367 20.018 87.4967 18.7902C90.4566 17.5624 93.6295 16.9296 96.834 16.928C100.039 16.9264 103.212 17.556 106.173 18.7808C109.134 20.0057 111.825 21.8018 114.092 24.0667C114.242 24.2155 114.389 24.3663 114.534 24.5189C117.861 28.026 120.071 32.4437 120.88 37.2101C121.69 41.9764 121.063 46.8759 119.08 51.285C118.465 52.6586 117.545 54.2826 117.211 54.5943Z" fill="url(#paint2_linear_2859_4116)"/>
<path d="M145.009 55.8547C144.857 55.8809 144.716 55.9468 144.598 56.0455C143.437 56.7654 142.214 57.3777 140.942 57.8749C139.776 58.3265 138.56 58.6358 137.32 58.7962C136.193 58.939 135.055 58.9791 133.921 58.9158C132.76 58.8662 131.612 58.6416 130.518 58.2496C129.546 57.9063 128.654 57.3706 127.894 56.6746C127.134 55.9785 126.522 55.1364 126.094 54.1986C125.625 53.1774 125.311 52.0922 125.161 50.9785C125.039 50.094 124.984 49.2014 124.997 48.3086C125.002 42.4404 125.005 36.5725 125.008 30.7049C125.008 30.5264 125.013 30.3475 125.01 30.1692C125.033 29.8296 125.174 29.5088 125.409 29.2623C125.644 29.0159 125.957 28.8593 126.295 28.8199C126.409 28.8086 126.525 28.8113 126.64 28.8113H135.136C135.289 28.8027 135.443 28.8103 135.594 28.8338C135.814 28.8787 136.021 28.971 136.201 29.1043C136.382 29.2375 136.531 29.4085 136.639 29.6054C136.722 29.7497 136.768 29.9128 136.771 30.0795C136.776 30.2835 136.782 30.4876 136.782 30.6917C136.786 35.7429 136.792 40.7944 136.797 45.8462C136.786 46.4202 136.825 46.9941 136.915 47.5612C136.97 47.9145 137.076 48.2582 137.228 48.5819C137.377 48.9248 137.635 49.209 137.962 49.3906C138.289 49.5721 138.666 49.641 139.036 49.5864C139.722 49.5199 140.397 49.3666 141.045 49.1302C141.2 49.0746 141.347 48.9977 141.5 48.9315C142.028 48.7075 142.557 48.4855 143.085 48.2609C143.226 48.201 143.362 48.132 143.501 48.0688C143.561 48.0443 143.611 48.0014 143.644 47.9464C143.677 47.8914 143.692 47.8273 143.686 47.7633C143.684 47.6103 143.688 47.4572 143.688 47.3042L143.695 30.7728C143.695 30.5814 143.691 30.3899 143.698 30.1987C143.717 29.8456 143.863 29.5114 144.109 29.2576C144.356 29.0039 144.685 28.8477 145.038 28.8179C145.165 28.8096 145.293 28.8119 145.42 28.8119H153.764C153.854 28.8119 153.943 28.8166 154.032 28.8119C154.399 28.8181 154.749 28.9651 155.011 29.2225C155.272 29.4799 155.425 29.828 155.437 30.1947C155.437 30.3478 155.439 30.5009 155.439 30.6539C155.441 39.2643 155.444 47.8747 155.447 56.4852C155.447 56.6508 155.451 56.8165 155.441 56.9821C155.419 57.3356 155.266 57.6682 155.012 57.9154C154.759 58.1625 154.422 58.3067 154.068 58.3198H153.877C151.695 58.3198 149.513 58.3162 147.332 58.3235C146.986 58.3299 146.646 58.2393 146.349 58.0621C146.127 57.9324 145.951 57.7376 145.845 57.5042C145.629 57.0424 145.397 56.5879 145.17 56.1317C145.125 56.0439 145.07 55.9591 145.009 55.8547Z" fill="url(#paint3_linear_2859_4116)"/>
<path d="M187.322 48.2508C187.388 48.2767 187.456 48.2967 187.526 48.3104C187.653 48.3174 187.781 48.3164 187.908 48.3164H196.06C196.213 48.3164 196.366 48.3207 196.519 48.319C196.891 48.3406 197.242 48.4994 197.504 48.7647C197.766 49.03 197.92 49.3829 197.937 49.7552C197.935 49.8572 197.938 49.9593 197.938 50.0613V56.6059C197.938 56.7079 197.935 56.81 197.936 56.912C197.921 57.2785 197.769 57.626 197.511 57.8863C197.252 58.1465 196.906 58.3008 196.539 58.3187C196.412 58.3213 196.284 58.3213 196.157 58.3213H172.812C172.71 58.3213 172.608 58.3177 172.506 58.3213C172.139 58.3157 171.788 58.1695 171.525 57.9128C171.262 57.6561 171.108 57.3085 171.094 56.9415C171.091 56.8391 171.091 56.7374 171.09 56.635V50.8574C171.09 50.7808 171.094 50.7043 171.09 50.6275C171.088 50.5638 171.098 50.5002 171.121 50.4408C171.145 50.3815 171.18 50.3275 171.225 50.2823C171.396 50.0934 171.561 49.8986 171.729 49.7065L177.022 43.6605C178.299 42.2028 179.577 40.7441 180.854 39.2845C180.942 39.1831 181.061 39.0963 181.077 38.9615C181.034 38.868 180.964 38.8723 180.904 38.8697C180.777 38.8641 180.649 38.8647 180.521 38.8647C178.199 38.8647 175.877 38.8639 173.556 38.8624C173.352 38.868 173.149 38.8501 172.949 38.8091C172.679 38.7518 172.431 38.6157 172.238 38.4179C172.045 38.2201 171.915 37.9694 171.864 37.6976C171.818 37.4858 171.798 37.2692 171.804 37.0526C171.808 35.9176 171.825 34.7826 171.831 33.6479C171.837 32.6401 171.834 31.6327 171.836 30.6249C171.836 30.4593 171.843 30.2936 171.848 30.128C171.876 29.8015 172.02 29.4958 172.254 29.266C172.487 29.0363 172.795 28.8977 173.122 28.8754C173.262 28.8734 173.403 28.8684 173.543 28.8684H195.664C195.804 28.8684 195.945 28.8754 196.085 28.8767C196.366 28.9008 196.633 29.0102 196.85 29.1903C197.067 29.3703 197.224 29.6124 197.3 29.8841C197.347 30.0824 197.373 30.2853 197.376 30.4891C197.383 32.5682 197.379 34.6471 197.385 36.7262C197.388 36.8208 197.372 36.9149 197.339 37.0033C197.305 37.0916 197.254 37.1723 197.188 37.2407C196.094 38.4515 195.002 39.6662 193.914 40.8849C192.201 42.792 190.487 44.699 188.773 46.6059C188.381 47.0422 187.987 47.4769 187.595 47.9142C187.513 48.0043 187.439 48.1054 187.322 48.2508Z" fill="url(#paint4_linear_2859_4116)"/>
<path d="M157.923 43.1819V29.9042C157.923 29.7256 157.923 29.5471 157.929 29.3685C157.943 29.0211 158.076 28.6889 158.304 28.427C158.395 28.3103 158.51 28.2155 158.642 28.1493C158.774 28.0832 158.919 28.0476 159.066 28.045C159.155 28.0423 159.245 28.04 159.334 28.0397C161.63 28.0397 163.927 28.045 166.225 28.0364C166.892 28.0524 167.537 28.2779 168.069 28.6811C168.17 28.7588 168.265 28.8446 168.352 28.9378C168.441 29.0204 168.511 29.1215 168.557 29.2339C168.603 29.3463 168.624 29.4674 168.619 29.5888C168.61 29.9201 168.619 30.2514 168.619 30.5827C168.623 39.1929 168.626 47.803 168.63 56.4132C168.63 56.6173 168.63 56.8214 168.619 57.0248C168.598 57.3719 168.457 57.701 168.222 57.9567C168.129 58.0711 168.011 58.163 167.878 58.2257C167.744 58.2884 167.598 58.3202 167.451 58.3188H159.297C158.953 58.3377 158.615 58.2192 158.359 57.9893C158.102 57.7595 157.947 57.4371 157.928 57.0931V57.0722C157.908 56.8698 157.911 56.6647 157.911 56.4606V43.1789L157.923 43.1819Z" fill="url(#paint5_linear_2859_4116)"/>
<path d="M168.693 21.1227C168.698 21.829 168.564 22.5294 168.298 23.184C168.033 23.8385 167.641 24.4342 167.145 24.9373C166.649 25.4403 166.059 25.8407 165.408 26.1156C164.757 26.3905 164.059 26.5346 163.353 26.5396H163.273C161.834 26.5425 160.453 25.9738 159.433 24.9587C158.414 23.9436 157.839 22.5651 157.836 21.1263V21.0905C157.837 20.3783 157.978 19.6732 158.251 19.0155C158.524 18.3577 158.924 17.7602 159.428 17.2571C159.932 16.7539 160.531 16.355 161.189 16.0831C161.847 15.8112 162.553 15.6716 163.265 15.6723H163.269C163.975 15.6663 164.676 15.7995 165.331 16.0643C165.986 16.3291 166.582 16.7203 167.086 17.2156C167.59 17.7109 167.991 18.3006 168.267 18.9509C168.543 19.6013 168.688 20.2996 168.694 21.0061C168.694 21.0435 168.694 21.0833 168.693 21.1227Z" fill="url(#paint6_linear_2859_4116)"/>
<path d="M229.001 44.0748H223.493C223.11 44.0816 222.729 44.0296 222.362 43.9204C221.73 43.723 221.177 43.3303 220.782 42.7988C220.388 42.2672 220.172 41.6243 220.166 40.9623C220.158 40.0445 220.158 39.1266 220.166 38.2087C220.17 37.4682 220.437 36.7533 220.921 36.1927C221.405 35.632 222.073 35.2623 222.805 35.1502C223.006 35.1195 223.209 35.1018 223.412 35.0972C227.148 35.0939 230.884 35.093 234.62 35.0946C235.055 35.0821 235.488 35.1595 235.891 35.3218C236.295 35.4841 236.661 35.728 236.966 36.0381C237.537 36.6002 237.863 37.3658 237.871 38.1673C237.891 39.1101 237.898 40.0556 237.871 40.9971C237.86 41.7253 237.593 42.4263 237.117 42.9775C236.641 43.5287 235.987 43.8949 235.268 44.0119C235.004 44.0516 234.737 44.0719 234.47 44.0725C232.648 44.0771 230.824 44.0748 229.001 44.0748ZM229.025 42.64H234.382C234.586 42.6412 234.79 42.6285 234.992 42.6019C235.246 42.5682 235.488 42.4753 235.7 42.3307C235.912 42.1861 236.086 41.9938 236.21 41.7694C236.381 41.468 236.465 41.1253 236.453 40.7791V38.4074C236.453 38.3564 236.453 38.3054 236.451 38.2544C236.446 37.8019 236.266 37.3691 235.949 37.0466C235.631 36.7241 235.201 36.537 234.749 36.5247C234.66 36.5191 234.571 36.5208 234.481 36.5208H223.539C223.437 36.5208 223.334 36.5208 223.233 36.5284C222.834 36.5497 222.455 36.708 222.159 36.9765C221.863 37.245 221.669 37.6073 221.61 38.0023C221.591 38.1284 221.582 38.2558 221.585 38.3833C221.583 39.1863 221.583 39.9896 221.585 40.7931V40.908C221.587 41.3402 221.751 41.7559 222.045 42.0732C222.338 42.3905 222.74 42.5864 223.171 42.6224C223.336 42.637 223.502 42.6403 223.668 42.6403C225.454 42.6403 227.24 42.6403 229.026 42.6403L229.025 42.64Z" fill="url(#paint7_linear_2859_4116)"/>
<path d="M209.652 44.0737H204.105C203.748 44.0777 203.392 44.0313 203.048 43.9359C202.4 43.7462 201.831 43.3527 201.425 42.8139C201.02 42.275 200.798 41.6196 200.795 40.945C200.8 40.0395 200.8 39.1339 200.795 38.2284C200.795 37.4885 201.058 36.7728 201.538 36.2092C202.017 35.6457 202.682 35.2711 203.412 35.1524C203.613 35.1193 203.816 35.1004 204.02 35.0957C207.781 35.0924 211.543 35.0924 215.304 35.0957C215.894 35.0863 216.475 35.2446 216.979 35.5523C217.435 35.8169 217.814 36.1948 218.08 36.6492C218.346 37.1036 218.49 37.6191 218.497 38.1456C218.536 39.1 218.535 40.0588 218.5 41.0136C218.487 41.7485 218.213 42.4546 217.726 43.0052C217.239 43.5558 216.571 43.9148 215.844 44.0177C215.591 44.0501 215.337 44.0677 215.082 44.0704C213.272 44.0752 211.462 44.0763 209.652 44.0737ZM209.659 36.518H204.302C204.175 36.518 204.047 36.514 203.92 36.5226C203.521 36.5366 203.138 36.6834 202.833 36.9397C202.636 37.1042 202.479 37.3105 202.373 37.5437C202.266 37.7768 202.214 38.0309 202.218 38.2871C202.216 38.9884 202.218 39.6897 202.218 40.3911C202.218 40.5826 202.213 40.774 202.222 40.9649C202.235 41.3704 202.392 41.758 202.664 42.0585C202.937 42.359 203.307 42.5529 203.71 42.6054C203.861 42.627 204.014 42.6381 204.167 42.6385C207.827 42.6403 211.488 42.6403 215.148 42.6385C215.327 42.6409 215.505 42.6249 215.68 42.5908C216.01 42.5351 216.315 42.3807 216.555 42.1478C216.795 41.915 216.959 41.6148 217.025 41.2869C217.068 41.0876 217.088 40.8841 217.084 40.6803C217.091 39.9515 217.088 39.2266 217.088 38.4994C217.088 38.3974 217.089 38.2953 217.081 38.1936C217.061 37.748 216.872 37.3268 216.551 37.0162C216.231 36.7056 215.804 36.529 215.358 36.5226C215.231 36.516 215.103 36.5193 214.976 36.5193L209.659 36.518Z" fill="url(#paint8_linear_2859_4116)"/>
<path d="M248.359 44.0731H242.848C242.452 44.0799 242.057 44.0222 241.68 43.9021C241.064 43.6969 240.527 43.3055 240.143 42.782C239.759 42.2585 239.547 41.6287 239.536 40.9795C239.526 40.0486 239.519 39.117 239.539 38.1861C239.545 37.4511 239.812 36.7422 240.293 36.1861C240.774 35.63 241.436 35.2631 242.163 35.1508C242.377 35.1187 242.592 35.1001 242.809 35.0952C246.534 35.0919 250.259 35.091 253.984 35.0925C254.419 35.0806 254.852 35.1576 255.256 35.3189C255.66 35.4802 256.027 35.7223 256.335 36.0304C256.661 36.3565 256.91 36.7516 257.063 37.1866C257.133 37.3651 257.171 37.5543 257.175 37.7458C257.173 38.957 257.174 40.1683 257.177 41.3797C257.176 41.597 257.133 41.8121 257.05 42.0128C256.864 42.5328 256.541 42.9928 256.116 43.3443C255.69 43.6958 255.177 43.9257 254.631 44.0095C254.38 44.0517 254.125 44.0716 253.87 44.0691C252.033 44.0751 250.196 44.0764 248.359 44.0731ZM248.394 36.5177H242.884C242.629 36.5107 242.374 36.5469 242.131 36.6247C241.79 36.7399 241.493 36.9591 241.283 37.2516C241.072 37.5441 240.959 37.8951 240.959 38.2553C240.947 38.7652 240.956 39.2754 240.956 39.7856C240.956 40.1682 240.947 40.5512 240.961 40.9331C240.967 41.3523 241.127 41.7545 241.41 42.0641C241.692 42.3737 242.079 42.5692 242.495 42.6138C242.635 42.6308 242.775 42.6389 242.915 42.6379C246.563 42.6393 250.21 42.6393 253.858 42.6379C254.036 42.638 254.214 42.6243 254.391 42.5969C254.72 42.5446 255.027 42.3949 255.271 42.167C255.515 41.9391 255.685 41.6435 255.759 41.3181C255.8 41.1314 255.821 40.941 255.822 40.7499C255.829 40.036 255.826 39.3217 255.826 38.6075C255.826 38.4929 255.829 38.3779 255.824 38.2633C255.822 37.811 255.645 37.3771 255.33 37.0527C255.015 36.7282 254.587 36.5385 254.135 36.5233C254.007 36.5147 253.879 36.5187 253.752 36.5184L248.394 36.5177Z" fill="url(#paint9_linear_2859_4116)"/>
<path d="M244.666 56.8139C244.719 56.8401 244.775 56.86 244.832 56.8732C244.934 56.8835 245.036 56.8875 245.137 56.8852H251.64C251.804 56.9178 251.975 56.8884 252.119 56.8027C252.167 56.644 252.181 56.4769 252.16 56.3124C252.163 52.9332 252.164 49.5541 252.163 46.1749C252.157 46.0348 252.161 45.8944 252.175 45.7549C252.188 45.6403 252.23 45.5308 252.295 45.4358C252.36 45.3408 252.448 45.2631 252.55 45.2093C252.652 45.1556 252.766 45.1274 252.881 45.1273C252.996 45.1272 253.11 45.155 253.212 45.2086C253.317 45.2574 253.407 45.3336 253.472 45.4291C253.537 45.5247 253.575 45.6361 253.582 45.7515C253.591 45.8655 253.591 45.9808 253.591 46.0954C253.593 49.8443 253.593 53.5933 253.594 57.3423C253.594 57.4444 253.589 57.5464 253.589 57.6481C253.582 57.8219 253.51 57.9867 253.387 58.11C253.265 58.2333 253.1 58.3062 252.926 58.3143C252.837 58.3206 252.748 58.319 252.659 58.319H244.088C243.986 58.3233 243.884 58.3196 243.783 58.3081C243.63 58.2868 243.489 58.2146 243.382 58.1031C243.276 57.9917 243.21 57.8475 243.195 57.6938C243.191 57.5792 243.187 57.4646 243.187 57.35C243.187 53.6011 243.187 49.8522 243.189 46.1034C243.189 45.9887 243.187 45.8715 243.197 45.7595C243.21 45.6056 243.274 45.4605 243.379 45.3473C243.484 45.2342 243.624 45.1595 243.777 45.1354C243.929 45.111 244.085 45.1369 244.221 45.2091C244.357 45.2813 244.466 45.3959 244.532 45.5355C244.575 45.6412 244.602 45.7529 244.612 45.8668C244.621 45.9941 244.623 46.1217 244.618 46.2491C244.618 49.6027 244.618 52.9563 244.62 56.3101C244.6 56.4794 244.616 56.651 244.666 56.8139Z" fill="url(#paint10_linear_2859_4116)"/>
<path d="M225.3 56.8201C225.367 56.8449 225.436 56.8639 225.507 56.8771C225.608 56.8852 225.71 56.8876 225.812 56.8844H232.239C232.411 56.9055 232.586 56.8834 232.747 56.8201C232.766 56.7518 232.781 56.6822 232.79 56.6117C232.798 56.4849 232.794 56.357 232.794 56.2294C232.794 52.8755 232.795 49.5216 232.796 46.1678C232.789 46.0277 232.793 45.8874 232.807 45.7478C232.822 45.627 232.868 45.5121 232.94 45.4142C233.012 45.3163 233.108 45.2386 233.219 45.1887C233.33 45.1388 233.452 45.1183 233.574 45.1292C233.695 45.14 233.811 45.182 233.911 45.2508C233.999 45.3044 234.072 45.3784 234.125 45.4665C234.178 45.5546 234.209 45.6542 234.214 45.7567C234.223 45.8969 234.224 46.037 234.224 46.1775C234.224 49.8753 234.225 53.5733 234.227 57.2713C234.227 57.3989 234.229 57.5268 234.218 57.6536C234.21 57.8276 234.137 57.9922 234.013 58.1145C233.889 58.2367 233.723 58.3076 233.549 58.3129C233.46 58.3205 233.371 58.3172 233.281 58.3172H224.749C224.647 58.3172 224.545 58.3205 224.443 58.3109C224.283 58.2949 224.134 58.2238 224.021 58.1096C223.908 57.9955 223.838 57.8455 223.823 57.6854C223.817 57.5711 223.813 57.4562 223.813 57.3412C223.813 53.5924 223.814 49.8435 223.816 46.0946C223.814 45.9798 223.817 45.8649 223.826 45.7504C223.84 45.5967 223.905 45.4521 224.011 45.3399C224.117 45.2277 224.258 45.1544 224.411 45.1319C224.557 45.1103 224.706 45.1347 224.838 45.2017C224.969 45.2686 225.077 45.3748 225.146 45.5056C225.196 45.6214 225.228 45.7443 225.24 45.87C225.25 45.9971 225.252 46.1247 225.246 46.252C225.246 49.6058 225.246 52.9593 225.248 56.3126C225.225 56.4835 225.243 56.6574 225.3 56.8201Z" fill="url(#paint11_linear_2859_4116)"/>
<path d="M205.926 56.8148C205.979 56.8403 206.034 56.8598 206.091 56.8728C206.193 56.883 206.295 56.887 206.397 56.8847H212.901C213.066 56.9172 213.236 56.888 213.381 56.8025C213.431 56.6444 213.445 56.4773 213.424 56.3129C213.426 52.9337 213.427 49.5546 213.427 46.1754C213.421 46.0353 213.424 45.8948 213.436 45.755C213.45 45.631 213.497 45.513 213.572 45.4129C213.647 45.3128 213.747 45.2342 213.861 45.185C213.976 45.1358 214.102 45.1178 214.226 45.1327C214.35 45.1476 214.468 45.195 214.567 45.27C214.647 45.3239 214.713 45.3953 214.761 45.4787C214.809 45.562 214.837 45.6552 214.843 45.7511C214.852 45.8783 214.852 46.0062 214.852 46.1337C214.852 49.8572 214.853 53.5806 214.854 57.3041C214.854 57.4184 214.857 57.534 214.848 57.6483C214.842 57.8222 214.77 57.9873 214.647 58.1106C214.524 58.2339 214.36 58.3065 214.186 58.3139C214.097 58.3218 214.008 58.3185 213.918 58.3185H205.348C205.258 58.3213 205.169 58.3193 205.08 58.3125C204.92 58.299 204.769 58.2294 204.655 58.116C204.541 58.0026 204.471 57.8526 204.456 57.6924C204.444 57.5782 204.44 57.4635 204.442 57.3488C204.442 53.6 204.443 49.851 204.444 46.1019C204.444 45.9873 204.451 45.8726 204.456 45.758C204.468 45.597 204.536 45.4455 204.649 45.3303C204.762 45.2151 204.913 45.1436 205.073 45.1286C205.227 45.1115 205.382 45.1455 205.514 45.2252C205.646 45.305 205.749 45.4261 205.805 45.5698C205.843 45.6777 205.865 45.7902 205.871 45.9041C205.883 46.0307 205.875 46.1589 205.875 46.2864C205.875 49.6276 205.876 52.9685 205.878 56.3092C205.858 56.4792 205.874 56.6516 205.926 56.8148Z" fill="url(#paint12_linear_2859_4116)"/>
<path d="M108.774 11.6983C108.753 11.6261 108.737 11.5525 108.726 11.478C108.719 11.3634 108.722 11.2488 108.722 11.1338C108.722 9.73147 108.718 8.32847 108.725 6.92646C108.735 5.10437 108.755 3.28029 108.771 1.45721C108.775 1.05039 108.807 1.0146 109.204 1.01427C110.952 1.01184 112.699 1.01184 114.446 1.01427H114.523C114.828 1.02752 114.868 1.0643 114.873 1.37869C114.878 1.72323 114.877 2.06744 114.869 2.41198C114.865 2.60512 114.809 2.65216 114.611 2.6621C114.509 2.6674 114.407 2.66475 114.305 2.66475H111.282C110.818 2.66475 110.805 2.67867 110.804 3.13187C110.804 3.75734 110.805 4.38226 110.807 5.00663C110.807 5.05732 110.807 5.10867 110.81 5.15936C110.823 5.42141 110.86 5.46613 111.135 5.46779C112.04 5.47342 112.946 5.47044 113.851 5.47144C113.966 5.47144 114.081 5.46878 114.195 5.47607C114.351 5.48567 114.411 5.53371 114.414 5.68312C114.422 6.09105 114.423 6.49898 114.417 6.9069C114.417 7.03478 114.354 7.08547 114.222 7.09574C114.121 7.10369 114.018 7.10204 113.916 7.10204H111.353C111.201 7.10204 111.05 7.11098 110.889 7.11595C110.856 7.18994 110.833 7.2679 110.821 7.34785C110.818 8.17607 110.821 9.00429 110.824 9.83251C110.828 9.86813 110.838 9.90301 110.851 9.93621C110.894 9.9762 110.945 10.0058 111.001 10.0227C111.057 10.0396 111.116 10.0433 111.174 10.0336C111.455 10.0369 111.735 10.0356 112.016 10.0356H114.35C114.501 10.0356 114.653 10.0469 114.813 10.0532C114.846 10.1261 114.871 10.2023 114.887 10.2804C114.927 10.7399 114.909 11.2026 114.831 11.6573C114.704 11.7089 114.566 11.7255 114.43 11.7053C113.703 11.7079 112.976 11.7053 112.249 11.7053H109.226C109.087 11.7099 108.948 11.7033 108.774 11.6983Z" fill="url(#paint13_linear_2859_4116)"/>
<path d="M82.3859 7.11802C82.3055 7.24011 82.2703 7.3865 82.2866 7.5318C82.2866 8.22066 82.2877 8.90918 82.2899 9.59738C82.2929 10.0095 82.318 10.036 82.7225 10.0373C83.7827 10.041 84.8395 10.0373 85.8979 10.04C86.0461 10.0192 86.1972 10.0373 86.3362 10.0927C86.4124 10.6146 86.4124 11.1447 86.3362 11.6666C86.2075 11.7131 86.0693 11.7275 85.9337 11.7087C84.9644 11.7107 83.9951 11.7107 83.026 11.7087H80.6921C80.5465 11.7266 80.3987 11.709 80.2614 11.6573C80.2451 11.587 80.2333 11.5158 80.2259 11.444C80.2193 11.3171 80.2223 11.1892 80.2226 11.062C80.2275 7.88694 80.2326 4.71198 80.2379 1.53713C80.2379 1.01402 80.2379 1.01303 80.7726 1.0127H85.8605C86.3803 1.0127 86.3806 1.01468 86.3806 1.55071C86.3806 1.84357 86.3839 2.13743 86.377 2.43029C86.3727 2.60587 86.3213 2.65125 86.1424 2.66218C86.0411 2.66848 85.9387 2.66517 85.8363 2.66583H82.6609C82.3194 2.67445 82.272 2.70857 82.2697 3.03389C82.265 3.73523 82.2697 4.43623 82.2783 5.1379C82.2875 5.22985 82.3059 5.32064 82.3333 5.40891C82.4861 5.4702 82.652 5.4914 82.8153 5.47052C83.6952 5.47284 84.5751 5.47052 85.4553 5.47052C85.9225 5.47052 85.9231 5.47052 85.9254 5.93135C85.9254 6.23713 85.9301 6.54357 85.9254 6.84935C85.9218 7.04812 85.8738 7.0892 85.6717 7.0988C85.5826 7.10311 85.4931 7.10046 85.404 7.10046H82.8024C82.6626 7.10411 82.5241 7.11305 82.3859 7.11802Z" fill="url(#paint14_linear_2859_4116)"/>
<path d="M214.187 32.3812C214.232 31.4834 214.278 30.5534 214.325 29.6248C214.33 29.5228 214.334 29.4208 214.339 29.3191C214.372 28.7208 214.389 28.1215 214.438 27.5248C214.477 27.0686 214.554 26.6154 214.614 26.1609C214.706 25.4663 214.799 24.7718 214.891 24.0774C214.978 23.4337 215.067 22.7897 215.153 22.146L215.352 20.6307C215.438 19.987 215.527 19.3433 215.613 18.6996L215.812 17.184C215.872 16.7294 215.934 16.2752 215.994 15.8207L216.193 14.3054C216.255 13.8383 216.321 13.3722 216.38 12.9044C216.41 12.6685 216.358 12.4295 216.233 12.227C216.109 12.0244 215.919 11.8703 215.695 11.7902C215.439 11.7036 215.159 11.722 214.916 11.8416C214.673 11.9612 214.488 12.1722 214.4 12.4283C214.367 12.5382 214.341 12.6503 214.323 12.7639C214.211 13.4424 214.103 14.1222 213.992 14.8007C213.971 14.9259 213.949 15.0518 213.921 15.176C213.896 15.3574 213.8 15.5215 213.654 15.632C213.508 15.7425 213.324 15.7905 213.142 15.7654C213.12 15.7624 213.099 15.7584 213.078 15.7535C212.991 15.7343 212.908 15.6982 212.835 15.6472C212.762 15.5962 212.699 15.5313 212.651 15.4561C212.603 15.3809 212.57 15.2971 212.555 15.2092C212.539 15.1214 212.541 15.0313 212.56 14.9441V14.9411C212.652 14.3243 212.753 13.7078 212.852 13.0916C212.888 12.865 212.93 12.64 212.968 12.4134C213.018 11.9453 213.211 11.5041 213.522 11.1504C213.832 10.7966 214.245 10.5477 214.703 10.4376C214.999 10.3455 215.31 10.3126 215.619 10.3409C215.928 10.3691 216.228 10.458 216.503 10.6023C216.777 10.7467 217.021 10.9437 217.219 11.1821C217.418 11.4206 217.567 11.6958 217.659 11.992C217.672 12.0318 217.683 12.0718 217.692 12.1126C217.75 12.3478 217.772 12.5901 217.759 12.8318C217.741 13.2254 217.692 13.6186 217.644 14.0102C217.554 14.7304 217.454 15.4493 217.356 16.1689C217.264 16.8504 217.169 17.5315 217.079 18.2133C216.99 18.8825 216.909 19.5527 216.82 20.2219C216.706 21.0802 216.588 21.938 216.472 22.7963C216.384 23.4526 216.301 24.1099 216.214 24.7665C216.122 25.4622 216.022 26.1543 215.939 26.8496C215.872 27.3933 215.811 27.9383 215.778 28.4846C215.73 29.2734 215.708 30.0638 215.678 30.8533C215.65 31.5662 215.626 32.2801 215.595 32.9931C215.59 33.1074 215.569 33.2204 215.532 33.3287C215.48 33.4811 215.376 33.6103 215.239 33.694C215.101 33.7776 214.938 33.8104 214.779 33.7865C214.619 33.7693 214.47 33.694 214.361 33.5749C214.252 33.4557 214.19 33.3009 214.187 33.1395C214.175 32.8977 214.187 32.6542 214.187 32.3812Z" fill="url(#paint15_linear_2859_4116)"/>
<path d="M248.388 24.4547C248.719 24.4547 249.051 24.4415 249.382 24.457C250.328 24.4818 251.26 24.6903 252.127 25.0709C252.798 25.3599 253.383 25.8196 253.822 26.4044C254.204 26.9347 254.436 27.5584 254.493 28.2096C254.555 28.8178 254.629 29.4251 254.696 30.0316C254.756 30.5763 254.813 31.1212 254.872 31.6659C254.915 32.0588 254.956 32.4514 255.003 32.844C255.035 33.007 255.023 33.1756 254.97 33.3329C254.917 33.4712 254.823 33.5897 254.701 33.6723C254.578 33.7549 254.433 33.7974 254.285 33.7941C254.131 33.7884 253.983 33.7315 253.864 33.6322C253.745 33.5329 253.663 33.397 253.631 33.2458C253.599 33.096 253.576 32.9444 253.562 32.7919C253.5 32.2092 253.446 31.6255 253.384 31.0427C253.32 30.4464 253.251 29.8524 253.185 29.2574C253.152 28.9536 253.115 28.6495 253.089 28.3451C253.064 28.0257 252.97 27.7157 252.811 27.4371C252.653 27.1586 252.435 26.9185 252.174 26.734C251.771 26.4389 251.316 26.2234 250.833 26.0992C250.242 25.9353 249.632 25.8535 249.019 25.8561C248.496 25.8614 247.973 25.8468 247.45 25.863C246.696 25.8821 245.952 26.0438 245.258 26.3398C244.856 26.5089 244.498 26.7647 244.207 27.0888C243.935 27.3808 243.758 27.7478 243.699 28.142C243.642 28.5451 243.599 28.9506 243.557 29.3565C243.482 30.0522 243.412 30.7505 243.341 31.4476C243.284 32.0055 243.225 32.563 243.172 33.1209C243.167 33.2362 243.134 33.3486 243.076 33.4482C243.018 33.5477 242.936 33.6314 242.837 33.6917C242.736 33.7523 242.62 33.7866 242.502 33.7915C242.384 33.7964 242.266 33.7718 242.16 33.7199C242.054 33.668 241.962 33.5904 241.893 33.4942C241.824 33.3979 241.78 33.286 241.765 33.1686C241.757 33.0926 241.757 33.0158 241.765 32.9397C241.823 32.3821 241.885 31.8249 241.944 31.2677C242.01 30.6468 242.073 30.0257 242.139 29.4048C242.193 28.898 242.224 28.3871 242.309 27.8855C242.457 27.0071 242.933 26.2174 243.639 25.6745C244.172 25.2555 244.784 24.9471 245.438 24.7675C246.136 24.5616 246.86 24.4551 247.587 24.4511H248.391L248.388 24.4547Z" fill="url(#paint16_linear_2859_4116)"/>
<path d="M235.732 33.0043C235.744 33.1273 235.723 33.2512 235.673 33.364C235.623 33.4768 235.544 33.5747 235.444 33.648C235.345 33.7214 235.228 33.7678 235.106 33.7827C234.983 33.7976 234.858 33.7805 234.744 33.7331C234.631 33.6877 234.532 33.6118 234.459 33.5138C234.386 33.4158 234.342 33.2996 234.331 33.1779C234.274 32.7472 234.227 32.3165 234.179 31.8858C234.106 31.2277 234.035 30.5691 233.965 29.91C233.909 29.3912 233.844 28.8724 233.799 28.353C233.775 28.0338 233.681 27.7238 233.524 27.4448C233.367 27.1659 233.151 26.9248 232.891 26.7386C232.489 26.442 232.035 26.2254 231.551 26.1009C230.961 25.9362 230.351 25.8537 229.738 25.8557C229.215 25.8603 228.692 25.8464 228.169 25.862C227.415 25.8806 226.671 26.0412 225.976 26.3354C225.587 26.4984 225.236 26.7432 224.949 27.0533C224.646 27.368 224.454 27.7731 224.402 28.2072C224.35 28.6627 224.302 29.1189 224.253 29.5748L224.054 31.4369C223.994 32.0074 223.936 32.5776 223.875 33.1477C223.867 33.2696 223.827 33.3871 223.758 33.4879C223.689 33.5887 223.595 33.6691 223.484 33.7205C223.38 33.7702 223.265 33.7937 223.15 33.7891C223.035 33.7846 222.923 33.752 222.823 33.6942C222.723 33.6365 222.639 33.5553 222.578 33.4577C222.517 33.3601 222.48 33.249 222.471 33.1341C222.466 33.0706 222.467 33.0067 222.474 32.9433C222.536 32.3731 222.603 31.804 222.663 31.2338C222.729 30.6127 222.783 29.9912 222.848 29.3703C222.901 28.8635 222.931 28.352 223.023 27.8517C223.182 26.9755 223.664 26.1907 224.373 25.6523C224.983 25.186 225.687 24.8573 226.437 24.6886C227.03 24.5376 227.64 24.458 228.252 24.4514C228.852 24.4484 229.452 24.4358 230.051 24.4563C230.997 24.4758 231.93 24.6776 232.8 25.0507C233.246 25.2433 233.658 25.5072 234.019 25.8318C234.704 26.4403 235.129 27.2895 235.204 28.2029C235.263 28.8115 235.34 29.4184 235.407 30.025C235.466 30.5567 235.523 31.0891 235.581 31.6208C235.626 32.0389 235.672 32.4567 235.719 32.8744C235.725 32.9277 235.73 32.9788 235.732 33.0043Z" fill="url(#paint17_linear_2859_4116)"/>
<path d="M104.149 11.6744C103.489 11.7278 102.825 11.7237 102.166 11.6622C102.147 11.5944 102.133 11.5253 102.124 11.4555C102.117 11.3286 102.12 11.2004 102.121 11.0735C102.125 8.47287 102.129 5.87225 102.133 3.27163C102.133 3.13183 102.13 2.99136 102.118 2.85189C102.117 2.80645 102.098 2.76335 102.066 2.73139C102.033 2.69942 101.99 2.68103 101.944 2.67996C101.83 2.66935 101.716 2.66603 101.601 2.66603H99.8414C99.752 2.66603 99.6628 2.66835 99.5737 2.66603C99.3355 2.6551 99.2918 2.61469 99.2848 2.36357C99.2775 2.09589 99.2809 1.82755 99.2822 1.56053C99.281 1.44596 99.2857 1.33141 99.2961 1.21731C99.2971 1.17176 99.316 1.12844 99.3487 1.09666C99.3813 1.06488 99.4251 1.04718 99.4707 1.04736C99.5596 1.03935 99.6488 1.03615 99.738 1.03776H106.623C107.045 1.03776 107.05 1.04504 107.054 1.46412C107.055 1.7318 107.056 1.99949 107.054 2.26717C107.05 2.65411 107.04 2.66471 106.636 2.66471C106.012 2.6667 105.387 2.66471 104.762 2.66471C104.66 2.66471 104.558 2.66206 104.456 2.66836C104.249 2.68062 104.194 2.73461 104.173 2.94796C104.166 3.02421 104.164 3.10073 104.166 3.17721C104.173 4.4392 104.18 5.70131 104.187 6.96352C104.196 8.40352 104.205 9.84374 104.214 11.2842C104.233 11.4179 104.211 11.5542 104.149 11.6744Z" fill="url(#paint18_linear_2859_4116)"/>
<path d="M90.5408 9.99598C90.6996 10.0645 90.8737 10.0895 91.0454 10.0685C91.8994 10.0712 92.7535 10.0685 93.6072 10.0712C93.7438 10.0467 93.8846 10.0665 94.0091 10.1278C94.0779 10.6364 94.0767 11.1521 94.0054 11.6604C93.8788 11.7128 93.7403 11.7295 93.6049 11.7087C92.5722 11.7107 91.5396 11.7107 90.5073 11.7087H88.8615C88.7369 11.7087 88.612 11.6965 88.4746 11.6895C88.4553 11.6101 88.4402 11.5297 88.4292 11.4487C88.4219 11.3599 88.4259 11.2704 88.4262 11.181C88.4295 7.95645 88.4331 4.7319 88.4371 1.50736C88.4371 1.03693 88.4394 1.03594 88.8973 1.03428C89.267 1.03252 89.6366 1.03252 90.0061 1.03428C90.0953 1.03274 90.1846 1.03583 90.2735 1.04356C90.3187 1.044 90.3622 1.06117 90.3955 1.09175C90.4288 1.12233 90.4497 1.16417 90.454 1.2092C90.4654 1.29709 90.4711 1.38562 90.4712 1.47424C90.4865 2.96504 90.5044 4.45584 90.5143 5.94664C90.5219 7.14491 90.5183 8.34252 90.5213 9.54079C90.5226 9.6955 90.5352 9.84425 90.5408 9.99598Z" fill="url(#paint19_linear_2859_4116)"/>
<path d="M230.132 5.37398C230.268 5.51974 230.368 5.63404 230.475 5.74038C231.213 6.48092 231.953 7.2208 232.693 7.96002C232.786 8.04648 232.873 8.14031 232.952 8.24062C233.012 8.31491 233.057 8.40147 233.081 8.49438C233.105 8.58729 233.109 8.68436 233.093 8.77896C233.072 8.89928 233.019 9.01203 232.942 9.10617C232.864 9.20032 232.763 9.27264 232.649 9.31605C232.534 9.35946 232.411 9.37247 232.29 9.35382C232.169 9.33517 232.056 9.28549 231.96 9.20964C231.871 9.13685 231.787 9.05816 231.709 8.9741L229.462 6.72994C229.366 6.60664 229.242 6.50695 229.102 6.43841C228.964 6.5016 228.843 6.59785 228.751 6.71868C228 7.46584 227.251 8.2139 226.504 8.96283C226.426 9.04679 226.343 9.12578 226.255 9.19937C226.161 9.27754 226.048 9.32997 225.928 9.35149C225.808 9.37301 225.684 9.36288 225.569 9.32212C225.454 9.28135 225.351 9.21134 225.271 9.11896C225.191 9.02658 225.137 8.91501 225.113 8.7952C225.093 8.69473 225.096 8.59102 225.122 8.49198C225.149 8.39295 225.197 8.30119 225.264 8.22372C225.345 8.12479 225.432 8.03169 225.526 7.94511L227.743 5.72548C227.866 5.63045 227.964 5.50787 228.031 5.36768C227.967 5.22833 227.869 5.10693 227.747 5.0142C227 4.26328 226.252 3.51424 225.503 2.76707C225.409 2.68064 225.323 2.58668 225.245 2.48613C225.174 2.39506 225.127 2.28786 225.107 2.17412C225.088 2.06038 225.097 1.94365 225.134 1.83438C225.171 1.72511 225.235 1.62672 225.319 1.54799C225.403 1.46926 225.506 1.41267 225.618 1.38328C225.752 1.34046 225.897 1.34727 226.027 1.40249C226.19 1.47766 226.335 1.58587 226.453 1.7202C227.211 2.47796 227.968 3.23518 228.726 3.99184C228.834 4.09885 228.948 4.1989 229.043 4.28768C229.236 4.28106 229.315 4.15152 229.411 4.05578C229.892 3.58071 230.369 3.10134 230.847 2.62362C231.153 2.31718 231.459 2.0094 231.768 1.70495C231.847 1.62194 231.934 1.54692 232.028 1.481C232.155 1.39633 232.307 1.35637 232.46 1.3674C232.612 1.37843 232.757 1.43983 232.871 1.54195C232.985 1.64408 233.062 1.78115 233.089 1.93165C233.117 2.08215 233.094 2.23756 233.024 2.37349C232.954 2.49475 232.866 2.60504 232.764 2.70081C232.172 3.29912 231.577 3.89488 230.98 4.48811C230.781 4.68688 230.583 4.88334 230.386 5.08443C230.307 5.16394 230.237 5.25273 230.132 5.37398Z" fill="url(#paint20_linear_2859_4116)"/>
<path d="M248.429 6.42408C248.27 6.48953 248.132 6.59461 248.026 6.7292C247.275 7.47592 246.526 8.22364 245.78 8.97235C245.694 9.0664 245.599 9.15265 245.498 9.2301C245.36 9.33114 245.19 9.37791 245.02 9.3615C244.85 9.3451 244.692 9.26666 244.576 9.14114C244.46 9.01563 244.394 8.85182 244.391 8.68096C244.388 8.51009 244.448 8.34412 244.56 8.2147C244.632 8.12588 244.711 8.04229 244.796 7.96457C245.544 7.21586 246.292 6.46748 247.039 5.71943C247.161 5.6266 247.258 5.50505 247.322 5.36561C247.254 5.22587 247.155 5.10364 247.033 5.00848C246.268 4.24056 245.502 3.47406 244.734 2.709C244.59 2.58287 244.48 2.42215 244.414 2.2419C244.375 2.11977 244.372 1.98856 244.408 1.86512C244.443 1.74168 244.515 1.63166 244.613 1.54917C244.705 1.44996 244.828 1.38404 244.961 1.36169C245.095 1.33933 245.232 1.3618 245.352 1.42559C245.495 1.50708 245.626 1.60859 245.741 1.72707C246.503 2.48042 247.257 3.24006 248.016 3.99606C248.123 4.10274 248.237 4.20213 248.333 4.29058C248.526 4.28164 248.605 4.15243 248.701 4.05636C249.46 3.30146 250.217 2.54458 250.973 1.78571C251.069 1.68339 251.173 1.58879 251.284 1.50278C251.362 1.43717 251.456 1.3916 251.556 1.36997C251.656 1.34833 251.76 1.35127 251.859 1.37855C252.041 1.42915 252.195 1.54989 252.289 1.71428C252.382 1.87867 252.406 2.0733 252.356 2.25547C252.333 2.33881 252.295 2.41736 252.244 2.48738C252.166 2.58773 252.079 2.68146 251.985 2.76764C251.238 3.5168 250.49 4.26541 249.742 5.01346C249.619 5.10679 249.521 5.22915 249.457 5.36959C249.523 5.50879 249.621 5.63047 249.743 5.72474C250.481 6.46528 251.22 7.20515 251.96 7.94436C252.032 8.01659 252.104 8.08881 252.174 8.16268C252.267 8.26118 252.33 8.38296 252.358 8.51491C252.386 8.64685 252.378 8.78395 252.334 8.9114C252.309 9.0117 252.257 9.10319 252.184 9.17546C252.11 9.24772 252.018 9.29788 251.917 9.32021C251.788 9.36199 251.651 9.36812 251.52 9.33795C251.388 9.30779 251.267 9.24246 251.17 9.14894C251.097 9.07738 251.024 9.00615 250.952 8.93392C250.224 8.2031 249.494 7.4725 248.763 6.74212C248.658 6.63246 248.543 6.53241 248.429 6.42408Z" fill="url(#paint21_linear_2859_4116)"/>
<path d="M210.179 23.276C209.201 23.2842 208.26 22.9037 207.563 22.2181C206.866 21.5325 206.469 20.598 206.461 19.6202V19.5682C206.462 18.8365 206.679 18.1213 207.086 17.5131C207.493 16.9048 208.071 16.4307 208.747 16.1506C209.423 15.8704 210.167 15.7968 210.885 15.939C211.602 16.0812 212.262 16.4329 212.78 16.9496C213.298 17.4663 213.652 18.125 213.796 18.8424C213.94 19.5598 213.869 20.3039 213.59 20.9807C213.312 21.6574 212.84 22.2367 212.232 22.6452C211.625 23.0537 210.911 23.2732 210.179 23.276ZM207.868 19.5987C207.866 19.8963 207.922 20.1914 208.033 20.4674C208.144 20.7433 208.309 20.9946 208.518 21.2068C208.726 21.4191 208.975 21.5882 209.248 21.7045C209.522 21.8208 209.816 21.882 210.114 21.8846C210.127 21.8846 210.141 21.8846 210.154 21.8846C210.451 21.8919 210.746 21.8407 211.023 21.7339C211.3 21.6271 211.553 21.4667 211.768 21.2621C211.983 21.0574 212.156 20.8124 212.276 20.541C212.396 20.2697 212.462 19.9773 212.469 19.6805C212.469 19.65 212.469 19.6196 212.469 19.5891C212.472 19.2889 212.416 18.991 212.304 18.7125C212.192 18.434 212.026 18.1803 211.816 17.9659C211.606 17.7515 211.356 17.5805 211.08 17.4629C210.803 17.3452 210.507 17.283 210.206 17.28C210.192 17.28 210.178 17.28 210.164 17.28C209.553 17.2859 208.969 17.5329 208.539 17.9671C208.109 18.4014 207.868 18.9879 207.868 19.599L207.868 19.5987Z" fill="url(#paint22_linear_2859_4116)"/>
<path d="M229.087 16.0971C229.565 16.0862 230.04 16.1695 230.485 16.3423C230.931 16.515 231.338 16.7738 231.683 17.1039C232.028 17.4339 232.305 17.8288 232.498 18.266C232.691 18.7031 232.795 19.1739 232.806 19.6515C232.806 19.7012 232.806 19.7509 232.806 19.8003C232.808 20.2832 232.715 20.7618 232.532 21.2087C232.349 21.6556 232.08 22.0621 231.74 22.405C231.4 22.7479 230.996 23.0204 230.55 23.2071C230.105 23.3937 229.627 23.4908 229.144 23.4928H229.1C228.122 23.4958 227.182 23.1101 226.488 22.4205C225.794 21.7309 225.403 20.7939 225.399 19.8155C225.399 19.795 225.399 19.7744 225.399 19.7539C225.397 19.2763 225.488 18.8029 225.669 18.3606C225.849 17.9184 226.115 17.516 226.451 17.1765C226.787 16.837 227.186 16.5669 227.627 16.3818C228.067 16.1966 228.539 16.1 229.017 16.0975C229.039 16.0965 229.063 16.0968 229.087 16.0971ZM229.116 22.0845C229.722 22.0851 230.305 21.8445 230.734 21.4159C231.164 20.9872 231.405 20.4055 231.406 19.7986C231.406 19.7824 231.406 19.7655 231.406 19.7506C231.406 19.4523 231.347 19.157 231.232 18.8815C231.118 18.606 230.95 18.3557 230.739 18.145C230.528 17.9343 230.278 17.7672 230.002 17.6533C229.726 17.5394 229.431 17.481 229.132 17.4813H229.087C228.485 17.4765 227.905 17.7111 227.475 18.1335C227.046 18.556 226.802 19.1316 226.797 19.734C226.797 19.7483 226.797 19.7622 226.797 19.7761C226.791 20.383 227.028 20.9671 227.453 21.3999C227.879 21.8327 228.459 22.0787 229.066 22.0839C229.082 22.0839 229.099 22.0839 229.116 22.0839L229.116 22.0845Z" fill="url(#paint23_linear_2859_4116)"/>
<path d="M248.372 23.4895C247.891 23.4921 247.414 23.3998 246.968 23.218C246.522 23.0361 246.116 22.7682 245.774 22.4295C245.431 22.0908 245.159 21.688 244.972 21.2441C244.786 20.8002 244.688 20.3239 244.686 19.8423C244.686 19.8211 244.686 19.8002 244.686 19.779C244.684 19.2947 244.779 18.8149 244.963 18.367C245.147 17.9191 245.418 17.5119 245.76 17.1686C246.102 16.8254 246.508 16.5528 246.955 16.3664C247.402 16.1801 247.881 16.0836 248.366 16.0825H248.424C249.397 16.0901 250.328 16.4801 251.016 17.1682C251.703 17.8564 252.093 18.7874 252.099 19.7602C252.106 20.733 251.73 21.6694 251.052 22.3672C250.374 23.0649 249.449 23.4679 248.476 23.4891C248.442 23.49 248.407 23.4901 248.372 23.4895ZM248.383 22.0848C248.996 22.0843 249.583 21.8417 250.017 21.4098C250.451 20.978 250.697 20.392 250.7 19.7797C250.702 19.1714 250.461 18.5875 250.032 18.1565C249.603 17.7254 249.02 17.4825 248.412 17.4812H248.378C247.777 17.4749 247.197 17.7077 246.768 18.1286C246.338 18.5494 246.093 19.1238 246.086 19.7254V19.7671C246.084 20.0695 246.142 20.3693 246.256 20.6494C246.37 20.9296 246.538 21.1845 246.751 21.3996C246.963 21.6148 247.216 21.786 247.495 21.9034C247.773 22.0209 248.072 22.0823 248.375 22.0841H248.385L248.383 22.0848Z" fill="url(#paint24_linear_2859_4116)"/>
<path d="M97.5324 11.6757C96.8817 11.73 96.2275 11.7248 95.5778 11.6601C95.5593 11.5923 95.5454 11.5234 95.5363 11.4537C95.5284 11.3524 95.532 11.25 95.5324 11.1483C95.5372 7.93853 95.5424 4.72891 95.5479 1.51938C95.5479 1.03802 95.5499 1.03702 96.0366 1.03636C96.457 1.03636 96.8774 1.03271 97.2978 1.03966C97.5181 1.04331 97.5575 1.09102 97.5711 1.31596C97.5748 1.37924 97.5734 1.44318 97.5734 1.50712C97.5807 4.72945 97.5876 7.9519 97.594 11.1745C97.615 11.3441 97.5938 11.5162 97.5324 11.6757Z" fill="url(#paint25_linear_2859_4116)"/>
<path d="M209.288 24.4546C209.416 24.4546 209.544 24.448 209.671 24.4546C209.843 24.4632 210.006 24.5353 210.128 24.657C210.251 24.7787 210.324 24.9413 210.333 25.1136C210.343 25.2859 210.288 25.4556 210.18 25.5901C210.072 25.7246 209.918 25.8143 209.748 25.842C209.622 25.8583 209.494 25.8636 209.367 25.8579C208.652 25.8681 207.944 25.9987 207.273 26.2442C206.961 26.3584 206.667 26.5145 206.398 26.708C206.119 26.902 205.888 27.1557 205.721 27.4507C205.553 27.7456 205.454 28.0742 205.43 28.4125C205.336 29.3497 205.236 30.2863 205.14 31.2232C205.08 31.8195 205.026 32.4158 204.964 33.0098C204.954 33.1361 204.926 33.2604 204.88 33.3785C204.819 33.5203 204.712 33.6372 204.575 33.7102C204.439 33.7833 204.283 33.8082 204.131 33.7811C203.971 33.7581 203.825 33.6788 203.719 33.5574C203.613 33.436 203.554 33.2806 203.553 33.1195C203.548 32.9921 203.552 32.8646 203.565 32.7378C203.629 32.1299 203.7 31.523 203.764 30.9157C203.827 30.3085 203.881 29.6992 203.945 29.0917C203.986 28.6994 204.025 28.3062 204.086 27.9169C204.162 27.4369 204.336 26.9777 204.598 26.5678C204.859 26.1578 205.201 25.806 205.604 25.5339C206.265 25.0717 207.018 24.759 207.812 24.6176C208.297 24.5119 208.792 24.4573 209.288 24.4546Z" fill="url(#paint26_linear_2859_4116)"/>
<path d="M245.025 32.6849C245.076 32.0773 245.127 31.4942 245.172 30.9105C245.211 30.4156 245.239 29.9199 245.279 29.425C245.287 29.2602 245.314 29.0968 245.359 28.9383C245.415 28.7927 245.518 28.6702 245.652 28.5907C245.785 28.5112 245.942 28.4794 246.097 28.5005C246.251 28.5217 246.394 28.5945 246.501 28.7071C246.609 28.8197 246.675 28.9654 246.689 29.1205C246.695 29.3878 246.686 29.6552 246.663 29.9216C246.627 30.4295 246.577 30.9363 246.539 31.4455C246.504 31.915 246.48 32.3857 246.445 32.8555C246.434 32.9953 246.413 33.134 246.38 33.2703C246.344 33.4269 246.253 33.5654 246.123 33.661C245.994 33.7566 245.835 33.803 245.674 33.792C245.506 33.7884 245.345 33.721 245.225 33.6034C245.105 33.4859 245.034 33.327 245.026 33.159C245.02 32.9926 245.025 32.8273 245.025 32.6849Z" fill="url(#paint27_linear_2859_4116)"/>
<path d="M208.477 29.3461C208.449 29.7767 208.423 30.2107 208.391 30.6427C208.347 31.2271 208.302 31.8114 208.254 32.3956C208.234 32.6493 208.213 32.9038 208.182 33.1575C208.169 33.3314 208.09 33.4938 207.962 33.6122C207.834 33.7306 207.666 33.7962 207.492 33.7959C207.311 33.7941 207.137 33.7242 207.006 33.6003C206.874 33.4763 206.794 33.3074 206.781 33.1271C206.776 33.0507 206.778 32.9742 206.786 32.8981C206.807 32.6059 206.828 32.3137 206.852 32.0215C206.893 31.5392 206.938 31.0572 206.976 30.5748C207.009 30.1557 207.04 29.7363 207.07 29.3159C207.075 29.2526 207.074 29.188 207.082 29.1251C207.101 28.9462 207.187 28.7812 207.323 28.6639C207.46 28.5467 207.636 28.4862 207.815 28.495C207.995 28.5037 208.164 28.581 208.289 28.7109C208.413 28.8409 208.483 29.0135 208.483 29.1933C208.479 29.244 208.483 29.2954 208.483 29.3464L208.477 29.3461Z" fill="url(#paint28_linear_2859_4116)"/>
<path d="M225.737 32.7187C225.786 32.1277 225.837 31.5572 225.88 30.9864C225.92 30.4789 225.949 29.9704 225.989 29.4625C225.998 29.2975 226.022 29.1338 226.062 28.9735C226.111 28.8224 226.21 28.6927 226.344 28.6066C226.477 28.5204 226.636 28.4831 226.794 28.5009C226.951 28.5188 227.098 28.5907 227.209 28.7044C227.32 28.8182 227.387 28.9668 227.401 29.1249C227.407 29.405 227.398 29.6852 227.375 29.9644C227.341 30.4468 227.29 30.9278 227.253 31.4101C227.216 31.8925 227.192 32.3755 227.156 32.8579C227.146 32.9976 227.123 33.1362 227.09 33.2723C227.053 33.4287 226.961 33.5667 226.831 33.6619C226.702 33.757 226.542 33.803 226.382 33.7918C226.214 33.7876 226.054 33.7197 225.934 33.6018C225.814 33.4838 225.743 33.3247 225.736 33.1567C225.734 33.0046 225.737 32.8519 225.737 32.7187Z" fill="url(#paint29_linear_2859_4116)"/>
<path d="M251.752 32.7025C251.752 32.887 251.762 33.0149 251.751 33.1408C251.737 33.2936 251.671 33.4371 251.564 33.547C251.457 33.657 251.315 33.7268 251.163 33.7447C251.004 33.7697 250.842 33.7382 250.704 33.6556C250.567 33.5729 250.463 33.4445 250.41 33.2928C250.372 33.1716 250.348 33.0463 250.338 32.9195C250.277 32.185 250.224 31.4502 250.163 30.7157C250.127 30.285 250.081 29.8544 250.039 29.426C250.009 29.2497 250.029 29.0685 250.096 28.9026C250.158 28.7619 250.266 28.6463 250.402 28.5742C250.538 28.5021 250.694 28.4777 250.845 28.505C250.991 28.5244 251.127 28.5908 251.232 28.6943C251.337 28.7978 251.405 28.9327 251.426 29.0785C251.457 29.2793 251.48 29.482 251.496 29.6844C251.557 30.4189 251.612 31.1537 251.673 31.8882C251.696 32.1794 251.729 32.4682 251.752 32.7025Z" fill="url(#paint30_linear_2859_4116)"/>
<path d="M232.465 32.7784C232.465 32.8778 232.474 33.0056 232.464 33.1322C232.452 33.2856 232.388 33.4305 232.282 33.5423C232.177 33.6541 232.036 33.726 231.883 33.7461C231.718 33.7741 231.548 33.7401 231.406 33.6506C231.265 33.5612 231.161 33.4226 231.115 33.2614C231.084 33.151 231.062 33.0379 231.052 32.9235C231.019 32.5302 230.992 32.136 230.959 31.7424C230.919 31.2727 230.875 30.8036 230.834 30.3338C230.801 29.9657 230.759 29.598 230.743 29.2296C230.735 29.069 230.783 28.9108 230.878 28.7812C230.973 28.6516 231.11 28.5585 231.265 28.5174C231.421 28.4764 231.586 28.4899 231.732 28.5556C231.879 28.6214 231.999 28.7354 232.071 28.8788C232.106 28.9465 232.128 29.0199 232.138 29.0954C232.171 29.3737 232.194 29.6533 232.219 29.9323C232.261 30.3891 232.303 30.8456 232.343 31.3025C232.385 31.7845 232.423 32.2669 232.465 32.7784Z" fill="url(#paint31_linear_2859_4116)"/>
</g>
<defs>
<linearGradient id="paint0_linear_2859_4116" x1="82.5491" y1="80.7584" x2="259.287" y2="12.2459" gradientUnits="userSpaceOnUse">
<stop stop-color="#D43670"/>
<stop offset="1" stop-color="#571849"/>
</linearGradient>
<linearGradient id="paint1_linear_2859_4116" x1="73.9464" y1="58.3667" x2="250.673" y2="-9.96482" gradientUnits="userSpaceOnUse">
<stop stop-color="#D43670"/>
<stop offset="1" stop-color="#571849"/>
</linearGradient>
<linearGradient id="paint2_linear_2859_4116" x1="71.0639" y1="51.2836" x2="247.805" y2="-17.4654" gradientUnits="userSpaceOnUse">
<stop stop-color="#D43670"/>
<stop offset="1" stop-color="#571849"/>
</linearGradient>
<linearGradient id="paint3_linear_2859_4116" x1="77.5495" y1="67.9257" x2="253.802" y2="-2.00703" gradientUnits="userSpaceOnUse">
<stop stop-color="#D43670"/>
<stop offset="1" stop-color="#571849"/>
</linearGradient>
<linearGradient id="paint4_linear_2859_4116" x1="83.43" y1="83.0323" x2="263.544" y2="24.8362" gradientUnits="userSpaceOnUse">
<stop stop-color="#D43670"/>
<stop offset="1" stop-color="#571849"/>
</linearGradient>
<linearGradient id="paint5_linear_2859_4116" x1="80.4555" y1="75.3709" x2="260.088" y2="66.6241" gradientUnits="userSpaceOnUse">
<stop stop-color="#D43670"/>
<stop offset="1" stop-color="#571849"/>
</linearGradient>
<linearGradient id="paint6_linear_2859_4116" x1="72.9942" y1="56.197" x2="249.766" y2="-12.3885" gradientUnits="userSpaceOnUse">
<stop stop-color="#D43670"/>
<stop offset="1" stop-color="#571849"/>
</linearGradient>
<linearGradient id="paint7_linear_2859_4116" x1="87.8695" y1="94.4562" x2="173.11" y2="-34.6467" gradientUnits="userSpaceOnUse">
<stop stop-color="#D43670"/>
<stop offset="1" stop-color="#571849"/>
</linearGradient>
<linearGradient id="paint8_linear_2859_4116" x1="85.3097" y1="87.9153" x2="170.54" y2="-41.1987" gradientUnits="userSpaceOnUse">
<stop stop-color="#D43670"/>
<stop offset="1" stop-color="#571849"/>
</linearGradient>
<linearGradient id="paint9_linear_2859_4116" x1="90.4103" y1="101.004" x2="176.445" y2="-28.1251" gradientUnits="userSpaceOnUse">
<stop stop-color="#D43670"/>
<stop offset="1" stop-color="#571849"/>
</linearGradient>
<linearGradient id="paint10_linear_2859_4116" x1="94.5002" y1="111.546" x2="277.165" y2="67.3692" gradientUnits="userSpaceOnUse">
<stop stop-color="#D43670"/>
<stop offset="1" stop-color="#571849"/>
</linearGradient>
<linearGradient id="paint11_linear_2859_4116" x1="91.9594" y1="104.997" x2="274.62" y2="60.7662" gradientUnits="userSpaceOnUse">
<stop stop-color="#D43670"/>
<stop offset="1" stop-color="#571849"/>
</linearGradient>
<linearGradient id="paint12_linear_2859_4116" x1="89.4142" y1="98.4604" x2="272.079" y2="54.2341" gradientUnits="userSpaceOnUse">
<stop stop-color="#D43670"/>
<stop offset="1" stop-color="#571849"/>
</linearGradient>
<linearGradient id="paint13_linear_2859_4116" x1="61.2594" y1="26.0212" x2="243.837" y2="2.3001" gradientUnits="userSpaceOnUse">
<stop stop-color="#D43670"/>
<stop offset="1" stop-color="#571849"/>
</linearGradient>
<linearGradient id="paint14_linear_2859_4116" x1="57.516" y1="16.3943" x2="240.078" y2="-7.19722" gradientUnits="userSpaceOnUse">
<stop stop-color="#D43670"/>
<stop offset="1" stop-color="#571849"/>
</linearGradient>
<linearGradient id="paint15_linear_2859_4116" x1="80.1468" y1="74.5025" x2="258.079" y2="71.0788" gradientUnits="userSpaceOnUse">
<stop stop-color="#D43670"/>
<stop offset="1" stop-color="#571849"/>
</linearGradient>
<linearGradient id="paint16_linear_2859_4116" x1="87.1266" y1="92.5638" x2="230.032" y2="-19.3396" gradientUnits="userSpaceOnUse">
<stop stop-color="#D43670"/>
<stop offset="1" stop-color="#571849"/>
</linearGradient>
<linearGradient id="paint17_linear_2859_4116" x1="84.5904" y1="86.0462" x2="227.442" y2="-25.9063" gradientUnits="userSpaceOnUse">
<stop stop-color="#D43670"/>
<stop offset="1" stop-color="#571849"/>
</linearGradient>
<linearGradient id="paint18_linear_2859_4116" x1="59.9399" y1="22.6314" x2="243.058" y2="-15.1368" gradientUnits="userSpaceOnUse">
<stop stop-color="#D43670"/>
<stop offset="1" stop-color="#571849"/>
</linearGradient>
<linearGradient id="paint19_linear_2859_4116" x1="58.548" y1="19.079" x2="240.628" y2="-0.603188" gradientUnits="userSpaceOnUse">
<stop stop-color="#D43670"/>
<stop offset="1" stop-color="#571849"/>
</linearGradient>
<linearGradient id="paint20_linear_2859_4116" x1="76.4825" y1="64.7472" x2="253.031" y2="-3.91674" gradientUnits="userSpaceOnUse">
<stop stop-color="#D43670"/>
<stop offset="1" stop-color="#571849"/>
</linearGradient>
<linearGradient id="paint21_linear_2859_4116" x1="78.8705" y1="71.3012" x2="255.656" y2="2.7564" gradientUnits="userSpaceOnUse">
<stop stop-color="#D43670"/>
<stop offset="1" stop-color="#571849"/>
</linearGradient>
<linearGradient id="paint22_linear_2859_4116" x1="78.6277" y1="70.7967" x2="255.367" y2="1.97323" gradientUnits="userSpaceOnUse">
<stop stop-color="#D43670"/>
<stop offset="1" stop-color="#571849"/>
</linearGradient>
<linearGradient id="paint23_linear_2859_4116" x1="81.198" y1="77.2888" x2="257.859" y2="8.41887" gradientUnits="userSpaceOnUse">
<stop stop-color="#D43670"/>
<stop offset="1" stop-color="#571849"/>
</linearGradient>
<linearGradient id="paint24_linear_2859_4116" x1="83.5583" y1="83.8082" x2="260.429" y2="14.9916" gradientUnits="userSpaceOnUse">
<stop stop-color="#D43670"/>
<stop offset="1" stop-color="#571849"/>
</linearGradient>
<linearGradient id="paint25_linear_2859_4116" x1="59.2602" y1="20.8848" x2="236.958" y2="18.2867" gradientUnits="userSpaceOnUse">
<stop stop-color="#D43670"/>
<stop offset="1" stop-color="#571849"/>
</linearGradient>
<linearGradient id="paint26_linear_2859_4116" x1="81.3701" y1="77.6528" x2="264.435" y2="40.0992" gradientUnits="userSpaceOnUse">
<stop stop-color="#D43670"/>
<stop offset="1" stop-color="#571849"/>
</linearGradient>
<linearGradient id="paint27_linear_2859_4116" x1="87.2173" y1="92.7399" x2="266.328" y2="85.8565" gradientUnits="userSpaceOnUse">
<stop stop-color="#D43670"/>
<stop offset="1" stop-color="#571849"/>
</linearGradient>
<linearGradient id="paint28_linear_2859_4116" x1="82.2061" y1="79.9215" x2="261.412" y2="72.7136" gradientUnits="userSpaceOnUse">
<stop stop-color="#D43670"/>
<stop offset="1" stop-color="#571849"/>
</linearGradient>
<linearGradient id="paint29_linear_2859_4116" x1="84.6861" y1="86.2218" x2="263.797" y2="79.3317" gradientUnits="userSpaceOnUse">
<stop stop-color="#D43670"/>
<stop offset="1" stop-color="#571849"/>
</linearGradient>
<linearGradient id="paint30_linear_2859_4116" x1="87.8782" y1="94.478" x2="267.184" y2="86.9314" gradientUnits="userSpaceOnUse">
<stop stop-color="#D43670"/>
<stop offset="1" stop-color="#571849"/>
</linearGradient>
<linearGradient id="paint31_linear_2859_4116" x1="85.3686" y1="87.9699" x2="264.634" y2="80.4684" gradientUnits="userSpaceOnUse">
<stop stop-color="#D43670"/>
<stop offset="1" stop-color="#571849"/>
</linearGradient>
<clipPath id="clip0_2859_4116">
<rect width="233.28" height="72" fill="white" transform="translate(48 1)"/>
</clipPath>
</defs>
</svg>
