<svg width="160" height="72" viewBox="0 0 160 72" fill="none" xmlns="http://www.w3.org/2000/svg">
<g clip-path="url(#clip0_997_2811)">
<mask id="mask0_997_2811" style="mask-type:luminance" maskUnits="userSpaceOnUse" x="0" y="0" width="72" height="72">
<path d="M72 0H0V72H72V0Z" fill="white"/>
</mask>
<g mask="url(#mask0_997_2811)">
<path d="M71.982 34.0913C71.8827 29.0241 71.5567 24.0023 70.782 18.99C70.378 16.3725 69.7967 13.6779 68.942 11.1519C68.2233 9.03133 67.1747 6.76587 65.3718 5.3386C64.7349 4.83429 63.9608 4.37198 63.0496 3.95167C61.8124 3.38055 60.5313 2.90942 59.2189 2.5428C54.6151 1.25513 49.7945 0.678733 45.0389 0.325133L43.7163 0.2436C38.5045 -0.0840227 33.2772 -0.0811727 28.0657 0.252133C27.5952 0.294889 27.1233 0.319022 26.6501 0.324533C26.5605 0.325533 26.4779 0.367267 26.3793 0.3738C22.8229 0.637933 19.1441 1.09667 15.6385 1.83607C14.2076 2.13745 12.7942 2.51693 11.4047 2.9728C9.77367 3.508 8.1436 4.22173 6.75467 5.24327C6.35292 5.53376 5.98893 5.87323 5.67117 6.2538L5.24343 6.7638C5.14413 6.8652 5.06391 6.9836 5.00663 7.11347L4.61057 7.69747C3.6831 9.26413 3.0485 10.9895 2.55177 12.7495C2.12954 14.2469 1.7803 15.7613 1.50403 17.293C0.6971 21.7668 0.256698 26.3618 0.111298 30.8565C0.0715647 32.0813 0.0199649 33.2789 0.00763153 34.4907C-0.0427018 39.3807 0.152565 44.3001 0.694033 49.1623C0.718167 49.3811 0.7807 49.6423 0.797167 49.8932C0.815787 50.1754 0.843473 50.4565 0.880233 50.7367C1.3281 54.1812 1.95217 57.6408 3.08297 60.9339C3.5817 62.3855 4.21323 63.8065 5.09043 65.0498C6.14423 66.5442 7.6942 67.5367 9.40673 68.27C12.1389 69.44 15.1025 70.1373 18.0259 70.6293C21.1125 71.1493 24.2244 71.506 27.3485 71.6993C27.4488 71.708 27.5495 71.71 27.65 71.7067L27.9751 71.75C29.1491 71.8147 30.3257 71.8927 31.5003 71.9313C35.6446 72.0667 39.7662 71.998 43.9054 71.7613C44.0159 71.7513 44.1257 71.7353 44.234 71.712L44.6207 71.702C47.7833 71.5053 50.9333 71.1407 54.0571 70.6093C57.0837 70.0933 60.1881 69.3787 62.9882 68.088C64.4682 67.4053 65.8859 66.4752 66.8147 65.1831C67.498 64.2204 68.0587 63.1764 68.484 62.0751C69.568 59.3177 70.2473 56.3951 70.7153 53.4785C71.242 50.1804 71.5953 46.8569 71.774 43.5218C71.9507 40.2624 72.0407 37.0855 71.982 34.0913ZM2.12883 51.0118C2.13012 51.0113 2.13155 51.0113 2.13283 51.0118C2.13359 51.0119 2.13428 51.0123 2.13483 51.0128C2.13286 51.0122 2.13082 51.0119 2.12877 51.0118M2.7649 22.0268C2.76543 22.0268 2.7659 22.0273 2.76643 22.0278C2.76697 22.0283 2.76843 22.0303 2.76943 22.0313L2.7649 22.0268ZM27.6199 71.444C27.621 71.444 27.622 71.4447 27.6229 71.4447C27.6253 71.4453 27.6277 71.446 27.6296 71.4473C27.6265 71.446 27.6233 71.4447 27.6201 71.444M69.15 49.8519C69.1513 49.8513 69.1533 49.851 69.1547 49.8509H69.1593C69.156 49.8511 69.1533 49.8514 69.15 49.8519ZM69.1627 21.846C69.1607 21.8464 69.1587 21.8466 69.1573 21.8465C69.1607 21.8465 69.164 21.846 69.1673 21.845C69.1653 21.8456 69.164 21.8459 69.1627 21.846ZM69.2107 50.6336C69.208 50.6359 69.2053 50.6379 69.2027 50.6397C69.206 50.6376 69.2087 50.6352 69.2107 50.6326C69.2107 50.6331 69.2107 50.6331 69.2107 50.6336Z" fill="#002F35"/>
<mask id="mask1_997_2811" style="mask-type:luminance" maskUnits="userSpaceOnUse" x="11" y="11" width="50" height="50">
<path d="M61 11H11V61H61V11Z" fill="white"/>
</mask>
<g mask="url(#mask1_997_2811)">
<path d="M33.5754 39.6176C33.511 39.6594 33.4354 39.6807 33.3586 39.6786C32.6291 39.6825 31.8992 39.6829 31.1689 39.6798C31.1667 39.6798 31.1645 39.6794 31.1624 39.6786C31.1604 39.6778 31.1586 39.6766 31.157 39.675C31.1554 39.6735 31.1541 39.6717 31.1532 39.6696C31.1524 39.6676 31.1519 39.6654 31.1518 39.6632V39.6627C31.1519 39.66 31.1524 39.6574 31.1534 39.655C31.5183 38.875 31.1848 38.195 30.5641 37.6914C30.239 37.4274 29.5471 36.9927 30.1162 36.5209C30.13 36.5099 30.1466 36.5032 30.1642 36.5016C30.9901 36.4406 31.8194 36.439 32.6456 36.4967C32.6516 36.4972 32.6572 36.5001 32.6611 36.5047C32.665 36.5094 32.667 36.5153 32.6665 36.5214C32.6666 36.5226 32.6664 36.524 32.6659 36.5252C32.4485 37.4113 33.0109 38.0565 33.6892 38.5103C34.2273 38.8703 34.0076 39.3276 33.5753 39.6175" fill="#F0BB62"/>
<path d="M29.7613 39.6607C29.7466 39.671 29.7292 39.6764 29.7112 39.6764L27.4247 39.6753C27.4198 39.6753 27.4152 39.6734 27.4119 39.6699C27.4085 39.6665 27.4066 39.6619 27.4066 39.6571C27.4066 39.6546 27.4071 39.6522 27.4081 39.65C27.5766 39.27 27.604 38.8877 27.4499 38.4933C27.2237 37.9141 26.678 37.6072 26.305 37.2552C26.3019 37.2524 26.3 37.2484 26.2998 37.2443C26.2996 37.2402 26.3011 37.2362 26.3039 37.2331L26.3044 37.2326C26.3064 37.2307 26.3088 37.2292 26.3114 37.2283C27.1464 36.972 27.9994 36.7784 28.8632 36.6491C28.868 36.6484 28.873 36.6497 28.8768 36.6526C28.8808 36.6556 28.8834 36.6599 28.8841 36.6648C28.8846 36.6664 28.8846 36.6683 28.8841 36.67C28.7581 37.5038 29.2974 38.0616 29.9201 38.4962C30.5314 38.9219 30.2118 39.3438 29.7611 39.6606" fill="#F0BB62"/>
<path d="M26.0415 38.4001C26.3425 38.5827 26.6682 38.9358 26.42 39.2796C26.3051 39.4254 26.1701 39.5543 26.0191 39.6623C26.0048 39.673 25.9874 39.6788 25.9695 39.6788L21.206 39.6804C21.1774 39.6804 21.1751 39.6724 21.1989 39.6562C22.4622 38.8162 23.8171 38.1225 25.2373 37.5887C25.2446 37.5859 25.2527 37.5857 25.2602 37.588C25.2677 37.5904 25.2742 37.5953 25.2785 37.6018C25.5129 37.9675 25.7673 38.2336 26.0416 38.4002" fill="#F0BB62"/>
<path d="M35.019 39.6612C35.0337 39.6714 35.0512 39.6769 35.069 39.6768L37.3556 39.6758C37.3604 39.6757 37.3651 39.6738 37.3685 39.6704C37.3719 39.667 37.3738 39.6624 37.3738 39.6576C37.3738 39.6551 37.3732 39.6527 37.3722 39.6505C37.2038 39.2704 37.1763 38.8881 37.3304 38.4937C37.5566 37.9145 38.1023 37.6077 38.4753 37.2556C38.4784 37.2528 38.4802 37.2489 38.4804 37.2448C38.4806 37.2407 38.4791 37.2366 38.4764 37.2335L38.4758 37.233C38.4738 37.2311 38.4714 37.2297 38.4688 37.2287C37.6285 36.9713 35.1327 36.5231 34.2664 36.4845C34.2616 36.484 34.2568 36.4853 34.2529 36.4883C34.249 36.4911 34.2464 36.4954 34.2455 36.5001C34.245 36.5019 34.245 36.5039 34.2455 36.5057C34.3715 37.3395 35.4829 38.0622 34.8601 38.4968C34.2488 38.9225 34.5684 39.3444 35.019 39.6612Z" fill="#F0BB62"/>
<path d="M39.5024 37.6019C39.5067 37.5954 39.5132 37.5905 39.5207 37.5881C39.5282 37.5857 39.5363 37.5859 39.5436 37.5887C40.9638 38.1226 42.3187 38.8162 43.582 39.6562C43.6058 39.6724 43.6034 39.6804 43.5748 39.6804L38.8112 39.6788C38.7934 39.6788 38.776 39.673 38.7617 39.6624C38.6107 39.5543 38.4757 39.4254 38.3608 39.2796C38.1127 38.9358 38.4384 38.5826 38.7394 38.4C39.0137 38.2335 39.2681 37.9674 39.5024 37.6017" fill="#F0BB62"/>
<path d="M40.394 43.4068C40.3838 43.3614 40.3851 43.3143 40.3976 43.2695C40.41 43.2247 40.4334 43.1837 40.4654 43.1501L54.7232 27.8491L54.7587 27.8107C54.8686 27.7023 55.0167 27.6416 55.171 27.6416C55.2836 27.6428 55.3935 27.6757 55.4881 27.7366C55.5828 27.7975 55.6583 27.8839 55.706 27.9858C55.7537 28.0877 55.7716 28.2011 55.7577 28.3127C55.7439 28.4243 55.6987 28.5298 55.6275 28.6169C55.6269 28.6173 55.6264 28.6179 55.6262 28.6187L55.547 28.6977L55.5467 28.698L40.7658 43.4886C40.7196 43.5366 40.6577 43.5662 40.5914 43.5721C40.4661 43.5813 40.4144 43.4943 40.394 43.407" fill="#F0BB62"/>
<path d="M41.7813 42.175C41.781 42.126 41.7927 42.0777 41.8155 42.0343C41.8382 41.9909 41.8713 41.9538 41.9118 41.9262L60.0009 29.3074L60.0462 29.2756C60.1835 29.1881 60.3497 29.1583 60.5088 29.1926C60.6246 29.2187 60.7306 29.277 60.8146 29.3608C60.8987 29.4445 60.9575 29.5502 60.9841 29.6659C61.0106 29.7815 61.004 29.9023 60.965 30.0143C60.9259 30.1264 60.856 30.2251 60.7633 30.2992C60.7627 30.2995 60.7621 30.3 60.7617 30.3006L60.6625 30.3646H60.6621L42.1466 42.3417C42.0884 42.3809 42.0179 42.3978 41.9483 42.3891C41.8171 42.3708 41.783 42.2696 41.7812 42.1751" fill="#F0BB62"/>
<path d="M34.0138 23.4999C34.2718 23.2408 34.4348 22.9023 34.4766 22.5391C34.5184 22.1759 34.4366 21.8092 34.2444 21.4983C34.0521 21.1873 33.7606 20.9501 33.417 20.8251C33.0734 20.7001 32.6976 20.6945 32.3504 20.8092C32.0032 20.9239 31.7048 21.1523 31.5034 21.4574C31.3019 21.7625 31.2092 22.1266 31.2402 22.4909C31.2712 22.8551 31.424 23.1983 31.6741 23.4651C31.9242 23.7318 32.2568 23.9065 32.6184 23.961C26.5028 26.1963 21.8809 30.7798 19.439 36.3456L51.9796 25.5885C46.7013 22.5756 40.2571 21.6501 34.0138 23.4999ZM26.1148 29.4268C26.1148 29.4268 23.6328 30.9295 20.9151 34.8159C20.9705 34.6917 22.7645 30.7017 25.7729 28.841C25.7729 28.841 26.1877 29.2999 26.1148 29.4269M43.6038 23.2333C47.1402 23.3231 50.7026 25.3805 50.813 25.445C46.5054 23.4606 43.6038 23.4153 43.6038 23.4153C43.4768 23.343 43.6038 23.2336 43.6038 23.2336" fill="#F0BB62"/>
<path d="M53.3167 40.4077C52.4925 49.0926 45.1101 55.889 36.1243 55.889C27.1385 55.889 19.7567 49.0928 18.9321 40.408L53.3167 40.4077Z" fill="#F0BB62"/>
<path d="M49.7224 49.3291C50.9767 47.3391 51.8059 45.7396 52.3501 44.4723C49.469 53.2831 42.1673 58.2665 32.7831 58.2665C20.7523 58.2665 11 48.3123 11 36.0331C11 23.7539 20.7525 13.7998 32.7832 13.7998C40.973 13.7998 48.3287 18.544 51.8713 25.4217C48.5785 20.3863 42.6849 17.5765 35.7087 17.5765C24.2691 17.5765 14.9955 26.8474 14.9955 38.2843C14.9955 49.7211 24.269 57.0971 35.7087 57.0971C41.3977 57.0971 46.9457 53.0433 49.7223 49.3293" fill="#F0BB62"/>
</g>
</g>
</g>
<g clip-path="url(#clip1_997_2811)">
<mask id="mask2_997_2811" style="mask-type:luminance" maskUnits="userSpaceOnUse" x="88" y="0" width="72" height="72">
<path d="M160 0H88V72H160V0Z" fill="white"/>
</mask>
<g mask="url(#mask2_997_2811)">
<path d="M159.982 34.0913C159.883 29.0241 159.557 24.0023 158.782 18.99C158.378 16.3725 157.797 13.6779 156.942 11.1519C156.223 9.03133 155.175 6.76587 153.372 5.3386C152.735 4.83429 151.961 4.37198 151.05 3.95167C149.812 3.38055 148.531 2.90942 147.219 2.5428C142.615 1.25513 137.795 0.678733 133.039 0.325133L131.716 0.2436C126.505 -0.0840227 121.277 -0.0811727 116.066 0.252133C115.595 0.294889 115.123 0.319022 114.65 0.324533C114.56 0.325533 114.478 0.367267 114.379 0.3738C110.823 0.637933 107.144 1.09667 103.639 1.83607C102.208 2.13745 100.794 2.51693 99.4047 2.9728C97.7737 3.508 96.1436 4.22173 94.7547 5.24327C94.3529 5.53376 93.9889 5.87323 93.6712 6.2538L93.2434 6.7638C93.1441 6.8652 93.0639 6.9836 93.0066 7.11347L92.6106 7.69747C91.6831 9.26413 91.0485 10.9895 90.5518 12.7495C90.1295 14.2469 89.7803 15.7613 89.504 17.293C88.6971 21.7668 88.2567 26.3618 88.1113 30.8565C88.0716 32.0813 88.02 33.2789 88.0076 34.4907C87.9573 39.3807 88.1526 44.3001 88.694 49.1623C88.7182 49.3811 88.7807 49.6423 88.7972 49.8932C88.8158 50.1754 88.8435 50.4565 88.8802 50.7367C89.3281 54.1812 89.9522 57.6408 91.083 60.9339C91.5817 62.3855 92.2132 63.8065 93.0904 65.0498C94.1442 66.5442 95.6942 67.5367 97.4067 68.27C100.139 69.44 103.103 70.1373 106.026 70.6293C109.113 71.1493 112.224 71.506 115.349 71.6993C115.449 71.708 115.549 71.71 115.65 71.7067L115.975 71.75C117.149 71.8147 118.326 71.8927 119.5 71.9313C123.645 72.0667 127.766 71.998 131.905 71.7613C132.016 71.7513 132.126 71.7353 132.234 71.712L132.621 71.702C135.783 71.5053 138.933 71.1407 142.057 70.6093C145.084 70.0933 148.188 69.3787 150.988 68.088C152.468 67.4053 153.886 66.4752 154.815 65.1831C155.498 64.2204 156.059 63.1764 156.484 62.0751C157.568 59.3177 158.247 56.3951 158.715 53.4785C159.242 50.1804 159.595 46.8569 159.774 43.5218C159.951 40.2624 160.041 37.0855 159.982 34.0913ZM90.1288 51.0118C90.1301 51.0113 90.1315 51.0113 90.1328 51.0118C90.1336 51.0119 90.1343 51.0123 90.1348 51.0128C90.1329 51.0122 90.1308 51.0119 90.1288 51.0118M90.7649 22.0268C90.7654 22.0268 90.7659 22.0273 90.7664 22.0278C90.767 22.0283 90.7684 22.0303 90.7694 22.0313L90.7649 22.0268ZM115.62 71.444C115.621 71.444 115.622 71.4447 115.623 71.4447C115.625 71.4453 115.628 71.446 115.63 71.4473C115.627 71.446 115.623 71.4447 115.62 71.444M157.15 49.8519C157.151 49.8513 157.153 49.851 157.155 49.8509H157.159C157.156 49.8511 157.153 49.8514 157.15 49.8519ZM157.163 21.846C157.161 21.8464 157.159 21.8466 157.157 21.8465C157.161 21.8465 157.164 21.846 157.167 21.845C157.165 21.8456 157.164 21.8459 157.163 21.846ZM157.211 50.6336C157.208 50.6359 157.205 50.6379 157.203 50.6397C157.206 50.6376 157.209 50.6352 157.211 50.6326C157.211 50.6331 157.211 50.6331 157.211 50.6336Z" fill="#2C272E"/>
<path d="M128.876 15.8667C139.99 15.8667 149 24.8658 149 35.9667C149 47.0676 139.99 56.0667 128.876 56.0667C117.762 56.0667 108.752 47.0676 108.752 35.9667C108.752 24.8658 117.762 15.8667 128.876 15.8667Z" fill="#DD4A48"/>
<path d="M144.05 28.5572C140.093 20.3275 130.283 16.7572 121.953 20.5155C121.934 20.4746 121.912 20.4349 121.888 20.3966C121.769 20.1953 121.611 20.0194 121.424 19.8791C121.237 19.7388 121.024 19.6368 120.797 19.579C120.57 19.5211 120.334 19.5087 120.102 19.5421C119.871 19.5757 119.648 19.6545 119.447 19.7742C119.246 19.8939 119.07 20.0521 118.931 20.2397C118.791 20.4273 118.69 20.6406 118.633 20.8673C118.576 21.0941 118.564 21.3299 118.599 21.5611C118.633 21.7923 118.713 22.0145 118.834 22.2147C118.847 22.2366 118.861 22.2577 118.876 22.2781C115.851 24.4474 113.658 27.5827 112.659 31.1655C111.73 34.2346 111.722 37.5081 112.635 40.5817C112.652 40.64 112.682 40.6935 112.723 40.7384C112.764 40.7832 112.815 40.818 112.871 40.8402C112.928 40.8624 112.989 40.8713 113.049 40.8664C113.11 40.8614 113.168 40.8426 113.22 40.8115C114.194 40.2172 115.108 39.6567 116.05 39.1437C116.258 39.0629 116.426 38.9035 116.517 38.7001C116.609 38.4965 116.616 38.2653 116.538 38.0564C116.094 35.5196 116.444 32.9077 117.542 30.5775C118.64 28.2472 120.431 26.3121 122.671 25.0367C124.911 23.7612 127.491 23.2075 130.058 23.4511C132.625 23.6947 135.055 24.7238 137.014 26.3979C137.375 26.7069 137.707 27.0494 138.089 27.4358C138.163 27.5107 138.204 27.6118 138.203 27.7169C138.202 27.8219 138.159 27.9223 138.085 27.9961C138.062 28.0182 138.037 28.0376 138.01 28.0539C137.324 28.4499 136.699 28.8203 136.086 29.2047C132.435 31.4945 128.787 33.7881 125.14 36.0857C123 37.434 120.86 38.7829 118.721 40.1323L117.684 40.7858C117.37 40.9839 117.111 41.162 116.928 41.2613H116.912C115.387 42.0873 115.244 42.0853 114.215 41.9564C112.98 41.5523 111.643 41.5909 110.433 42.0655C107.336 43.8701 104.405 45.944 101.673 48.263C98.2043 50.8953 98.9183 50.5052 99.434 50.1961C99.9496 49.8869 109.043 44.3311 109.593 44.1273C110.143 43.9234 110.547 44.8125 110.2 45.1039C109.853 45.3953 109.559 45.615 107.67 46.9637C105.78 48.3124 99.9457 51.9885 100.049 52.0955C100.152 52.2023 110.36 46.292 110.84 46.0187C110.893 45.9793 110.954 45.9532 111.02 45.9427C111.085 45.9322 111.151 45.9376 111.214 45.9585C111.276 45.9793 111.333 46.0149 111.379 46.0624C111.424 46.1098 111.458 46.1676 111.477 46.2308V46.2445C111.523 46.2888 111.559 46.3438 111.58 46.4048C111.6 46.4658 111.606 46.5309 111.596 46.5945C111.586 46.6581 111.56 46.7183 111.521 46.7698C111.483 46.8213 111.432 46.8627 111.373 46.8901C110.905 47.1931 100.925 53.4621 100.975 53.5968C101.025 53.7315 106.995 50.279 109.077 49.2393C111.16 48.1997 111.487 48.0509 111.911 47.8706C112.335 47.6903 112.95 48.4649 112.519 48.8491C112.089 49.2333 102.916 54.6683 102.406 54.9891C101.896 55.3099 101.216 55.7498 105.182 53.9096C108.518 52.5763 111.73 50.9511 114.78 49.0528C115.25 48.7205 115.646 48.2943 115.943 47.8013C116.24 47.3083 116.432 46.7591 116.505 46.1885C116.831 44.9505 116.603 44.7387 118.381 43.6771L118.467 43.6255L118.574 43.5641L118.621 43.5363C119.16 43.2233 119.701 42.913 120.243 42.6055L121.32 41.9935C124.757 40.0379 128.191 38.0863 131.622 36.1385L137.011 33.0683C138.064 32.4739 139.123 31.8799 140.167 31.2718C141.402 30.5508 142.627 29.8119 143.892 29.0573C143.975 29.0074 144.037 28.9289 144.066 28.8367C144.095 28.7445 144.089 28.6449 144.05 28.5566M119.507 21.8489L119.489 21.8233C119.352 21.5929 119.312 21.3176 119.378 21.0578C119.444 20.798 119.61 20.5751 119.841 20.4379C120.071 20.3009 120.347 20.2609 120.607 20.3267C120.867 20.3927 121.091 20.5591 121.228 20.7894L121.26 20.8469C120.657 21.1478 120.072 21.4823 119.507 21.8489Z" fill="white"/>
<path d="M145.117 34.5407C145.174 34.507 145.239 34.4883 145.306 34.4865C145.373 34.4846 145.439 34.4996 145.498 34.5301C145.558 34.5605 145.608 34.6054 145.646 34.6606C145.683 34.7158 145.706 34.7795 145.712 34.8459C145.946 38.2678 145.129 41.6796 143.368 44.6245C141.608 47.5695 138.988 49.9071 135.861 51.3244C132.733 52.7416 129.247 53.1708 125.868 52.5547C122.49 51.9385 119.38 50.3063 116.956 47.8766C116.92 47.8392 116.891 47.7951 116.872 47.7468C116.853 47.6984 116.843 47.6467 116.844 47.5947C116.845 47.5427 116.856 47.4914 116.877 47.4436C116.897 47.3958 116.927 47.3526 116.965 47.3164C116.982 47.2993 117.001 47.2839 117.022 47.2704C118.013 46.6761 119.005 46.1018 119.982 45.4877C120.107 45.3834 120.266 45.3301 120.429 45.339C120.591 45.3478 120.744 45.418 120.856 45.5352C122.65 47.0926 124.862 48.0887 127.218 48.3997C129.574 48.7107 131.97 48.3229 134.107 47.2844C136.093 46.4292 137.811 45.0543 139.08 43.3049C140.348 41.5555 141.121 39.4965 141.315 37.3452C141.324 37.1532 141.384 36.967 141.489 36.8056C141.593 36.6442 141.738 36.5133 141.91 36.4261C142.983 35.8223 144.034 35.1865 145.117 34.5407Z" fill="white"/>
<path d="M117.319 38.3749C116.803 36.4017 116.866 34.322 117.5 32.3833C118.094 30.3172 119.291 28.4746 120.938 27.0908C119.617 28.6944 118.602 30.5274 117.946 32.4981C117.401 34.4066 117.189 36.3946 117.32 38.3749" fill="white"/>
<path d="M137.443 27.6065C136.789 26.8058 135.992 26.134 135.091 25.6258C134.244 25.0775 133.303 24.6894 132.315 24.481C133.23 24.891 134.124 25.3479 134.992 25.8497C135.84 26.3918 136.658 26.9782 137.443 27.6065" fill="white"/>
</g>
</g>
<defs>
<clipPath id="clip0_997_2811">
<rect width="72" height="72" fill="white"/>
</clipPath>
<clipPath id="clip1_997_2811">
<rect width="72" height="72" fill="white" transform="translate(88)"/>
</clipPath>
</defs>
</svg>
