<svg width="330" height="74" viewBox="0 0 330 74" fill="none" xmlns="http://www.w3.org/2000/svg">
<g clip-path="url(#clip0_2859_4104)">
<path d="M99.7481 57.8147C101.34 55.2683 102.772 52.722 103.886 50.0166C99.2707 64.0213 87.6531 71.9785 72.6935 71.9785C53.5962 71.9785 38 56.0641 38 36.4893C38 16.9145 53.5962 1 72.6935 1C85.4251 1 97.2018 8.16151 103.09 19.4608C97.8384 11.5035 88.4489 6.88835 77.3087 6.88835C59.1662 6.88835 44.3658 21.6888 44.3658 39.8313C44.3658 57.9738 59.1662 69.7505 77.3087 69.7505C86.5391 70.0688 95.2921 63.703 99.7481 57.8147Z" fill="#002F35"/>
<path d="M74.7625 16.5974C75.7173 15.6426 75.7173 13.892 74.7625 12.9371C73.8076 11.9822 72.057 11.9822 71.1021 12.9371C70.1473 13.892 70.1473 15.6426 71.1021 16.5974C71.4204 16.9157 72.057 17.234 72.5344 17.3931C63.1449 20.8943 55.506 27.8967 51.5273 37.1271L103.409 19.9395C94.6555 14.8468 84.3111 13.7328 74.7625 16.5974ZM62.19 25.987C62.19 25.987 58.2114 28.3741 53.9145 34.5808C54.0737 34.4216 56.9383 28.0558 61.7126 25.0321C61.7126 25.0321 62.3492 25.8278 62.19 25.987ZM90.0404 16.12C95.6104 16.2791 101.34 19.6212 101.499 19.6212C94.6556 16.4383 90.0404 16.4383 90.0404 16.4383C89.8812 16.2791 90.0404 16.12 90.0404 16.12Z" fill="#002F35"/>
<path d="M84.9473 48.2666C84.9473 48.1074 84.9473 47.9483 85.1064 47.7891L107.864 23.44C108.023 23.2808 108.342 23.1217 108.501 23.1217C108.978 23.1217 109.456 23.5991 109.456 24.0766C109.456 24.2357 109.456 24.554 109.296 24.7132L109.137 24.8723L85.5838 48.4257C85.5838 48.4257 85.4247 48.5849 85.2656 48.5849C85.1064 48.5849 84.9473 48.4257 84.9473 48.2666Z" fill="#002F35"/>
<path d="M87.1758 46.3557C87.1758 46.1966 87.1758 46.0374 87.3349 46.0374L116.14 25.9852C116.299 25.826 116.618 25.826 116.936 25.826C117.413 25.9852 117.891 26.4626 117.732 27.0992C117.732 27.2584 117.572 27.5766 117.413 27.7358L117.254 27.8949L87.8124 46.9923C87.6532 46.9923 87.6532 47.1514 87.4941 46.9923C87.1758 46.674 87.1758 46.5149 87.1758 46.3557Z" fill="#002F35"/>
<path d="M105.476 43.4905C103.885 58.6092 90.3575 69.5902 75.2387 67.9988C62.348 66.7256 52.0036 56.3812 50.7305 43.4905H105.476Z" fill="#002F35"/>
<path d="M74.1257 42.2179C73.9665 42.2179 73.9665 42.377 73.8074 42.377H70.3062C70.9428 41.1039 70.3062 39.9899 69.3513 39.1941C68.8739 38.7167 67.7599 38.0801 68.7148 37.2844C69.9879 37.1253 71.4202 37.1253 72.6934 37.2844C72.3751 38.7167 73.1708 39.6716 74.2848 40.4673C75.0805 41.1039 74.7623 41.7404 74.1257 42.2179Z" fill="#002F35"/>
<path d="M68.0779 42.3777H64.4176C64.7359 41.7412 64.7359 41.1046 64.4176 40.468C64.0993 39.5131 63.1444 39.0357 62.667 38.5583C63.9401 38.0808 65.3725 37.7625 66.8048 37.6034C66.6456 38.8766 67.4413 39.8314 68.3962 40.468C69.1919 41.1046 68.7145 41.7412 68.0779 42.3777Z" fill="#002F35"/>
<path d="M62.0305 40.3095C62.508 40.6278 62.9854 41.1053 62.6671 41.7418C62.508 41.901 62.1897 42.2193 62.0305 42.3784H54.3916C56.4605 41.1053 58.5294 39.9912 60.7574 39.0364C61.2348 39.5138 61.5531 39.9912 62.0305 40.3095Z" fill="#002F35"/>
<path d="M76.3532 42.3783H80.0136C79.6953 41.7417 79.6953 41.1052 80.0136 40.4686C80.3319 39.5137 81.2867 39.0363 81.7642 38.5588C79.5361 37.9223 77.3081 37.604 75.0801 37.4448C75.2392 38.718 76.9898 39.9911 76.0349 40.6277C75.2392 41.1052 75.7167 41.9009 76.3532 42.3783Z" fill="#002F35"/>
<path d="M83.5138 39.0364C85.901 39.8321 87.9699 40.9461 90.0387 42.3784H82.3998C82.0815 42.2193 81.9224 42.0601 81.7632 41.7418C81.4449 41.2644 81.9224 40.6278 82.3998 40.3095C82.8772 39.9912 83.1955 39.5138 83.5138 39.0364Z" fill="#002F35"/>
<path d="M144.102 39.0654C141.667 39.0654 139.55 38.5561 137.768 37.5376C135.97 36.5191 134.601 35.1345 133.646 33.3839C132.691 31.6333 132.214 29.6599 132.214 27.4478C132.214 24.8697 132.739 22.6735 133.789 20.8592C134.84 19.045 136.208 17.6445 137.895 16.6737C139.582 15.7029 141.381 15.2096 143.274 15.2096C144.739 15.2096 146.123 15.512 147.428 16.1167C148.733 16.7215 149.879 17.549 150.882 18.5835C151.884 19.6338 152.68 20.8433 153.269 22.212C153.858 23.5806 154.144 25.0447 154.144 26.5884C154.112 27.2728 153.842 27.8298 153.332 28.2595C152.823 28.6891 152.218 28.896 151.534 28.896H135.126L133.837 24.5991H149.608L148.669 25.4585V24.2968C148.606 23.4692 148.319 22.7212 147.794 22.0687C147.269 21.4162 146.601 20.8911 145.821 20.4932C145.025 20.1113 144.197 19.9203 143.306 19.9203C142.415 19.9203 141.651 20.0317 140.903 20.2704C140.155 20.5091 139.519 20.8911 138.978 21.4322C138.436 21.9732 138.007 22.7053 137.688 23.6283C137.37 24.5514 137.211 25.7131 137.211 27.1136C137.211 28.6573 137.529 29.9782 138.182 31.0445C138.818 32.1267 139.662 32.9383 140.68 33.4953C141.699 34.0523 142.781 34.3388 143.927 34.3388C144.993 34.3388 145.837 34.2592 146.457 34.0842C147.094 33.9091 147.603 33.7022 147.985 33.4635C148.367 33.2248 148.717 33.0179 149.035 32.8428C149.545 32.5882 150.038 32.4609 150.5 32.4609C151.136 32.4609 151.645 32.6837 152.075 33.1134C152.489 33.5431 152.696 34.0364 152.696 34.6093C152.696 35.3891 152.298 36.0894 151.486 36.71C150.738 37.3466 149.704 37.8877 148.351 38.3651C146.998 38.8426 145.614 39.0813 144.182 39.0813L144.102 39.0654Z" fill="#002F35"/>
<path d="M162.148 38.6359C161.352 38.6359 160.636 38.3813 160 37.8879C159.363 37.3946 159.061 36.758 159.061 36.0259V11.1835C159.061 10.4355 159.315 9.81481 159.809 9.32147C160.302 8.82812 160.938 8.57349 161.671 8.57349H174.052C175.548 8.57349 176.932 8.97135 178.237 9.75116C179.542 10.5469 180.593 11.6291 181.404 13.0136C182.2 14.3982 182.614 16.0055 182.614 17.8039C182.614 18.8861 182.391 19.9523 181.946 20.9868C181.5 22.0212 180.895 22.9443 180.147 23.7877C179.383 24.6153 178.54 25.2678 177.585 25.7134L177.633 24.7267C178.428 25.1564 179.097 25.6656 179.638 26.2545C180.163 26.8433 180.577 27.4799 180.879 28.1483C181.182 28.8167 181.357 29.5488 181.42 30.3126C181.532 31.0288 181.611 31.6654 181.659 32.2065C181.707 32.7476 181.786 33.2091 181.914 33.5751C182.041 33.9411 182.296 34.2276 182.662 34.4345C183.298 34.8005 183.68 35.3416 183.839 36.0419C183.999 36.7421 183.839 37.3628 183.346 37.9039C183.028 38.2699 182.63 38.5086 182.137 38.62C181.643 38.7155 181.166 38.7155 180.672 38.62C180.179 38.5245 179.781 38.3813 179.463 38.2062C178.985 37.9198 178.492 37.4901 177.999 36.9331C177.521 36.3761 177.123 35.6281 176.821 34.6732C176.519 33.7343 176.375 32.5088 176.375 31.0288C176.375 30.5355 176.296 30.0898 176.121 29.6761C175.946 29.2623 175.707 28.8963 175.389 28.5939C175.071 28.2915 174.673 28.0687 174.179 27.9096C173.686 27.7504 173.113 27.6708 172.461 27.6708H163.787L164.424 26.6841V36.01C164.424 36.758 164.217 37.3787 163.819 37.872C163.421 38.3813 162.864 38.62 162.148 38.62V38.6359ZM163.819 23.2466H173.829C174.338 23.2466 174.848 23.0079 175.325 22.5305C175.818 22.053 176.216 21.4165 176.535 20.5889C176.853 19.7773 177.012 18.8701 177.012 17.8994C177.012 16.6421 176.678 15.5918 176.009 14.7483C175.341 13.9048 174.609 13.4751 173.845 13.4751H163.914L164.424 12.1065V24.2652L163.819 23.2307V23.2466Z" fill="#002F35"/>
<path d="M198.751 39.0654C196.316 39.0654 194.2 38.5561 192.417 37.5376C190.635 36.5191 189.25 35.1345 188.296 33.3839C187.341 31.6333 186.863 29.6599 186.863 27.4478C186.863 24.8697 187.388 22.6735 188.439 20.8592C189.489 19.045 190.858 17.6445 192.545 16.6737C194.232 15.7029 196.03 15.2096 197.924 15.2096C199.388 15.2096 200.773 15.512 202.078 16.1167C203.382 16.7215 204.528 17.549 205.531 18.5835C206.534 19.6338 207.329 20.8433 207.918 22.212C208.507 23.5806 208.793 25.0447 208.793 26.5884C208.762 27.2728 208.491 27.8298 207.982 28.2595C207.473 28.6891 206.868 28.896 206.183 28.896H189.776L188.487 24.5991H204.258L203.319 25.4585V24.2968C203.255 23.4692 202.969 22.7212 202.444 22.0687C201.918 21.4162 201.25 20.8911 200.47 20.4932C199.674 20.1113 198.847 19.9203 197.956 19.9203C197.064 19.9203 196.301 20.0317 195.553 20.2704C194.805 20.5091 194.168 20.8911 193.627 21.4322C193.086 21.9732 192.656 22.7053 192.338 23.6283C192.02 24.5514 191.86 25.7131 191.86 27.1136C191.86 28.6573 192.179 29.9782 192.831 31.0445C193.468 32.1267 194.311 32.9383 195.33 33.4953C196.348 34.0523 197.43 34.3388 198.576 34.3388C199.643 34.3388 200.486 34.2592 201.107 34.0842C201.743 33.9091 202.237 33.7022 202.635 33.4635C203.032 33.2248 203.367 33.0179 203.685 32.8428C204.194 32.5882 204.687 32.4609 205.149 32.4609C205.786 32.4609 206.295 32.6837 206.725 33.1134C207.138 33.5431 207.345 34.0364 207.345 34.6093C207.345 35.3891 206.947 36.0894 206.136 36.71C205.388 37.3466 204.337 37.8877 203.001 38.3651C201.664 38.8426 200.263 39.0813 198.831 39.0813L198.751 39.0654Z" fill="#002F35"/>
<path d="M211.945 35.0704C211.659 34.6725 211.532 34.1474 211.563 33.5267C211.595 32.906 211.961 32.349 212.677 31.8875C213.139 31.601 213.616 31.4737 214.142 31.5215C214.651 31.5692 215.16 31.8238 215.653 32.3172C216.481 33.1447 217.356 33.7972 218.279 34.2588C219.202 34.7203 220.348 34.9431 221.717 34.9431C222.146 34.9112 222.624 34.8476 223.133 34.7521C223.642 34.6566 224.104 34.4179 224.486 34.0678C224.868 33.7017 225.075 33.1607 225.075 32.4127C225.075 31.7761 224.852 31.2827 224.422 30.9167C223.993 30.5507 223.42 30.2324 222.719 29.9778C222.019 29.7231 221.239 29.4844 220.38 29.2457C219.489 28.9911 218.582 28.7046 217.659 28.3863C216.736 28.068 215.876 27.6702 215.096 27.1609C214.317 26.6676 213.696 25.9991 213.203 25.1557C212.709 24.3281 212.47 23.2778 212.47 22.0205C212.47 20.5882 212.868 19.3787 213.68 18.3761C214.476 17.3735 215.526 16.5937 216.799 16.0526C218.072 15.5115 219.409 15.241 220.826 15.241C221.717 15.241 222.64 15.3524 223.611 15.5593C224.581 15.7821 225.52 16.1163 226.396 16.5937C227.287 17.0711 228.035 17.6918 228.624 18.4557C228.942 18.8854 229.133 19.3946 229.181 19.9994C229.244 20.6041 228.974 21.1452 228.369 21.6386C227.939 21.9887 227.43 22.1319 226.857 22.0842C226.284 22.0364 225.807 21.8455 225.441 21.5113C224.947 20.8747 224.295 20.3813 223.483 20.0153C222.672 19.6493 221.733 19.4583 220.666 19.4583C220.237 19.4583 219.775 19.506 219.266 19.6015C218.757 19.697 218.327 19.9198 217.961 20.254C217.595 20.5882 217.404 21.1134 217.404 21.8296C217.404 22.482 217.627 23.0072 218.056 23.4051C218.486 23.787 219.059 24.1053 219.791 24.344C220.523 24.5828 221.303 24.8215 222.131 25.0602C222.99 25.283 223.865 25.5695 224.756 25.8718C225.648 26.1901 226.459 26.6039 227.207 27.1132C227.955 27.6224 228.56 28.2908 229.006 29.1184C229.467 29.93 229.69 30.9804 229.69 32.2376C229.69 33.7017 229.26 34.9431 228.401 35.9775C227.541 37.012 226.475 37.7918 225.186 38.3169C223.897 38.8421 222.576 39.1127 221.239 39.1127C219.552 39.1127 217.865 38.8262 216.163 38.2374C214.476 37.6485 213.075 36.6141 211.945 35.1181V35.0704Z" fill="#002F35"/>
<path d="M234.258 16.0849H244.443C245.127 16.0849 245.7 16.3077 246.162 16.7692C246.623 17.2307 246.846 17.8037 246.846 18.488C246.846 19.1723 246.623 19.6975 246.162 20.1431C245.7 20.5887 245.127 20.8115 244.443 20.8115H234.258C233.573 20.8115 233 20.5887 232.539 20.1272C232.077 19.6657 231.854 19.0927 231.854 18.4084C231.854 17.7241 232.077 17.1989 232.539 16.7533C233 16.3077 233.573 16.0849 234.258 16.0849ZM238.841 10.7058C239.589 10.7058 240.194 10.9604 240.671 11.4538C241.149 11.9631 241.387 12.5837 241.387 13.3158V32.4291C241.387 32.8269 241.467 33.1611 241.626 33.4158C241.785 33.6704 241.992 33.8614 242.263 33.9728C242.533 34.0842 242.835 34.1478 243.138 34.1478C243.488 34.1478 243.79 34.0842 244.077 33.9568C244.363 33.8295 244.697 33.7659 245.064 33.7659C245.461 33.7659 245.827 33.9569 246.162 34.3229C246.496 34.6889 246.655 35.2141 246.655 35.8666C246.655 36.6623 246.225 37.3307 245.35 37.84C244.475 38.3492 243.536 38.6198 242.533 38.6198C241.928 38.6198 241.26 38.572 240.528 38.4766C239.796 38.3811 239.111 38.1264 238.459 37.7445C237.822 37.3625 237.281 36.7578 236.852 35.9621C236.422 35.1663 236.199 34.0523 236.199 32.6519V13.3317C236.199 12.5837 236.454 11.9631 236.947 11.4697C237.44 10.9764 238.077 10.7217 238.809 10.7217L238.841 10.7058Z" fill="#002F35"/>
<path d="M254.15 38.6355C253.402 38.6355 252.782 38.3809 252.304 37.8875C251.811 37.3942 251.572 36.7576 251.572 36.0256V18.2809C251.572 17.5329 251.811 16.9123 252.304 16.4189C252.798 15.9256 253.402 15.6709 254.15 15.6709C254.898 15.6709 255.503 15.9256 255.996 16.4189C256.49 16.9282 256.729 17.5489 256.729 18.2809V22.3232L256.426 19.4427C256.744 18.7584 257.158 18.1536 257.652 17.6125C258.161 17.0873 258.718 16.6417 259.354 16.2757C259.991 15.9256 260.659 15.655 261.376 15.48C262.092 15.3049 262.808 15.2253 263.524 15.2253C264.383 15.2253 265.1 15.4641 265.688 15.9574C266.277 16.4508 266.564 17.0237 266.564 17.6762C266.564 18.6151 266.325 19.2994 265.832 19.7132C265.338 20.127 264.813 20.3339 264.24 20.3339C263.699 20.3339 263.206 20.2384 262.76 20.0315C262.315 19.8246 261.805 19.7291 261.232 19.7291C260.723 19.7291 260.198 19.8565 259.657 20.0952C259.132 20.3339 258.638 20.7158 258.193 21.241C257.747 21.7503 257.397 22.3869 257.126 23.1507C256.856 23.9146 256.713 24.8059 256.713 25.8403V36.0256C256.713 36.7735 256.474 37.3942 255.981 37.8875C255.487 38.3968 254.882 38.6355 254.134 38.6355H254.15Z" fill="#002F35"/>
<path d="M291.565 27.1614C291.565 29.5167 291.04 31.5856 289.99 33.368C288.939 35.1663 287.539 36.5509 285.772 37.5535C284.006 38.5561 282.048 39.0495 279.868 39.0495C277.688 39.0495 275.714 38.5561 273.964 37.5535C272.197 36.5509 270.797 35.1504 269.746 33.368C268.696 31.5856 268.171 29.5008 268.171 27.1614C268.171 24.8219 268.696 22.7371 269.746 20.9547C270.797 19.1723 272.197 17.7559 273.964 16.7374C275.73 15.7189 277.688 15.2096 279.868 15.2096C282.048 15.2096 284.022 15.7189 285.772 16.7374C287.539 17.7559 288.939 19.1564 289.99 20.9547C291.04 22.7531 291.565 24.8219 291.565 27.1614ZM286.409 27.1614C286.409 25.6972 286.106 24.44 285.534 23.3578C284.945 22.2915 284.165 21.4481 283.162 20.8433C282.176 20.2386 281.078 19.9362 279.868 19.9362C278.659 19.9362 277.576 20.2386 276.574 20.8433C275.587 21.4481 274.791 22.2756 274.202 23.3578C273.614 24.44 273.327 25.6972 273.327 27.1614C273.327 28.6255 273.614 29.8509 274.202 30.9172C274.791 31.9994 275.571 32.8269 276.574 33.4317C277.576 34.0364 278.659 34.3388 279.868 34.3388C281.078 34.3388 282.16 34.0364 283.162 33.4317C284.165 32.8269 284.945 31.9994 285.534 30.9172C286.122 29.8509 286.409 28.5937 286.409 27.1614Z" fill="#002F35"/>
<path d="M136.208 63.4135C135.317 63.4135 134.521 63.3021 133.805 63.0793C133.089 62.8565 132.405 62.4586 131.768 61.9016C131.609 61.7584 131.482 61.5992 131.386 61.4242C131.291 61.2491 131.259 61.0741 131.259 60.8831C131.259 60.5966 131.37 60.3261 131.577 60.1033C131.784 59.8805 132.055 59.7691 132.373 59.7691C132.612 59.7691 132.834 59.8486 133.025 59.9919C133.503 60.3897 133.996 60.6921 134.474 60.8831C134.951 61.09 135.54 61.1854 136.24 61.1854C136.717 61.1854 137.147 61.1059 137.545 60.9626C137.943 60.8194 138.261 60.6125 138.5 60.3738C138.739 60.1192 138.866 59.8486 138.866 59.5303C138.866 59.1484 138.755 58.8301 138.516 58.5596C138.277 58.289 137.943 58.0662 137.465 57.8752C136.988 57.6843 136.399 57.541 135.667 57.4456C134.983 57.3501 134.378 57.1909 133.853 56.984C133.328 56.7771 132.898 56.5066 132.548 56.1883C132.198 55.87 131.927 55.4881 131.752 55.0425C131.577 54.5969 131.482 54.1035 131.482 53.5624C131.482 52.7349 131.688 52.0346 132.118 51.4458C132.548 50.857 133.121 50.4114 133.853 50.109C134.585 49.8066 135.381 49.6475 136.256 49.6475C137.083 49.6475 137.847 49.7748 138.564 50.0135C139.264 50.2681 139.853 50.5705 140.298 50.9524C140.664 51.2389 140.855 51.589 140.855 51.971C140.855 52.2574 140.744 52.5121 140.537 52.7349C140.314 52.9577 140.059 53.085 139.773 53.085C139.582 53.085 139.407 53.0213 139.264 52.9099C139.057 52.7349 138.786 52.5598 138.436 52.4007C138.086 52.2415 137.736 52.1142 137.354 52.0028C136.972 51.8914 136.622 51.8437 136.288 51.8437C135.747 51.8437 135.285 51.9073 134.903 52.0505C134.521 52.1938 134.251 52.3847 134.06 52.6235C133.869 52.8622 133.773 53.1486 133.773 53.4669C133.773 53.8489 133.885 54.1672 134.107 54.4059C134.33 54.6605 134.649 54.8515 135.078 54.9947C135.492 55.138 136.001 55.2653 136.59 55.3926C137.354 55.5358 138.022 55.695 138.611 55.8859C139.184 56.0769 139.678 56.3156 140.059 56.618C140.441 56.9204 140.728 57.2864 140.919 57.7479C141.11 58.1935 141.205 58.7505 141.205 59.403C141.205 60.2306 140.983 60.9467 140.521 61.5356C140.059 62.1244 139.455 62.5859 138.723 62.9042C137.975 63.2225 137.179 63.3816 136.304 63.3816L136.208 63.4135Z" fill="#002F35"/>
<path d="M146.791 51.765C146.362 51.765 146.059 51.7014 145.868 51.5581C145.693 51.4149 145.598 51.1762 145.598 50.8102V50.4441C145.598 50.0781 145.693 49.8235 145.9 49.6961C146.091 49.5688 146.393 49.4893 146.807 49.4893C147.253 49.4893 147.571 49.5529 147.746 49.6961C147.921 49.8394 148.017 50.0781 148.017 50.4441V50.8102C148.017 51.1762 147.921 51.4308 147.73 51.5581C147.539 51.6855 147.221 51.765 146.791 51.765ZM147.953 62.0458C147.953 62.38 147.842 62.6505 147.635 62.8733C147.412 63.0961 147.141 63.2075 146.807 63.2075C146.473 63.2075 146.202 63.0961 145.98 62.8733C145.757 62.6505 145.661 62.38 145.661 62.0458V54.1522C145.661 53.818 145.773 53.5475 145.98 53.3246C146.202 53.1018 146.473 52.9904 146.807 52.9904C147.141 52.9904 147.412 53.1018 147.635 53.3246C147.858 53.5475 147.953 53.818 147.953 54.1522V62.0458Z" fill="#002F35"/>
<path d="M158.441 52.8154C159.38 52.8154 160.096 53.0064 160.59 53.4042C161.083 53.8021 161.417 54.3273 161.608 54.9798C161.799 55.6323 161.879 56.3643 161.879 57.16V62.0458C161.879 62.38 161.767 62.6505 161.56 62.8733C161.338 63.0961 161.067 63.2075 160.733 63.2075C160.399 63.2075 160.128 63.0961 159.905 62.8733C159.682 62.6505 159.587 62.38 159.587 62.0458V57.16C159.587 56.7463 159.539 56.3643 159.428 56.0301C159.316 55.6959 159.125 55.4254 158.839 55.2185C158.552 55.0116 158.155 54.9161 157.629 54.9161C157.104 54.9161 156.69 55.0116 156.34 55.2185C155.99 55.4254 155.72 55.6959 155.545 56.0301C155.354 56.3643 155.274 56.7463 155.274 57.16V62.0458C155.274 62.38 155.163 62.6505 154.956 62.8733C154.733 63.0961 154.462 63.2075 154.128 63.2075C153.794 63.2075 153.524 63.0961 153.301 62.8733C153.078 62.6505 152.982 62.38 152.982 62.0458V54.1522C152.982 53.818 153.094 53.5475 153.301 53.3247C153.524 53.1019 153.794 52.9905 154.128 52.9905C154.462 52.9905 154.733 53.1019 154.956 53.3247C155.179 53.5475 155.274 53.818 155.274 54.1522V54.9798L154.988 54.9161C155.099 54.6933 155.274 54.4705 155.481 54.2159C155.704 53.9612 155.958 53.7384 156.245 53.5156C156.531 53.2928 156.866 53.1178 157.232 52.9905C157.598 52.8631 157.995 52.7836 158.441 52.7836V52.8154Z" fill="#002F35"/>
<path d="M171.267 52.8146C171.808 52.8146 172.285 52.8941 172.731 53.0692C173.176 53.2284 173.558 53.4512 173.893 53.7058C174.227 53.9604 174.465 54.215 174.656 54.4856C174.847 54.7402 174.927 54.963 174.927 55.1381L174.434 55.3927V53.9922C174.434 53.658 174.545 53.3875 174.752 53.1647C174.975 52.9419 175.245 52.8305 175.579 52.8305C175.914 52.8305 176.184 52.9419 176.407 53.1488C176.63 53.3716 176.725 53.6421 176.725 53.9922V62.4906C176.725 63.6046 176.487 64.4799 176.009 65.1483C175.532 65.8167 174.911 66.2941 174.131 66.5965C173.351 66.8989 172.524 67.0421 171.633 67.0421C171.378 67.0421 171.044 67.0103 170.646 66.9466C170.248 66.883 169.85 66.8034 169.484 66.7238C169.118 66.6283 168.832 66.5488 168.641 66.4692C168.259 66.31 167.988 66.1032 167.845 65.8485C167.702 65.5939 167.67 65.3393 167.765 65.0528C167.877 64.6868 168.068 64.4321 168.322 64.3048C168.577 64.1775 168.848 64.1616 169.118 64.2571C169.246 64.2889 169.452 64.3685 169.755 64.4799C170.041 64.5913 170.375 64.7027 170.726 64.7982C171.076 64.8937 171.378 64.9414 171.649 64.9414C172.603 64.9414 173.304 64.7504 173.765 64.3685C174.227 63.9865 174.45 63.4614 174.45 62.777V61.1219L174.672 61.297C174.672 61.4561 174.593 61.663 174.418 61.9017C174.243 62.1405 174.004 62.3633 173.717 62.602C173.415 62.8248 173.065 63.0317 172.651 63.1908C172.237 63.35 171.808 63.4295 171.346 63.4295C170.439 63.4295 169.627 63.2067 168.895 62.7452C168.163 62.2996 167.59 61.663 167.177 60.8673C166.763 60.0716 166.54 59.1644 166.54 58.13C166.54 57.0956 166.747 56.1725 167.177 55.3768C167.59 54.5811 168.163 53.9604 168.879 53.4989C169.596 53.0533 170.391 52.8146 171.267 52.8146ZM171.633 54.9153C171.06 54.9153 170.55 55.0585 170.121 55.3291C169.691 55.6155 169.357 55.9975 169.102 56.4749C168.864 56.9523 168.736 57.5093 168.736 58.1141C168.736 58.7188 168.864 59.2599 169.102 59.7374C169.341 60.2148 169.675 60.5967 170.121 60.8832C170.55 61.1697 171.06 61.297 171.633 61.297C172.206 61.297 172.731 61.1538 173.16 60.8832C173.59 60.5967 173.924 60.2148 174.179 59.7374C174.418 59.2599 174.545 58.7188 174.545 58.1141C174.545 57.5093 174.418 56.9523 174.179 56.4749C173.94 55.9975 173.606 55.6155 173.16 55.3291C172.731 55.0426 172.222 54.9153 171.633 54.9153Z" fill="#002F35"/>
<path d="M184.381 62.0457C184.381 62.3799 184.27 62.6505 184.047 62.8733C183.824 63.0961 183.554 63.2075 183.219 63.2075C182.885 63.2075 182.631 63.0961 182.424 62.8733C182.201 62.6505 182.105 62.3799 182.105 62.0457V50.2372C182.105 49.903 182.217 49.6324 182.44 49.4096C182.662 49.1868 182.933 49.0754 183.267 49.0754C183.601 49.0754 183.872 49.1868 184.079 49.4096C184.286 49.6324 184.397 49.903 184.397 50.2372V62.0457H184.381Z" fill="#002F35"/>
<path d="M194.343 63.4143C193.261 63.4143 192.322 63.1915 191.526 62.7299C190.731 62.2843 190.126 61.6637 189.696 60.8839C189.266 60.1041 189.06 59.2288 189.06 58.2421C189.06 57.0962 189.298 56.1254 189.76 55.3138C190.221 54.5022 190.826 53.8815 191.59 53.4518C192.338 53.0221 193.134 52.7993 193.977 52.7993C194.63 52.7993 195.234 52.9266 195.823 53.1972C196.412 53.4677 196.921 53.8338 197.367 54.2953C197.813 54.7568 198.163 55.2979 198.433 55.9026C198.704 56.5074 198.831 57.1599 198.831 57.8442C198.831 58.1466 198.704 58.4012 198.465 58.5922C198.242 58.7832 197.972 58.8786 197.669 58.8786H190.38L189.808 56.9689H196.81L196.396 57.3509V56.8416C196.364 56.4756 196.237 56.1414 195.998 55.8549C195.76 55.5684 195.473 55.3297 195.123 55.1547C194.773 54.9796 194.407 54.9 194.009 54.9C193.611 54.9 193.277 54.9478 192.943 55.0592C192.609 55.1547 192.322 55.3297 192.083 55.5684C191.845 55.8072 191.654 56.1414 191.51 56.5392C191.367 56.953 191.304 57.4623 191.304 58.0829C191.304 58.7672 191.447 59.3561 191.733 59.8335C192.02 60.3109 192.386 60.677 192.847 60.9157C193.293 61.1703 193.786 61.2817 194.295 61.2817C194.773 61.2817 195.139 61.2499 195.425 61.1703C195.712 61.0908 195.935 60.9953 196.11 60.8998C196.285 60.7884 196.444 60.6929 196.571 60.6292C196.794 60.5178 197.017 60.4542 197.224 60.4542C197.51 60.4542 197.733 60.5497 197.924 60.7406C198.115 60.9316 198.194 61.1544 198.194 61.409C198.194 61.7592 198.019 62.0615 197.653 62.348C197.319 62.6345 196.858 62.8732 196.253 63.0801C195.648 63.2869 195.043 63.3984 194.407 63.3984L194.343 63.4143Z" fill="#002F35"/>
<path d="M221.446 49.8065C221.764 49.8065 222.035 49.9179 222.274 50.1248C222.512 50.3317 222.624 50.6022 222.624 50.9205C222.624 51.0796 222.592 51.2547 222.512 51.4298L217.802 62.4744C217.69 62.729 217.531 62.92 217.308 63.0314C217.101 63.1587 216.879 63.2065 216.672 63.2065C216.465 63.2065 216.274 63.1269 216.083 62.9996C215.892 62.8723 215.749 62.6972 215.637 62.4744L210.927 51.3979C210.927 51.3979 210.863 51.2388 210.847 51.1592C210.847 51.0796 210.831 51.0001 210.831 50.9205C210.831 50.5545 210.958 50.268 211.229 50.077C211.499 49.8861 211.754 49.7747 211.993 49.7747C212.47 49.7747 212.82 50.0293 213.043 50.5226L217.229 60.3578H216.56L220.396 50.5226C220.618 50.0452 220.969 49.7906 221.446 49.7906V49.8065Z" fill="#002F35"/>
<path d="M231.489 63.4143C230.406 63.4143 229.468 63.1915 228.672 62.7299C227.876 62.2843 227.271 61.6637 226.842 60.8839C226.412 60.1041 226.205 59.2288 226.205 58.2421C226.205 57.0962 226.444 56.1254 226.905 55.3138C227.367 54.5022 227.972 53.8815 228.735 53.4518C229.483 53.0221 230.279 52.7993 231.123 52.7993C231.775 52.7993 232.38 52.9266 232.969 53.1972C233.558 53.4677 234.067 53.8338 234.512 54.2953C234.958 54.7568 235.308 55.2979 235.579 55.9026C235.849 56.5074 235.977 57.1599 235.977 57.8442C235.977 58.1466 235.849 58.4012 235.611 58.5922C235.388 58.7832 235.117 58.8786 234.815 58.8786H227.526L226.953 56.9689H233.955L233.542 57.3509V56.8416C233.51 56.4756 233.383 56.1414 233.144 55.8549C232.905 55.5684 232.619 55.3297 232.268 55.1547C231.918 54.9796 231.552 54.9 231.154 54.9C230.757 54.9 230.422 54.9478 230.088 55.0592C229.754 55.1547 229.468 55.3297 229.229 55.5684C228.99 55.8072 228.799 56.1414 228.656 56.5392C228.513 56.953 228.449 57.4623 228.449 58.0829C228.449 58.7672 228.592 59.3561 228.879 59.8335C229.165 60.3109 229.531 60.677 229.993 60.9157C230.438 61.1703 230.932 61.2817 231.441 61.2817C231.918 61.2817 232.284 61.2499 232.571 61.1703C232.857 61.0908 233.08 60.9953 233.255 60.8998C233.43 60.7884 233.589 60.6929 233.717 60.6292C233.94 60.5178 234.162 60.4542 234.369 60.4542C234.656 60.4542 234.878 60.5497 235.069 60.7406C235.26 60.9316 235.34 61.1544 235.34 61.409C235.34 61.7592 235.165 62.0615 234.799 62.348C234.465 62.6345 234.003 62.8732 233.398 63.0801C232.794 63.2869 232.189 63.3984 231.552 63.3984L231.489 63.4143Z" fill="#002F35"/>
<path d="M246.082 52.8154C247.021 52.8154 247.737 53.0064 248.23 53.4042C248.724 53.8021 249.058 54.3273 249.249 54.9798C249.44 55.6323 249.519 56.3643 249.519 57.16V62.0458C249.519 62.38 249.408 62.6505 249.201 62.8733C248.978 63.0961 248.708 63.2075 248.373 63.2075C248.039 63.2075 247.769 63.0961 247.546 62.8733C247.323 62.6505 247.228 62.38 247.228 62.0458V57.16C247.228 56.7463 247.18 56.3643 247.068 56.0301C246.957 55.6959 246.766 55.4254 246.48 55.2185C246.193 55.0116 245.795 54.9161 245.27 54.9161C244.745 54.9161 244.331 55.0116 243.981 55.2185C243.631 55.4254 243.36 55.6959 243.185 56.0301C242.994 56.3643 242.915 56.7463 242.915 57.16V62.0458C242.915 62.38 242.803 62.6505 242.596 62.8733C242.374 63.0961 242.103 63.2075 241.769 63.2075C241.435 63.2075 241.164 63.0961 240.941 62.8733C240.719 62.6505 240.623 62.38 240.623 62.0458V54.1522C240.623 53.818 240.734 53.5475 240.941 53.3247C241.164 53.1019 241.435 52.9905 241.769 52.9905C242.103 52.9905 242.374 53.1019 242.596 53.3247C242.819 53.5475 242.915 53.818 242.915 54.1522V54.9798L242.628 54.9161C242.74 54.6933 242.915 54.4705 243.122 54.2159C243.344 53.9612 243.599 53.7384 243.886 53.5156C244.172 53.2928 244.506 53.1178 244.872 52.9905C245.238 52.8631 245.636 52.7836 246.082 52.7836V52.8154Z" fill="#002F35"/>
<path d="M263.03 49.0914C263.365 49.0914 263.635 49.2028 263.858 49.4097C264.081 49.6325 264.176 49.9031 264.176 50.2532V62.0617C264.176 62.3959 264.065 62.6665 263.858 62.8893C263.635 63.1121 263.365 63.2235 263.03 63.2235C262.696 63.2235 262.426 63.1121 262.203 62.8893C261.98 62.6665 261.885 62.3959 261.885 62.0617V61.1228L262.298 61.2978C262.298 61.457 262.203 61.6639 262.028 61.9026C261.853 62.1413 261.614 62.3641 261.296 62.6028C260.993 62.8256 260.627 63.0325 260.214 63.1917C259.8 63.3508 259.354 63.4304 258.861 63.4304C257.985 63.4304 257.19 63.2076 256.474 62.746C255.757 62.3004 255.2 61.6639 254.787 60.8681C254.373 60.0724 254.166 59.1653 254.166 58.1309C254.166 57.0964 254.373 56.1734 254.787 55.3776C255.2 54.5819 255.757 53.9613 256.458 53.4997C257.158 53.0382 257.938 52.8154 258.781 52.8154C259.322 52.8154 259.832 52.895 260.293 53.0701C260.755 53.2292 261.152 53.452 261.487 53.7066C261.821 53.9613 262.091 54.2159 262.266 54.4864C262.457 54.7411 262.537 54.9639 262.537 55.1389L261.853 55.3936V50.2691C261.853 49.9349 261.964 49.6644 262.171 49.4416C262.394 49.2187 262.664 49.1073 262.999 49.1073L263.03 49.0914ZM259.179 61.3137C259.736 61.3137 260.229 61.1705 260.643 60.9C261.057 60.6294 261.391 60.2316 261.63 59.7541C261.869 59.2767 261.98 58.7356 261.98 58.1309C261.98 57.5261 261.869 56.9691 261.63 56.4917C261.391 56.0142 261.073 55.6323 260.643 55.3458C260.214 55.0594 259.736 54.932 259.179 54.932C258.622 54.932 258.145 55.0753 257.731 55.3458C257.317 55.6323 256.983 56.0142 256.744 56.4917C256.505 56.9691 256.394 57.5261 256.394 58.1309C256.394 58.7356 256.505 59.2767 256.744 59.7541C256.983 60.2316 257.301 60.6135 257.731 60.9C258.145 61.1864 258.638 61.3137 259.179 61.3137Z" fill="#002F35"/>
<path d="M279.247 58.1147C279.247 59.1651 279.008 60.0722 278.547 60.868C278.085 61.6637 277.465 62.2843 276.669 62.7299C275.889 63.1756 275.014 63.3984 274.043 63.3984C273.072 63.3984 272.197 63.1756 271.417 62.7299C270.637 62.2843 270.017 61.6637 269.539 60.868C269.078 60.0722 268.839 59.1492 268.839 58.1147C268.839 57.0803 269.078 56.1573 269.539 55.3615C270.001 54.5658 270.621 53.9452 271.417 53.4836C272.213 53.0221 273.072 52.7993 274.043 52.7993C275.014 52.7993 275.889 53.0221 276.669 53.4836C277.449 53.9292 278.069 54.5658 278.547 55.3615C279.024 56.1573 279.247 57.0803 279.247 58.1147ZM276.955 58.1147C276.955 57.4623 276.828 56.9053 276.557 56.4278C276.303 55.9504 275.953 55.5844 275.507 55.3138C275.061 55.0433 274.584 54.9159 274.043 54.9159C273.502 54.9159 273.024 55.0433 272.579 55.3138C272.133 55.5844 271.783 55.9504 271.528 56.4278C271.274 56.9053 271.131 57.4623 271.131 58.1147C271.131 58.7672 271.258 59.3083 271.528 59.7858C271.799 60.2632 272.133 60.6292 272.579 60.8998C273.024 61.1703 273.502 61.2976 274.043 61.2976C274.584 61.2976 275.061 61.1703 275.507 60.8998C275.953 60.6292 276.303 60.2632 276.557 59.7858C276.812 59.3083 276.955 58.7513 276.955 58.1147Z" fill="#002F35"/>
<path d="M285.073 63.2223C284.738 63.2223 284.468 63.1109 284.245 62.8881C284.022 62.6653 283.927 62.3948 283.927 62.0606V54.167C283.927 53.8328 284.038 53.5623 284.245 53.3395C284.468 53.1167 284.738 53.0053 285.073 53.0053C285.407 53.0053 285.677 53.1167 285.9 53.3395C286.123 53.5623 286.218 53.8328 286.218 54.167V55.9654L286.091 54.6922C286.234 54.3898 286.409 54.1193 286.632 53.8806C286.855 53.6418 287.11 53.4509 287.38 53.2917C287.651 53.1326 287.953 53.0212 288.271 52.9416C288.59 52.862 288.908 52.8302 289.226 52.8302C289.608 52.8302 289.927 52.9416 290.197 53.1485C290.452 53.3713 290.595 53.6259 290.595 53.9124C290.595 54.3262 290.484 54.6285 290.277 54.8195C290.054 55.0105 289.831 55.0901 289.576 55.0901C289.322 55.0901 289.115 55.0423 288.924 54.9627C288.733 54.8832 288.494 54.8354 288.24 54.8354C288.017 54.8354 287.778 54.8832 287.539 54.9946C287.301 55.106 287.094 55.2651 286.887 55.5038C286.696 55.7266 286.537 56.0131 286.409 56.3473C286.282 56.6815 286.234 57.0794 286.234 57.5409V62.0606C286.234 62.3948 286.123 62.6653 285.916 62.8881C285.693 63.1109 285.423 63.2223 285.089 63.2223H285.073Z" fill="#002F35"/>
</g>
<defs>
<clipPath id="clip0_2859_4104">
<rect width="253.565" height="72" fill="white" transform="translate(38 1)"/>
</clipPath>
</defs>
</svg>
