<svg width="330" height="74" viewBox="0 0 330 74" fill="none" xmlns="http://www.w3.org/2000/svg">
<path d="M71.8045 62.0084C71.9331 61.8249 72.0593 61.6379 72.1856 61.4493C72.2246 61.3907 72.2636 61.331 72.3026 61.2722L56.0287 52.7347L55.614 52.5487V20.6408L55.5112 20.5626L52 17.9304V54.3407L70.8725 63.2763C71.1906 62.8654 71.5012 62.4428 71.8045 62.0084Z" fill="#80ED99"/>
<path d="M101.277 66.3681C99.7967 66.3775 98.3272 66.1087 96.9456 65.5758C95.3403 64.9463 93.9131 63.9343 92.7881 62.6276L92.7737 62.6327L92.762 62.5963C92.2642 62.0217 91.8169 61.4053 91.4251 60.7538C91.312 60.5703 91.2027 60.3821 91.0974 60.1892C90.8437 59.7317 90.6057 59.2488 90.3835 58.7406C90.2963 58.543 90.2119 58.3426 90.1312 58.1372C89.469 56.4383 88.9806 54.6766 88.6734 52.8793C88.2444 50.497 87.8036 46.5525 88.1416 41.2935C88.5875 34.3349 91.0547 27.6283 95.4724 21.3602C96.6801 19.6528 97.9944 18.0233 99.4074 16.4815L84.0868 28.5459L64.6047 14.9353C67.9633 18.2875 70.807 22.1185 73.0434 26.3037V26.305L73.0498 26.309L73.0471 26.313C74.262 28.6007 75.2658 30.9943 76.0461 33.4642C76.6259 35.2964 77.0676 37.1696 77.3673 39.0679C77.4142 39.3644 77.4584 39.6623 77.4974 39.9586C77.7385 41.76 77.8394 43.5775 77.7991 45.3946C77.7995 45.4176 77.7986 45.4407 77.7964 45.4636C77.7924 45.6079 77.786 45.7536 77.7822 45.8979C77.7771 46.0091 77.7719 46.1196 77.7666 46.2296C77.76 46.3726 77.7522 46.5157 77.7432 46.6589C77.6039 48.994 77.2062 51.3065 76.5573 53.554C76.4935 53.771 76.4287 53.9883 76.3597 54.2053C76.0865 55.074 75.7753 55.9284 75.4258 56.7685C74.9602 57.8831 74.4264 58.968 73.8275 60.017C73.7195 60.207 73.6105 60.3942 73.4985 60.5816C72.8791 61.6111 72.2008 62.604 71.4672 63.5555C71.3202 63.748 71.168 63.9392 71.0133 64.1304C70.2331 65.0934 69.4 66.0121 68.5176 66.8825C68.3979 66.9996 68.2758 67.1178 68.1534 67.2369C67.8011 67.5751 67.4368 67.9093 67.0648 68.2377C64.9879 70.0604 62.7227 71.6568 60.3076 72.9999C64.361 72.6173 68.3472 71.7076 72.1652 70.2938C76.1227 68.8282 79.8642 66.8348 83.2881 64.3676L83.4609 64.6095C83.4634 64.6107 83.4634 64.6134 83.4649 64.6147C88.9412 71.0417 96.259 73.3005 103.545 70.8113C105.871 70.0212 108.013 68.7701 109.843 67.1329C111.674 65.4958 113.156 63.5062 114.199 61.2832C112.057 62.9063 106.824 66.3669 101.277 66.3681Z" fill="#22577A"/>
<path d="M114.148 17.9304V54.3407L94.6971 63.5492C94.3133 63.2462 93.9511 62.9168 93.613 62.5634C93.5611 62.5088 93.5102 62.4542 93.4597 62.3996C93.4041 62.3398 93.3495 62.2787 93.2959 62.2163C93.2504 62.1656 93.2074 62.115 93.1645 62.0641C93.1089 62.0004 93.0543 61.9354 93.0006 61.8689C92.8477 61.6816 92.6991 61.487 92.5547 61.2852L110.189 52.1025L110.195 52.0986L110.636 51.8957V20.5622L111.438 19.9601L112.089 19.4737L114.148 17.9304Z" fill="#80ED99"/>
<path d="M109.988 15.0676V51.4785L109.897 51.5215L97.9013 57.7677L92.1872 60.7431C92.13 60.656 92.0754 60.569 92.022 60.4792C91.9741 60.4025 91.9259 60.3257 91.8803 60.2477C91.8152 60.1387 91.7552 60.028 91.6905 59.916C91.5423 59.6496 91.3965 59.374 91.2587 59.0877C91.1639 58.8923 91.0728 58.6916 90.9831 58.4881C90.9688 58.4555 90.9545 58.4217 90.9414 58.3892L91.9051 57.7794C91.9063 57.7819 91.909 57.7846 91.909 57.7873L106.019 48.1717V18.0445L109.988 15.0676Z" fill="#57CC99"/>
<path d="M105.368 31.6157V47.8281L91.635 57.1863L91.6325 57.1875L90.6897 57.7829C90.3118 56.808 89.9968 55.8099 89.7466 54.7946C89.692 54.5749 89.6401 54.3512 89.5882 54.125C89.5673 54.0234 89.5425 53.9209 89.5219 53.8181C89.5023 53.7295 89.4842 53.6413 89.466 53.5529L101.163 46.4641V37.9605L88.6748 44.6488C88.68 43.6124 88.7138 42.5082 88.7905 41.3352C89.077 37.0138 90.1363 32.7788 91.9179 28.8313V38.9432L104.719 31.9662L105.368 31.6157Z" fill="#38A3A5"/>
<path d="M64.9842 36.7074V46.0785L75.9106 53.4637C75.8741 53.5861 75.8391 53.7083 75.8001 53.8292C75.5178 54.7382 75.1927 55.6355 74.8248 56.5211C74.6075 57.0401 74.3782 57.5464 74.1367 58.0401L60.9463 49.1293V12.4409C65.3082 16.1182 68.9989 20.5244 71.8544 25.4636L64.9777 20.583V31.019L76.8092 39.4695L76.8561 39.7856C76.8795 39.9586 76.9018 40.129 76.9224 40.302C76.9264 40.3281 76.9289 40.3551 76.9329 40.3814C76.947 40.5088 76.9627 40.6362 76.9768 40.7636C76.99 40.8949 77.0044 41.0278 77.0185 41.1597C77.029 41.2794 77.0419 41.3978 77.0511 41.5173C77.0602 41.6367 77.0707 41.754 77.0809 41.8718C77.0874 41.9497 77.0925 42.0277 77.0992 42.1044C77.1005 42.1253 77.1017 42.1449 77.1032 42.1655C77.1046 42.1861 77.1072 42.2059 77.1072 42.2266C77.1072 42.2345 77.1084 42.2422 77.1084 42.2502C77.1084 42.2581 77.1096 42.2643 77.1096 42.271C77.1109 42.297 77.1136 42.3231 77.1161 42.349C77.1161 42.3658 77.1174 42.3828 77.1174 42.3997C77.1396 42.7444 77.1561 43.089 77.1668 43.4336C77.172 43.6141 77.176 43.7936 77.181 43.9746C77.1849 44.3321 77.1849 44.6892 77.181 45.046L64.9842 36.7074Z" fill="#38A3A5"/>
<path d="M73.8419 58.6259C73.6455 59.0082 73.4412 59.3854 73.232 59.7517C73.2241 59.7648 73.2164 59.779 73.2085 59.792C73.1069 59.969 73.0056 60.143 72.9016 60.3161C72.8939 60.329 72.886 60.3434 72.8795 60.3564C72.8053 60.4801 72.7298 60.6023 72.6532 60.7231L65.7686 57.1118L56.3223 52.1544L56.2637 52.1244V15.72L60.2951 18.7431V19.2621L60.4252 19.3594V19.3606L60.2951 19.2631V49.4737L73.8419 58.6259Z" fill="#57CC99"/>
<path d="M105.368 11.7854V21.1501L104.718 21.4763L92.4287 27.7328C95.7202 20.9393 100.56 15.8635 104.23 12.6838C104.394 12.5408 104.557 12.4005 104.718 12.2668L104.753 12.2381L105.149 11.9612L105.365 11.7881L105.368 11.7854Z" fill="#38A3A5"/>
<path d="M74.0811 12.6629C74.0902 12.0722 74.1511 11.4835 74.2631 10.9035C74.4675 9.85079 74.894 8.82815 75.3056 7.83864C75.4263 7.54821 75.5489 7.25151 75.6684 6.95316L75.282 6.7155L75.0465 6.5716L74.6613 6.33496C74.5096 6.69336 74.3486 7.04822 74.1901 7.39661C73.6443 8.59357 73.0806 9.83058 72.9184 11.1591C72.8666 11.7869 72.9582 12.4183 73.1863 13.0055H73.185L72.6123 13.2244L73.6383 15.9104L75.5773 15.1703L74.5513 12.4841L74.0811 12.6629ZM74.9999 14.9124L73.8949 15.3343L73.1873 13.4823L73.3333 13.4265C73.3656 13.5134 73.3991 13.6005 73.4315 13.6866C73.5855 14.0718 73.7178 14.4654 73.8276 14.8654L74.2629 14.7706C74.1621 14.2322 74.1027 13.6869 74.0853 13.1395L74.2917 13.0603" fill="#22577A"/>
<path d="M89.9871 13.1094L89.9245 13.0089L89.805 13.0056C88.0568 12.9554 86.2717 13.4766 84.491 14.5541C85.0035 13.9044 85.8395 13.3763 86.9894 12.9722C87.0786 12.941 87.168 12.9097 87.2619 12.8807C87.3109 12.8651 87.3601 12.8494 87.4093 12.8349C87.4628 12.8192 87.5165 12.8025 87.5713 12.7869C87.6616 12.7613 87.7533 12.7356 87.8469 12.711L87.8871 12.701C87.9966 12.672 88.1071 12.6451 88.2207 12.6176C88.2497 12.6099 88.2799 12.6032 88.3102 12.5967C88.3994 12.5759 88.4899 12.5567 88.5812 12.5375L88.675 12.5167C88.7845 12.4944 88.8973 12.4721 89.0111 12.451C89.0201 12.4498 89.0289 12.4475 89.0391 12.4466C89.1842 12.4198 89.3326 12.3942 89.4844 12.3697L89.672 12.3395V9.80861L95.9383 7.8235L84.8213 1L72.3857 4.94049L74.661 6.33595L75.0461 6.57254L75.2817 6.71644L75.668 6.9543L78.431 8.64999L78.5371 8.60433C78.8665 8.46341 79.2031 8.33966 79.5453 8.23361C81.2589 7.69883 83.8441 7.52246 85.719 7.90713L85.3194 7.91756V7.91858C85.2232 7.92088 85.1273 7.92421 85.0302 7.92734C84.8634 7.93297 84.6966 7.94072 84.5298 7.94968C84.4059 7.95635 84.2819 7.96426 84.157 7.97198C84.1514 7.97198 84.147 7.97198 84.1413 7.97198C84.0175 7.98073 83.8935 7.98991 83.7696 7.99992C83.7596 8.0012 83.7495 8.00196 83.7394 8.00221C83.6199 8.01222 83.5017 8.02304 83.3833 8.03576C83.3687 8.03576 83.3553 8.03805 83.3416 8.04013C83.2277 8.05118 83.1122 8.06349 82.9988 8.07683L82.9451 8.0835C82.8358 8.09685 82.7253 8.11143 82.6169 8.12519C82.596 8.12874 82.5752 8.13212 82.5543 8.1342C82.4482 8.14963 82.3423 8.16526 82.2374 8.18215C82.2139 8.18549 82.1905 8.18985 82.1669 8.1934C82.0653 8.21008 81.9637 8.22791 81.8621 8.24695C81.8365 8.25133 81.8098 8.25697 81.7841 8.26135C81.6857 8.28033 81.5888 8.29931 81.4923 8.31953C81.4633 8.3262 81.4353 8.33289 81.4061 8.33852C81.3134 8.35853 81.2208 8.37934 81.1282 8.40103C81.097 8.4077 81.0657 8.4167 81.0346 8.42337C80.9464 8.44568 80.8593 8.46797 80.7734 8.49153C80.7377 8.50154 80.7031 8.51048 80.6691 8.52049C80.5874 8.54405 80.5071 8.56741 80.4269 8.5918C80.3879 8.60306 80.3487 8.61539 80.3097 8.62749C80.2359 8.65105 80.1623 8.67542 80.0897 8.70002L79.9592 8.74695C79.8933 8.77051 79.8285 8.79489 79.7639 8.81949C79.7149 8.83846 79.6657 8.85745 79.6179 8.87746C79.5744 8.89519 79.5309 8.91206 79.4872 8.92999C79.4434 8.94793 79.4013 8.96692 79.3577 8.98568L79.2259 9.04488V11.4473C78.8971 11.7248 78.5934 12.0307 78.3184 12.3616C77.7103 13.0908 77.2529 13.9334 76.9727 14.8406C76.6925 15.7478 76.5951 16.7016 76.6861 17.6467C76.8554 19.4378 77.6856 21.1016 79.0151 22.3138C80.3445 23.5259 82.0777 24.1995 83.8768 24.2031C84.1009 24.2031 84.3278 24.1921 84.5544 24.1708C86.4622 23.9908 88.2207 23.0612 89.4439 21.586C90.6671 20.1109 91.2551 18.2107 91.0788 16.3025C90.9753 15.1662 90.6009 14.0712 89.9871 13.1094Z" fill="#22577A"/>
<path d="M135.367 46.3513C135.586 46.4202 135.81 46.4658 136.038 46.4875C136.261 46.5084 136.485 46.5188 136.709 46.5188C137.255 46.5211 137.798 46.4438 138.322 46.2895C138.836 46.1374 139.326 45.9151 139.779 45.6291C140.234 45.3422 140.643 44.9891 140.994 44.5815C141.35 44.1694 141.643 43.7069 141.864 43.2089L146.054 47.4205C145.528 48.1699 144.912 48.8525 144.221 49.4531C143.536 50.0492 142.784 50.5627 141.979 50.983C141.175 51.4021 140.324 51.7222 139.443 51.9363C138.548 52.1538 137.63 52.2628 136.709 52.2611C135.18 52.271 133.665 51.9716 132.256 51.3808C130.891 50.8113 129.652 49.9781 128.61 48.9289C127.552 47.8556 126.715 46.5847 126.147 45.1886C125.533 43.6751 125.227 42.0545 125.246 40.4214C125.225 38.7576 125.532 37.1058 126.147 35.56C126.706 34.1562 127.544 32.8802 128.61 31.809C129.654 30.7728 130.893 29.9537 132.256 29.399C133.669 28.8218 135.182 28.5299 136.709 28.5401C137.634 28.5388 138.556 28.6514 139.454 28.8753C140.337 29.0949 141.192 29.4185 142 29.8392C142.808 30.2622 143.564 30.7792 144.251 31.3795C144.947 31.9835 145.566 32.6696 146.096 33.4227L135.367 46.3513ZM138.301 34.5536C138.048 34.4593 137.784 34.3962 137.515 34.3659C137.247 34.3376 136.978 34.3237 136.709 34.3242C135.951 34.3197 135.2 34.4658 134.499 34.754C133.819 35.0324 133.205 35.45 132.696 35.9799C132.172 36.5335 131.763 37.1854 131.492 37.898C131.188 38.7046 131.038 39.5611 131.051 40.4229C131.051 40.6325 131.062 40.8699 131.083 41.1353C131.104 41.4058 131.139 41.6751 131.187 41.9422C131.236 42.2147 131.295 42.4767 131.365 42.7282C131.428 42.9622 131.519 43.1874 131.638 43.3987L138.301 34.5536Z" fill="#57CC99"/>
<path d="M147.815 30.802C147.806 29.5986 148.049 28.4067 148.527 27.3024C148.987 26.2351 149.645 25.2645 150.466 24.4419C151.289 23.6208 152.259 22.9629 153.327 22.5029C154.431 22.025 155.623 21.7824 156.826 21.7905H170.615V27.8046H156.826C156.423 27.8015 156.024 27.8799 155.653 28.0351C155.296 28.1842 154.972 28.4013 154.699 28.6743C154.426 28.9475 154.209 29.2713 154.06 29.6275C153.905 29.9991 153.826 30.3983 153.829 30.8011C153.827 31.2071 153.905 31.6096 154.06 31.9849C154.207 32.3454 154.424 32.6731 154.699 32.949C154.972 33.222 155.296 33.439 155.653 33.5878C156.024 33.7434 156.423 33.8218 156.826 33.8184H162.84C164.046 33.811 165.24 34.05 166.35 34.5206C167.422 34.9723 168.397 35.6268 169.221 36.4483C170.042 37.2722 170.697 38.247 171.149 39.3193C171.619 40.4292 171.858 41.6235 171.851 42.829C171.859 44.0313 171.62 45.2225 171.149 46.3286C170.695 47.3968 170.041 48.3679 169.221 49.1891C168.396 50.012 167.421 50.6701 166.35 51.1281C165.242 51.6054 164.047 51.848 162.84 51.8405H149.492V45.8263H162.84C163.243 45.8299 163.642 45.7519 164.013 45.597C164.37 45.4479 164.694 45.2308 164.967 44.9578C165.24 44.6845 165.457 44.3608 165.606 44.0046C165.762 43.6329 165.84 43.2337 165.837 42.8309C165.84 42.4282 165.761 42.0291 165.606 41.6575C165.457 41.3013 165.24 40.9774 164.967 40.7039C164.694 40.4311 164.37 40.2141 164.013 40.0651C163.642 39.9098 163.243 39.8314 162.84 39.8345H156.826C155.623 39.8428 154.431 39.6 153.327 39.1218C152.259 38.662 151.289 38.0041 150.466 37.1829C149.643 36.3579 148.985 35.3835 148.527 34.3119C148.05 33.2037 147.807 32.0086 147.815 30.802Z" fill="#22577A"/>
<path d="M194.797 33.8621L190.606 38.0737C190.406 37.5039 190.116 36.9699 189.747 36.4916C189.399 36.0387 188.986 35.6398 188.521 35.3078C188.07 34.988 187.572 34.7405 187.044 34.5743C186.515 34.4071 185.964 34.3223 185.409 34.3229C184.646 34.3189 183.892 34.4835 183.199 34.8049C182.511 35.1243 181.897 35.5847 181.397 36.1564C180.871 36.7638 180.462 37.4637 180.192 38.2205C179.89 39.0676 179.741 39.9616 179.752 40.8608C179.747 41.6166 179.897 42.3655 180.192 43.061C180.477 43.7325 180.885 44.344 181.397 44.8633C181.912 45.3834 182.524 45.7965 183.199 46.0785C183.899 46.3735 184.651 46.5233 185.409 46.5187C185.956 46.521 186.499 46.4437 187.023 46.2893C187.537 46.1372 188.027 45.915 188.479 45.629C188.934 45.342 189.344 44.989 189.695 44.5814C190.051 44.1693 190.344 43.7068 190.564 43.2089L194.755 47.4204C194.229 48.1698 193.613 48.8524 192.922 49.453C192.237 50.0491 191.484 50.5626 190.679 50.9829C189.876 51.4019 189.025 51.722 188.144 51.9361C187.249 52.1536 186.331 52.2627 185.409 52.261C183.88 52.2708 182.364 51.9677 180.956 51.3703C179.596 50.797 178.358 49.9683 177.31 48.9291C176.265 47.8893 175.429 46.6588 174.848 45.304C174.243 43.9015 173.936 42.3887 173.947 40.8614C173.934 39.2118 174.24 37.5753 174.848 36.0417C175.417 34.5966 176.252 33.2709 177.31 32.1335C178.343 31.0284 179.582 30.1352 180.956 29.5036C182.352 28.86 183.872 28.5311 185.409 28.54C186.339 28.5393 187.266 28.659 188.165 28.8961C189.064 29.1329 189.93 29.4814 190.742 29.9333C191.564 30.3908 192.325 30.9506 193.006 31.5994C193.705 32.2664 194.308 33.0281 194.797 33.8621Z" fill="#22577A"/>
<path d="M203.305 51.8407H197.584V20.4709H203.305V30.3829C203.939 29.8924 204.656 29.5197 205.421 29.2827C206.142 29.067 206.89 28.9575 207.643 28.9578C208.982 28.949 210.309 29.2165 211.54 29.7436C212.729 30.2496 213.807 30.9827 214.715 31.9019C215.623 32.8269 216.348 33.9146 216.852 35.1081C217.379 36.3434 217.646 37.6736 217.638 39.0163V51.8409H211.876V39.0163H211.917C211.92 38.444 211.806 37.8771 211.582 37.3505C211.366 36.8379 211.053 36.3719 210.66 35.978C210.269 35.5868 209.807 35.2738 209.298 35.0558C208.775 34.8312 208.212 34.717 207.643 34.7204C207.06 34.717 206.483 34.831 205.945 35.0558C205.428 35.2699 204.959 35.5832 204.562 35.978C204.169 36.3717 203.856 36.8378 203.64 37.3505C203.416 37.8771 203.302 38.444 203.305 39.0163V51.8407Z" fill="#22577A"/>
<path d="M243.391 40.4188C243.405 42.0243 243.099 43.6165 242.49 45.1024C241.922 46.4988 241.09 47.7724 240.039 48.8534C238.999 49.9117 237.765 50.7585 236.403 51.3469C234.991 51.959 233.467 52.2695 231.929 52.2585C230.397 52.2682 228.881 51.9577 227.476 51.3469C226.112 50.7572 224.874 49.9106 223.83 48.8534C222.773 47.7748 221.937 46.5008 221.367 45.1024C220.759 43.6166 220.453 42.0243 220.466 40.4188C220.451 38.7961 220.757 37.1864 221.367 35.6829C221.935 34.2805 222.771 33.0026 223.83 31.9215C224.872 30.8651 226.111 30.0217 227.476 29.4383C228.882 28.8342 230.398 28.5274 231.929 28.5372C233.461 28.5257 234.981 28.8139 236.403 29.3858C237.766 29.9338 239.003 30.7538 240.039 31.7958C241.096 32.8718 241.929 34.1466 242.49 35.5465C243.108 37.0957 243.414 38.7513 243.391 40.4188ZM237.629 40.4188C237.641 39.5629 237.488 38.7128 237.178 37.9148C236.898 37.1991 236.481 36.5444 235.952 35.9869C235.441 35.4529 234.823 35.0317 234.14 34.7505C233.439 34.4623 232.688 34.3163 231.93 34.3208C231.172 34.3163 230.421 34.4623 229.72 34.7505C229.038 35.0302 228.424 35.4516 227.918 35.9869C227.395 36.5453 226.985 37.2001 226.713 37.9148C226.41 38.7144 226.261 39.5639 226.273 40.4188C226.265 41.2427 226.414 42.0606 226.713 42.8286C226.989 43.5417 227.398 44.1959 227.918 44.7565C228.427 45.3011 229.04 45.7392 229.72 46.0454C230.414 46.3602 231.168 46.521 231.93 46.5168C232.689 46.5213 233.44 46.3716 234.14 46.0766C234.821 45.7905 235.437 45.37 235.952 44.8403C236.484 44.2852 236.901 43.63 237.178 42.9126C237.486 42.1177 237.639 41.2712 237.629 40.4188Z" fill="#22577A"/>
<path d="M268.245 40.4188C268.259 42.0243 267.952 43.6165 267.344 45.1024C266.775 46.4988 265.943 47.7724 264.892 48.8534C263.853 49.9118 262.618 50.7586 261.256 51.3469C259.845 51.959 258.321 52.2695 256.782 52.2585C255.251 52.2682 253.734 51.9577 252.329 51.3469C250.965 50.7572 249.727 49.9106 248.683 48.8534C247.627 47.7748 246.79 46.5008 246.221 45.1024C245.612 43.6166 245.306 42.0243 245.32 40.4188C245.304 38.7961 245.61 37.1864 246.221 35.6829C246.788 34.2805 247.625 33.0026 248.683 31.9215C249.726 30.8651 250.964 30.0217 252.329 29.4383C253.736 28.8342 255.252 28.5274 256.782 28.5372C258.315 28.5257 259.835 28.814 261.256 29.3858C262.619 29.9337 263.856 30.7538 264.892 31.7958C265.949 32.8718 266.782 34.1466 267.344 35.5465C267.961 37.0957 268.268 38.7513 268.245 40.4188ZM262.482 40.4188C262.494 39.5629 262.341 38.7128 262.032 37.9148C261.751 37.1991 261.335 36.5444 260.806 35.9869C260.294 35.4529 259.677 35.0317 258.993 34.7505C258.292 34.4623 257.541 34.3163 256.783 34.3208C256.025 34.3163 255.274 34.4623 254.573 34.7505C253.892 35.0302 253.277 35.4517 252.771 35.9869C252.248 36.5453 251.839 37.2001 251.566 37.9148C251.263 38.7144 251.114 39.5639 251.126 40.4188C251.118 41.2427 251.268 42.0606 251.566 42.8286C251.842 43.5417 252.251 44.1959 252.771 44.7565C253.281 45.3011 253.893 45.7392 254.573 46.0454C255.267 46.3602 256.021 46.521 256.783 46.5168C257.542 46.5213 258.294 46.3716 258.993 46.0766C259.674 45.7905 260.291 45.37 260.806 44.8403C261.338 44.2852 261.755 43.63 262.032 42.9126C262.339 42.1177 262.492 41.2712 262.482 40.4188Z" fill="#22577A"/>
<path d="M277.171 51.8407H271.408V20.4709H277.171V51.8407Z" fill="#22577A"/>
</svg>
