<svg width="160" height="72" viewBox="0 0 160 72" fill="none" xmlns="http://www.w3.org/2000/svg">
<g clip-path="url(#clip0_997_2879)">
<mask id="mask0_997_2879" style="mask-type:luminance" maskUnits="userSpaceOnUse" x="0" y="0" width="72" height="72">
<path d="M72 0H0V72H72V0Z" fill="white"/>
</mask>
<g mask="url(#mask0_997_2879)">
<path d="M71.982 34.0913C71.8827 29.0241 71.5567 24.0023 70.782 18.99C70.378 16.3725 69.7967 13.6779 68.942 11.1519C68.2233 9.03133 67.1747 6.76587 65.3718 5.3386C64.7349 4.83429 63.9608 4.37198 63.0496 3.95167C61.8124 3.38055 60.5313 2.90942 59.2189 2.5428C54.6151 1.25513 49.7945 0.678733 45.0389 0.325133L43.7163 0.2436C38.5045 -0.0840227 33.2772 -0.0811727 28.0657 0.252133C27.5952 0.294889 27.1233 0.319022 26.6501 0.324533C26.5605 0.325533 26.4779 0.367267 26.3793 0.3738C22.8229 0.637933 19.1441 1.09667 15.6385 1.83607C14.2076 2.13745 12.7942 2.51693 11.4047 2.9728C9.77367 3.508 8.1436 4.22173 6.75467 5.24327C6.35292 5.53376 5.98893 5.87323 5.67117 6.2538L5.24343 6.7638C5.14413 6.8652 5.06391 6.9836 5.00663 7.11347L4.61057 7.69747C3.6831 9.26413 3.0485 10.9895 2.55177 12.7495C2.12954 14.2469 1.7803 15.7613 1.50403 17.293C0.6971 21.7668 0.256698 26.3618 0.111298 30.8565C0.0715647 32.0813 0.0199649 33.2789 0.00763153 34.4907C-0.0427018 39.3807 0.152565 44.3001 0.694033 49.1623C0.718167 49.3811 0.7807 49.6423 0.797167 49.8932C0.815787 50.1754 0.843473 50.4565 0.880233 50.7367C1.3281 54.1812 1.95217 57.6408 3.08297 60.9339C3.5817 62.3855 4.21323 63.8065 5.09043 65.0498C6.14423 66.5442 7.6942 67.5367 9.40673 68.27C12.1389 69.44 15.1025 70.1373 18.0259 70.6293C21.1125 71.1493 24.2244 71.506 27.3485 71.6993C27.4488 71.708 27.5495 71.71 27.65 71.7067L27.9751 71.75C29.1491 71.8147 30.3257 71.8927 31.5003 71.9313C35.6446 72.0667 39.7662 71.998 43.9054 71.7613C44.0159 71.7513 44.1257 71.7353 44.234 71.712L44.6207 71.702C47.7833 71.5053 50.9333 71.1407 54.0571 70.6093C57.0837 70.0933 60.1881 69.3787 62.9882 68.088C64.4682 67.4053 65.8859 66.4752 66.8147 65.1831C67.498 64.2204 68.0587 63.1764 68.484 62.0751C69.568 59.3177 70.2473 56.3951 70.7153 53.4785C71.242 50.1804 71.5953 46.8569 71.774 43.5218C71.9507 40.2624 72.0407 37.0855 71.982 34.0913ZM2.12883 51.0118C2.13012 51.0113 2.13155 51.0113 2.13283 51.0118C2.13359 51.0119 2.13428 51.0123 2.13483 51.0128C2.13286 51.0122 2.13082 51.0119 2.12877 51.0118M2.7649 22.0268C2.76543 22.0268 2.7659 22.0273 2.76643 22.0278C2.76697 22.0283 2.76843 22.0303 2.76943 22.0313L2.7649 22.0268ZM27.6199 71.444C27.621 71.444 27.622 71.4447 27.6229 71.4447C27.6253 71.4453 27.6277 71.446 27.6296 71.4473C27.6265 71.446 27.6233 71.4447 27.6201 71.444M69.15 49.8519C69.1513 49.8513 69.1533 49.851 69.1547 49.8509H69.1593C69.156 49.8511 69.1533 49.8514 69.15 49.8519ZM69.1627 21.846C69.1607 21.8464 69.1587 21.8466 69.1573 21.8465C69.1607 21.8465 69.164 21.846 69.1673 21.845C69.1653 21.8456 69.164 21.8459 69.1627 21.846ZM69.2107 50.6336C69.208 50.6359 69.2053 50.6379 69.2027 50.6397C69.206 50.6376 69.2087 50.6352 69.2107 50.6326C69.2107 50.6331 69.2107 50.6331 69.2107 50.6336Z" fill="white"/>
<path d="M28.0979 53.3665C28.1873 53.2399 28.2766 53.1091 28.3617 52.9783L28.4424 52.8583L17.1334 46.9271L16.8456 46.7985V24.6219L16.7737 24.5673L14.3335 22.7378V48.0327L27.448 54.2409C27.6704 53.9603 27.8871 53.6688 28.0979 53.3665Z" fill="#80ED99"/>
<path d="M48.5762 56.3986C47.5476 56.4056 46.5267 56.2192 45.5669 55.8491C44.452 55.412 43.4608 54.7091 42.6796 53.8015V53.7754C42.334 53.3768 42.0232 52.9493 41.7508 52.4975C41.6708 52.3696 41.598 52.2388 41.5326 52.105C41.3567 51.7866 41.1917 51.4508 41.0376 51.0976C40.9787 50.9602 40.9178 50.8206 40.8632 50.6789C40.404 49.4986 40.0648 48.2748 39.8513 47.0264C39.4057 44.3674 39.2813 41.6644 39.4806 38.9757C39.8511 33.9734 41.6158 29.175 44.5746 25.1246C45.414 23.9386 46.3273 22.8068 47.3093 21.7359L36.6632 30.1159L23.1256 20.6587C25.4592 22.9877 27.4352 25.6493 28.9895 28.5568C29.834 30.145 30.5318 31.807 31.0742 33.522C31.4772 34.7954 31.784 36.0972 31.9922 37.4166C32.0249 37.6215 32.0511 37.8287 32.0816 38.0358C32.2522 39.2872 32.3252 40.5499 32.2998 41.8126C32.3007 41.8286 32.3007 41.8446 32.2998 41.8606C32.2998 41.9609 32.2998 42.0612 32.2998 42.1594C32.2998 42.2574 32.2998 42.3142 32.2888 42.3905C32.278 42.4668 32.2888 42.5889 32.2736 42.6892C32.1769 44.3138 31.9004 45.9228 31.4493 47.4865C31.4057 47.637 31.3599 47.7853 31.3119 47.9379C31.1215 48.5412 30.9033 49.135 30.6576 49.7194C30.3342 50.4938 29.9636 51.2475 29.5477 51.9764C29.4714 52.1094 29.3973 52.238 29.3188 52.3689C28.8887 53.0845 28.4175 53.7747 27.9078 54.436C27.8054 54.5691 27.6898 54.7021 27.5917 54.8351C27.0462 55.5052 26.4637 56.1444 25.8471 56.7497L25.5942 56.9961C25.35 57.2316 25.097 57.4628 24.8376 57.6917C23.3944 58.9579 21.8205 60.0668 20.1426 60.9996C25.9026 60.4574 31.4139 58.3897 36.1093 55.0096L36.2293 55.1775C37.8078 57.271 40.0058 58.814 42.5111 59.587C45.0165 60.3602 47.7018 60.3242 50.1855 59.4842C51.8032 58.9362 53.2936 58.0674 54.5676 56.9299C55.8416 55.7923 56.873 54.4094 57.5998 52.8638C55.021 54.9316 51.8734 56.1646 48.5762 56.3986Z" fill="#22577A"/>
<path d="M57.5191 22.7378V48.0327L43.9989 54.4305C43.7326 54.22 43.4813 53.9912 43.2466 53.7459L43.1398 53.6325L43.0264 53.506L42.9348 53.3991C42.9021 53.3643 42.8585 53.3097 42.8215 53.2639C42.7146 53.1331 42.6033 52.9979 42.5117 52.8583L54.7649 46.4779L55.0702 46.3362V24.5608L55.6285 24.1421L56.0799 23.8041L57.5191 22.7378Z" fill="#80ED99"/>
<path d="M54.6256 20.7612V46.0561L54.5623 46.0866L46.2256 50.426L42.2546 52.4932C42.2154 52.4344 42.1761 52.3733 42.139 52.31C42.102 52.2468 42.0715 52.2032 42.041 52.1487C42.0104 52.0942 41.9538 51.996 41.9101 51.9176C41.8076 51.7322 41.7051 51.5403 41.6113 51.3418C41.5459 51.2067 41.4827 51.0671 41.4194 50.9232L41.3911 50.8534L42.0606 50.4304L51.8736 43.7512V22.8175L54.6256 20.7612Z" fill="#57CC99"/>
<path d="M51.4183 32.2596V43.5245L41.8758 50.027L41.2215 50.4414C40.9598 49.7639 40.7413 49.0706 40.5674 48.3654C40.5303 48.2128 40.4932 48.058 40.4583 47.901C40.4431 47.8312 40.4256 47.7592 40.4125 47.6829C40.3994 47.6066 40.3863 47.563 40.3733 47.4976L48.5028 42.5716V36.6622L39.8237 41.309C39.8237 40.5916 39.8521 39.8219 39.9044 39.0063C40.1059 36.0034 40.8445 33.061 42.0851 30.3188V37.3469L50.98 32.5016L51.4183 32.2596Z" fill="#38A3A5"/>
<path d="M23.3557 35.7844V42.2957L30.9509 47.4266C30.9269 47.5116 30.9007 47.5967 30.8746 47.6817C30.6783 48.3126 30.4522 48.9363 30.1963 49.5527C30.0459 49.9125 29.8845 50.2657 29.7188 50.6081L20.5601 44.4152V18.9219C23.5917 21.4767 26.1563 24.5387 28.14 27.9713L23.3622 24.5805V31.8331L31.5833 37.7055L31.6159 37.9235C31.6312 38.0435 31.6488 38.1634 31.6619 38.2833C31.6619 38.3008 31.6619 38.3204 31.6619 38.3379L31.6923 38.6039C31.6923 38.6889 31.7098 38.7871 31.7207 38.8787C31.7316 38.9703 31.736 39.0444 31.7425 39.1273C31.7491 39.2101 31.7555 39.2908 31.7621 39.3737C31.7686 39.4565 31.7622 39.4827 31.7753 39.535V39.5786C31.7753 39.5939 31.7753 39.607 31.7753 39.6201V39.6506C31.7731 39.6687 31.7731 39.687 31.7753 39.7051C31.7773 39.7167 31.7773 39.7285 31.7753 39.74C31.7905 39.9799 31.8014 40.2197 31.8101 40.4574C31.8101 40.5839 31.8101 40.7082 31.8101 40.8347C31.8101 41.0832 31.8101 41.3311 31.8101 41.5783L23.3557 35.7844Z" fill="#38A3A5"/>
<path d="M29.5142 51.015C29.3769 51.281 29.2351 51.5427 29.089 51.7978L29.0738 51.8262C29.004 51.9505 28.9342 52.0704 28.8557 52.1904L28.8404 52.2187C28.7895 52.3045 28.7372 52.3895 28.6834 52.4738L23.886 49.9618L17.3222 46.5208L17.2808 46.499V21.2041L20.0828 23.3062V23.666V44.663L29.5142 51.015Z" fill="#57CC99"/>
<path d="M51.4171 18.4767V24.9836L50.9657 25.2016L42.4263 29.5498C44.4331 25.5477 47.2218 21.9886 50.6277 19.0829C50.7411 18.9826 50.8458 18.8866 50.9679 18.7929L50.9919 18.7732L51.2667 18.5814L51.4171 18.4614V18.4767Z" fill="#38A3A5"/>
<path d="M40.7322 19.3887L40.6886 19.319H40.6057C39.2966 19.3114 38.0136 19.6857 36.9139 20.3962C37.3826 19.8775 37.9867 19.4999 38.6584 19.3059L38.8481 19.2427L38.9506 19.2121L39.064 19.1794L39.2558 19.1271H39.2842L39.5154 19.0682L39.5742 19.0551L39.7618 19.0137L39.8272 19.0006L40.0606 18.9548H40.0802L40.3898 18.9003L40.5207 18.8785V17.1209L44.882 15.7449L37.1602 11L28.5161 13.7388L30.0993 14.7113C29.9924 14.9599 29.8812 15.2063 29.77 15.4484C29.3433 16.2702 29.0454 17.1528 28.8868 18.0651C28.85 18.5011 28.9134 18.9397 29.0722 19.3473L28.6731 19.4978L29.3862 21.3644L30.7338 20.8497L30.0208 18.9831L29.6958 19.1053C29.7017 18.6945 29.744 18.2852 29.8223 17.8819C29.9913 17.1493 30.2338 16.4355 30.5463 15.7515C30.6292 15.5509 30.7142 15.3437 30.797 15.1409L32.7182 16.3185L32.7924 16.2879C33.0212 16.1889 33.2548 16.1016 33.4924 16.0263C34.8878 15.6331 36.3537 15.5587 37.7818 15.8082H37.5048H37.3042L36.9553 15.8235L36.6958 15.8387L36.4384 15.8583H36.4166L36.1681 15.8823H36.1397L35.8998 15.9063H35.8628L35.6447 15.9347H35.6011L35.383 15.9674C35.3677 15.9674 35.3503 15.9674 35.335 15.9674L35.117 16.0045H35.0624L34.8618 16.0459L34.803 16.059L34.6089 16.1026L34.5435 16.1179L34.3647 16.1658L34.2906 16.1855L34.1226 16.2356L34.0419 16.2596L33.8892 16.3097L33.7977 16.3425L33.6624 16.3926L33.5622 16.4341L33.4706 16.4711L33.3812 16.5103L33.2896 16.5518V18.2221C33.0604 18.4153 32.8488 18.6283 32.6572 18.8589C32.2352 19.3669 31.9177 19.9532 31.7229 20.5842C31.5281 21.2152 31.4598 21.8785 31.522 22.5359C31.5842 23.1934 31.7757 23.8321 32.0854 24.4153C32.395 24.9987 32.8169 25.5151 33.3266 25.9349C34.2251 26.6775 35.3536 27.0852 36.5192 27.0884C36.6762 27.0884 36.8332 27.0884 36.9902 27.0666C38.3162 26.9417 39.5386 26.2956 40.3886 25.2702C41.2387 24.2447 41.647 22.9239 41.5238 21.5977C41.4405 20.8086 41.169 20.0511 40.7322 19.3887ZM29.6828 19.4105L29.8267 19.3561L30.3173 20.6426L29.5498 20.9348L29.0591 19.6504L29.1594 19.6112L29.227 19.79C29.334 20.0579 29.4258 20.3316 29.5018 20.6099L29.8049 20.5423C29.7344 20.1689 29.6935 19.7904 29.6828 19.4105Z" fill="#22577A"/>
</g>
</g>
<g clip-path="url(#clip1_997_2879)">
<mask id="mask1_997_2879" style="mask-type:luminance" maskUnits="userSpaceOnUse" x="88" y="0" width="72" height="72">
<path d="M160 0H88V72H160V0Z" fill="white"/>
</mask>
<g mask="url(#mask1_997_2879)">
<path d="M159.982 34.0913C159.883 29.0241 159.557 24.0023 158.782 18.99C158.378 16.3725 157.797 13.6779 156.942 11.1519C156.223 9.03133 155.175 6.76587 153.372 5.3386C152.735 4.83429 151.961 4.37198 151.05 3.95167C149.812 3.38055 148.531 2.90942 147.219 2.5428C142.615 1.25513 137.795 0.678733 133.039 0.325133L131.716 0.2436C126.505 -0.0840227 121.277 -0.0811727 116.066 0.252133C115.595 0.294889 115.123 0.319022 114.65 0.324533C114.56 0.325533 114.478 0.367267 114.379 0.3738C110.823 0.637933 107.144 1.09667 103.639 1.83607C102.208 2.13745 100.794 2.51693 99.4047 2.9728C97.7737 3.508 96.1436 4.22173 94.7547 5.24327C94.3529 5.53376 93.9889 5.87323 93.6712 6.2538L93.2434 6.7638C93.1441 6.8652 93.0639 6.9836 93.0066 7.11347L92.6106 7.69747C91.6831 9.26413 91.0485 10.9895 90.5518 12.7495C90.1295 14.2469 89.7803 15.7613 89.504 17.293C88.6971 21.7668 88.2567 26.3618 88.1113 30.8565C88.0716 32.0813 88.02 33.2789 88.0076 34.4907C87.9573 39.3807 88.1526 44.3001 88.694 49.1623C88.7182 49.3811 88.7807 49.6423 88.7972 49.8932C88.8158 50.1754 88.8435 50.4565 88.8802 50.7367C89.3281 54.1812 89.9522 57.6408 91.083 60.9339C91.5817 62.3855 92.2132 63.8065 93.0904 65.0498C94.1442 66.5442 95.6942 67.5367 97.4067 68.27C100.139 69.44 103.103 70.1373 106.026 70.6293C109.113 71.1493 112.224 71.506 115.349 71.6993C115.449 71.708 115.549 71.71 115.65 71.7067L115.975 71.75C117.149 71.8147 118.326 71.8927 119.5 71.9313C123.645 72.0667 127.766 71.998 131.905 71.7613C132.016 71.7513 132.126 71.7353 132.234 71.712L132.621 71.702C135.783 71.5053 138.933 71.1407 142.057 70.6093C145.084 70.0933 148.188 69.3787 150.988 68.088C152.468 67.4053 153.886 66.4752 154.815 65.1831C155.498 64.2204 156.059 63.1764 156.484 62.0751C157.568 59.3177 158.247 56.3951 158.715 53.4785C159.242 50.1804 159.595 46.8569 159.774 43.5218C159.951 40.2624 160.041 37.0855 159.982 34.0913ZM90.1288 51.0118C90.1301 51.0113 90.1315 51.0113 90.1328 51.0118C90.1336 51.0119 90.1343 51.0123 90.1348 51.0128C90.1329 51.0122 90.1308 51.0119 90.1288 51.0118M90.7649 22.0268C90.7654 22.0268 90.7659 22.0273 90.7664 22.0278C90.767 22.0283 90.7684 22.0303 90.7694 22.0313L90.7649 22.0268ZM115.62 71.444C115.621 71.444 115.622 71.4447 115.623 71.4447C115.625 71.4453 115.628 71.446 115.63 71.4473C115.627 71.446 115.623 71.4447 115.62 71.444M157.15 49.8519C157.151 49.8513 157.153 49.851 157.155 49.8509H157.159C157.156 49.8511 157.153 49.8514 157.15 49.8519ZM157.163 21.846C157.161 21.8464 157.159 21.8466 157.157 21.8465C157.161 21.8465 157.164 21.846 157.167 21.845C157.165 21.8456 157.164 21.8459 157.163 21.846ZM157.211 50.6336C157.208 50.6359 157.205 50.6379 157.203 50.6397C157.206 50.6376 157.209 50.6352 157.211 50.6326C157.211 50.6331 157.211 50.6331 157.211 50.6336Z" fill="white"/>
<path fill-rule="evenodd" clip-rule="evenodd" d="M149.133 68.8447V64.9049L149.133 64.9046C149.133 64.0635 148.799 63.2568 148.204 62.6621C147.61 62.0674 146.803 61.7333 145.962 61.7334H101.779C101.396 61.7334 101.018 61.8087 100.664 61.9551C100.311 62.1015 99.99 62.3161 99.7196 62.5865C99.4492 62.857 99.2347 63.1781 99.0884 63.5315C98.942 63.8849 98.8667 64.2637 98.8667 64.6461V68.8407C101.181 69.6774 103.621 70.2234 106.034 70.6294C109.119 71.1494 112.229 71.5067 115.352 71.6994C115.452 71.7081 115.553 71.7107 115.654 71.7067L115.979 71.7501C116.281 71.7667 116.583 71.7841 116.885 71.8021C117.757 71.8521 118.63 71.9027 119.502 71.9314C120.887 71.9767 122.269 71.9994 123.651 72.0001H123.841C126.528 71.9981 129.211 71.9154 131.902 71.7614C132.012 71.7521 132.122 71.7354 132.23 71.7121L132.617 71.7021C135.778 71.5061 138.926 71.1414 142.049 70.6094C144.424 70.2047 146.847 69.6774 149.133 68.8447ZM115.627 71.4447C115.626 71.4447 115.625 71.4447 115.623 71.4447H115.624C115.627 71.4454 115.63 71.4461 115.633 71.4474C115.631 71.4461 115.629 71.4454 115.627 71.4447Z" fill="#56CC9A"/>
<path d="M115.87 69.7336C114.693 69.7336 113.772 69.1422 113.733 68.0236H115.153C115.192 68.4489 115.457 68.6536 115.831 68.6536C116.221 68.6536 116.471 68.4569 116.471 68.1336C116.471 67.1089 113.733 67.6609 113.749 65.6983C113.749 64.6501 114.599 64.0669 115.746 64.0669C116.939 64.0669 117.742 64.6658 117.797 65.7219H116.354C116.33 65.3672 116.081 65.1545 115.722 65.1466C115.402 65.1388 115.161 65.3043 115.161 65.651C115.161 66.6126 117.867 66.1792 117.867 68.0309C117.867 68.9609 117.149 69.7336 115.87 69.7336" fill="white"/>
<path d="M122.119 68.6893H120.066L119.737 69.6666H118.333L120.324 64.1333H121.876L123.867 69.6666H122.448L122.119 68.6893ZM121.092 65.623L120.418 67.6486H121.774L121.092 65.623Z" fill="white"/>
<path d="M127.919 68.6893H125.865L125.536 69.6666H124.133L126.124 64.1333H127.676L129.667 69.6666H128.248L127.919 68.6893ZM126.892 65.623L126.218 67.6486H127.574L126.892 65.623Z" fill="white"/>
<path d="M132.27 69.7336C131.093 69.7336 130.172 69.1422 130.133 68.0236H131.553C131.592 68.4489 131.857 68.6536 132.231 68.6536C132.621 68.6536 132.871 68.4569 132.871 68.1336C132.871 67.1089 130.133 67.6609 130.149 65.6983C130.149 64.6501 130.999 64.0669 132.145 64.0669C133.339 64.0669 134.142 64.6658 134.197 65.7219H132.754C132.73 65.3672 132.481 65.1545 132.122 65.1466C131.802 65.1388 131.56 65.3043 131.56 65.651C131.56 66.6126 134.267 66.1792 134.267 68.0309C134.267 68.9609 133.549 69.7336 132.27 69.7336" fill="white"/>
<path fill-rule="evenodd" clip-rule="evenodd" d="M113.041 53.6689C116.179 52.0415 119.74 52.1627 122.773 53.9356C122.817 53.9624 122.867 53.9766 122.918 53.9766C122.969 53.9766 123.019 53.9624 123.063 53.9356C123.107 53.911 123.144 53.8747 123.17 53.8307C123.195 53.7866 123.209 53.7365 123.208 53.6855V46.3589C123.209 46.3224 123.202 46.2861 123.189 46.2522C123.176 46.2182 123.156 46.1873 123.13 46.1611C121.292 44.2218 118.897 42.9019 116.275 42.3841C113.654 41.8663 110.937 42.1763 108.499 43.2711C108.43 43.3027 108.376 43.3601 108.348 43.4311C108.321 43.5021 108.322 43.581 108.352 43.6511L112.641 53.5259C112.657 53.5627 112.681 53.5959 112.71 53.6234C112.739 53.6508 112.774 53.6719 112.812 53.6853C112.849 53.6986 112.889 53.704 112.928 53.7012C112.968 53.6984 113.006 53.6874 113.041 53.6689M134.244 53.6689C131.106 52.0415 127.543 52.1627 124.512 53.9356C124.469 53.9624 124.419 53.9766 124.367 53.9766C124.316 53.9766 124.266 53.9624 124.223 53.9356C124.178 53.911 124.141 53.8747 124.116 53.8307C124.09 53.7866 124.077 53.7365 124.078 53.6855V46.3589C124.077 46.3222 124.083 46.2857 124.097 46.2517C124.111 46.2177 124.131 46.1868 124.158 46.1611C125.995 44.2217 128.39 42.9017 131.011 42.3839C133.632 41.8661 136.349 42.1761 138.786 43.2711C138.855 43.3027 138.91 43.3601 138.937 43.4311C138.965 43.5021 138.963 43.581 138.934 43.6511L134.644 53.5259C134.628 53.5625 134.605 53.5955 134.576 53.6229C134.547 53.6503 134.513 53.6715 134.476 53.6853C134.438 53.6987 134.398 53.7041 134.358 53.7013C134.318 53.6985 134.28 53.6875 134.244 53.6689Z" fill="#56CC99"/>
<path fill-rule="evenodd" clip-rule="evenodd" d="M125.307 56.3045C127.767 54.1702 131.134 54.6178 133.874 55.9288C133.917 55.9504 133.966 55.9603 134.015 55.9574C134.063 55.9546 134.11 55.939 134.151 55.9124C134.194 55.8877 134.229 55.8521 134.253 55.8092C134.277 55.7664 134.289 55.7179 134.288 55.6688V54.8477C134.289 54.7956 134.275 54.7444 134.249 54.6995C134.222 54.6546 134.184 54.6178 134.138 54.5932C130.953 52.803 127.265 53.0302 124.263 55.123C123.992 55.3141 123.296 55.3141 123.023 55.123C120.021 53.0312 116.335 52.8041 113.148 54.5932C113.102 54.6182 113.064 54.655 113.038 54.6998C113.011 54.7446 112.998 54.7958 112.998 54.8477V55.6691C112.997 55.7182 113.009 55.7667 113.033 55.8095C113.057 55.8524 113.092 55.888 113.135 55.9126C113.176 55.9396 113.223 55.9552 113.272 55.9581C113.321 55.961 113.37 55.951 113.414 55.929C116.151 54.6184 119.519 54.1705 121.979 56.3048C121.981 56.307 121.985 56.3091 121.987 56.3114C122.457 56.6869 123.041 56.8914 123.643 56.8914C124.244 56.8914 124.828 56.6869 125.298 56.3114C125.3 56.3092 125.305 56.3071 125.307 56.3048" fill="#205479"/>
<path fill-rule="evenodd" clip-rule="evenodd" d="M135.18 54.4652L138.616 46.551C138.643 46.4898 138.689 46.4396 138.749 46.409C138.808 46.3783 138.876 46.369 138.941 46.3826C139.006 46.3962 139.065 46.4318 139.107 46.4836C139.149 46.5354 139.171 46.6 139.171 46.6667V49.263C139.172 49.3114 139.16 49.359 139.137 49.4017L135.699 55.7137C135.668 55.7704 135.62 55.8154 135.561 55.8413C135.502 55.8672 135.436 55.8726 135.373 55.8566C135.311 55.8407 135.256 55.8042 135.216 55.7532C135.177 55.7021 135.156 55.6394 135.157 55.575V54.581C135.156 54.5412 135.164 54.5017 135.18 54.4652Z" fill="#205479"/>
<path fill-rule="evenodd" clip-rule="evenodd" d="M112.107 54.4648L108.671 46.5505C108.644 46.4895 108.597 46.4394 108.538 46.4088C108.479 46.3782 108.411 46.369 108.346 46.3826C108.281 46.3962 108.222 46.4318 108.18 46.4834C108.139 46.5352 108.116 46.5997 108.116 46.6662V49.2626C108.115 49.3112 108.127 49.3592 108.152 49.4012L111.588 55.7134C111.618 55.7704 111.667 55.8156 111.726 55.8416C111.785 55.8675 111.851 55.8728 111.914 55.8565C111.976 55.8404 112.031 55.804 112.071 55.753C112.11 55.702 112.132 55.6392 112.132 55.5747V54.5806C112.132 54.5406 112.123 54.5012 112.107 54.4648Z" fill="#205479"/>
<path fill-rule="evenodd" clip-rule="evenodd" d="M124.195 28.073L125.385 31.7615C125.422 31.8791 125.495 31.9817 125.595 32.0539C125.695 32.1261 125.815 32.1642 125.938 32.1624L129.818 32.1557C129.941 32.1557 130.06 32.1944 130.159 32.2664C130.258 32.3385 130.332 32.4401 130.37 32.5566C130.408 32.6732 130.408 32.7988 130.37 32.9153C130.332 33.0319 130.258 33.1334 130.159 33.2053L127.019 35.4783C126.918 35.5497 126.843 35.6516 126.805 35.7688C126.767 35.8861 126.768 36.0125 126.807 36.1293L128.013 39.8157C128.051 39.9324 128.051 40.0582 128.013 40.175C127.975 40.2917 127.901 40.3935 127.802 40.4656C127.702 40.5377 127.583 40.5764 127.46 40.5762C127.337 40.5761 127.217 40.5369 127.118 40.4645L123.987 38.1795C123.888 38.1061 123.768 38.0665 123.644 38.0665C123.521 38.0665 123.401 38.1061 123.302 38.1795L120.17 40.4645C120.071 40.538 119.951 40.5776 119.828 40.5776C119.705 40.5776 119.585 40.538 119.485 40.4645C119.385 40.3933 119.311 40.2916 119.274 40.1747C119.236 40.0577 119.238 39.9317 119.278 39.8157L120.482 36.1293C120.521 36.0125 120.521 35.8861 120.483 35.7688C120.445 35.6515 120.37 35.5497 120.27 35.4783L117.13 33.2053C117.03 33.1334 116.957 33.0319 116.919 32.9153C116.881 32.7988 116.881 32.6732 116.918 32.5566C116.956 32.4401 117.03 32.3385 117.129 32.2664C117.228 32.1944 117.348 32.1557 117.47 32.1557L121.35 32.1624C121.474 32.1642 121.594 32.1261 121.694 32.0539C121.793 31.9817 121.867 31.8791 121.903 31.7615L123.094 28.073C123.131 27.9559 123.205 27.8539 123.304 27.7814C123.404 27.7089 123.524 27.6699 123.646 27.6699C123.769 27.6699 123.889 27.7089 123.988 27.7814C124.088 27.8539 124.162 27.9559 124.199 28.073H124.195Z" fill="#56CC99"/>
<path fill-rule="evenodd" clip-rule="evenodd" d="M97.5243 18.1522C108.74 24.4164 116.401 20.1446 120.509 5.3368C120.556 5.16554 120.664 5.01719 120.812 4.91887C120.961 4.82056 121.139 4.77885 121.315 4.80138C121.492 4.82391 121.654 4.90917 121.773 5.04156C121.891 5.17396 121.958 5.34464 121.962 5.5224C122.235 23.5981 112.555 40.029 97.4555 48.7942C97.2997 48.885 97.1163 48.9159 96.9395 48.8811C96.7627 48.8463 96.6046 48.7482 96.4949 48.6053C96.3852 48.4623 96.3313 48.2842 96.3435 48.1044C96.3556 47.9246 96.4329 47.7554 96.5609 47.6286C101.526 42.6863 103.58 37.3874 102.722 31.7318C102.71 31.6536 102.724 31.5736 102.761 31.5036C102.798 31.4337 102.856 31.3774 102.928 31.343C102.998 31.3081 103.079 31.297 103.156 31.3114C103.234 31.3259 103.305 31.365 103.358 31.423C104.357 32.4814 105.343 33.554 106.316 34.6408C106.374 34.7055 106.453 34.7477 106.539 34.7601C106.625 34.7724 106.713 34.7542 106.787 34.7086C106.861 34.663 106.916 34.5928 106.944 34.5104C106.971 34.4279 106.969 34.3384 106.937 34.2574C104.732 28.6552 101.499 24.6073 96.5838 19.2652C96.0355 18.6688 96.8153 17.759 97.5231 18.1543L97.5243 18.1522Z" fill="#205479"/>
<path fill-rule="evenodd" clip-rule="evenodd" d="M111.37 15.4398C110.905 16.0931 110.256 16.5937 109.506 16.8783C108.756 17.1629 107.939 17.2188 107.157 17.0388C106.376 16.8589 105.665 16.4511 105.115 15.8672C104.565 15.2833 104.201 14.5495 104.068 13.7585C103.935 12.9675 104.04 12.1549 104.369 11.4235C104.698 10.692 105.237 10.0746 105.917 9.64927C106.597 9.22401 107.388 9.00987 108.19 9.03407C108.991 9.05827 109.768 9.31967 110.421 9.78521C111.297 10.4092 111.889 11.3555 112.067 12.4159C112.245 13.4764 111.994 14.5641 111.37 15.4398Z" fill="#205479"/>
<path fill-rule="evenodd" clip-rule="evenodd" d="M149.762 18.1526C138.546 24.4168 130.886 20.145 126.779 5.33717C126.732 5.16578 126.624 5.01734 126.475 4.91896C126.327 4.82059 126.148 4.77885 125.972 4.80137C125.795 4.82389 125.633 4.90916 125.514 5.04161C125.395 5.17406 125.328 5.34485 125.324 5.52277C125.051 23.5985 134.731 40.0294 149.831 48.7946C149.986 48.8853 150.17 48.9162 150.346 48.8814C150.523 48.8466 150.681 48.7485 150.791 48.6056C150.901 48.4626 150.954 48.2846 150.942 48.1048C150.93 47.925 150.853 47.7558 150.725 47.6289C145.76 42.6867 143.706 37.3878 144.564 31.7322C144.575 31.654 144.562 31.574 144.525 31.504C144.488 31.434 144.43 31.3778 144.358 31.3434C144.288 31.3085 144.208 31.2974 144.131 31.3118C144.054 31.3263 143.983 31.3654 143.93 31.4234C142.931 32.4818 141.944 33.5544 140.97 34.6412C140.912 34.7056 140.833 34.7477 140.747 34.7601C140.661 34.7724 140.573 34.7544 140.499 34.709C140.425 34.6636 140.369 34.5933 140.342 34.5108C140.315 34.4282 140.317 34.3386 140.35 34.2578C142.553 28.6556 145.788 24.6077 150.701 19.2656C151.249 18.6692 150.47 17.7594 149.762 18.1547V18.1526Z" fill="#205479"/>
<path fill-rule="evenodd" clip-rule="evenodd" d="M135.918 15.4403C136.383 16.0936 137.031 16.5942 137.781 16.8788C138.531 17.1634 139.349 17.2193 140.13 17.0393C140.912 16.8594 141.622 16.4516 142.172 15.8677C142.722 15.2838 143.087 14.55 143.219 13.759C143.352 12.968 143.247 12.1554 142.918 11.4239C142.589 10.6925 142.051 10.0751 141.371 9.64976C140.691 9.22443 139.9 9.01036 139.098 9.03456C138.296 9.05876 137.52 9.32016 136.867 9.7857C135.991 10.4097 135.399 11.356 135.221 12.4164C135.043 13.4768 135.294 14.5646 135.918 15.4403Z" fill="#205479"/>
</g>
</g>
<defs>
<clipPath id="clip0_997_2879">
<rect width="72" height="72" fill="white"/>
</clipPath>
<clipPath id="clip1_997_2879">
<rect width="72" height="72" fill="white" transform="translate(88)"/>
</clipPath>
</defs>
</svg>
