<?xml version="1.0" encoding="UTF-8"?>
<svg id="Layer_2" data-name="Layer 2" xmlns="http://www.w3.org/2000/svg" xmlns:xlink="http://www.w3.org/1999/xlink" viewBox="0 0 96 96">
  <defs>
    <style>
      .cls-1 {
        fill: url(#linear-gradient-2);
      }

      .cls-2 {
        fill: #fff;
      }

      .cls-3 {
        mask: url(#mask);
      }

      .cls-4 {
        fill: url(#linear-gradient);
      }
    </style>
    <mask id="mask" x="0" y="0" width="96" height="96" maskUnits="userSpaceOnUse">
      <g id="mask0_359_1485" data-name="mask0 359 1485">
        <path class="cls-2" d="M96,0H0v96h96V0Z"/>
      </g>
    </mask>
    <linearGradient id="linear-gradient" x1="0" y1="98" x2="96" y2="2" gradientTransform="translate(0 98) scale(1 -1)" gradientUnits="userSpaceOnUse">
      <stop offset="0" stop-color="#ffbd69"/>
      <stop offset="1" stop-color="#ff6363"/>
    </linearGradient>
    <linearGradient id="linear-gradient-2" x1="32.31" y1="10.31" x2="63.69" y2="10.31" gradientTransform="matrix(1,0,0,1,0,0)" xlink:href="#linear-gradient"/>
  </defs>
  <g id="Layer_1-2" data-name="Layer 1">
    <g class="cls-3">
      <g id="eShop_web_maltii" data-name="eShop web maltii">
        <path class="cls-4" d="M95.98,45.46c-.13-6.76-.57-13.45-1.6-20.14-.54-3.49-1.31-7.08-2.45-10.45-.96-2.83-2.36-5.85-4.76-7.75-.85-.67-1.88-1.29-3.1-1.85-1.65-.76-3.36-1.39-5.11-1.88-6.14-1.72-12.57-2.49-18.91-2.96l-1.76-.11c-6.95-.44-13.92-.43-20.87.01-.63.06-1.26.09-1.89.1-.12,0-.23.06-.36.07-4.74.35-9.65.96-14.32,1.95-1.91.4-3.79.91-5.65,1.52-2.17.71-4.35,1.67-6.2,3.03-.54.39-1.02.84-1.44,1.35l-.57.68c-.12.13-.22.27-.3.43-.01.02-.02.05-.04.07l-.51.75c-1.24,2.09-2.08,4.39-2.75,6.74-.56,2-1.03,4.02-1.4,6.06C.93,29.02.34,35.15.15,41.14c-.05,1.63-.12,3.23-.14,4.85-.07,6.52.19,13.08.92,19.56.03.29.12.64.14.97.02.38.06.75.11,1.12.6,4.59,1.43,9.21,2.94,13.6.66,1.94,1.51,3.83,2.68,5.49,1.41,1.99,3.47,3.32,5.76,4.29,3.64,1.56,7.59,2.49,11.49,3.15,4.12.69,8.26,1.17,12.43,1.43.12.01.24.01.36.01.02,0,.05,0,.07,0l.4.05c1.57.09,3.13.19,4.7.24,5.53.18,11.02.09,16.54-.23.13-.01.27-.03.4-.06.03,0,.05,0,.08,0h.47c4.22-.27,8.42-.76,12.58-1.47,4.04-.69,8.17-1.64,11.91-3.36,1.97-.91,3.86-2.15,5.1-3.87.91-1.28,1.66-2.68,2.23-4.14,1.45-3.68,2.35-7.57,2.98-11.46.7-4.4,1.17-8.83,1.41-13.28.24-4.35.36-8.58.28-12.57ZM3.69,29.37s0,0,0,0c0,0,0,0,0,0h0ZM36.83,95.26s0,0,0,0c0,0,0,0,0,0h0s0,0,0,0L2.84,68.02s0,0,0,0h0s0,0,0,0c0,0,0,0,0,0M92.21,66.47s0,0,0,0h0s0,0,0,0ZM92.22,29.13s0,0-.01,0h0s0,0,.01,0ZM92.28,67.51s0,0-.01,0c0,0,0,0,0,0,0,0,0,0,0,0Z"/>
        <path class="cls-2" d="M30.87,82.91c-.1,0-.23,0-.23-.03.02-.22.02-.55.02-.93,0-1.19-.06-2.86-.11-3.12,0-.03-.01-.04-.02-.04s-.05.05-.05.05c-.39.92-.73,1.87-1,2.84-.02.06-.23.09-.34.09-.12,0-.24-.02-.36-.07,0-.03-.93-2.69-1.05-2.83-.01-.03-.03-.05-.04-.05s-.01.01-.02.06c-.11.86-.16,1.72-.14,2.58,0,.41,0,.82.04,1.23-.25.14-.53.21-.82.19-.1,0-.2-.01-.29-.05,0-1.52.31-4.7.31-4.7-.16-.25-.27-.52-.31-.82,0,0,0-.02,0-.03.35-.06.7-.08,1.05-.08.23,0,.46,0,.69.04.06.06.73,1.97.9,2.52,0,0,.02.04.04.04s.03-.02.04-.05c.29-.86.64-1.7,1.06-2.51.36-.07.73-.09,1.1-.07.1,0,.4,0,.4.04-.05.33-.15.65-.29.95,0,0,.28,2.56.28,4.53-.25.16-.55.23-.85.22"/>
        <path class="cls-2" d="M34.79,82.06h0c-.11.17-.27.33-.45.44-.19.11-.39.18-.61.2-.73,0-.91-.72-.97-1.32,0-.1-.01-.31-.01-.54-.01-.53.01-1.05.07-1.57.2-.13.44-.19.68-.17,0,0,.18,0,.23.04,0,.05-.05.7-.05,1.29,0,.18,0,.35.01.5,0,0,0,.65.45.65.42,0,.66-.54.65-.61v-.27c0-.57.03-1.53.05-1.59.2-.16.46-.25.72-.23.07,0,.14,0,.2.03,0,.06-.06,1.37-.06,2.24,0,.24,0,.48.03.71.02.23.09.45.22.65-.23.25-.55.41-.89.44-.03,0-.2-.21-.25-.71v-.17Z"/>
        <path class="cls-2" d="M37.81,81.18c0,.31,0,.56.01.69.02.23.1.46.23.65-.23.25-.55.41-.89.44-.03,0-.2-.21-.25-.71v-.85c0-.82.03-1.64.03-2.92,0-.82-.03-1.02-.03-1.11s.47-.29.75-.29c.07,0,.14,0,.2.03-.01.12-.04,1.5-.04,2.1s-.02,1.21-.02,1.98"/>
        <path class="cls-2" d="M40.09,78.27c.2,0,.4,0,.6.02,0,.39-.14.7-.23.7h-.38c0,.6-.01,1.26-.01,1.8s0,.97.03,1.14c.02.26.14.5.33.69-.11.13-.25.23-.4.31-.15.07-.32.12-.49.12-.1-.1-.19-.21-.25-.34-.06-.13-.09-.27-.09-.41-.02-.13-.02-.46-.02-.86,0-.87.02-2.09.02-2.41h-.45c-.03-.09-.05-.19-.04-.28-.01-.15.01-.3.07-.44l.43-.02c0-.26-.02-.51-.05-.77,0-.11.48-.29.78-.29.07,0,.14,0,.2.03,0,.1-.02.5-.04,1.01"/>
        <path class="cls-2" d="M41.8,78.81c-.06,0-.13,0-.18-.03-.06-.02-.11-.05-.16-.1-.05-.04-.08-.09-.11-.15-.03-.06-.04-.12-.05-.18,0-.03,0-.06,0-.1.01-.14.08-.28.18-.38.11-.1.24-.16.39-.16.07,0,.13.01.19.04.06.02.12.06.16.11.05.05.08.1.11.16.03.06.04.13.04.19,0,.01,0,.03,0,.04-.01.15-.08.28-.18.38-.11.1-.24.16-.39.16ZM42.3,79.31s-.02.98-.02,1.72c0,.28,0,.56.02.83.02.23.09.45.22.65-.23.25-.55.41-.89.44-.03,0-.19-.21-.25-.71,0-.1-.01-.37-.01-.7,0-.83.02-2.06.05-2.12.2-.11.43-.16.66-.14,0,0,.19,0,.23.06h0Z"/>
        <path class="cls-2" d="M46.9,82.91c-.84-1.71-1.42-3.55-1.72-5.43.26-.15.55-.22.84-.22,0,0,.17,0,.17.03.28,1.52.7,3,1.25,4.44,0,0,.05.1.09.1.04,0,.08-.05.09-.09.54-1.19.89-2.46,1.03-3.75,0-.13-.32-.32-.5-.34,0-.02,0-.04,0-.05,0-.15.04-.31.11-.44.49-.13.99-.19,1.5-.2,0,0,.12.02.12.03-.27,1.99-.83,3.93-1.66,5.76-.38.15-.79.21-1.2.19-.04,0-.08,0-.11-.02"/>
        <path class="cls-2" d="M50.58,81.02c-.02-.26.02-.53.11-.78.09-.25.23-.48.42-.67.18-.19.41-.34.65-.44.25-.1.51-.14.77-.13.12-.01.24,0,.35.03.11.03.22.09.32.16.09.07.17.16.23.27.06.1.1.22.11.33,0,.03,0,.06,0,.09-.06.43-.25.83-.54,1.14-.29.32-.67.54-1.09.63,0,.05.17.22.59.22.34.01.67-.06.97-.22,0,0,0,0,.01,0,.01,0,.02.1.02.15,0,.26-.07.51-.2.73-.33.15-.69.22-1.06.19-.23.02-.45-.02-.67-.1-.21-.08-.41-.21-.56-.37-.16-.16-.28-.36-.36-.57-.08-.21-.1-.44-.08-.67ZM52.35,79.74c-.44,0-.83.52-.83,1.15,0,.09,0,.11.03.11.34,0,1.05-.5,1.05-1.03,0-.03,0-.06-.01-.09-.01-.03-.03-.05-.05-.08-.02-.02-.04-.04-.07-.05-.03-.01-.06-.02-.09-.02-.01,0-.02,0-.03,0h0Z"/>
        <path class="cls-2" d="M54.59,79.72c-.02-.18,0-.36.04-.54.22-.15.47-.23.74-.23.07,0,.17.01.17.04,0,.06-.02.27-.02.42s0,.16.02.16.02-.01.02-.01c.12-.15.27-.27.45-.36s.36-.13.55-.14c1,0,1.03,1.32,1.03,2.7,0,.53-.02.94-.02.94-.21.12-.45.17-.7.16-.09,0-.18-.01-.27-.04.05-.46.08-.92.08-1.38,0-.78-.03-1.4-.48-1.4-.52,0-.67.57-.67.57v1.02c.01.3,0,.6-.03.9-.25.15-.54.23-.83.22-.06,0-.12,0-.12-.03.05-.4.06-.8.06-1.19,0-.65-.02-1.35-.02-1.83"/>
        <path class="cls-2" d="M61.62,80.12c0,.61,0,1.39.05,1.63.02.24.11.46.27.65-.24.25-.56.4-.9.43-.16-.16-.25-.38-.25-.61t-.02-.03s0,0-.01,0c0,0,0,0-.01.01-.12.16-.27.28-.44.37-.18.08-.37.12-.56.12-.17-.01-.33-.06-.48-.14-.15-.08-.28-.18-.39-.31-.11-.13-.19-.28-.24-.44-.05-.16-.07-.33-.06-.5h0c-.01-.28.03-.56.12-.82s.24-.5.42-.71c.19-.21.41-.37.66-.49.25-.12.52-.19.8-.2.06,0,.12,0,.18,0,0-.09-.01-.73-.01-1.19,0-.18,0-.35.02-.53.21-.17.47-.27.75-.28.07,0,.14,0,.2.03-.05.67-.08,2.21-.08,3.02M60.75,79.92s-.12-.01-.12-.01c-.14,0-.28.02-.41.07-.13.05-.25.13-.36.22-.1.1-.19.21-.24.34-.06.13-.09.27-.09.41,0,.04,0,.09,0,.13,0,.37.17.68.56.68.47,0,.65-.55.65-.65s0-.99.02-1.2h0Z"/>
        <path class="cls-2" d="M62.86,80.99c0-.53.2-1.04.57-1.42.37-.38.87-.6,1.4-.6.04,0,.07,0,.11,0,.15,0,.29.02.44.06.01.04.02.07.01.11,0,.1-.01.19-.03.29.29.1.54.29.71.55.17.26.24.57.21.87.04.46-.11.92-.41,1.27-.3.35-.73.57-1.19.61-.04,0-.09,0-.13,0-.23.01-.46-.03-.68-.11-.22-.09-.41-.22-.57-.38-.16-.17-.28-.37-.36-.58-.08-.22-.11-.45-.09-.68ZM64.75,80.17h-.06s-.02-.07-.01-.1c0-.08,0-.16.02-.23-.13.01-.26.05-.38.12-.12.06-.22.15-.31.25-.08.1-.15.22-.19.35-.04.13-.05.26-.04.39v.02c0,.08,0,.97.78.97.38,0,.8-.28.8-1s-.44-.77-.61-.77h0Z"/>
        <path class="cls-2" d="M69.42,80.08s-.07-.01-.1-.01c-.23,0-.47.06-.65.2-.19.14-.33.34-.39.57v.71c.01.33,0,.67-.02,1-.27.16-.58.24-.89.22-.03,0-.06,0-.06-.03.05-.42.07-.85.06-1.28,0-.65-.01-1.37-.01-1.83-.01-.17,0-.33.03-.5.22-.15.47-.23.74-.23.07,0,.17.01.17.04,0,.07-.02.38-.02.59,0,.06,0,.13.01.19t.03-.02c.14-.19.32-.35.53-.46.21-.11.44-.18.67-.19.05.1.07.2.06.31.02.25-.03.5-.15.72"/>
        <path class="cls-2" d="M18.81,65.5c.12.58.45,1.08.94,1.41.54.3,1.15.44,1.76.41.53,0,1.06-.06,1.58-.17.59-.12,1.17-.29,1.73-.51.25.48.45.99.6,1.51.17.59.27,1.21.28,1.83-1.42.53-2.92.8-4.43.81-1.02.02-2.04-.15-3.01-.5-.78-.29-1.48-.75-2.05-1.35-.54-.59-.94-1.29-1.17-2.06-.51-1.7-.5-3.52.01-5.22.24-.78.64-1.5,1.17-2.12.54-.61,1.2-1.1,1.95-1.43.86-.37,1.79-.54,2.73-.52.79-.01,1.57.14,2.3.44.65.28,1.24.69,1.72,1.21.49.54.85,1.17,1.08,1.85.26.76.38,1.55.38,2.35,0,.39-.02.79-.06,1.18-.04.35-.08.64-.11.86h-7.4ZM20.76,60.7c-.49,0-.97.17-1.34.5-.41.4-.64.94-.66,1.51h3.9c-.01-.52-.2-1.02-.52-1.43-.17-.2-.38-.35-.62-.45-.24-.1-.5-.15-.76-.13h0ZM35.3,59.8c.68.28,1.3.56,1.84.84.52.27.99.61,1.4,1.02.4.41.71.9.9,1.44.46,1.42.42,2.97-.13,4.36-.3.69-.75,1.3-1.33,1.78-.63.52-1.37.91-2.16,1.14-.95.28-1.94.42-2.93.4-.9,0-1.79-.07-2.67-.25-.85-.18-1.68-.43-2.49-.75.07-.61.19-1.22.34-1.81.17-.64.36-1.3.58-1.96,1.22.58,2.55.92,3.9.97.67.03,1.33-.1,1.94-.38.23-.13.42-.32.54-.55.12-.23.18-.49.16-.75,0-.23-.04-.46-.15-.67-.09-.18-.23-.35-.39-.48-.17-.13-.35-.24-.55-.33-.2-.09-.41-.17-.62-.25l-1.36-.51c-.56-.19-1.09-.45-1.6-.75-.46-.28-.88-.63-1.23-1.03-.35-.41-.61-.87-.79-1.38-.2-.59-.29-1.21-.28-1.83-.01-.79.13-1.57.44-2.29.28-.65.7-1.23,1.23-1.69.56-.48,1.21-.84,1.91-1.05.81-.24,1.66-.36,2.51-.35.81,0,1.61.08,2.4.25.84.18,1.66.42,2.47.71-.08.58-.2,1.15-.35,1.72-.16.61-.38,1.2-.65,1.77-.42-.18-.92-.37-1.5-.56-.69-.21-1.4-.31-2.12-.29-.25,0-.5.02-.75.07-.22.04-.44.12-.63.23-.19.1-.34.26-.45.44-.12.21-.18.45-.17.69-.01.2.02.4.1.58.08.18.21.34.36.47.34.24.71.44,1.1.58l1.18.44ZM49.84,65.84h-3.61v4.63c-.42.06-.8.11-1.14.15-.34.03-.65.05-.92.05s-.58-.02-.92-.05c-.34-.03-.71-.08-1.12-.15v-12.57c.35-.08.7-.14,1.06-.17.35-.03.69-.05,1.01-.05s.66.02,1,.05c.35.03.7.09,1.05.17v4.29h3.61v-4.29c.35-.08.7-.14,1.06-.17.35-.03.69-.05,1.01-.05s.66.02,1,.05c.35.03.7.09,1.05.17v12.57c-.42.06-.8.11-1.14.15-.31.03-.62.05-.92.05-.28,0-.58-.02-.92-.05-.34-.03-.71-.08-1.12-.15v-4.63ZM56.07,64.26c-.01-.92.12-1.84.4-2.72.24-.78.65-1.5,1.19-2.11.54-.59,1.21-1.06,1.96-1.35.86-.33,1.78-.49,2.7-.47.93-.02,1.86.14,2.73.47.75.3,1.42.76,1.96,1.35.54.61.95,1.33,1.19,2.11.28.88.41,1.8.4,2.72.01.9-.13,1.81-.4,2.67-.25.77-.65,1.47-1.19,2.07-.54.59-1.21,1.04-1.96,1.33-.87.33-1.8.48-2.73.46-.92.02-1.84-.14-2.7-.46-.75-.29-1.42-.74-1.96-1.33-.54-.6-.95-1.3-1.19-2.07-.28-.86-.41-1.76-.4-2.67M64.45,64.26c.05-.83-.13-1.66-.52-2.39-.17-.27-.4-.49-.68-.63-.28-.15-.6-.21-.91-.2-.31-.02-.63.05-.91.19-.28.15-.51.37-.68.64-.38.74-.56,1.56-.51,2.39-.05.82.13,1.64.51,2.36.16.27.4.49.68.63.28.15.59.21.91.19.32.02.63-.05.91-.19.28-.15.52-.36.68-.63.39-.72.57-1.54.52-2.36ZM74.76,64.4c.1.02.2.03.3.04h.3c.5.02,1-.13,1.4-.43.2-.18.35-.41.45-.66.1-.25.13-.52.1-.79.01-.25-.03-.5-.12-.74-.09-.23-.24-.44-.43-.61-.38-.32-.86-.49-1.35-.47h-.27c-.13,0-.25,0-.38.02v3.64ZM70.74,57.95c.75-.11,1.52-.2,2.3-.25.79-.05,1.55-.08,2.28-.08.74,0,1.47.07,2.19.21.68.12,1.34.38,1.92.75.58.38,1.05.9,1.38,1.51.34.76.51,1.58.52,2.41,0,.83-.15,1.65-.48,2.42-.29.6-.72,1.13-1.25,1.54-.53.39-1.13.68-1.76.84-.66.17-1.33.25-2.01.25-.24,0-.47,0-.71-.03-.12,0-.25-.02-.37-.05v2.99c-.37.08-.75.13-1.13.16-.33.02-.63.04-.89.04s-.56-.01-.89-.04c-.37-.03-.74-.09-1.11-.16v-12.5Z"/>
        <path class="cls-2" d="M74.76,28.89v20.41c0,.16-.06.32-.18.43-.11.11-.27.18-.43.18h-3.18l-1.02,1.84v-19.69l-5.81,3.79-2.34-1.53-.16-.1-2.18-1.42-1.13-.75v12.21l3.48,2.08v-7.89l2.34,1.53,2.33-1.52v11.43h-12.73c-.16,0-.32-.07-.43-.18-.11-.11-.18-.27-.18-.43v-20.4c0-.16.06-.32.18-.43.11-.11.27-.18.43-.18h20.41c.16,0,.32.06.43.18.11.11.18.27.18.43h0Z"/>
        <path class="cls-2" d="M93.45,20.38H2.55c.15-.69.32-1.39.5-2.08.11-.43.23-.87.35-1.3.66-2.35,1.51-4.65,2.75-6.74l.5-.74s.03-.05.04-.07c.08-.16.18-.31.3-.43l.57-.68c.43-.51.91-.96,1.45-1.35,1.85-1.36,4.02-2.31,6.2-3.03,1.85-.6,3.73-1.11,5.64-1.51,4.68-.99,9.58-1.6,14.32-1.95.13-.01.24-.07.36-.07.63,0,1.26-.04,1.89-.09,1.6-.1,3.2-.18,4.8-.24h11.35c1.49.05,2.99.12,4.48.21.08,0,.16.01.24.01l1.76.11c6.34.47,12.77,1.24,18.91,2.96,1.75.49,3.46,1.12,5.11,1.88,1.21.56,2.24,1.18,3.09,1.85,2.41,1.9,3.8,4.92,4.76,7.75.61,1.79,1.11,3.64,1.53,5.51Z"/>
        <path class="cls-1" d="M35.2,15.27l-2.89-9.93h2.65l1.5,6.51h.08l1.71-6.51h2.16l1.71,6.52h.08l1.5-6.52h2.65l-2.89,9.93h-2.31l-1.79-6.02h-.08l-1.79,6.02h-2.31ZM47.35,15.27V5.34h6.92v1.95h-4.52v2.04h4.17v1.95h-4.17v2.04h4.52v1.95h-6.92ZM55.78,15.27V5.34h4.14c.74,0,1.37.11,1.87.32.5.21.88.5,1.13.88.26.38.38.82.38,1.31,0,.38-.08.72-.24,1.01-.16.29-.38.54-.65.73-.28.19-.6.33-.97.41v.1c.4.02.77.13,1.11.32.34.2.62.47.82.82.21.35.31.76.31,1.24,0,.53-.14,1.01-.41,1.43-.27.42-.66.75-1.18.99-.51.24-1.14.36-1.87.36h-4.46ZM58.18,13.34h1.48c.52,0,.9-.1,1.15-.3.25-.2.37-.47.37-.82,0-.26-.06-.48-.18-.66-.12-.19-.29-.33-.51-.43-.22-.1-.48-.16-.79-.16h-1.53v2.37ZM58.18,9.42h1.33c.26,0,.49-.04.7-.13.2-.09.36-.21.48-.38.12-.16.17-.36.17-.6,0-.33-.12-.59-.35-.79-.24-.19-.55-.29-.96-.29h-1.37v2.18Z"/>
      </g>
    </g>
  </g>
</svg>