<svg width="330" height="74" viewBox="0 0 330 74" fill="none" xmlns="http://www.w3.org/2000/svg">
<g clip-path="url(#clip0_2859_4061)">
<path d="M46.8883 49.4706H63.4554C62.054 43.5061 56.7012 39.0602 50.3081 39.0602C42.8532 39.0602 36.8068 45.103 36.8068 52.5579C36.8068 60.0127 42.8532 66.0502 50.3081 66.0502C54.4747 66.0502 58.1986 64.1651 60.6723 61.2042L67.3126 63.8842C63.6492 69.365 57.4037 72.9786 50.3081 72.9786C39.0227 72.9786 29.873 63.8362 29.873 52.5579C29.873 41.2796 39.0209 32.1371 50.3081 32.1371C60.546 32.1371 69.0252 39.6577 70.5101 49.4706C70.6666 50.4754 70.7431 51.5051 70.7431 52.5579C70.7431 53.6106 70.6648 54.6403 70.5101 55.6451H46.8901V49.4706H46.8883Z" fill="#B51F47"/>
<path d="M19.9961 22.3686V20.4871H23.2256V22.3686C23.2256 23.2595 22.5018 23.9815 21.6108 23.9815C20.7199 23.9815 19.9961 23.2595 19.9961 22.3686Z" fill="#B51F47"/>
<path d="M40.7383 22.3686V20.4871H43.9678V22.3686C43.9678 23.2595 43.2458 23.9815 42.353 23.9815C41.4603 23.9815 40.7383 23.2595 40.7383 22.3686Z" fill="#B51F47"/>
<path d="M32.2703 34.5343C27.4528 39.3483 24.7995 45.7486 24.7995 52.5579C24.7995 59.3672 27.4528 65.7674 32.2703 70.5814C33.1506 71.4617 34.0843 72.2691 35.0641 73H13.0019C10.6421 73 8.79436 70.9691 9.01843 68.6217L13.2776 24.1025C13.4732 22.0521 15.1982 20.4854 17.2611 20.4854H18.3174V22.2406C18.3174 24.0794 19.8148 25.575 21.6536 25.575C23.4924 25.575 24.9898 24.0776 24.9898 22.2406V20.4854H39.0583V22.2406C39.0583 24.0794 40.5557 25.575 42.3945 25.575C44.2333 25.575 45.7307 24.0776 45.7307 22.2406V20.4854H46.6927C48.7539 20.4854 50.4788 22.0521 50.6745 24.1025L50.959 27.0759C50.7403 27.0706 50.5233 27.067 50.3028 27.067C43.4899 27.067 37.0843 29.7185 32.2668 34.5325L32.2703 34.5343Z" fill="#B51F47"/>
<path d="M43.9682 12.979V22.3686C43.9682 23.2596 43.2462 23.9816 42.3535 23.9816C41.4608 23.9816 40.7388 23.2596 40.7388 22.3686V12.979C40.7388 8.15252 36.8104 4.2277 31.9822 4.2277C27.1539 4.2277 23.2256 8.15252 23.2256 12.979V22.3686C23.2256 23.2596 22.5018 23.9816 21.6108 23.9816C20.7199 23.9816 19.9961 23.2596 19.9961 22.3686V12.979C19.9961 6.37417 25.3738 1 31.9822 1C38.5905 1 43.9682 6.37417 43.9682 12.979Z" fill="#B51F47"/>
<path d="M109.389 38.1598H93.6311C93.9449 41.7969 95.7854 43.3675 98.8388 43.3675C101.487 43.3675 103.193 42.4245 103.373 40.2702H109.389C109.254 45.3429 105.035 48.307 98.7039 48.307C91.3419 48.307 86.7617 44.1317 86.7617 37.0835C86.7617 30.0353 91.3402 25.4113 98.8388 25.4113C105.033 25.4113 109.389 28.9573 109.389 36.2315V38.1615V38.1598ZM103.373 34.165C103.373 31.6514 101.668 30.349 98.8388 30.349C96.0097 30.349 94.3498 31.6058 93.8099 34.5243H103.372V34.165H103.373Z" fill="#212121"/>
<path d="M112.216 37.8004H118.77C118.77 40.9871 120.073 43.0537 125.01 43.0537C129.948 43.0537 131.116 41.257 131.116 39.3727C131.116 38.1159 130.577 37.3078 129.41 36.9029C128.108 36.4542 125.056 36.0055 122.586 35.6461C119.668 35.1974 116.705 34.6137 115 33.4918C113.114 32.2789 112.127 30.214 112.127 27.3867C112.127 21.8196 116.481 17.9581 125.012 17.9581C134.395 17.9581 137.449 21.8635 137.449 28.5085H130.938C130.938 25.1413 129.187 23.3008 125.147 23.3008C121.107 23.3008 119.445 24.782 119.445 26.7574C119.445 28.1947 119.85 29.0028 120.882 29.4515C122.004 29.9458 125.103 30.4401 127.617 30.8433C130.938 31.3814 133.454 31.9213 135.203 32.8643C137.314 33.9861 138.435 36.0965 138.435 38.8801C138.435 43.909 135.606 48.398 125.058 48.398C114.509 48.398 112.218 43.2358 112.218 37.8021L112.216 37.8004Z" fill="#212121"/>
<path d="M141.668 16.8347H148.492V26.6209C148.492 27.4745 148.357 29.9881 148.222 31.6498H148.311C149.433 27.429 152.038 25.4096 157.065 25.4096C162.408 25.4096 165.864 28.3281 165.864 34.074V47.946H159.041V35.6007C159.041 32.4578 157.289 31.0661 154.238 31.0661C150.646 31.0661 148.492 33.1765 148.492 37.3956V47.946H141.668V16.8347Z" fill="#212121"/>
<path d="M168.65 36.9014C168.65 29.6743 173.409 25.408 180.727 25.408C188.046 25.408 192.805 29.6726 192.805 36.9014C192.805 44.1301 188.046 48.3053 180.727 48.3053C173.409 48.3053 168.65 44.0845 168.65 36.9014ZM185.979 36.9014C185.979 32.9504 184.049 30.6157 180.726 30.6157C177.402 30.6157 175.473 32.9504 175.473 36.9014C175.473 40.8523 177.402 43.0976 180.726 43.0976C184.049 43.0976 185.979 40.8084 185.979 36.9014Z" fill="#212121"/>
<path d="M195.901 25.7689H202.725L202.59 30.3035H202.636C203.489 27.25 206.317 25.4095 210.133 25.4095C216.329 25.4095 220.369 29.8092 220.369 36.3631C220.369 43.5463 216.329 48.3052 210.089 48.3052C206.049 48.3052 203.535 46.6436 202.546 43.9512H202.501C202.59 45.4323 202.725 47.6321 202.725 48.4402V56.8346H195.901V25.7689ZM213.589 36.633C213.589 33.0414 211.524 30.6173 208.427 30.6173C205.014 30.6173 202.725 33.087 202.725 36.8135V37.8004C202.725 40.9871 205.014 43.0975 208.471 43.0975C211.524 43.0975 213.589 40.4945 213.589 36.633Z" fill="#212121"/>
<path d="M234.015 18.4053H246.719C254.262 18.4053 258.796 21.9513 258.796 29.0906C258.796 35.6445 255.115 39.506 247.392 39.506H241.377V47.946H234.015V18.4053ZM247.079 34.5665C250.176 34.5665 251.881 32.9049 251.881 29.4482C251.881 25.9916 249.995 24.195 246.495 24.195H241.377V34.5649H247.079V34.5665Z" fill="#212121"/>
<path d="M261.626 16.8347H268.45V47.946H261.626V16.8347Z" fill="#212121"/>
<path d="M271.728 38.9223V25.7689H278.551V38.1142C278.551 41.2115 280.257 42.6488 283.175 42.6488C286.856 42.6488 289.056 40.2247 289.056 35.3763V25.7689H295.88V47.946H289.056C289.191 46.4193 289.326 44.5788 289.37 42.1546H289.281C288.294 46.4193 285.284 48.3053 281.065 48.3053C275.319 48.3053 271.728 45.4324 271.728 38.9223Z" fill="#212121"/>
<path d="M298.931 40.4945H305.037C305.037 42.5594 306.069 43.9056 309.974 43.9056C313.52 43.9056 314.777 42.8732 314.777 41.257C314.777 40.449 314.372 39.8197 313.207 39.5515C312.039 39.2816 310.244 39.1028 308.044 38.9223C304.858 38.6523 302.388 38.1597 301.04 37.2167C299.783 36.3193 298.93 34.7031 298.93 32.8626C298.93 28.0581 303.867 25.4095 310.018 25.4095C317.291 25.4095 320.612 28.1931 320.612 33.3552H314.597C314.551 31.0204 313.475 29.8092 310.108 29.8092C307.054 29.8092 305.708 30.8416 305.708 32.3683C305.708 33.3114 306.067 34.03 307.324 34.3438C308.446 34.6137 310.421 34.7925 312.802 35.0169C315.54 35.2868 317.471 35.555 319.131 36.4981C320.569 37.3061 321.601 38.9678 321.601 40.8977C321.601 45.5673 317.606 48.3052 310.018 48.3052C302.43 48.3052 298.93 44.9836 298.93 40.4945H298.931Z" fill="#212121"/>
</g>
<defs>
<clipPath id="clip0_2859_4061">
<rect width="313" height="72" fill="white" transform="translate(9 1)"/>
</clipPath>
</defs>
</svg>
