<svg width="330" height="74" viewBox="0 0 330 74" fill="none" xmlns="http://www.w3.org/2000/svg">
<g clip-path="url(#clip0_2859_4121)">
<path d="M158.143 45.2174C158.4 46.4877 159.144 47.6071 160.214 48.3376C161.404 48.9988 162.754 49.3165 164.113 49.2554C165.289 49.2411 166.46 49.1148 167.611 48.8783C168.917 48.6231 170.197 48.245 171.432 47.749C171.988 48.8122 172.431 49.9306 172.755 51.0858C173.135 52.3982 173.344 53.7544 173.375 55.1205C170.243 56.2939 166.926 56.896 163.581 56.898C161.318 56.9517 159.065 56.5868 156.935 55.8216C155.218 55.1897 153.67 54.1668 152.416 52.8336C151.231 51.5266 150.348 49.9739 149.832 48.2864C149.263 46.4209 148.984 44.479 149.005 42.5288C148.991 40.5753 149.282 38.6317 149.867 36.7678C150.397 35.0448 151.274 33.4484 152.444 32.0767C153.628 30.7253 155.096 29.6524 156.744 28.935C158.649 28.1271 160.704 27.7326 162.772 27.7775C164.516 27.7468 166.248 28.0767 167.859 28.7465C169.301 29.3573 170.597 30.2669 171.662 31.4153C172.734 32.5992 173.549 33.992 174.056 35.5062C174.622 37.1791 174.902 38.9356 174.883 40.7016C174.888 41.5732 174.844 42.4444 174.749 43.3109C174.66 44.0825 174.579 44.7191 174.506 45.2207L158.143 45.2174ZM162.442 34.6166C161.355 34.5941 160.3 34.978 159.482 35.693C158.581 36.5735 158.06 37.7707 158.028 39.0299H166.64C166.607 37.8844 166.201 36.7812 165.483 35.8881C165.106 35.4581 164.636 35.1204 164.109 34.901C163.581 34.6817 163.01 34.5866 162.44 34.6232L162.442 34.6166ZM194.57 32.6323C196.077 33.2441 197.431 33.8631 198.631 34.4892C199.775 35.0749 200.819 35.8378 201.725 36.7496C202.601 37.6574 203.277 38.739 203.709 39.9244C204.209 41.3687 204.446 42.8909 204.409 44.4188C204.437 46.182 204.099 47.9319 203.416 49.558C202.757 51.078 201.753 52.4237 200.483 53.4884C199.081 54.6421 197.462 55.5024 195.721 56.0183C193.618 56.6412 191.432 56.9406 189.239 56.9063C187.261 56.93 185.285 56.7499 183.344 56.3689C181.465 55.9575 179.62 55.3996 177.828 54.7005C177.99 53.3485 178.241 52.0089 178.582 50.6906C178.94 49.273 179.371 47.8289 179.873 46.3584C182.569 47.6472 185.498 48.3784 188.483 48.508C189.956 48.5847 191.425 48.3009 192.763 47.6812C193.269 47.4005 193.683 46.9793 193.955 46.4685C194.227 45.9576 194.345 45.379 194.296 44.8024C194.307 44.2895 194.193 43.7816 193.965 43.3225C193.754 42.9164 193.461 42.5593 193.103 42.2741C192.733 41.9805 192.326 41.7364 191.893 41.5482C191.444 41.3509 190.987 41.1624 190.52 40.9827L187.508 39.8533C186.28 39.417 185.098 38.8581 183.982 38.1849C182.97 37.5629 182.062 36.785 181.292 35.8799C180.528 34.982 179.935 33.9512 179.543 32.839C179.106 31.5391 178.897 30.1737 178.924 28.8027C178.892 27.0676 179.222 25.3448 179.893 23.7445C180.512 22.3121 181.442 21.0352 182.615 20.0059C183.846 18.9472 185.285 18.1586 186.84 17.6909C188.637 17.1495 190.506 16.8863 192.382 16.9105C194.163 16.9052 195.94 17.0853 197.684 17.4479C199.534 17.8492 201.357 18.3706 203.14 19.0088C202.97 20.2905 202.709 21.5586 202.36 22.8037C201.999 24.1433 201.522 25.449 200.934 26.706C200.003 26.3114 198.909 25.8986 197.652 25.4675C196.137 24.9991 194.556 24.7808 192.971 24.821C192.419 24.8199 191.869 24.8754 191.329 24.9863C190.84 25.0829 190.368 25.2553 189.932 25.4973C189.523 25.7288 189.181 26.0628 188.94 26.4663C188.675 26.9326 188.544 27.4631 188.563 27.9991C188.53 28.4392 188.606 28.8807 188.784 29.2845C188.962 29.6883 189.237 30.0419 189.585 30.3141C190.331 30.8508 191.145 31.2852 192.007 31.6055L194.57 32.6323ZM226.698 45.978H218.746V56.2052C217.815 56.3485 216.972 56.4587 216.216 56.5359C215.537 56.6092 214.854 56.6451 214.171 56.6434C213.559 56.6434 212.877 56.6076 212.126 56.5359C211.374 56.4642 210.547 56.354 209.645 56.2052V28.4257C210.417 28.2491 211.199 28.1232 211.987 28.0487C212.758 27.977 213.503 27.9412 214.221 27.9412C214.902 27.9412 215.637 27.977 216.426 28.0487C217.206 28.1189 217.98 28.2449 218.741 28.4257V37.8972H226.707V28.4257C227.478 28.2491 228.26 28.1232 229.048 28.0487C229.82 27.977 230.564 27.9412 231.282 27.9412C231.963 27.9412 232.698 27.977 233.488 28.0487C234.267 28.1189 235.041 28.2449 235.803 28.4257V56.2052C234.871 56.3485 234.028 56.4587 233.273 56.5359C232.593 56.6092 231.911 56.6451 231.227 56.6434C230.616 56.6434 229.934 56.6076 229.182 56.5359C228.43 56.4642 227.603 56.354 226.702 56.2052L226.698 45.978ZM240.489 42.4742C240.466 40.4396 240.765 38.4142 241.377 36.4735C241.919 34.7522 242.821 33.1657 244.022 31.8188C245.22 30.5058 246.702 29.4842 248.355 28.8325C250.26 28.1001 252.288 27.7441 254.329 27.7841C256.386 27.7414 258.432 28.0974 260.354 28.8325C262.008 29.4842 263.489 30.5058 264.687 31.8188C265.888 33.1658 266.79 34.7523 267.332 36.4735C267.944 38.4142 268.244 40.4396 268.22 42.4742C268.244 44.4742 267.944 46.4648 267.332 48.3691C266.785 50.064 265.883 51.6231 264.687 52.9428C263.487 54.2398 262.004 55.2434 260.354 55.8761C258.428 56.5933 256.384 56.94 254.329 56.898C252.291 56.9374 250.264 56.5907 248.355 55.8761C246.705 55.2434 245.223 54.2398 244.022 52.9428C242.829 51.6224 241.93 50.0633 241.385 48.3691C240.77 46.4648 240.468 44.4735 240.489 42.4725V42.4742ZM259.008 42.4742C259.117 40.6433 258.717 38.818 257.851 37.2011C257.482 36.6073 256.96 36.1241 256.34 35.8022C255.719 35.4804 255.023 35.3318 254.326 35.3722C253.631 35.3297 252.938 35.4775 252.322 35.7998C251.705 36.1221 251.188 36.6066 250.827 37.2011C249.98 38.8241 249.589 40.6466 249.697 42.4742C249.593 44.2846 249.983 46.0892 250.827 47.6944C251.188 48.2889 251.705 48.7734 252.322 49.0957C252.938 49.418 253.631 49.5658 254.326 49.5232C255.023 49.5636 255.719 49.4151 256.34 49.0932C256.96 48.7714 257.482 48.2881 257.851 47.6944C258.713 46.0952 259.114 44.2879 259.008 42.4742ZM281.773 42.8049C281.995 42.8462 282.22 42.8732 282.446 42.8859C282.715 42.9036 282.939 42.9124 283.119 42.9124C284.227 42.9581 285.318 42.6258 286.212 41.9699C286.649 41.5672 286.986 41.0681 287.196 40.5124C287.406 39.9567 287.484 39.3596 287.423 38.7686C287.457 38.2121 287.365 37.6551 287.156 37.1384C286.946 36.6217 286.624 36.1583 286.212 35.7823C285.382 35.0688 284.314 34.6909 283.22 34.7224H282.601C282.325 34.723 282.049 34.7407 281.774 34.7753L281.773 42.8049ZM272.893 28.5431C274.547 28.2918 276.242 28.1033 277.98 27.9776C279.717 27.8519 281.394 27.7891 283.011 27.7891C284.637 27.787 286.258 27.9403 287.854 28.2471C289.365 28.5256 290.809 29.092 292.106 29.9156C293.387 30.7506 294.434 31.8992 295.147 33.2524C295.984 34.9666 296.382 36.8623 296.304 38.7686C296.36 40.5491 296.001 42.3182 295.256 43.9359C294.611 45.2677 293.661 46.429 292.484 47.3257C291.318 48.1954 289.992 48.8264 288.582 49.1826C287.132 49.5591 285.64 49.7491 284.142 49.7481C283.53 49.7481 283.01 49.7305 282.581 49.6952C282.31 49.6826 282.04 49.6466 281.774 49.5877V56.2019C280.948 56.3663 280.113 56.4828 279.273 56.5508C278.537 56.6048 277.883 56.6318 277.308 56.6318C276.696 56.6318 276.042 56.6048 275.344 56.5508C274.522 56.48 273.704 56.3636 272.895 56.2019L272.893 28.5431Z" fill="#6133BD"/>
<path d="M85.185 58.4425C83.5987 58.4401 82.0412 58.018 80.6706 57.2192C79.3001 56.4204 78.1652 55.2732 77.3813 53.8941L51.8609 8.66506C51.4551 7.94843 50.8843 7.33883 50.1959 6.88682C49.5075 6.43481 48.7214 6.15341 47.9025 6.06594L35.6057 4.75782C35.1322 4.70738 34.6982 4.47104 34.399 4.10071C34.0998 3.73038 33.9599 3.25643 34.01 2.78298L34.0291 2.60399C34.0543 2.36936 34.1256 2.14201 34.2387 1.93491C34.3518 1.72782 34.5047 1.54503 34.6885 1.39704C34.8723 1.24905 35.0834 1.13876 35.3099 1.07242C35.5364 1.00608 35.7737 0.985032 36.0083 1.01046L48.303 2.31851C49.7196 2.47015 51.0796 2.95724 52.2704 3.73936C53.4612 4.52147 54.4483 5.57606 55.1502 6.81583L80.6685 52.0385C81.1527 52.8907 81.8682 53.5884 82.7323 54.051C83.5964 54.5136 84.5738 54.7221 85.5515 54.6525L117.996 52.2835C118.47 52.25 118.937 52.4057 119.297 52.7163C119.656 53.0269 119.878 53.4673 119.913 53.941L119.926 54.1199C119.959 54.5944 119.803 55.0628 119.492 55.4222C119.18 55.7817 118.739 56.0029 118.264 56.0373L85.8199 58.4063C85.6091 58.4306 85.3972 58.4427 85.185 58.4425Z" fill="#6133BD"/>
<path d="M110.77 37.1919C109.658 37.5456 108.806 38.549 107.545 38.5106C107.545 38.3503 107.594 38.1939 107.686 38.0625C107.778 37.9311 107.908 37.8309 108.058 37.7756C107.794 37.1365 108.463 37.0129 108.793 36.7488C109.185 35.6835 110.097 35.1233 110.625 34.1923C110.804 34.2264 110.785 34.0602 110.992 34.1219C112.505 32.6029 114.349 31.4185 115.979 30.0145C116.55 30.1828 116.812 29.4393 117.443 29.4265C115.971 32.5766 113.663 35.2625 110.77 37.1919Z" fill="#6133BD"/>
<path d="M125.577 14.5025H69.738C69.4069 14.5047 69.082 14.5918 68.7942 14.7555C68.5065 14.9192 68.2655 15.1541 68.0945 15.4376C67.9235 15.721 67.8281 16.0436 67.8174 16.3745C67.8067 16.7054 67.8812 17.0335 68.0336 17.3274L83.6177 47.1534C83.9644 47.8169 84.4905 48.3697 85.1361 48.7486C85.7818 49.1276 86.5209 49.3175 87.2692 49.2966L118.007 48.5062C118.991 48.4804 119.943 48.1554 120.737 47.5746C121.531 46.9937 122.129 46.1847 122.451 45.2552L130.658 21.633C130.939 20.8232 131.023 19.9578 130.902 19.109C130.78 18.2602 130.457 17.4529 129.96 16.7547C129.462 16.0564 128.805 15.4876 128.042 15.0957C127.279 14.7039 126.434 14.5004 125.577 14.5025ZM121.075 38.114C119.859 39.8656 118.288 41.3407 116.462 42.443C116.339 42.7002 116.164 42.9299 115.95 43.1184C115.735 43.3069 115.485 43.4503 115.214 43.5402C115.331 43.9173 114.483 43.7937 114.479 44.2752C113.861 44.435 113.452 44.3647 113.235 44.9356C112.17 44.9974 111.71 45.5151 110.738 45.2275C110.668 45.4022 110.423 45.4022 110.299 45.5236C110.086 45.4022 109.66 45.4682 109.564 45.2275C109.187 45.4107 108.199 45.3958 108.101 44.8654C107.579 45.0784 107.357 44.5159 106.852 44.4989C105.896 43.472 104.875 42.8734 104.509 41.1967C104.166 40.8088 103.959 40.3196 103.921 39.8035C103.132 38.8618 101.716 39.2623 100.256 39.143C99.3107 38.8599 98.3479 38.6379 97.3739 38.4783H97.2652L97.4484 38.3739C99.5061 38.5068 101.571 38.4954 103.627 38.3398C103.726 37.567 103.898 36.8052 104.14 36.0645C104.128 35.5135 104.227 34.9656 104.432 34.4539C104.568 34.2409 104.858 34.1514 105.02 33.9405C105.469 33.3525 105.732 32.6622 106.194 32.0231C106.918 31.0474 107.758 30.1995 108.537 29.2344C110.087 27.9983 111.703 26.8489 113.38 25.7916C113.757 25.5786 114.209 25.5275 114.477 25.1312C115.25 25.014 115.668 24.5325 116.394 24.6177C117.379 24.7306 118.052 25.8044 118.887 26.0813C119.16 26.1325 119.202 25.9535 119.475 26.0111C120.041 26.3772 120.441 26.9495 120.592 27.6063C120.742 28.2631 120.63 28.9526 120.28 29.5284C120.125 29.9012 119.735 30.2868 119.475 30.7725C119.106 31.6153 118.665 32.4244 118.156 33.1906C118.016 33.3653 117.775 33.4633 117.643 33.6337C117.14 34.2743 116.575 34.863 115.956 35.3913C113.68 36.3244 112.334 38.1843 110.016 39.0599C109.455 39.4452 108.866 39.7871 108.254 40.0825C107.698 39.9312 107.547 40.3701 107.227 40.2338C106.177 42.5773 110.817 42.4835 111.848 42.5773C112.913 42.3003 113.695 41.7251 114.777 41.4758C117.84 39.7947 120.738 37.8311 123.435 35.6107C122.757 36.5381 121.966 37.3769 121.079 38.1076L121.075 38.114Z" fill="#6133BD"/>
<path d="M87.3461 72.9997C89.8499 72.9997 91.8796 70.7067 91.8796 67.8781C91.8796 65.0496 89.8499 62.7566 87.3461 62.7566C84.8422 62.7566 82.8125 65.0496 82.8125 67.8781C82.8125 70.7067 84.8422 72.9997 87.3461 72.9997Z" fill="#6133BD"/>
<path d="M118.146 65.3641C118.425 62.5493 116.749 60.0787 114.403 59.8458C112.057 59.6128 109.928 61.7057 109.649 64.5204C109.369 67.3352 111.045 69.8058 113.391 70.0388C115.737 70.2717 117.866 68.1788 118.146 65.3641Z" fill="#6133BD"/>
</g>
<defs>
<clipPath id="clip0_2859_4121">
<rect width="262" height="72" fill="white" transform="translate(34 1)"/>
</clipPath>
</defs>
</svg>
