<svg width="330" height="74" viewBox="0 0 330 74" fill="none" xmlns="http://www.w3.org/2000/svg">
<path d="M93.1684 58.5468C91.5802 58.5428 90.0215 58.1182 88.6506 57.3162C87.2798 56.5143 86.1458 55.3636 85.364 53.9811L59.8545 8.67849C59.4495 7.96124 58.8793 7.35089 58.1912 6.89809C57.5032 6.4453 56.717 6.16313 55.8981 6.07495L43.6063 4.76439C43.1323 4.7135 42.6979 4.47651 42.3986 4.10548C42.0993 3.73444 41.9596 3.25975 42.0101 2.78573L42.0298 2.6063C42.0806 2.13232 42.3176 1.69794 42.6887 1.39864C43.0597 1.09933 43.5344 0.959589 44.0084 1.01015L56.2992 2.32068C57.7163 2.47322 59.0767 2.96161 60.2672 3.74528C61.4578 4.52894 62.4443 5.58526 63.1447 6.8266L88.6522 52.1303C89.1352 52.9837 89.8502 53.6828 90.7143 54.1463C91.5785 54.6099 92.5563 54.819 93.5345 54.7493L125.967 52.3777C126.442 52.3431 126.912 52.4984 127.272 52.8097C127.633 53.121 127.856 53.5627 127.891 54.0378L127.904 54.2172C127.939 54.6924 127.784 55.162 127.472 55.5227C127.161 55.8835 126.719 56.1059 126.244 56.1413L93.8118 58.5128C93.5967 58.5355 93.3822 58.5468 93.1684 58.5468Z" fill="#6133BD"/>
<path d="M118.726 37.1947C117.62 37.5494 116.759 38.5537 115.492 38.5176C115.483 38.0886 115.743 37.9319 116.008 37.7835C115.744 37.1473 116.412 37.0184 116.742 36.7524C117.134 35.6769 118.05 35.1242 118.58 34.1808C118.759 34.2138 118.74 34.0426 118.948 34.1107C120.462 32.5887 122.312 31.4019 123.943 29.9966C124.515 30.1667 124.773 29.4212 125.412 29.4067C123.938 32.5649 121.626 35.2581 118.727 37.1926L118.726 37.1947Z" fill="#6133BD"/>
<path d="M133.552 14.4836H77.6157C77.2829 14.4837 76.9557 14.5695 76.6658 14.7329C76.3758 14.8962 76.1328 15.1315 75.9603 15.4161C75.7877 15.7006 75.6914 16.0249 75.6807 16.3575C75.67 16.6902 75.7451 17.0199 75.8989 17.3151L91.5078 47.1882C91.8552 47.8524 92.3821 48.4058 93.0285 48.7853C93.6748 49.1648 94.4148 49.3553 95.1641 49.335L125.957 48.5421C126.942 48.5169 127.897 48.1918 128.693 47.6102C129.488 47.0286 130.088 46.2181 130.411 45.2869L138.63 21.6302C138.911 20.8204 138.995 19.955 138.873 19.1064C138.752 18.2578 138.429 17.4506 137.932 16.752C137.435 16.0535 136.779 15.4839 136.017 15.0907C135.255 14.6975 134.41 14.4922 133.553 14.4919L133.552 14.4836ZM129.041 38.1403C127.822 39.8939 126.246 41.3698 124.417 42.4709C124.294 42.7287 124.12 42.9589 123.906 43.148C123.692 43.337 123.442 43.4809 123.171 43.5711C123.289 43.9485 122.439 43.8258 122.437 44.3053C121.818 44.4661 121.406 44.395 121.191 44.9662C120.121 45.027 119.662 45.5477 118.69 45.259C118.62 45.4333 118.373 45.4333 118.252 45.556C118.032 45.4333 117.619 45.4993 117.517 45.259C117.14 45.4426 116.149 45.4292 116.049 44.895C115.525 45.1147 115.304 44.5465 114.805 44.5269C113.848 43.4958 112.822 42.8988 112.453 41.2202C112.109 40.8316 111.902 40.3413 111.863 39.8241C111.074 38.8806 109.649 39.2817 108.191 39.1631C107.244 38.8798 106.28 38.6576 105.304 38.4981H105.194L105.377 38.395C107.438 38.5282 109.505 38.5172 111.564 38.362C111.664 37.5886 111.837 36.8264 112.079 36.0853C112.066 35.5328 112.166 34.9833 112.372 34.4706C112.51 34.253 112.801 34.1685 112.962 33.955C113.411 33.3652 113.674 32.6672 114.137 32.0444C114.859 31.0679 115.704 30.2183 116.489 29.2522C118.04 28.0143 119.658 26.8629 121.336 25.8031C121.713 25.5969 122.166 25.5392 122.436 25.1422C123.209 25.0246 123.63 24.5431 124.346 24.6266C125.333 24.74 126.006 25.8165 126.837 26.0949C127.113 26.1465 127.153 25.9681 127.426 26.0248C127.993 26.3916 128.395 26.9651 128.546 27.6234C128.697 28.2817 128.585 28.9729 128.235 29.5501C128.078 29.9234 127.681 30.3101 127.426 30.7947C127.057 31.6403 126.615 32.4518 126.103 33.2198C125.965 33.3941 125.722 33.4962 125.588 33.6622C125.085 34.3036 124.519 34.8932 123.899 35.4223C121.622 36.3565 120.28 38.2207 117.95 39.0982C117.389 39.4838 116.799 39.8261 116.186 40.1221C115.633 39.9715 115.478 40.4097 115.155 40.2726C114.103 42.6132 118.752 42.5276 119.784 42.6245C120.854 42.3482 121.634 41.779 122.718 41.5182C125.786 39.8335 128.689 37.8659 131.391 35.6409C130.714 36.568 129.925 37.4075 129.041 38.1403Z" fill="#6133BD"/>
<path d="M95.3438 72.9996C97.8523 72.9996 99.8858 70.7025 99.8858 67.8688C99.8858 65.0352 97.8523 62.738 95.3438 62.738C92.8353 62.738 90.8018 65.0352 90.8018 67.8688C90.8018 70.7025 92.8353 72.9996 95.3438 72.9996Z" fill="#6133BD"/>
<path d="M126.153 65.3245C126.436 62.4907 124.751 60.002 122.389 59.7658C120.028 59.5296 117.883 61.6354 117.6 64.4691C117.317 67.3029 119.001 69.7916 121.363 70.0278C123.725 70.264 125.869 68.1582 126.153 65.3245Z" fill="#6133BD"/>
<mask id="mask0_2859_4120" style="mask-type:luminance" maskUnits="userSpaceOnUse" x="153" y="7" width="135" height="60">
<path d="M287.564 7.61523H153.782V66.3882H287.564V7.61523Z" fill="white"/>
</mask>
<g mask="url(#mask0_2859_4120)">
<path d="M162.092 33.327C162.327 34.4806 163.002 35.4973 163.973 36.1615C165.055 36.7623 166.283 37.05 167.518 36.9926C168.586 36.9797 169.65 36.8651 170.695 36.6503C171.882 36.4166 173.044 36.0714 174.166 35.6192C174.67 36.5856 175.071 37.6019 175.364 38.6516C175.709 39.8441 175.897 41.0762 175.925 42.3172C173.08 43.3829 170.067 43.9295 167.029 43.9309C164.974 43.9798 162.927 43.6484 160.993 42.9534C159.432 42.3797 158.026 41.4506 156.887 40.2395C155.811 39.0533 155.01 37.6443 154.541 36.1131C154.021 34.4188 153.765 32.6545 153.782 30.8823C153.769 29.109 154.033 27.3446 154.564 25.6525C155.048 24.0902 155.846 22.6432 156.909 21.4002C157.987 20.1713 159.323 19.1962 160.821 18.5451C162.552 17.8117 164.418 17.4536 166.297 17.4944C167.88 17.4664 169.453 17.7658 170.916 18.3739C172.222 18.9285 173.397 19.7532 174.362 20.7939C175.335 21.8681 176.075 23.1319 176.536 24.5059C177.053 26.0244 177.31 27.6193 177.295 29.2232C177.3 30.0154 177.259 30.8072 177.173 31.5948C177.091 32.2952 177.018 32.874 176.953 33.3311L162.092 33.327ZM166.003 23.7006C165.016 23.6802 164.058 24.0288 163.315 24.6781C162.497 25.4778 162.023 26.5651 161.995 27.7085H169.816C169.787 26.6663 169.418 25.662 168.765 24.8493C168.423 24.459 167.997 24.1525 167.518 23.9533C167.039 23.7542 166.52 23.6677 166.003 23.7006ZM195.183 21.8921C196.552 22.4461 197.782 23.0084 198.873 23.579C199.913 24.1107 200.861 24.8036 201.684 25.6319C202.483 26.4568 203.099 27.4404 203.493 28.519C203.947 29.8304 204.162 31.2127 204.128 32.6001C204.153 34.2018 203.845 35.7913 203.224 37.2679C202.624 38.6474 201.712 39.8685 200.559 40.8345C199.284 41.8829 197.812 42.6642 196.229 43.1318C194.318 43.6982 192.333 43.9708 190.341 43.9402C188.545 43.961 186.751 43.7969 184.988 43.4504C183.281 43.0766 181.606 42.5698 179.978 41.9347C180.125 40.7068 180.354 39.4901 180.663 38.2928C180.989 37.006 181.38 35.6944 181.836 34.3581C184.285 35.5312 186.945 36.1976 189.657 36.3172C190.995 36.3849 192.329 36.1248 193.544 35.5594C194.003 35.3043 194.379 34.9217 194.626 34.4578C194.874 33.9938 194.981 33.4683 194.937 32.9445C194.948 32.4805 194.848 32.0205 194.643 31.604C194.452 31.2351 194.186 30.9105 193.861 30.6513C193.525 30.3844 193.156 30.1626 192.762 29.9914C192.354 29.812 191.939 29.6401 191.515 29.4758L188.78 28.4437C187.664 28.0474 186.592 27.5396 185.578 26.928C184.651 26.37 183.818 25.6687 183.11 24.8503C182.414 24.0336 181.875 23.0958 181.519 22.0839C181.123 20.9033 180.933 19.6633 180.958 18.4183C180.928 16.8422 181.228 15.2774 181.837 13.8237C182.398 12.5224 183.242 11.3619 184.306 10.4262C185.425 9.46472 186.733 8.74882 188.146 8.32479C189.778 7.83277 191.476 7.59354 193.181 7.61539C194.798 7.61079 196.411 7.77459 197.995 8.10413C199.677 8.46878 201.334 8.94272 202.955 9.52293C202.8 10.6865 202.562 11.8377 202.244 12.9679C201.916 14.1845 201.482 15.3702 200.949 16.5118C200.101 16.1536 199.107 15.779 197.967 15.3879C196.591 14.9621 195.155 14.7636 193.715 14.8001C193.214 14.7979 192.714 14.847 192.224 14.9465C191.778 15.0341 191.349 15.1907 190.952 15.4105C190.58 15.6203 190.268 15.9234 190.048 16.2901C189.807 16.7139 189.689 17.196 189.706 17.6831C189.676 18.0826 189.745 18.4834 189.907 18.8499C190.069 19.2164 190.318 19.5374 190.634 19.7845C191.311 20.2722 192.051 20.6668 192.833 20.9579L195.183 21.8921ZM224.364 34.0117H217.13V43.2988C216.282 43.4294 215.517 43.5274 214.833 43.5927C214.149 43.658 213.53 43.6907 212.977 43.6907C212.423 43.6907 211.804 43.658 211.121 43.5927C210.437 43.5274 209.688 43.4294 208.872 43.2988V18.0759C209.572 17.9156 210.283 17.8013 210.998 17.7336C211.699 17.6683 212.375 17.6357 213.026 17.6357C213.645 17.6357 214.313 17.6683 215.03 17.7336C215.737 17.7974 216.44 17.9118 217.131 18.0759V26.6795H224.365V18.0759C225.066 17.9156 225.776 17.8013 226.491 17.7336C227.192 17.6683 227.868 17.6357 228.52 17.6357C229.138 17.6357 229.806 17.6683 230.523 17.7336C231.231 17.7974 231.933 17.9118 232.624 18.0759V43.2978C231.777 43.4284 231.011 43.5264 230.327 43.5917C229.643 43.657 229.025 43.6896 228.471 43.6896C227.917 43.6896 227.298 43.657 226.615 43.5917C225.932 43.5264 225.182 43.4284 224.366 43.2978L224.364 34.0117ZM236.878 30.8328C236.857 28.9855 237.129 27.1465 237.684 25.3844C238.175 23.8218 238.991 22.3809 240.079 21.1569C241.166 19.9635 242.512 19.0348 244.014 18.442C245.744 17.7767 247.586 17.4531 249.439 17.4892C251.308 17.4507 253.167 17.7746 254.914 18.443C256.415 19.0352 257.761 19.9632 258.849 21.1559C259.937 22.3799 260.753 23.8207 261.244 25.3834C261.798 27.1459 262.07 28.9852 262.048 30.8328C262.07 32.6491 261.797 34.4569 261.242 36.1863C260.747 37.7251 259.93 39.1412 258.846 40.3406C257.757 41.5187 256.41 42.4303 254.912 43.005C251.384 44.2439 247.539 44.2439 244.011 43.005C242.512 42.4303 241.166 41.5186 240.076 40.3406C238.993 39.1413 238.178 37.7256 237.683 36.1873C237.128 34.4579 236.856 32.649 236.878 30.8328ZM253.692 30.8328C253.792 29.1695 253.428 27.5112 252.641 26.0423C252.306 25.5029 251.832 25.064 251.268 24.772C250.705 24.48 250.072 24.3457 249.439 24.3832C248.808 24.3448 248.178 24.4793 247.618 24.7722C247.058 25.0651 246.588 25.5053 246.26 26.0454C245.488 27.519 245.131 29.175 245.229 30.8359C245.135 32.4812 245.491 34.121 246.26 35.579C246.588 36.1192 247.058 36.5595 247.618 36.8524C248.178 37.1453 248.808 37.2797 249.439 37.2411C250.072 37.2768 250.703 37.1412 251.265 36.8487C251.827 36.5562 252.301 36.1176 252.635 35.579C253.419 34.126 253.783 32.4838 253.687 30.8359L253.692 30.8328ZM274.368 31.1266C274.57 31.164 274.774 31.1884 274.979 31.1999C275.224 31.2163 275.428 31.2246 275.591 31.2246C276.597 31.2666 277.589 30.9652 278.401 30.3698C278.798 30.004 279.104 29.5505 279.295 29.0455C279.486 28.5406 279.556 27.998 279.501 27.4611C279.531 26.9555 279.448 26.4495 279.258 25.9801C279.068 25.5107 278.775 25.0898 278.401 24.7482C277.647 24.1051 276.68 23.7655 275.689 23.7955H275.128C274.874 23.7959 274.621 23.812 274.37 23.8439L274.368 31.1266ZM266.301 18.1718C267.801 17.9436 269.34 17.7718 270.921 17.6563C272.501 17.5408 274.024 17.4837 275.491 17.4851C276.967 17.482 278.44 17.6201 279.889 17.8976C281.262 18.1504 282.573 18.665 283.751 19.4133C284.914 20.1717 285.865 21.2148 286.512 22.4437C287.273 24.0007 287.634 25.7225 287.563 27.4538C287.614 29.0708 287.287 30.6773 286.61 32.1464C286.024 33.3561 285.162 34.4109 284.093 35.2253C283.034 36.0153 281.83 36.5886 280.549 36.9122C279.232 37.2549 277.877 37.4281 276.516 37.4277C275.961 37.4277 275.489 37.4116 275.098 37.3793C274.851 37.3678 274.606 37.335 274.365 37.2813V43.2957C273.615 43.4452 272.858 43.5512 272.096 43.6133C271.428 43.6621 270.833 43.6865 270.312 43.6865C269.758 43.6865 269.164 43.6621 268.529 43.6133C267.782 43.5488 267.039 43.4428 266.304 43.2957L266.301 18.1718Z" fill="#6133BD"/>
<path d="M165.672 65.8623C165.638 65.9936 165.562 66.1101 165.455 66.1933C165.348 66.2756 165.216 66.3189 165.081 66.316H163.951C163.815 66.3174 163.683 66.2731 163.576 66.1902C163.467 66.1096 163.391 65.9936 163.359 65.8623L161.24 58.0723L159.122 65.8623C159.091 65.9936 159.014 66.1096 158.906 66.1902C158.799 66.2729 158.667 66.3172 158.531 66.316H157.397C157.262 66.3189 157.13 66.2756 157.023 66.1933C156.916 66.1102 156.84 65.9937 156.806 65.8623L154.291 56.4153C154.258 56.3072 154.251 56.1926 154.271 56.0811C154.29 55.9696 154.336 55.8644 154.404 55.774C154.473 55.6854 154.563 55.6148 154.665 55.5683C154.767 55.5218 154.879 55.5007 154.992 55.5069H155.748C155.885 55.5045 156.018 55.5477 156.127 55.6296C156.236 55.713 156.312 55.8331 156.339 55.9678L158.184 63.1856L160.079 55.9678C160.111 55.8365 160.187 55.7205 160.296 55.6399C160.405 55.5564 160.539 55.5117 160.677 55.5131H161.873C162.009 55.5107 162.143 55.5539 162.252 55.6358C162.361 55.7193 162.436 55.8394 162.464 55.974L164.294 63.1917L166.132 55.974C166.16 55.8394 166.235 55.7194 166.344 55.6358C166.453 55.5539 166.586 55.5108 166.722 55.5131H167.479C167.592 55.507 167.704 55.5281 167.806 55.5746C167.908 55.6211 167.998 55.6916 168.067 55.7802C168.135 55.8706 168.181 55.976 168.2 56.0874C168.219 56.1989 168.212 56.3134 168.178 56.4215L165.672 65.8623Z" fill="#6133BD"/>
<path d="M171.473 63.3691C171.512 63.7813 171.711 64.1616 172.028 64.4281C172.339 64.6612 172.719 64.7828 173.108 64.7735C173.603 64.7758 174.092 64.6625 174.535 64.4425C174.648 64.3697 174.783 64.3392 174.916 64.3564C175.05 64.3736 175.172 64.4373 175.263 64.5363L175.516 64.7879C175.587 64.8517 175.644 64.9302 175.682 65.0179C175.719 65.1057 175.738 65.2007 175.735 65.2963C175.737 65.3893 175.714 65.4812 175.669 65.5627C175.624 65.6443 175.559 65.7127 175.48 65.7613C174.758 66.1688 173.935 66.3613 173.108 66.316C172.617 66.3448 172.126 66.273 171.664 66.1049C171.202 65.9369 170.779 65.6762 170.421 65.3388C170.063 65.0015 169.778 64.5946 169.583 64.1431C169.389 63.6916 169.288 63.2051 169.288 62.7133C169.288 62.2216 169.389 61.7351 169.583 61.2836C169.778 60.8322 170.063 60.4252 170.421 60.0879C170.779 59.7505 171.202 59.4898 171.664 59.3218C172.126 59.1537 172.617 59.0819 173.108 59.1107C173.575 59.09 174.041 59.1692 174.475 59.3432C174.908 59.5171 175.3 59.7816 175.623 60.1191C176.263 60.8279 176.599 61.7594 176.559 62.7133C176.562 62.8001 176.546 62.8863 176.514 62.9668C176.482 63.0474 176.433 63.1204 176.372 63.1815C176.309 63.2435 176.235 63.2922 176.153 63.3244C176.072 63.3567 175.984 63.3719 175.896 63.3691H171.473ZM174.175 60.9976C173.869 60.766 173.493 60.6443 173.109 60.6522C172.72 60.6428 172.34 60.7645 172.029 60.9976C171.875 61.1264 171.752 61.2889 171.671 61.4725C171.59 61.6561 171.552 61.856 171.56 62.0565H174.654C174.663 61.8551 174.625 61.6544 174.542 61.4704C174.46 61.2865 174.335 61.1245 174.178 60.9976" fill="#6133BD"/>
<path d="M184.315 65.2417C183.982 65.6027 183.574 65.886 183.119 66.0715C182.665 66.257 182.175 66.3402 181.684 66.3151C181.069 66.2583 180.482 66.0285 179.991 65.6521C179.994 65.74 179.979 65.8276 179.947 65.9095C179.915 65.9914 179.866 66.0657 179.804 66.1279C179.742 66.1901 179.668 66.2389 179.586 66.2711C179.504 66.3033 179.416 66.3182 179.328 66.3151H178.745C178.657 66.3182 178.569 66.3033 178.487 66.2711C178.405 66.2389 178.331 66.1901 178.269 66.1279C178.207 66.0657 178.158 65.9914 178.126 65.9095C178.093 65.8276 178.078 65.74 178.082 65.6521V56.1659C178.078 56.0788 178.092 55.9918 178.124 55.9105C178.155 55.8292 178.204 55.7554 178.265 55.6937C178.327 55.6321 178.401 55.5839 178.482 55.5523C178.563 55.5207 178.65 55.5063 178.737 55.5101H179.328C179.416 55.5072 179.503 55.522 179.585 55.5535C179.666 55.585 179.741 55.6327 179.804 55.6936C179.866 55.7551 179.915 55.8288 179.947 55.9101C179.979 55.9914 179.994 56.0785 179.991 56.1659V59.8696C180.231 59.6443 180.506 59.4606 180.806 59.3262C181.086 59.2139 181.384 59.1542 181.685 59.1499C182.177 59.1184 182.669 59.1994 183.125 59.3866C183.581 59.5739 183.988 59.8625 184.316 60.2305C184.941 60.9146 185.288 61.8078 185.288 62.7346C185.288 63.6613 184.941 64.5545 184.316 65.2386M181.606 60.6914C181.199 60.7046 180.811 60.8655 180.514 61.144C180.217 61.4226 180.031 61.7998 179.992 62.2051V63.3939C180.098 64.1721 180.638 64.6333 181.613 64.7777C181.899 64.7922 182.185 64.7443 182.45 64.6375C182.716 64.5306 182.955 64.3674 183.151 64.1589C183.347 63.9505 183.496 63.702 183.586 63.4305C183.677 63.159 183.707 62.871 183.675 62.5866C183.642 62.0646 183.409 61.5756 183.023 61.2222C182.637 60.8689 182.129 60.6787 181.606 60.6914Z" fill="#6133BD"/>
<path d="M191.145 65.8327C190.59 66.2063 189.933 66.4 189.264 66.3874C188.463 66.4128 187.671 66.2105 186.98 65.8038C186.901 65.755 186.834 65.6875 186.786 65.6072C186.739 65.5269 186.711 65.4362 186.706 65.3429C186.699 65.2485 186.712 65.1537 186.744 65.0647C186.776 64.9758 186.827 64.8948 186.894 64.8274L187.074 64.6211C187.176 64.5016 187.319 64.4259 187.475 64.4097C187.631 64.3936 187.787 64.4383 187.911 64.5345C188.248 64.7246 188.626 64.8307 189.013 64.8438C189.216 64.8813 189.425 64.8743 189.625 64.8234C189.825 64.7725 190.012 64.6789 190.173 64.549C190.263 64.4708 190.321 64.362 190.336 64.2435C190.35 64.1251 190.321 64.0054 190.252 63.9076C190.132 63.711 189.721 63.5735 189.02 63.4952C188.447 63.434 187.894 63.2497 187.399 62.9549C187.145 62.7722 186.945 62.5247 186.82 62.2384C186.694 61.952 186.648 61.6371 186.686 61.3267C186.67 61 186.737 60.6746 186.882 60.381C187.026 60.0875 187.242 59.8353 187.51 59.6481C188.006 59.278 188.606 59.0738 189.225 59.0645C189.767 59.0411 190.307 59.1219 190.818 59.3027C190.971 59.3726 191.118 59.4546 191.258 59.5481C191.336 59.5961 191.402 59.6623 191.45 59.7413C191.498 59.8203 191.526 59.9097 191.532 60.0018C191.54 60.0956 191.528 60.1901 191.497 60.279C191.466 60.3679 191.416 60.4491 191.351 60.5173L191.164 60.7236C191.115 60.7827 191.054 60.8314 190.986 60.8668C190.918 60.9022 190.843 60.9237 190.767 60.9298C190.609 60.9407 190.452 60.899 190.32 60.8112C190.076 60.6739 189.8 60.6028 189.52 60.605C189.331 60.5818 189.139 60.5967 188.956 60.6488C188.773 60.7009 188.602 60.789 188.454 60.9081C188.407 60.9438 188.369 60.9902 188.343 61.0435C188.318 61.0968 188.305 61.1553 188.306 61.2144C188.308 61.2735 188.323 61.3315 188.351 61.3834C188.379 61.4354 188.42 61.4799 188.468 61.5134C188.778 61.7248 189.134 61.8581 189.506 61.9021C190.141 61.9438 190.753 62.1553 191.278 62.5146C191.522 62.7321 191.709 63.0047 191.826 63.3096C191.943 63.6146 191.985 63.943 191.948 64.2675C191.96 64.5748 191.893 64.8799 191.753 65.1537C191.613 65.4274 191.404 65.6605 191.148 65.8306" fill="#6133BD"/>
<path d="M194.604 58.2527C194.467 58.2599 194.33 58.2401 194.201 58.1942C194.072 58.1484 193.953 58.0775 193.851 57.9857C193.673 57.8051 193.573 57.5618 193.573 57.3082C193.573 57.0547 193.673 56.8114 193.851 56.6308C193.95 56.5396 194.067 56.4691 194.194 56.4233C194.321 56.3774 194.455 56.3572 194.59 56.3637C194.727 56.3565 194.864 56.3764 194.993 56.4222C195.122 56.4681 195.241 56.539 195.343 56.6308C195.52 56.812 195.619 57.0551 195.619 57.3082C195.619 57.5614 195.52 57.8045 195.343 57.9857C195.243 58.0773 195.126 58.1481 194.999 58.1939C194.871 58.2398 194.736 58.2598 194.601 58.2527M194.306 66.316C194.218 66.319 194.13 66.3039 194.048 66.2717C193.967 66.2394 193.892 66.1907 193.83 66.1285C193.768 66.0663 193.719 65.992 193.687 65.9102C193.655 65.8284 193.64 65.7409 193.643 65.653V59.8087C193.639 59.7207 193.654 59.6331 193.687 59.5512C193.719 59.4694 193.768 59.395 193.83 59.3328C193.892 59.2706 193.966 59.2219 194.048 59.1897C194.13 59.1575 194.218 59.1425 194.306 59.1457H194.839C194.927 59.1426 195.014 59.1577 195.096 59.19C195.178 59.2222 195.252 59.271 195.314 59.3331C195.376 59.3953 195.425 59.4696 195.457 59.5514C195.49 59.6332 195.505 59.7208 195.502 59.8087V65.653C195.505 65.7409 195.49 65.8284 195.457 65.9102C195.425 65.992 195.376 66.0663 195.314 66.1285C195.252 66.1907 195.178 66.2394 195.096 66.2717C195.014 66.3039 194.927 66.319 194.839 66.316H194.306Z" fill="#6133BD"/>
<path d="M200.491 66.316C199.778 66.3527 199.078 66.1125 198.538 65.6458C198.3 65.424 198.112 65.1534 197.987 64.8526C197.863 64.5517 197.805 64.2276 197.816 63.9022V60.6521H197.363C197.275 60.6551 197.187 60.6401 197.105 60.6078C197.024 60.5756 196.949 60.5268 196.887 60.4647C196.825 60.4025 196.776 60.3282 196.744 60.2464C196.712 60.1646 196.697 60.077 196.7 59.9891V59.8159C196.693 59.6434 196.75 59.4745 196.859 59.3406C196.907 59.2806 196.968 59.2325 197.038 59.2C197.108 59.1675 197.185 59.1514 197.262 59.1529H197.816V57.7331C197.813 57.5743 197.871 57.4204 197.979 57.3041C198.086 57.1866 198.233 57.1131 198.392 57.0979L198.99 57.033C199.086 57.021 199.184 57.03 199.276 57.0591C199.369 57.0883 199.454 57.1371 199.526 57.2021C199.598 57.2667 199.655 57.3464 199.693 57.4354C199.731 57.5245 199.749 57.6208 199.746 57.7176V59.1519H200.199C200.287 59.1488 200.375 59.1639 200.457 59.1962C200.538 59.2284 200.613 59.2772 200.675 59.3393C200.737 59.4015 200.786 59.4758 200.818 59.5576C200.85 59.6394 200.865 59.727 200.862 59.8149V59.9881C200.869 60.1599 200.814 60.3285 200.708 60.4634C200.66 60.5236 200.599 60.5718 200.53 60.6044C200.46 60.637 200.384 60.653 200.308 60.6511H199.746V63.6124C199.746 64.3686 200.067 64.7466 200.711 64.7466L200.772 64.7642C200.798 64.7717 200.846 64.7886 200.916 64.8147C200.982 64.8394 201.046 64.8694 201.107 64.9044C201.167 64.9404 201.223 64.9841 201.273 65.0343C201.321 65.0829 201.356 65.1423 201.376 65.2075L201.455 65.4674C201.504 65.6268 201.488 65.7988 201.412 65.9469C201.376 66.0226 201.322 66.089 201.256 66.1409C201.19 66.1927 201.113 66.2287 201.03 66.2459C200.851 66.2887 200.667 66.3105 200.483 66.3108" fill="#6133BD"/>
<path d="M204.455 63.3691C204.494 63.7813 204.693 64.1616 205.01 64.4281C205.321 64.6612 205.702 64.7828 206.091 64.7735C206.586 64.7758 207.074 64.6625 207.518 64.4425C207.631 64.3697 207.766 64.3392 207.899 64.3564C208.032 64.3736 208.155 64.4373 208.246 64.5363L208.498 64.7879C208.569 64.8517 208.626 64.9302 208.664 65.0179C208.702 65.1057 208.72 65.2007 208.718 65.2963C208.719 65.3893 208.697 65.4812 208.652 65.5627C208.607 65.6443 208.542 65.7127 208.462 65.7613C207.741 66.1688 206.918 66.3613 206.091 66.316C205.6 66.3448 205.108 66.273 204.646 66.1049C204.184 65.9369 203.761 65.6762 203.403 65.3388C203.046 65.0015 202.761 64.5946 202.566 64.1431C202.371 63.6916 202.271 63.2051 202.271 62.7133C202.271 62.2216 202.371 61.7351 202.566 61.2836C202.761 60.8322 203.046 60.4252 203.403 60.0879C203.761 59.7505 204.184 59.4898 204.646 59.3218C205.108 59.1537 205.6 59.0819 206.091 59.1107C206.557 59.09 207.023 59.1692 207.457 59.3432C207.891 59.5171 208.282 59.7816 208.605 60.1191C209.245 60.8279 209.581 61.7594 209.542 62.7133C209.544 62.8001 209.529 62.8863 209.496 62.9668C209.464 63.0474 209.416 63.1204 209.354 63.1815C209.292 63.2435 209.218 63.2922 209.136 63.3244C209.054 63.3567 208.967 63.3719 208.879 63.3691H204.455ZM207.158 60.9976C206.851 60.766 206.476 60.6443 206.092 60.6522C205.703 60.6428 205.322 60.7645 205.011 60.9976C204.857 61.1264 204.735 61.2889 204.654 61.4725C204.572 61.6561 204.535 61.856 204.543 62.0565H207.636C207.645 61.8551 207.607 61.6544 207.525 61.4704C207.442 61.2865 207.318 61.1245 207.161 60.9976" fill="#6133BD"/>
</g>
</svg>
