<svg width="72" height="72" viewBox="0 0 72 72" fill="none" xmlns="http://www.w3.org/2000/svg">
<mask id="mask0_4760_2964" style="mask-type:luminance" maskUnits="userSpaceOnUse" x="0" y="0" width="72" height="72">
<path d="M72 0H0V72H72V0Z" fill="white"/>
</mask>
<g mask="url(#mask0_4760_2964)">
<path d="M71.982 34.0913C71.8827 29.0241 71.5567 24.0023 70.782 18.99C70.378 16.3725 69.7967 13.6779 68.942 11.1519C68.2233 9.03133 67.1747 6.76587 65.3718 5.3386C64.7349 4.83429 63.9608 4.37198 63.0496 3.95167C61.8124 3.38055 60.5313 2.90942 59.2189 2.5428C54.6151 1.25513 49.7945 0.678733 45.0389 0.325133L43.7163 0.2436C38.5045 -0.0840227 33.2772 -0.0811727 28.0657 0.252133C27.5952 0.294889 27.1233 0.319022 26.6501 0.324533C26.5605 0.325533 26.4779 0.367267 26.3793 0.3738C22.8229 0.637933 19.1441 1.09667 15.6385 1.83607C14.2076 2.13745 12.7942 2.51693 11.4047 2.9728C9.77367 3.508 8.1436 4.22173 6.75467 5.24327C6.35292 5.53376 5.98893 5.87323 5.67117 6.2538L5.24343 6.7638C5.15117 6.858 5.07538 6.96693 5.01915 7.086C5.01059 7.1042 5.00097 7.1218 4.98971 7.1384L4.61057 7.69747C3.6831 9.26413 3.0485 10.9895 2.55177 12.7495C2.12954 14.2469 1.7803 15.7613 1.50403 17.293C0.6971 21.7668 0.256698 26.3618 0.111298 30.8565C0.0715647 32.0813 0.0199649 33.2789 0.00763153 34.4907C-0.0427018 39.3807 0.152565 44.3001 0.694033 49.1623C0.718167 49.3811 0.7807 49.6423 0.797167 49.8932C0.815787 50.1754 0.843473 50.4565 0.880233 50.7367C1.3281 54.1812 1.95217 57.6408 3.08297 60.9339C3.5817 62.3855 4.21323 63.8065 5.09043 65.0498C6.14423 66.5442 7.6942 67.5367 9.40673 68.27C12.1389 69.44 15.1025 70.1373 18.0259 70.6293C21.1125 71.1493 24.2244 71.506 27.3485 71.6993C27.4395 71.7073 27.5307 71.71 27.6219 71.7073C27.6407 71.7073 27.6593 71.708 27.6779 71.7107L27.9751 71.75C29.1491 71.8147 30.3257 71.8927 31.5003 71.9313C35.6446 72.0667 39.7662 71.998 43.9054 71.7613C44.0055 71.7527 44.1051 71.738 44.2036 71.718C44.2239 71.714 44.2444 71.7113 44.2651 71.7107L44.6207 71.702C47.7833 71.5053 50.9333 71.1407 54.0571 70.6093C57.0837 70.0933 60.1881 69.3787 62.9882 68.088C64.4682 67.4053 65.8859 66.4752 66.8147 65.1831C67.498 64.2204 68.0587 63.1764 68.484 62.0751C69.568 59.3177 70.2473 56.3951 70.7153 53.4785C71.242 50.1804 71.5953 46.8569 71.774 43.5218C71.9507 40.2624 72.0407 37.0855 71.982 34.0913ZM2.12883 51.0118C2.1301 51.0113 2.13151 51.0113 2.13278 51.0118H2.13289C2.13344 51.0119 2.13323 51.0124 2.13268 51.0123C2.13139 51.012 2.13008 51.0119 2.12877 51.0118M2.76622 22.0281C2.76573 22.0276 2.76591 22.0273 2.76643 22.0278C2.76697 22.0283 2.76843 22.0303 2.76943 22.0313L2.76622 22.0281ZM27.6199 71.444C27.6209 71.444 27.6219 71.4447 27.6229 71.4447H27.6231C27.6239 71.4447 27.6238 71.4453 27.6229 71.4447C27.622 71.4447 27.6211 71.4447 27.6201 71.444M69.1553 49.8513C69.1547 49.8513 69.1547 49.8509 69.1547 49.8509H69.1593C69.158 49.851 69.1567 49.8511 69.1553 49.8513ZM69.1673 21.845C69.164 21.8461 69.1613 21.8465 69.158 21.8465H69.1573C69.1607 21.8465 69.164 21.846 69.1673 21.845ZM69.2107 50.6336C69.208 50.6359 69.2053 50.6379 69.2027 50.6397C69.2053 50.6378 69.208 50.6357 69.21 50.6335C69.21 50.6331 69.2107 50.6333 69.2107 50.6336Z" fill="url(#paint0_linear_4760_2964)"/>
<path d="M23.1511 56.4378C23.0726 56.4378 22.9753 56.4378 22.9811 56.4135C22.9941 56.2508 22.9997 56.0022 22.9997 55.7124C22.9997 54.8224 22.9511 53.5677 22.9137 53.3738C22.9137 53.3494 22.9026 53.3438 22.8971 53.3438C22.8915 53.3438 22.8615 53.3793 22.8615 53.3793C22.5664 54.0729 22.3165 54.7848 22.1134 55.5107C22.0947 55.5537 21.9434 55.5762 21.8592 55.5762C21.7671 55.5788 21.6757 55.5602 21.592 55.5218C21.592 55.4976 20.8909 53.5064 20.8051 53.3961C20.7941 53.3718 20.7809 53.3606 20.7753 53.3606C20.7696 53.3606 20.7642 53.3716 20.7566 53.4036C20.6725 54.0457 20.6363 54.6932 20.6482 55.3406C20.6425 55.6476 20.6525 55.9546 20.6781 56.2605C20.4929 56.3678 20.2804 56.4185 20.0668 56.4063C19.9928 56.41 19.9189 56.3979 19.85 56.3709C19.85 55.2322 20.08 52.8464 20.08 52.8464C19.9573 52.6624 19.8769 52.4536 19.8445 52.235C19.8422 52.2289 19.8422 52.2222 19.8445 52.2162C20.1045 52.1726 20.3678 52.1526 20.6313 52.1564C20.8033 52.1526 20.9752 52.1626 21.1455 52.1864C21.1941 52.2294 21.6913 53.6632 21.8241 54.0746C21.8241 54.0746 21.8371 54.1046 21.854 54.1046C21.8709 54.1046 21.8782 54.0914 21.8839 54.0671C22.1014 53.4209 22.3662 52.7916 22.6763 52.1844C22.9474 52.1342 23.2235 52.116 23.4987 52.1302C23.5715 52.1302 23.7961 52.1302 23.7961 52.1601C23.7565 52.407 23.6829 52.6474 23.5775 52.8742C23.5775 52.8742 23.7889 54.7943 23.7889 56.2713C23.5977 56.3893 23.3755 56.4472 23.1511 56.4376" fill="white"/>
<path d="M26.0911 55.7997V55.7886C26.0065 55.9278 25.8899 56.0448 25.7511 56.13C25.6123 56.2151 25.4552 56.266 25.2929 56.2785C24.7488 56.2785 24.6087 55.74 24.5656 55.2913C24.5656 55.2128 24.5545 55.0614 24.5545 54.8856C24.5466 54.4916 24.5648 54.0975 24.6089 53.7059C24.7605 53.6104 24.9386 53.5658 25.1173 53.5788C25.1173 53.5788 25.2559 53.5788 25.2873 53.6106C25.2873 53.6517 25.2517 54.1378 25.2517 54.5791C25.2517 54.7118 25.2517 54.8389 25.2627 54.953C25.2627 54.953 25.2627 55.4429 25.603 55.4429C25.917 55.4429 26.0984 55.0372 26.0927 54.983V54.7774C26.0927 54.3474 26.1115 53.6276 26.1301 53.5846C26.2816 53.4613 26.4734 53.3986 26.6684 53.4088C26.7201 53.4063 26.7717 53.4146 26.82 53.4331C26.82 53.4761 26.7714 54.4576 26.7714 55.1158C26.7663 55.2944 26.7744 55.4731 26.7956 55.6505C26.8088 55.8229 26.8647 55.9893 26.9583 56.1347C26.7823 56.3223 26.5434 56.4386 26.2872 56.4616C26.263 56.4616 26.1356 56.3046 26.1003 55.9288L26.0911 55.7997Z" fill="white"/>
<path d="M28.3548 55.1416C28.3548 55.3715 28.3548 55.5604 28.3659 55.6558C28.38 55.83 28.4407 55.9972 28.5416 56.1399C28.3656 56.3276 28.1267 56.4439 27.8705 56.4669C27.8463 56.4669 27.7189 56.3098 27.6836 55.934V55.2986C27.6836 54.6798 27.7078 54.0683 27.7078 53.1056C27.7078 52.4942 27.6836 52.3428 27.6836 52.2756C27.6836 52.2083 28.0349 52.0586 28.2445 52.0586C28.2961 52.0558 28.3479 52.0641 28.396 52.083C28.3849 52.1726 28.3661 53.2046 28.3661 53.6572C28.3661 54.1096 28.3547 54.562 28.3547 55.1416" fill="white"/>
<path d="M30.0671 52.9566C30.2181 52.9494 30.3695 52.9557 30.5194 52.9753C30.5194 53.2669 30.411 53.5025 30.3437 53.5025H30.0596C30.0596 53.9493 30.0485 54.4467 30.0485 54.8523C30.0485 55.2579 30.0485 55.5795 30.0672 55.7067C30.085 55.9025 30.1733 56.0853 30.3159 56.2209C30.232 56.3175 30.1291 56.3959 30.0137 56.4512C29.8983 56.5065 29.7728 56.5375 29.6448 56.5423C29.5667 56.4709 29.5038 56.3843 29.4601 56.2879C29.4164 56.1915 29.3927 56.0873 29.3906 55.9814C29.3776 55.8842 29.3776 55.6355 29.3776 55.3327C29.3776 54.6784 29.3906 53.7644 29.3963 53.5229H29.0579C29.0321 53.4557 29.0219 53.3834 29.028 53.3117C29.018 53.198 29.0367 53.0837 29.0823 52.9791L29.4038 52.966C29.4035 52.7741 29.3909 52.5824 29.3663 52.3921C29.3663 52.3061 29.7289 52.1733 29.9477 52.1733C29.9994 52.1708 30.051 52.1791 30.0993 52.1976C30.0931 52.2725 30.0819 52.5697 30.0671 52.9568" fill="white"/>
<path d="M31.3483 53.3623C31.3013 53.3648 31.2542 53.358 31.2097 53.3423C31.1653 53.3265 31.1244 53.3021 31.0894 53.2706C31.0543 53.2391 31.0259 53.2009 31.0056 53.1584C30.9853 53.1159 30.9736 53.0697 30.9711 53.0226C30.97 52.9987 30.9711 52.9748 30.9745 52.9511C30.9841 52.8425 31.0331 52.7413 31.1124 52.6665C31.1917 52.5917 31.2956 52.5486 31.4045 52.5454C31.4536 52.5452 31.5023 52.5547 31.5477 52.5734C31.5931 52.592 31.6344 52.6195 31.6693 52.6541C31.7041 52.6887 31.7317 52.7298 31.7507 52.7751C31.7696 52.8204 31.7795 52.869 31.7796 52.9181C31.7796 52.9292 31.7792 52.9403 31.7783 52.9511C31.7696 53.0605 31.721 53.1628 31.6417 53.2387C31.5624 53.3145 31.458 53.3585 31.3483 53.3623ZM31.7221 53.7363C31.7221 53.7662 31.7034 54.4693 31.7034 55.0263C31.6971 55.2347 31.7033 55.4431 31.7221 55.6507C31.7335 55.8235 31.7895 55.9903 31.8848 56.1349C31.7088 56.3225 31.4699 56.4389 31.2137 56.4619C31.1895 56.4619 31.0679 56.3049 31.0268 55.9291C31.0268 55.8505 31.0157 55.6505 31.0157 55.4019C31.0157 54.7775 31.0344 53.8576 31.0567 53.809C31.2057 53.7237 31.3773 53.6858 31.5483 53.7006C31.5483 53.7006 31.6924 53.708 31.7225 53.7435L31.7221 53.7363Z" fill="white"/>
<path d="M35.1746 56.4378C34.5412 55.1522 34.1063 53.7781 33.8848 52.3622C34.076 52.2515 34.2939 52.1952 34.5148 52.1996C34.5148 52.1996 34.642 52.1996 34.642 52.2184C34.8517 53.355 35.1646 54.4702 35.5767 55.55C35.5767 55.55 35.6141 55.6229 35.6422 55.6285C35.6702 55.6341 35.7038 55.5911 35.7095 55.5612C36.1159 54.6699 36.3772 53.7194 36.4833 52.7455C36.4833 52.6483 36.242 52.5043 36.1095 52.4913C36.1066 52.4778 36.1066 52.4638 36.1095 52.4502C36.1132 52.3346 36.142 52.2212 36.1938 52.1177C36.5604 52.0237 36.9368 51.9729 37.3152 51.9663C37.3152 51.9663 37.405 51.9794 37.405 51.9906C37.2006 53.4824 36.7806 54.9366 36.1582 56.3076C35.8727 56.4188 35.5669 56.4684 35.2609 56.4534C35.2313 56.457 35.2012 56.4517 35.1746 56.4382" fill="white"/>
<path d="M37.9341 55.0223C37.92 54.8242 37.9478 54.6253 38.0159 54.4387C38.0839 54.2521 38.1906 54.082 38.329 53.9396C38.4674 53.7971 38.6343 53.6855 38.8189 53.6121C39.0034 53.5386 39.2014 53.5051 39.3999 53.5136C39.4883 53.5025 39.578 53.509 39.6639 53.5326C39.7499 53.5562 39.8303 53.5966 39.9007 53.6512C39.971 53.706 40.0299 53.774 40.074 53.8515C40.118 53.929 40.1464 54.0144 40.1575 54.1028C40.1601 54.1263 40.162 54.1499 40.1625 54.1735C40.1167 54.4939 39.9749 54.793 39.7556 55.031C39.5363 55.269 39.2499 55.4349 38.9343 55.5066C38.9343 55.5421 39.0614 55.6712 39.3754 55.6712C39.6279 55.68 39.8785 55.6234 40.1027 55.5066C40.1063 55.5056 40.1101 55.5056 40.1137 55.5066C40.1248 55.5066 40.1303 55.5851 40.1303 55.6226C40.1342 55.8148 40.0815 56.004 39.9788 56.1666C39.7317 56.2826 39.4583 56.331 39.1864 56.3068C39.0161 56.3188 38.8452 56.2935 38.6857 56.2327C38.5261 56.1719 38.3817 56.0771 38.2625 55.9548C38.1433 55.8326 38.0522 55.6858 37.9955 55.5248C37.9387 55.3637 37.9179 55.1922 37.9341 55.0223ZM39.2651 54.0594C38.9381 54.0594 38.6407 54.4483 38.6407 54.9251C38.6407 54.9924 38.6407 55.0092 38.6649 55.0092C38.9191 55.0092 39.4518 54.6352 39.4518 54.2352C39.4529 54.2128 39.4496 54.1906 39.442 54.1695C39.4345 54.1485 39.4229 54.1292 39.4079 54.1126C39.3928 54.096 39.3747 54.0826 39.3545 54.0731C39.3343 54.0636 39.3124 54.0581 39.2901 54.057C39.2823 54.0566 39.2745 54.0568 39.2667 54.0574L39.2651 54.0594Z" fill="white"/>
<path d="M40.9419 54.0403C40.9294 53.9043 40.9395 53.7673 40.9718 53.6346C41.1331 53.5212 41.3262 53.4616 41.5234 53.4645C41.5777 53.4645 41.6504 53.4755 41.6504 53.4944C41.6504 53.5431 41.6318 53.6944 41.6318 53.8103C41.6318 53.9261 41.6318 53.9318 41.6504 53.9318C41.6691 53.9318 41.6692 53.9207 41.6692 53.9207C41.7608 53.8095 41.8747 53.7188 42.0036 53.6544C42.1324 53.59 42.2734 53.5533 42.4172 53.5468C43.1654 53.5468 43.191 54.5396 43.191 55.5753C43.191 55.9753 43.1724 56.2839 43.1724 56.2839C43.0134 56.3729 42.8326 56.4151 42.6507 56.4055C42.5828 56.406 42.5153 56.3959 42.4506 56.3756C42.49 56.0317 42.51 55.6859 42.5104 55.3399C42.5104 54.7527 42.4862 54.2929 42.1532 54.2929C41.7607 54.2929 41.6503 54.7228 41.6503 54.7228V55.4912C41.6592 55.7158 41.6511 55.9408 41.6261 56.1642C41.4387 56.2791 41.2214 56.3357 41.0018 56.3269C40.9531 56.3269 40.9121 56.3269 40.9121 56.3081C40.946 56.0109 40.9604 55.7117 40.955 55.4125C40.9609 54.9245 40.9422 54.3973 40.9422 54.0403" fill="white"/>
<path d="M46.2176 54.3472C46.2176 54.8072 46.2176 55.3886 46.2532 55.5699C46.2694 55.7478 46.3391 55.9166 46.4533 56.0541C46.2736 56.24 46.0324 56.3543 45.7747 56.3755C45.6554 56.252 45.5884 56.0872 45.5878 55.9156C45.5878 55.8968 45.5878 55.8968 45.5747 55.8968C45.5709 55.897 45.5673 55.898 45.564 55.9C45.5607 55.9019 45.558 55.9046 45.5561 55.908C45.4688 56.0253 45.3542 56.1196 45.2223 56.1828C45.0904 56.246 44.9451 56.2762 44.7989 56.2706C44.6729 56.26 44.5503 56.2247 44.4379 56.1667C44.3256 56.1086 44.2258 56.0291 44.1443 55.9325C44.0627 55.8359 44.0009 55.7242 43.9625 55.6038C43.9241 55.4833 43.9098 55.3564 43.9204 55.2305V55.2292C43.9093 55.0211 43.9392 54.8128 44.0085 54.6162C44.0779 54.4197 44.1853 54.2387 44.3245 54.0836C44.4638 53.9286 44.6323 53.8024 44.8203 53.7125C45.0083 53.6225 45.2122 53.5705 45.4203 53.5593C45.4655 53.557 45.5109 53.5563 45.5561 53.5578C45.5561 53.4905 45.545 53.0119 45.545 52.6623C45.5383 52.5306 45.5439 52.3985 45.5616 52.2678C45.7208 52.1386 45.9176 52.0644 46.1225 52.0566C46.1741 52.0541 46.2257 52.0624 46.274 52.0809C46.24 52.5859 46.2175 53.7412 46.2175 54.347M45.5632 54.1955C45.5632 54.1844 45.4716 54.1844 45.4716 54.1844C45.3659 54.1811 45.2605 54.1986 45.1615 54.236C45.0625 54.2733 44.9719 54.3298 44.8947 54.4022C44.8175 54.4746 44.7554 54.5616 44.7119 54.658C44.6683 54.7544 44.6441 54.8585 44.6408 54.9642C44.6397 54.9966 44.6406 55.029 44.6435 55.0613C44.6435 55.3398 44.7707 55.5698 45.0605 55.5698C45.4119 55.5698 45.5447 55.1585 45.5447 55.0856C45.5447 55.0128 45.5521 54.3415 45.5632 54.1882V54.1955Z" fill="white"/>
<path d="M47.148 54.9962C47.1427 54.5995 47.2952 54.217 47.5719 53.9328C47.8486 53.6486 48.2269 53.4859 48.6235 53.4806C48.6506 53.4803 48.678 53.4806 48.7051 53.4818C48.816 53.4824 48.9262 53.4988 49.0324 53.5304C49.042 53.5574 49.0458 53.586 49.0435 53.6146C49.042 53.6878 49.0358 53.7608 49.0248 53.8333C49.2443 53.9052 49.4326 54.0502 49.5581 54.2441C49.6837 54.438 49.7389 54.6692 49.7146 54.899C49.7434 55.2448 49.6336 55.588 49.4094 55.8529C49.1852 56.1178 48.8649 56.2828 48.5191 56.3117C48.4858 56.3144 48.4526 56.3159 48.4193 56.3161C48.246 56.3244 48.0729 56.2956 47.9116 56.2315C47.7503 56.1674 47.6046 56.0696 47.4842 55.9446C47.3638 55.8196 47.2715 55.6703 47.2135 55.5068C47.1555 55.3432 47.1332 55.169 47.148 54.9962ZM48.5594 54.3847H48.5111C48.5025 54.3595 48.4987 54.3328 48.5001 54.3062C48.5005 54.2472 48.506 54.1884 48.5167 54.1305C48.4173 54.1406 48.3209 54.1702 48.2329 54.2175C48.1449 54.2649 48.0671 54.3292 48.004 54.4066C47.9408 54.484 47.8935 54.5731 47.8649 54.6688C47.8361 54.7646 47.8265 54.865 47.8367 54.9644L47.838 54.9774C47.838 55.0372 47.838 55.7046 48.4195 55.7046C48.7036 55.7046 49.0196 55.4934 49.0196 54.9565C49.0196 54.4196 48.6867 54.3827 48.5597 54.3827L48.5594 54.3847Z" fill="white"/>
<path d="M52.0642 54.3117C52.0383 54.3064 52.0121 54.3027 51.9858 54.3005C51.8097 54.2944 51.6367 54.3479 51.4948 54.4524C51.353 54.5569 51.2507 54.7063 51.2044 54.8763V55.4092C51.2129 55.6587 51.2073 55.9085 51.1878 56.1573C50.9868 56.2776 50.7541 56.3343 50.5203 56.3199C50.4961 56.3199 50.4717 56.3199 50.4717 56.3012C50.509 55.9835 50.5233 55.6636 50.5145 55.3439C50.5145 54.8597 50.5035 54.3193 50.5035 53.9695C50.4945 53.8443 50.5026 53.7185 50.5277 53.5955C50.689 53.4821 50.882 53.4225 51.0792 53.4254C51.1336 53.4254 51.2063 53.4365 51.2063 53.4553C51.2063 53.5095 51.1898 53.7395 51.1898 53.8966C51.1874 53.9436 51.1911 53.9907 51.2008 54.0369C51.2119 54.0369 51.2119 54.0369 51.225 54.0237C51.3306 53.8814 51.4663 53.7642 51.6225 53.6805C51.7786 53.5968 51.9514 53.5487 52.1283 53.5395C52.1635 53.6109 52.1801 53.6899 52.1768 53.7695C52.1919 53.9571 52.1531 54.1453 52.0649 54.3117" fill="white"/>
<path d="M14.1069 43.3763C14.1935 43.808 14.4459 44.1886 14.8098 44.4364C15.2137 44.6603 15.6719 44.7677 16.1333 44.7467C16.5322 44.7414 16.9297 44.6982 17.3204 44.6178C17.764 44.5314 18.1984 44.403 18.6177 44.2344C18.8065 44.5954 18.9569 44.9751 19.0665 45.3674C19.1955 45.8132 19.2659 46.2738 19.276 46.7378C18.2125 47.1365 17.0861 47.3411 15.9503 47.3419C15.1816 47.3575 14.4166 47.2307 13.6939 46.9679C13.1106 46.7539 12.5851 46.4069 12.159 45.9546C11.7565 45.5108 11.4571 44.9834 11.2823 44.4103C10.9027 43.1337 10.906 41.7738 11.2917 40.499C11.4726 39.9151 11.7709 39.3743 12.1685 38.9099C12.5705 38.4495 13.0698 38.0842 13.6303 37.8404C14.2765 37.5664 14.9734 37.4326 15.6751 37.4478C16.2674 37.4374 16.8555 37.5494 17.4024 37.7769C17.8907 37.9843 18.3297 38.2927 18.6903 38.6819C19.0544 39.0838 19.3313 39.5567 19.5035 40.071C19.6961 40.6386 19.7915 41.2347 19.7859 41.834C19.7875 42.1301 19.7719 42.4259 19.739 42.7202C19.7091 42.982 19.6811 43.1988 19.6569 43.3688L14.1069 43.3763ZM15.5687 39.7773C15.1991 39.7723 14.8411 39.9057 14.5649 40.1512C14.2589 40.4501 14.0819 40.8567 14.0713 41.2842H16.9931C16.9825 40.8945 16.8447 40.5188 16.6007 40.2146C16.4739 40.067 16.3149 39.9507 16.136 39.8745C15.957 39.7983 15.7629 39.7644 15.5687 39.7754V39.7773ZM26.4746 39.1005C26.9869 39.3074 27.4468 39.5174 27.8544 39.7305C28.2431 39.9295 28.5977 40.1889 28.905 40.499C29.2042 40.8068 29.4349 41.1745 29.5818 41.5778C29.9301 42.6463 29.8943 43.8028 29.4807 44.8477C29.2566 45.3634 28.9155 45.8198 28.4844 46.1807C28.0083 46.5721 27.4584 46.8639 26.8674 47.0388C26.1535 47.2503 25.4116 47.3518 24.6672 47.3398C23.9958 47.3465 23.3255 47.2839 22.6671 47.1529C22.0302 47.0151 21.4051 46.8276 20.7977 46.5921C20.8527 46.1331 20.9382 45.6785 21.0537 45.2309C21.1783 44.7498 21.3241 44.2593 21.4911 43.7595C22.4065 44.1975 23.4009 44.4461 24.4147 44.4905C24.9147 44.5161 25.4132 44.4191 25.8672 44.2082C26.0391 44.1128 26.1797 43.9697 26.2723 43.7962C26.3648 43.6228 26.4053 43.4263 26.3889 43.2304C26.3934 43.0563 26.3556 42.8837 26.2787 42.7275C26.2076 42.5893 26.1083 42.4677 25.987 42.3705C25.8613 42.2706 25.7231 42.1876 25.5759 42.1236C25.4239 42.0563 25.2687 41.994 25.1104 41.9367L24.0879 41.5534C23.6711 41.4072 23.2703 41.2193 22.8913 40.9925C22.5445 40.7842 22.2329 40.5224 21.9679 40.2167C21.7082 39.912 21.5067 39.5622 21.3735 39.1846C21.2256 38.7432 21.1547 38.2797 21.1639 37.8143C21.1528 37.225 21.2649 36.6399 21.493 36.0964C21.7027 35.6103 22.0174 35.1766 22.4147 34.8266C22.8324 34.4675 23.3209 34.2001 23.8484 34.0415C24.4581 33.8577 25.0923 33.7681 25.7289 33.7759C26.3339 33.7753 26.9372 33.838 27.5291 33.9628C28.1582 34.0991 28.7777 34.2765 29.3835 34.4938C29.3254 34.9289 29.2367 35.3593 29.1181 35.7819C28.9953 36.2369 28.8333 36.6805 28.6339 37.1075C28.3171 36.9729 27.9433 36.8327 27.5123 36.6868C26.998 36.5282 26.4613 36.4543 25.9233 36.4681C25.7351 36.4669 25.5471 36.4851 25.3625 36.5223C25.1961 36.555 25.0359 36.6136 24.8876 36.6961C24.7482 36.7746 24.6316 36.8881 24.5492 37.0252C24.4597 37.1834 24.4157 37.3633 24.4221 37.545C24.411 37.6944 24.4369 37.8442 24.4975 37.9812C24.5582 38.1182 24.6517 38.2381 24.7699 38.3302C25.0232 38.5123 25.2998 38.6595 25.5923 38.768L26.4746 39.1005ZM37.3806 43.6324H34.6755V47.1042C34.3588 47.1528 34.0728 47.1897 33.8175 47.2146C33.5623 47.2395 33.3311 47.2521 33.1241 47.2521C32.9172 47.2521 32.6861 47.2396 32.4306 47.2146C32.1746 47.1903 31.8959 47.1548 31.5895 47.1042V37.6758C31.8519 37.6154 32.1179 37.5724 32.3859 37.5468C32.6475 37.5218 32.8999 37.5094 33.1431 37.5094C33.3864 37.5094 33.6356 37.5218 33.8909 37.5468C34.1553 37.5709 34.4178 37.614 34.6761 37.6758V40.8914H37.3811V37.6758C37.6429 37.6156 37.9083 37.5724 38.1757 37.5468C38.4373 37.5218 38.6903 37.5094 38.9349 37.5094C39.1795 37.5094 39.4289 37.5218 39.6829 37.5468C39.9475 37.5709 40.2099 37.614 40.4681 37.6758V47.1042C40.1517 47.1528 39.8657 47.1897 39.6101 47.2146C39.3798 47.2384 39.1483 47.2503 38.9167 47.2501C38.7098 47.2501 38.4787 47.2376 38.2232 47.2127C37.9677 47.1877 37.6874 47.1509 37.3821 47.1023L37.3806 43.6324ZM42.054 42.4452C42.046 41.7543 42.1476 41.0664 42.355 40.4073C42.5387 39.8235 42.8439 39.2852 43.2505 38.8277C43.6565 38.3818 44.1591 38.0345 44.7199 37.8125C45.3666 37.5642 46.0553 37.4435 46.7479 37.4573C47.4468 37.4426 48.1419 37.5632 48.7949 37.8125C49.3563 38.0343 49.8595 38.3816 50.2661 38.8277C50.6727 39.2851 50.9779 39.8234 51.1615 40.4071C51.3689 41.0663 51.4704 41.7541 51.4625 42.445C51.4703 43.1237 51.3687 43.7992 51.1615 44.4456C50.9765 45.021 50.6712 45.5506 50.2661 45.9992C49.8586 46.4398 49.3553 46.7807 48.795 46.9958C48.1407 47.2396 47.4461 47.3575 46.748 47.3435C46.0561 47.3566 45.3679 47.2386 44.7199 46.9958C44.1601 46.7807 43.6573 46.4398 43.2505 45.9992C42.8453 45.5507 42.5401 45.021 42.3551 44.4456C42.1477 43.7993 42.0461 43.1237 42.0541 42.445M48.3391 42.445C48.3765 41.8232 48.2407 41.2031 47.9466 40.6539C47.8215 40.4521 47.6444 40.2879 47.4339 40.1783C47.2233 40.0687 46.9871 40.0179 46.7501 40.0313C46.5143 40.0172 46.2791 40.0677 46.07 40.1775C45.8608 40.2871 45.6855 40.4519 45.5631 40.6539C45.2755 41.2052 45.1431 41.8243 45.1799 42.445C45.1443 43.0596 45.2767 43.6724 45.5631 44.2174C45.6857 44.4191 45.8611 44.5835 46.0703 44.6929C46.2795 44.8022 46.5145 44.8524 46.7501 44.8381C46.9869 44.8519 47.2231 44.8015 47.4337 44.6923C47.6443 44.5831 47.8215 44.419 47.9466 44.2174C48.2393 43.6745 48.3752 43.0608 48.3391 42.445ZM56.0671 42.5554C56.1425 42.5696 56.2186 42.579 56.2951 42.5834H56.5231C56.8994 42.5992 57.2699 42.4865 57.5737 42.2637C57.7219 42.1271 57.8363 41.9578 57.9076 41.7692C57.979 41.5806 58.0054 41.378 57.9849 41.1775C57.996 40.9886 57.9649 40.7997 57.8937 40.6244C57.8226 40.4491 57.7133 40.2919 57.5737 40.1643C57.2915 39.9245 56.9305 39.7979 56.5605 39.809H56.3549C56.2605 39.8095 56.1663 39.8157 56.0727 39.8277L56.0671 42.5554ZM53.0536 37.713C53.6145 37.628 54.1903 37.5657 54.7809 37.5261C55.3714 37.4864 55.9403 37.4652 56.4876 37.4626C57.0396 37.4618 57.5905 37.5138 58.1326 37.6177C58.6451 37.7104 59.135 37.9009 59.5755 38.1788C60.0104 38.4624 60.3657 38.8524 60.6075 39.3118C60.8602 39.8814 60.9937 40.4967 60.9998 41.1198C61.0059 41.7429 60.8844 42.3607 60.6428 42.9351C60.4261 43.3871 60.1059 43.7817 59.7081 44.0868C59.3127 44.3818 58.8629 44.5959 58.3847 44.7169C57.8923 44.8429 57.386 44.9057 56.8779 44.9038C56.7013 44.9081 56.5246 44.9018 56.3488 44.885C56.2563 44.8806 56.1644 44.8681 56.0741 44.8476V47.0912C55.7938 47.1477 55.5104 47.1876 55.2254 47.2108C54.9763 47.2296 54.7545 47.2389 54.56 47.2389C54.3656 47.2389 54.1431 47.2296 53.8926 47.2108C53.6133 47.1866 53.3356 47.1467 53.0608 47.0912L53.0536 37.713Z" fill="white"/>
<path d="M56.0711 15.9249V31.2333C56.0711 31.3547 56.0228 31.4712 55.9369 31.5571C55.851 31.6431 55.7345 31.6913 55.6131 31.6913H53.2314L52.4649 33.0712V18.3067L48.1094 21.1466L46.356 20.0023L46.2345 19.9239L44.5985 18.8563L43.7499 18.2955V27.4566L46.3577 29.0193V23.1043L48.1112 24.2485L49.861 23.1081V31.6819H40.3105C40.1892 31.6814 40.073 31.6329 39.9873 31.5471C39.9015 31.4613 39.8531 31.3451 39.8525 31.2238V15.9249C39.8525 15.8034 39.9008 15.6869 39.9867 15.601C40.0726 15.5151 40.1891 15.4668 40.3105 15.4668H55.617C55.7385 15.4668 55.8549 15.5151 55.9408 15.601C56.0267 15.6869 56.0749 15.8034 56.0749 15.9249H56.0711Z" fill="white"/>
</g>
<defs>
<linearGradient id="paint0_linear_4760_2964" x1="-1.99277e-08" y1="-1.99277e-08" x2="72" y2="72" gradientUnits="userSpaceOnUse">
<stop stop-color="#FFBD69"/>
<stop offset="1" stop-color="#FF6363"/>
</linearGradient>
</defs>
</svg>
