<svg width="330" height="74" viewBox="0 0 330 74" fill="none" xmlns="http://www.w3.org/2000/svg">
<path d="M131.698 36.3413C132.158 38.0543 132.962 39.2661 134.112 39.9767C135.261 40.6873 136.775 41.0426 138.656 41.0426C140.025 41.0261 141.389 40.8792 142.73 40.6037C144.252 40.3061 145.742 39.8653 147.181 39.2873C147.826 40.5257 148.341 41.8281 148.717 43.1733C149.159 44.7027 149.402 46.283 149.438 47.8747C145.789 49.2409 141.925 49.9415 138.029 49.9431C135.02 49.9431 132.44 49.5253 130.288 48.6897C128.136 47.8541 126.381 46.6945 125.023 45.2107C123.642 43.6883 122.615 41.8799 122.014 39.9147C121.348 37.742 121.021 35.4798 121.043 33.2075C121.026 30.9331 121.364 28.67 122.045 26.4997C122.666 24.496 123.69 22.6403 125.054 21.0463C126.434 19.4687 128.146 18.2164 130.068 17.3794C132.073 16.481 134.414 16.0318 137.088 16.0318C139.303 16.0318 141.277 16.4079 143.012 17.16C144.687 17.8707 146.193 18.9281 147.431 20.2625C148.679 21.641 149.629 23.263 150.22 25.0265C150.882 26.9738 151.21 29.0188 151.191 31.0753C151.197 32.0908 151.145 33.1059 151.034 34.1154C150.93 35.0138 150.836 35.7556 150.752 36.3407L131.698 36.3413ZM136.713 23.9924C135.448 23.9662 134.218 24.4133 133.265 25.2462C132.304 26.0815 131.74 27.3768 131.573 29.1321H141.602C141.518 27.6698 141.069 26.4476 140.254 25.4654C139.438 24.4833 138.258 23.9923 136.713 23.9924ZM174.134 21.6731C175.889 22.3837 177.466 23.1045 178.866 23.8356C180.199 24.5176 181.416 25.4063 182.471 26.4685C183.495 27.5252 184.285 28.7852 184.79 30.1668C185.334 31.6085 185.605 33.3532 185.605 35.4012C185.637 37.4552 185.242 39.4934 184.445 41.387C183.677 43.1564 182.507 44.7227 181.029 45.9622C179.525 47.2367 177.676 48.2187 175.482 48.9082C173.288 49.5978 170.77 49.9425 167.929 49.9425C165.625 49.9697 163.325 49.7597 161.065 49.3158C158.876 48.8367 156.728 48.1872 154.641 47.3732C154.829 45.7987 155.122 44.2386 155.518 42.7034C155.936 41.0527 156.437 39.3708 157.022 37.6574C160.867 39.3286 164.21 40.1642 167.051 40.1642C169.183 40.1642 170.844 39.8406 172.034 39.1935C173.225 38.5463 173.821 37.4282 173.823 35.8391C173.838 35.2427 173.709 34.6514 173.446 34.116C173.201 33.6426 172.859 33.2262 172.443 32.8936C172.012 32.5513 171.538 32.2668 171.033 32.0474C170.51 31.8176 169.977 31.5982 169.434 31.3892L165.923 30.0728C164.493 29.5647 163.117 28.9137 161.818 28.1296C160.629 27.414 159.56 26.5146 158.652 25.4649C157.762 24.419 157.072 23.2185 156.616 21.9232C156.135 20.586 155.895 19.0189 155.895 17.2218C155.895 15.007 156.271 13.043 157.023 11.3297C157.743 9.6613 158.824 8.17346 160.188 6.97354C161.621 5.74089 163.298 4.82271 165.108 4.27833C167.202 3.64775 169.379 3.34124 171.565 3.36946C173.639 3.36363 175.708 3.57369 177.739 3.99625C179.897 4.4635 182.022 5.07089 184.101 5.81457C183.903 7.30712 183.599 8.78382 183.192 10.2337C182.772 11.794 182.216 13.3148 181.531 14.7788C180.445 14.3191 179.17 13.8385 177.708 13.337C176.245 12.8355 174.427 12.5848 172.254 12.5849C171.612 12.5823 170.972 12.6453 170.342 12.773C169.772 12.8855 169.222 13.0863 168.713 13.3684C168.235 13.6374 167.835 14.0262 167.553 14.4965C167.244 15.04 167.093 15.6584 167.114 16.2831C167.114 17.4953 167.511 18.3937 168.305 18.9783C169.174 19.6033 170.123 20.109 171.126 20.482L174.134 21.6731ZM211.556 37.2185H202.278V49.1283C201.192 49.2954 200.21 49.4207 199.332 49.5042C198.455 49.5877 197.661 49.6294 196.95 49.6294C196.24 49.6294 195.446 49.5877 194.568 49.5042C193.691 49.4207 192.73 49.2954 191.685 49.1283V16.784C192.583 16.5784 193.494 16.4318 194.412 16.3451C195.31 16.2616 196.177 16.2199 197.013 16.2199C197.807 16.2199 198.664 16.2616 199.583 16.3451C200.491 16.4269 201.391 16.5735 202.278 16.784V27.8157H211.556V16.7837C212.454 16.578 213.365 16.4314 214.282 16.3447C215.181 16.2612 216.048 16.2195 216.884 16.2195C217.677 16.2195 218.534 16.2612 219.453 16.3447C220.361 16.4265 221.262 16.5732 222.148 16.7837V49.1283C221.062 49.2954 220.08 49.4207 219.202 49.5042C218.325 49.5877 217.531 49.6292 216.82 49.6287C216.11 49.6287 215.316 49.5869 214.438 49.5034C213.561 49.4199 212.6 49.2946 211.555 49.1275L211.556 37.2185ZM227.602 33.1441C227.575 30.7745 227.924 28.4156 228.637 26.1554C229.266 24.1513 230.313 22.3033 231.708 20.7334C233.103 19.2037 234.829 18.0136 236.754 17.2542C238.76 16.4393 241.079 16.0318 243.712 16.0318C246.386 16.0318 248.726 16.4393 250.732 17.2542C252.658 18.0135 254.384 19.2035 255.778 20.733C257.174 22.3031 258.221 24.1512 258.85 26.1554C259.562 28.416 259.911 30.7753 259.884 33.1453C259.911 35.4739 259.562 37.7917 258.85 40.0089C258.215 41.9826 257.168 43.7987 255.778 45.3369C254.38 46.847 252.654 48.0155 250.732 48.752C248.726 49.5461 246.386 49.9431 243.712 49.9431C241.079 49.9431 238.76 49.5461 236.754 48.752C234.832 48.0152 233.106 46.8463 231.708 45.3358C230.318 43.7973 229.271 41.9809 228.636 40.007C227.924 37.79 227.575 35.4725 227.603 33.1441H227.602ZM249.165 33.1441C249.165 30.4697 248.716 28.422 247.818 27.0009C246.919 25.5798 245.551 24.8692 243.712 24.8691C241.873 24.8691 240.515 25.5797 239.637 27.0009C238.76 28.4221 238.321 30.4702 238.321 33.1453C238.321 35.7779 238.76 37.8046 239.637 39.2255C240.515 40.6463 241.873 41.3569 243.712 41.3573C245.551 41.3573 246.919 40.6467 247.818 39.2255C248.716 37.8043 249.165 35.7771 249.165 33.1441ZM275.679 33.52C275.938 33.568 276.2 33.5994 276.463 33.6141C276.777 33.635 277.038 33.6455 277.247 33.6455C278.709 33.6455 279.911 33.2798 280.851 32.5485C281.791 31.8173 282.261 30.5741 282.261 28.819C282.261 27.3146 281.791 26.155 280.851 25.3402C279.911 24.5254 278.751 24.118 277.373 24.118H276.652C276.327 24.1188 276.003 24.1397 275.681 24.1806L275.679 33.52ZM265.338 16.9093C267.26 16.6174 269.235 16.3985 271.261 16.2526C273.288 16.1067 275.242 16.0335 277.122 16.0331C279.015 16.0304 280.905 16.2089 282.764 16.5661C284.523 16.89 286.204 17.5493 287.715 18.5081C289.207 19.4808 290.426 20.8186 291.256 22.3947C292.155 24.0453 292.604 26.1872 292.604 28.8204C292.604 31.2024 292.197 33.2083 291.382 34.8379C290.631 36.3896 289.525 37.7425 288.154 38.7869C286.796 39.7996 285.252 40.5343 283.609 40.9492C281.921 41.3875 280.183 41.6087 278.438 41.6074C277.727 41.6074 277.121 41.5865 276.62 41.5448C276.303 41.53 275.989 41.488 275.679 41.4193V49.1292C274.717 49.3211 273.743 49.4572 272.765 49.5367C271.908 49.5994 271.146 49.6308 270.477 49.6308C269.766 49.6308 269.004 49.5994 268.189 49.5367C267.232 49.4537 266.28 49.3175 265.338 49.1287V16.9093Z" fill="url(#paint0_linear_2859_4113)"/>
<path d="M176.019 72.3303C176.019 68.6148 175.486 63.7878 175.486 63.7878C175.638 63.4985 176.034 62.3717 176.034 61.991C176.034 61.9301 175.47 61.9149 175.288 61.9149C173.993 61.9149 173.263 62.0062 173.217 62.0519C172.821 62.4478 171.344 66.3917 171.222 66.7876C171.207 66.8485 171.176 66.8789 171.146 66.8789C171.1 66.8789 171.07 66.8028 171.07 66.8028C170.735 65.7674 169.486 62.1585 169.364 62.0519C169.303 61.991 168.253 61.9758 168.07 61.9758C167.461 61.9758 166.167 62.0519 166.09 62.1281C166.08 62.1409 166.074 62.1572 166.075 62.1737C166.158 62.7239 166.36 63.249 166.669 63.7117C166.669 63.7117 166.09 69.7112 166.09 72.5739C166.265 72.6427 166.452 72.6739 166.639 72.6653C167.004 72.6653 167.857 72.6044 168.177 72.2998C168.111 71.5302 168.086 70.7576 168.1 69.9853C168.1 68.2798 168.177 66.1176 168.375 65.1126C168.39 65.0365 168.405 65.006 168.42 65.006C168.435 65.006 168.466 65.0365 168.496 65.0974C168.71 65.3715 170.461 70.3812 170.476 70.4421C170.506 70.503 170.918 70.5792 171.146 70.5792C171.359 70.5792 171.74 70.5182 171.785 70.4117C171.785 70.4117 172.988 66.3155 173.689 65.0517C173.689 65.0517 173.735 64.9603 173.78 64.9603C173.795 64.9603 173.811 64.9755 173.826 65.0365C173.917 65.5237 174.039 68.6758 174.039 70.9141C174.039 71.6451 174.024 72.2694 173.993 72.6805C173.978 72.7414 174.222 72.7414 174.42 72.7414C175.196 72.7414 176.019 72.4369 176.019 72.3303ZM181.835 71.4623C181.912 72.4064 182.231 72.8023 182.292 72.8023C182.932 72.8023 183.982 72.1628 183.982 71.9801C183.748 71.6138 183.607 71.1955 183.571 70.7619C183.519 70.3172 183.499 69.8694 183.51 69.4219C183.51 67.7469 183.632 65.2801 183.632 65.1735C183.511 65.1274 183.381 65.1067 183.252 65.1126C182.566 65.1126 181.988 65.4019 181.896 65.5542C181.851 65.6608 181.805 67.4728 181.805 68.5539V69.0717C181.82 69.2087 181.363 70.2289 180.572 70.2289C179.704 70.2289 179.719 68.9955 179.719 68.9955C179.704 68.7214 179.688 68.4017 179.688 68.0667C179.688 66.9551 179.78 65.7369 179.78 65.6303C179.704 65.5542 179.353 65.5542 179.353 65.5542C178.47 65.5542 178.074 65.874 178.074 65.874C177.998 66.0415 177.937 67.6708 177.937 68.8433C177.937 69.2848 177.952 69.6655 177.968 69.8635C178.074 70.9903 178.425 72.3455 179.795 72.3455C180.511 72.3455 181.318 71.8582 181.805 71.1121C181.805 71.1121 181.82 71.1121 181.82 71.1426L181.835 71.4623ZM187.546 65.7521C187.546 64.6101 187.591 62.0215 187.622 61.7931C187.622 61.7626 187.378 61.7322 187.241 61.7322C186.693 61.7322 185.81 62.0672 185.81 62.2803C185.81 62.4478 185.871 62.8285 185.871 64.3665C185.871 66.7876 185.81 68.3255 185.81 69.8787C185.81 70.6248 185.81 71.2339 185.825 71.4776C185.916 72.4216 186.236 72.8175 186.297 72.8175C186.937 72.8175 187.987 72.178 187.987 71.9953C187.734 71.6361 187.581 71.2154 187.546 70.7771C187.515 70.5335 187.515 70.0614 187.515 69.4828C187.515 68.0362 187.546 66.8942 187.546 65.7521ZM191.901 62.0672C191.901 62.0367 191.657 62.0062 191.52 62.0062C190.972 62.0062 190.058 62.3412 190.058 62.5544C190.119 63.0342 190.15 63.5174 190.149 64.001C189.677 64.0162 189.342 64.0315 189.342 64.0315C189.251 64.1076 189.205 64.5187 189.205 64.869C189.19 65.0501 189.216 65.2324 189.281 65.4019C189.281 65.4019 189.662 65.3867 190.134 65.3867C190.119 65.9958 190.089 68.2951 190.089 69.9396C190.089 70.701 190.089 71.3253 190.119 71.5689C190.21 72.513 190.698 73.0003 190.759 73.0003C191.52 73.0003 192.449 72.376 192.449 72.1932C192.091 71.8512 191.87 71.3915 191.824 70.8989C191.794 70.5792 191.779 69.7721 191.779 68.7519C191.779 67.7317 191.794 66.483 191.809 65.3562H192.525C192.692 65.3562 192.966 64.7624 192.966 64.0315C192.588 63.9831 192.206 63.9678 191.824 63.9858C191.855 63.0112 191.885 62.2651 191.901 62.0672ZM196.286 63.9706C196.286 63.331 195.89 62.9503 195.342 62.9503C194.794 62.9503 194.261 63.4528 194.261 63.9706C194.261 64.6406 194.626 65.006 195.19 65.006C195.738 65.006 196.286 64.5187 196.286 63.9706ZM195.707 65.874C194.824 65.874 194.474 66.148 194.474 66.148C194.413 66.2699 194.367 68.5844 194.367 70.1528C194.367 70.7771 194.383 71.2796 194.398 71.4776C194.489 72.4216 194.794 72.8175 194.855 72.8175C195.494 72.8175 196.545 72.178 196.545 71.9953C196.303 71.6322 196.162 71.2122 196.134 70.7771C196.103 70.5182 196.088 69.9092 196.088 69.2087C196.088 67.8078 196.134 66.0415 196.134 65.9653C196.058 65.874 195.707 65.874 195.707 65.874ZM204.996 72.7719C205.544 72.7719 206.64 72.7414 207.25 72.4064C207.645 72.0105 210.386 64.4274 210.386 61.5494C210.386 61.519 210.158 61.4885 210.158 61.4885C209.212 61.5069 208.272 61.6347 207.356 61.8692C207.28 61.9301 207.143 62.4478 207.143 62.7067C207.139 62.7429 207.145 62.7795 207.158 62.8133C207.508 62.8437 208.118 63.2092 208.118 63.4528C208.118 65.8587 206.427 70.0462 206.168 70.5335C206.153 70.6096 206.062 70.701 206.001 70.701C205.925 70.6857 205.833 70.503 205.833 70.503C204.905 68.6301 203.534 62.8437 203.473 62.1281C203.473 62.0824 203.153 62.0824 203.153 62.0824C202.301 62.0824 201.57 62.4478 201.57 62.4935C201.57 64.6862 204.204 72.1932 204.813 72.7414C204.871 72.7663 204.933 72.7767 204.996 72.7719ZM215.579 67.1987C215.579 68.2189 214.239 69.1326 213.599 69.1478C213.538 69.1478 213.538 69.1021 213.538 68.9346C213.538 67.7317 214.285 66.7571 215.107 66.7571C215.168 66.7511 215.229 66.7581 215.287 66.7777C215.345 66.7974 215.398 66.8291 215.443 66.871C215.488 66.9128 215.523 66.9636 215.546 67.0201C215.57 67.0767 215.581 67.1376 215.579 67.1987ZM214.909 72.3912C216.386 72.3912 216.904 72.041 216.904 72.041C217.193 71.6755 217.284 71.036 217.284 70.6705C217.284 70.5792 217.269 70.3812 217.239 70.3812C217.227 70.3828 217.216 70.3881 217.208 70.3964C216.736 70.6857 216.036 70.8076 215.381 70.8076C214.589 70.8076 214.269 70.4878 214.269 70.3964C216.218 69.7264 217.36 68.3408 217.36 67.0464C217.36 65.6912 216.157 65.3867 215.442 65.3867C212.975 65.3867 211.757 67.1987 211.757 69.1783C211.757 70.9598 212.777 72.3912 214.909 72.3912ZM219.37 70.1376C219.384 70.8903 219.349 71.6431 219.264 72.3912C219.264 72.4369 219.37 72.4369 219.492 72.4369C219.903 72.4369 220.756 72.3303 221.061 72.0257C221.106 71.9801 221.122 71.173 221.122 70.3355C221.122 69.3762 221.106 68.3864 221.106 68.4017C221.106 68.4017 221.38 67.3205 222.37 67.3205C223.208 67.3205 223.269 68.4778 223.269 69.9548C223.265 70.8249 223.215 71.6942 223.116 72.5587C223.279 72.61 223.448 72.6356 223.619 72.6348C224.274 72.6348 224.928 72.4064 224.928 72.3303C224.928 72.3303 224.974 71.5537 224.974 70.5487C224.974 67.9448 224.928 65.4476 223.025 65.4476C221.883 65.4476 221.152 66.4069 221.152 66.4069C221.152 66.4069 221.122 66.4374 221.106 66.4374C221.076 66.4374 221.061 66.3764 221.061 66.1328C221.061 65.8435 221.091 65.4628 221.106 65.341C221.106 65.2953 220.924 65.2649 220.787 65.2649C220.238 65.2649 219.614 65.478 219.401 65.6912C219.34 65.7521 219.325 66.1328 219.325 66.7114C219.325 67.6099 219.37 68.9346 219.37 70.1376ZM232.709 61.7931C232.709 61.7626 232.466 61.7322 232.329 61.7322C231.817 61.7543 231.325 61.9412 230.928 62.2651C230.881 62.5929 230.866 62.9243 230.882 63.2549C230.882 64.1381 230.913 65.341 230.913 65.5085C228.126 65.5999 226.801 67.5642 226.801 69.7112C226.801 70.9294 227.563 72.3303 229.009 72.3303C229.377 72.3438 229.742 72.2677 230.074 72.1086C230.405 71.9494 230.693 71.7119 230.913 71.4166C230.913 71.4166 230.943 71.3862 230.958 71.3862C230.974 71.3862 230.989 71.3862 230.989 71.4319C231.05 72.1476 231.415 72.5891 231.476 72.5891C232.116 72.5891 233.181 71.9648 233.181 71.7821C232.895 71.4362 232.719 71.0114 232.679 70.5639C232.603 70.1071 232.588 68.6453 232.588 67.488C232.588 65.9653 232.649 63.0569 232.709 61.7931ZM230.897 69.3457C230.897 69.5285 230.562 70.5639 229.679 70.5639C228.948 70.5639 228.629 69.9853 228.629 69.2848C228.629 68.0667 229.359 67.0769 230.715 67.0769C230.715 67.0769 230.958 67.0769 230.943 67.1074C230.913 67.4728 230.897 69.1173 230.897 69.3457ZM238.13 72.4369C240.247 72.4369 241.389 70.6857 241.389 68.8737C241.389 66.7267 239.805 66.209 239.653 66.1937C239.68 66.0122 239.696 65.8291 239.699 65.6455C239.704 65.5731 239.694 65.5004 239.668 65.4324C239.577 65.341 238.846 65.3105 238.846 65.3105C236.318 65.3105 234.933 67.2596 234.933 69.1173C234.933 71.0207 236.09 72.4369 238.13 72.4369ZM239.638 69.0108C239.638 70.366 238.846 70.8989 238.13 70.8989C236.668 70.8989 236.668 69.2239 236.668 69.0717C236.668 67.6099 237.643 66.9399 238.374 66.9399C238.345 67.0854 238.33 67.2332 238.328 67.3814C238.326 67.4488 238.336 67.516 238.359 67.5794H238.481C238.8 67.5794 239.638 67.7012 239.638 69.0108ZM247.571 66.011C247.58 65.8109 247.538 65.6117 247.449 65.4324C246.033 65.4324 245.18 66.6505 245.18 66.6505C245.15 66.681 245.135 66.681 245.12 66.681C245.089 66.681 245.089 66.3612 245.089 66.3308C245.089 65.9349 245.12 65.3562 245.135 65.2192C245.135 65.1735 244.952 65.143 244.815 65.143C244.267 65.143 243.643 65.3562 243.429 65.5694C243.384 65.6151 243.368 65.9805 243.368 66.5287C243.368 67.4119 243.399 68.7671 243.399 69.9853C243.421 70.7888 243.385 71.5928 243.292 72.3912C243.292 72.4369 243.353 72.4369 243.414 72.4369C243.81 72.4369 244.724 72.376 245.089 72.0257C245.135 71.9801 245.135 71.0207 245.135 70.1528V68.8128C245.251 68.3855 245.508 68.01 245.865 67.7474C246.222 67.4848 246.657 67.3504 247.099 67.3662C247.166 67.3722 247.232 67.3824 247.297 67.3967C247.297 67.3967 247.571 67.0312 247.571 66.011Z" fill="url(#paint1_linear_2859_4113)"/>
<path d="M247.604 1.00977H247.606L247.604 1.01281V1.00977Z" fill="url(#paint2_linear_2859_4113)"/>
<path d="M101.176 5.18158V65.7311C101.176 66.2119 100.985 66.6731 100.645 67.0132C100.305 67.3532 99.8443 67.5444 99.3635 67.5447H89.9417L86.909 73.0008V39.8V14.5979L86.9008 14.6034L69.6697 25.8363L62.7254 21.3112L62.2449 21.0001L55.7715 16.7792L52.4107 14.5878V50.839L62.7244 57.0176V33.6204L69.6655 38.1454L76.5922 33.6296V67.5447H38.8132C38.3324 67.5445 37.8713 67.3534 37.5313 67.0134C37.1913 66.6734 37.0002 66.2123 37 65.7315V5.18158C37.0001 4.70072 37.1911 4.23956 37.5311 3.89953C37.8712 3.55951 38.3323 3.36846 38.8132 3.36841H99.3635C99.6015 3.36846 99.8373 3.4154 100.057 3.50655C100.277 3.59769 100.477 3.73126 100.645 3.89963C100.813 4.068 100.947 4.26787 101.038 4.48783C101.129 4.70779 101.176 4.94352 101.176 5.18158Z" fill="url(#paint3_linear_2859_4113)"/>
<path d="M247.608 1V1.0141L247.602 1.01106L247.608 1Z" fill="url(#paint4_linear_2859_4113)"/>
<defs>
<linearGradient id="paint0_linear_2859_4113" x1="121.042" y1="3.36768" x2="144.596" y2="90.1274" gradientUnits="userSpaceOnUse">
<stop stop-color="#FFBD69"/>
<stop offset="1" stop-color="#FF6363"/>
</linearGradient>
<linearGradient id="paint1_linear_2859_4113" x1="166.075" y1="61.4885" x2="169.264" y2="84.0616" gradientUnits="userSpaceOnUse">
<stop stop-color="#FFBD69"/>
<stop offset="1" stop-color="#FF6363"/>
</linearGradient>
<linearGradient id="paint2_linear_2859_4113" x1="247.604" y1="1.00977" x2="247.607" y2="1.01098" gradientUnits="userSpaceOnUse">
<stop stop-color="#FFBD69"/>
<stop offset="1" stop-color="#FF6363"/>
</linearGradient>
<linearGradient id="paint3_linear_2859_4113" x1="37" y1="3.36841" x2="106.401" y2="67.3312" gradientUnits="userSpaceOnUse">
<stop stop-color="#FFBD69"/>
<stop offset="1" stop-color="#FF6363"/>
</linearGradient>
<linearGradient id="paint4_linear_2859_4113" x1="247.602" y1="1" x2="247.612" y2="1.00466" gradientUnits="userSpaceOnUse">
<stop stop-color="#FFBD69"/>
<stop offset="1" stop-color="#FF6363"/>
</linearGradient>
</defs>
</svg>
