<svg width="330" height="74" viewBox="0 0 330 74" fill="none" xmlns="http://www.w3.org/2000/svg">
<path d="M58.1662 44.8403C55.1287 40.6641 53.4959 35.6311 53.5035 30.4671V16.7477C53.5078 15.8636 53.162 15.0136 52.5416 14.3837C51.9213 13.7538 51.0767 13.3951 50.1927 13.386C49.351 13.4023 48.5484 13.7437 47.9529 14.3388C47.6505 14.6399 47.4106 14.9979 47.247 15.3921C47.0835 15.7862 46.9995 16.2088 47 16.6356V30.4651C46.9892 38.5586 50.1558 46.3329 55.8185 52.1154C55.9539 52.2497 56.1369 52.3251 56.3276 52.3251C56.5183 52.3251 56.7012 52.2497 56.8366 52.1154C56.9411 52.0134 57.0121 51.882 57.0402 51.7387C57.4149 49.835 58.0848 46.4264 58.2864 45.3941C58.3059 45.2985 58.3053 45.1999 58.2846 45.1045C58.2639 45.0092 58.2236 44.9192 58.1662 44.8403Z" fill="#003152"/>
<path d="M109.845 16.7457V30.4632C109.844 38.2687 106.899 45.7866 101.597 51.5151C96.2951 57.2435 89.027 60.7607 81.2449 61.3637V66.4988H86.4106C86.8384 66.4988 87.262 66.5831 87.6573 66.7469C88.0525 66.9106 88.4117 67.1505 88.7142 67.453C89.0167 67.7555 89.2567 68.1147 89.4204 68.51C89.5841 68.9052 89.6684 69.3289 89.6684 69.7567C89.669 70.1835 89.5851 70.6062 89.4216 71.0003C89.258 71.3945 89.018 71.7525 88.7155 72.0535C88.4145 72.356 88.0566 72.5959 87.6624 72.7595C87.2682 72.923 86.8455 73.007 86.4187 73.0064H70.4676C69.6035 73.0064 68.7749 72.6632 68.164 72.0522C67.553 71.4413 67.2098 70.6125 67.2098 69.7485C67.2093 69.3218 67.2932 68.8992 67.4568 68.505C67.6203 68.1108 67.8602 67.7528 68.1627 67.4518C68.4637 67.1493 68.8217 66.9094 69.2159 66.7459C69.61 66.5823 70.0327 66.4983 70.4594 66.4988H74.7353V61.2843C70.7171 60.8711 66.8201 59.6684 63.2678 57.7454C63.0999 57.652 62.976 57.4957 62.9233 57.311C62.8706 57.1262 62.8934 56.928 62.9868 56.76C63.0637 56.6216 63.1839 56.5122 63.3289 56.4485L69.6022 53.6854C69.7665 53.6137 69.9516 53.6057 70.1214 53.6631C72.6533 54.519 75.3083 54.9544 77.9809 54.9519H78.8443C85.3391 54.9519 91.5679 52.3719 96.1604 47.7793C100.753 43.1868 103.333 36.958 103.333 30.4632V16.6337C103.332 16.207 103.416 15.7843 103.58 15.3901C103.743 14.9959 103.983 14.6381 104.286 14.337C104.881 13.7419 105.684 13.4004 106.526 13.384C107.411 13.391 108.258 13.7488 108.88 14.379C109.502 15.0091 109.849 15.8602 109.845 16.7457Z" fill="#003152"/>
<path d="M97.5133 29.7485V29.9644C97.5133 32.3977 97.034 34.8071 96.1028 37.0551C95.1717 39.3031 93.8068 41.3458 92.0863 43.0663C90.3657 44.7869 88.3231 46.1517 86.0751 47.0828C83.827 48.014 81.4176 48.4932 78.9844 48.4932H77.3168C76.4311 48.4935 75.5466 48.431 74.6698 48.306L60.7548 54.4348C60.5588 54.521 60.3368 54.5266 60.1368 54.4504C59.9367 54.3742 59.7747 54.2223 59.6858 54.0275C59.6191 53.8752 59.6006 53.7061 59.6329 53.543L62.1679 40.6379C59.9636 37.4487 58.7864 33.662 58.794 29.7852V29.7628H66.0895C66.2605 29.7614 66.4294 29.8012 66.5818 29.8788C66.7341 29.9564 66.8656 30.0696 66.965 30.2087C68.0888 31.8185 69.5849 33.1328 71.3259 34.04C73.0669 34.9472 75.0013 35.4204 76.9645 35.4193H78.4713C80.5252 35.4207 82.5462 34.9029 84.3464 33.914C86.1466 32.9251 87.6676 31.4971 88.768 29.7628L97.5133 29.7485Z" fill="url(#paint0_linear_2859_4111)"/>
<path d="M97.5125 19.5128V23.8213H58.8096V19.5128C58.8096 18.9671 58.832 18.4296 58.8788 17.8982H90.5041C90.0139 15.0672 88.54 12.5001 86.3423 10.6495C84.1445 8.79891 81.364 7.78361 78.4909 7.78257H76.9842C75.237 7.78043 73.5098 8.154 71.9198 8.87806C70.3297 9.60213 68.914 10.6597 67.7686 11.979H60.4038C61.8618 8.70943 64.2356 5.93229 67.2384 3.9832C70.2412 2.0341 73.7443 0.996554 77.3242 0.996094H78.9918C83.623 0.997502 88.0858 2.73324 91.501 5.86126C94.9162 8.98928 97.0362 13.2828 97.4433 17.896C97.4963 18.4356 97.5125 18.9752 97.5125 19.5128Z" fill="url(#paint1_linear_2859_4111)"/>
<path d="M147.633 38.2881H129.74C129.731 39.3671 129.943 40.4366 130.363 41.4308C130.782 42.4249 131.401 43.3228 132.18 44.0692C132.96 44.8157 133.883 45.395 134.895 45.7715C135.906 46.148 136.984 46.3137 138.061 46.2586C139.56 46.3318 141.046 45.954 142.327 45.174C143.609 44.3941 144.627 43.2477 145.25 41.8832L146.93 42.1569C146.241 43.9368 145.01 45.4557 143.412 46.4999C141.815 47.5441 139.93 48.0612 138.023 47.9784C136.659 48.0137 135.303 47.7673 134.039 47.2544C132.775 46.7415 131.63 45.9733 130.677 44.9979C129.723 44.0224 128.981 42.8607 128.497 41.5854C128.013 40.3101 127.798 38.9486 127.864 37.5861C127.824 36.2639 128.05 34.9471 128.53 33.7142C129.009 32.4812 129.732 31.3574 130.655 30.4096C131.577 29.4617 132.681 28.7092 133.901 28.1969C135.121 27.6847 136.431 27.4231 137.754 27.4278C143.809 27.4278 147.643 32.3507 147.643 37.8599L147.633 38.2881ZM129.738 36.8408H145.718C145.665 34.7688 144.799 32.8007 143.308 31.3609C141.817 29.9211 139.82 29.1249 137.748 29.1439C135.667 29.1106 133.658 29.9011 132.158 31.3431C130.658 32.7851 129.788 34.7618 129.74 36.842L129.738 36.8408Z" fill="url(#paint2_linear_2859_4111)"/>
<path d="M152.479 40.5541C152.623 42.1631 153.39 43.6521 154.616 44.7033C155.843 45.7545 157.432 46.2845 159.044 46.1802C162.911 46.1802 165.334 44.1481 165.334 41.1788C165.334 37.5837 162.17 35.7867 158.653 34.1465C154.511 32.1144 151.19 30.5128 151.19 25.9805C151.19 22.1514 154.589 19.4559 158.77 19.4559C160.62 19.4281 162.412 20.1083 163.777 21.3575C165.143 22.6066 165.979 24.3303 166.116 26.1759H164.241C164.114 24.8181 163.481 23.5577 162.467 22.6455C161.454 21.7333 160.134 21.2361 158.77 21.2529C155.644 21.2529 153.065 23.2067 153.065 26.0191C153.065 29.6914 155.918 30.8637 159.161 32.3881C163.653 34.4975 167.21 36.7636 167.21 41.2174C167.21 45.3179 163.85 47.9711 159.044 47.9711C154.745 47.9711 150.916 45.1575 150.602 40.5481L152.479 40.5541Z" fill="url(#paint3_linear_2859_4111)"/>
<path d="M159.042 48.1919C156.891 48.2963 154.785 47.5585 153.169 46.1352C151.554 44.7119 150.556 42.7151 150.389 40.5685L150.373 40.3406H152.673L152.691 40.5348C152.834 42.0883 153.578 43.5246 154.764 44.5381C155.95 45.5516 157.485 46.0624 159.042 45.9619C162.734 45.9619 165.118 44.0829 165.118 41.1752C165.118 37.685 162.016 35.9483 158.561 34.3358L158.482 34.2973C154.288 32.2398 150.974 30.614 150.974 25.9757C150.974 22.1345 154.324 19.2364 158.767 19.2364C160.673 19.2011 162.52 19.899 163.927 21.1861C165.333 22.4732 166.192 24.2511 166.325 26.1529L166.344 26.3845H164.046L164.024 26.1952C163.91 24.8872 163.304 23.6713 162.328 22.7928C161.352 21.9142 160.08 21.4385 158.767 21.4615C155.631 21.4615 153.277 23.4189 153.277 26.0142C153.277 29.3911 155.733 30.5441 158.841 31.9973L159.249 32.1891C163.384 34.1308 167.421 36.427 167.421 41.2125C167.423 45.3902 164.054 48.1919 159.042 48.1919ZM150.835 40.7687C151.062 42.7577 152.035 44.5863 153.559 45.8848C155.082 47.1833 157.042 47.8548 159.042 47.7637C163.799 47.7637 166.993 45.1333 166.993 41.2186C166.993 37.1265 163.96 34.8798 159.067 32.5823L158.66 32.3917C155.542 30.9336 152.849 29.6745 152.849 26.0203C152.849 23.1813 155.393 21.0394 158.767 21.0394C160.152 21.0136 161.498 21.5029 162.543 22.4124C163.588 23.3219 164.259 24.5869 164.424 25.9624H165.872C165.691 24.2133 164.861 22.5957 163.544 21.4302C162.228 20.2646 160.521 19.6362 158.763 19.6694C154.564 19.6694 151.397 22.3829 151.397 25.9804C151.397 30.3523 154.605 31.9262 158.666 33.9185L158.739 33.9547C162.179 35.5599 165.54 37.4413 165.54 41.18C165.54 44.3482 162.987 46.3948 159.036 46.3948C157.405 46.4949 155.798 45.9683 154.542 44.9225C153.287 43.8767 152.478 42.3908 152.282 40.7687H150.835Z" fill="url(#paint4_linear_2859_4111)"/>
<path d="M171.585 27.8171H173.343L173.464 33.1308C174.219 31.4224 175.457 29.9721 177.026 28.9586C178.595 27.945 180.426 27.4123 182.293 27.4263C185.007 27.4301 187.609 28.5099 189.527 30.4288C191.446 32.3478 192.526 34.9493 192.53 37.6631C192.537 39.013 192.277 40.351 191.766 41.6005C191.255 42.8499 190.503 43.9862 189.552 44.9444C188.601 45.9026 187.47 46.6638 186.225 47.1844C184.979 47.7049 183.643 47.9747 182.293 47.9782C180.42 47.9926 178.585 47.4558 177.015 46.4346C175.445 45.4135 174.21 43.9529 173.464 42.2351V56.5747H171.589L171.585 27.8171ZM182.094 46.18C183.213 46.1808 184.321 45.961 185.355 45.5333C186.388 45.1056 187.328 44.4783 188.119 43.6873C188.91 42.8963 189.537 41.9571 189.965 40.9234C190.393 39.8897 190.613 38.7818 190.612 37.6631C190.598 35.4155 189.694 33.2653 188.098 31.683C186.501 30.1007 184.343 29.2154 182.095 29.2209C179.852 29.2167 177.698 30.1037 176.109 31.6868C174.519 33.2698 173.623 35.4195 173.617 37.6631C173.612 38.7796 173.828 39.8861 174.251 40.9191C174.675 41.9522 175.299 42.8913 176.086 43.6827C176.874 44.474 177.81 45.102 178.841 45.5306C179.872 45.9591 180.978 46.1799 182.094 46.18Z" fill="url(#paint5_linear_2859_4111)"/>
<path d="M173.888 57.0005H171.157V27.389H173.761L173.851 31.5063C174.774 30.1131 176.028 28.9714 177.502 28.1844C178.976 27.3974 180.623 26.9897 182.294 26.9982C185.121 27.0014 187.832 28.1259 189.831 30.125C191.83 32.1241 192.955 34.8346 192.958 37.6619C192.966 40.4997 191.847 43.2244 189.847 45.2382C187.848 47.252 185.131 48.3905 182.294 48.4039C180.632 48.4111 178.994 48.0057 177.528 47.2239C176.061 46.4421 174.812 45.3085 173.891 43.9248L173.888 57.0005ZM172.012 56.1442H173.033V40.1559L173.853 42.0638C174.569 43.704 175.75 45.098 177.251 46.073C178.751 47.048 180.505 47.5612 182.295 47.5489C184.906 47.5355 187.405 46.4866 189.244 44.6326C191.083 42.7786 192.111 40.2708 192.103 37.6595C192.101 35.0589 191.066 32.5657 189.227 30.7269C187.389 28.888 184.895 27.8537 182.295 27.8509C180.51 27.8374 178.76 28.3458 177.26 29.3136C175.76 30.2815 174.576 31.6665 173.853 33.2984L173.076 35.0834L172.925 28.2416H172.013L172.012 56.1442ZM182.095 46.607C179.728 46.599 177.462 45.6528 175.792 43.9759C174.122 42.2989 173.186 40.0283 173.188 37.6619C173.196 35.3059 174.138 33.0492 175.808 31.3869C177.478 29.7247 179.739 28.7926 182.095 28.7951C184.456 28.7874 186.724 29.7167 188.401 31.3789C190.078 33.0412 191.027 35.3007 191.04 37.6619C191.037 40.0336 190.094 42.3074 188.417 43.9846C186.74 45.6618 184.466 46.6041 182.095 46.607ZM182.095 29.6503C179.965 29.6477 177.922 30.4897 176.413 31.9917C174.904 33.4936 174.052 35.5328 174.044 37.6619C174.042 39.8014 174.888 41.8546 176.397 43.3712C177.906 44.8877 179.955 45.7439 182.095 45.7519C184.24 45.7497 186.296 44.8966 187.813 43.3799C189.329 41.8632 190.182 39.8068 190.185 37.6619C190.172 35.5276 189.312 33.4857 187.796 31.984C186.279 30.4823 184.229 29.6422 182.095 29.6503Z" fill="url(#paint6_linear_2859_4111)"/>
<path d="M215.735 38.2881H197.84C197.832 39.3671 198.044 40.4366 198.463 41.4308C198.883 42.4249 199.502 43.3228 200.281 44.0692C201.06 44.8157 201.984 45.395 202.995 45.7715C204.006 46.148 205.084 46.3137 206.162 46.2586C207.66 46.3316 209.146 45.9538 210.428 45.1738C211.709 44.3939 212.727 43.2476 213.351 41.8832L215.031 42.1569C214.341 43.9368 213.111 45.4557 211.513 46.4999C209.915 47.5441 208.03 48.0612 206.123 47.9784C204.76 48.0137 203.403 47.7673 202.139 47.2544C200.875 46.7415 199.731 45.9733 198.777 44.9979C197.824 44.0224 197.082 42.8607 196.598 41.5854C196.114 40.3101 195.899 38.9486 195.965 37.5861C195.925 36.2639 196.151 34.9471 196.63 33.7142C197.11 32.4812 197.832 31.3574 198.755 30.4096C199.678 29.4617 200.782 28.7092 202.002 28.1969C203.221 27.6847 204.531 27.4231 205.854 27.4278C211.91 27.4278 215.744 32.3507 215.744 37.8599L215.735 38.2881ZM197.84 36.8408H213.82C213.767 34.7688 212.901 32.8007 211.41 31.3609C209.919 29.9211 207.922 29.1249 205.849 29.1439C203.769 29.1099 201.759 29.9002 200.258 31.3424C198.758 32.7845 197.889 34.7603 197.84 36.8408Z" fill="url(#paint7_linear_2859_4111)"/>
<path d="M206.122 48.6197C204.675 48.6539 203.236 48.39 201.894 47.8446C200.553 47.2991 199.338 46.4837 198.325 45.4489C197.312 44.4141 196.523 43.1821 196.007 41.8294C195.49 40.4767 195.257 39.0322 195.322 37.5857C195.294 34.7683 196.35 32.0479 198.272 29.9878C199.248 28.9632 200.424 28.1505 201.727 27.6C203.031 27.0496 204.434 26.7732 205.848 26.7882C211.85 26.7882 216.375 31.5484 216.375 37.8619V38.9341H198.525C198.666 40.8279 199.546 42.5903 200.974 43.8414C202.403 45.0924 204.266 45.7318 206.162 45.6215C207.533 45.6915 208.894 45.35 210.07 44.6408C211.246 43.9316 212.182 42.8872 212.76 41.6416L212.957 41.1785L215.874 41.6537L215.64 42.3665C214.9 44.2683 213.585 45.8922 211.88 47.0129C210.174 48.1335 208.162 48.6951 206.122 48.6197ZM205.848 28.069C204.609 28.0592 203.38 28.3007 202.236 28.779C201.092 29.2573 200.057 29.9625 199.193 30.8519C198.329 31.7413 197.654 32.7965 197.21 33.9539C196.765 35.1112 196.559 36.3467 196.605 37.5857C196.546 38.8621 196.75 40.1371 197.204 41.3314C197.658 42.5258 198.353 43.614 199.246 44.5285C200.138 45.4429 201.209 46.164 202.392 46.6471C203.575 47.1302 204.845 47.3648 206.122 47.3365C207.764 47.3943 209.388 46.9859 210.806 46.1585C212.225 45.3312 213.381 44.1189 214.139 42.6619L213.725 42.5944C212.995 43.9496 211.899 45.0722 210.562 45.8338C209.224 46.5954 207.7 46.9652 206.162 46.901C205.003 46.9517 203.845 46.767 202.759 46.3579C201.673 45.9488 200.682 45.324 199.844 44.521C199.006 43.718 198.34 42.7536 197.885 41.686C197.431 40.6184 197.197 39.4698 197.199 38.3094L197.177 37.6473H215.09C214.995 32.9631 211.763 28.0738 205.848 28.0738V28.069ZM214.499 37.4808H197.173L197.198 36.8151C197.25 34.5678 198.189 32.4323 199.809 30.8745C201.43 29.3167 203.601 28.4629 205.848 28.4995C208.086 28.4782 210.242 29.3363 211.852 30.8892C213.463 32.4421 214.399 34.5654 214.459 36.8018L214.499 37.4808ZM198.533 36.1976H213.11C212.91 34.4184 212.057 32.777 210.715 31.5918C209.373 30.4066 207.639 29.7623 205.848 29.784C204.05 29.7526 202.304 30.3925 200.951 31.5787C199.598 32.7649 198.736 34.4125 198.533 36.2V36.1976Z" fill="url(#paint8_linear_2859_4111)"/>
<path d="M239.331 38.2881H221.436C221.427 39.3671 221.639 40.4366 222.059 41.4308C222.479 42.4249 223.097 43.3228 223.877 44.0692C224.656 44.8157 225.58 45.395 226.591 45.7715C227.602 46.148 228.68 46.3137 229.758 46.2586C231.256 46.3316 232.742 45.9538 234.023 45.1738C235.305 44.3939 236.323 43.2476 236.947 41.8832L238.627 42.1569C237.937 43.9368 236.707 45.4557 235.109 46.4999C233.511 47.5441 231.626 48.0612 229.719 47.9784C228.355 48.0137 226.999 47.7673 225.735 47.2544C224.471 46.7415 223.327 45.9733 222.373 44.9979C221.42 44.0224 220.678 42.8607 220.194 41.5854C219.71 40.3101 219.494 38.9486 219.561 37.5861C219.52 36.2639 219.747 34.9471 220.226 33.7142C220.706 32.4812 221.428 31.3574 222.351 30.4096C223.274 29.4617 224.378 28.7092 225.597 28.1969C226.817 27.6847 228.127 27.4231 229.45 27.4278C235.505 27.4278 239.339 32.3507 239.339 37.8599L239.331 38.2881ZM221.436 36.8408H237.416C237.362 34.7688 236.497 32.8007 235.006 31.3609C233.515 29.9211 231.518 29.1249 229.445 29.1439C227.364 29.1103 225.355 29.9007 223.854 31.3427C222.354 32.7848 221.485 34.7604 221.436 36.8408Z" fill="url(#paint9_linear_2859_4111)"/>
<path d="M229.719 48.8334C228.243 48.8687 226.775 48.6 225.407 48.0441C224.04 47.4881 222.801 46.6568 221.768 45.6019C220.735 44.547 219.93 43.2909 219.403 41.9117C218.876 40.5325 218.639 39.0597 218.705 37.5848C218.676 34.7118 219.754 31.9376 221.714 29.8373C222.71 28.7916 223.91 27.962 225.241 27.4002C226.571 26.8383 228.002 26.5562 229.446 26.5714C235.569 26.5714 240.187 31.4232 240.187 37.8586V39.1442H222.363C222.557 40.9372 223.433 42.5868 224.81 43.7519C226.186 44.917 227.958 45.5083 229.758 45.4034C231.089 45.4722 232.409 45.1414 233.55 44.4537C234.691 43.7659 235.6 42.7527 236.16 41.5442L236.423 40.9267L239.753 41.4682L239.44 42.4186C238.688 44.3658 237.347 46.0301 235.605 47.1798C233.862 48.3295 231.805 48.9076 229.719 48.8334ZM229.445 28.2827C228.233 28.2736 227.032 28.51 225.915 28.9778C224.797 29.4456 223.786 30.1351 222.942 31.0045C222.098 31.874 221.439 32.9054 221.005 34.0366C220.571 35.1678 220.37 36.3752 220.415 37.586C220.415 43.2012 224.241 47.1233 229.719 47.1233C230.141 47.1236 230.563 47.0974 230.983 47.0449C230.576 47.092 230.167 47.1154 229.757 47.1148C228.57 47.1666 227.384 46.9772 226.272 46.5579C225.159 46.1386 224.144 45.4982 223.286 44.6753C222.428 43.8524 221.746 42.8642 221.281 41.7703C220.816 40.6764 220.577 39.4995 220.579 38.3108L220.559 37.6934H220.547L220.553 37.5149V37.428L220.576 36.8069C220.629 34.5039 221.591 32.3155 223.252 30.719C224.912 29.1225 227.137 28.2476 229.44 28.2852C231.732 28.2625 233.942 29.1411 235.592 30.7317C237.243 32.3222 238.202 34.4975 238.265 36.7889L238.302 37.428H238.461C238.279 32.9199 235.13 28.2827 229.445 28.2827ZM222.375 35.9881H236.456C236.211 34.3101 235.365 32.7781 234.076 31.6771C232.786 30.5761 231.14 29.981 229.445 30.0026C227.741 29.9735 226.085 30.5644 224.785 31.6652C223.484 32.766 222.628 34.3018 222.375 35.9868V35.9881Z" fill="url(#paint10_linear_2859_4111)"/>
<path d="M253.67 29.2236C251.42 29.2231 249.26 30.1088 247.659 31.6888C246.057 33.2689 245.143 35.4162 245.113 37.6657C245.127 39.9272 246.034 42.0914 247.637 43.6867C249.24 45.2821 251.408 46.1792 253.67 46.1827C254.86 46.1777 256.036 45.9209 257.12 45.4294C258.204 44.9378 259.172 44.2225 259.96 43.3305V45.2842C259.123 46.1556 258.115 46.8448 256.999 47.3086C255.882 47.7724 254.683 48.0008 253.474 47.9797C252.119 47.9811 250.777 47.7153 249.525 47.1974C248.273 46.6795 247.135 45.9198 246.177 44.9617C245.219 44.0035 244.459 42.8658 243.941 41.6137C243.424 40.3615 243.158 39.0196 243.159 37.6646C243.173 34.9403 244.267 32.3326 246.2 30.4136C248.134 28.4945 250.75 27.4208 253.474 27.4279C254.683 27.4067 255.882 27.6352 256.999 28.099C258.115 28.5628 259.123 29.2519 259.96 30.1233V32.0771C259.172 31.1848 258.204 30.4693 257.12 29.9775C256.036 29.4857 254.86 29.2288 253.67 29.2236Z" fill="url(#paint11_linear_2859_4111)"/>
<path d="M253.479 49.0468C250.461 49.0433 247.567 47.8426 245.433 45.7083C243.299 43.5739 242.099 40.6802 242.096 37.6619C242.109 34.6541 243.316 31.7746 245.45 29.6549C247.584 27.5353 250.471 26.3487 253.479 26.3554C254.833 26.3304 256.177 26.5863 257.426 27.1071C258.676 27.628 259.803 28.4024 260.738 29.3813L261.035 29.6913V34.7434L259.191 32.8137C258.503 32.0261 257.655 31.394 256.704 30.9594C255.753 30.5248 254.72 30.2977 253.675 30.2931C251.712 30.3034 249.832 31.0795 248.433 32.4562C247.035 33.8328 246.229 35.7011 246.188 37.6631C246.195 39.6429 246.988 41.5388 248.391 42.9351C249.795 44.3314 251.695 45.1141 253.675 45.1115C254.72 45.1069 255.753 44.8795 256.704 44.4447C257.656 44.0099 258.503 43.3776 259.191 42.5897L261.035 40.6601V45.7121L260.738 46.0221C259.803 47.0008 258.675 47.7749 257.426 48.2955C256.177 48.8162 254.833 49.0719 253.479 49.0468Z" fill="url(#paint12_linear_2859_4111)"/>
<path d="M282.387 36.1435V47.5911H280.512V36.7296C280.512 31.4544 277.894 29.2281 274.456 29.2281C268.713 29.2281 266.916 34.3851 266.798 36.7694V47.5923H264.923V18.2859H266.798V32.078C267.625 30.6482 268.816 29.4641 270.251 28.6471C271.686 27.83 273.313 27.4096 274.964 27.4288C279.34 27.4263 282.387 30.3546 282.387 36.1435Z" fill="url(#paint13_linear_2859_4111)"/>
<path d="M283.67 48.8709H279.229V36.7262C279.229 33.8897 278.4 30.508 274.456 30.508C269.512 30.508 268.185 35.0197 268.082 36.7986V48.8709H263.641V17.0005H268.082V28.6121C270.004 26.9867 272.448 26.1097 274.965 26.1422C280.336 26.1422 283.673 29.9725 283.673 36.1389L283.67 48.8709Z" fill="url(#paint14_linear_2859_4111)"/>
<defs>
<linearGradient id="paint0_linear_2859_4111" x1="58.7939" y1="29.9713" x2="81.3492" y2="64.9321" gradientUnits="userSpaceOnUse">
<stop stop-color="#05A6E8"/>
<stop offset="1" stop-color="#003E64"/>
</linearGradient>
<linearGradient id="paint1_linear_2859_4111" x1="58.8096" y1="1.20152" x2="78.8723" y2="34.9142" gradientUnits="userSpaceOnUse">
<stop stop-color="#05A6E8"/>
<stop offset="1" stop-color="#003E64"/>
</linearGradient>
<linearGradient id="paint2_linear_2859_4111" x1="127.853" y1="27.6128" x2="148.39" y2="47.2042" gradientUnits="userSpaceOnUse">
<stop stop-color="#05A6E8"/>
<stop offset="1" stop-color="#003E64"/>
</linearGradient>
<linearGradient id="paint3_linear_2859_4111" x1="150.602" y1="19.7117" x2="175.294" y2="33.9638" gradientUnits="userSpaceOnUse">
<stop stop-color="#05A6E8"/>
<stop offset="1" stop-color="#003E64"/>
</linearGradient>
<linearGradient id="paint4_linear_2859_4111" x1="150.373" y1="19.4958" x2="175.587" y2="34.202" gradientUnits="userSpaceOnUse">
<stop stop-color="#05A6E8"/>
<stop offset="1" stop-color="#003E64"/>
</linearGradient>
<linearGradient id="paint5_linear_2859_4111" x1="171.585" y1="27.6884" x2="199.132" y2="47.3042" gradientUnits="userSpaceOnUse">
<stop stop-color="#05A6E8"/>
<stop offset="1" stop-color="#003E64"/>
</linearGradient>
<linearGradient id="paint6_linear_2859_4111" x1="171.157" y1="27.2681" x2="199.613" y2="47.7595" gradientUnits="userSpaceOnUse">
<stop stop-color="#05A6E8"/>
<stop offset="1" stop-color="#003E64"/>
</linearGradient>
<linearGradient id="paint7_linear_2859_4111" x1="195.953" y1="27.6128" x2="216.49" y2="47.2042" gradientUnits="userSpaceOnUse">
<stop stop-color="#05A6E8"/>
<stop offset="1" stop-color="#003E64"/>
</linearGradient>
<linearGradient id="paint8_linear_2859_4111" x1="195.312" y1="26.9841" x2="217.129" y2="47.8372" gradientUnits="userSpaceOnUse">
<stop stop-color="#05A6E8"/>
<stop offset="1" stop-color="#003E64"/>
</linearGradient>
<linearGradient id="paint9_linear_2859_4111" x1="219.549" y1="27.6128" x2="240.086" y2="47.2042" gradientUnits="userSpaceOnUse">
<stop stop-color="#05A6E8"/>
<stop offset="1" stop-color="#003E64"/>
</linearGradient>
<linearGradient id="paint10_linear_2859_4111" x1="218.694" y1="26.7712" x2="240.942" y2="48.0502" gradientUnits="userSpaceOnUse">
<stop stop-color="#05A6E8"/>
<stop offset="1" stop-color="#003E64"/>
</linearGradient>
<linearGradient id="paint11_linear_2859_4111" x1="243.159" y1="27.6115" x2="263.267" y2="43.8993" gradientUnits="userSpaceOnUse">
<stop stop-color="#05A6E8"/>
<stop offset="1" stop-color="#003E64"/>
</linearGradient>
<linearGradient id="paint12_linear_2859_4111" x1="242.096" y1="26.558" x2="264.388" y2="44.9942" gradientUnits="userSpaceOnUse">
<stop stop-color="#05A6E8"/>
<stop offset="1" stop-color="#003E64"/>
</linearGradient>
<linearGradient id="paint13_linear_2859_4111" x1="264.923" y1="18.5496" x2="290.588" y2="33.7063" gradientUnits="userSpaceOnUse">
<stop stop-color="#05A6E8"/>
<stop offset="1" stop-color="#003E64"/>
</linearGradient>
<linearGradient id="paint14_linear_2859_4111" x1="263.641" y1="17.2873" x2="292.247" y2="35.1059" gradientUnits="userSpaceOnUse">
<stop stop-color="#05A6E8"/>
<stop offset="1" stop-color="#003E64"/>
</linearGradient>
</defs>
</svg>
