<svg width="330" height="74" viewBox="0 0 330 74" fill="none" xmlns="http://www.w3.org/2000/svg">
<g clip-path="url(#clip0_2859_4112)">
<path d="M31.6399 65.9625C30.1899 64.8889 28.8211 63.7098 27.5447 62.4347L27.0852 61.9752V38.2863C27.0628 37.8766 27.0518 37.4561 27.0518 36.9995C27.0518 22.6914 38.6922 11.051 53.0001 11.051C67.308 11.051 78.9485 22.6914 78.9485 36.9995C78.9485 51.3076 67.3081 62.9478 53.0001 62.9478C52.2084 62.9478 51.4154 62.9119 50.6429 62.8414L49.218 62.7111V55.5951L50.9539 55.7817C51.6335 55.855 52.3165 55.8919 53.0001 55.8922C63.418 55.8922 71.8936 47.4166 71.8936 36.9988C71.8936 26.581 63.418 18.1053 53.0001 18.1053C42.6358 18.1053 34.1611 26.535 34.1086 36.8968V36.9349L34.1067 36.9708V36.9995C34.1067 37.3525 34.117 37.7102 34.1374 38.0726L34.1399 38.1169V67.8098L31.6399 65.9625Z" fill="url(#paint0_linear_2859_4112)"/>
<path d="M64.3722 47.8481C62.9552 49.3469 61.2545 50.5492 59.3688 51.3852C57.4832 52.2212 55.4503 52.6742 53.3881 52.7179C53.2588 52.7218 53.1296 52.7238 53.0005 52.7238C52.6301 52.7238 52.2617 52.7094 51.8932 52.6846L51.8285 52.6787H51.8109C51.3836 52.6473 50.9603 52.5983 50.541 52.5318L49.2182 52.324V45.0457L49.4495 45.0966L51.1213 45.4651C51.3309 45.5101 51.5425 45.5493 51.7542 45.5788C52.1668 45.6391 52.5834 45.6692 53.0005 45.6689C54.1935 45.6666 55.3732 45.4187 56.4663 44.9406C57.5593 44.4625 58.5422 43.7646 59.3539 42.8902C60.7935 41.3524 61.6173 39.3389 61.6683 37.233C61.6741 36.9351 61.6663 36.6353 61.6447 36.3335C61.5403 34.9462 61.0983 33.6054 60.3572 32.428C60.3554 32.426 60.3553 32.426 60.3553 32.4241C59.6358 31.2701 58.6557 30.3008 57.4937 29.5942C56.3316 28.8877 55.0201 28.4635 53.6644 28.3557C53.443 28.3382 53.2193 28.3303 53 28.3303C52.802 28.3303 52.6062 28.3362 52.4121 28.3498C50.3337 28.4935 48.3764 29.3799 46.8973 30.847C45.4183 32.3142 44.5162 34.2644 44.3558 36.3415H44.2518V71.9877L42.294 71.3762C41.3177 71.0705 40.3481 70.7197 39.4016 70.3298C38.9939 70.1651 38.5922 69.9908 38.1943 69.8104L37.2754 69.3929V36.9994C37.2754 36.9523 37.2754 36.9094 37.2772 36.8643V36.8407C37.3634 28.2572 44.4125 21.2749 52.9996 21.2749C53.3386 21.2749 53.6835 21.2867 54.0225 21.3082C54.5751 21.3428 55.1254 21.4083 55.6707 21.5042C58.9371 22.0773 61.9401 23.6642 64.2539 26.04C66.5678 28.4157 68.0749 31.4596 68.5615 34.74C68.634 35.2377 68.6823 35.7407 68.7066 36.2489C68.8141 38.3758 68.485 40.5021 67.7395 42.497C66.9941 44.4918 65.8481 46.3129 64.3722 47.8481Z" fill="url(#paint1_radial_2859_4112)"/>
<path d="M38.8448 36.8896C38.8428 36.9268 38.8428 36.9614 38.8428 36.9993V36.8896H38.8448Z" fill="url(#paint2_linear_2859_4112)"/>
<path d="M38.8448 36.8896C38.8428 36.9268 38.8428 36.9614 38.8428 36.9993V36.8896H38.8448Z" fill="url(#paint3_linear_2859_4112)"/>
<path d="M88.9995 37.0002C88.9995 56.85 72.8498 72.9999 53 72.9999C52.2259 72.9999 51.4458 72.9745 50.6854 72.9254L49.2177 72.8314V65.747L50.8991 65.8684C51.5967 65.9174 52.3042 65.9448 53 65.9448C68.9597 65.9448 81.9447 52.9599 81.9447 37.0001C81.951 32.6406 80.9652 28.3369 79.062 24.4149C74.3726 14.7398 64.4524 8.0553 53 8.0553C49.1218 8.05114 45.2829 8.83172 41.7143 10.35C31.3828 14.7496 24.0967 24.9911 24.0556 36.8941V58.9449L21.1199 53.7085C21.0866 53.6477 21.0553 53.5891 21.0239 53.5282L20.9965 53.4733C18.4392 48.506 17.0727 43.0119 17.0049 37.4254C17.0028 37.247 17.001 37.0688 17.001 36.8904V36.7807C17.001 36.6631 17.0028 36.5456 17.0049 36.428C17.1722 26.9859 21.0362 17.9861 27.7667 11.3618C34.4973 4.7376 43.5576 1.01743 53.0011 1.00049C72.8496 1.00049 88.9995 17.1486 88.9995 37.0002Z" fill="url(#paint4_linear_2859_4112)"/>
<path opacity="0.69" d="M52.1197 7.95892C36.6185 8.42527 24.1078 21.1752 24.055 36.7841V58.8347L21.1192 53.5979C21.0859 53.5372 21.0546 53.4785 21.0232 53.4176L20.9958 53.3628C18.3733 48.2674 17.0035 42.6201 17 36.8895V36.7798C17.0238 27.8699 20.363 19.2878 26.3674 12.7049C36.9968 7.19075 47.3263 7.48667 52.1197 7.95892Z" fill="url(#paint5_linear_2859_4112)"/>
<path opacity="0.4" d="M79.9983 26.5651C79.0612 24.1035 76.3164 17.8915 69.646 13.2371C62.7621 8.43357 55.8108 8.15947 53.3459 8.09586C52.2877 8.06844 49.898 7.85177 46.9481 8.61463C44.0894 9.34923 41.3006 10.3329 38.6136 11.5542C38.1351 11.7723 36.4951 12.5293 34.429 13.6983C32.6404 14.7091 30.9086 15.8174 29.2416 17.0183C25.0953 20.0084 21.3872 23.5631 18.2246 27.5794C20.196 21.0122 23.2582 16.5602 25.3335 14.0095C27.4352 11.4137 29.9608 9.19215 32.8035 7.43882C42.4943 1.48745 52.9299 3.28296 55.5835 3.78004C58.8224 4.38654 65.5749 5.74584 71.6312 11.5253C77.5879 17.2089 79.4138 23.869 79.9983 26.5651Z" fill="url(#paint6_linear_2859_4112)"/>
<path d="M81.8244 34.3719C81.1608 27.1832 77.838 20.5011 72.5067 15.6335C67.1753 10.766 60.2191 8.06348 52.9999 8.0551C52.8137 8.0551 52.6274 8.05706 52.4413 8.06098C42.292 6.44424 33.1559 9.35237 26.8301 12.3174C31.4398 7.42164 37.3268 3.91269 43.826 2.187C46.8238 1.41709 49.9049 1.01844 52.9999 1C53.4267 1 57.2616 1.01723 61.0214 1.90127C63.5994 2.50734 75.7867 5.37311 80.8943 16.4032C84.4887 24.1664 82.615 31.7365 81.8244 34.3719Z" fill="url(#paint7_linear_2859_4112)"/>
<path opacity="0.3" d="M70.5246 43.8838C70.859 42.9188 73.87 33.7483 68.3461 25.9905C64.7763 20.9769 59.5387 19.2171 57.7574 18.7124C54.2817 17.7274 51.4372 17.971 49.8186 18.1249C42.6205 18.8088 37.73 22.5454 36.0955 23.828C30.4007 28.2969 27.9799 33.8103 27.0518 36.3404C27.1665 32.0849 28.3244 27.9227 30.424 24.2194C32.5235 20.5161 35.5003 17.385 39.0929 15.1013C40.8047 14.0132 47.5342 9.87861 56.4584 11.2082C58.7932 11.5559 68.5303 13.0066 73.0582 21.5831C76.6534 28.3928 75.6041 37.1178 70.5246 43.8838Z" fill="url(#paint8_linear_2859_4112)"/>
<path d="M53 45.6685C57.2895 45.545 60.8722 42.4495 61.556 38.4175C62.2144 34.5335 59.9939 30.8982 56.9528 29.2878C53.7072 27.5691 50.4916 28.6479 50.0949 28.7877C47.0498 29.8623 45.6662 32.3216 45.3305 32.9406C45.2291 33.1257 45.1374 33.3159 45.0558 33.5106C44.33 35.2587 44.2518 39.4119 44.2518 39.4119C44.2509 39.4775 44.2518 39.3887 44.2518 41.8895C44.2518 43.4946 44.2518 43.8345 44.2518 44.52C44.2518 44.52 44.2534 45.8032 44.2605 47.3608C44.2669 48.7357 44.2838 51.3903 44.3302 56.9912C42.2712 54.6156 37.4866 48.4013 37.2543 39.641C37.1733 36.5859 37.0416 31.6259 40.5409 27.1826C44.5359 22.1095 50.3793 21.3725 51.1639 21.2862C56.982 20.6466 61.1683 23.4994 62.324 24.3546C63.3156 25.0882 66.563 27.5634 67.9517 32.1368C68.3577 33.4736 69.4136 36.9504 68.0566 40.0238C66.1615 44.3146 60.0092 46.805 53 45.6685Z" fill="url(#paint9_linear_2859_4112)"/>
<path d="M108.274 25.6427H108.152C108.156 25.3018 108.089 24.9637 107.955 24.6502C107.821 24.3366 107.623 24.0544 107.374 23.8215C107.133 23.5784 106.846 23.386 106.53 23.2559C106.214 23.1258 105.874 23.0607 105.532 23.0643H105.041L105 22.6553H108.275L108.274 25.6427ZM108.274 48.3157V51.3031H105V50.8938H105.532C105.871 50.8988 106.208 50.8341 106.521 50.7039C106.834 50.5738 107.118 50.3807 107.353 50.1368C107.847 49.6573 108.133 49.0036 108.152 48.3157H108.274ZM113.144 22.6553V51.3031H108.151V22.6553H113.144ZM117.645 22.6553C119.801 22.6553 121.581 22.9894 122.986 23.6576C124.295 24.2423 125.399 25.2042 126.158 26.4203C126.886 27.6611 127.267 29.0743 127.263 30.5127C127.309 31.7791 127.064 33.0393 126.547 34.196C126.066 35.2554 125.353 36.1926 124.46 36.9379C123.581 37.6701 122.566 38.2198 121.472 38.5546C120.353 38.8975 119.174 38.9955 118.014 38.8422C116.778 38.6802 115.592 38.2545 114.535 37.594V37.1849C115.204 37.2422 115.877 37.2216 116.541 37.1236C117.196 37.0116 117.835 36.8192 118.444 36.5506C119.159 36.2293 119.795 35.7542 120.306 35.1591C120.931 34.4172 121.379 33.5424 121.616 32.6013C121.731 32.2143 121.806 31.8167 121.84 31.4144C121.881 30.9928 121.888 30.5686 121.861 30.1458C121.834 28.3451 121.356 26.906 120.428 25.8284C119.501 24.7509 118.191 24.212 116.499 24.2117H113.02C112.883 23.6937 112.747 23.1754 112.611 22.6567L117.645 22.6553ZM113.021 48.3154H113.143C113.161 49.0035 113.447 49.6573 113.941 50.1366C114.177 50.3806 114.46 50.5736 114.773 50.7038C115.087 50.834 115.423 50.8986 115.762 50.8936H116.294V51.3026H113.02L113.021 48.3154Z" fill="#D932C7"/>
<path d="M133.443 29.3262H133.361C133.351 28.7388 133.108 28.1794 132.685 27.771C132.484 27.5716 132.244 27.4146 131.981 27.3092C131.717 27.2038 131.435 27.1522 131.152 27.1573H130.62V26.7478H133.73L133.443 29.3262ZM133.443 48.7248L133.73 51.3032H130.62V50.8942H131.111C131.403 50.9017 131.694 50.8492 131.965 50.7401C132.236 50.631 132.481 50.4676 132.687 50.2599C133.102 49.8547 133.344 49.3047 133.362 48.7251L133.443 48.7248ZM138.149 26.7478V51.3032H133.32V26.7478H138.149ZM142.406 26.7478C143.541 26.7407 144.674 26.8644 145.782 27.1163C146.772 27.3365 147.714 27.7314 148.565 28.2826C149.357 28.8014 150.005 29.5125 150.447 30.3494C150.922 31.3014 151.154 32.3558 151.123 33.419C151.119 34.4434 150.896 35.4552 150.468 36.3859C150.03 37.3566 149.354 38.2011 148.503 38.8416C147.544 39.5439 146.413 39.975 145.229 40.0898C146.02 40.3801 146.729 40.8574 147.296 41.4811C147.908 42.0869 148.45 42.7596 148.912 43.4865C148.994 43.6233 149.192 43.9303 149.506 44.4074C149.819 44.8846 150.208 45.4437 150.672 46.0848C151.136 46.7262 151.613 47.3606 152.105 47.988C152.555 48.5884 153.047 49.1559 153.578 49.6862C153.97 50.0802 154.436 50.3932 154.949 50.6071C155.465 50.8055 156.013 50.9031 156.565 50.8947V51.3037H153.864C152.61 51.3292 151.359 51.1917 150.14 50.8947C149.206 50.6597 148.334 50.2265 147.582 49.6246C146.849 49.0103 146.208 48.2936 145.679 47.4967C145.487 47.1969 145.235 46.7877 144.922 46.2691C144.609 45.7506 144.289 45.2116 143.96 44.6523C143.633 44.0932 143.333 43.5612 143.06 43.0564C142.847 42.685 142.669 42.2945 142.528 41.8899C142.192 41.1665 141.703 40.5243 141.096 40.0074C140.65 39.6139 140.091 39.3708 139.5 39.3125V38.9441C139.526 38.9441 139.677 38.9513 139.95 38.9645C140.291 38.9773 140.632 38.9705 140.973 38.9441C141.615 38.9145 142.253 38.8181 142.876 38.6566C143.546 38.4757 144.149 38.1063 144.615 37.5924C145.133 37.0468 145.529 36.201 145.802 35.055C145.895 34.7901 145.956 34.5154 145.986 34.2364C146.028 33.8695 146.034 33.4994 146.007 33.1312C146.008 32.3345 145.84 31.5465 145.515 30.8191C145.252 30.252 144.86 29.7544 144.37 29.3662C143.916 29.0173 143.403 28.7538 142.855 28.5886C142.35 28.432 141.828 28.3355 141.3 28.301C140.508 28.274 139.813 28.2672 139.213 28.2804C138.613 28.2937 138.245 28.3006 138.108 28.301C138.046 28.1718 138.005 28.0338 137.985 27.892C137.93 27.6461 137.848 27.2641 137.739 26.7458L142.406 26.7478ZM138.068 48.7248H138.15C138.157 49.0212 138.226 49.3129 138.353 49.5809C138.48 49.8488 138.662 50.087 138.887 50.28C139.309 50.6732 139.865 50.8924 140.442 50.8939H140.893L140.933 51.303H137.782L138.068 48.7248Z" fill="#D932C7"/>
<path d="M160.085 29.3262H159.962C159.967 29.0278 159.904 28.7321 159.776 28.4624C159.648 28.1926 159.46 27.956 159.225 27.771C158.732 27.3611 158.107 27.1431 157.466 27.1573H156.934V26.7478H160.085L160.085 29.3262ZM160.085 48.7249V51.3033H156.934V50.8942H157.465C158.11 50.9078 158.737 50.6818 159.225 50.2599C159.456 50.0762 159.642 49.8427 159.769 49.5769C159.897 49.3111 159.963 49.0199 159.962 48.7251L160.085 48.7249ZM164.75 26.7478V51.3033H159.962V26.7478H164.75ZM164.628 29.3262V26.7478H167.779L167.738 27.1573H167.288C166.639 27.136 166.005 27.3545 165.508 27.771C165.277 27.9609 165.091 28.1981 164.96 28.4664C164.829 28.7347 164.758 29.0279 164.75 29.3262H164.628ZM164.628 48.7249H164.75C164.762 49.0194 164.836 49.3081 164.966 49.5725C165.097 49.8368 165.281 50.0709 165.508 50.2597C166 50.6883 166.635 50.9149 167.288 50.894H167.779V51.303H164.628V48.7249Z" fill="#D932C7"/>
<path d="M173.427 48.6431V51.303H169.334V50.894H169.907C170.557 50.9046 171.191 50.6954 171.708 50.3004C171.967 50.1004 172.183 49.8508 172.345 49.5663C172.507 49.2817 172.61 48.9678 172.649 48.6429L173.427 48.6431ZM175.841 26.2161H176.169L177.396 29.6538L174.818 51.3035H172.281L175.841 26.2161ZM175.023 49.2573C175.008 49.633 175.108 50.0043 175.31 50.3213C175.528 50.7039 175.924 50.9085 176.497 50.9352H177.07V51.3035H174.655L174.819 49.2573H175.023ZM176.169 26.2161L187.996 45.4103L186.195 52.0001L175.268 33.9518L176.169 26.2161ZM198.186 26.2161L198.555 29.8994L188.037 47.8658C187.637 48.5979 187.288 49.3569 186.993 50.1372C186.771 50.7368 186.626 51.3626 186.564 51.9991H186.195L184.927 48.9297L198.186 26.2161ZM196.713 49.2573H196.959L197.123 51.3035H194.708V50.9352H195.281C195.908 50.9084 196.317 50.7037 196.508 50.3213C196.688 49.9976 196.76 49.6248 196.713 49.2573ZM198.555 26.2161L202.238 51.3035H197L194.749 34.4833L198.186 26.2161H198.555ZM201.01 48.6431H201.829C201.868 48.9681 201.971 49.2822 202.133 49.5668C202.294 49.8514 202.511 50.1009 202.77 50.3007C203.273 50.6913 203.893 50.9004 204.53 50.8942H205.144V51.3033H201.01L201.01 48.6431Z" fill="#D932C7"/>
<path d="M209.564 29.3261H209.482C209.476 29.0335 209.412 28.745 209.293 28.4778C209.173 28.2107 209.001 27.9702 208.787 27.7709C208.357 27.3641 207.783 27.1436 207.191 27.1572H206.659V26.7477H209.851L209.564 29.3261ZM209.564 48.7247L209.852 51.3032H206.659V50.8941H207.191C207.78 50.8994 208.347 50.6764 208.775 50.2719C209.202 49.8674 209.456 49.3129 209.483 48.725L209.564 48.7247ZM214.271 26.7477V51.3032H209.482V26.7477H214.271ZM224.625 26.7477V28.2621H214.189V26.7477H224.625ZM222.742 38.3297V39.8431H214.189V38.3289L222.742 38.3297ZM224.338 49.7889L224.952 51.3029H214.189V49.7889H224.338ZM226.835 44.3458L225.034 51.3032H218.24L219.55 49.7892C220.659 49.8208 221.76 49.5894 222.762 49.1139C223.647 48.6656 224.411 48.0133 224.993 47.2108C225.623 46.334 226.119 45.3685 226.466 44.346L226.835 44.3458ZM222.742 35.2605V38.4116H219.673V38.3297C220.518 38.3297 221.173 38.0705 221.638 37.5523C222.105 37.0227 222.354 36.3348 222.333 35.6286V35.2605H222.742ZM222.742 39.7624V42.9545H222.333V42.5862C222.354 41.88 222.106 41.1923 221.638 40.6627C221.386 40.3964 221.081 40.186 220.742 40.0449C220.404 39.9039 220.04 39.8354 219.673 39.8439V39.7622L222.742 39.7624ZM224.625 26.0933V27.1575L220.205 26.7479C221.055 26.7429 221.904 26.6676 222.742 26.5229C223.381 26.4354 224.011 26.2916 224.624 26.093L224.625 26.0933ZM224.625 28.1394V31.9864H224.175V31.5362C224.215 30.6695 223.922 29.8201 223.356 29.1627C222.81 28.5628 222.032 28.2627 221.023 28.2624V28.1394H224.625Z" fill="#D932C7"/>
<path d="M236.207 25.6014H230.682C230.396 24.7849 229.831 24.096 229.085 23.6573C228.479 23.2915 227.788 23.0872 227.08 23.064H226.753V22.6549H238.089V23.064H237.721C237.459 23.0668 237.2 23.1269 236.963 23.2399C236.726 23.353 236.517 23.5164 236.35 23.7186C235.954 24.1559 235.906 24.7834 236.207 25.6014ZM229.699 22.9003H235.224L242.141 43.3634L240.258 51.9577L229.699 22.9003ZM249.426 22L250.039 25.806L241.609 47.4148C241.32 48.2108 241.08 49.0241 240.892 49.8499C240.742 50.5437 240.653 51.2493 240.626 51.9586H240.258L239.276 47.4977L249.057 22.0012L249.426 22ZM249.426 22.0407L258.307 43.3222L256.711 51.9574L247.093 28.9571L249.426 22.0407ZM265.55 22.9003L257.856 47.4143C257.583 48.3966 257.385 49.2353 257.263 49.9304C257.143 50.599 257.081 51.2769 257.079 51.9562H256.71L255.769 47.9046L262.89 22.8989L265.55 22.9003ZM262.113 25.6014C262.33 24.7828 262.262 24.1553 261.908 23.7189C261.75 23.5118 261.545 23.3447 261.31 23.231C261.076 23.1173 260.818 23.0602 260.557 23.0642H260.189V22.6551H268.62V23.0642H268.293C267.572 23.0903 266.869 23.2941 266.246 23.6575C265.492 24.0749 264.932 24.7738 264.691 25.6016L262.113 25.6014Z" fill="#D932C7"/>
<path d="M272.302 29.3261H272.22C272.215 29.0335 272.15 28.745 272.031 28.4778C271.912 28.2107 271.74 27.9702 271.525 27.7709C271.095 27.3641 270.521 27.1436 269.929 27.1572H269.397V26.7477H272.59L272.302 29.3261ZM272.302 48.7247L272.59 51.3032H269.398V50.8941H269.929C270.518 50.8994 271.086 50.6764 271.513 50.2719C271.94 49.8674 272.194 49.3129 272.221 48.725L272.302 48.7247ZM277.008 26.7477V51.3032H272.22V26.7477H277.008ZM287.362 26.7477V28.2621H276.926V26.7477H287.362ZM285.48 38.3297V39.8431H276.926V38.3289L285.48 38.3297ZM287.076 49.7889L287.69 51.3029H276.926V49.7889H287.076ZM289.572 44.3458L287.772 51.3032H280.978L282.288 49.7892C283.397 49.8207 284.497 49.5893 285.5 49.1139C286.384 48.6658 287.149 48.0134 287.731 47.2108C288.361 46.3339 288.857 45.3685 289.204 44.346L289.572 44.3458ZM285.48 35.2605V38.4116H282.41V38.3297C283.256 38.3297 283.911 38.0705 284.375 37.5523C284.843 37.0227 285.092 36.3348 285.07 35.6286V35.2605H285.48ZM285.48 39.7624V42.9545H285.071V42.5862C285.092 41.88 284.843 41.1924 284.376 40.6627C284.124 40.3964 283.818 40.186 283.48 40.045C283.142 39.9039 282.777 39.8354 282.411 39.8439V39.7622L285.48 39.7624ZM287.362 26.0933V27.1575L282.942 26.7479C283.793 26.7429 284.642 26.6676 285.48 26.5229C286.119 26.4354 286.749 26.2916 287.363 26.093L287.362 26.0933ZM287.362 28.1394V31.9864H286.912V31.5362C286.953 30.6695 286.66 29.8201 286.094 29.1627C285.547 28.5628 284.77 28.2627 283.761 28.2624V28.1394H287.362Z" fill="#D932C7"/>
<path d="M295.18 29.3262H295.057C295.065 29.0353 295.011 28.746 294.898 28.4778C294.785 28.2095 294.616 27.9686 294.403 27.771C293.959 27.3589 293.371 27.1384 292.765 27.1573H292.274V26.7478H295.18V29.3262ZM295.18 48.7248V51.3032H292.274V50.8942H292.765C293.067 50.9032 293.367 50.8516 293.648 50.7427C293.929 50.6338 294.186 50.4696 294.403 50.2599C294.613 50.0639 294.78 49.8261 294.892 49.5618C295.005 49.2975 295.061 49.0124 295.057 48.7251L295.18 48.7248ZM299.805 26.7478V51.3032H295.058V26.7478H299.805ZM302.383 26.7478C303.397 26.7523 304.409 26.8276 305.412 26.973C306.432 27.1103 307.426 27.4 308.359 27.8326C309.245 28.243 310.002 28.8867 310.549 29.6945C311.108 30.5131 311.388 31.5772 311.388 32.8868C311.401 33.7631 311.175 34.6263 310.733 35.3833C310.324 36.0911 309.748 36.6882 309.056 37.1225C308.393 37.5379 307.656 37.8226 306.886 37.9612C308.059 38.0268 309.201 38.3631 310.222 38.9437C311.182 39.4837 311.997 40.2491 312.596 41.1741C313.192 42.123 313.498 43.2255 313.475 44.3459C313.475 45.6558 313.196 46.754 312.637 47.6405C312.081 48.5237 311.314 49.2549 310.406 49.7684C309.418 50.323 308.347 50.7167 307.234 50.9347C306.029 51.1821 304.802 51.3055 303.571 51.303H299.436C299.463 50.8119 299.477 50.3208 299.477 49.8298H302.425C303.403 49.8419 304.372 49.6466 305.269 49.2568C306.129 48.8746 306.845 48.2298 307.315 47.415C307.82 46.5696 308.072 45.4646 308.072 44.1C308.103 43.1534 307.907 42.2131 307.499 41.3582C307.137 40.6445 306.603 40.0325 305.944 39.5777C305.262 39.1161 304.498 38.7896 303.693 38.6159C302.806 38.4203 301.9 38.3239 300.992 38.3283V37.9602C301.66 37.9618 302.326 37.8863 302.977 37.735C303.597 37.5947 304.181 37.3302 304.696 36.9574C305.217 36.5686 305.632 36.055 305.903 35.4638C306.225 34.7293 306.379 33.9323 306.353 33.1308C306.353 31.33 305.91 30.0614 305.023 29.3247C304.136 28.5881 302.956 28.2198 301.483 28.2198H296.613C296.613 28.193 296.586 28.0564 296.531 27.8105C296.477 27.5647 296.394 27.2115 296.285 26.7463L302.383 26.7478Z" fill="#D932C7"/>
</g>
<defs>
<linearGradient id="paint0_linear_2859_4112" x1="27.0518" y1="39.4304" x2="78.9485" y2="39.4304" gradientUnits="userSpaceOnUse">
<stop stop-color="#6A05FE"/>
<stop offset="1" stop-color="#FD41B4"/>
</linearGradient>
<radialGradient id="paint1_radial_2859_4112" cx="0" cy="0" r="1" gradientUnits="userSpaceOnUse" gradientTransform="translate(603.856 92.2103) rotate(-31.8062) scale(17.5509 152.135)">
<stop stop-color="#FCD941"/>
<stop offset="1" stop-color="#F37B46"/>
</radialGradient>
<linearGradient id="paint2_linear_2859_4112" x1="38.8428" y1="36.9445" x2="38.8448" y2="36.9445" gradientUnits="userSpaceOnUse">
<stop stop-color="white"/>
<stop offset="0.48" stop-color="#231F20"/>
<stop offset="1" stop-color="#231F20"/>
</linearGradient>
<linearGradient id="paint3_linear_2859_4112" x1="38.8428" y1="36.9445" x2="38.8448" y2="36.9445" gradientUnits="userSpaceOnUse">
<stop stop-color="white"/>
<stop offset="0.48" stop-color="#231F20"/>
<stop offset="1" stop-color="#231F20"/>
</linearGradient>
<linearGradient id="paint4_linear_2859_4112" x1="46.7364" y1="72.4239" x2="59.2644" y2="1.57654" gradientUnits="userSpaceOnUse">
<stop stop-color="#6A05FE"/>
<stop offset="1" stop-color="#FD41B4"/>
</linearGradient>
<linearGradient id="paint5_linear_2859_4112" x1="13.1017" y1="47.8973" x2="60.6318" y2="25.4361" gradientUnits="userSpaceOnUse">
<stop stop-color="#6A05FE"/>
<stop offset="1" stop-color="#FD41B4"/>
</linearGradient>
<linearGradient id="paint6_linear_2859_4112" x1="18.2246" y1="15.358" x2="79.9983" y2="15.358" gradientUnits="userSpaceOnUse">
<stop stop-color="#6A05FE"/>
<stop offset="1" stop-color="#FD41B4"/>
</linearGradient>
<linearGradient id="paint7_linear_2859_4112" x1="54.9821" y1="22.5916" x2="70.1187" y2="-10.9831" gradientUnits="userSpaceOnUse">
<stop stop-color="#E035C3"/>
<stop offset="1" stop-color="#A51DE0"/>
</linearGradient>
<linearGradient id="paint8_linear_2859_4112" x1="27.0518" y1="27.4157" x2="75.1825" y2="27.4157" gradientUnits="userSpaceOnUse">
<stop stop-color="#FD41B4"/>
<stop offset="1" stop-color="#6A05FE"/>
</linearGradient>
<linearGradient id="paint9_linear_2859_4112" x1="55.9063" y1="54.9507" x2="48.3834" y2="21.851" gradientUnits="userSpaceOnUse">
<stop offset="0.142" stop-color="#F37B46"/>
<stop offset="1" stop-color="#FCD941"/>
</linearGradient>
<clipPath id="clip0_2859_4112">
<rect width="296.476" height="71.9999" fill="white" transform="translate(17 1)"/>
</clipPath>
</defs>
</svg>
