<svg width="330" height="74" viewBox="0 0 330 74" fill="none" xmlns="http://www.w3.org/2000/svg">
<g clip-path="url(#clip0_2859_4117)">
<path d="M52.5023 39.0786C51.6173 39.0786 50.9004 38.3618 50.9004 37.4767C50.9004 22.4703 63.1073 10.2634 78.1137 10.2634C78.9987 10.2634 79.7156 10.9803 79.7156 11.8654C79.7156 12.7505 78.9987 13.4673 78.1137 13.4673C64.8735 13.4673 54.1043 24.2365 54.1043 37.4767C54.1043 38.3618 53.3874 39.0786 52.5023 39.0786Z" fill="url(#paint0_linear_2859_4117)"/>
<path d="M82.9836 1C61.4533 1 44 17.1157 44 37C44 56.8843 61.4533 73 82.9836 73C104.514 73 121.971 56.8803 121.971 37C121.971 17.1197 104.518 1 82.9836 1ZM117.814 29.4628H112.996C112.852 28.79 112.688 28.1211 112.504 27.4603H117.221C117.442 28.1171 117.638 28.786 117.814 29.4628ZM113 19.1622C113.461 19.811 113.901 20.4798 114.314 21.1646H110.057C109.716 20.4838 109.348 19.815 108.959 19.1622H113ZM104.574 10.8641C105.479 11.4928 106.352 12.1616 107.185 12.8665H104.198C103.537 12.1697 102.844 11.5008 102.127 10.8641H104.574ZM79.1069 68.2222C61.7297 68.2222 47.6445 54.1369 47.6445 36.7597C47.6445 19.3825 61.7297 5.29725 79.1069 5.29725C96.4841 5.29725 110.565 19.3825 110.565 36.7597C110.565 54.1369 96.4801 68.2222 79.1069 68.2222ZM105.247 62.6554H102.127C102.844 62.0186 103.537 61.3498 104.198 60.6529H107.746C106.949 61.3578 106.116 62.0266 105.247 62.6554ZM113.329 54.3572H108.959C109.348 53.7044 109.716 53.0356 110.057 52.3548H114.594C114.202 53.0356 113.777 53.7044 113.329 54.3572ZM117.378 46.0591H112.504C112.688 45.3983 112.852 44.7335 112.996 44.0566H117.93C117.77 44.7335 117.586 45.3983 117.378 46.0591ZM113.753 37.7609C113.765 37.4285 113.769 37.0961 113.769 36.7597C113.769 36.4233 113.765 36.0909 113.753 35.7585H118.739C118.759 36.171 118.767 36.5835 118.767 37C118.767 37.2563 118.763 37.5086 118.755 37.7609H113.753Z" fill="url(#paint1_linear_2859_4117)"/>
<path d="M89.2591 52.8636L86.5478 51.2937C87.7012 50.685 88.7145 49.896 89.5915 48.9308C91.9624 46.3116 93.1479 42.7072 93.1479 38.1176C93.1479 33.528 91.9624 29.9196 89.5915 27.2924C87.2166 24.6652 83.8325 23.3516 79.4391 23.3516C75.0458 23.3516 71.6977 24.6652 69.3107 27.2924C66.9238 29.9196 65.7344 33.528 65.7344 38.1176C65.7344 42.7072 66.9238 46.3116 69.3107 48.9308C71.6977 51.55 75.0738 52.8636 79.4391 52.8636C79.8196 52.8636 80.1961 52.8556 80.5605 52.8316L87.497 56.44C87.8254 56.6242 88.1698 56.7123 88.5342 56.7123C89.0549 56.7123 89.5074 56.5081 89.8919 56.0996C90.2764 55.6871 90.4686 55.1945 90.4686 54.6218C90.4686 53.8929 90.0681 53.3042 89.2591 52.8636ZM79.4391 48.4422C76.8079 48.4422 74.8495 47.5531 73.5639 45.775C72.2824 43.9928 71.6376 41.4417 71.6376 38.1176C71.6376 34.7935 72.2824 32.2745 73.576 30.4803C74.8655 28.6901 76.8199 27.793 79.4391 27.793C82.0583 27.793 84.0327 28.6861 85.3183 30.4723C86.5999 32.2584 87.2447 34.8056 87.2447 38.1176C87.2447 41.4297 86.5999 43.9928 85.3063 45.775C84.0167 47.5531 82.0623 48.4422 79.4391 48.4422Z" fill="url(#paint2_linear_2859_4117)"/>
<path d="M143.217 48.9308C140.83 46.3116 139.637 42.7072 139.637 38.1176C139.637 33.528 140.83 29.9196 143.217 27.2924C145.604 24.6652 148.98 23.3516 153.345 23.3516C157.711 23.3516 161.123 24.6652 163.494 27.2924C165.865 29.9196 167.054 33.528 167.054 38.1176C167.054 42.7072 165.869 46.3116 163.494 48.9308C161.123 51.55 157.739 52.8596 153.345 52.8596C148.952 52.8596 145.6 51.55 143.217 48.9308ZM159.213 45.775C160.502 43.9968 161.147 41.4417 161.147 38.1176C161.147 34.7935 160.506 32.2584 159.221 30.4723C157.935 28.6861 155.977 27.793 153.345 27.793C150.714 27.793 148.768 28.6901 147.478 30.4803C146.189 32.2745 145.544 34.8176 145.544 38.1176C145.544 41.4176 146.185 43.9928 147.47 45.775C148.756 47.5531 150.714 48.4462 153.345 48.4462C155.977 48.4462 157.923 47.5571 159.213 45.775ZM161.403 56.44L151.784 51.4339L157.923 49.8319L163.165 52.8636C163.974 53.3082 164.379 53.8929 164.379 54.6218C164.379 55.1945 164.187 55.6871 163.802 56.0996C163.418 56.5121 162.965 56.7163 162.445 56.7163C162.08 56.7163 161.736 56.6242 161.407 56.444L161.403 56.44Z" fill="url(#paint3_linear_2859_4117)"/>
<path d="M171.776 37.4446C172.525 35.9668 173.642 34.7694 175.128 33.8562C176.614 32.9431 178.34 32.4866 180.31 32.4866C181.824 32.4866 183.162 32.7389 184.327 33.2395C185.493 33.7401 186.434 34.437 187.143 35.322C187.852 36.2071 188.392 37.2043 188.757 38.3137C189.121 39.423 189.309 40.6205 189.325 41.9101C189.325 42.4187 189.209 42.8272 188.973 43.1436C188.737 43.46 188.388 43.6122 187.916 43.6122H175.556C175.765 47.2887 177.647 49.1269 181.207 49.1269C182.825 49.1269 184.551 48.4701 186.39 47.1525C186.626 46.9683 186.878 46.8802 187.151 46.8802C187.555 46.8802 187.912 47.0644 188.228 47.4288C188.54 47.7933 188.697 48.2058 188.697 48.6623C188.697 49.183 188.488 49.6275 188.072 49.992C186.013 51.7261 183.606 52.5911 180.855 52.5911C177.767 52.5911 175.292 51.69 173.434 49.8918C171.576 48.0936 170.646 45.5826 170.646 42.3626C170.646 40.5644 171.023 38.9264 171.772 37.4446H171.776ZM185.144 40.8568C185.04 39.359 184.608 38.1255 183.843 37.1603C183.082 36.1951 181.948 35.7145 180.45 35.7145C178.953 35.7145 177.847 36.2151 177.018 37.2204C176.189 38.2256 175.717 39.4351 175.601 40.8568H185.144Z" fill="url(#paint4_linear_2859_4117)"/>
<path d="M193.855 51.0933C192.585 50.1081 191.948 48.7384 191.948 46.9763C191.948 46.1953 192.028 45.5065 192.193 44.9138C192.357 44.321 192.585 43.8084 192.877 43.3799C193.17 42.9514 193.586 42.5829 194.119 42.2865C194.652 41.9862 195.22 41.7419 195.821 41.5537C196.422 41.3654 197.179 41.2172 198.1 41.1131C199.017 41.009 199.946 40.9409 200.887 40.9089C201.824 40.8768 202.962 40.8608 204.291 40.8608V39.355C204.291 38.1295 204.003 37.2324 203.422 36.6677C202.842 36.099 201.976 35.8186 200.831 35.8186C200.583 35.8186 200.33 35.8267 200.078 35.8467C199.826 35.8667 199.566 35.8987 199.305 35.9428C199.045 35.9868 198.817 36.0269 198.62 36.0589C198.424 36.091 198.192 36.147 197.916 36.2271C197.639 36.3072 197.431 36.3633 197.291 36.4034C197.147 36.4434 196.938 36.5115 196.666 36.6076C196.394 36.7037 196.217 36.7678 196.137 36.7918C196.057 36.8199 195.885 36.8879 195.609 36.9961C195.336 37.1082 195.192 37.1643 195.18 37.1643C195.036 37.2284 194.856 37.2604 194.632 37.2604C194.175 37.2604 193.786 37.0682 193.466 36.6837C193.146 36.2992 192.986 35.8667 192.986 35.3821C192.986 34.7453 193.274 34.2888 193.847 34.0124C196.009 32.9952 198.416 32.4866 201.063 32.4866C202.261 32.4866 203.338 32.6227 204.291 32.8991C205.244 33.1714 206.082 33.5959 206.814 34.1686C207.543 34.7413 208.108 35.5183 208.504 36.4955C208.901 37.4727 209.101 38.6261 209.101 39.9557V49.8878C209.101 50.6688 208.873 51.2775 208.416 51.7061C207.96 52.1346 207.411 52.3508 206.774 52.3508C206.138 52.3508 205.585 52.1346 205.12 51.7061C204.656 51.2775 204.427 50.6688 204.427 49.8878V49.2431C204.011 50.2323 203.334 51.0372 202.405 51.658C201.472 52.2788 200.25 52.5871 198.737 52.5871C196.754 52.5751 195.128 52.0745 193.859 51.0893L193.855 51.0933ZM202.761 47.9535C203.767 46.9242 204.267 45.6186 204.267 44.0407V43.472C202.962 43.472 201.932 43.492 201.168 43.5321C200.403 43.5721 199.682 43.6482 198.997 43.7563C198.312 43.8685 197.807 44.0447 197.483 44.285C197.159 44.5253 196.902 44.8377 196.722 45.2221C196.538 45.6066 196.45 46.0992 196.45 46.6999C196.45 47.6131 196.714 48.3059 197.243 48.7825C197.771 49.2591 198.472 49.4954 199.345 49.4954C200.623 49.4954 201.764 48.9787 202.765 47.9495L202.761 47.9535Z" fill="url(#paint5_linear_2859_4117)"/>
<path d="M214.953 51.6621C214.488 51.1975 214.26 50.5367 214.26 49.6756V35.0858C214.26 34.3409 214.504 33.7642 214.993 33.3557C215.481 32.9472 216.066 32.7389 216.743 32.7389C217.42 32.7389 217.984 32.9392 218.473 33.3357C218.962 33.7321 219.198 34.2768 219.186 34.9696L219.126 36.9841C219.478 35.8107 220.147 34.8054 221.128 33.9644C222.113 33.1234 223.219 32.7029 224.444 32.7029C225.045 32.7029 225.506 32.9031 225.834 33.3076C226.158 33.7121 226.323 34.2007 226.323 34.7734C226.323 35.3461 226.17 35.8027 225.874 36.2192C225.574 36.6357 225.169 36.8439 224.66 36.8439C223.892 36.8439 223.211 36.908 222.618 37.0282C222.025 37.1523 221.453 37.3686 220.908 37.685C220.363 38.0014 219.935 38.4739 219.638 39.1107C219.338 39.7515 219.19 40.5324 219.19 41.4576V49.7117C219.19 50.5607 218.958 51.2095 218.497 51.6661C218.032 52.1226 217.436 52.3509 216.707 52.3509C215.978 52.3509 215.421 52.1186 214.957 51.658L214.953 51.6621Z" fill="url(#paint6_linear_2859_4117)"/>
<path d="M230.079 51.6421C229.623 51.1656 229.395 50.5047 229.395 49.6557V35.206C229.395 34.4251 229.631 33.8163 230.099 33.3878C230.568 32.9593 231.161 32.743 231.878 32.743C232.594 32.743 233.163 32.9553 233.62 33.3798C234.076 33.8043 234.305 34.4011 234.305 35.17V35.8548C234.877 34.7455 235.714 33.9045 236.816 33.3318C237.917 32.7591 239.231 32.4707 240.756 32.4707C241.694 32.4707 242.579 32.6229 243.408 32.9313C244.237 33.2396 244.974 33.6882 245.626 34.2809C246.279 34.8736 246.792 35.6586 247.172 36.6358C247.549 37.613 247.741 38.7263 247.741 39.9799V49.6597C247.741 50.5087 247.505 51.1696 247.036 51.6461C246.568 52.1227 245.967 52.359 245.238 52.359C244.545 52.359 243.972 52.1227 243.516 51.6461C243.059 51.1696 242.831 50.5087 242.831 49.6597V39.9599C242.831 38.6182 242.483 37.589 241.786 36.8801C241.089 36.1712 240.2 35.8148 239.114 35.8148C237.809 35.8148 236.683 36.3314 235.73 37.3607C234.777 38.3899 234.305 39.7316 234.305 41.3896V49.6597C234.305 50.5087 234.072 51.1696 233.612 51.6461C233.147 52.1227 232.558 52.359 231.842 52.359C231.125 52.359 230.536 52.1227 230.083 51.6461L230.079 51.6421Z" fill="url(#paint7_linear_2859_4117)"/>
<path d="M252.851 37.4446C253.6 35.9668 254.717 34.7694 256.203 33.8562C257.689 32.9431 259.415 32.4866 261.385 32.4866C262.899 32.4866 264.237 32.7389 265.402 33.2395C266.568 33.7401 267.509 34.437 268.218 35.322C268.927 36.2071 269.467 37.2043 269.832 38.3137C270.196 39.423 270.384 40.6205 270.401 41.9101C270.401 42.4187 270.284 42.8272 270.048 43.1436C269.812 43.46 269.463 43.6122 268.991 43.6122H256.632C256.84 47.2887 258.722 49.1269 262.283 49.1269C263.901 49.1269 265.627 48.4701 267.465 47.1525C267.701 46.9683 267.954 46.8802 268.226 46.8802C268.63 46.8802 268.987 47.0644 269.303 47.4288C269.616 47.7933 269.772 48.2058 269.772 48.6623C269.772 49.183 269.563 49.6275 269.147 49.992C267.088 51.7261 264.682 52.5911 261.93 52.5911C258.842 52.5911 256.367 51.69 254.509 49.8918C252.651 48.0936 251.722 45.5826 251.722 42.3626C251.722 40.5644 252.098 38.9264 252.847 37.4446H252.851ZM266.219 40.8568C266.115 39.359 265.683 38.1255 264.918 37.1603C264.157 36.1951 263.024 35.7145 261.526 35.7145C260.028 35.7145 258.922 36.2151 258.093 37.2204C257.264 38.2256 256.792 39.4351 256.676 40.8568H266.219Z" fill="url(#paint8_linear_2859_4117)"/>
<path d="M274.95 51.6621C274.485 51.1975 274.257 50.5367 274.257 49.6756V35.0858C274.257 34.3409 274.501 33.7642 274.99 33.3557C275.478 32.9432 276.063 32.7389 276.74 32.7389C277.417 32.7389 277.981 32.9392 278.47 33.3357C278.959 33.7321 279.195 34.2768 279.183 34.9696L279.123 36.9841C279.475 35.8107 280.144 34.8054 281.125 33.9644C282.11 33.1234 283.216 32.7029 284.441 32.7029C285.042 32.7029 285.503 32.9031 285.831 33.3076C286.155 33.7121 286.32 34.2007 286.32 34.7734C286.32 35.3461 286.167 35.8027 285.871 36.2192C285.571 36.6357 285.166 36.8439 284.658 36.8439C283.889 36.8439 283.208 36.908 282.615 37.0282C282.022 37.1523 281.45 37.3686 280.905 37.685C280.36 38.0014 279.932 38.4739 279.635 39.1107C279.335 39.7515 279.187 40.5324 279.187 41.4576V49.7117C279.187 50.5607 278.955 51.2095 278.494 51.6661C278.029 52.1226 277.433 52.3509 276.704 52.3509C275.975 52.3509 275.418 52.1186 274.954 51.658L274.95 51.6621Z" fill="url(#paint9_linear_2859_4117)"/>
</g>
<defs>
<linearGradient id="paint0_linear_2859_4117" x1="46.523" y1="20.6922" x2="276.488" y2="69.4077" gradientUnits="userSpaceOnUse">
<stop stop-color="#1AFE83"/>
<stop offset="0.5" stop-color="#11C56E"/>
<stop offset="1" stop-color="#039799"/>
</linearGradient>
<linearGradient id="paint1_linear_2859_4117" x1="44.785" y1="28.9061" x2="274.75" y2="77.6216" gradientUnits="userSpaceOnUse">
<stop stop-color="#1AFE83"/>
<stop offset="0.5" stop-color="#11C56E"/>
<stop offset="1" stop-color="#039799"/>
</linearGradient>
<linearGradient id="paint2_linear_2859_4117" x1="44.2481" y1="31.4254" x2="274.213" y2="80.141" gradientUnits="userSpaceOnUse">
<stop stop-color="#1AFE83"/>
<stop offset="0.5" stop-color="#11C56E"/>
<stop offset="1" stop-color="#039799"/>
</linearGradient>
<linearGradient id="paint3_linear_2859_4117" x1="47.424" y1="16.4431" x2="277.389" y2="65.1587" gradientUnits="userSpaceOnUse">
<stop stop-color="#1AFE83"/>
<stop offset="0.5" stop-color="#11C56E"/>
<stop offset="1" stop-color="#039799"/>
</linearGradient>
<linearGradient id="paint4_linear_2859_4117" x1="47.8484" y1="14.4405" x2="277.813" y2="63.156" gradientUnits="userSpaceOnUse">
<stop stop-color="#1AFE83"/>
<stop offset="0.5" stop-color="#11C56E"/>
<stop offset="1" stop-color="#039799"/>
</linearGradient>
<linearGradient id="paint5_linear_2859_4117" x1="48.6892" y1="10.4677" x2="278.654" y2="59.1832" gradientUnits="userSpaceOnUse">
<stop stop-color="#1AFE83"/>
<stop offset="0.5" stop-color="#11C56E"/>
<stop offset="1" stop-color="#039799"/>
</linearGradient>
<linearGradient id="paint6_linear_2859_4117" x1="49.5705" y1="6.31063" x2="279.536" y2="55.0262" gradientUnits="userSpaceOnUse">
<stop stop-color="#1AFE83"/>
<stop offset="0.5" stop-color="#11C56E"/>
<stop offset="1" stop-color="#039799"/>
</linearGradient>
<linearGradient id="paint7_linear_2859_4117" x1="50.2836" y1="2.94662" x2="280.249" y2="51.6622" gradientUnits="userSpaceOnUse">
<stop stop-color="#1AFE83"/>
<stop offset="0.5" stop-color="#11C56E"/>
<stop offset="1" stop-color="#039799"/>
</linearGradient>
<linearGradient id="paint8_linear_2859_4117" x1="51.3287" y1="-1.99558" x2="281.294" y2="46.72" gradientUnits="userSpaceOnUse">
<stop stop-color="#1AFE83"/>
<stop offset="0.5" stop-color="#11C56E"/>
<stop offset="1" stop-color="#039799"/>
</linearGradient>
<linearGradient id="paint9_linear_2859_4117" x1="52.1454" y1="-5.85625" x2="282.11" y2="42.8593" gradientUnits="userSpaceOnUse">
<stop stop-color="#1AFE83"/>
<stop offset="0.5" stop-color="#11C56E"/>
<stop offset="1" stop-color="#039799"/>
</linearGradient>
<clipPath id="clip0_2859_4117">
<rect width="242.32" height="72" fill="white" transform="translate(44 1)"/>
</clipPath>
</defs>
</svg>
