<svg width="330" height="74" viewBox="0 0 330 74" fill="none" xmlns="http://www.w3.org/2000/svg">
<path fill-rule="evenodd" clip-rule="evenodd" d="M80.9262 68.548C85.2341 66.2987 90.1223 66.4663 94.2863 68.9163C94.4138 68.9918 94.5577 68.9918 94.6837 68.9163C94.8111 68.8439 94.8831 68.7156 94.8831 68.5706V58.4444C94.8831 58.3372 94.8486 58.2467 94.7766 58.1712C89.5975 52.6703 81.538 51.0792 74.6915 54.1768C74.4951 54.2674 74.4036 54.4984 74.4891 54.7022L80.3774 68.3502C80.4239 68.4544 80.5019 68.5299 80.6113 68.5706C80.7148 68.6084 80.8243 68.5993 80.9262 68.548ZM110.034 68.548C105.726 66.2987 100.834 66.4663 96.6734 68.9163C96.546 68.9918 96.402 68.9918 96.2761 68.9163C96.1486 68.8439 96.0767 68.7156 96.0767 68.5706V58.4444C96.0767 58.3372 96.1111 58.2467 96.1861 58.1712C101.362 52.6703 109.422 51.0792 116.268 54.1768C116.465 54.2674 116.556 54.4984 116.471 54.7022L110.582 68.3502C110.536 68.4544 110.458 68.5299 110.351 68.5706C110.242 68.6084 110.135 68.5993 110.034 68.548Z" fill="#56CC99"/>
<path fill-rule="evenodd" clip-rule="evenodd" d="M97.7655 72.1893C101.142 69.2396 105.765 69.8585 109.526 71.67C109.65 71.7304 109.788 71.7228 109.906 71.6474C110.028 71.5749 110.094 71.4526 110.094 71.3107V70.1755C110.094 70.0276 110.022 69.8993 109.889 69.8238C105.516 67.3496 100.452 67.6636 96.332 70.5559C95.9601 70.8201 95.005 70.8201 94.6301 70.5559C90.5096 67.6651 85.449 67.3511 81.0736 69.8238C80.9431 69.8993 80.8682 70.0276 80.8682 70.1755V71.3107C80.8682 71.4526 80.9341 71.5749 81.0556 71.6474C81.1741 71.7228 81.312 71.7319 81.4395 71.67C85.1971 69.8585 89.8199 69.2396 93.1966 72.1893C93.1996 72.1923 93.2056 72.1953 93.2086 72.1984C94.5236 73.2671 96.4384 73.2671 97.7535 72.1984C97.7565 72.1953 97.7625 72.1923 97.7655 72.1893Z" fill="#215679"/>
<path fill-rule="evenodd" clip-rule="evenodd" d="M111.32 69.6494L116.037 58.711C116.112 58.5374 116.296 58.4408 116.484 58.4786C116.668 58.5193 116.799 58.6793 116.799 58.8711V62.4593C116.799 62.5288 116.784 62.5907 116.752 62.651L112.032 71.3749C111.942 71.5379 111.763 71.6194 111.585 71.5726C111.41 71.5258 111.288 71.3688 111.288 71.1832V69.8095C111.288 69.7521 111.297 69.7023 111.32 69.6494Z" fill="#215679"/>
<path fill-rule="evenodd" clip-rule="evenodd" d="M79.645 69.6494L74.9277 58.711C74.8528 58.5374 74.6683 58.4408 74.4839 58.4786C74.2965 58.5193 74.166 58.6793 74.166 58.8711V62.4593C74.166 62.5288 74.181 62.5907 74.2155 62.651L78.9328 71.3749C79.0227 71.5379 79.2012 71.6194 79.3796 71.5726C79.555 71.5258 79.6795 71.3688 79.6795 71.1832V69.8095C79.6795 69.7521 79.6675 69.7023 79.645 69.6494Z" fill="#215679"/>
<path fill-rule="evenodd" clip-rule="evenodd" d="M59.6251 19.4614C75.0214 28.1189 85.5371 22.2134 91.178 1.74959C91.3099 1.25596 91.7838 0.938949 92.2876 1.0099C92.7929 1.07632 93.1648 1.49749 93.1723 2.00622C93.5471 26.9882 80.259 49.6967 59.5306 61.8111C59.0868 62.0692 58.5305 61.959 58.2156 61.5529C57.8977 61.1408 57.9352 60.5657 58.3026 60.2004C65.1191 53.3695 67.9395 46.0451 66.761 38.23C66.7295 38.0066 66.8389 37.7937 67.0429 37.6926C67.2453 37.5945 67.4777 37.6367 67.6336 37.8028C69.0056 39.2656 70.3581 40.7465 71.6941 42.25C71.8621 42.4327 72.126 42.4734 72.3404 42.3436C72.5503 42.2123 72.6373 41.9541 72.5473 41.7201C69.5199 33.9775 65.0816 28.383 58.3341 20.9997C57.5813 20.1755 58.6519 18.918 59.6236 19.4645L59.6251 19.4614Z" fill="#215679"/>
<path fill-rule="evenodd" clip-rule="evenodd" d="M78.633 15.7131C76.8487 18.2356 73.3699 18.8228 70.8673 17.0249C68.3648 15.2285 67.7815 11.7294 69.5673 9.20685C71.3517 6.68737 74.8274 6.10014 77.33 7.89805C79.8356 9.69293 80.4188 13.1936 78.633 15.7131Z" fill="#215679"/>
<path fill-rule="evenodd" clip-rule="evenodd" d="M131.337 19.4614C115.941 28.1189 105.424 22.2134 99.7872 1.74959C99.6523 1.25596 99.1784 0.938949 98.6746 1.0099C98.1693 1.07632 97.7975 1.49749 97.79 2.00622C97.4151 26.9882 110.703 49.6967 131.432 61.8111C131.878 62.0692 132.432 61.959 132.747 61.5529C133.064 61.1408 133.027 60.5657 132.66 60.2004C125.843 53.3695 123.026 46.0451 124.201 38.23C124.233 38.0066 124.123 37.7937 123.919 37.6926C123.72 37.5945 123.485 37.6367 123.332 37.8028C121.96 39.2656 120.604 40.7465 119.268 42.25C119.103 42.4327 118.836 42.4734 118.622 42.3436C118.412 42.2123 118.325 41.9541 118.416 41.7201C121.441 33.9775 125.882 28.383 132.627 20.9997C133.379 20.1755 132.309 18.918 131.337 19.4645V19.4614Z" fill="#215679"/>
<path fill-rule="evenodd" clip-rule="evenodd" d="M112.331 15.7131C114.115 18.2356 117.594 18.8228 120.096 17.0249C122.599 15.2285 123.185 11.7294 121.396 9.20685C119.614 6.68737 116.136 6.10014 113.634 7.89805C111.128 9.69293 110.545 13.1936 112.331 15.7131Z" fill="#215679"/>
<path fill-rule="evenodd" clip-rule="evenodd" d="M96.2387 33.1726L97.873 38.2705C97.9825 38.6071 98.2794 38.8275 98.6318 38.8245L103.958 38.8154C104.307 38.8154 104.61 39.0328 104.717 39.3694C104.826 39.7061 104.711 40.0608 104.426 40.2661L100.115 43.4076C99.8298 43.6159 99.7144 43.9706 99.8238 44.3073L101.479 49.4021C101.589 49.7387 101.473 50.0935 101.191 50.2988C100.906 50.5071 100.536 50.5071 100.251 50.2988L95.9523 47.1407C95.6674 46.9324 95.297 46.9324 95.0121 47.1407L90.7132 50.2988C90.4313 50.5071 90.0579 50.5071 89.773 50.2988C89.4911 50.092 89.3757 49.7387 89.4881 49.4021L91.1405 44.3073C91.25 43.9706 91.1345 43.6159 90.8496 43.4076L86.5387 40.2661C86.2538 40.0593 86.1384 39.7061 86.2478 39.3694C86.3573 39.0328 86.6542 38.8154 87.0065 38.8154L92.3326 38.8245C92.685 38.8275 92.9818 38.6071 93.0913 38.2705L94.7257 33.1726C94.8352 32.836 95.1321 32.6156 95.4844 32.6156C95.8368 32.6156 96.1337 32.836 96.2431 33.1726H96.2387Z" fill="#56CC99"/>
<path d="M161.343 32.6729C161.343 33.2435 161.096 33.5288 160.6 33.5288H149.298V33.5998C149.298 34.0949 149.357 34.578 149.475 35.049C149.594 35.52 149.795 35.9321 150.078 36.2853C150.361 36.6386 150.733 36.9224 151.194 37.1337C151.654 37.3466 152.239 37.4522 152.946 37.4522C153.513 37.4522 154.116 37.4402 154.753 37.416C155.391 37.3934 156.022 37.3692 156.649 37.345C157.274 37.3209 157.859 37.2922 158.403 37.256C158.946 37.2198 159.396 37.179 159.749 37.1307H159.856C160.304 37.1307 160.529 37.3224 160.529 37.7028V40.4336C160.529 40.722 160.481 40.9363 160.387 41.0797C160.292 41.2232 160.091 41.3318 159.784 41.4028C158.65 41.6911 157.539 41.9055 156.454 42.0489C155.367 42.1923 154.056 42.2648 152.521 42.2648C151.458 42.2648 150.394 42.1093 149.333 41.8013C148.27 41.4934 147.313 40.9816 146.463 40.2676C145.613 39.5536 144.927 38.6086 144.409 37.4326C143.888 36.2551 143.629 34.8105 143.629 33.0986V30.6018C143.629 29.1752 143.83 27.88 144.232 26.7146C144.634 25.5507 145.217 24.5635 145.985 23.7543C146.752 22.9467 147.691 22.3217 148.801 21.8825C149.91 21.4432 151.174 21.2228 152.591 21.2228C154.008 21.2228 155.301 21.4613 156.4 21.9353C157.497 22.4108 158.413 23.0645 159.145 23.8977C159.877 24.7295 160.426 25.7168 160.793 26.858C161.159 27.9993 161.342 29.2477 161.342 30.6033V32.6714L161.343 32.6729ZM155.746 29.8198C155.746 28.4884 155.463 27.4966 154.896 26.8414C154.329 26.1878 153.549 25.8602 152.558 25.8602C151.567 25.8602 150.775 26.1938 150.184 26.8595C149.594 27.5253 149.298 28.5125 149.298 29.8198V29.9617H155.746V29.8198Z" fill="#212121"/>
<path d="M182.28 34.456C182.28 35.407 182.115 36.346 181.784 37.2744C181.453 38.2013 180.904 39.0345 180.136 39.7712C179.368 40.5079 178.37 41.1087 177.143 41.5721C175.915 42.0356 174.404 42.2681 172.609 42.2681C171.192 42.2681 169.946 42.1971 168.871 42.0537C167.796 41.9103 166.81 41.7216 165.912 41.4831C165.723 41.4363 165.558 41.3533 165.416 41.234C165.273 41.1147 165.203 40.9608 165.203 40.7706V37.2759C165.203 37.0147 165.261 36.8366 165.38 36.7415C165.498 36.6464 165.651 36.5981 165.84 36.5981H165.947C166.301 36.6464 166.791 36.6932 167.416 36.7415C168.041 36.7898 168.685 36.8306 169.347 36.8668C170.009 36.903 170.64 36.9377 171.243 36.974C171.846 37.0102 172.324 37.0268 172.678 37.0268C173.906 37.0268 174.738 36.8245 175.176 36.42C175.612 36.0154 175.831 35.3859 175.831 34.53C175.831 34.0077 175.672 33.5608 175.353 33.1925C175.033 32.8242 174.414 32.3668 173.493 31.8188L168.605 28.8947C167.779 28.3951 167.1 27.8848 166.569 27.361C166.038 26.8387 165.612 26.2907 165.293 25.7201C164.974 25.1495 164.75 24.5607 164.62 23.9539C164.489 23.347 164.425 22.7236 164.425 22.082C164.425 21.1068 164.572 20.1981 164.867 19.3542C165.163 18.5104 165.665 17.7737 166.373 17.1427C167.082 16.5132 168.014 16.0196 169.172 15.6633C170.33 15.307 171.771 15.1289 173.493 15.1289C174.131 15.1289 174.822 15.1531 175.566 15.1999C176.309 15.2482 177.023 15.307 177.708 15.378C178.394 15.4489 179.031 15.5335 179.622 15.6271C180.211 15.7222 180.673 15.8173 181.003 15.9124C181.145 15.9607 181.268 16.0316 181.375 16.1267C181.481 16.2218 181.534 16.3652 181.534 16.5539V20.1558C181.534 20.3218 181.492 20.4653 181.409 20.5845C181.327 20.7038 181.166 20.7626 180.931 20.7626H180.86C180.601 20.74 180.181 20.7098 179.602 20.6736C179.023 20.6373 178.368 20.5966 177.636 20.5483C176.905 20.5015 176.153 20.4592 175.387 20.423C174.62 20.3868 173.94 20.3702 173.351 20.3702C172.336 20.3702 171.621 20.5256 171.208 20.8336C170.794 21.1431 170.589 21.6186 170.589 22.2601C170.589 22.5213 170.625 22.7477 170.696 22.9379C170.766 23.1281 170.89 23.3123 171.067 23.4904C171.244 23.6686 171.486 23.8588 171.793 24.0611C172.099 24.2633 172.489 24.4958 172.963 24.757L177.497 27.2176C179.34 28.2169 180.596 29.3099 181.27 30.4994C181.943 31.6889 182.279 33.0083 182.279 34.459L182.28 34.456Z" fill="#212121"/>
<path d="M199.072 40.9119C199.072 41.1745 199.014 41.3572 198.895 41.4644C198.777 41.5715 198.588 41.6606 198.329 41.7316C197.832 41.8508 197.189 41.9686 196.397 42.0878C195.606 42.2071 194.679 42.2659 193.616 42.2659C191.112 42.2659 189.11 41.493 187.611 39.9472C186.111 38.4014 185.361 36.1673 185.361 33.2417V30.2452C185.361 27.3211 186.111 25.0855 187.611 23.5397C189.11 21.9939 191.112 21.2209 193.616 21.2209C194.679 21.2209 195.606 21.2798 196.397 21.3991C197.189 21.5183 197.832 21.6376 198.329 21.7553C198.588 21.8263 198.777 21.9154 198.895 22.0225C199.014 22.1297 199.072 22.3139 199.072 22.575V25.7497C199.072 25.9399 199.006 26.0878 198.877 26.195C198.747 26.3022 198.588 26.355 198.399 26.355H198.329C197.667 26.2841 197.036 26.2252 196.433 26.1769C195.83 26.1301 195.022 26.1059 194.007 26.1059C193.605 26.1059 193.227 26.1724 192.874 26.3022C192.52 26.4335 192.212 26.6584 191.953 26.98C191.693 27.3015 191.487 27.7287 191.334 28.2631C191.179 28.7975 191.103 29.4587 191.103 30.2422V33.2387C191.103 34.0237 191.179 34.6833 191.334 35.2177C191.487 35.7521 191.693 36.1808 191.953 36.5024C192.212 36.8239 192.52 37.0488 192.874 37.1802C193.227 37.3115 193.605 37.3764 194.007 37.3764C195.022 37.3764 195.832 37.3538 196.433 37.3055C197.036 37.2587 197.667 37.1983 198.329 37.1273H198.399C198.588 37.1273 198.747 37.1802 198.877 37.2874C199.006 37.3945 199.072 37.5425 199.072 37.7327V40.9073V40.9119Z" fill="#212121"/>
<path d="M220.115 41.1967C220.115 41.3869 220.039 41.559 219.884 41.7144C219.73 41.8699 219.559 41.9469 219.37 41.9469H215.083C214.894 41.9469 214.729 41.8699 214.587 41.7159C214.444 41.562 214.374 41.3899 214.374 41.1997V29.3495C214.374 28.7321 214.338 28.2113 214.267 27.7841C214.197 27.3569 214.067 27.0127 213.878 26.753C213.689 26.4919 213.423 26.3077 213.08 26.2005C212.736 26.0933 212.294 26.0405 211.751 26.0405C211.209 26.0405 210.7 26.1477 210.157 26.3605C209.615 26.5734 209.036 26.8466 208.421 27.1787V41.1997C208.421 41.3899 208.351 41.562 208.208 41.7159C208.066 41.8699 207.901 41.9469 207.712 41.9469H203.425C203.236 41.9469 203.065 41.8699 202.911 41.7144C202.756 41.5605 202.68 41.3884 202.68 41.1967V15.3029C202.68 15.1127 202.75 14.9466 202.893 14.8032C203.035 14.6598 203.198 14.5889 203.389 14.5889H207.71C207.899 14.5889 208.064 14.6613 208.207 14.8032C208.348 14.9466 208.42 15.1127 208.42 15.3029V22.8387C209.316 22.2409 210.178 21.8212 211.006 21.5812C211.832 21.3412 212.777 21.2219 213.84 21.2219C215.116 21.2219 216.161 21.4363 216.975 21.8635C217.79 22.2922 218.428 22.8689 218.889 23.5935C219.349 24.3196 219.668 25.1755 219.845 26.1613C220.022 27.1485 220.111 28.2007 220.111 29.3178V41.1951L220.115 41.1967Z" fill="#212121"/>
<path d="M241.585 32.9929C241.585 34.4195 241.39 35.7041 240.998 36.8454C240.607 37.9866 240.04 38.9558 239.295 39.7528C238.55 40.5499 237.626 41.1673 236.526 41.6081C235.425 42.0474 234.154 42.2678 232.71 42.2678C231.266 42.2678 229.994 42.0474 228.893 41.6081C227.793 41.1688 226.865 40.5499 226.107 39.7528C225.35 38.9558 224.776 37.9866 224.386 36.8454C223.995 35.7041 223.8 34.4195 223.8 32.9929V30.4961C223.8 29.0696 223.995 27.7849 224.386 26.6437C224.776 25.5024 225.35 24.5333 226.107 23.7377C226.865 22.9407 227.794 22.3233 228.893 21.8825C229.994 21.4432 231.266 21.2228 232.71 21.2228C234.154 21.2228 235.425 21.4432 236.526 21.8825C237.626 22.3233 238.548 22.9407 239.295 23.7377C240.04 24.5348 240.609 25.5039 240.998 26.6437C241.388 27.7849 241.585 29.0696 241.585 30.4961V32.9929ZM235.846 30.4961C235.846 27.5962 234.801 26.1455 232.711 26.1455C231.678 26.1455 230.891 26.5078 230.351 27.2339C229.811 27.96 229.54 29.0469 229.54 30.4976V32.9945C229.54 34.4452 229.81 35.5396 230.351 36.2763C230.891 37.0129 231.678 37.3813 232.711 37.3813C234.801 37.3813 235.846 35.9185 235.846 32.9945V30.4976V30.4961Z" fill="#212121"/>
<path d="M262.451 32.9929C262.451 34.4195 262.256 35.7041 261.865 36.8454C261.473 37.9866 260.907 38.9558 260.161 39.7528C259.416 40.5499 258.492 41.1673 257.392 41.6081C256.291 42.0474 255.02 42.2678 253.576 42.2678C252.132 42.2678 250.86 42.0474 249.76 41.6081C248.659 41.1688 247.731 40.5499 246.974 39.7528C246.216 38.9558 245.642 37.9866 245.252 36.8454C244.861 35.7041 244.666 34.4195 244.666 32.9929V30.4961C244.666 29.0696 244.861 27.7849 245.252 26.6437C245.642 25.5024 246.216 24.5333 246.974 23.7377C247.731 22.9407 248.661 22.3233 249.76 21.8825C250.86 21.4432 252.132 21.2228 253.576 21.2228C255.02 21.2228 256.291 21.4432 257.392 21.8825C258.492 22.3233 259.415 22.9407 260.161 23.7377C260.907 24.5348 261.475 25.5039 261.865 26.6437C262.255 27.7849 262.451 29.0696 262.451 30.4961V32.9929ZM256.713 30.4961C256.713 27.5962 255.667 26.1455 253.577 26.1455C252.544 26.1455 251.757 26.5078 251.217 27.2339C250.677 27.96 250.406 29.0469 250.406 30.4976V32.9945C250.406 34.4452 250.676 35.5396 251.217 36.2763C251.757 37.0129 252.544 37.3813 253.577 37.3813C255.667 37.3813 256.713 35.9185 256.713 32.9945V30.4976V30.4961Z" fill="#212121"/>
<path d="M271.839 41.1967C271.839 41.3869 271.774 41.559 271.645 41.7144C271.514 41.8699 271.355 41.9469 271.166 41.9469H266.845C266.656 41.9469 266.485 41.8699 266.331 41.7144C266.176 41.5605 266.1 41.3884 266.1 41.1967V15.3029C266.1 15.1127 266.176 14.9466 266.331 14.8032C266.483 14.6613 266.654 14.5889 266.845 14.5889H271.166C271.355 14.5889 271.514 14.6598 271.645 14.8032C271.774 14.9466 271.839 15.1127 271.839 15.3029V41.1967Z" fill="#212121"/>
<path d="M169.849 56.2636C169.849 56.5368 169.807 56.8115 169.724 57.0848C169.642 57.358 169.495 57.6041 169.288 57.8214C169.079 58.0388 168.795 58.2139 168.432 58.3468C168.069 58.4796 167.607 58.546 167.049 58.546C166.649 58.546 166.296 58.5294 165.995 58.4947C165.692 58.46 165.416 58.4238 165.167 58.386C165.068 58.3709 165.008 58.3483 164.986 58.3181C164.963 58.2879 164.951 58.2426 164.951 58.1807V57.7248C164.951 57.6644 164.969 57.6177 165.008 57.5875C165.046 57.5573 165.091 57.5422 165.145 57.5422H165.179C165.308 57.5573 165.454 57.5693 165.616 57.5769C165.778 57.5844 165.944 57.5905 166.115 57.5935C166.284 57.598 166.451 57.601 166.614 57.6056C166.776 57.6101 166.922 57.6116 167.051 57.6116C167.391 57.6116 167.673 57.5799 167.895 57.515C168.118 57.4501 168.294 57.3595 168.423 57.2403C168.552 57.1225 168.642 56.9791 168.694 56.813C168.747 56.6455 168.774 56.4628 168.774 56.2651C168.774 56.1202 168.751 55.9888 168.706 55.8711C168.661 55.7533 168.585 55.6371 168.48 55.5224C168.373 55.4076 168.234 55.2884 168.06 55.1631C167.886 55.0378 167.67 54.8944 167.414 54.7344L166.314 54.0611C165.793 53.7411 165.401 53.4195 165.14 53.0965C164.879 52.7734 164.749 52.3824 164.749 51.9266C164.749 51.2337 164.986 50.7249 165.458 50.3974C165.931 50.0698 166.601 49.9067 167.471 49.9067C167.637 49.9067 167.812 49.9113 167.998 49.9188C168.183 49.9264 168.364 49.9354 168.543 49.9475C168.72 49.9596 168.889 49.9747 169.046 49.9928C169.205 50.0124 169.337 50.029 169.444 50.0441C169.573 50.0668 169.637 50.1317 169.637 50.2388V50.7295C169.637 50.8517 169.573 50.9121 169.444 50.9121H169.421C169.172 50.897 168.868 50.8819 168.508 50.8668C168.15 50.8517 167.803 50.8442 167.471 50.8442C166.881 50.8442 166.455 50.9197 166.194 51.0721C165.934 51.2246 165.803 51.5099 165.803 51.9281C165.803 52.1953 165.901 52.4262 166.097 52.624C166.293 52.8217 166.605 53.0497 167.036 53.3093L168.076 53.9373C168.4 54.1351 168.676 54.3253 168.901 54.5079C169.127 54.6906 169.312 54.8732 169.454 55.0559C169.598 55.2386 169.699 55.4288 169.76 55.6265C169.82 55.8243 169.85 56.0371 169.85 56.2651L169.849 56.2636Z" fill="#212121"/>
<path d="M178.193 58.2829C178.193 58.4051 178.129 58.4655 178 58.4655H177.331C177.279 58.4655 177.237 58.4489 177.207 58.4142C177.177 58.3795 177.154 58.3402 177.139 58.2949L176.402 55.6698H173.466L172.74 58.2949C172.725 58.3402 172.698 58.381 172.66 58.4142C172.623 58.4489 172.581 58.4655 172.536 58.4655H171.867C171.738 58.4655 171.674 58.4051 171.674 58.2829C171.674 58.2451 171.678 58.2179 171.686 58.2028L173.784 50.7712C173.829 50.5961 173.895 50.4542 173.981 50.3425C174.068 50.2323 174.164 50.1447 174.271 50.0798C174.377 50.0149 174.488 49.9696 174.605 49.9424C174.722 49.9153 174.833 49.9032 174.94 49.9032C175.046 49.9032 175.156 49.9153 175.268 49.9379C175.382 49.9606 175.491 50.0043 175.596 50.0693C175.703 50.1342 175.799 50.2217 175.886 50.3319C175.973 50.4421 176.039 50.5855 176.084 50.7591L178.181 58.2013C178.189 58.2164 178.193 58.2436 178.193 58.2813V58.2829ZM175.154 51.0112C175.117 50.8739 175.045 50.8059 174.938 50.8059C174.824 50.8059 174.749 50.8739 174.712 51.0112L173.68 54.7671H176.186L175.154 51.0112Z" fill="#212121"/>
<path d="M186.503 58.2829C186.503 58.4051 186.439 58.4655 186.31 58.4655H185.641C185.588 58.4655 185.546 58.4489 185.516 58.4142C185.486 58.3795 185.464 58.3402 185.449 58.2949L184.711 55.6698H181.775L181.05 58.2949C181.035 58.3402 181.008 58.381 180.97 58.4142C180.933 58.4489 180.891 58.4655 180.846 58.4655H180.177C180.048 58.4655 179.983 58.4051 179.983 58.2829C179.983 58.2451 179.986 58.2179 179.995 58.2028L182.093 50.7712C182.138 50.5961 182.204 50.4542 182.291 50.3425C182.378 50.2323 182.474 50.1447 182.58 50.0798C182.687 50.0149 182.798 49.9696 182.915 49.9424C183.032 49.9153 183.143 49.9032 183.249 49.9032C183.356 49.9032 183.465 49.9153 183.578 49.9379C183.692 49.9606 183.801 50.0043 183.906 50.0693C184.012 50.1342 184.108 50.2217 184.195 50.3319C184.282 50.4421 184.348 50.5855 184.393 50.7591L186.491 58.2013C186.499 58.2164 186.503 58.2436 186.503 58.2813V58.2829ZM183.465 51.0112C183.428 50.8739 183.356 50.8059 183.249 50.8059C183.135 50.8059 183.06 50.8739 183.023 51.0112L181.991 54.7671H184.497L183.465 51.0112Z" fill="#212121"/>
<path d="M193.454 56.2636C193.454 56.5368 193.412 56.8115 193.33 57.0848C193.247 57.358 193.1 57.6041 192.893 57.8214C192.685 58.0388 192.4 58.2139 192.037 58.3468C191.674 58.4796 191.212 58.546 190.655 58.546C190.254 58.546 189.902 58.5294 189.601 58.4947C189.298 58.46 189.022 58.4238 188.773 58.386C188.674 58.3709 188.614 58.3483 188.591 58.3181C188.569 58.2879 188.557 58.2426 188.557 58.1807V57.7248C188.557 57.6644 188.575 57.6177 188.614 57.5875C188.651 57.5573 188.696 57.5422 188.75 57.5422H188.785C188.914 57.5573 189.059 57.5693 189.221 57.5769C189.383 57.5844 189.55 57.5905 189.72 57.5935C189.89 57.598 190.056 57.601 190.22 57.6056C190.382 57.6101 190.527 57.6116 190.656 57.6116C190.997 57.6116 191.278 57.5799 191.5 57.515C191.724 57.4501 191.899 57.3595 192.028 57.2403C192.157 57.1225 192.247 56.9791 192.3 56.813C192.352 56.6455 192.379 56.4628 192.379 56.2651C192.379 56.1202 192.357 55.9888 192.312 55.8711C192.267 55.7533 192.19 55.6371 192.085 55.5224C191.979 55.4076 191.839 55.2884 191.665 55.1631C191.491 55.0378 191.275 54.8944 191.019 54.7344L189.92 54.0611C189.398 53.7411 189.007 53.4195 188.746 53.0965C188.485 52.7734 188.354 52.3824 188.354 51.9266C188.354 51.2337 188.591 50.7249 189.064 50.3974C189.536 50.0698 190.206 49.9067 191.076 49.9067C191.242 49.9067 191.418 49.9113 191.604 49.9188C191.788 49.9264 191.97 49.9354 192.148 49.9475C192.325 49.9596 192.494 49.9747 192.652 49.9928C192.811 50.0124 192.943 50.029 193.049 50.0441C193.178 50.0668 193.243 50.1317 193.243 50.2388V50.7295C193.243 50.8517 193.178 50.9121 193.049 50.9121H193.027C192.778 50.897 192.473 50.8819 192.114 50.8668C191.755 50.8517 191.409 50.8442 191.076 50.8442C190.487 50.8442 190.061 50.9197 189.8 51.0721C189.539 51.2246 189.409 51.5099 189.409 51.9281C189.409 52.1953 189.506 52.4262 189.702 52.624C189.899 52.8217 190.211 53.0497 190.641 53.3093L191.682 53.9373C192.006 54.1351 192.282 54.3253 192.506 54.5079C192.733 54.6906 192.917 54.8732 193.06 55.0559C193.204 55.2386 193.304 55.4288 193.366 55.6265C193.426 55.8243 193.456 56.0371 193.456 56.2651L193.454 56.2636Z" fill="#212121"/>
<path d="M205.995 50.1779C205.995 50.2081 205.99 50.2307 205.984 50.2458L203.898 57.6775C203.846 57.8601 203.775 58.0065 203.689 58.1167C203.602 58.2269 203.507 58.3145 203.405 58.3794C203.303 58.4443 203.194 58.4881 203.077 58.5107C202.96 58.5334 202.847 58.5455 202.742 58.5455C202.637 58.5455 202.526 58.5334 202.414 58.5107C202.302 58.4881 202.191 58.4443 202.086 58.3794C201.979 58.3145 201.883 58.2269 201.796 58.1167C201.709 58.0065 201.639 57.8601 201.586 57.6775L199.489 50.2458C199.481 50.2307 199.477 50.2081 199.477 50.1779C199.477 50.1175 199.495 50.0692 199.534 50.0345C199.571 49.9998 199.621 49.9832 199.68 49.9832H200.337C200.382 49.9832 200.424 49.9998 200.462 50.0345C200.499 50.0692 200.526 50.1084 200.541 50.1537L202.514 57.4254C202.559 57.5854 202.634 57.6654 202.741 57.6654C202.838 57.6654 202.91 57.5854 202.957 57.4254L204.941 50.1537C204.956 50.1084 204.98 50.0677 205.014 50.0345C205.049 49.9998 205.087 49.9832 205.132 49.9832H205.801C205.93 49.9832 205.995 50.0481 205.995 50.1779Z" fill="#212121"/>
<path d="M212.843 58.3287C212.843 58.3664 212.834 58.4011 212.814 58.4313C212.795 58.4615 212.766 58.4811 212.729 58.4887C212.622 58.5038 212.48 58.5128 212.298 58.5174C212.117 58.5219 211.922 58.5264 211.715 58.534C211.507 58.5415 211.297 58.546 211.085 58.546H210.519C209.718 58.546 209.115 58.383 208.71 58.0554C208.305 57.7279 208.104 57.1844 208.104 56.4236V52.0292C208.104 51.2684 208.307 50.7249 208.71 50.3974C209.115 50.0698 209.718 49.9067 210.519 49.9067C210.685 49.9067 210.872 49.9082 211.079 49.9128C211.288 49.9173 211.493 49.9203 211.697 49.9249C211.901 49.9294 212.095 49.9369 212.276 49.9475C212.457 49.9596 212.609 49.9686 212.729 49.9762C212.766 49.9837 212.795 50.0034 212.814 50.0335C212.832 50.0637 212.843 50.0985 212.843 50.1362V50.7068C212.843 50.7989 212.801 50.8442 212.718 50.8442H210.531C210.228 50.8442 209.986 50.8653 209.805 50.9076C209.623 50.9499 209.484 51.0178 209.385 51.1129C209.286 51.208 209.22 51.3318 209.187 51.4842C209.153 51.6367 209.136 51.8194 209.136 52.0322V53.6188H212.616C212.676 53.6188 212.73 53.6414 212.775 53.6867C212.82 53.732 212.843 53.7848 212.843 53.8437V54.2724C212.843 54.3328 212.82 54.3856 212.775 54.4309C212.73 54.4762 212.676 54.4989 212.616 54.4989H209.136V56.4236C209.136 56.6455 209.153 56.8297 209.187 56.9791C209.222 57.1285 209.288 57.2508 209.385 57.3459C209.482 57.441 209.623 57.5105 209.805 57.5527C209.986 57.595 210.228 57.6161 210.531 57.6161H212.718C212.801 57.6161 212.843 57.6614 212.843 57.7535V58.3362V58.3287Z" fill="#212121"/>
<path d="M221.243 58.3181C221.243 58.4177 221.194 58.466 221.096 58.466H220.371C220.303 58.466 220.248 58.46 220.206 58.4494C220.164 58.4374 220.12 58.3936 220.075 58.3181L218.045 54.917H217.75C217.561 54.917 217.381 54.9155 217.211 54.911C217.042 54.908 216.805 54.8974 216.502 54.8823V58.2381C216.502 58.2985 216.483 58.3528 216.445 58.3981C216.408 58.4434 216.358 58.466 216.298 58.466H215.686C215.626 58.466 215.577 58.4434 215.539 58.3981C215.502 58.3528 215.482 58.3 215.482 58.2381V50.2479C215.482 50.1649 215.5 50.1045 215.539 50.0713C215.577 50.0366 215.649 50.0124 215.755 49.9973C215.877 49.9822 216.018 49.9686 216.181 49.9581C216.343 49.946 216.514 49.9369 216.691 49.9294C216.868 49.9218 217.048 49.9158 217.229 49.9128C217.411 49.9082 217.585 49.9067 217.751 49.9067C218.196 49.9067 218.615 49.949 219.005 50.032C219.394 50.1166 219.73 50.2524 220.014 50.4426C220.297 50.6328 220.521 50.8834 220.683 51.1959C220.844 51.5084 220.927 51.8964 220.927 52.3598V52.4398C220.927 52.7598 220.883 53.0467 220.796 53.3018C220.71 53.5569 220.587 53.7788 220.428 53.969C220.269 54.1592 220.08 54.3192 219.861 54.4491C219.642 54.5789 219.403 54.677 219.147 54.7464L221.21 58.217C221.233 58.2547 221.245 58.2894 221.245 58.3196L221.243 58.3181ZM219.906 52.3598C219.906 51.7892 219.724 51.3937 219.361 51.1733C218.999 50.9529 218.462 50.8427 217.751 50.8427H217.445C217.331 50.8427 217.216 50.8442 217.099 50.8487C216.982 50.8532 216.869 50.8563 216.764 50.8608C216.658 50.8653 216.571 50.8699 216.504 50.8774V54.0052C216.752 54.0128 216.991 54.0188 217.217 54.0218C217.444 54.0264 217.622 54.0279 217.75 54.0279C218.097 54.0279 218.405 54.0037 218.673 53.9539C218.942 53.9041 219.167 53.8196 219.348 53.6973C219.529 53.575 219.667 53.4135 219.762 53.2127C219.856 53.0119 219.903 52.7538 219.903 52.4428V52.3628L219.906 52.3598Z" fill="#212121"/>
<path d="M228.489 56.2636C228.489 56.5368 228.447 56.8115 228.365 57.0848C228.282 57.358 228.137 57.6041 227.928 57.8214C227.72 58.0388 227.435 58.2139 227.072 58.3468C226.709 58.4796 226.248 58.546 225.69 58.546C225.289 58.546 224.937 58.5294 224.636 58.4947C224.333 58.46 224.057 58.4238 223.808 58.386C223.709 58.3709 223.649 58.3483 223.627 58.3181C223.604 58.2879 223.592 58.2426 223.592 58.1807V57.7248C223.592 57.6644 223.612 57.6177 223.649 57.5875C223.687 57.5573 223.732 57.5422 223.786 57.5422H223.82C223.949 57.5573 224.094 57.5693 224.256 57.5769C224.418 57.5844 224.585 57.5905 224.756 57.5935C224.925 57.598 225.092 57.601 225.255 57.6056C225.417 57.6101 225.562 57.6116 225.691 57.6116C226.032 57.6116 226.314 57.5799 226.536 57.515C226.759 57.4501 226.934 57.3595 227.063 57.2403C227.192 57.1225 227.282 56.9791 227.335 56.813C227.387 56.6455 227.414 56.4628 227.414 56.2651C227.414 56.1202 227.392 55.9888 227.347 55.8711C227.302 55.7533 227.225 55.6371 227.12 55.5224C227.014 55.4076 226.874 55.2884 226.7 55.1631C226.527 55.0378 226.311 54.8944 226.054 54.7344L224.955 54.0611C224.433 53.7411 224.042 53.4195 223.781 53.0965C223.52 52.7734 223.39 52.3824 223.39 51.9266C223.39 51.2337 223.625 50.7249 224.099 50.3974C224.571 50.0698 225.241 49.9067 226.111 49.9067C226.278 49.9067 226.453 49.9113 226.639 49.9188C226.825 49.9264 227.006 49.9354 227.183 49.9475C227.36 49.9596 227.53 49.9747 227.689 49.9928C227.848 50.0124 227.979 50.029 228.086 50.0441C228.215 50.0668 228.279 50.1317 228.279 50.2388V50.7295C228.279 50.8517 228.215 50.9121 228.086 50.9121H228.063C227.815 50.897 227.51 50.8819 227.15 50.8668C226.79 50.8517 226.446 50.8442 226.113 50.8442C225.523 50.8442 225.098 50.9197 224.837 51.0721C224.576 51.2246 224.445 51.5099 224.445 51.9281C224.445 52.1953 224.543 52.4262 224.739 52.624C224.936 52.8217 225.247 53.0497 225.678 53.3093L226.718 53.9373C227.042 54.1351 227.318 54.3253 227.543 54.5079C227.77 54.6906 227.954 54.8732 228.096 55.0559C228.24 55.2386 228.341 55.4288 228.402 55.6265C228.462 55.8243 228.492 56.0371 228.492 56.2651L228.489 56.2636Z" fill="#212121"/>
<path d="M232.22 58.2377C232.22 58.2981 232.201 58.3524 232.163 58.3977C232.126 58.443 232.076 58.4657 232.016 58.4657H231.392C231.332 58.4657 231.283 58.443 231.245 58.3977C231.208 58.3524 231.188 58.2996 231.188 58.2377V50.2022C231.188 50.1419 231.206 50.0905 231.245 50.0483C231.283 50.006 231.332 49.9849 231.392 49.9849H232.016C232.076 49.9849 232.126 50.006 232.163 50.0483C232.201 50.0905 232.22 50.1419 232.22 50.2022V58.2377Z" fill="#212121"/>
<path d="M241.176 54.9625C241.176 55.5935 241.099 56.137 240.948 56.5898C240.796 57.0427 240.585 57.4141 240.312 57.7024C240.039 57.9922 239.715 58.2051 239.34 58.3409C238.965 58.4768 238.555 58.5462 238.108 58.5462C237.661 58.5462 237.25 58.4783 236.875 58.3409C236.5 58.2036 236.176 57.9907 235.903 57.7024C235.631 57.4125 235.416 57.0427 235.262 56.5898C235.106 56.137 235.029 55.595 235.029 54.9625V53.4907C235.029 52.8597 235.107 52.3162 235.262 51.8649C235.416 51.412 235.631 51.0406 235.903 50.7523C236.176 50.4625 236.5 50.2496 236.875 50.1137C237.25 49.9779 237.661 49.9084 238.108 49.9084C238.555 49.9084 238.965 49.9764 239.34 50.1137C239.715 50.2511 240.039 50.464 240.312 50.7523C240.585 51.0421 240.796 51.412 240.948 51.8649C241.099 52.3177 241.176 52.8597 241.176 53.4907V54.9625ZM240.121 53.4907C240.121 53.0106 240.075 52.6046 239.98 52.2694C239.886 51.9343 239.753 51.6611 239.579 51.4482C239.405 51.2354 239.195 51.0814 238.946 50.9863C238.697 50.8912 238.418 50.8429 238.109 50.8429C237.8 50.8429 237.521 50.8912 237.272 50.9863C237.024 51.0814 236.811 51.2354 236.634 51.4482C236.457 51.6611 236.322 51.9358 236.227 52.2694C236.133 52.6046 236.086 53.0121 236.086 53.4907V54.9625C236.086 55.4426 236.133 55.8486 236.227 56.1838C236.322 56.5189 236.455 56.7921 236.629 57.005C236.803 57.2178 237.016 57.3718 237.268 57.4669C237.52 57.562 237.802 57.6103 238.111 57.6103C238.42 57.6103 238.698 57.5635 238.947 57.4669C239.196 57.3718 239.408 57.2178 239.58 57.005C239.754 56.7921 239.888 56.5174 239.982 56.1838C240.076 55.8486 240.123 55.441 240.123 54.9625V53.4907H240.121Z" fill="#212121"/>
<path d="M249.793 58.1345C249.793 58.2251 249.762 58.3036 249.697 58.3685C249.634 58.4334 249.556 58.4651 249.468 58.4651H248.772C248.591 58.4651 248.469 58.4048 248.409 58.2825L244.905 51.5815C244.89 51.5588 244.878 51.5468 244.87 51.5468C244.863 51.5468 244.858 51.5588 244.858 51.5815V58.2478C244.858 58.3081 244.839 58.3595 244.801 58.4017C244.764 58.444 244.715 58.4651 244.655 58.4651H244.065C244.005 58.4651 243.956 58.4576 243.918 58.4425C243.881 58.4274 243.861 58.3897 243.861 58.3278V50.3029C243.861 50.2123 243.893 50.1353 243.957 50.0749C244.022 50.0145 244.1 49.9828 244.19 49.9828H244.813C244.972 49.9828 245.077 49.9994 245.131 50.0342C245.184 50.0689 245.233 50.1278 245.278 50.2108L248.759 56.8771L248.781 56.9118C248.781 56.9118 248.793 56.8997 248.793 56.8771V50.1987C248.793 50.1383 248.811 50.087 248.848 50.0447C248.886 50.0025 248.934 49.9813 248.994 49.9813H249.588C249.648 49.9813 249.696 50.0025 249.733 50.0447C249.771 50.087 249.79 50.1383 249.79 50.1987V58.1315L249.793 58.1345Z" fill="#212121"/>
</svg>
