<svg width="40" height="40" viewBox="0 0 40 40" fill="none" xmlns="http://www.w3.org/2000/svg">
<path d="M38.3332 3.77639C37.1522 2.59537 35.2375 2.59537 34.0565 3.77639C32.8755 2.59545 30.9608 2.59545 29.7797 3.77639C28.5988 4.95732 28.5988 6.87209 29.7797 8.05311L32.9947 11.268C33.5811 11.8544 34.5318 11.8544 35.1182 11.268L38.3331 8.05311C39.5141 6.87217 39.5141 4.9574 38.3332 3.77639Z" fill="white"/>
<path d="M9.11563 16.0259H0.78125V37.1096H9.11563V16.0259Z" fill="white" stroke="white" stroke-width="1.5625" stroke-miterlimit="10" stroke-linecap="round" stroke-linejoin="round"/>
<path d="M4.94873 20.2163C5.69136 20.2163 6.29346 20.8184 6.29346 21.561C6.29344 22.3037 5.69135 22.9057 4.94873 22.9058C4.20609 22.9058 3.60402 22.3037 3.604 21.561C3.604 20.8184 4.20608 20.2163 4.94873 20.2163Z" fill="white" stroke="white" stroke-width="0.078125"/>
<path d="M27.0619 32.3577H28.377C29.6892 32.3577 30.7529 33.4214 30.7529 34.7336C30.7529 36.0458 29.6892 37.1095 28.377 37.1095H19.2904C17.0609 37.1095 14.8899 36.3952 13.096 35.0715H9.11572" stroke="white" stroke-width="1.5625" stroke-miterlimit="10" stroke-linecap="round" stroke-linejoin="round"/>
<path d="M28.6075 27.6055H29.9226C31.2347 27.6055 32.2985 28.6692 32.2985 29.9814C32.2985 31.2936 31.2347 32.3573 29.9226 32.3573H27.4585" stroke="white" stroke-width="1.5625" stroke-miterlimit="10" stroke-linecap="round" stroke-linejoin="round"/>
<path d="M29.3599 22.8535H30.675C31.9872 22.8535 33.0509 23.9173 33.0509 25.2295C33.0509 26.5416 31.9872 27.6054 30.675 27.6054H28.2109" stroke="white" stroke-width="1.5625" stroke-miterlimit="10" stroke-linecap="round" stroke-linejoin="round"/>
<path d="M29.1135 22.8536H31.5775C32.8897 22.8536 33.9535 21.7899 33.9535 20.4777C33.9535 19.1655 32.8897 18.1017 31.5775 18.1017H23.2724C23.0417 18.1017 22.8239 17.9947 22.6829 17.812C22.4382 17.4951 22.4881 17.0413 22.7956 16.7849L26.0715 14.0545C27.2281 13.0905 27.3251 11.3481 26.2827 10.2616C25.551 9.49915 24.3987 9.32259 23.4723 9.8311L17.0906 13.3341C16.0255 13.9188 15.0931 14.7179 14.3524 15.681L12.4905 18.1016H9.11572" stroke="white" stroke-width="1.5625" stroke-miterlimit="10" stroke-linecap="round" stroke-linejoin="round"/>
<path d="M38.3332 3.77639C37.1522 2.59537 35.2375 2.59537 34.0565 3.77639C32.8755 2.59545 30.9608 2.59545 29.7797 3.77639C28.5988 4.95732 28.5988 6.87209 29.7797 8.05311L32.9947 11.268C33.5811 11.8544 34.5318 11.8544 35.1182 11.268L38.3331 8.05311C39.5141 6.87217 39.5141 4.9574 38.3332 3.77639Z" stroke="white" stroke-width="1.5625" stroke-miterlimit="10" stroke-linecap="round" stroke-linejoin="round"/>
</svg>
