<svg width="330" height="74" viewBox="0 0 330 74" fill="none" xmlns="http://www.w3.org/2000/svg">
<path d="M66.25 1H17.75C11.2606 1 6 6.26065 6 12.75V61.25C6 67.7394 11.2606 73 17.75 73H66.25C72.7394 73 78 67.7394 78 61.25V12.75C78 6.26065 72.7394 1 66.25 1Z" fill="url(#paint0_linear_2859_4114)"/>
<path d="M53.8415 52.5586H76.0294V61.2732C76.0294 62.559 75.7761 63.8323 75.284 65.0203C74.7919 66.2083 74.0707 67.2877 73.1614 68.1969C72.2522 69.1062 71.1728 69.8274 69.9848 70.3195C68.7968 70.8116 67.5236 71.0648 66.2377 71.0648H44.0498V62.3503C44.0498 59.7533 45.0814 57.2628 46.9177 55.4265C48.754 53.5902 51.2446 52.5586 53.8415 52.5586Z" fill="white"/>
<path d="M55.6923 60.3782C55.7181 60.8114 55.6511 61.2452 55.4957 61.6505C55.3404 62.0557 55.1003 62.4231 54.7915 62.7282C54.0801 63.3201 53.1694 63.6178 52.2457 63.5605H51.5544V66.5783H49.0811V57.4779H52.2301C53.1557 57.4091 54.075 57.6768 54.819 58.2318C55.1155 58.5017 55.3478 58.8346 55.4989 59.206C55.6501 59.5774 55.7161 59.9779 55.6923 60.3782ZM51.5466 61.5532H51.995C52.3183 61.5698 52.6352 61.4579 52.8763 61.2418C52.9878 61.1293 53.0745 60.9947 53.1309 60.8466C53.1872 60.6985 53.2119 60.5403 53.2033 60.3821C53.2033 59.7685 52.8632 59.461 52.183 59.4597H51.5485L51.5466 61.5532Z" fill="url(#paint1_linear_2859_4114)"/>
<path d="M61.8912 59.407C62.0934 59.4065 62.2951 59.4236 62.4944 59.4579L62.6315 59.4834L62.4141 61.7805C62.1417 61.724 61.8638 61.699 61.5857 61.7061C61.3783 61.6868 61.1691 61.7091 60.9703 61.7716C60.7716 61.8342 60.5873 61.9357 60.4283 62.0703C60.3008 62.2122 60.203 62.3781 60.1408 62.5584C60.0786 62.7387 60.0531 62.9297 60.066 63.12V66.5862H57.6338V59.5363H59.4433L59.8232 60.6623H59.9407C60.1416 60.2916 60.4351 59.9792 60.7926 59.7556C61.1174 59.5357 61.499 59.4146 61.8912 59.407Z" fill="url(#paint2_linear_2859_4114)"/>
<path d="M70.9778 63.0414C71.0371 64.0286 70.7026 64.999 70.0476 65.74C69.7044 66.0733 69.2956 66.3314 68.8472 66.4979C68.3987 66.6645 67.9205 66.7358 67.443 66.7074C66.9732 66.7292 66.504 66.6525 66.0655 66.4822C65.6271 66.3119 65.2291 66.0517 64.8972 65.7185C64.2853 64.961 63.9499 64.0176 63.9463 63.0439C63.9428 62.0701 64.2713 61.1243 64.8776 60.3624C65.2236 60.0321 65.634 59.7767 66.0832 59.6123C66.5323 59.4478 67.0106 59.3778 67.4881 59.4067C68.1282 59.3944 68.7607 59.5468 69.325 59.8493C69.8521 60.1396 70.2803 60.5808 70.5548 61.1164C70.8506 61.714 70.9959 62.3748 70.9778 63.0414ZM66.4071 63.0414C66.3827 63.5155 66.4664 63.9889 66.6519 64.4259C66.7248 64.5774 66.8413 64.7036 66.9865 64.7884C67.1316 64.8731 67.2988 64.9126 67.4665 64.9018C67.6325 64.9128 67.7979 64.8732 67.9409 64.7882C68.0838 64.7033 68.1977 64.5769 68.2675 64.4259C68.4446 63.9868 68.5242 63.5144 68.5005 63.0414C68.527 62.5724 68.446 62.1035 68.2636 61.6706C68.1808 61.5305 68.0629 61.4144 67.9216 61.3338C67.7803 61.2532 67.6204 61.2108 67.4577 61.2108C67.295 61.2108 67.1351 61.2532 66.9938 61.3338C66.8525 61.4144 66.7347 61.5305 66.6519 61.6706C66.4665 62.1026 66.3853 62.5722 66.4149 63.0414H66.4071Z" fill="url(#paint3_linear_2859_4114)"/>
<path d="M46.3102 41.7804L24.2006 57.5704C23.7678 57.5704 23.3527 57.3986 23.0464 57.0927C22.7402 56.7869 22.5679 56.3719 22.5674 55.9391V48.5288L32.0379 41.7706C32.108 41.721 32.1675 41.6582 32.2132 41.5855C32.259 41.5129 32.2899 41.432 32.3043 41.3474C32.3186 41.2628 32.3162 41.1762 32.297 41.0926C32.2778 41.0089 32.2424 40.9299 32.1926 40.86C32.1499 40.8002 32.0976 40.7479 32.0379 40.7053L22.5674 33.949V23.7402L46.3102 40.6935C46.4539 40.7902 46.5534 40.94 46.5868 41.11C46.6202 41.28 46.5848 41.4563 46.4884 41.6002C46.4409 41.6704 46.3804 41.7329 46.3102 41.7804Z" fill="#EFEFEF"/>
<path d="M46.3102 41.7799L39.456 46.6757C39.5063 46.4916 39.4984 46.2965 39.4336 46.1171C39.3687 45.9376 39.25 45.7825 39.0937 45.6731L22.5713 33.9446V23.7358L46.3141 40.6891C46.4578 40.7858 46.5573 40.9356 46.5907 41.1056C46.6241 41.2756 46.5887 41.4519 46.4923 41.5958C46.4448 41.666 46.3843 41.7265 46.3141 41.774L46.3102 41.7799Z" fill="white"/>
<path d="M37.686 25.1596L59.7955 9.36768C60.2287 9.36768 60.6441 9.53974 60.9504 9.84604C61.2567 10.1523 61.4288 10.5678 61.4288 11.0009V18.4112L51.9583 25.1714C51.8178 25.2724 51.7231 25.4249 51.6949 25.5956C51.6666 25.7662 51.7071 25.9411 51.8075 26.082C51.8493 26.1401 51.9002 26.191 51.9583 26.2328L61.4307 32.9891V43.1978L37.6879 26.2465C37.6165 26.1991 37.5552 26.1381 37.5073 26.067C37.4595 25.9958 37.4262 25.9159 37.4093 25.8319C37.3924 25.7479 37.3922 25.6613 37.4088 25.5772C37.4253 25.4931 37.4583 25.4131 37.5058 25.3418C37.553 25.2696 37.6142 25.2076 37.686 25.1596Z" fill="#EFEFEF"/>
<path d="M37.6828 25.1578L44.5369 20.262C44.483 20.4479 44.4886 20.646 44.5529 20.8286C44.6171 21.0112 44.7368 21.1691 44.8953 21.2803L61.4216 32.9911V43.1999L37.6789 26.2466C37.5896 26.1871 37.5164 26.1064 37.4658 26.0118C37.4151 25.9171 37.3887 25.8115 37.3887 25.7042C37.3887 25.5968 37.4151 25.4912 37.4658 25.3966C37.5164 25.3019 37.5896 25.2213 37.6789 25.1617L37.6828 25.1578Z" fill="white"/>
<path d="M116.979 45.2376C117.044 46.7401 116.752 48.2365 116.127 49.6046C115.502 50.9726 114.563 52.1734 113.385 53.1088C110.478 55.1833 106.948 56.1985 103.383 55.9852C99.7776 56.0568 96.2045 55.2971 92.9404 53.7648V46.4968C94.9819 47.4425 97.0942 48.2268 99.2581 48.8426C100.797 49.2701 102.385 49.4991 103.982 49.5239C105.369 49.6114 106.748 49.2674 107.931 48.5391C108.387 48.206 108.752 47.7635 108.992 47.2523C109.233 46.7411 109.341 46.1776 109.306 45.6137C109.316 44.9223 109.104 44.246 108.701 43.6841C108.211 43.0372 107.609 42.4833 106.924 42.0488C105.381 41.1234 103.785 40.2898 102.144 39.5522C100.327 38.7611 98.6229 37.7348 97.0741 36.4997C95.965 35.5467 95.0484 34.3903 94.374 33.0928C93.6747 31.6827 93.3286 30.1238 93.3656 28.5503C93.2959 27.0997 93.5585 25.6523 94.1336 24.3187C94.7086 22.985 95.5807 21.8005 96.6834 20.8553C99.3068 18.8549 102.56 17.8615 105.854 18.0553C107.704 18.047 109.547 18.276 111.339 18.7367C113.207 19.2344 115.033 19.8752 116.801 20.6536L114.277 26.7315C112.692 26.0549 111.061 25.4902 109.397 25.0417C108.156 24.7279 106.881 24.5668 105.601 24.562C104.378 24.4802 103.166 24.8478 102.194 25.5959C101.808 25.9288 101.501 26.3442 101.296 26.8114C101.091 27.2787 100.993 27.7859 101.01 28.2959C100.994 28.9308 101.161 29.5569 101.489 30.1002C101.891 30.6953 102.411 31.2017 103.016 31.5883C104.615 32.5479 106.27 33.4113 107.972 34.1739C110.672 35.2819 113.092 36.9748 115.059 39.1307C116.374 40.8892 117.051 43.043 116.979 45.2376Z" fill="url(#paint4_linear_2859_4114)"/>
<path d="M150.89 55.4779H143.195V39.0122C143.301 37.4195 142.947 35.8297 142.173 34.4334C141.816 33.9216 141.331 33.5117 140.768 33.2441C140.204 32.9765 139.58 32.8603 138.957 32.9071C138.113 32.845 137.267 33.0141 136.511 33.3963C135.755 33.7785 135.118 34.3594 134.667 35.0766C133.612 37.3007 133.152 39.7605 133.332 42.2156V55.4797H125.639V27.2744H131.517L132.551 30.8829H132.979C133.751 29.5731 134.887 28.5167 136.25 27.8431C137.779 27.0915 139.465 26.7176 141.169 26.7529C145.39 26.7529 148.249 28.132 149.747 30.8902H150.428C151.207 29.5573 152.373 28.4927 153.771 27.8377C155.325 27.094 157.031 26.7208 158.753 26.7475C160.066 26.6495 161.385 26.8162 162.632 27.2376C163.879 27.6589 165.028 28.3264 166.012 29.2004C167.845 31.3986 168.73 34.2342 168.473 37.0844V55.4742H160.752V39.0122C160.859 37.4195 160.505 35.8297 159.731 34.4334C159.374 33.9216 158.889 33.5117 158.325 33.2441C157.761 32.9765 157.137 32.8603 156.515 32.9071C155.697 32.8546 154.879 33.0127 154.139 33.366C153.399 33.7194 152.762 34.2564 152.289 34.9258C151.207 36.8792 150.721 39.1062 150.89 41.3325V55.4779Z" fill="url(#paint5_linear_2859_4114)"/>
<path d="M196.862 55.4779L195.373 51.6422H195.172C194.122 53.0699 192.753 54.2322 191.174 55.0364C189.475 55.7289 187.648 56.0516 185.814 55.9831C184.647 56.0475 183.478 55.875 182.379 55.4759C181.28 55.0768 180.273 54.4594 179.418 53.6609C178.603 52.7743 177.975 51.7313 177.574 50.5951C177.173 49.4588 177.007 48.253 177.085 47.0507C176.994 45.7699 177.235 44.4872 177.786 43.3271C178.336 42.167 179.177 41.1688 180.227 40.4295C183.11 38.7942 186.385 37.9774 189.699 38.0674L194.592 37.9166V36.6811C194.669 36.0907 194.608 35.4904 194.413 34.9278C194.218 34.3652 193.895 33.8557 193.469 33.4397C193.043 33.0236 192.526 32.7124 191.959 32.5308C191.392 32.3491 190.791 32.3019 190.202 32.393C187.44 32.5172 184.734 33.2125 182.255 34.4353L179.711 29.2386C183.048 27.5198 186.756 26.6464 190.509 26.6949C193.609 26.489 196.684 27.3628 199.213 29.1678C200.262 30.1034 201.08 31.2685 201.605 32.5723C202.13 33.876 202.348 35.2833 202.24 36.6847V55.4779H196.862ZM194.59 42.4101L191.614 42.5118C189.87 42.4508 188.142 42.8694 186.619 43.7219C186.077 44.0955 185.642 44.6033 185.355 45.1958C185.069 45.7882 184.941 46.4449 184.984 47.1016C184.984 49.2711 186.228 50.3558 188.716 50.3558C189.495 50.3941 190.274 50.2778 191.008 50.0136C191.742 49.7495 192.417 49.3428 192.993 48.8168C193.531 48.2855 193.951 47.6472 194.227 46.9434C194.503 46.2395 194.628 45.4856 194.594 44.7304L194.59 42.4101Z" fill="url(#paint6_linear_2859_4114)"/>
<path d="M228.48 26.7459C229.351 26.7301 230.222 26.8062 231.078 26.9731L230.498 34.1865C229.756 34.0045 228.993 33.9196 228.229 33.934C226.144 33.8064 224.089 34.4841 222.489 35.8273C221.787 36.511 221.239 37.3378 220.884 38.2517C220.529 39.1656 220.375 40.1451 220.432 41.1238V55.4781H212.737V27.2747H218.564L219.7 32.0171H220.078C220.923 30.4698 222.142 29.1582 223.623 28.2013C225.062 27.2459 226.752 26.7394 228.48 26.7459Z" fill="url(#paint7_linear_2859_4114)"/>
<path d="M250.667 49.8507C252.316 49.7975 253.949 49.4999 255.511 48.9676V54.6948C253.272 55.6135 250.865 56.0518 248.446 55.9812C247.224 56.0919 245.993 55.9409 244.833 55.5383C243.674 55.1358 242.614 54.4908 241.724 53.6464C240.177 51.6552 239.426 49.1597 239.618 46.6455V33.0489H235.935V29.7964L240.174 27.2218L242.392 21.2693H247.313V27.2654H255.207V33.0416H247.313V46.6382C247.275 47.0851 247.339 47.5347 247.498 47.9539C247.657 48.3731 247.909 48.7512 248.234 49.0603C248.922 49.6099 249.787 49.8908 250.667 49.8507Z" fill="url(#paint8_linear_2859_4114)"/>
<path d="M289.775 55.4798H286.617L272.464 36.0052L267.546 40.3442V55.4798H264.977V18.5947H267.549V37.7659L271.636 33.6794L286.092 18.5984H289.362L274.252 34.1882L289.775 55.4798Z" fill="url(#paint9_linear_2859_4114)"/>
<path d="M296.597 20.4373C296.597 18.8226 297.127 18.0159 298.187 18.0171C298.427 18.0093 298.666 18.0632 298.88 18.1735C299.094 18.2839 299.276 18.4471 299.409 18.6476C299.735 19.1856 299.889 19.8098 299.851 20.4373C299.884 21.065 299.73 21.6885 299.409 22.2289C299.28 22.4351 299.099 22.6041 298.885 22.7191C298.671 22.8342 298.43 22.8913 298.187 22.8848C297.127 22.8909 296.597 22.0751 296.597 20.4373ZM299.448 55.4763H296.951V28.056H299.448V55.4763Z" fill="url(#paint10_linear_2859_4114)"/>
<path d="M318.452 53.7627C319.842 53.7825 321.229 53.6472 322.589 53.3593V55.3707C321.235 55.7958 319.821 56.0001 318.401 55.9758C317.42 56.0584 316.433 55.9275 315.508 55.5922C314.583 55.2569 313.741 54.7251 313.041 54.0334C311.744 52.275 311.13 50.1055 311.313 47.9283V30.2198H307.252V28.7572L311.313 27.6215L312.576 21.4165H313.862V28.0504H321.91V30.2198H313.862V47.5758C313.74 49.2092 314.128 50.8401 314.972 52.2437C315.383 52.7635 315.915 53.1741 316.522 53.439C317.129 53.704 317.792 53.8152 318.452 53.7627Z" fill="url(#paint11_linear_2859_4114)"/>
<defs>
<linearGradient id="paint0_linear_2859_4114" x1="5.496" y1="-0.511998" x2="78.288" y2="74.296" gradientUnits="userSpaceOnUse">
<stop stop-color="#1306A3"/>
<stop offset="0.145" stop-color="#1D0EAA"/>
<stop offset="0.394" stop-color="#3826BE"/>
<stop offset="0.715" stop-color="#654DDE"/>
<stop offset="1" stop-color="#9375FF"/>
</linearGradient>
<linearGradient id="paint1_linear_2859_4114" x1="46.5469" y1="60.2461" x2="72.0051" y2="65.3893" gradientUnits="userSpaceOnUse">
<stop stop-color="#1306A3"/>
<stop offset="0.145" stop-color="#1D0EAA"/>
<stop offset="0.394" stop-color="#3826BE"/>
<stop offset="0.715" stop-color="#654DDE"/>
<stop offset="1" stop-color="#9375FF"/>
</linearGradient>
<linearGradient id="paint2_linear_2859_4114" x1="47.3686" y1="58.1363" x2="72.7896" y2="62.8629" gradientUnits="userSpaceOnUse">
<stop stop-color="#1306A3"/>
<stop offset="0.145" stop-color="#1D0EAA"/>
<stop offset="0.394" stop-color="#3826BE"/>
<stop offset="0.715" stop-color="#654DDE"/>
<stop offset="1" stop-color="#9375FF"/>
</linearGradient>
<linearGradient id="paint3_linear_2859_4114" x1="48.3003" y1="55.7" x2="73.0622" y2="64.5094" gradientUnits="userSpaceOnUse">
<stop stop-color="#1306A3"/>
<stop offset="0.145" stop-color="#1D0EAA"/>
<stop offset="0.394" stop-color="#3826BE"/>
<stop offset="0.715" stop-color="#654DDE"/>
<stop offset="1" stop-color="#9375FF"/>
</linearGradient>
<linearGradient id="paint4_linear_2859_4114" x1="84.7883" y1="34.2116" x2="321.775" y2="47.7826" gradientUnits="userSpaceOnUse">
<stop stop-color="#1306A3"/>
<stop offset="0.145" stop-color="#1D0EAA"/>
<stop offset="0.394" stop-color="#3826BE"/>
<stop offset="0.715" stop-color="#654DDE"/>
<stop offset="1" stop-color="#9375FF"/>
</linearGradient>
<linearGradient id="paint5_linear_2859_4114" x1="84.9478" y1="32.846" x2="309.096" y2="103.884" gradientUnits="userSpaceOnUse">
<stop stop-color="#1306A3"/>
<stop offset="0.145" stop-color="#1D0EAA"/>
<stop offset="0.394" stop-color="#3826BE"/>
<stop offset="0.715" stop-color="#654DDE"/>
<stop offset="1" stop-color="#9375FF"/>
</linearGradient>
<linearGradient id="paint6_linear_2859_4114" x1="85.6395" y1="26.6653" x2="322.81" y2="51.6177" gradientUnits="userSpaceOnUse">
<stop stop-color="#1306A3"/>
<stop offset="0.145" stop-color="#1D0EAA"/>
<stop offset="0.394" stop-color="#3826BE"/>
<stop offset="0.715" stop-color="#654DDE"/>
<stop offset="1" stop-color="#9375FF"/>
</linearGradient>
<linearGradient id="paint7_linear_2859_4114" x1="86.5161" y1="21.9165" x2="323.458" y2="35.6804" gradientUnits="userSpaceOnUse">
<stop stop-color="#1306A3"/>
<stop offset="0.145" stop-color="#1D0EAA"/>
<stop offset="0.394" stop-color="#3826BE"/>
<stop offset="0.715" stop-color="#654DDE"/>
<stop offset="1" stop-color="#9375FF"/>
</linearGradient>
<linearGradient id="paint8_linear_2859_4114" x1="87.3895" y1="15.814" x2="324.204" y2="26.5372" gradientUnits="userSpaceOnUse">
<stop stop-color="#1306A3"/>
<stop offset="0.145" stop-color="#1D0EAA"/>
<stop offset="0.394" stop-color="#3826BE"/>
<stop offset="0.715" stop-color="#654DDE"/>
<stop offset="1" stop-color="#9375FF"/>
</linearGradient>
<linearGradient id="paint9_linear_2859_4114" x1="88.2135" y1="10.1112" x2="325.153" y2="25.3758" gradientUnits="userSpaceOnUse">
<stop stop-color="#1306A3"/>
<stop offset="0.145" stop-color="#1D0EAA"/>
<stop offset="0.394" stop-color="#3826BE"/>
<stop offset="0.715" stop-color="#654DDE"/>
<stop offset="1" stop-color="#9375FF"/>
</linearGradient>
<linearGradient id="paint10_linear_2859_4114" x1="88.3409" y1="6.96563" x2="324.51" y2="7.22013" gradientUnits="userSpaceOnUse">
<stop stop-color="#1306A3"/>
<stop offset="0.145" stop-color="#1D0EAA"/>
<stop offset="0.394" stop-color="#3826BE"/>
<stop offset="0.715" stop-color="#654DDE"/>
<stop offset="1" stop-color="#9375FF"/>
</linearGradient>
<linearGradient id="paint11_linear_2859_4114" x1="88.7568" y1="6.33818" x2="325.278" y2="12.9709" gradientUnits="userSpaceOnUse">
<stop stop-color="#1306A3"/>
<stop offset="0.145" stop-color="#1D0EAA"/>
<stop offset="0.394" stop-color="#3826BE"/>
<stop offset="0.715" stop-color="#654DDE"/>
<stop offset="1" stop-color="#9375FF"/>
</linearGradient>
</defs>
</svg>
