<svg width="24" height="24" viewBox="0 0 24 24" fill="none" xmlns="http://www.w3.org/2000/svg">
<path fill-rule="evenodd" clip-rule="evenodd" d="M12.309 2.08141C10.379 2.01714 8.42912 2.5437 6.74564 3.66742C4.85486 4.93086 3.53349 6.79659 2.92486 8.8823C2.75678 8.86178 2.55551 8.87083 2.31653 8.93843C1.42424 9.1916 0.753148 9.92274 0.451396 10.5667C0.0600239 11.4059 -0.105034 12.5157 0.0690764 13.6614C0.24198 14.8036 0.724482 15.745 1.32799 16.3295C1.9333 16.9143 2.61677 17.1044 3.29571 16.9617C4.30658 16.746 4.80779 16.5845 4.66627 15.6428L3.98099 11.0775C4.11919 8.6068 5.39832 6.2809 7.53774 4.85059C10.4014 2.93779 14.1558 3.0603 16.8872 5.15717C18.7874 6.61403 19.8906 8.7969 20.0179 11.0884L19.5387 14.2819C18.4699 17.2067 15.8202 19.2327 12.7541 19.5203H10.7125C10.1856 19.5203 9.76135 19.9445 9.76135 20.4708V20.9723C9.76135 21.4989 10.1856 21.9231 10.7125 21.9231H13.2867C13.8133 21.9231 14.2357 21.4989 14.2357 20.9723V20.7101C16.5478 20.1458 18.5659 18.7248 19.88 16.7432L20.7047 16.962C21.3758 17.1361 22.0674 16.9143 22.6724 16.3298C23.2759 15.745 23.7581 14.8039 23.9313 13.6617C24.106 12.516 23.9361 11.408 23.5493 10.567C23.1609 9.726 22.5825 9.1919 21.9147 9.00029C21.635 8.91972 21.3314 8.89015 21.071 8.8823C20.5206 6.99635 19.3875 5.28119 17.7545 4.02892C16.1488 2.79687 14.239 2.14478 12.309 2.08141Z" fill="white"/>
<path fill-rule="evenodd" clip-rule="evenodd" d="M15.3221 10.2945C16.0026 10.2945 16.5542 10.8461 16.5557 11.5283C16.5542 12.2088 16.0026 12.7619 15.3221 12.7619C14.6399 12.7619 14.0868 12.2088 14.0868 11.5283C14.0868 10.8464 14.6402 10.2945 15.3221 10.2945ZM11.9998 10.2945C12.6818 10.2945 13.2334 10.8461 13.2334 11.5283C13.2334 12.2088 12.6818 12.7619 11.9998 12.7619C11.3173 12.7619 10.7657 12.2088 10.7657 11.5283C10.7657 10.8464 11.3173 10.2945 11.9998 10.2945ZM8.67876 10.2945C9.35921 10.2945 9.91232 10.8461 9.91232 11.5283C9.91232 12.2088 9.35921 12.7619 8.67876 12.7619C7.9968 12.7619 7.4449 12.2088 7.4449 11.5283C7.4449 10.8464 7.9968 10.2945 8.67876 10.2945ZM11.9998 4.99512C8.38184 4.99512 5.46631 7.81469 5.46631 11.5283C5.46631 13.312 6.14072 14.8884 7.2394 16.045L6.84954 17.7927C6.72099 18.3679 7.11991 18.7547 7.63681 18.4668L9.34352 17.5148C10.1546 17.867 11.0517 18.0616 11.9998 18.0616C15.6191 18.0616 18.5328 15.2438 18.5328 11.5283C18.5328 7.81469 15.6191 4.99512 11.9998 4.99512Z" fill="white"/>
</svg>
