<svg width="86" height="45" viewBox="0 0 86 45" fill="none" xmlns="http://www.w3.org/2000/svg">
<path d="M0 2C0 0.895431 0.895431 0 2 0H84C85.1046 0 86 0.895431 86 2V33H2C0.895431 33 0 32.1046 0 31V2Z" fill="#138808"/>
<path d="M12.592 22.192C11.824 22.192 11.1467 22.048 10.56 21.76C9.984 21.472 9.536 21.0613 9.216 20.528C8.896 19.984 8.736 19.3387 8.736 18.592H10.752C10.752 18.9973 10.8267 19.3547 10.976 19.664C11.1253 19.9627 11.3387 20.192 11.616 20.352C11.8933 20.512 12.2187 20.592 12.592 20.592C12.9547 20.592 13.2693 20.512 13.536 20.352C13.8027 20.192 14.0107 19.952 14.16 19.632C14.32 19.3013 14.4 18.896 14.4 18.416C14.4 17.968 14.3253 17.6 14.176 17.312C14.0267 17.0133 13.8187 16.7947 13.552 16.656C13.2853 16.5067 12.9813 16.432 12.64 16.432C12.384 16.432 12.1493 16.4747 11.936 16.56C11.7227 16.6453 11.536 16.7573 11.376 16.896C11.216 17.024 11.0773 17.1733 10.96 17.344L9.104 17.104L9.552 11.024H15.856V12.8H11.248L11.072 15.504C11.2213 15.3973 11.392 15.296 11.584 15.2C11.776 15.104 12 15.024 12.256 14.96C12.5227 14.896 12.8267 14.864 13.168 14.864C13.776 14.864 14.3253 14.992 14.816 15.248C15.3067 15.504 15.696 15.8933 15.984 16.416C16.272 16.9387 16.416 17.6053 16.416 18.416C16.416 19.216 16.2613 19.8987 15.952 20.464C15.6427 21.0293 15.2 21.4613 14.624 21.76C14.0587 22.048 13.3813 22.192 12.592 22.192ZM21.8111 22.192C21.2138 22.192 20.6805 22.1067 20.2111 21.936C19.7418 21.7547 19.3418 21.4507 19.0111 21.024C18.6805 20.5973 18.4298 20.0213 18.2591 19.296C18.0885 18.56 18.0031 17.632 18.0031 16.512C18.0031 15.392 18.0885 14.4693 18.2591 13.744C18.4298 13.008 18.6805 12.4267 19.0111 12C19.3418 11.5733 19.7418 11.2747 20.2111 11.104C20.6805 10.9227 21.2138 10.832 21.8111 10.832C22.4085 10.832 22.9365 10.9227 23.3951 11.104C23.8645 11.2747 24.2645 11.5733 24.5951 12C24.9258 12.4267 25.1765 13.008 25.3471 13.744C25.5178 14.4693 25.6031 15.392 25.6031 16.512C25.6031 17.632 25.5178 18.56 25.3471 19.296C25.1765 20.0213 24.9258 20.5973 24.5951 21.024C24.2645 21.4507 23.8645 21.7547 23.3951 21.936C22.9365 22.1067 22.4085 22.192 21.8111 22.192ZM21.8111 20.592C22.3125 20.592 22.6858 20.4587 22.9311 20.192C23.1871 19.9147 23.3578 19.5093 23.4431 18.976C23.5391 18.432 23.5871 17.76 23.5871 16.96V16.128C23.5871 15.3067 23.5391 14.624 23.4431 14.08C23.3578 13.5253 23.1871 13.1147 22.9311 12.848C22.6858 12.5707 22.3125 12.432 21.8111 12.432C21.3205 12.432 20.9418 12.5707 20.6751 12.848C20.4191 13.1147 20.2431 13.52 20.1471 14.064C20.0618 14.5973 20.0191 15.2693 20.0191 16.08V16.912C20.0191 17.7227 20.0618 18.4053 20.1471 18.96C20.2431 19.504 20.4191 19.9147 20.6751 20.192C20.9418 20.4587 21.3205 20.592 21.8111 20.592ZM29.3823 22L37.4143 11.024H38.9663L30.9023 22H29.3823ZM30.4383 16.608C29.9049 16.608 29.4409 16.5227 29.0463 16.352C28.6516 16.1707 28.3476 15.872 28.1343 15.456C27.9316 15.04 27.8303 14.464 27.8303 13.728C27.8303 12.9813 27.9316 12.4 28.1343 11.984C28.3476 11.568 28.6516 11.2747 29.0463 11.104C29.4409 10.9227 29.9049 10.832 30.4383 10.832C30.9823 10.832 31.4463 10.9227 31.8303 11.104C32.2143 11.2747 32.5076 11.568 32.7103 11.984C32.9236 12.4 33.0303 12.9813 33.0303 13.728C33.0303 14.464 32.9236 15.0453 32.7103 15.472C32.5076 15.888 32.2143 16.1813 31.8303 16.352C31.4463 16.5227 30.9823 16.608 30.4383 16.608ZM30.4383 15.424C30.8756 15.424 31.1636 15.28 31.3023 14.992C31.4409 14.704 31.5103 14.3147 31.5103 13.824V13.616C31.5103 13.296 31.4783 13.0187 31.4143 12.784C31.3609 12.5387 31.2543 12.352 31.0943 12.224C30.9449 12.0853 30.7263 12.016 30.4383 12.016C30.0116 12.016 29.7236 12.1653 29.5743 12.464C29.4356 12.752 29.3663 13.136 29.3663 13.616V13.824C29.3663 14.3147 29.4356 14.704 29.5743 14.992C29.7236 15.28 30.0116 15.424 30.4383 15.424ZM37.8623 22.192C37.3289 22.192 36.8649 22.1067 36.4703 21.936C36.0863 21.7547 35.7876 21.456 35.5743 21.04C35.3716 20.624 35.2703 20.048 35.2703 19.312C35.2703 18.5653 35.3716 17.984 35.5743 17.568C35.7876 17.152 36.0863 16.8587 36.4703 16.688C36.8649 16.5067 37.3289 16.416 37.8623 16.416C38.4063 16.416 38.8703 16.5067 39.2543 16.688C39.6489 16.8587 39.9476 17.152 40.1503 17.568C40.3529 17.984 40.4543 18.5653 40.4543 19.312C40.4543 20.048 40.3529 20.6293 40.1503 21.056C39.9476 21.472 39.6489 21.7653 39.2543 21.936C38.8703 22.1067 38.4063 22.192 37.8623 22.192ZM37.8623 21.008C38.2996 21.008 38.5876 20.864 38.7263 20.576C38.8649 20.2773 38.9343 19.8827 38.9343 19.392V19.2C38.9343 18.88 38.9023 18.6027 38.8383 18.368C38.7849 18.1227 38.6836 17.936 38.5343 17.808C38.3849 17.6693 38.1609 17.6 37.8623 17.6C37.4356 17.6 37.1529 17.7493 37.0143 18.048C36.8756 18.336 36.8063 18.72 36.8063 19.2V19.392C36.8063 19.8827 36.8756 20.2773 37.0143 20.576C37.1529 20.864 37.4356 21.008 37.8623 21.008ZM51.3185 22.192C50.1772 22.192 49.1905 21.9893 48.3585 21.584C47.5265 21.168 46.8865 20.5387 46.4385 19.696C46.0012 18.8533 45.7825 17.792 45.7825 16.512C45.7825 15.2213 46.0012 14.16 46.4385 13.328C46.8865 12.4853 47.5265 11.8613 48.3585 11.456C49.1905 11.04 50.1772 10.832 51.3185 10.832C52.4705 10.832 53.4572 11.04 54.2785 11.456C55.1105 11.8613 55.7452 12.4853 56.1825 13.328C56.6305 14.16 56.8545 15.2213 56.8545 16.512C56.8545 17.792 56.6305 18.8533 56.1825 19.696C55.7452 20.5387 55.1105 21.168 54.2785 21.584C53.4572 21.9893 52.4705 22.192 51.3185 22.192ZM51.3185 20.432C51.8732 20.432 52.3585 20.352 52.7745 20.192C53.2012 20.032 53.5585 19.7973 53.8465 19.488C54.1345 19.168 54.3532 18.7787 54.5025 18.32C54.6518 17.8507 54.7265 17.312 54.7265 16.704V16.352C54.7265 15.7333 54.6518 15.1893 54.5025 14.72C54.3532 14.2507 54.1345 13.8613 53.8465 13.552C53.5585 13.232 53.2012 12.992 52.7745 12.832C52.3585 12.672 51.8732 12.592 51.3185 12.592C50.7638 12.592 50.2732 12.672 49.8465 12.832C49.4305 12.992 49.0785 13.232 48.7905 13.552C48.5025 13.8613 48.2838 14.2507 48.1345 14.72C47.9958 15.1893 47.9265 15.7333 47.9265 16.352V16.704C47.9265 17.312 47.9958 17.8507 48.1345 18.32C48.2838 18.7787 48.5025 19.168 48.7905 19.488C49.0785 19.7973 49.4305 20.032 49.8465 20.192C50.2732 20.352 50.7638 20.432 51.3185 20.432ZM58.7941 22V11.024H66.6821V12.8H60.8741V15.744H66.1061V17.52H60.8741V22H58.7941ZM68.5441 22V11.024H76.4321V12.8H70.6241V15.744H75.8561V17.52H70.6241V22H68.5441Z" fill="white"/>
<path d="M62 33H86L72 40L62 45V33Z" fill="#0D6404"/>
</svg>
