<svg xmlns="http://www.w3.org/2000/svg" width="80" height="80" viewBox="0 0 80 80">
  <g id="_Android" data-name="  Android" transform="translate(6.172)">
    <rect id="Rectangle_11" data-name="Rectangle 11" width="80" height="80" transform="translate(-6.172)" fill="none"/>
    <path id="Path_553" data-name="Path 553" d="M156.728,0h.286a.826.826,0,0,1,.45.336q1.74,3.177,3.471,6.362a.05.05,0,0,0,.068.026q.3-.1.586-.221a23.682,23.682,0,0,1,10.87-1.714,23.4,23.4,0,0,1,7.736,1.92.112.112,0,0,0,.143-.048q1.753-3.223,3.465-6.35A.915.915,0,0,1,184.2,0h.176c.546.1.876.512.585,1.046q-1.67,3.063-3.33,6.133c-.01.018-.006.029.015.033l-.026.084a.039.039,0,0,1-.015-.007q-.019-.015-.025.007a.1.1,0,0,1-.011.021.051.051,0,0,0,.01.071l.008,0c6.557,3.358,11.313,10.065,11.226,17.6a.047.047,0,0,1-.047.052,4.7,4.7,0,0,1-.569.04q-.823-.019-3.567-.021-20.093-.009-40.148.006a.1.1,0,0,1-.1-.1v0q.023-1.065.142-2.117A20.179,20.179,0,0,1,159.687,7.383a.057.057,0,0,0,.024-.077h0q-1.7-3.109-3.375-6.224C156.022.5,156.25.3,156.728,0m5.651,15.192a1.874,1.874,0,1,0-1.874,1.874,1.874,1.874,0,0,0,1.874-1.874m18.257,1.885a1.889,1.889,0,1,0-1.728-2.011,1.889,1.889,0,0,0,1.728,2.011Z" transform="translate(-136.789 0)" fill="#84b92b"/>
    <path id="Path_554" data-name="Path 554" d="M5.077,362.341a4.962,4.962,0,0,1-3.652-1.492A4.9,4.9,0,0,1,0,357.562V336.64a7.494,7.494,0,0,1,.228-1.385,4.935,4.935,0,0,1,8.536-1.64,5.166,5.166,0,0,1,1.08,3.623q.005,10.088,0,20.176a4.891,4.891,0,0,1-4.075,4.845c-.194.033-.462.032-.695.082" transform="translate(0 -305.876)" fill="#84b92b"/>
    <path id="Path_555" data-name="Path 555" d="M750.253,336.366v21.472A5.116,5.116,0,0,1,749.5,360a4.893,4.893,0,0,1-3.953,2.32l-.633,0a4.976,4.976,0,0,1-4.394-3.885,9.781,9.781,0,0,1-.112-1.751q-.013-9.887.008-19.772a4.812,4.812,0,0,1,.861-3.042,4.905,4.905,0,0,1,5.333-1.913,4.342,4.342,0,0,1,1.813.914,4.846,4.846,0,0,1,1.829,3.5" transform="translate(-682.561 -305.877)" fill="#84b92b"/>
    <path id="Path_556" data-name="Path 556" d="M150.763,343.221h44.08a.039.039,0,0,1,.04.04v31.026a14.2,14.2,0,0,1,0,1.465,5.751,5.751,0,0,1-.607,2,5.26,5.26,0,0,1-3.859,2.729c-1.417.12-2.864.025-4.289.039a.1.1,0,0,0-.1.1q0,5.117,0,10.261a8.771,8.771,0,0,1-.123,1.749,4.976,4.976,0,0,1-4.473,3.773H180.7a5.061,5.061,0,0,1-2.034-.62,4.865,4.865,0,0,1-2.507-4.367c-.057-3.46,0-6.933-.008-10.395,0-.135-.027-.277-.018-.426a.047.047,0,0,0-.048-.055q-.285-.023-.569-.023-2.986,0-5.931-.005a.1.1,0,0,0-.1.095q-.039,4.986,0,9.906a13.074,13.074,0,0,1-.063,1.755,4.956,4.956,0,0,1-4.571,4.135h-.679a4.8,4.8,0,0,1-2.091-.675,5,5,0,0,1-2.462-4.184l0-3.756-.015-7.2a.046.046,0,0,0-.056-.051c-.135.011-.258-.027-.372-.025q-2.8.047-3.635.005a5.22,5.22,0,0,1-4.681-4.168,9.906,9.906,0,0,1-.111-1.752q-.008-15.686.013-31.377" transform="translate(-138.971 -316.406)" fill="#84b92b"/>
  </g>
</svg>
