<svg width="50" height="48" viewBox="0 0 50 48" fill="none" xmlns="http://www.w3.org/2000/svg">
<path d="M49.8321 9.81564C49.6837 9.62781 49.455 9.51575 49.2203 9.51575C49.0814 9.51575 48.9432 9.55495 48.8249 9.62664L40.9927 17.592C40.9472 17.1905 40.8446 16.8 40.6887 16.4317L40.6714 16.3905C40.4608 15.9115 40.1677 15.4835 39.7993 15.1169C39.5444 14.8593 39.2622 14.6422 38.9638 14.4726L32.9481 10.9664L34.5662 2.1652C34.6932 1.72482 34.6225 1.27905 34.3673 0.909566C34.1105 0.537849 33.6941 0.297546 33.2527 0.266504C33.2201 0.264136 33.1873 0.263084 33.1547 0.263084C32.8982 0.263084 32.6502 0.331611 32.4161 0.467354L26.3182 7.20336C25.892 7.05552 25.4478 6.98055 24.9956 6.98055C24.5458 6.98055 24.1029 7.05474 23.6769 7.20113L17.5835 0.467354C17.352 0.331742 17.1038 0.262939 16.8459 0.262939C16.3867 0.262939 15.9443 0.488664 15.6626 0.866695C15.3858 1.23828 15.3012 1.71141 15.4309 2.16494L17.0517 10.9667L11.0365 14.4725C9.90562 15.1285 9.15872 16.2806 9.00814 17.5845L1.17895 9.6215C1.05676 9.54745 0.918938 9.50838 0.78034 9.50838C0.545741 9.50838 0.317006 9.62072 0.168249 9.80894C0.0206631 9.99572 -0.03326 10.238 0.0201469 10.4752L1.69751 21.1301C1.77032 21.4549 1.88548 21.7653 2.03997 22.0519C2.39871 22.7243 2.94827 23.2577 3.62979 23.5947L8.98039 26.2322V27.0034L4.75838 23.4495C4.67111 23.3967 4.57262 23.3688 4.47323 23.3688C4.30728 23.3688 4.14549 23.4478 4.04103 23.58C3.93643 23.7121 3.89801 23.8842 3.9367 24.0573L4.87886 29.2125C5.02436 29.8548 5.44342 30.3894 6.02933 30.6793L8.9843 32.1347C9.02534 33.1081 9.40439 34.0368 10.0617 34.7657C10.3388 35.0733 10.6668 35.3384 11.0359 35.553L17.0951 39.0845C16.2967 40.8194 16.368 43.5209 17.3111 47.3275C17.409 47.7235 17.7601 48 18.1652 48C18.4417 48 18.6967 47.8705 18.8641 47.6445C20.4 45.5728 22.4452 44.0269 24.9433 43.0489C24.9433 43.0489 25.0194 43.0484 25.0533 43.0475C27.553 44.0253 29.5992 45.5716 31.136 47.6443C31.3034 47.8703 31.5584 47.9999 31.8349 47.9999C32.2399 47.9999 32.5911 47.7233 32.689 47.3273C33.6318 43.5211 33.7034 40.8199 32.9052 39.0853L38.9639 35.553C39.9804 34.9609 40.6993 33.9536 40.936 32.7894L40.9413 32.7598C40.9802 32.5585 41.0049 32.3508 41.0149 32.1402L43.9709 30.6843C44.5558 30.3965 44.9753 29.8616 45.1201 29.2224L46.0644 24.0572C46.1023 23.8905 46.0639 23.719 45.9593 23.5865C45.8542 23.4534 45.6922 23.3741 45.5256 23.3741C45.4266 23.3741 45.3283 23.402 45.2557 23.4467L41.0197 27.0109V26.24L46.3708 23.6023C47.3547 23.1155 48.0597 22.2177 48.3049 21.1395L49.9802 10.4787C50.033 10.2435 49.979 10.0019 49.8321 9.81564Z" fill="url(#paint0_linear_650_1651)"/>
<path d="M49.7267 10.4202L48.273 16.6997L48.0515 17.6599C47.8249 18.6569 47.1658 19.4961 46.2565 19.946L40.7595 22.6556V24.0236L45.376 21.6059C45.5974 21.4718 45.8684 21.6717 45.811 21.9242L45.4541 23.3685L44.868 25.7388C44.7976 26.0465 44.6569 26.328 44.4537 26.5595C44.4251 26.5937 44.3964 26.6253 44.3652 26.6569C44.2193 26.8068 44.0473 26.9331 43.8545 27.0278L40.7595 28.5536C40.7569 28.8114 40.7309 29.0666 40.6814 29.3139V29.3165C40.4625 30.3925 39.8008 31.3421 38.8343 31.9051L32.5635 35.5618C33.5066 37.3348 33.3321 40.2286 32.4359 43.8432C32.3108 44.3535 31.6569 44.4877 31.3443 44.0668C29.7577 41.928 27.6735 40.3601 25.0996 39.3631C25.0318 39.3657 24.9641 39.3684 24.8964 39.3657C24.5811 39.4868 24.2737 39.6183 23.9741 39.7551C22.6585 40.3654 21.4835 41.1388 20.4519 42.0754C19.7928 42.6725 19.1936 43.3355 18.6543 44.0668C18.3677 44.4535 17.7919 44.3719 17.6018 43.9563C17.5861 43.9195 17.5731 43.8826 17.5627 43.8432C17.3465 42.975 17.1745 42.149 17.0495 41.3703C16.7342 39.4315 16.7108 37.7821 17.0651 36.5114C17.1589 36.1642 17.2839 35.8485 17.4377 35.5591L11.5056 32.1024H11.503L11.4821 32.0892L11.1669 31.9051C10.823 31.7052 10.5156 31.4579 10.2551 31.1685C9.61679 30.4608 9.24424 29.5296 9.24164 28.5483L6.14403 27.0225C5.63341 26.77 5.26087 26.2965 5.13321 25.7335L4.19012 21.919C4.13281 21.6638 4.40375 21.4665 4.62519 21.6007L9.24164 24.0156V22.6477L3.74464 19.9381C3.11157 19.625 2.59834 19.1226 2.27008 18.507C2.12679 18.2413 2.01999 17.9545 1.95225 17.652L0.274492 10.415C0.172889 9.96512 0.654844 9.60998 1.04563 9.84675L9.06969 14.5031L9.24164 14.603V14.6504C9.24164 14.5662 9.24424 14.4794 9.24945 14.3952C9.33281 13.1062 10.0467 11.9303 11.1669 11.2805L17.3595 7.67116L15.6817 1.8284C15.3795 0.770864 16.5102 -0.12094 17.4533 0.431505L23.6511 4.06974C24.5212 3.7409 25.4773 3.74091 26.3449 4.07237L32.5479 0.431505C32.7746 0.299971 33.009 0.249986 33.2357 0.26577C33.9495 0.315753 34.5487 1.02341 34.3168 1.8284L32.6417 7.67116L38.8343 11.2805C39.1261 11.4462 39.384 11.6488 39.6158 11.8829L39.6184 11.8855C39.9623 12.2275 40.2385 12.6326 40.4339 13.0772C40.4365 13.0851 40.4417 13.093 40.4443 13.1009C40.6423 13.5692 40.7543 14.0769 40.7595 14.6083V14.6109L48.9529 9.85463C49.1744 9.72046 49.4245 9.77572 49.5808 9.9283C49.6042 9.95197 49.6277 9.97564 49.6459 10.0046C49.6668 10.0309 49.6824 10.0625 49.6954 10.094C49.7006 10.1098 49.7084 10.1256 49.7137 10.1414C49.7423 10.2256 49.7501 10.3203 49.7267 10.4202Z" fill="url(#paint1_linear_650_1651)"/>
<path d="M49.7141 10.1415C49.7089 10.1257 49.7011 10.1099 49.6958 10.0941C49.6828 10.0626 49.6646 10.031 49.6463 10.0047C49.6281 9.97574 49.6047 9.95207 49.5812 9.9284C49.4249 9.77582 49.1748 9.72056 48.9534 9.85473L40.76 14.6084V14.611H40.7573C40.7521 14.0796 40.6401 13.5693 40.4421 13.101L11.506 32.1025L17.4381 35.5592C17.2844 35.8486 17.1593 36.1643 17.0655 36.5115L18.0555 35.9223L48.2708 16.6998L49.7245 10.4203C49.748 10.3204 49.7401 10.2257 49.7141 10.1415ZM21.8748 38.1505L17.0499 41.3704C17.1749 42.1491 17.3469 42.9751 17.5631 43.8433C17.5735 43.8827 17.5866 43.9196 17.6022 43.9564L20.4523 42.0755L23.9746 39.7552L24.5998 39.3448L40.6792 29.3166V29.314C40.7287 29.0667 40.7547 28.8115 40.7573 28.5537H40.76L43.855 27.0279C44.0477 26.9332 44.2197 26.8069 44.3656 26.657C44.3968 26.6254 44.4255 26.5938 44.4542 26.5596C44.6521 26.3281 44.7954 26.0466 44.8658 25.7388L45.452 23.3686L21.8748 38.1505ZM38.8347 11.2806L32.6421 7.67126L34.3173 1.8285C34.5491 1.02351 33.9499 0.315852 33.2361 0.265869C30.2766 2.01528 26.9185 4.00407 26.8924 4.00407L26.6032 4.17507L9.24987 14.3953L9.07011 14.5032L2.27051 18.5071C2.59876 19.1227 3.112 19.6251 3.74507 19.9382L9.24207 22.6478V24.0157L4.62562 21.6008C4.40417 21.4666 4.13324 21.6639 4.19055 21.9191L5.13364 25.7336C5.26129 26.2966 5.63384 26.7701 6.14446 27.0226L9.24207 28.5484C9.24467 29.5297 9.61722 30.4609 10.2555 31.1686L39.6163 11.883C39.3844 11.6489 39.1265 11.4463 38.8347 11.2806Z" fill="url(#paint2_linear_650_1651)"/>
<path d="M11.7266 28.8778V14.3067C11.7266 14.0265 11.8745 13.7676 12.1149 13.6276L24.6116 6.34225C24.8519 6.20216 25.1479 6.20216 25.3882 6.34225L37.8844 13.6276C38.1247 13.7676 38.2727 14.0265 38.2727 14.3067V28.8778C38.2727 29.158 38.1247 29.4168 37.8844 29.5569L25.3877 36.8422C25.1473 36.9823 24.8514 36.9823 24.611 36.8422L12.1149 29.5569C11.8745 29.4168 11.7266 29.158 11.7266 28.8778Z" fill="#A97005"/>
<path d="M13.9082 27.6058V15.5786C13.9082 15.2984 14.0562 15.0395 14.2965 14.8994L24.6115 8.88607C24.8518 8.74598 25.1479 8.74598 25.3881 8.88607L35.7026 14.8994C35.943 15.0395 36.0909 15.2984 36.0909 15.5786V27.6058C36.0909 27.886 35.943 28.1448 35.7026 28.2849L25.3877 34.2983C25.1474 34.4384 24.8513 34.4384 24.6111 34.2983L14.2965 28.2849C14.0562 28.1448 13.9082 27.886 13.9082 27.6058Z" fill="#CC7B06"/>
<path d="M49.8321 9.81563C49.6837 9.62779 49.455 9.51574 49.2203 9.51574C49.0814 9.51574 48.9432 9.55494 48.8249 9.62663L40.9927 14.1721C40.9472 13.7706 40.8446 13.3801 40.6887 13.0118L40.6714 12.9706C40.4608 12.4916 40.1677 12.0636 39.7993 11.697C39.5444 11.4394 39.2622 11.2223 38.9638 11.0527L32.9481 7.54653L34.5662 1.90211C34.6932 1.46174 34.6225 1.01596 34.3673 0.646482C34.1105 0.274765 33.6941 0.0344622 33.2527 0.00342003C33.2201 0.00105241 33.1873 0 33.1547 0C32.8982 0 32.6502 0.0685267 32.4161 0.20427L26.3182 3.78345C25.892 3.63561 25.4478 3.56063 24.9956 3.56063C24.5458 3.56063 24.1029 3.63482 23.6769 3.78122L17.5835 0.204399C17.352 0.0687867 17.1038 0 16.8459 0C16.3867 0 15.9443 0.225709 15.6626 0.603739C15.3858 0.975325 15.3012 1.44845 15.4309 1.90199L17.0517 7.5468L11.0365 11.0526C9.90562 11.7085 9.15872 12.8607 9.00814 14.1646L1.17895 9.62149C1.05676 9.54743 0.918938 9.50837 0.78034 9.50837C0.545741 9.50837 0.317006 9.6207 0.168249 9.80893C0.0206631 9.99571 -0.03326 10.238 0.0201469 10.4751L1.69751 17.7102C1.77032 18.035 1.88548 18.3454 2.03997 18.632C2.39871 19.3044 2.94827 19.8378 3.62979 20.1748L8.98039 22.8123V23.5835L4.75838 21.3753C4.67111 21.3225 4.57262 21.2947 4.47323 21.2947C4.30728 21.2947 4.14549 21.3736 4.04103 21.5058C3.93643 21.638 3.89801 21.81 3.9367 21.9831L4.87886 25.7926C5.02436 26.4349 5.44342 26.9695 6.02933 27.2594L8.9843 28.7148C9.02534 29.6881 9.40439 30.6169 10.0617 31.3457C10.3388 31.6534 10.6668 31.9184 11.0359 32.1331L17.0951 35.6646C16.2967 37.3995 16.368 40.1009 17.3111 43.9076C17.409 44.3036 17.7601 44.5801 18.1652 44.5801C18.4417 44.5801 18.6967 44.4505 18.8641 44.2246C20.4 42.1529 22.4452 40.607 24.9433 39.629C24.9433 39.629 25.0194 39.6285 25.0533 39.6276C27.553 40.6054 29.5992 42.1517 31.136 44.2244C31.3034 44.4504 31.5584 44.58 31.8349 44.58C32.2399 44.58 32.5911 44.3033 32.689 43.9074C33.6318 40.1012 33.7034 37.4 32.9052 35.6653L38.9639 32.1331C39.9804 31.5409 40.6993 30.5336 40.936 29.3694L40.9413 29.3398C40.9802 29.1386 41.0049 28.9309 41.0149 28.7203L43.9709 27.2644C44.5558 26.9766 44.9753 26.4417 45.1201 25.8025L46.0644 21.983C46.1023 21.8163 46.0639 21.6448 45.9593 21.5123C45.8542 21.3792 45.6922 21.2999 45.5256 21.2999C45.4266 21.2999 45.3283 21.3278 45.2557 21.3725L41.0197 23.591V22.8201L46.3708 20.1824C47.3547 19.6956 48.0597 18.7977 48.3049 17.7196L49.9802 10.4787C50.033 10.2435 49.979 10.0019 49.8321 9.81563ZM49.7258 10.4203L48.2721 16.6998L48.0507 17.66C47.824 18.657 47.1649 19.4962 46.2557 19.946L40.7587 22.6556V24.0236L45.3751 21.606C45.5965 21.4718 45.8675 21.6718 45.8102 21.9243L45.4533 23.3686L44.8671 25.7388C44.7394 26.3018 44.3695 26.7753 43.8563 27.0279L40.7587 28.5537C40.7561 28.8115 40.73 29.0666 40.6805 29.3139V29.3166C40.4617 30.3925 39.7999 31.3422 38.8334 31.9052L32.5621 35.5612C33.5055 37.335 33.3315 40.228 32.4361 43.8435C32.3098 44.3533 31.6562 44.4875 31.3442 44.0669C29.7581 41.9274 27.6748 40.3613 25.0985 39.3632C25.031 39.3648 24.9636 39.3671 24.8963 39.3652C22.3222 40.3632 20.2404 41.9286 18.6552 44.0669C18.3433 44.4876 17.6896 44.3533 17.5634 43.8435C16.6679 40.2274 16.4938 37.3341 17.4377 35.5602L11.5047 32.1025L11.4813 32.0893L11.166 31.9052C10.8221 31.7052 10.5147 31.4579 10.2542 31.1686C9.61592 30.4609 9.24339 29.5297 9.24079 28.5484L6.14318 27.0226C5.63256 26.77 5.26001 26.2965 5.13236 25.7336L4.18927 21.9191C4.13196 21.6639 4.40289 21.4666 4.62434 21.6007L9.24079 24.0157V22.6477L3.74377 19.9381C3.11071 19.6251 2.59749 19.1226 2.26923 18.507C2.12594 18.2413 2.01912 17.9546 1.95138 17.6521L0.273624 10.415C0.172021 9.96518 0.653991 9.61004 1.04477 9.84681L9.06883 14.5031L9.24079 14.6031V14.6505C9.24079 14.5663 9.24338 14.4795 9.24859 14.3953C9.33196 13.1062 10.0458 11.9303 11.166 11.2805L17.3586 7.67122L15.6809 1.82846C15.3787 0.770924 16.5093 -0.12088 17.4524 0.431566L23.6502 4.0698C24.5204 3.74096 25.4765 3.74097 26.344 4.07243L32.547 0.431566C32.7737 0.300031 33.0082 0.250047 33.2348 0.265831C33.9486 0.315814 34.5478 1.02347 34.316 1.82846L32.6408 7.67122L38.8334 11.2805C39.1252 11.4463 39.3831 11.6488 39.615 11.883L39.6176 11.8856C39.9615 12.2276 40.2376 12.6327 40.433 13.0773C40.4356 13.0852 40.4408 13.0931 40.4434 13.101C40.6414 13.5692 40.7535 14.0796 40.7587 14.611L48.9547 9.85469C49.3455 9.61793 49.8274 9.97045 49.7258 10.4203Z" fill="url(#paint3_radial_650_1651)"/>
<path d="M25.4274 15.5099L26.7768 19.7036C26.9441 20.2232 27.4235 20.5751 27.9645 20.5751H32.3314C32.7667 20.5751 32.9476 21.1375 32.5955 21.396L29.0626 23.9879C28.6249 24.3089 28.4418 24.8782 28.6089 25.3978L29.9583 29.5915C30.0928 30.0095 29.619 30.3572 29.2667 30.0988L25.7338 27.5069C25.2961 27.1859 24.7033 27.1859 24.2656 27.5069L20.7327 30.0988C20.3805 30.3572 19.9067 30.0095 20.0412 29.5915L21.3905 25.3978C21.5577 24.8782 21.3745 24.3089 20.9368 23.9879L17.4039 21.396C17.0517 21.1376 17.2327 20.5751 17.6681 20.5751H22.0349C22.576 20.5751 23.0555 20.2232 23.2226 19.7036L24.572 15.5099C24.7072 15.0919 25.2929 15.0919 25.4274 15.5099Z" fill="#A97005"/>
<path d="M25.4274 13.7826L26.7768 17.9763C26.9441 18.4959 27.4235 18.8477 27.9645 18.8477H32.3314C32.7667 18.8477 32.9476 19.4102 32.5955 19.6687L29.0626 22.2605C28.6249 22.5816 28.4418 23.1509 28.6089 23.6705L29.9583 27.8642C30.0928 28.2822 29.619 28.6298 29.2667 28.3715L25.7338 25.7796C25.2961 25.4585 24.7033 25.4585 24.2656 25.7796L20.7327 28.3715C20.3805 28.6298 19.9067 28.2822 20.0412 27.8642L21.3905 23.6705C21.5577 23.1509 21.3745 22.5816 20.9368 22.2605L17.4039 19.6687C17.0517 19.4103 17.2327 18.8477 17.6681 18.8477H22.0349C22.576 18.8477 23.0555 18.4959 23.2226 17.9763L24.572 13.7826C24.7072 13.3645 25.2929 13.3645 25.4274 13.7826Z" fill="url(#paint4_radial_650_1651)"/>
<defs>
<linearGradient id="paint0_linear_650_1651" x1="-0.000122419" y1="24.1313" x2="49.9999" y2="24.1313" gradientUnits="userSpaceOnUse">
<stop stop-color="#A97005"/>
<stop offset="1" stop-color="#730B09"/>
</linearGradient>
<linearGradient id="paint1_linear_650_1651" x1="0.260711" y1="22.2898" x2="49.7405" y2="22.2898" gradientUnits="userSpaceOnUse">
<stop stop-color="#A19D00"/>
<stop offset="1" stop-color="#DBB400"/>
</linearGradient>
<linearGradient id="paint2_linear_650_1651" x1="9.06932" y1="32.0588" x2="47.7892" y2="7.12068" gradientUnits="userSpaceOnUse">
<stop stop-color="#CCB000"/>
<stop offset="1" stop-color="#F0CE47"/>
</linearGradient>
<radialGradient id="paint3_radial_650_1651" cx="0" cy="0" r="1" gradientUnits="userSpaceOnUse" gradientTransform="translate(24.9999 22.2898) scale(23.5825 23.8132)">
<stop stop-color="#E6CA2E"/>
<stop offset="1" stop-color="#BAAB00"/>
</radialGradient>
<radialGradient id="paint4_radial_650_1651" cx="0" cy="0" r="1" gradientUnits="userSpaceOnUse" gradientTransform="translate(25.0001 20.9646) scale(7.60449 7.67886)">
<stop stop-color="#E6CA2E"/>
<stop offset="1" stop-color="#BAAB00"/>
</radialGradient>
</defs>
</svg>
