<svg width="42" height="48" viewBox="0 0 42 48" fill="none" xmlns="http://www.w3.org/2000/svg">
<path d="M41.5639 15.2023C41.3046 14.6494 40.935 14.1434 40.4769 13.7157C40.1679 13.4236 39.8204 13.1679 39.4341 12.9593L23.5656 4.30041C23.5381 4.28477 23.5105 4.26912 23.4774 4.25864C21.905 3.4344 19.9958 3.45005 18.4344 4.30041L2.5657 12.9593C0.976596 13.8252 0 15.4319 0 17.1636V34.4868C0 35.7178 0.49666 36.8862 1.35178 37.773C1.69932 38.1329 2.1076 38.4408 2.5657 38.6911L2.98507 38.9207L11.5648 43.5996L16.5636 46.3329L18.4342 47.3501C18.9142 47.6109 19.4274 47.7986 19.9571 47.8978C21.171 48.1378 22.4566 47.9553 23.5656 47.3501L39.4341 38.6911C41.0232 37.8253 41.9998 36.2186 41.9998 34.4869V17.1637C41.9997 16.4751 41.8453 15.8075 41.5639 15.2023Z" fill="url(#paint0_linear_645_1775)"/>
<path d="M40.1457 10.2705C39.842 9.98338 39.5003 9.73208 39.1206 9.52707L23.5224 1.01556C23.4953 1.00023 23.4681 0.984749 23.4357 0.974588C21.8901 0.16439 20.0134 0.179874 18.4785 1.01556L2.88042 9.52707C1.31828 10.3782 0.358398 11.9575 0.358398 13.6598V30.6879C0.358398 31.8979 0.846526 33.0465 1.68714 33.9182C2.02871 34.272 2.43017 34.5745 2.88025 34.8206L3.29245 35.0463L11.7261 39.6455L16.6398 42.3322L18.4785 43.3321C18.9503 43.5884 19.4548 43.7731 19.9755 43.8705C21.1686 44.1063 22.4323 43.927 23.5224 43.3321L39.1206 34.8206C40.6826 33.9695 41.6427 32.3902 41.6427 30.688V13.6597C41.6427 12.9829 41.4908 12.3265 41.2141 11.7317C40.9592 11.1883 40.5958 10.691 40.1457 10.2705Z" fill="url(#paint1_linear_645_1775)"/>
<path d="M39.434 9.30777L23.5654 0.648831C23.538 0.633185 23.5103 0.61754 23.4772 0.607056L0 15.0404V30.8353C0 32.0664 0.496658 33.2348 1.35178 34.1216L40.4768 10.0643C40.1676 9.77198 39.8202 9.51632 39.434 9.30777ZM41.5637 11.5508L2.9849 35.2691L11.5646 39.948L41.9995 21.2373V13.512C41.9995 12.8234 41.8451 12.1558 41.5637 11.5508ZM16.5636 42.6814L18.4342 43.6985C18.9142 43.9593 19.4274 44.1471 19.9571 44.2463L41.9998 30.6944V27.0429L16.5636 42.6814Z" fill="url(#paint2_linear_645_1775)"/>
<path d="M3.61523 31.1076V13.2394C3.61523 12.8958 3.80905 12.5784 4.12383 12.4066L20.4919 3.47283C20.8067 3.30105 21.1945 3.30105 21.5091 3.47283L37.8765 12.4066C38.1913 12.5784 38.3851 12.8958 38.3851 13.2394V31.1076C38.3851 31.4512 38.1913 31.7686 37.8765 31.9404L21.5084 40.8742C21.1936 41.046 20.8058 41.046 20.4912 40.8742L4.12383 31.9404C3.80922 31.7686 3.61523 31.4512 3.61523 31.1076Z" fill="#909090"/>
<path d="M6.47168 29.5481V14.7994C6.47168 14.4558 6.6655 14.1384 6.98028 13.9666L20.4907 6.59258C20.8055 6.4208 21.1932 6.4208 21.5079 6.59258L35.0179 13.9666C35.3327 14.1384 35.5265 14.4558 35.5265 14.7994V29.5481C35.5265 29.8917 35.3327 30.2091 35.0179 30.3809L21.5074 37.7549C21.1926 37.9267 20.805 37.9267 20.4902 37.7549L6.98028 30.3809C6.66567 30.2091 6.47168 29.8917 6.47168 29.5481Z" fill="#9E9E9E"/>
<path d="M41.5637 11.551C41.3044 10.9981 40.9349 10.4921 40.4768 10.0643C40.1678 9.77219 39.8202 9.51654 39.434 9.30798L23.5654 0.649044C23.538 0.633398 23.5103 0.617753 23.4772 0.607269C21.9049 -0.216962 19.9957 -0.201317 18.4342 0.649044L2.5657 9.30798C0.976598 10.1738 0 11.7805 0 13.5124V30.8356C0 32.0666 0.496658 33.235 1.35178 34.1218C1.69932 34.4817 2.1076 34.7894 2.5657 35.0399L2.98507 35.2695L11.5648 39.9484L16.5636 42.6817L18.4342 43.6989C18.9142 43.9597 19.4274 44.1474 19.9571 44.2466C21.171 44.4866 22.4566 44.3041 23.5656 43.6989L39.4341 35.0399C41.0232 34.1741 41.9998 32.5674 41.9998 30.8356V13.5122C41.9995 12.8236 41.8451 12.156 41.5637 11.551ZM41.6417 30.688C41.6417 32.3903 40.6817 33.9696 39.1197 34.8206L23.5214 43.3321C22.4314 43.9269 21.1676 44.1063 19.9745 43.8705C19.4538 43.7731 18.9495 43.5885 18.4776 43.3321L16.6388 42.3322L11.7251 39.6455L3.2915 35.0462L2.87929 34.8206C2.42904 34.5744 2.02775 34.272 1.68618 33.9181C0.845395 33.0465 0.357438 31.8979 0.357438 30.6878V13.6598C0.357438 11.9575 1.31732 10.3783 2.87946 9.52702L18.4776 1.01551C20.0124 0.179669 21.889 0.164346 23.4348 0.974543C23.4673 0.984705 23.4945 1.00019 23.5214 1.01551L39.1197 9.52702C39.4993 9.73219 39.841 9.98333 40.1447 10.2704C40.595 10.6909 40.9582 11.1882 41.2131 11.7316C41.4897 12.3265 41.6417 12.9827 41.6417 13.6596V30.688Z" fill="url(#paint3_linear_645_1775)"/>
<path d="M21.5633 14.7151L23.3307 19.8578C23.5498 20.4949 24.1778 20.9264 24.8864 20.9264H30.6061C31.1763 20.9264 31.4132 21.6161 30.9521 21.933L26.3248 25.1114C25.7516 25.5051 25.5117 26.2032 25.7306 26.8404L27.498 31.983C27.6742 32.4956 27.0535 32.9219 26.5922 32.6051L21.9648 29.4268C21.3915 29.033 20.615 29.033 20.0418 29.4268L15.4144 32.6051C14.953 32.9219 14.3325 32.4956 14.5086 31.983L16.276 26.8404C16.495 26.2032 16.255 25.5051 15.6817 25.1114L11.0543 21.933C10.593 21.6163 10.8301 20.9264 11.4003 20.9264H17.12C17.8287 20.9264 18.4568 20.4949 18.6757 19.8578L20.4431 14.7151C20.6198 14.2024 21.3871 14.2024 21.5633 14.7151Z" fill="#909090"/>
<path d="M21.5615 12.597L23.3289 17.7396C23.548 18.3768 24.176 18.8082 24.8846 18.8082H30.6043C31.1745 18.8082 31.4115 19.4979 30.9503 19.8149L26.3229 22.9932C25.7496 23.387 25.5097 24.0851 25.7286 24.7222L27.496 29.8648C27.6723 30.3774 27.0516 30.8038 26.5902 30.487L21.9628 27.3086C21.3896 26.9149 20.6131 26.9149 20.0398 27.3086L15.4124 30.487C14.9511 30.8038 14.3306 30.3774 14.5066 29.8648L16.274 24.7222C16.4931 24.0851 16.253 23.387 15.6798 22.9932L11.0524 19.8149C10.591 19.4981 10.8282 18.8082 11.3984 18.8082H17.118C17.8268 18.8082 18.4548 18.3768 18.6737 17.7396L20.4411 12.597C20.618 12.0844 21.3853 12.0844 21.5615 12.597Z" fill="url(#paint4_radial_645_1775)"/>
<defs>
<linearGradient id="paint0_linear_645_1775" x1="1.70614e-05" y1="25.8258" x2="41.9997" y2="25.8258" gradientUnits="userSpaceOnUse">
<stop stop-color="#9B9B9B"/>
<stop offset="1" stop-color="#737373"/>
</linearGradient>
<linearGradient id="paint1_linear_645_1775" x1="4.76641" y1="32.5092" x2="37.7869" y2="8.98778" gradientUnits="userSpaceOnUse">
<stop stop-color="#ABABAB"/>
<stop offset="1" stop-color="#CFCFCF"/>
</linearGradient>
<linearGradient id="paint2_linear_645_1775" x1="1.69378" y1="34.7376" x2="39.5834" y2="8.67217" gradientUnits="userSpaceOnUse">
<stop stop-color="#B5B5B5"/>
<stop offset="1" stop-color="#DEDEDE"/>
</linearGradient>
<linearGradient id="paint3_linear_645_1775" x1="-0.000153553" y1="22.1743" x2="41.9996" y2="22.1743" gradientUnits="userSpaceOnUse">
<stop stop-color="#DFDFDF"/>
<stop offset="1" stop-color="#F7F7F7"/>
</linearGradient>
<radialGradient id="paint4_radial_645_1775" cx="0" cy="0" r="1" gradientUnits="userSpaceOnUse" gradientTransform="translate(21.0017 21.4042) scale(9.96029 9.41637)">
<stop stop-color="#F7F7F7"/>
<stop offset="1" stop-color="#DFDFDF"/>
</radialGradient>
</defs>
</svg>
