<svg width="16" height="16" viewBox="0 0 16 16" fill="none" xmlns="http://www.w3.org/2000/svg">
<path d="M9.37995 0.603511C9.24551 0.524679 9.08985 0.489687 8.93461 0.503397C8.77936 0.517106 8.63225 0.578838 8.5137 0.680011L2.3967 5.89776C0.203703 8.09076 0.203703 11.6593 2.3967 13.8523C2.91834 14.3746 3.53803 14.7887 4.22018 15.0708C4.90234 15.353 5.63351 15.4975 6.3717 15.4963C7.8147 15.4963 9.2592 14.9458 10.3595 13.8448L15.5367 8.52276C15.6394 8.41709 15.7087 8.28351 15.736 8.13869C15.7632 7.99387 15.7472 7.84423 15.6899 7.70846C15.6326 7.57269 15.5366 7.4568 15.4139 7.37527C15.2911 7.29373 15.1471 7.25017 14.9997 7.25001H12.524L15.6552 1.61451C15.7336 1.47207 15.7637 1.30801 15.7408 1.14702C15.718 0.986035 15.6435 0.83681 15.5286 0.721791C15.4136 0.606772 15.2645 0.532177 15.1035 0.509224C14.9425 0.486271 14.7785 0.5162 14.636 0.594511L9.30345 3.55701L9.73545 1.39776C9.76591 1.24485 9.74805 1.08626 9.68436 0.943947C9.62066 0.801639 9.51428 0.682665 9.37995 0.603511ZM9.7497 9.87501C9.7497 10.7701 9.39412 11.6286 8.76119 12.2615C8.12825 12.8944 7.26981 13.25 6.3747 13.25C5.4796 13.25 4.62115 12.8944 3.98822 12.2615C3.35528 11.6286 2.9997 10.7701 2.9997 9.87501C2.9997 8.69751 3.60495 7.66326 4.51845 7.05951C4.51095 7.12251 4.4997 7.18476 4.4997 7.25001C4.4997 7.47203 4.54899 7.69129 4.64401 7.89195C4.73903 8.09261 4.8774 8.26968 5.04916 8.41038C5.22091 8.55107 5.42175 8.65189 5.63719 8.70554C5.85264 8.7592 6.0773 8.76436 6.29498 8.72066C6.51266 8.67695 6.71792 8.58547 6.89595 8.45281C7.07399 8.32015 7.22035 8.14963 7.32448 7.95354C7.42862 7.75745 7.48792 7.54069 7.49812 7.3189C7.50832 7.09711 7.46915 6.87583 7.38345 6.67101C8.75145 7.10151 9.7497 8.36451 9.7497 9.87501Z" fill="white"/>
</svg>
