<svg width="61" height="48" viewBox="0 0 61 48" fill="none" xmlns="http://www.w3.org/2000/svg">
<path d="M49.3426 15.1649C49.105 14.6114 48.7665 14.1048 48.3468 13.6766C48.0637 13.3841 47.7453 13.1282 47.3914 12.9194L32.853 4.25061C32.8278 4.23495 32.8025 4.21929 32.772 4.20879C31.3314 3.38362 29.5823 3.39928 28.1517 4.25061L13.6133 12.9194C12.1574 13.7864 11.2627 15.3947 11.2627 17.1286V34.4714C11.2627 35.7039 11.7177 36.8736 12.5012 37.7614C12.8196 38.1217 13.1936 38.43 13.6133 38.6806L13.9975 38.9104L21.8582 43.5946L26.4381 46.3311L28.1519 47.3494C28.5916 47.6105 29.0618 47.7985 29.5471 47.8978C30.6591 48.138 31.8371 47.9552 32.8531 47.3494L47.3915 38.6806C48.8474 37.8138 49.7422 36.2053 49.7422 34.4716V17.1284C49.742 16.439 49.6004 15.7707 49.3426 15.1649Z" fill="url(#paint0_linear_650_1684)"/>
<path d="M59.2444 7.73421L49.4092 13.5733C49.403 12.921 49.2685 12.2944 49.0309 11.7196C49.0278 11.7099 49.0216 11.7002 49.0184 11.6905C48.784 11.1447 48.4526 10.6473 48.0399 10.2275L48.0368 10.2242C47.7585 9.9368 47.449 9.68812 47.0989 9.48465L32.8087 0.961699C32.7837 0.94555 32.7587 0.93263 32.7306 0.919712C32.6305 0.861579 32.5274 0.809908 32.4211 0.761464C31.0705 0.11554 29.4949 0.183361 28.1881 0.961699L13.898 9.48465C12.5537 10.2824 11.6971 11.726 11.597 13.3085C11.5908 13.4119 11.5876 13.5184 11.5876 13.6218V13.5637L11.3813 13.4409L1.75242 7.72452C1.28348 7.43385 0.705123 7.86985 0.827047 8.42212L2.84036 17.3068C2.92165 17.6782 3.04982 18.0302 3.22177 18.3564C3.61568 19.1121 4.23155 19.729 4.99123 20.1133L11.5876 23.4398V25.1192L6.04791 22.1544C5.78218 21.9897 5.45705 22.232 5.52582 22.5452L6.65753 27.2282C6.81072 27.9193 7.25777 28.5006 7.87052 28.8107L11.5876 30.6839C11.5908 31.8885 12.0378 33.0318 12.8038 33.9006C13.1164 34.2558 13.4853 34.5594 13.898 34.8049L14.2762 35.0309L14.3044 35.0471L22.0012 39.6364L22.1669 39.7365L26.5031 42.3266L26.75 42.472L28.1881 43.3278C28.6195 43.583 29.0822 43.767 29.5606 43.8639C29.7137 43.8962 29.8669 43.9221 30.0201 43.9382C30.9705 44.0448 31.949 43.8381 32.8087 43.3278L47.0989 34.8049C48.2588 34.1137 49.0528 32.9478 49.3154 31.6269V31.6237C49.3748 31.3201 49.4061 31.0068 49.4092 30.6903L53.1263 28.8171C53.7422 28.5071 54.1861 27.9258 54.3393 27.2346L55.0427 24.3247L55.471 22.5517C55.5398 22.2416 55.2147 21.9962 54.949 22.1609L49.4092 25.1289V23.4495L56.0056 20.123C57.0967 19.5707 57.8876 18.5405 58.1596 17.3165L58.4254 16.1377L60.1698 8.42857C60.2917 7.87631 59.7134 7.44354 59.2444 7.73421Z" fill="url(#paint1_linear_650_1684)"/>
<path d="M60.1698 8.42944L58.4254 16.1385L58.1596 17.3173C57.8876 18.5414 57.0967 19.5716 56.0056 20.1239L49.4092 23.4504V25.1298L54.9489 22.1618C55.2147 21.9971 55.5398 22.2425 55.471 22.5525L55.0427 24.3256L54.3393 27.2355C54.1861 27.9266 53.7422 28.508 53.1263 28.818L49.4092 30.6912C49.4061 31.0077 49.3748 31.321 49.3154 31.6245V31.6278C49.0528 32.9487 48.2587 34.1146 47.0989 34.8057L32.8087 43.3287C31.949 43.839 30.9705 44.0457 30.0201 43.9391C29.8669 43.9229 29.7137 43.8971 29.5606 43.8648C29.0822 43.7679 28.6195 43.5838 28.1881 43.3287L26.75 42.4728L26.5031 42.3275L22.1669 39.7373L22.0012 39.6372L14.3044 35.0479L14.2762 35.0318L13.898 34.8057C13.4853 34.5603 13.1164 34.2567 12.8038 33.9014C12.0378 33.0327 11.5908 31.8894 11.5877 30.6847L7.87053 28.8115C7.25778 28.5015 6.81072 27.9202 6.65753 27.229L5.52582 22.5461C5.45704 22.2328 5.78218 21.9906 6.04791 22.1553L11.5877 25.1201V23.4407L4.99123 20.1142C4.23155 19.7299 3.61568 19.113 3.22177 18.3573C3.04982 18.0311 2.92165 17.6791 2.84036 17.3076L0.827047 8.42297C0.705123 7.87071 1.28348 7.43471 1.75242 7.72537L11.3813 13.4418L11.5877 13.5645V13.6227C11.5877 13.5193 11.5908 13.4127 11.597 13.3094C11.6971 11.7269 12.5537 10.2832 13.898 9.48552L28.1881 0.962553C29.4949 0.184215 31.0705 0.116395 32.4211 0.762318C32.5274 0.810763 32.6305 0.862443 32.7306 0.920576C32.7587 0.933495 32.7837 0.946405 32.8087 0.962553L47.0989 9.48552C47.449 9.68898 47.7585 9.93767 48.0368 10.2251L48.0399 10.2283C48.4526 10.6482 48.784 11.1455 49.0184 11.6913C49.0215 11.701 49.0278 11.7107 49.0309 11.7204C49.2685 12.2953 49.403 12.9218 49.4092 13.5742L59.2444 7.73506C59.7134 7.4444 60.2917 7.87717 60.1698 8.42944Z" fill="url(#paint2_linear_650_1684)"/>
<path d="M47.3923 9.26563L32.8552 0.594111C32.8301 0.581192 32.8051 0.565042 32.7739 0.552124L32.4269 0.762047L11.6028 13.3091L11.3871 13.4415L3.22754 18.357C3.62145 19.1127 4.23732 19.7296 4.99701 20.1139L11.5934 23.4404V25.1198L6.05368 22.155C5.78795 21.9903 5.46282 22.2325 5.53159 22.5458L6.66331 27.2288C6.81649 27.9199 7.26355 28.5012 7.8763 28.8113L11.5934 30.6844C11.5965 31.8891 12.0436 33.0324 12.8095 33.9011L48.0425 10.2248L48.3489 10.0214C48.0644 9.72747 47.7487 9.47233 47.3923 9.26563ZM26.7558 42.4725L28.1939 43.3284C28.6253 43.5835 29.088 43.7676 29.5663 43.8645C29.7195 43.8968 29.8727 43.9226 30.0259 43.9388L49.3212 31.6275V31.6243C49.3806 31.3207 49.4118 31.0074 49.415 30.6909L53.1321 28.8177C53.748 28.5077 54.1919 27.9264 54.3451 27.2352L55.0485 24.3253L26.7558 42.4725ZM59.2502 7.73479L49.415 13.5739C49.4087 12.9216 49.2743 12.295 49.0367 11.7201L14.3101 35.0477L14.0006 35.2544L21.8601 39.9405L22.1727 39.7371L58.4311 16.1383L60.1756 8.42916C60.2975 7.8769 59.7191 7.44412 59.2502 7.73479Z" fill="url(#paint3_linear_650_1684)"/>
<path d="M14.5723 31.0881V13.1996C14.5723 12.8557 14.75 12.5379 15.0382 12.3659L30.0343 3.42195C30.3227 3.24997 30.6779 3.24997 30.9662 3.42195L45.9617 12.3659C46.2501 12.5379 46.4277 12.8557 46.4277 13.1996V31.0881C46.4277 31.4321 46.2501 31.7501 45.9617 31.922L30.9658 40.8658C30.6774 41.0378 30.3222 41.0378 30.0338 40.8658L15.0384 31.9219C14.7498 31.7499 14.5723 31.4321 14.5723 31.0881Z" fill="#93283A"/>
<path d="M17.1914 29.5268V14.7613C17.1914 14.4173 17.369 14.0995 17.6574 13.9275L30.0354 6.54512C30.3238 6.37314 30.679 6.37314 30.9673 6.54512L43.3448 13.9275C43.6332 14.0995 43.8108 14.4173 43.8108 14.7613V29.5268C43.8108 29.8707 43.6332 30.1885 43.3448 30.3606L30.9668 37.7429C30.6784 37.9149 30.3231 37.9149 30.0349 37.7429L17.6574 30.3605C17.369 30.1885 17.1914 29.8707 17.1914 29.5268Z" fill="#A6373D"/>
<path d="M60.2985 7.68633C60.1205 7.45573 59.8461 7.31815 59.5646 7.31815C59.398 7.31815 59.2321 7.36627 59.0902 7.45428L49.6913 13.0346C49.6365 12.5422 49.5145 12.0644 49.3295 11.619L49.3148 11.5796L49.3056 11.5596C49.0529 10.971 48.7012 10.4457 48.2594 9.99583C47.9529 9.67981 47.6146 9.4132 47.2568 9.20489L32.9765 0.688393C32.9384 0.663848 32.9012 0.643825 32.8852 0.638334C32.7766 0.575195 32.6645 0.518838 32.554 0.468456C31.9041 0.157605 31.211 0 30.4947 0C29.6338 0 28.7826 0.23592 28.0334 0.682253L13.7439 9.20473C12.3874 10.0099 11.4911 11.4238 11.3098 13.025L1.91489 7.44782C1.76827 7.35691 1.60289 7.30894 1.43641 7.30894C1.15489 7.30894 0.880409 7.44685 0.702212 7.67793C0.524797 7.90723 0.460082 8.20484 0.52417 8.49583L2.53702 17.3781C2.6244 17.7768 2.76258 18.1579 2.94797 18.5097C3.37814 19.3349 4.03762 19.9899 4.85577 20.4038L11.2765 23.6418V24.5885L6.21037 21.8778C6.10564 21.8128 5.98716 21.7786 5.86821 21.7786C5.66891 21.7786 5.47461 21.8757 5.34925 22.0379C5.22373 22.2004 5.17762 22.4114 5.22404 22.6239L6.35449 27.3008C6.52941 28.0896 7.03259 28.7457 7.73506 29.1014L11.2812 30.8882C11.3306 32.0835 11.7856 33.2237 12.574 34.1182C12.9065 34.4959 13.3001 34.8212 13.7431 35.0848L21.8455 39.9156L26.3498 42.6074L26.5955 42.7521L28.0344 43.6082C28.5049 43.8866 28.9985 44.0793 29.4995 44.1807C29.6735 44.2173 29.8338 44.2432 29.9877 44.2595C30.1602 44.2789 30.3358 44.2887 30.5097 44.2887C31.3663 44.2887 32.2157 44.0533 32.9665 43.6077L47.257 35.0849C48.477 34.3578 49.3394 33.1212 49.6234 31.6921L49.6298 31.6556C49.6766 31.4072 49.7061 31.1522 49.7181 30.8952L53.2647 29.1077C53.9672 28.7544 54.4707 28.0978 54.644 27.313L55.7773 22.6243C55.8228 22.4197 55.777 22.2091 55.6515 22.0465C55.5256 21.8829 55.3309 21.7854 55.131 21.7854C55.0118 21.7854 54.894 21.8196 54.8068 21.8745L49.7235 24.5981V23.6516L56.1448 20.4134C57.3258 19.8156 58.1717 18.7132 58.4657 17.3899L60.4761 8.50051C60.5397 8.21162 60.475 7.91482 60.2985 7.68633ZM60.1711 8.42865L58.4267 16.1377L58.1609 17.3166C57.8889 18.5406 57.098 19.5708 56.0069 20.1231L49.4105 23.4496V25.129L54.9503 22.161C55.216 21.9963 55.5411 22.2417 55.4723 22.5518L55.044 24.3248L54.3406 27.2347C54.1874 27.9259 53.7435 28.5072 53.1276 28.8172L49.4105 30.6904C49.4074 31.0069 49.3761 31.3202 49.3167 31.6238V31.627C49.0541 32.9479 48.2601 34.1138 47.1002 34.8049L32.81 43.3279C31.9503 43.8382 30.9718 44.0449 30.0214 43.9383C29.8682 43.9222 29.715 43.8963 29.5619 43.864C29.0835 43.7671 28.6208 43.583 28.1894 43.3279L26.7513 42.4721L26.5044 42.3267L22.1682 39.7366L22.0026 39.6364L14.3057 35.0472L14.2775 35.031L13.8993 34.8049C13.4866 34.5595 13.1177 34.2559 12.8051 33.9006C12.0391 33.0319 11.5921 31.8886 11.589 30.6839L7.87183 28.8108C7.25908 28.5007 6.81203 27.9194 6.65884 27.2283L5.52713 22.5453C5.45836 22.232 5.78349 21.9898 6.04922 22.1545L11.589 25.1193V23.4399L4.99254 20.1134C4.23286 19.7291 3.61699 19.1122 3.22308 18.3565C3.05113 18.0303 2.92296 17.6783 2.84167 17.3069L0.828358 8.4222C0.706434 7.86993 1.28479 7.43393 1.75373 7.7246L11.3826 13.441L11.589 13.5637V13.6219C11.589 13.5185 11.5921 13.4119 11.5983 13.3086C11.6984 11.7261 12.555 10.2824 13.8993 9.48473L28.1894 0.961779C29.4962 0.183441 31.0718 0.115621 32.4224 0.761544C32.5287 0.809989 32.6318 0.861659 32.7319 0.919792C32.76 0.932711 32.785 0.945631 32.81 0.961779L47.1002 9.48473C47.4503 9.6882 47.7598 9.93688 48.0381 10.2243L48.0412 10.2276C48.4539 10.6474 48.7853 11.1448 49.0197 11.6906C49.0229 11.7003 49.0291 11.7099 49.0322 11.7196C49.2698 12.2945 49.4043 12.921 49.4105 13.5734L59.2457 7.73429C59.7147 7.44362 60.293 7.87639 60.1711 8.42865Z" fill="url(#paint4_linear_650_1684)"/>
<path d="M31.0095 14.6775L32.6287 19.826C32.8295 20.4638 33.4048 20.8958 34.054 20.8958H39.2943C39.8167 20.8958 40.0338 21.5865 39.6113 21.9036L35.3717 25.0856C34.8465 25.4798 34.6266 26.1786 34.8273 26.8165L36.4467 31.965C36.6082 32.4782 36.0395 32.905 35.6168 32.5878L31.3773 29.4058C30.8521 29.0117 30.1407 29.0117 29.6155 29.4058L25.376 32.5878C24.9533 32.905 24.3848 32.4782 24.5461 31.965L26.1655 26.8165C26.3661 26.1786 26.1463 25.4798 25.6211 25.0856L21.3815 21.9036C20.9589 21.5865 21.1761 20.8958 21.6985 20.8958H26.9388C27.5881 20.8958 28.1635 20.464 28.364 19.826L29.9835 14.6775C30.1451 14.1643 30.848 14.1643 31.0095 14.6775Z" fill="#93283A"/>
<path d="M31.0095 12.5565L32.6287 17.705C32.8295 18.3429 33.4048 18.7748 34.054 18.7748H39.2943C39.8167 18.7748 40.0338 19.4653 39.6113 19.7826L35.3717 22.9646C34.8465 23.3588 34.6266 24.0577 34.8273 24.6955L36.4467 29.844C36.6082 30.3572 36.0395 30.784 35.6168 30.4668L31.3773 27.2849C30.8521 26.8905 30.1407 26.8905 29.6155 27.2849L25.376 30.4668C24.9533 30.784 24.3848 30.3572 24.5461 29.844L26.1655 24.6955C26.3661 24.0577 26.1463 23.3588 25.6211 22.9646L21.3815 19.7826C20.9589 19.4655 21.1761 18.7748 21.6985 18.7748H26.9388C27.5881 18.7748 28.1635 18.3429 28.364 17.705L29.9835 12.5565C30.1451 12.0432 30.848 12.0432 31.0095 12.5565Z" fill="url(#paint5_radial_650_1684)"/>
<defs>
<linearGradient id="paint0_linear_650_1684" x1="11.2628" y1="25.8004" x2="49.742" y2="25.8004" gradientUnits="userSpaceOnUse">
<stop stop-color="#94423F"/>
<stop offset="1" stop-color="#55232C"/>
</linearGradient>
<linearGradient id="paint1_linear_650_1684" x1="0.498445" y1="22.1441" x2="60.4989" y2="22.1441" gradientUnits="userSpaceOnUse">
<stop stop-color="#F08059"/>
<stop offset="1" stop-color="#F4A488"/>
</linearGradient>
<linearGradient id="paint2_linear_650_1684" x1="0.81054" y1="22.145" x2="60.1863" y2="22.145" gradientUnits="userSpaceOnUse">
<stop stop-color="#B9433F"/>
<stop offset="1" stop-color="#E96659"/>
</linearGradient>
<linearGradient id="paint3_linear_650_1684" x1="11.3866" y1="34.9948" x2="58.4673" y2="5.35509" gradientUnits="userSpaceOnUse">
<stop stop-color="#C74D47"/>
<stop offset="1" stop-color="#F07E55"/>
</linearGradient>
<linearGradient id="paint4_linear_650_1684" x1="0.499754" y1="22.1442" x2="60.4999" y2="22.1442" gradientUnits="userSpaceOnUse">
<stop stop-color="#F08059"/>
<stop offset="1" stop-color="#F4A488"/>
</linearGradient>
<radialGradient id="paint5_radial_650_1684" cx="0" cy="0" r="1" gradientUnits="userSpaceOnUse" gradientTransform="translate(30.4966 21.3737) scale(9.12539 9.42707)">
<stop stop-color="#F4A488"/>
<stop offset="1" stop-color="#F08059"/>
</radialGradient>
</defs>
</svg>
