<svg width="53" height="44" viewBox="0 0 53 44" fill="none" xmlns="http://www.w3.org/2000/svg">
<path d="M42.8286 16.4097C42.6227 15.9445 42.3293 15.5189 41.9655 15.159C41.7202 14.9133 41.4442 14.6982 41.1375 14.5228L28.5376 7.23869C28.5158 7.22553 28.4938 7.21237 28.4676 7.20355C27.2191 6.51018 25.7031 6.52348 24.4633 7.23869L11.8634 14.5228C10.6016 15.2512 9.82617 16.6027 9.82617 18.0596V32.6323C9.82617 33.6679 10.2205 34.6508 10.8995 35.3968C11.1755 35.6997 11.4997 35.9586 11.8634 36.1691L12.1964 36.3622L19.0088 40.2982L22.978 42.5976L24.4633 43.4532C24.8444 43.6727 25.2519 43.8306 25.6725 43.914C26.6364 44.1159 27.6572 43.9623 28.5377 43.4532L41.1376 36.1691C42.3994 35.4408 43.1749 34.0892 43.1749 32.6324V18.0598C43.1747 17.4804 43.0521 16.9188 42.8286 16.4097Z" fill="url(#paint0_linear_650_1668)"/>
<path d="M51.4161 10.166L42.8922 15.0725C42.8868 14.5243 42.7703 13.9978 42.5644 13.5148C42.5617 13.5066 42.5562 13.4985 42.5535 13.4904C42.3503 13.0317 42.0631 12.6138 41.7055 12.261L41.7028 12.2583C41.4616 12.0168 41.1934 11.8078 40.8899 11.6369L34.4496 7.91362L36.1918 1.88638C36.4329 1.05597 35.8098 0.325974 35.0674 0.274412C34.8317 0.25813 34.5878 0.309692 34.3521 0.44538L27.901 4.2012C26.9987 3.85927 26.0044 3.85928 25.0994 4.1985L18.6537 0.44538C17.6729 -0.124507 16.497 0.795453 16.8113 1.88638L18.5561 7.91362L12.1159 11.6369C10.9508 12.3072 10.2084 13.5202 10.1217 14.85C10.1163 14.9368 10.1136 15.0263 10.1136 15.1132V15.0643L9.93475 14.9612L1.58973 10.1579C1.18332 9.91364 0.68207 10.28 0.787737 10.7441L2.53261 18.2096C2.60305 18.5217 2.71414 18.8175 2.86316 19.0915C3.20455 19.7266 3.7383 20.2449 4.39669 20.5678L10.1136 23.363V24.7741L5.31248 22.2829C5.08218 22.1445 4.8004 22.348 4.86 22.6113L5.84081 26.5462C5.97358 27.1269 6.36103 27.6154 6.89207 27.8759L10.1136 29.4499C10.1163 30.4621 10.5037 31.4228 11.1676 32.1528C11.4385 32.4513 11.7582 32.7064 12.1159 32.9127L12.4437 33.1026L12.4681 33.1162L19.1387 36.9724L19.2823 37.0565L23.0403 39.233L23.2543 39.3551L24.5006 40.0742C24.8745 40.2886 25.2755 40.4433 25.6901 40.5247C25.8228 40.5519 25.9556 40.5736 26.0884 40.5871C26.912 40.6767 27.7601 40.503 28.5052 40.0742L40.8899 32.9127C41.8951 32.3319 42.5833 31.3523 42.8109 30.2423V30.2396C42.8624 29.9845 42.8895 29.7213 42.8922 29.4554L46.1137 27.8814C46.6475 27.6208 47.0322 27.1324 47.165 26.5516L47.7746 24.1065L48.1458 22.6167C48.2054 22.3562 47.9236 22.1499 47.6933 22.2883L42.8922 24.7823V23.3711L48.6091 20.576C49.5547 20.1119 50.2402 19.2462 50.4759 18.2177L50.7062 17.2272L52.2181 10.7495C52.3237 10.2854 51.8225 9.92179 51.4161 10.166Z" fill="url(#paint1_linear_650_1668)"/>
<path d="M51.4124 10.166L42.8886 15.0725C42.8832 14.5243 42.7667 13.9978 42.5607 13.5148L12.4645 33.1162L12.1962 33.2899L19.0077 37.2275L19.2787 37.0565L50.7026 17.2272L52.2144 10.7495C52.32 10.2854 51.8189 9.92179 51.4124 10.166ZM23.2507 39.3551L22.977 39.5261L24.4618 40.3809C24.8438 40.6007 25.2502 40.7581 25.6729 40.8422L26.0847 40.5871L42.8073 30.2423V30.2396C42.8588 29.9845 42.8859 29.7213 42.8886 29.4554L46.1101 27.8814C46.6439 27.6208 47.0286 27.1324 47.1614 26.5516L47.771 24.1066L23.2507 39.3551ZM40.8871 11.6369L34.4468 7.91362L36.189 1.88638C36.4301 1.05597 35.807 0.325975 35.0646 0.274414C31.9867 2.07906 28.4942 4.13066 28.4671 4.13066L28.1664 4.30704L10.1189 14.85L9.93195 14.9612L2.86035 19.0915C3.20174 19.7266 3.7355 20.2449 4.39389 20.5678L10.1108 23.363V24.7741L5.30967 22.2829C5.07937 22.1445 4.79759 22.348 4.8572 22.6113L5.83801 26.5462C5.97077 27.1269 6.35822 27.6154 6.88927 27.8759L10.1108 29.4499C10.1135 30.4621 10.5009 31.4228 11.1647 32.1528L41.7 12.2583C41.4587 12.0168 41.1904 11.8078 40.8871 11.6369Z" fill="url(#paint2_linear_650_1668)"/>
<path d="M12.6963 29.7896V14.7584C12.6963 14.4694 12.8502 14.2024 13.1001 14.0579L26.0967 6.54258C26.3466 6.39808 26.6544 6.39808 26.9044 6.54258L39.9004 14.0579C40.1504 14.2024 40.3042 14.4694 40.3042 14.7584V29.7896C40.3042 30.0786 40.1504 30.3457 39.9004 30.4903L26.9038 38.0056C26.6539 38.1501 26.3461 38.1501 26.0962 38.0056L13.1001 30.4903C12.8503 30.3458 12.6963 30.0786 12.6963 29.7896Z" fill="#6C46C5"/>
<path d="M14.9648 28.4775V16.0705C14.9648 15.7815 15.1187 15.5143 15.3687 15.37L26.0962 9.16673C26.3462 9.02222 26.6541 9.02222 26.9039 9.16673L37.6311 15.37C37.881 15.5145 38.0349 15.7815 38.0349 16.0705V28.4775C38.0349 28.7665 37.881 29.0335 37.6311 29.178L26.9035 35.3813C26.6536 35.5258 26.3458 35.5258 26.0958 35.3813L15.3687 29.178C15.1187 29.0337 14.9648 28.7665 14.9648 28.4775Z" fill="#795FCE"/>
<path d="M52.3254 10.1257C52.1711 9.93191 51.9332 9.8163 51.6894 9.8163C51.545 9.8163 51.4013 9.85674 51.2782 9.93069L43.1322 14.6195C43.0851 14.2058 42.979 13.8044 42.8187 13.4301L42.7981 13.3803C42.5791 12.8857 42.2743 12.4442 41.8914 12.0664C41.6263 11.8007 41.3329 11.5767 41.0225 11.4018L34.7662 7.7841L36.4512 1.96326C36.5867 1.495 36.499 1.00639 36.2114 0.622668C35.9188 0.232838 35.4591 0 34.9816 0C34.7128 0 34.4539 0.0712343 34.2124 0.212078L27.8725 3.90441C27.428 3.75135 26.9652 3.67386 26.4947 3.67386C26.0269 3.67386 25.5666 3.7504 25.1236 3.90169L18.7882 0.21221C18.5466 0.0716382 18.2881 0.000132507 18.019 0.000132507C17.5413 0.000132507 17.0815 0.232967 16.7892 0.622933C16.5015 1.00652 16.4143 1.49527 16.5498 1.96339L18.2344 7.78397L11.9778 11.4018C10.8016 12.0785 10.0251 13.267 9.86847 14.612L1.72624 9.92554C1.59917 9.84914 1.45583 9.80883 1.31156 9.80883C1.06757 9.80883 0.829691 9.92471 0.675254 10.1189C0.521494 10.3116 0.465404 10.5615 0.520947 10.8061L2.26514 18.2699C2.34114 18.605 2.46117 18.9253 2.62157 19.2205C2.99466 19.9142 3.56621 20.4644 4.27499 20.812L9.83962 23.5328V24.3283L5.44871 22.0504C5.35795 21.996 5.25554 21.9672 5.15217 21.9672C4.97945 21.9672 4.81105 22.0488 4.70241 22.1852C4.59362 22.3218 4.55366 22.499 4.59416 22.6774L5.57362 26.6072C5.72521 27.2699 6.1613 27.8212 6.77038 28.1203L9.84354 29.6218C9.88621 30.6257 10.2804 31.5838 10.9639 32.3358C11.2518 32.6529 11.5929 32.9263 11.9771 33.148L18.9991 37.2072L22.9031 39.469L23.1161 39.5906L24.3628 40.31C24.7706 40.5438 25.1984 40.7057 25.6328 40.7909C25.7831 40.8218 25.9221 40.8435 26.0559 40.8572C26.2055 40.8735 26.3576 40.8818 26.5084 40.8818C27.2509 40.8818 27.9869 40.684 28.6376 40.3096L41.0224 33.1482C42.0795 32.5373 42.8271 31.4982 43.0733 30.2972L43.0788 30.2667C43.1196 30.0588 43.145 29.8446 43.1552 29.6275L46.2295 28.1257C46.8378 27.8288 47.2741 27.2771 47.4246 26.6177L48.4068 22.6776C48.4462 22.5057 48.4062 22.3287 48.2975 22.1921C48.1881 22.0548 48.0196 21.9729 47.8464 21.9729C47.7434 21.9729 47.6412 22.0017 47.5657 22.0478L43.16 24.3363V23.5411L48.7254 20.8201C49.7486 20.3178 50.4818 19.3916 50.7366 18.2797L52.4792 10.8101C52.5345 10.5671 52.4784 10.3177 52.3254 10.1257ZM52.2158 10.7494L50.704 17.2271L50.4737 18.2177C50.238 19.2462 49.5525 20.1119 48.6069 20.5759L42.89 23.3711V24.7822L47.6911 22.2883C47.9214 22.1499 48.2032 22.3561 48.1436 22.6166L47.7724 24.1065L47.1628 26.5516C47.03 27.1323 46.6453 27.6208 46.1115 27.8813L42.89 29.4553C42.8873 29.7212 42.8602 29.9845 42.8087 30.2396V30.2423C42.5811 31.3522 41.8929 32.3319 40.8877 32.9126L28.5029 40.0742C27.7579 40.5029 26.9098 40.6766 26.0861 40.5871C25.9534 40.5735 25.8206 40.5518 25.6879 40.5247C25.2733 40.4433 24.8723 40.2886 24.4984 40.0742L23.2521 39.355L23.038 39.2329L19.2801 37.0565L19.1365 36.9724L12.4659 33.1161L12.4415 33.1026L12.1136 32.9126C11.756 32.7064 11.4363 32.4513 11.1653 32.1527C10.5015 31.4227 10.1141 30.4621 10.1114 29.4499L6.88986 27.8759C6.35881 27.6154 5.97136 27.1269 5.8386 26.5461L4.85779 22.6112C4.79818 22.348 5.07997 22.1444 5.31027 22.2828L10.1114 24.7741V23.3629L4.39448 20.5678C3.73609 20.2448 3.20233 19.7265 2.86094 19.0915C2.71193 18.8174 2.60084 18.5216 2.53039 18.2095L0.785523 10.744C0.679855 10.2799 1.1811 9.91358 1.58752 10.1578L9.93254 14.9612L10.1114 15.0643V15.1131C10.1114 15.0263 10.1141 14.9367 10.1195 14.8499C10.2062 13.5202 10.9486 12.3071 12.1136 11.6368L18.5539 7.91356L16.8091 1.88632C16.4948 0.795396 17.6707 -0.124563 18.6515 0.445324L25.0972 4.19844C26.0021 3.85922 26.9965 3.85921 27.8987 4.20114L34.3499 0.445324C34.5856 0.309636 34.8294 0.258074 35.0652 0.274356C35.8076 0.325917 36.4307 1.05592 36.1896 1.88632L34.4474 7.91356L40.8877 11.6368C41.1912 11.8078 41.4594 12.0167 41.7006 12.2583L41.7033 12.261C42.0609 12.6138 42.3481 13.0317 42.5513 13.4903C42.554 13.4985 42.5595 13.5066 42.5622 13.5147C42.7681 13.9978 42.8846 14.5243 42.89 15.0724L51.4139 10.166C51.8203 9.92173 52.3215 10.2854 52.2158 10.7494Z" fill="url(#paint3_radial_650_1668)"/>
<path d="M26.9443 15.9999L28.3476 20.326C28.5216 20.862 29.0203 21.2249 29.5829 21.2249H34.1244C34.5771 21.2249 34.7653 21.8052 34.3991 22.0718L30.7249 24.7455C30.2697 25.0767 30.0791 25.664 30.253 26.1999L31.6564 30.5261C31.7963 30.9573 31.3035 31.3159 30.9372 31.0494L27.2629 28.3757C26.8077 28.0445 26.1912 28.0445 25.736 28.3757L22.0618 31.0494C21.6955 31.3159 21.2028 30.9573 21.3426 30.5261L22.7459 26.1999C22.9199 25.664 22.7292 25.0767 22.2741 24.7455L18.5998 22.0718C18.2335 21.8053 18.4218 21.2249 18.8745 21.2249H23.4161C23.9788 21.2249 24.4775 20.862 24.6513 20.326L26.0546 15.9999C26.1951 15.5686 26.8043 15.5686 26.9443 15.9999Z" fill="#6C46C5"/>
<path d="M26.9443 14.2178L28.3476 18.5439C28.5216 19.0799 29.0203 19.4429 29.5829 19.4429H34.1244C34.5771 19.4429 34.7653 20.0231 34.3991 20.2897L30.7249 22.9634C30.2697 23.2946 30.0791 23.8819 30.253 24.4179L31.6564 28.744C31.7963 29.1752 31.3035 29.5338 30.9372 29.2673L27.2629 26.5936C26.8077 26.2624 26.1912 26.2624 25.736 26.5936L22.0618 29.2673C21.6955 29.5338 21.2028 29.1752 21.3426 28.744L22.7459 24.4179C22.9199 23.8819 22.7292 23.2946 22.2741 22.9634L18.5998 20.2897C18.2335 20.0232 18.4218 19.4429 18.8745 19.4429H23.4161C23.9788 19.4429 24.4775 19.08 24.6513 18.5439L26.0546 14.2178C26.1951 13.7866 26.8043 13.7866 26.9443 14.2178Z" fill="url(#paint4_radial_650_1668)"/>
<defs>
<linearGradient id="paint0_linear_650_1668" x1="9.82614" y1="25.3464" x2="43.1748" y2="25.3464" gradientUnits="userSpaceOnUse">
<stop stop-color="#6C46C5"/>
<stop offset="1" stop-color="#332156"/>
</linearGradient>
<linearGradient id="paint1_linear_650_1668" x1="0.773391" y1="20.4407" x2="52.2323" y2="20.4407" gradientUnits="userSpaceOnUse">
<stop stop-color="#948DF0"/>
<stop offset="1" stop-color="#ADB2FA"/>
</linearGradient>
<linearGradient id="paint2_linear_650_1668" x1="9.93137" y1="33.0716" x2="50.0081" y2="7.04872" gradientUnits="userSpaceOnUse">
<stop stop-color="#A8AAF8"/>
<stop offset="1" stop-color="#C8CDFE"/>
</linearGradient>
<radialGradient id="paint3_radial_650_1668" cx="0" cy="0" r="1" gradientUnits="userSpaceOnUse" gradientTransform="translate(26.4999 20.4407) scale(23.372 23.4092)">
<stop stop-color="#C3C6FF"/>
<stop offset="1" stop-color="#A2A0F5"/>
</radialGradient>
<radialGradient id="paint4_radial_650_1668" cx="0" cy="0" r="1" gradientUnits="userSpaceOnUse" gradientTransform="translate(26.4998 21.6267) scale(7.90868 7.9213)">
<stop stop-color="#C3C6FF"/>
<stop offset="1" stop-color="#A2A0F5"/>
</radialGradient>
</defs>
</svg>
