<svg width="40" height="40" viewBox="0 0 40 40" fill="none" xmlns="http://www.w3.org/2000/svg">
<rect width="40" height="40" rx="5" fill="#F5F5F5"/>
<g clip-path="url(#clip0_2258_2316)">
<path d="M32.9986 6.49688V18.6669C32.9986 19.3269 32.4586 19.8669 31.7986 19.8669H8.25859C7.59859 19.8669 7.05859 19.3269 7.05859 18.6669V6.49688C7.05859 5.83688 7.59859 5.29688 8.25859 5.29688H31.7986C32.4586 5.29688 32.9986 5.83688 32.9986 6.49688Z" fill="white"/>
<path d="M8.26078 5.29688C7.59078 5.29688 7.05078 5.83688 7.05078 6.50688V9.52688C7.05078 10.2769 7.52078 10.9569 8.22078 11.2169C9.49078 11.6869 9.49078 13.4769 8.22078 13.9569C7.51078 14.2169 7.05078 14.8969 7.05078 15.6469V18.6669C7.05078 19.3369 7.59078 19.8769 8.26078 19.8769H29.4808V5.29688H8.26078Z" fill="#EEEEEE"/>
<path d="M31.7983 5.29688H29.4883V19.8669H31.7983C32.4683 19.8669 33.0083 19.3269 33.0083 18.6569V6.50688C33.0083 5.83688 32.4683 5.29688 31.7983 5.29688Z" fill="#8D8DFD"/>
<path d="M8.26078 5.29688C7.59078 5.29688 7.05078 5.83688 7.05078 6.50688V7.70688C7.05078 7.03688 7.59078 6.49688 8.26078 6.49688H29.4808V5.29688H8.26078Z" fill="#E0E0E0"/>
<path d="M31.7983 5.29688H29.4883V6.49688H31.7983C32.4683 6.49688 33.0083 7.03688 33.0083 7.70688V6.50688C33.0083 5.83688 32.4683 5.29688 31.7983 5.29688Z" fill="#A0A0FF"/>
<path d="M31.2683 13.3569C31.6991 13.3569 32.0483 13.0077 32.0483 12.5769C32.0483 12.1461 31.6991 11.7969 31.2683 11.7969C30.8375 11.7969 30.4883 12.1461 30.4883 12.5769C30.4883 13.0077 30.8375 13.3569 31.2683 13.3569Z" fill="white"/>
<path d="M31.2714 13.6678C30.6714 13.6678 30.1914 13.1778 30.1914 12.5878C30.1914 11.9978 30.6814 11.5078 31.2714 11.5078C31.8614 11.5078 32.3514 11.9978 32.3514 12.5878C32.3514 13.1778 31.8614 13.6678 31.2714 13.6678ZM31.2714 12.0978C31.0014 12.0978 30.7914 12.3178 30.7914 12.5778C30.7914 12.8378 31.0114 13.0578 31.2714 13.0578C31.5314 13.0578 31.7514 12.8378 31.7514 12.5778C31.7514 12.3178 31.5314 12.0978 31.2714 12.0978Z" fill="#133B63"/>
<path d="M8.02016 12.9388C8.21898 12.9388 8.38016 12.7776 8.38016 12.5788C8.38016 12.3799 8.21898 12.2188 8.02016 12.2188C7.82133 12.2188 7.66016 12.3799 7.66016 12.5788C7.66016 12.7776 7.82133 12.9388 8.02016 12.9388Z" fill="#133B63"/>
<path d="M10.8984 13.2188H26.6984V25.2688H10.8984V13.2188Z" fill="white"/>
<path d="M25.5 13.2188H26.7V25.2688H25.5V13.2188Z" fill="#EEEEEE"/>
<path d="M10.8984 9.39062H26.6984V13.2206H10.8984V9.39062Z" fill="#24D38C"/>
<path d="M25.5 9.39062H26.7V13.2206H25.5V9.39062Z" fill="#20B273"/>
<path d="M25.2581 11.7428C25.4956 11.7428 25.6881 11.5503 25.6881 11.3128C25.6881 11.0753 25.4956 10.8828 25.2581 10.8828C25.0206 10.8828 24.8281 11.0753 24.8281 11.3128C24.8281 11.5503 25.0206 11.7428 25.2581 11.7428Z" fill="#133B63"/>
<path d="M23.6995 11.7428C23.937 11.7428 24.1295 11.5503 24.1295 11.3128C24.1295 11.0753 23.937 10.8828 23.6995 10.8828C23.462 10.8828 23.2695 11.0753 23.2695 11.3128C23.2695 11.5503 23.462 11.7428 23.6995 11.7428Z" fill="#133B63"/>
<path d="M22.1409 11.7428C22.3784 11.7428 22.5709 11.5503 22.5709 11.3128C22.5709 11.0753 22.3784 10.8828 22.1409 10.8828C21.9035 10.8828 21.7109 11.0753 21.7109 11.3128C21.7109 11.5503 21.9035 11.7428 22.1409 11.7428Z" fill="#133B63"/>
<path d="M16.7291 19.1631H12.7891V15.7031H16.6791L16.7191 19.1631H16.7291Z" fill="#FF5477"/>
<path d="M12.8008 15.6875H14.0008V19.1475H12.8008V15.6875Z" fill="#EA5075"/>
<path d="M24.8114 19.0609H20.2414C20.0714 19.0609 19.9414 18.9309 19.9414 18.7609C19.9414 18.5909 20.0714 18.4609 20.2414 18.4609H24.8114C24.9814 18.4609 25.1114 18.5909 25.1114 18.7609C25.1114 18.9309 24.9814 19.0609 24.8114 19.0609Z" fill="#133B63"/>
<path d="M24.8114 16.6703H20.2414C20.0714 16.6703 19.9414 16.5403 19.9414 16.3703C19.9414 16.2003 20.0714 16.0703 20.2414 16.0703H24.8114C24.9814 16.0703 25.1114 16.2003 25.1114 16.3703C25.1114 16.5403 24.9814 16.6703 24.8114 16.6703Z" fill="#133B63"/>
<path d="M31.0103 34.7003C33.0482 34.7003 34.7003 33.0482 34.7003 31.0103C34.7003 28.9724 33.0482 27.3203 31.0103 27.3203C28.9724 27.3203 27.3203 28.9724 27.3203 31.0103C27.3203 33.0482 28.9724 34.7003 31.0103 34.7003Z" fill="#FCCD47"/>
<path d="M31.0088 27.3203C29.7488 27.3203 28.6288 27.9603 27.9688 28.9203C28.5587 28.5103 29.2787 28.2803 30.0487 28.2803C32.0887 28.2803 33.7388 29.9303 33.7388 31.9703C33.7388 32.7403 33.4988 33.4603 33.0888 34.0603C34.0588 33.3903 34.6988 32.2803 34.6988 31.0103C34.6988 28.9703 33.0488 27.3203 31.0088 27.3203Z" fill="#DBAC42"/>
<path d="M31.2119 30.6997C30.7119 30.4897 30.5619 30.3597 30.5619 30.1197C30.5619 29.9297 30.7019 29.6997 31.0919 29.6997C31.3619 29.6997 31.5919 29.7797 31.8219 29.9097L32.0019 29.4397C31.7719 29.3097 31.5319 29.2297 31.2719 29.2197V28.6797H30.8119V29.2497C30.3019 29.3497 29.9819 29.7197 29.9819 30.1897C29.9819 30.7497 30.4419 31.0097 30.9319 31.1997C31.3519 31.3697 31.5219 31.5497 31.5219 31.8097C31.5219 32.0997 31.2719 32.2997 30.9219 32.2997C30.6219 32.2997 30.3419 32.1997 30.0919 32.0297L29.9219 32.5097C30.1719 32.6897 30.4719 32.7697 30.7819 32.7897V33.3497H31.2419V32.7597C31.8419 32.6397 32.1119 32.1797 32.1119 31.7697C32.1119 31.2797 31.8419 30.9597 31.2219 30.6997H31.2119Z" fill="#212121"/>
<path d="M31.0095 35.0034C28.8095 35.0034 27.0195 33.2134 27.0195 31.0134C27.0195 28.8134 28.8095 27.0234 31.0095 27.0234C33.2095 27.0234 34.9995 28.8134 34.9995 31.0134C34.9995 33.2134 33.2095 35.0034 31.0095 35.0034ZM31.0095 27.6234C29.1395 27.6234 27.6195 29.1434 27.6195 31.0134C27.6195 32.8834 29.1395 34.4034 31.0095 34.4034C32.8795 34.4034 34.3995 32.8834 34.3995 31.0134C34.3995 29.1434 32.8795 27.6234 31.0095 27.6234Z" fill="#212121"/>
<path d="M22.531 22.2297C22.001 22.2297 21.561 22.6597 21.561 23.1997V22.4097C21.561 21.7897 21.061 21.2997 20.451 21.2997C19.921 21.2997 19.481 21.7297 19.481 22.2697V21.7097C19.481 21.1797 19.051 20.7397 18.511 20.7397C17.971 20.7397 17.541 21.1697 17.541 21.7097V18.1497C17.541 17.5897 17.071 17.1797 16.531 17.1797C15.991 17.1797 15.521 17.5897 15.521 18.1497V24.4497L14.921 23.3597C14.651 22.8697 14.041 22.6897 13.551 22.9597C13.081 23.2197 12.891 23.8097 13.121 24.2997L13.951 26.0897L15.881 29.4097V31.2497H23.021V29.2597L23.571 28.0297V23.2897C23.571 22.7097 23.101 22.2297 22.521 22.2297H22.531Z" fill="#FED9C9"/>
<path d="M22.5317 22.2266C22.3517 22.2266 22.1817 22.2766 22.0317 22.3666C22.3517 22.5466 22.5617 22.8866 22.5617 23.2866V28.0266L22.0117 29.2566V31.2466H23.0317V29.2566L23.5817 28.0266V23.2866C23.5817 22.7066 23.1117 22.2266 22.5317 22.2266Z" fill="#FFC5B7"/>
<path d="M22.7984 33.8322H16.1384C16.0084 33.8322 15.8984 33.7222 15.8984 33.5922V31.4822C15.8984 31.3522 16.0084 31.2422 16.1384 31.2422H22.7984C22.9284 31.2422 23.0384 31.3522 23.0384 31.4822V33.5922C23.0384 33.7222 22.9284 33.8322 22.7984 33.8322Z" fill="#8D8DFD"/>
<path d="M22.7995 31.2422H22.0195V33.8322H22.7995C22.9295 33.8322 23.0395 33.7222 23.0395 33.5922V31.4822C23.0395 31.3522 22.9295 31.2422 22.7995 31.2422Z" fill="#A0A0FF"/>
<path d="M9.77984 26.6512C9.65984 26.4913 9.40984 26.4913 9.29984 26.6512L8.12984 28.2513C8.02984 28.3813 8.05984 28.5713 8.18984 28.6713C8.31984 28.7713 8.50984 28.7413 8.60984 28.6113L9.23984 27.7513V32.1913C9.23984 32.3613 9.36984 32.4913 9.53984 32.4913C9.70984 32.4913 9.83984 32.3613 9.83984 32.1913V27.7513L10.4698 28.6113C10.5698 28.7513 10.7798 28.7713 10.9098 28.6613C11.0298 28.5613 11.0498 28.3813 10.9498 28.2613L9.77984 26.6613V26.6512Z" fill="#212121"/>
<path d="M6.70952 29.1591C6.58952 28.9991 6.33952 28.9991 6.22952 29.1591L5.05952 30.7591C4.95952 30.8891 4.98952 31.0791 5.11952 31.1791C5.24952 31.2791 5.43952 31.2491 5.53952 31.1191L6.16952 30.2591V34.6991C6.16952 34.8691 6.29952 34.9991 6.46952 34.9991C6.63952 34.9991 6.76952 34.8691 6.76952 34.6991V30.2591L7.39952 31.1191C7.49952 31.2591 7.70952 31.2791 7.83952 31.1691C7.95952 31.0691 7.97952 30.8891 7.87952 30.7691L6.70952 29.1691V29.1591Z" fill="#212121"/>
<path d="M14.0201 30.7591L12.8501 29.1591C12.7301 28.9991 12.4801 28.9991 12.3701 29.1591L11.2001 30.7591C11.1001 30.8891 11.1301 31.0791 11.2601 31.1791C11.3901 31.2791 11.5801 31.2491 11.6801 31.1191L12.3101 30.2591V34.6991C12.3101 34.8691 12.4401 34.9991 12.6101 34.9991C12.7801 34.9991 12.9101 34.8691 12.9101 34.6991V30.2591L13.5401 31.1191C13.6401 31.2591 13.8501 31.2791 13.9801 31.1691C14.1001 31.0691 14.1201 30.8891 14.0201 30.7691V30.7591Z" fill="#212121"/>
<path d="M31.8017 5H8.26172C7.43172 5 6.76172 5.67 6.76172 6.5V18.67C6.76172 19.5 7.43172 20.17 8.26172 20.17H10.6017V25.28C10.6017 25.45 10.7317 25.58 10.9017 25.58H13.4017C13.4017 25.58 13.7017 26.22 13.7017 26.23L15.5917 29.48V33.59C15.5917 33.89 15.8317 34.13 16.1317 34.13H22.7917C23.0917 34.13 23.3317 33.89 23.3317 33.59V29.31L23.8617 28.14C23.8617 28.14 23.8917 28.06 23.8917 28.02V25.57H26.7017C26.8717 25.57 27.0017 25.44 27.0017 25.27V20.16H31.8017C32.6317 20.16 33.3017 19.49 33.3017 18.66V6.5C33.3017 5.67 32.6317 5 31.8017 5ZM7.36172 10.99C7.57172 11.21 7.83172 11.38 8.13172 11.49C8.66172 11.69 8.87172 12.15 8.88172 12.53C8.89172 13.04 8.61172 13.49 8.13172 13.67C7.83172 13.78 7.57172 13.96 7.36172 14.17V10.98V10.99ZM22.7417 33.53H16.2017V31.54H22.7417V33.53ZM23.2917 27.96L22.7617 29.13C22.7617 29.13 22.7317 29.21 22.7317 29.25V30.94H16.1917V29.4C16.1917 29.35 16.1817 29.3 16.1517 29.25L14.2317 25.94L13.4017 24.16C13.2417 23.81 13.3717 23.39 13.7117 23.21C14.0517 23.02 14.4817 23.15 14.6817 23.49L15.2817 24.58C15.3517 24.7 15.4817 24.76 15.6217 24.73C15.7517 24.7 15.8517 24.58 15.8517 24.44V18.14C15.8517 17.77 16.1617 17.47 16.5617 17.47C16.9617 17.47 17.2717 17.76 17.2717 18.14V24.72C17.2717 24.89 17.4017 25.02 17.5717 25.02C17.7417 25.02 17.8717 24.89 17.8717 24.72V21.7C17.8717 21.33 18.1717 21.03 18.5417 21.03C18.9117 21.03 19.2117 21.33 19.2117 21.7V24.72C19.2117 24.89 19.3417 25.02 19.5117 25.02C19.6817 25.02 19.8117 24.89 19.8117 24.72V22.26C19.8117 21.89 20.1117 21.59 20.4817 21.59C20.9317 21.59 21.2917 21.96 21.2917 22.4V24.72C21.2917 24.89 21.4217 25.02 21.5917 25.02C21.7617 25.02 21.8917 24.89 21.8917 24.72V23.19C21.8917 22.82 22.1917 22.52 22.5617 22.52C22.9817 22.52 23.3117 22.86 23.3117 23.28V27.95L23.2917 27.96ZM15.2417 18.86H13.0917V16H16.3917V16.88C15.7417 16.95 15.2417 17.48 15.2417 18.14V18.86ZM26.4017 24.98H23.8917V23.29C23.8917 22.54 23.2817 21.93 22.5417 21.93C22.2917 21.93 22.0517 22.01 21.8517 22.14C21.7217 21.49 21.1517 21 20.4717 21C20.1917 21 19.9317 21.09 19.7217 21.25C19.5417 20.78 19.0817 20.44 18.5417 20.44C18.3017 20.44 18.0717 20.51 17.8717 20.63V18.15C17.8717 17.59 17.5217 17.13 17.0217 16.96L17.0017 15.7C17.0017 15.54 16.8617 15.4 16.7017 15.4H12.8117C12.6417 15.4 12.5117 15.53 12.5117 15.7V19.16C12.5117 19.33 12.6417 19.46 12.8117 19.46H15.2617V23.28L15.2217 23.2C14.8717 22.57 14.0717 22.33 13.4417 22.68C12.8317 23.02 12.5817 23.77 12.8817 24.41L13.1417 24.98H11.2217V13.53H26.4217V24.98H26.4017ZM26.4017 12.92H11.2017V9.69H26.4017V12.92ZM29.1817 19.57H27.0017V9.69H27.5017C27.6717 9.69 27.8017 9.56 27.8017 9.39C27.8017 9.22 27.6717 9.09 27.5017 9.09H10.0417C9.87172 9.09 9.74172 9.22 9.74172 9.39C9.74172 9.56 9.87172 9.69 10.0417 9.69H10.6017V19.56H8.26172C7.76172 19.56 7.36172 19.16 7.36172 18.66V15.57C7.39172 14.97 7.77172 14.44 8.34172 14.22C9.03172 13.96 9.48172 13.3 9.48172 12.56C9.48172 11.82 9.03172 11.17 8.34172 10.91C7.77172 10.7 7.39172 10.16 7.36172 9.56V6.5C7.36172 6 7.76172 5.6 8.26172 5.6H29.1817V19.57ZM32.7017 18.66C32.7017 19.16 32.2917 19.57 31.7917 19.57H29.7817V5.6H31.7917C32.2917 5.6 32.7017 6.01 32.7017 6.51V18.67V18.66Z" fill="#212121"/>
<path d="M11.6694 11.1391C11.7394 11.1691 11.8394 11.2091 11.9394 11.2091C12.0494 11.2091 12.1094 11.1591 12.1094 11.0891C12.1094 11.0191 12.0594 10.9791 11.9294 10.9391C11.7494 10.8791 11.6294 10.7791 11.6294 10.6191C11.6294 10.4391 11.7794 10.2891 12.0394 10.2891C12.1594 10.2891 12.2494 10.3191 12.3194 10.3391L12.2694 10.5391C12.2694 10.5391 12.1494 10.4891 12.0394 10.4891C11.9294 10.4891 11.8794 10.5391 11.8794 10.5891C11.8794 10.6591 11.9394 10.6891 12.0794 10.7391C12.2694 10.8091 12.3594 10.9091 12.3594 11.0591C12.3594 11.2391 12.2194 11.3891 11.9194 11.3891C11.7994 11.3891 11.6694 11.3591 11.6094 11.3191L11.6594 11.1191L11.6694 11.1391Z" fill="white"/>
<path d="M13.26 11.1394C13.26 11.2394 13.26 11.3294 13.26 11.3894H13.05V11.2794H13.03C13.03 11.2794 12.93 11.4094 12.78 11.4094C12.62 11.4094 12.5 11.3094 12.5 11.0694V10.6094H12.75V11.0294C12.75 11.1394 12.79 11.2094 12.87 11.2094C12.94 11.2094 12.98 11.1594 12.99 11.1294C12.99 11.1194 12.99 11.0994 12.99 11.0794V10.6094H13.24V11.1394H13.26Z" fill="white"/>
<path d="M13.4497 11.3878C13.4497 11.3378 13.4497 11.2378 13.4497 11.1578V10.2578H13.6897V10.7078C13.7397 10.6378 13.8197 10.5978 13.9297 10.5978C14.1197 10.5978 14.2597 10.7578 14.2497 10.9978C14.2497 11.2778 14.0697 11.4178 13.8897 11.4178C13.7997 11.4178 13.7097 11.3878 13.6497 11.2878V11.3978H13.4297L13.4497 11.3878ZM13.6997 11.0578C13.6997 11.0578 13.6997 11.0878 13.6997 11.0978C13.7197 11.1678 13.7697 11.2178 13.8397 11.2178C13.9397 11.2178 14.0097 11.1378 14.0097 10.9978C14.0097 10.8778 13.9597 10.7778 13.8397 10.7778C13.7697 10.7778 13.7097 10.8278 13.6997 10.8978C13.6997 10.9078 13.6997 10.9278 13.6997 10.9378V11.0578Z" fill="white"/>
<path d="M14.4189 11.1781C14.4189 11.1781 14.5589 11.2381 14.6289 11.2381C14.6989 11.2381 14.7289 11.2081 14.7289 11.1681C14.7289 11.1281 14.7089 11.1081 14.6089 11.0781C14.4489 11.0281 14.3889 10.9381 14.3889 10.8381C14.3889 10.6881 14.5089 10.5781 14.7089 10.5781C14.7989 10.5781 14.8789 10.5981 14.9289 10.6181L14.8889 10.7881C14.8889 10.7881 14.7889 10.7481 14.7189 10.7481C14.6589 10.7481 14.6289 10.7681 14.6289 10.8081C14.6289 10.8481 14.6589 10.8681 14.7589 10.8981C14.9089 10.9481 14.9689 11.0281 14.9689 11.1381C14.9689 11.2881 14.8489 11.3881 14.6289 11.3881C14.5289 11.3881 14.4389 11.3681 14.3789 11.3381L14.4189 11.1681V11.1781Z" fill="white"/>
<path d="M15.6986 11.3737C15.6986 11.3737 15.5786 11.4137 15.4786 11.4137C15.2286 11.4137 15.0586 11.2638 15.0586 11.0138C15.0586 10.7838 15.2186 10.5938 15.5086 10.5938C15.5686 10.5938 15.6386 10.6037 15.6986 10.6237L15.6586 10.8038C15.6586 10.8038 15.5886 10.7838 15.5186 10.7838C15.3886 10.7838 15.3086 10.8737 15.3086 11.0037C15.3086 11.1437 15.4086 11.2237 15.5186 11.2237C15.5786 11.2237 15.6186 11.2237 15.6586 11.2037L15.6886 11.3837L15.6986 11.3737Z" fill="white"/>
<path d="M15.8398 10.8737C15.8398 10.7537 15.8398 10.6837 15.8398 10.6137H16.0498V10.7537H16.0598C16.0998 10.6437 16.1998 10.5938 16.2698 10.5938C16.2898 10.5938 16.2998 10.5938 16.3198 10.5938V10.8238C16.3198 10.8238 16.2798 10.8238 16.2498 10.8238C16.1598 10.8238 16.0998 10.8737 16.0798 10.9437C16.0798 10.9637 16.0798 10.9837 16.0798 10.9937V11.3937H15.8398V10.8637V10.8737Z" fill="white"/>
<path d="M16.7014 10.3934C16.7014 10.4634 16.6514 10.5134 16.5714 10.5134C16.4914 10.5134 16.4414 10.4634 16.4414 10.3934C16.4414 10.3234 16.4914 10.2734 16.5714 10.2734C16.6514 10.2734 16.7014 10.3234 16.7014 10.3934ZM16.4514 11.3934V10.6134H16.6914V11.3934H16.4514Z" fill="white"/>
<path d="M16.8906 10.8737C16.8906 10.7737 16.8906 10.6837 16.8906 10.6137H17.1006V10.7237H17.1106C17.1706 10.6437 17.2606 10.5938 17.3706 10.5938C17.5406 10.5938 17.7006 10.7437 17.7006 10.9937C17.7006 11.2837 17.5206 11.4137 17.3406 11.4137C17.2506 11.4137 17.1706 11.3738 17.1406 11.3238V11.7137H16.9006V10.8737H16.8906ZM17.1306 11.0637C17.1306 11.0637 17.1306 11.1037 17.1306 11.1137C17.1506 11.1837 17.2006 11.2337 17.2706 11.2337C17.3806 11.2337 17.4406 11.1438 17.4406 11.0138C17.4406 10.8938 17.3806 10.7937 17.2706 10.7937C17.2006 10.7937 17.1406 10.8437 17.1206 10.9137C17.1206 10.9237 17.1206 10.9437 17.1206 10.9537V11.0637H17.1306Z" fill="white"/>
<path d="M18.1213 10.3828V10.6028H18.2913V10.7828H18.1213V11.0628C18.1213 11.1528 18.1413 11.2028 18.2213 11.2028C18.2513 11.2028 18.2713 11.2028 18.2913 11.2028V11.3828C18.2913 11.3828 18.2013 11.4028 18.1313 11.4028C18.0513 11.4028 17.9913 11.3728 17.9513 11.3328C17.9113 11.2828 17.8813 11.2128 17.8813 11.1028V10.7828H17.7812V10.6028H17.8813V10.4328L18.1213 10.3828Z" fill="white"/>
<path d="M18.6897 10.3934C18.6897 10.4634 18.6397 10.5134 18.5597 10.5134C18.4797 10.5134 18.4297 10.4634 18.4297 10.3934C18.4297 10.3234 18.4797 10.2734 18.5597 10.2734C18.6397 10.2734 18.6897 10.3234 18.6897 10.3934ZM18.4397 11.3934V10.6134H18.6797V11.3934H18.4397Z" fill="white"/>
<path d="M19.6481 10.9937C19.6481 11.2837 19.4481 11.4137 19.2381 11.4137C19.0081 11.4137 18.8281 11.2638 18.8281 11.0138C18.8281 10.7638 18.9981 10.5938 19.2481 10.5938C19.4981 10.5938 19.6481 10.7637 19.6481 10.9937ZM19.0781 11.0037C19.0781 11.1337 19.1381 11.2437 19.2381 11.2437C19.3281 11.2437 19.3981 11.1537 19.3981 11.0037C19.3981 10.8837 19.3581 10.7638 19.2381 10.7638C19.1181 10.7638 19.0781 10.8837 19.0781 11.0037Z" fill="white"/>
<path d="M19.8008 10.8616C19.8008 10.7616 19.8008 10.6816 19.8008 10.6116H20.0108V10.7216H20.0308C20.0308 10.7216 20.1408 10.6016 20.2708 10.6016C20.4308 10.6016 20.5508 10.7116 20.5508 10.9416V11.4016H20.3108V10.9716C20.3108 10.8716 20.2708 10.8016 20.1908 10.8016C20.1208 10.8016 20.0808 10.8516 20.0708 10.8916C20.0708 10.9016 20.0708 10.9316 20.0708 10.9516V11.4016H19.8308V10.8716L19.8008 10.8616Z" fill="white"/>
</g>
<defs>
<clipPath id="clip0_2258_2316">
<rect width="30" height="30" fill="white" transform="translate(5 5)"/>
</clipPath>
</defs>
</svg>
