<svg width="50" height="50" viewBox="0 0 50 50" fill="none" xmlns="http://www.w3.org/2000/svg">
<g clip-path="url(#clip0_2258_2648)">
<path d="M3.00033 44.9007C3.00033 31.6527 3.00033 18.4148 3.00033 5.16686C3.05992 5.08681 3.0202 4.99675 3.03013 4.9067C3.08972 4.65655 3.12944 4.4064 3.1791 4.15625C3.75513 4.72659 4.33116 5.29693 4.9072 5.87728C5.61234 6.5777 6.31748 7.27812 7.02262 7.97854C7.68804 8.63894 8.34352 9.29934 9.00894 9.94973C9.71408 10.6501 10.4093 11.3506 11.1144 12.041C11.7799 12.7014 12.4552 13.3718 13.1206 14.0322C13.8258 14.7326 14.521 15.433 15.2261 16.1234C15.8915 16.7838 16.5669 17.4542 17.2323 18.1146C18.6128 19.4854 19.9933 20.8663 21.3837 22.2371C22.059 22.9075 22.7443 23.5879 23.4197 24.2583C23.668 24.5085 23.9162 24.7586 24.1546 25.0088C24.1149 25.0488 24.0751 25.0988 24.0255 25.1388C21.5923 27.5603 19.1491 29.9918 16.7059 32.4132C14.0443 35.0648 11.3727 37.7164 8.71099 40.368C6.86372 42.1991 5.02637 44.0402 3.1791 45.8713C3.11951 45.7112 3.08972 45.5511 3.05992 45.391C3.03013 45.2209 3.01026 45.0608 2.98047 44.8907L3.00033 44.9007Z" fill="#4284F3"/>
<path d="M9.04903 0C9.17814 0.060036 9.32712 0.05003 9.46616 0.070042C10.1614 0.160096 10.8069 0.380228 11.4127 0.730438C15.5741 3.12187 19.7255 5.52331 23.8769 7.92475C27.5118 10.026 31.1468 12.1273 34.7917 14.2185C34.8414 14.2485 34.8811 14.2786 34.9307 14.3086C33.9773 15.2491 33.0338 16.1897 32.0804 17.1303C30.7495 18.4511 29.4286 19.7719 28.0978 21.0927C26.7868 22.4034 25.4759 23.7042 24.1649 25.015C24.1649 25.015 24.155 25.015 24.145 25.015C23.8967 24.7649 23.6584 24.5147 23.4101 24.2646C22.7348 23.5942 22.0594 22.9137 21.3741 22.2433C19.9936 20.8725 18.6131 19.4917 17.2227 18.1209C16.5573 17.4605 15.882 16.7901 15.2165 16.1297C14.5114 15.4293 13.8162 14.7288 13.1111 14.0384C12.4456 13.378 11.7703 12.7076 11.1049 12.0472C10.3997 11.3468 9.70452 10.6464 8.99938 9.95597C8.33396 9.29558 7.67847 8.63518 7.01306 7.98479C6.30792 7.28437 5.60277 6.58395 4.89763 5.88353C4.3216 5.31319 3.74557 4.74285 3.16954 4.1625C3.1596 4.10246 3.19933 4.06244 3.21919 4.0024C3.96406 1.87112 5.40414 0.580348 7.57916 0.10006C7.76786 0.060036 7.96649 0.080048 8.15519 0H9.05896H9.04903Z" fill="#34A753"/>
<path d="M24.1743 25.0111C25.4853 23.7003 26.7963 22.3995 28.1072 21.0888C29.4381 19.768 30.759 18.4472 32.0898 17.1264C33.0333 16.1858 33.9867 15.2453 34.9402 14.3047C35.3771 14.5548 35.8241 14.805 36.2611 15.0551C39.1412 16.7161 42.0214 18.3871 44.9115 20.0481C45.8748 20.5985 46.6892 21.2989 47.2553 22.2795C47.5235 22.7498 47.732 23.2501 47.8512 23.7804C47.9009 24.0105 47.9307 24.2507 47.9704 24.4808C47.9704 24.4908 47.9803 24.5108 47.9903 24.5208V25.6415C47.9108 25.7916 47.9207 25.9517 47.8909 26.1118C47.7718 26.7922 47.5235 27.4126 47.1659 27.9929C46.6594 28.8234 45.9642 29.4538 45.12 29.9341C43.2728 30.9847 41.4354 32.0453 39.5981 33.106C38.0984 33.9665 36.5888 34.837 35.0891 35.6975C34.9998 35.7476 34.9501 35.7476 34.8806 35.6675C34.7614 35.5374 34.6323 35.4274 34.5131 35.3073C34.4039 35.1972 34.3244 35.0571 34.1754 34.9971C34.1754 34.9971 34.1754 34.9571 34.1456 34.9671C34.1556 34.907 34.1059 34.887 34.0662 34.867C34.0662 34.867 34.0463 34.847 34.0364 34.837C34.0364 34.837 34.0165 34.817 34.0066 34.807C34.0066 34.807 33.9867 34.787 33.9768 34.777C33.9768 34.777 33.9569 34.757 33.947 34.757C33.7484 34.5568 33.5497 34.3567 33.3511 34.1566C32.7056 33.5162 32.06 32.8758 31.4244 32.2354C30.7888 31.6051 30.1631 30.9847 29.5274 30.3543C28.8124 29.6439 28.0973 28.9335 27.3723 28.213C26.8459 27.6927 26.3295 27.1624 25.8031 26.6421C25.2469 26.0918 24.6908 25.5414 24.1445 24.9811L24.1743 25.0111Z" fill="#FABB04"/>
<path d="M8.9794 50.0006C8.7609 50.0006 8.54241 50.0006 8.33385 50.0006C7.76775 49.9806 7.22151 49.8605 6.69514 49.6604C4.97697 48.99 3.82491 47.7793 3.22901 46.0182C3.21908 45.9782 3.20915 45.9282 3.19922 45.8781C5.04649 44.047 6.88384 42.2059 8.73111 40.3748C11.3928 37.7232 14.0644 35.0717 16.726 32.4201C19.1692 29.9986 21.6024 27.5672 24.0456 25.1457C24.0853 25.1057 24.1251 25.0556 24.1747 25.0156C24.1747 25.0156 24.1847 25.0156 24.1946 25.0156C24.7408 25.576 25.297 26.1263 25.8532 26.6766C26.3795 27.1969 26.896 27.7172 27.4223 28.2476C28.1374 28.958 28.8525 29.6784 29.5775 30.3888C30.2131 31.0192 30.8388 31.6396 31.4744 32.27C32.12 32.9104 32.7655 33.5507 33.4012 34.1911C33.5998 34.3912 33.7984 34.5914 33.9971 34.7915C33.9971 34.8115 34.007 34.8215 34.0268 34.8115C34.0268 34.8315 34.0268 34.8415 34.0566 34.8415C34.0566 34.8615 34.0566 34.8715 34.0864 34.8715C34.0864 34.8715 34.0864 34.9016 34.1162 34.9016C34.1162 34.9616 34.156 34.9816 34.1957 35.0016C34.1957 35.0016 34.1957 35.0316 34.2255 35.0316C34.3149 35.1617 34.4241 35.2718 34.5334 35.3718C34.6625 35.5219 34.7916 35.672 34.9306 35.8221C34.444 36.1023 33.9673 36.3724 33.5005 36.6426C28.7532 39.3642 24.0158 42.0859 19.2685 44.8075C16.6664 46.2984 14.0743 47.7893 11.4722 49.2802C10.8565 49.6304 10.201 49.8605 9.49584 49.9606C9.33694 49.9806 9.17803 50.0106 9.00919 50.0106L8.9794 50.0006Z" fill="#E94335"/>
</g>
<defs>
<clipPath id="clip0_2258_2648">
<rect width="45" height="50" fill="white" transform="translate(3)"/>
</clipPath>
</defs>
</svg>
