<svg width="200" height="32" viewBox="0 0 200 32" fill="none" xmlns="http://www.w3.org/2000/svg">
<g id="Vector" clip-path="url(#clip0_173_2)">
<g id="Group 24">
<path id="Vector_2" d="M59.5706 0L51.4278 28.2359C51.3184 28.571 51.2142 28.8888 51.115 29.1892C50.3903 31.397 49.9326 32.6347 48.8076 32.744H36.5379L41.4819 15.5998L41.9615 13.9378L45.9807 0H59.5706Z" fill="url(#paint0_linear_173_2)"/>
<path id="Vector_3" d="M51.115 29.1892C50.3904 31.397 49.9326 32.6347 48.8076 32.7441H47.0712L46.1153 31.9029L41.4819 15.5998L41.4633 15.5325L41.9615 13.9378L42.0058 14.0827C42.0478 14.2209 42.0901 14.3587 42.1327 14.4962C42.1991 14.7124 42.2658 14.9282 42.3329 15.1437C42.4208 15.4263 42.5092 15.709 42.5981 15.9919C42.7042 16.3303 42.8112 16.6686 42.9192 17.007C43.0413 17.3905 43.164 17.7734 43.2872 18.1555C43.4214 18.5715 43.5567 18.9877 43.693 19.404C43.837 19.8416 43.9829 20.2791 44.1306 20.7166C44.2811 21.1662 44.4328 21.6152 44.5856 22.0636C44.7383 22.5121 44.8938 22.9609 45.0521 23.4101C45.2063 23.8476 45.3625 24.2851 45.5208 24.7227C45.6721 25.1383 45.8263 25.5527 45.9835 25.9658C46.1293 26.3475 46.2781 26.7281 46.4297 27.1077C46.5661 27.4446 46.7068 27.7798 46.8519 28.1134C46.9761 28.3946 47.1041 28.6746 47.2413 28.9497C47.4054 29.2778 47.5695 29.6295 47.8292 29.8914C48.0636 30.1282 48.3617 30.2918 48.6873 30.3623C48.8649 30.3975 49.0473 30.401 49.226 30.3727C49.4796 30.3308 49.7241 30.2459 49.949 30.1217C50.3871 29.8865 50.771 29.5502 51.115 29.1892Z" fill="url(#paint1_linear_173_2)"/>
<path id="Vector_4" d="M52.7087 23.7951L59.5706 0H46.1169C46.5801 7.63419 48.7644 16.9129 52.7087 23.7951Z" fill="url(#paint2_linear_173_2)"/>
<path id="Vector_5" d="M48.765 32.7435H35.1745C33.8668 32.6199 33.4184 30.977 32.4903 28.0402C32.4662 27.9641 31.2095 23.6316 29.7853 18.7193C29.5042 17.7491 29.216 16.7565 28.93 15.7693C27.3172 10.2063 25.759 4.82585 25.7175 4.70335C24.7878 1.76594 24.3409 0.1236 23.0327 0H36.5795C37.5639 0.0924263 38.0599 1.04294 38.6402 2.75638C38.8322 3.32242 39.0329 3.97159 39.2631 4.70116C39.3441 4.95547 45.9988 27.7842 46.0797 28.0385C47.0083 30.977 47.4568 32.6199 48.765 32.7435Z" fill="url(#paint3_linear_173_2)"/>
<path id="Vector_6" d="M37.6815 27.1334C36.3596 22.3136 32.7512 16.9129 29.2592 16.9129C30.8846 22.5176 32.4608 27.9559 32.4859 28.0407C33.4156 30.9776 33.863 32.6199 35.1707 32.744H41.3129C39.8335 32.1988 38.3378 29.5146 37.6815 27.1334Z" fill="url(#paint4_linear_173_2)"/>
<path id="Vector_7" d="M38.6402 2.75693C38.6238 2.72138 38.6063 2.68638 38.5855 2.65247C38.23 2.00166 37.4955 1.72602 36.7807 1.79001C36.4422 1.81414 36.122 1.95282 35.8729 2.18323C35.6339 2.41347 35.4703 2.70935 35.3189 3.00358L35.2833 3.07194C34.8961 3.82393 34.5576 4.5978 34.2387 5.3815C33.9199 6.16521 33.6235 6.96752 33.3331 7.76599C32.7692 9.31864 32.2393 10.8833 31.7306 12.454C31.2898 13.8085 30.8612 15.1672 30.4449 16.5301C30.229 17.2349 30.0161 17.9413 29.8061 18.6493L29.7848 18.7204L28.691 19.7891C28.639 19.7891 28.8069 17.398 28.9272 15.7704C28.989 14.9298 29.0366 14.2938 29.0366 14.2938L31.9789 4.70335L34.213 1.07083L35.1575 0H36.5795C37.5622 0.0929732 38.0599 1.04349 38.6402 2.75693Z" fill="url(#paint5_linear_173_2)"/>
<path id="Vector_8" d="M23.0327 32.7435H10.763C9.65444 32.639 9.19395 31.4309 8.48626 29.2822C8.37907 28.954 8.26458 28.6053 8.14281 28.2359L0 0H13.5899L17.5823 13.8366L17.6994 14.2435L23.0327 32.7435Z" fill="url(#paint6_linear_173_2)"/>
<path id="Vector_9" d="M18.0477 15.532L18.0291 15.5992L13.3958 31.9024L12.4398 32.7435H10.763C9.65443 32.639 9.19394 31.4309 8.48625 29.2822C8.80145 29.615 9.16503 29.8984 9.56474 30.1227C9.78969 30.247 10.0342 30.3319 10.2877 30.3738C10.4667 30.4021 10.6493 30.3985 10.827 30.3634C11.1524 30.2929 11.4504 30.1293 11.6845 29.8925C11.9443 29.6305 12.11 29.2772 12.2724 28.9507C12.4097 28.6773 12.5377 28.3956 12.6618 28.1145C12.8077 27.7813 12.9484 27.446 13.084 27.1088C13.2372 26.7296 13.3861 26.3489 13.5309 25.9668C13.6884 25.5541 13.8424 25.1397 13.993 24.7237C14.1516 24.2862 14.3078 23.8487 14.4617 23.4112C14.6192 22.9627 17.5911 13.9946 17.6091 13.9361L17.6972 14.2413L18.0477 15.532Z" fill="url(#paint7_linear_173_2)"/>
<path id="Vector_10" d="M7.64567 26.511C8.33313 18.7226 10.9424 11.1179 14.7942 4.17449L13.5899 0H0L7.64567 26.511Z" fill="url(#paint8_linear_173_2)"/>
<path id="Vector_11" d="M33.8532 4.70335C33.7728 4.95766 27.1361 27.8662 27.0809 28.0412C26.1512 30.9781 25.7043 32.6204 24.3962 32.7446H10.8062C12.1139 32.621 12.5629 30.9787 13.4909 28.0412C13.5713 27.7864 20.2266 4.95711 20.307 4.70335C21.2367 1.76704 21.6841 0.124146 22.9917 0H36.5379C35.2303 0.1236 34.7829 1.76649 33.8532 4.70335Z" fill="url(#paint9_linear_173_2)"/>
<path id="Vector_12" d="M17.264 32.7435C18.9321 29.5835 20.2796 26.2769 21.8164 23.0437C23.5599 19.374 25.7027 15.9815 28.1977 12.7778C29.7109 10.8347 31.3735 9.04902 33.0946 7.30878C33.5464 5.75394 33.8368 4.75476 33.8532 4.70335C34.7829 1.76649 35.2303 0.1236 36.5379 0H22.9917C21.6835 0.1236 21.2351 1.76649 20.307 4.70335C20.2266 4.95766 13.5713 27.7869 13.4909 28.0412C12.5612 30.9781 12.1139 32.6204 10.8062 32.7446L17.264 32.7435Z" fill="url(#paint10_linear_173_2)"/>
</g>
<g id="Group 23">
<g id="italic">
<path id="Vector_13" d="M138.408 3.06648L137.642 7.05885H132.961V7.06378H127.247V7.05885H120.163C120.156 6.98612 120.146 6.91338 120.135 6.84009C120.015 6.04181 119.71 5.28257 119.245 4.62296C118.803 3.99293 118.16 3.469 117.331 3.06374L138.408 3.06648Z" fill="black"/>
<path id="Vector_14" d="M126.457 8.51306L123.732 22.7046H129.445L132.17 8.51306H126.457Z" fill="black"/>
<path id="Vector_15" d="M77.8672 15.2394L75.7031 3.06702H69.8447L74.0279 22.7139L77.8672 15.2394Z" fill="black"/>
<path id="Vector_16" d="M90.4054 13.6988L88.1095 3.06702H84.1101L74.0252 22.7008L74.0279 22.7139H78.7636L84.5164 11.2809L86.7483 20.8172L90.4054 13.6988Z" fill="black"/>
<path id="Vector_17" d="M97.3631 3.06702L87.2706 22.7139H91.9006L102.356 3.06702H97.3631Z" fill="black"/>
<path id="Vector_18" d="M112.846 15.0611C113.167 14.9857 113.483 14.8909 113.793 14.7773C114.782 14.4043 115.604 13.9177 116.258 13.3176C117.454 12.2481 118.267 10.8171 118.574 9.24263C118.715 8.52832 118.734 7.79523 118.629 7.07471C118.522 6.36542 118.251 5.69106 117.836 5.10587C117.412 4.50246 116.778 4.0117 115.932 3.63361C115.086 3.25552 114.042 3.06666 112.801 3.06702H98.7457L97.98 7.04081H97.8033L102.554 7.04518H108.895V7.05995H109.486C110.865 7.05995 111.831 7.00526 112.299 7.35254C112.768 7.69982 112.911 8.33696 112.732 9.27271C112.613 9.89618 112.407 10.3733 112.115 10.7039C111.824 11.0346 111.41 11.2612 110.875 11.3837C110.34 11.507 109.598 11.5684 108.648 11.5681H107.415L108.001 8.51306H102.275L99.5507 22.7046H105.278L106.693 15.3367H107.77L110.541 22.7046H115.998L112.846 15.0611Z" fill="black"/>
<path id="Vector_19" d="M157.365 19.8066C157.013 19.9889 156.677 20.08 156.357 20.08C156.202 20.0851 156.047 20.055 155.905 19.9921C155.763 19.9293 155.637 19.8352 155.536 19.7169C155.327 19.4744 155.266 19.1248 155.354 18.6679C155.476 18.031 155.829 17.5265 156.412 17.1546C156.807 16.902 157.356 16.6263 158.035 16.3305L158.46 14.1193L158.139 14.2222C157.784 14.3345 157.26 14.4985 156.569 14.7144C155.352 15.0914 154.363 15.4547 153.603 15.8043C152.881 16.1257 152.23 16.585 151.685 17.1563C151.167 17.7076 150.827 18.4047 150.665 19.2476C150.557 19.7845 150.573 20.3388 150.712 20.8686C150.849 21.3929 151.182 21.8279 151.709 22.1736C152.237 22.5192 152.982 22.6918 153.945 22.6915C154.83 22.6897 155.703 22.4795 156.492 22.0778C156.668 21.9838 156.836 21.8751 156.994 21.753L157.365 19.8066Z" fill="black"/>
<path id="Vector_20" d="M163.661 19.6086C163.325 19.6086 163.104 19.3351 163.169 18.9999L164.352 12.833C164.611 11.4877 164.331 10.4316 163.511 9.66483C162.719 8.92378 161.585 8.54259 158.878 8.51634V8.51197H154.609L154.013 11.614H158.164C158.824 11.6599 159.251 11.836 159.413 12.1609C159.6 12.5372 159.63 13.0573 159.503 13.7212H159.499L159.08 15.9006H159.085L158.46 19.1415L158.455 19.1448L158.145 20.7604C157.894 21.998 158.784 22.6931 159.534 22.6931C160.135 22.6931 160.306 22.6931 160.308 22.6931L161.096 22.6964H166.007L166.6 19.6097L163.661 19.6086Z" fill="black"/>
<path id="Vector_21" d="M191.206 13.4242C191.104 12.4857 190.824 11.637 190.373 10.9014C189.901 10.1365 189.222 9.52124 188.414 9.12723C187.588 8.71323 186.575 8.50322 185.402 8.50322C184.394 8.50029 183.394 8.67735 182.448 9.02605C181.606 9.34429 180.821 9.7982 180.126 10.3698C179.692 9.84965 179.154 9.42634 178.546 9.12723C177.72 8.71323 176.707 8.50322 175.534 8.50322C174.526 8.50033 173.526 8.67739 172.581 9.02605C171.606 9.39146 170.709 9.93629 169.936 10.6323C169.14 11.3426 168.474 12.1854 167.967 13.1234C167.44 14.0797 167.068 15.1134 166.865 16.1861C166.845 16.2955 166.824 16.4098 166.811 16.4923L165.619 22.704H170.093L171.411 15.8361C171.463 15.5703 171.996 13.2361 174.571 13.2361C177.073 13.2361 176.818 15.6146 176.813 15.6386L175.456 22.704H179.972L181.194 16.3398C181.232 16.1396 181.264 15.9536 181.29 15.7792C181.388 15.3449 181.988 13.2361 184.437 13.2361C186.94 13.2361 186.685 15.6146 186.68 15.6386L185.323 22.704H189.839L191.042 16.4475C191.346 14.8757 191.27 14.0242 191.206 13.4242Z" fill="black"/>
<path id="Vector_22" d="M135.223 16.8615H140.099C140.099 16.8604 140.099 16.8593 140.099 16.8582H149.413L149.601 15.8798C149.936 14.1403 149.882 12.72 149.441 11.6189C148.999 10.5178 148.318 9.72573 147.398 9.24263C146.471 8.7558 145.437 8.50592 144.39 8.51525C142.742 8.51525 141.282 8.82097 140.009 9.4324C138.736 10.0438 137.709 10.8866 136.928 11.9607C136.148 13.0343 135.635 14.2506 135.366 15.6102C135.269 16.0991 135.23 16.4098 135.222 16.6805C135.218 16.7417 135.225 16.7992 135.223 16.8615ZM141.458 12.3255C142.016 11.7988 142.757 11.5089 143.525 11.5166C144.321 11.5166 144.882 11.7817 145.205 12.3118C145.529 12.842 145.606 13.5509 145.435 14.4387H140.323C140.489 13.5692 140.867 12.8648 141.457 12.3255H141.458Z" fill="black"/>
<path id="Vector_23" d="M140.347 17.9165H135.24C135.263 18.1188 135.283 18.3212 135.324 18.5181C135.491 19.3477 135.873 20.1188 136.432 20.7538C136.988 21.3838 137.704 21.8673 138.56 22.1894C139.134 22.4082 140.061 22.6931 141.473 22.6931C141.582 22.6931 141.692 22.6931 141.793 22.6882H143.875L144.561 19.118H142.483C142.399 19.1197 140.961 19.0868 140.347 17.9165Z" fill="black"/>
</g>
<g id="YOUR WORK PARTNER">
<path d="M75.7271 29.2984L77.0703 26.7881H77.4258L75.8938 29.6098V31.3872H75.5698V29.635L74.0252 26.7881H74.3838L75.7271 29.2984Z" fill="black"/>
<path d="M81.9462 29.0814C81.9462 29.4316 81.9032 29.7514 81.8172 30.0408C81.7313 30.3302 81.6023 30.5798 81.4303 30.7895C81.2583 30.9992 81.0434 31.1617 80.7854 31.2771C80.5296 31.3924 80.2307 31.4501 79.8889 31.4501C79.545 31.4501 79.244 31.3924 78.9861 31.2771C78.7281 31.1617 78.5132 30.9992 78.3412 30.7895C78.1713 30.5777 78.0434 30.3271 77.9574 30.0377C77.8714 29.7462 77.8284 29.4253 77.8284 29.0751C77.8284 28.6095 77.9071 28.1995 78.0644 27.8451C78.2237 27.4907 78.4576 27.2138 78.7659 27.0146C79.0762 26.8154 79.459 26.7158 79.9141 26.7158C80.3503 26.7158 80.7194 26.8112 81.0214 27.002C81.3255 27.1908 81.5551 27.4624 81.7103 27.8168C81.8676 28.1691 81.9462 28.5906 81.9462 29.0814ZM78.1682 29.0782C78.1682 29.4893 78.23 29.8521 78.3538 30.1666C78.4775 30.4791 78.6673 30.7234 78.9232 30.8996C79.179 31.0758 79.502 31.1638 79.892 31.1638C80.2863 31.1638 80.6103 31.0768 80.8641 30.9027C81.1178 30.7287 81.3055 30.4854 81.4272 30.1729C81.5488 29.8605 81.6096 29.4966 81.6096 29.0814C81.6096 28.4249 81.466 27.9153 81.1787 27.5525C80.8934 27.1897 80.4719 27.0083 79.9141 27.0083C79.5219 27.0083 79.1958 27.0953 78.9357 27.2694C78.6778 27.4435 78.4848 27.6857 78.3569 27.9961C78.2311 28.3065 78.1682 28.6672 78.1682 29.0782Z" fill="black"/>
<path d="M86.3912 26.7881V29.764C86.3912 30.1226 86.322 30.4277 86.1835 30.6794C86.0451 30.929 85.8459 31.1198 85.5858 31.2519C85.3279 31.384 85.0186 31.4501 84.6579 31.4501C84.1105 31.4501 83.69 31.3023 83.3964 31.0066C83.1028 30.7088 82.956 30.2904 82.956 29.7514V26.7881H83.2769V29.7514C83.2769 30.2128 83.3964 30.5641 83.6355 30.8052C83.8767 31.0443 84.2227 31.1638 84.6736 31.1638C84.9693 31.1638 85.2209 31.1114 85.4286 31.0066C85.6362 30.8996 85.7945 30.7444 85.9036 30.541C86.0126 30.3355 86.0671 30.087 86.0671 29.7954V26.7881H86.3912Z" fill="black"/>
<path d="M88.7568 26.7881C89.1217 26.7881 89.4258 26.828 89.669 26.9076C89.9144 26.9873 90.0989 27.1184 90.2227 27.3009C90.3464 27.4833 90.4083 27.7297 90.4083 28.0401C90.4083 28.2729 90.3653 28.4732 90.2793 28.641C90.1954 28.8066 90.079 28.9429 89.9301 29.0499C89.7812 29.1569 89.6093 29.2386 89.4142 29.2953L90.6757 31.3872H90.2919L89.1059 29.3865H87.964V31.3872H87.64V26.7881H88.7568ZM88.7253 27.0744H87.964V29.1002H88.8794C89.2548 29.1002 89.5474 29.0101 89.7571 28.8297C89.9689 28.6493 90.0748 28.3903 90.0748 28.0527C90.0748 27.6815 89.9637 27.4256 89.7414 27.2851C89.5191 27.1446 89.1804 27.0744 88.7253 27.0744Z" fill="black"/>
<path d="M98.0902 26.7881L96.835 31.3872H96.5205L95.5358 27.9143C95.5128 27.8409 95.4918 27.7717 95.4729 27.7067C95.4562 27.6396 95.4394 27.5766 95.4226 27.5179C95.4079 27.4571 95.3932 27.4005 95.3786 27.3481C95.366 27.2935 95.3555 27.2442 95.3471 27.2002C95.3387 27.2442 95.3293 27.2914 95.3188 27.3418C95.3104 27.39 95.2999 27.4403 95.2873 27.4928C95.2748 27.5452 95.2611 27.5997 95.2464 27.6563C95.2318 27.713 95.216 27.7717 95.1993 27.8325L94.2178 31.3872H93.9001L92.6606 26.7881H92.9941L93.8592 30.0314C93.8822 30.1174 93.9032 30.1992 93.9221 30.2767C93.9431 30.3543 93.9619 30.4298 93.9787 30.5032C93.9955 30.5745 94.0112 30.6448 94.0259 30.714C94.0427 30.7811 94.0573 30.8493 94.0699 30.9185C94.0846 30.8493 94.0993 30.779 94.114 30.7077C94.1287 30.6364 94.1444 30.5641 94.1612 30.4907C94.18 30.4173 94.1989 30.3418 94.2178 30.2642C94.2388 30.1845 94.2618 30.1016 94.287 30.0156L95.1898 26.7881H95.5138L96.4513 30.0345C96.4764 30.1247 96.4995 30.2096 96.5205 30.2893C96.5414 30.369 96.5603 30.4456 96.5771 30.519C96.5939 30.5903 96.6096 30.6605 96.6243 30.7297C96.639 30.7968 96.6536 30.865 96.6683 30.9342C96.6851 30.8398 96.7019 30.7476 96.7187 30.6574C96.7375 30.5651 96.7595 30.4686 96.7847 30.368C96.8099 30.2673 96.8382 30.1572 96.8696 30.0377L97.7536 26.7881H98.0902Z" fill="black"/>
<path d="M102.765 29.0814C102.765 29.4316 102.722 29.7514 102.636 30.0408C102.55 30.3302 102.421 30.5798 102.249 30.7895C102.077 30.9992 101.862 31.1617 101.604 31.2771C101.348 31.3924 101.049 31.4501 100.707 31.4501C100.364 31.4501 100.063 31.3924 99.8046 31.2771C99.5467 31.1617 99.3317 30.9992 99.1597 30.7895C98.9899 30.5777 98.862 30.3271 98.776 30.0377C98.69 29.7462 98.647 29.4253 98.647 29.0751C98.647 28.6095 98.7256 28.1995 98.8829 27.8451C99.0423 27.4907 99.2761 27.2138 99.5844 27.0146C99.8948 26.8154 100.278 26.7158 100.733 26.7158C101.169 26.7158 101.538 26.8112 101.84 27.002C102.144 27.1908 102.374 27.4624 102.529 27.8168C102.686 28.1691 102.765 28.5906 102.765 29.0814ZM98.9867 29.0782C98.9867 29.4893 99.0486 29.8521 99.1723 30.1666C99.2961 30.4791 99.4859 30.7234 99.7417 30.8996C99.9976 31.0758 100.321 31.1638 100.711 31.1638C101.105 31.1638 101.429 31.0768 101.683 30.9027C101.936 30.7287 102.124 30.4854 102.246 30.1729C102.367 29.8605 102.428 29.4966 102.428 29.0814C102.428 28.4249 102.285 27.9153 101.997 27.5525C101.712 27.1897 101.29 27.0083 100.733 27.0083C100.34 27.0083 100.014 27.0953 99.7543 27.2694C99.4963 27.4435 99.3034 27.6857 99.1755 27.9961C99.0496 28.3065 98.9867 28.6672 98.9867 29.0782Z" fill="black"/>
<path d="M104.938 26.7881C105.303 26.7881 105.607 26.828 105.851 26.9076C106.096 26.9873 106.281 27.1184 106.404 27.3009C106.528 27.4833 106.59 27.7297 106.59 28.0401C106.59 28.2729 106.547 28.4732 106.461 28.641C106.377 28.8066 106.261 28.9429 106.112 29.0499C105.963 29.1569 105.791 29.2386 105.596 29.2953L106.857 31.3872H106.474L105.288 29.3865H104.146V31.3872H103.822V26.7881H104.938ZM104.907 27.0744H104.146V29.1002H105.061C105.437 29.1002 105.729 29.0101 105.939 28.8297C106.151 28.6493 106.257 28.3903 106.257 28.0527C106.257 27.6815 106.145 27.4256 105.923 27.2851C105.701 27.1446 105.362 27.0744 104.907 27.0744Z" fill="black"/>
<path d="M110.749 31.3872H110.355L108.575 28.9618L107.977 29.5375V31.3872H107.653V26.7881H107.977V29.2072C108.055 29.1191 108.136 29.031 108.22 28.9429C108.305 28.8528 108.391 28.7615 108.477 28.6693L110.293 26.7881H110.695L108.814 28.7353L110.749 31.3872Z" fill="black"/>
<path d="M114.2 26.7881C114.747 26.7881 115.157 26.893 115.43 27.1027C115.702 27.3124 115.839 27.6385 115.839 28.081C115.839 28.3075 115.802 28.5088 115.728 28.685C115.657 28.8591 115.549 29.0059 115.404 29.1254C115.26 29.2449 115.078 29.3351 114.86 29.3959C114.644 29.4568 114.391 29.4872 114.102 29.4872H113.394V31.3872H113.07V26.7881H114.2ZM114.165 27.0744H113.394V29.2009H114.071C114.368 29.2009 114.624 29.1673 114.838 29.1002C115.052 29.031 115.217 28.9157 115.332 28.7542C115.447 28.5927 115.505 28.3725 115.505 28.0936C115.505 27.7392 115.396 27.4812 115.178 27.3197C114.96 27.1562 114.622 27.0744 114.165 27.0744Z" fill="black"/>
<path d="M119.717 31.3872L119.091 29.7608H117.16L116.521 31.3872H116.191L118 26.7724H118.295L120.057 31.3872H119.717ZM118.987 29.4683L118.352 27.7444C118.335 27.7004 118.314 27.6438 118.289 27.5745C118.266 27.5053 118.241 27.4319 118.214 27.3543C118.188 27.2768 118.163 27.2034 118.138 27.1341C118.117 27.2075 118.094 27.2809 118.069 27.3543C118.044 27.4277 118.02 27.4991 117.996 27.5683C117.973 27.6354 117.951 27.6962 117.93 27.7507L117.27 29.4683H118.987Z" fill="black"/>
<path d="M121.825 26.7881C122.19 26.7881 122.494 26.828 122.737 26.9076C122.982 26.9873 123.167 27.1184 123.291 27.3009C123.415 27.4833 123.476 27.7297 123.476 28.0401C123.476 28.2729 123.433 28.4732 123.347 28.641C123.264 28.8066 123.147 28.9429 122.998 29.0499C122.849 29.1569 122.677 29.2386 122.482 29.2953L123.744 31.3872H123.36L122.174 29.3865H121.032V31.3872H120.708V26.7881H121.825ZM121.793 27.0744H121.032V29.1002H121.948C122.323 29.1002 122.615 29.0101 122.825 28.8297C123.037 28.6493 123.143 28.3903 123.143 28.0527C123.143 27.6815 123.032 27.4256 122.809 27.2851C122.587 27.1446 122.248 27.0744 121.793 27.0744Z" fill="black"/>
<path d="M125.741 31.3872H125.414V27.0807H123.923V26.7881H127.232V27.0807H125.741V31.3872Z" fill="black"/>
<path d="M131.265 31.3872H130.935L128.217 27.3197H128.201C128.205 27.433 128.209 27.5483 128.211 27.6658C128.215 27.7811 128.218 27.9007 128.22 28.0244C128.224 28.146 128.226 28.2719 128.226 28.4019V31.3872H127.918V26.7881H128.252L130.96 30.843H130.976C130.974 30.7507 130.971 30.6437 130.966 30.5221C130.964 30.4005 130.961 30.2757 130.957 30.1478C130.955 30.0198 130.954 29.8993 130.954 29.786V26.7881H131.265V31.3872Z" fill="black"/>
<path d="M135.081 31.3872H132.568V26.7881H135.081V27.0807H132.892V28.8234H134.958V29.116H132.892V31.0946H135.081V31.3872Z" fill="black"/>
<path d="M137.245 26.7881C137.61 26.7881 137.914 26.828 138.158 26.9076C138.403 26.9873 138.588 27.1184 138.711 27.3009C138.835 27.4833 138.897 27.7297 138.897 28.0401C138.897 28.2729 138.854 28.4732 138.768 28.641C138.684 28.8066 138.568 28.9429 138.419 29.0499C138.27 29.1569 138.098 29.2386 137.903 29.2953L139.164 31.3872H138.78L137.595 29.3865H136.453V31.3872H136.129V26.7881H137.245ZM137.214 27.0744H136.453V29.1002H137.368C137.743 29.1002 138.036 29.0101 138.246 28.8297C138.457 28.6493 138.563 28.3903 138.563 28.0527C138.563 27.6815 138.452 27.4256 138.23 27.2851C138.008 27.1446 137.669 27.0744 137.214 27.0744Z" fill="black"/>
</g>
<path id="Vector_24" d="M199.419 6.41734C199.417 5.85206 199.192 5.3103 198.792 4.91058C198.393 4.51086 197.851 4.28573 197.286 4.28443C196.721 4.28601 196.179 4.51124 195.779 4.9109C195.38 5.31055 195.154 5.85214 195.153 6.41734C195.153 6.98302 195.378 7.52554 195.778 7.92554C196.178 8.32554 196.72 8.55025 197.286 8.55025C197.566 8.55039 197.844 8.49514 198.103 8.38768C198.362 8.28021 198.597 8.12266 198.795 7.92405C198.858 7.86104 198.917 7.79419 198.972 7.72389C199.263 7.34958 199.421 6.8888 199.42 6.41461L199.419 6.41734ZM196.332 7.51114V5.25627H197.493C197.659 5.24995 197.825 5.26838 197.985 5.31096C198.097 5.3466 198.193 5.41886 198.259 5.51605C198.331 5.62373 198.367 5.7513 198.363 5.88083C198.368 5.99073 198.342 6.09982 198.289 6.19624C198.236 6.29267 198.158 6.37273 198.063 6.42773C197.986 6.46968 197.904 6.49939 197.818 6.51578C197.883 6.53493 197.944 6.56311 198.001 6.59946C198.041 6.63474 198.078 6.67435 198.11 6.71759C198.147 6.76115 198.18 6.80802 198.208 6.85759L198.545 7.51114H197.757L197.385 6.82205C197.355 6.75609 197.312 6.69693 197.258 6.64813C197.209 6.61251 197.149 6.59338 197.088 6.59344H197.026V7.50786H196.332V7.51114ZM197.032 6.17014H197.326C197.388 6.16557 197.45 6.15532 197.51 6.13951C197.556 6.13083 197.596 6.10568 197.623 6.06896C197.656 6.02467 197.671 5.97003 197.667 5.9152C197.662 5.86037 197.638 5.80909 197.598 5.7709C197.552 5.73153 197.465 5.71238 197.338 5.71238H197.032V6.17014ZM199.999 6.41789C199.999 7.13791 199.713 7.8284 199.204 8.33758C198.695 8.84677 198.004 9.13296 197.284 9.13325C196.564 9.13296 195.874 8.84681 195.365 8.33771C194.856 7.82862 194.57 7.13826 194.57 6.41843C194.57 6.0619 194.64 5.70884 194.777 5.37943C194.913 5.05002 195.113 4.75072 195.365 4.49864C195.617 4.24656 195.917 4.04665 196.246 3.91033C196.576 3.774 196.929 3.70395 197.285 3.70416C197.642 3.70373 197.995 3.77358 198.324 3.9097C198.654 4.04582 198.953 4.24555 199.206 4.49748C199.458 4.74941 199.658 5.04859 199.795 5.37792C199.931 5.70724 200.002 6.06026 200.002 6.41679L199.999 6.41789Z" fill="black"/>
</g>
</g>
<defs>
<linearGradient id="paint0_linear_173_2" x1="36.5379" y1="16.3715" x2="59.5706" y2="16.3715" gradientUnits="userSpaceOnUse">
<stop stop-color="#6ABDBD"/>
<stop offset="1" stop-color="#117F7C"/>
</linearGradient>
<linearGradient id="paint1_linear_173_2" x1="41.4633" y1="23.3406" x2="51.115" y2="23.3406" gradientUnits="userSpaceOnUse">
<stop stop-color="#579D9E"/>
<stop offset="1" stop-color="#00615E"/>
</linearGradient>
<linearGradient id="paint2_linear_173_2" x1="43.5689" y1="16.3671" x2="61.9978" y2="2.27018" gradientUnits="userSpaceOnUse">
<stop stop-color="#6ABDBD"/>
<stop offset="1" stop-color="#117F7C"/>
</linearGradient>
<linearGradient id="paint3_linear_173_2" x1="37.5054" y1="-4.07551" x2="34.7884" y2="30.5061" gradientUnits="userSpaceOnUse">
<stop stop-color="#FF0077"/>
<stop offset="1" stop-color="#C60264"/>
</linearGradient>
<linearGradient id="paint4_linear_173_2" x1="45.7669" y1="24.8282" x2="23.9904" y2="24.8282" gradientUnits="userSpaceOnUse">
<stop stop-color="#FF0077"/>
<stop offset="1" stop-color="#C60264"/>
</linearGradient>
<linearGradient id="paint5_linear_173_2" x1="28.6839" y1="9.89453" x2="38.6402" y2="9.89453" gradientUnits="userSpaceOnUse">
<stop stop-color="#FF0077"/>
<stop offset="1" stop-color="#79003B"/>
</linearGradient>
<linearGradient id="paint6_linear_173_2" x1="0.222042" y1="-7.00853" x2="9.71788" y2="12.2282" gradientUnits="userSpaceOnUse">
<stop stop-color="#A7C62A"/>
<stop offset="1" stop-color="#6F8200"/>
</linearGradient>
<linearGradient id="paint7_linear_173_2" x1="13.3241" y1="18.6318" x2="13.0715" y2="35.3735" gradientUnits="userSpaceOnUse">
<stop stop-color="#718B32"/>
<stop offset="1" stop-color="#3C4E1F"/>
</linearGradient>
<linearGradient id="paint8_linear_173_2" x1="6.3096" y1="-8.04436" x2="10.1762" y2="27.9811" gradientUnits="userSpaceOnUse">
<stop stop-color="#A7C62A"/>
<stop offset="1" stop-color="#6F8200"/>
</linearGradient>
<linearGradient id="paint9_linear_173_2" x1="21.252" y1="-7.9317" x2="24.703" y2="26.7238" gradientUnits="userSpaceOnUse">
<stop stop-color="#FDA037"/>
<stop offset="1" stop-color="#C96400"/>
</linearGradient>
<linearGradient id="paint10_linear_173_2" x1="4.94781" y1="-0.21876" x2="59.721" y2="48.3132" gradientUnits="userSpaceOnUse">
<stop stop-color="#FDA037"/>
<stop offset="1" stop-color="#C96400"/>
</linearGradient>
<clipPath id="clip0_173_2">
<rect width="200" height="32.7435" fill="white"/>
</clipPath>
</defs>
</svg>
