<svg width="24" height="24" viewBox="0 0 24 24" fill="none" xmlns="http://www.w3.org/2000/svg">
<g clip-path="url(#clip0_910_2665)">
<path d="M10.9958 1.15635C11.1844 0.774207 11.5736 0.532227 11.9997 0.532227C12.4259 0.532174 12.8151 0.774155 13.0038 1.1563L15.8451 6.91309C16.0082 7.24349 16.3234 7.47255 16.6881 7.52555L23.0413 8.44879C23.4631 8.51006 23.8135 8.80551 23.9452 9.21078C24.0768 9.61611 23.967 10.061 23.6618 10.3585L19.0645 14.8397C18.8006 15.0969 18.6802 15.4674 18.7425 15.8306L19.8276 22.158C19.8996 22.5781 19.7269 23.0026 19.3822 23.2531C19.0374 23.5036 18.5803 23.5366 18.2031 23.3383L12.5208 20.3511C12.1946 20.1796 11.805 20.1796 11.4788 20.3511L5.79644 23.3382C5.41921 23.5366 4.96214 23.5035 4.61735 23.253C4.27256 23.0025 4.0999 22.578 4.17195 22.1579L5.25728 15.8306C5.31954 15.4674 5.19915 15.0969 4.9353 14.8396L0.338134 10.3585C0.033003 10.061 -0.0768694 9.61611 0.0548205 9.21073C0.18651 8.80541 0.536899 8.51001 0.958599 8.44874L7.31189 7.52545C7.67656 7.47245 7.99184 7.24339 8.15493 6.91293L10.9958 1.15635Z" fill="white"/>
</g>
<defs>
<clipPath id="clip0_910_2665">
<rect width="24" height="24" fill="white"/>
</clipPath>
</defs>
</svg>
