<svg width="36" height="36" viewBox="0 0 36 36" fill="none" xmlns="http://www.w3.org/2000/svg">
<path d="M11.7974 0.129883H11.9252C12.0076 0.154882 12.0787 0.207949 12.1262 0.279883C12.6462 1.22588 13.163 2.17328 13.6766 3.12208C13.6777 3.1249 13.6793 3.12746 13.6815 3.1296C13.6836 3.13175 13.6862 3.13343 13.689 3.13456C13.6918 3.13568 13.6948 3.13622 13.6978 3.13614C13.7008 3.13606 13.7038 3.13536 13.7066 3.13408C13.795 3.10368 13.8824 3.07088 13.9688 3.03568C15.5048 2.40275 17.1683 2.14047 18.8246 2.27008C20.0164 2.35718 21.1846 2.648 22.2782 3.12988C22.2896 3.13504 22.3026 3.13568 22.3145 3.13168C22.3264 3.12767 22.3364 3.11932 22.3424 3.10828C22.8644 2.14828 23.3804 1.20268 23.8904 0.271483C23.936 0.208975 23.9984 0.160703 24.0704 0.132283H24.149C24.3926 0.178483 24.5402 0.361483 24.41 0.599683C23.9124 1.51168 23.4166 2.42488 22.9226 3.33928C22.9184 3.34768 22.9226 3.35248 22.9292 3.35428L22.9178 3.39208L22.9112 3.38908C22.9056 3.38468 22.9018 3.38568 22.8998 3.39208C22.8984 3.3955 22.8966 3.39873 22.8944 3.40168C22.8907 3.40647 22.8891 3.41249 22.8899 3.41845C22.8907 3.4244 22.8938 3.4298 22.8986 3.43348H22.9022C24.3813 4.15412 25.6324 5.26958 26.5174 6.65665C27.4024 8.04372 27.8867 9.64842 27.917 11.2935C27.9173 11.2964 27.917 11.2994 27.9161 11.3023C27.9152 11.3051 27.9137 11.3077 27.9117 11.3099C27.9097 11.3121 27.9073 11.3139 27.9046 11.3151C27.9019 11.3163 27.8989 11.3169 27.896 11.3169C27.8118 11.3278 27.727 11.3336 27.6422 11.3343C27.397 11.3287 26.8658 11.3255 26.0486 11.3247C20.0646 11.3219 14.0862 11.3219 8.11337 11.3247C8.10143 11.3247 8.08998 11.3199 8.08154 11.3115C8.0731 11.3031 8.06836 11.2916 8.06836 11.2797C8.07516 10.9625 8.09617 10.6473 8.13137 10.3341C8.32908 8.86149 8.88774 7.4606 9.75763 6.25605C10.6275 5.0515 11.7817 4.08066 13.1174 3.42988C13.1203 3.42836 13.123 3.42627 13.1251 3.42372C13.1273 3.42117 13.1289 3.41822 13.1299 3.41504C13.1309 3.41186 13.1313 3.40851 13.131 3.40519C13.1307 3.40186 13.1297 3.39863 13.1282 3.39568C12.6214 2.46848 12.1178 1.53988 11.6174 0.609883C11.4776 0.348883 11.579 0.263083 11.7926 0.129883M14.3174 6.91648C14.3174 6.75035 14.2681 6.58794 14.1758 6.4498C14.0835 6.31167 13.9523 6.204 13.7988 6.14042C13.6453 6.07685 13.4764 6.06021 13.3135 6.09262C13.1505 6.12503 13.0009 6.20504 12.8834 6.32251C12.7659 6.43999 12.6859 6.58966 12.6535 6.75261C12.6211 6.91555 12.6377 7.08445 12.7013 7.23794C12.7649 7.39143 12.8725 7.52262 13.0107 7.61492C13.1488 7.70722 13.3112 7.75648 13.4774 7.75648C13.5877 7.75648 13.6969 7.73476 13.7988 7.69254C13.9007 7.65033 13.9933 7.58845 14.0713 7.51045C14.1493 7.43245 14.2112 7.33985 14.2534 7.23794C14.2956 7.13602 14.3174 7.02679 14.3174 6.91648ZM22.4732 7.75648C22.6399 7.77023 22.8069 7.7341 22.953 7.65269C23.0992 7.57128 23.2178 7.44826 23.2939 7.29927C23.3699 7.15028 23.3999 6.98204 23.3802 6.81594C23.3604 6.64984 23.2916 6.49337 23.1827 6.36641C23.0738 6.23946 22.9296 6.14775 22.7684 6.10295C22.6072 6.05815 22.4364 6.06228 22.2776 6.1148C22.1188 6.16733 21.9792 6.26589 21.8765 6.39795C21.7738 6.53001 21.7127 6.68962 21.701 6.85648C21.6854 7.07792 21.7577 7.29658 21.9022 7.46506C22.0468 7.63353 22.2519 7.73824 22.4732 7.75648Z" fill="#0383FE"/>
<path d="M5.1557 25.3561C4.85264 25.3625 4.5515 25.3066 4.27089 25.192C3.99029 25.0773 3.73619 24.9063 3.5243 24.6895C3.13453 24.2979 2.90715 23.7735 2.8877 23.2213V13.8733C2.90227 13.6644 2.93642 13.4573 2.9897 13.2547C3.10871 12.8746 3.32849 12.5338 3.62568 12.2686C3.92287 12.0034 4.28637 11.8237 4.67753 11.7486C5.06869 11.6734 5.4729 11.7057 5.8472 11.8419C6.2215 11.9781 6.55191 12.2132 6.8033 12.5221C7.16234 12.982 7.33385 13.5609 7.2833 14.1421C7.2833 17.1465 7.2833 20.1509 7.2833 23.1553C7.28604 23.6727 7.10505 24.1743 6.77256 24.5707C6.44007 24.9672 5.97767 25.2327 5.4677 25.3201C5.3807 25.3351 5.2613 25.3345 5.1575 25.3567" fill="#0383FE"/>
<path d="M33.1267 13.7521V23.3443C33.0892 23.688 32.9743 24.0187 32.7907 24.3115C32.6034 24.6154 32.3445 24.8688 32.0367 25.0495C31.7288 25.2302 31.3815 25.3328 31.0249 25.3483H30.7423C30.2735 25.3042 29.8309 25.1124 29.4782 24.8005C29.1255 24.4887 28.8809 24.0729 28.7797 23.6131C28.7398 23.3551 28.7231 23.0941 28.7299 22.8331C28.7259 19.8887 28.727 16.9445 28.7334 14.0005C28.7049 13.5171 28.8405 13.0383 29.1181 12.6415C29.378 12.2703 29.7466 11.9887 30.1732 11.8357C30.5998 11.6827 31.0634 11.6657 31.5001 11.7871C31.7983 11.8573 32.0757 11.9971 32.3095 12.1951C32.5474 12.3834 32.7431 12.6195 32.8839 12.8883C33.0246 13.157 33.1074 13.4523 33.1267 13.7551" fill="#0383FE"/>
<path d="M8.15685 12.1094H27.8483C27.8529 12.1094 27.8573 12.1112 27.8606 12.1145C27.8638 12.1177 27.8656 12.1222 27.8656 12.1268V25.9868C27.8769 26.2046 27.8769 26.4229 27.8656 26.6408C27.8306 26.9528 27.7387 27.2558 27.5944 27.5348C27.4222 27.8584 27.1765 28.1372 26.8772 28.3489C26.5779 28.5606 26.2332 28.6993 25.8706 28.754C25.2376 28.8074 24.5915 28.7648 23.9549 28.7714C23.9426 28.7714 23.9308 28.7762 23.9222 28.7849C23.9135 28.7936 23.9086 28.8053 23.9086 28.8176C23.9086 30.3416 23.9086 31.8696 23.9086 33.4016C23.9163 33.6628 23.8978 33.9241 23.8534 34.1816C23.7416 34.6378 23.488 35.0469 23.1289 35.3499C22.7699 35.6528 22.324 35.8341 21.8554 35.8676H21.5326C21.2135 35.8408 20.9036 35.7465 20.6236 35.591C20.2768 35.399 19.989 35.1157 19.7915 34.7719C19.5941 34.4281 19.4945 34.0368 19.5034 33.6404C19.4776 32.0948 19.5034 30.5432 19.4998 28.997C19.4998 28.937 19.4878 28.8734 19.492 28.8068C19.4926 28.8037 19.4924 28.8005 19.4916 28.7975C19.4907 28.7945 19.4892 28.7917 19.4871 28.7893C19.4851 28.7869 19.4825 28.7851 19.4796 28.7838C19.4767 28.7826 19.4736 28.782 19.4705 28.7822C19.3857 28.7754 19.301 28.772 19.2166 28.772H16.567C16.5615 28.772 16.5559 28.7731 16.5507 28.7752C16.5456 28.7774 16.5409 28.7805 16.5369 28.7844C16.533 28.7884 16.5298 28.7931 16.5277 28.7983C16.5255 28.8034 16.5244 28.809 16.5244 28.8146C16.5128 30.2994 16.5128 31.7746 16.5244 33.2402C16.5326 33.5019 16.5232 33.7639 16.4963 34.0244C16.4146 34.5173 16.1685 34.9682 15.7982 35.3036C15.4278 35.639 14.9549 35.8392 14.4562 35.8718H14.1533C13.8229 35.8453 13.5031 35.7426 13.219 35.5718C12.8921 35.3792 12.6196 35.1066 12.4272 34.7796C12.2348 34.4527 12.1288 34.082 12.1193 33.7028V32.0228L12.1127 28.805C12.1164 28.8008 12.1183 28.7954 12.1181 28.7898C12.1178 28.7842 12.1153 28.779 12.1111 28.7753C12.107 28.7715 12.1016 28.7696 12.096 28.7699C12.0904 28.7702 12.0852 28.7726 12.0815 28.7768C12.0215 28.7816 11.9662 28.7648 11.9152 28.766C11.0804 28.78 10.539 28.78 10.291 28.766C9.78817 28.724 9.3125 28.52 8.93546 28.1846C8.55842 27.8492 8.30036 27.4005 8.20004 26.906C8.16067 26.6479 8.14421 26.3869 8.15084 26.126C8.14844 21.4544 8.15045 16.7822 8.15685 12.1094Z" fill="#0383FE"/>
</svg>
