<svg width="196" height="56" viewBox="0 0 196 56" fill="none" xmlns="http://www.w3.org/2000/svg">
<path d="M174.771 38.9903C169.664 46.2018 162.84 54 154.004 54H41.9961C33.1596 54 26.3358 46.2018 21.2292 38.9902C16.5207 32.3406 8.76737 28 0 28C8.76667 28 16.5202 23.6593 21.229 17.0097C26.3357 9.79822 33.1596 2 41.9961 2H154.004C162.84 2 169.664 9.79822 174.771 17.0098C179.479 23.6594 187.233 28 196 28C187.233 28 179.48 32.3407 174.771 38.9903Z" fill="white"/>
<path d="M41.1717 17.68H53.2957V21.096H45.0637L44.6717 24.764C45.2504 24.54 45.801 24.3907 46.3237 24.316C46.8464 24.2227 47.3504 24.176 47.8357 24.176C49.0304 24.176 50.0477 24.3347 50.8877 24.652C51.7464 24.9507 52.4464 25.38 52.9877 25.94C53.5477 26.5 53.9584 27.172 54.2197 27.956C54.481 28.74 54.6117 29.608 54.6117 30.56C54.6117 31.4187 54.4624 32.2587 54.1637 33.08C53.8837 33.8827 53.4357 34.6013 52.8197 35.236C52.2224 35.852 51.4477 36.3467 50.4957 36.72C49.5437 37.0933 48.3957 37.28 47.0517 37.28C45.969 37.28 44.9704 37.1307 44.0557 36.832C43.1597 36.5147 42.385 36.0853 41.7317 35.544C41.097 35.0027 40.593 34.3587 40.2197 33.612C39.865 32.8467 39.6877 32.016 39.6877 31.12L44.0837 31.092C44.121 31.876 44.3824 32.52 44.8677 33.024C45.3717 33.528 46.1277 33.78 47.1357 33.78C48.1624 33.78 48.9277 33.4813 49.4317 32.884C49.9357 32.2867 50.1877 31.512 50.1877 30.56C50.1877 30.112 50.1317 29.7013 50.0197 29.328C49.9264 28.936 49.7584 28.6 49.5157 28.32C49.2917 28.04 48.9837 27.816 48.5917 27.648C48.1997 27.48 47.7144 27.396 47.1357 27.396C46.781 27.396 46.4357 27.424 46.0997 27.48C45.7637 27.5173 45.4277 27.6013 45.0917 27.732C44.7744 27.844 44.4384 28.0027 44.0837 28.208C43.7477 28.3947 43.3744 28.628 42.9637 28.908L40.2477 27.116L41.1717 17.68ZM56.3361 27.34C56.3361 25.604 56.5508 24.1107 56.9801 22.86C57.4094 21.6093 57.9881 20.5827 58.7161 19.78C59.4628 18.9587 60.3308 18.3613 61.3201 17.988C62.3281 17.596 63.3921 17.4 64.5121 17.4C65.6508 17.4 66.7148 17.596 67.7041 17.988C68.7121 18.3613 69.5801 18.9587 70.3081 19.78C71.0548 20.5827 71.6428 21.6093 72.0721 22.86C72.5014 24.1107 72.7161 25.604 72.7161 27.34C72.7161 29.076 72.5014 30.5693 72.0721 31.82C71.6428 33.0707 71.0548 34.1067 70.3081 34.928C69.5801 35.7307 68.7121 36.328 67.7041 36.72C66.7148 37.0933 65.6508 37.28 64.5121 37.28C63.3921 37.28 62.3281 37.0933 61.3201 36.72C60.3308 36.328 59.4628 35.7307 58.7161 34.928C57.9881 34.1067 57.4094 33.0707 56.9801 31.82C56.5508 30.5693 56.3361 29.076 56.3361 27.34ZM60.9001 27.34C60.9001 28.5533 61.0028 29.5613 61.2081 30.364C61.4321 31.1667 61.7121 31.8107 62.0481 32.296C62.4028 32.7627 62.7948 33.0987 63.2241 33.304C63.6534 33.4907 64.0828 33.584 64.5121 33.584C64.9414 33.584 65.3708 33.4907 65.8001 33.304C66.2481 33.0987 66.6401 32.7627 66.9761 32.296C67.3308 31.8107 67.6108 31.1667 67.8161 30.364C68.0401 29.5613 68.1521 28.5533 68.1521 27.34C68.1521 26.1267 68.0401 25.1187 67.8161 24.316C67.6108 23.5133 67.3308 22.8787 66.9761 22.412C66.6401 21.9267 66.2481 21.5907 65.8001 21.404C65.3708 21.1987 64.9414 21.096 64.5121 21.096C64.0828 21.096 63.6534 21.1987 63.2241 21.404C62.7948 21.5907 62.4028 21.9267 62.0481 22.412C61.7121 22.8787 61.4321 23.5133 61.2081 24.316C61.0028 25.1187 60.9001 26.1267 60.9001 27.34ZM89.2464 32.324C89.2464 33.22 89.4144 33.864 89.7504 34.256C90.0864 34.6293 90.5157 34.816 91.0384 34.816C91.5424 34.816 91.9624 34.6293 92.2984 34.256C92.6531 33.864 92.8304 33.22 92.8304 32.324C92.8304 31.4093 92.6531 30.7653 92.2984 30.392C91.9624 30 91.5424 29.804 91.0384 29.804C90.5157 29.804 90.0864 30 89.7504 30.392C89.4144 30.7653 89.2464 31.4093 89.2464 32.324ZM77.6544 22.384C77.6544 23.28 77.8224 23.924 78.1584 24.316C78.4944 24.6893 78.9237 24.876 79.4464 24.876C79.9504 24.876 80.3704 24.6893 80.7064 24.316C81.0611 23.924 81.2384 23.28 81.2384 22.384C81.2384 21.4693 81.0611 20.8253 80.7064 20.452C80.3704 20.06 79.9504 19.864 79.4464 19.864C78.9237 19.864 78.4944 20.06 78.1584 20.452C77.8224 20.8253 77.6544 21.4693 77.6544 22.384ZM89.5824 17.4H92.9984L80.7064 37.56H77.2904L89.5824 17.4ZM85.9984 32.324C85.9984 31.5027 86.1197 30.784 86.3624 30.168C86.6237 29.552 86.9784 29.0387 87.4264 28.628C87.8744 28.1987 88.4064 27.8813 89.0224 27.676C89.6571 27.452 90.3384 27.34 91.0664 27.34C91.7944 27.34 92.4664 27.452 93.0824 27.676C93.6984 27.8813 94.2304 28.1987 94.6784 28.628C95.1264 29.0387 95.4717 29.552 95.7144 30.168C95.9757 30.784 96.1064 31.5027 96.1064 32.324C96.1064 33.1267 95.9757 33.8453 95.7144 34.48C95.4717 35.096 95.1264 35.6093 94.6784 36.02C94.2304 36.4307 93.6984 36.748 93.0824 36.972C92.4664 37.1773 91.7944 37.28 91.0664 37.28C90.3384 37.28 89.6571 37.1773 89.0224 36.972C88.4064 36.748 87.8744 36.4307 87.4264 36.02C86.9784 35.6093 86.6237 35.096 86.3624 34.48C86.1197 33.8453 85.9984 33.1267 85.9984 32.324ZM74.4064 22.384C74.4064 21.5627 74.5277 20.844 74.7704 20.228C75.0317 19.612 75.3864 19.0987 75.8344 18.688C76.2824 18.2587 76.8144 17.9413 77.4304 17.736C78.0651 17.512 78.7464 17.4 79.4744 17.4C80.2024 17.4 80.8744 17.512 81.4904 17.736C82.1064 17.9413 82.6384 18.2587 83.0864 18.688C83.5344 19.0987 83.8797 19.612 84.1224 20.228C84.3837 20.844 84.5144 21.5627 84.5144 22.384C84.5144 23.1867 84.3837 23.9053 84.1224 24.54C83.8797 25.156 83.5344 25.6693 83.0864 26.08C82.6384 26.4907 82.1064 26.808 81.4904 27.032C80.8744 27.2373 80.2024 27.34 79.4744 27.34C78.7464 27.34 78.0651 27.2373 77.4304 27.032C76.8144 26.808 76.2824 26.4907 75.8344 26.08C75.3864 25.6693 75.0317 25.156 74.7704 24.54C74.5277 23.9053 74.4064 23.1867 74.4064 22.384ZM104.706 27.34C104.706 25.8093 104.893 24.428 105.266 23.196C105.658 21.964 106.237 20.9187 107.002 20.06C107.767 19.1827 108.729 18.5107 109.886 18.044C111.062 17.5773 112.443 17.344 114.03 17.344C115.617 17.344 116.989 17.5773 118.146 18.044C119.322 18.5107 120.293 19.1827 121.058 20.06C121.842 20.9187 122.421 21.964 122.794 23.196C123.167 24.428 123.354 25.8093 123.354 27.34C123.354 28.8707 123.167 30.252 122.794 31.484C122.421 32.716 121.842 33.7707 121.058 34.648C120.293 35.5067 119.322 36.1693 118.146 36.636C116.989 37.1027 115.617 37.336 114.03 37.336C112.443 37.336 111.062 37.1027 109.886 36.636C108.729 36.1693 107.767 35.5067 107.002 34.648C106.237 33.7707 105.658 32.716 105.266 31.484C104.893 30.252 104.706 28.8707 104.706 27.34ZM109.382 27.34C109.382 28.1613 109.457 28.9547 109.606 29.72C109.755 30.4667 110.007 31.1293 110.362 31.708C110.717 32.268 111.193 32.7253 111.79 33.08C112.387 33.416 113.134 33.584 114.03 33.584C114.926 33.584 115.673 33.416 116.27 33.08C116.867 32.7253 117.343 32.268 117.698 31.708C118.053 31.1293 118.305 30.4667 118.454 29.72C118.603 28.9547 118.678 28.1613 118.678 27.34C118.678 26.5187 118.603 25.7347 118.454 24.988C118.305 24.2227 118.053 23.5507 117.698 22.972C117.343 22.3933 116.867 21.936 116.27 21.6C115.673 21.264 114.926 21.096 114.03 21.096C113.134 21.096 112.387 21.264 111.79 21.6C111.193 21.936 110.717 22.3933 110.362 22.972C110.007 23.5507 109.755 24.2227 109.606 24.988C109.457 25.7347 109.382 26.5187 109.382 27.34ZM125.945 17.68H139.945V21.292L130.509 21.376V25.436H139.441V29.02H130.509V37H125.945V17.68ZM142.543 17.68H156.543V21.292L147.107 21.376V25.436H156.039V29.02H147.107V37H142.543V17.68Z" fill="url(#paint0_linear_5188_6166)"/>
<defs>
<linearGradient id="paint0_linear_5188_6166" x1="38.5" y1="28" x2="157.5" y2="28" gradientUnits="userSpaceOnUse">
<stop stop-color="#90080C"/>
<stop offset="1" stop-color="#D35559"/>
</linearGradient>
</defs>
</svg>
