<svg width="51" height="51" viewBox="0 0 51 51" fill="none" xmlns="http://www.w3.org/2000/svg">
<path d="M50.9135 25.4561C43.8842 18.4268 32.4869 18.4268 25.4576 25.4561C32.4869 32.4854 43.8842 32.4854 50.9135 25.4561Z" fill="url(#paint0_linear_5188_6140)"/>
<path d="M25.457 50.912C18.4277 43.8827 18.4277 32.4854 25.457 25.4561C32.4863 32.4854 32.4863 43.8827 25.457 50.912Z" fill="url(#paint1_linear_5188_6140)"/>
<path d="M25.457 0.000274658C32.4863 7.02958 32.4863 18.4268 25.457 25.4561C18.4277 18.4268 18.4277 7.02958 25.457 0.000274658Z" fill="url(#paint2_linear_5188_6140)"/>
<path d="M0.000592433 25.4561C7.02989 32.4854 18.4271 32.4854 25.4564 25.4561C18.4271 18.4268 7.02989 18.4268 0.000592433 25.4561Z" fill="url(#paint3_linear_5188_6140)"/>
<path d="M46.6711 25.4547C40.8133 19.597 31.3156 19.597 25.4579 25.4547C31.3156 31.3125 40.8133 31.3125 46.6711 25.4547Z" fill="url(#paint4_linear_5188_6140)"/>
<path d="M25.457 46.6679C19.5993 40.8102 19.5993 31.3125 25.457 25.4547C31.3148 31.3125 31.3148 40.8102 25.457 46.6679Z" fill="url(#paint5_linear_5188_6140)"/>
<path d="M25.457 4.24152C31.3148 10.0993 31.3148 19.597 25.457 25.4547C19.5993 19.597 19.5993 10.0993 25.457 4.24152Z" fill="url(#paint6_linear_5188_6140)"/>
<path d="M4.24301 25.4547C10.1008 31.3125 19.5985 31.3125 25.4562 25.4547C19.5985 19.597 10.1008 19.597 4.24301 25.4547Z" fill="url(#paint7_linear_5188_6140)"/>
<path d="M41.0126 25.4547C36.7169 21.159 29.7519 21.159 25.4562 25.4547C29.7519 29.7504 36.7169 29.7504 41.0126 25.4547Z" fill="url(#paint8_linear_5188_6140)"/>
<path d="M25.457 41.0111C21.1613 36.7154 21.1613 29.7504 25.457 25.4547C29.7527 29.7504 29.7527 36.7154 25.457 41.0111Z" fill="url(#paint9_linear_5188_6140)"/>
<path d="M25.457 9.89838C29.7527 14.1941 29.7527 21.159 25.457 25.4547C21.1613 21.159 21.1613 14.1941 25.457 9.89838Z" fill="url(#paint10_linear_5188_6140)"/>
<path d="M9.90151 25.4547C14.1972 29.7504 21.1622 29.7504 25.4579 25.4547C21.1622 21.159 14.1972 21.159 9.90151 25.4547Z" fill="url(#paint11_linear_5188_6140)"/>
<path d="M35.356 25.4552C32.6224 22.7216 28.1901 22.7216 25.4565 25.4552C28.1901 28.1888 32.6224 28.1888 35.356 25.4552Z" fill="url(#paint12_linear_5188_6140)"/>
<path d="M25.457 35.3547C22.7234 32.6211 22.7234 28.1888 25.457 25.4552C28.1906 28.1888 28.1906 32.6211 25.457 35.3547Z" fill="url(#paint13_linear_5188_6140)"/>
<path d="M25.457 15.5557C28.1906 18.2893 28.1906 22.7216 25.457 25.4552C22.7234 22.7216 22.7234 18.2893 25.457 15.5557Z" fill="url(#paint14_linear_5188_6140)"/>
<path d="M15.5581 25.4552C18.2917 28.1888 22.7239 28.1888 25.4576 25.4552C22.7239 22.7216 18.2917 22.7216 15.5581 25.4552Z" fill="url(#paint15_linear_5188_6140)"/>
<path d="M31.1136 25.4548C29.5515 23.8928 27.0188 23.8928 25.4567 25.4548C27.0188 27.0169 29.5515 27.0169 31.1136 25.4548Z" fill="url(#paint16_linear_5188_6140)"/>
<path d="M25.457 31.1117C23.895 29.5496 23.895 27.0169 25.457 25.4548C27.0191 27.0169 27.0191 29.5496 25.457 31.1117Z" fill="url(#paint17_linear_5188_6140)"/>
<path d="M25.457 19.798C27.0191 21.36 27.0191 23.8928 25.457 25.4548C23.895 23.8928 23.895 21.36 25.457 19.798Z" fill="url(#paint18_linear_5188_6140)"/>
<path d="M19.8005 25.4548C21.3625 27.0169 23.8953 27.0169 25.4573 25.4548C23.8953 23.8928 21.3625 23.8928 19.8005 25.4548Z" fill="url(#paint19_linear_5188_6140)"/>
<defs>
<linearGradient id="paint0_linear_5188_6140" x1="25.5401" y1="25.4561" x2="50.6975" y2="25.3226" gradientUnits="userSpaceOnUse">
<stop stop-color="#F7EBD5"/>
<stop offset="1" stop-color="#A50410"/>
</linearGradient>
<linearGradient id="paint1_linear_5188_6140" x1="25.2411" y1="50.7785" x2="25.2411" y2="25.3226" gradientUnits="userSpaceOnUse">
<stop stop-color="#A50410"/>
<stop offset="1" stop-color="#F7EBD5"/>
</linearGradient>
<linearGradient id="paint2_linear_5188_6140" x1="25.2411" y1="25.3226" x2="25.2411" y2="-0.133215" gradientUnits="userSpaceOnUse">
<stop stop-color="#F7EBD5"/>
<stop offset="1" stop-color="#A50410"/>
</linearGradient>
<linearGradient id="paint3_linear_5188_6140" x1="0.0830195" y1="25.4561" x2="25.2405" y2="25.3226" gradientUnits="userSpaceOnUse">
<stop stop-color="#A50410"/>
<stop offset="1" stop-color="#F7EBD5"/>
</linearGradient>
<linearGradient id="paint4_linear_5188_6140" x1="25.5265" y1="25.4547" x2="46.4911" y2="25.3435" gradientUnits="userSpaceOnUse">
<stop stop-color="#F7EBD5"/>
<stop offset="1" stop-color="#A50410"/>
</linearGradient>
<linearGradient id="paint5_linear_5188_6140" x1="25.2771" y1="46.5567" x2="25.2771" y2="25.3435" gradientUnits="userSpaceOnUse">
<stop stop-color="#A50410"/>
<stop offset="1" stop-color="#F7EBD5"/>
</linearGradient>
<linearGradient id="paint6_linear_5188_6140" x1="25.2771" y1="25.3435" x2="25.2771" y2="4.13027" gradientUnits="userSpaceOnUse">
<stop stop-color="#F7EBD5"/>
<stop offset="1" stop-color="#A50410"/>
</linearGradient>
<linearGradient id="paint7_linear_5188_6140" x1="4.3117" y1="25.4547" x2="25.2763" y2="25.3435" gradientUnits="userSpaceOnUse">
<stop stop-color="#A50410"/>
<stop offset="1" stop-color="#F7EBD5"/>
</linearGradient>
<linearGradient id="paint8_linear_5188_6140" x1="25.5066" y1="25.4547" x2="40.8806" y2="25.3731" gradientUnits="userSpaceOnUse">
<stop stop-color="#F7EBD5"/>
<stop offset="1" stop-color="#A50410"/>
</linearGradient>
<linearGradient id="paint9_linear_5188_6140" x1="25.3251" y1="40.9295" x2="25.3251" y2="25.3731" gradientUnits="userSpaceOnUse">
<stop stop-color="#A50410"/>
<stop offset="1" stop-color="#F7EBD5"/>
</linearGradient>
<linearGradient id="paint10_linear_5188_6140" x1="25.3251" y1="25.3731" x2="25.3251" y2="9.8168" gradientUnits="userSpaceOnUse">
<stop stop-color="#F7EBD5"/>
<stop offset="1" stop-color="#A50410"/>
</linearGradient>
<linearGradient id="paint11_linear_5188_6140" x1="9.95188" y1="25.4547" x2="25.3259" y2="25.3731" gradientUnits="userSpaceOnUse">
<stop stop-color="#A50410"/>
<stop offset="1" stop-color="#F7EBD5"/>
</linearGradient>
<linearGradient id="paint12_linear_5188_6140" x1="25.4886" y1="25.4552" x2="35.272" y2="25.4033" gradientUnits="userSpaceOnUse">
<stop stop-color="#F7EBD5"/>
<stop offset="1" stop-color="#A50410"/>
</linearGradient>
<linearGradient id="paint13_linear_5188_6140" x1="25.3731" y1="35.3028" x2="25.3731" y2="25.4033" gradientUnits="userSpaceOnUse">
<stop stop-color="#A50410"/>
<stop offset="1" stop-color="#F7EBD5"/>
</linearGradient>
<linearGradient id="paint14_linear_5188_6140" x1="25.3731" y1="25.4033" x2="25.3731" y2="15.5038" gradientUnits="userSpaceOnUse">
<stop stop-color="#F7EBD5"/>
<stop offset="1" stop-color="#A50410"/>
</linearGradient>
<linearGradient id="paint15_linear_5188_6140" x1="15.5901" y1="25.4552" x2="25.3736" y2="25.4033" gradientUnits="userSpaceOnUse">
<stop stop-color="#A50410"/>
<stop offset="1" stop-color="#F7EBD5"/>
</linearGradient>
<linearGradient id="paint16_linear_5188_6140" x1="25.475" y1="25.4548" x2="31.0656" y2="25.4252" gradientUnits="userSpaceOnUse">
<stop stop-color="#F7EBD5"/>
<stop offset="1" stop-color="#A50410"/>
</linearGradient>
<linearGradient id="paint17_linear_5188_6140" x1="25.409" y1="31.082" x2="25.409" y2="25.4251" gradientUnits="userSpaceOnUse">
<stop stop-color="#A50410"/>
<stop offset="1" stop-color="#F7EBD5"/>
</linearGradient>
<linearGradient id="paint18_linear_5188_6140" x1="25.409" y1="25.4252" x2="25.409" y2="19.7683" gradientUnits="userSpaceOnUse">
<stop stop-color="#F7EBD5"/>
<stop offset="1" stop-color="#A50410"/>
</linearGradient>
<linearGradient id="paint19_linear_5188_6140" x1="19.8188" y1="25.4548" x2="25.4094" y2="25.4252" gradientUnits="userSpaceOnUse">
<stop stop-color="#A50410"/>
<stop offset="1" stop-color="#F7EBD5"/>
</linearGradient>
</defs>
</svg>
