<svg width="40" height="36" viewBox="0 0 40 36" fill="none" xmlns="http://www.w3.org/2000/svg">
<path d="M38.7245 16.2918L20.9604 0.432509C20.6931 0.205007 20.3535 0.0800781 20.0024 0.0800781C19.6514 0.0800781 19.3118 0.205007 19.0444 0.432509L13.703 5.19746V3.59271C13.7016 3.33799 13.5995 3.09417 13.419 2.91446C13.2384 2.73476 12.9941 2.63377 12.7394 2.63354H10.9703C10.7152 2.63342 10.4704 2.73437 10.2896 2.91431C10.1087 3.09424 10.0065 3.3385 10.0053 3.59361V8.49789L1.2754 16.2931C0.749015 16.7635 0.896852 17.1488 1.60378 17.1488H3.2806C3.62052 17.1489 3.94658 17.2835 4.18756 17.5233C4.42855 17.763 4.56488 18.0884 4.56677 18.4283V34.6415C4.56878 34.9813 4.70518 35.3065 4.94616 35.5461C5.18715 35.7856 5.51315 35.9201 5.85294 35.9201H34.1483C34.488 35.9197 34.8138 35.785 35.0545 35.5453C35.2953 35.3055 35.4314 34.9803 35.4332 34.6406V18.4265C35.435 18.0866 35.5714 17.7612 35.8124 17.5215C36.0533 17.2817 36.3794 17.1471 36.7193 17.147H38.3961C39.1031 17.147 39.2509 16.7626 38.7245 16.2918ZM27.3255 27.8216C26.5166 29.0342 25.4145 30.0229 24.1215 30.6959C23.9651 30.7797 23.8047 30.8568 23.6434 30.9266C22.5256 31.4267 21.3146 31.6844 20.09 31.6829C15.2244 31.6829 11.4116 28.0061 11.4116 23.3093C11.4116 23.217 11.4132 23.1247 11.4165 23.0324C11.432 22.515 11.4955 22.0001 11.606 21.4944C12.0306 19.5606 13.1034 17.83 14.6464 16.5896C16.1895 15.3492 18.1102 14.6735 20.09 14.6745C20.9776 14.6735 21.8602 14.8073 22.7076 15.0714C23.8092 15.4153 24.8307 15.9764 25.7119 16.7216C26.5931 17.4668 27.316 18.3811 27.838 19.4103C27.9227 19.578 27.9726 19.7611 27.9845 19.9487C27.9965 20.1362 27.9702 20.3242 27.9074 20.5012C27.8446 20.6783 27.7465 20.8408 27.619 20.9789C27.4916 21.1169 27.3375 21.2277 27.166 21.3045L26.8188 21.4617L26.7449 21.4944L25.3279 22.1328L23.3348 23.0329L18.7653 25.0937L17.773 25.5417C17.5927 25.6238 17.3969 25.6664 17.1987 25.6667H17.1938C16.9261 25.6657 16.6644 25.5881 16.4394 25.4432C16.2144 25.2982 16.0357 25.0919 15.9242 24.8486C15.8481 24.6828 15.8058 24.5034 15.7999 24.321C15.794 24.1386 15.8245 23.9568 15.8897 23.7864C15.941 23.6494 16.0142 23.5217 16.1065 23.4083C16.2315 23.2491 16.3916 23.121 16.5742 23.0338C16.5885 23.0245 16.6034 23.0164 16.619 23.0096L17.5441 22.592L19.9776 21.4953L24.2393 19.5738L24.5179 19.4488C23.7898 18.6275 22.8477 18.0248 21.7968 17.7078C20.7459 17.3909 19.6277 17.3723 18.5668 17.6541C17.6229 17.9072 16.7565 18.3906 16.0453 19.061C15.3342 19.7314 14.8006 20.5679 14.4924 21.4953C14.3289 21.9928 14.234 22.5102 14.2102 23.0333C14.2052 23.1256 14.2034 23.2179 14.2034 23.3102C14.2034 23.4025 14.2034 23.4952 14.2102 23.5875C14.2578 24.5287 14.5465 25.4418 15.0486 26.2394C15.5507 27.0369 16.2492 27.692 17.0773 28.1419C17.9993 28.6477 19.0352 28.9098 20.0869 28.9035C21.0188 28.9053 21.9378 28.6856 22.7681 28.2626C23.5985 27.8396 24.3165 27.2253 24.8629 26.4704C24.9077 26.409 24.9525 26.3454 24.9932 26.2822C25.1999 25.975 25.5193 25.7617 25.8823 25.6887C26.2452 25.6156 26.6223 25.6887 26.9317 25.892C26.9681 25.9157 27.003 25.9414 27.0365 25.9691C27.206 26.1044 27.341 26.2781 27.4303 26.4758C27.5279 26.6905 27.5691 26.9266 27.5501 27.1618C27.5312 27.3969 27.4526 27.6234 27.3219 27.8198" fill="white"/>
</svg>
