<svg width="53" height="53" viewBox="0 0 53 53" fill="none" xmlns="http://www.w3.org/2000/svg">
<g filter="url(#filter0_dd_7256_883)">
<rect x="2.94678" y="1.89502" width="48" height="48" rx="24" fill="white"/>
<mask id="mask0_7256_883" style="mask-type:luminance" maskUnits="userSpaceOnUse" x="10" y="9" width="33" height="33">
<path d="M42.9468 9.89502H10.9468V41.895H42.9468V9.89502Z" fill="white"/>
</mask>
<g mask="url(#mask0_7256_883)">
<path d="M11.3843 34.4987V13.8162C11.3938 13.7333 11.423 13.6538 11.4694 13.5845C11.5159 13.5151 11.5783 13.4578 11.6515 13.4173C13.6456 12.2713 15.64 11.1262 17.6347 9.98198C17.7222 9.92363 17.8254 9.89315 17.9307 9.89458C18.036 9.896 18.1384 9.92926 18.2243 9.98995C20.1829 11.1134 22.1412 12.2374 24.0991 13.3619C24.3223 13.4899 24.4591 13.6072 24.4591 13.8804V26.7051C24.4591 26.7232 24.4669 26.7277 24.4827 26.7186L29.4775 23.8521C29.4809 23.8503 29.4837 23.8477 29.4857 23.8443C29.4876 23.841 29.4885 23.8372 29.4883 23.8334C29.4883 21.7418 29.4883 19.6506 29.4883 17.5598C29.4883 17.194 29.4739 16.9846 29.7859 16.8052C31.7136 15.6985 33.6413 14.5917 35.5691 13.4847C35.9215 13.2825 36.0407 13.227 36.3883 13.4265C38.3272 14.5395 40.2663 15.6522 42.2055 16.7645C42.3245 16.8109 42.4246 16.8953 42.4902 17.0046C42.5558 17.1139 42.5831 17.2419 42.5679 17.3683C42.5679 19.582 42.5679 21.7955 42.5679 24.0089C42.5852 24.1144 42.5715 24.2226 42.5285 24.3206C42.4854 24.4185 42.4149 24.5019 42.3255 24.5609C40.3964 25.6694 38.4667 26.7769 36.5363 27.8833C36.5344 27.8844 36.5328 27.886 36.5317 27.8878C36.5305 27.8898 36.5299 27.8919 36.5299 27.8941V34.3742C36.5465 34.4874 36.5261 34.6028 36.4717 34.7034C36.4173 34.804 36.3318 34.8844 36.2279 34.9326C32.2255 37.2298 28.2224 39.5268 24.2187 41.8236C23.9507 41.9776 23.7431 41.8547 23.4987 41.7147C19.6235 39.487 15.7479 37.2609 11.8719 35.0363C11.5863 34.8724 11.4243 34.8038 11.3843 34.4987ZM17.9259 10.9755L17.9223 10.9746L17.9187 10.9755L12.9043 13.8532L12.9014 13.8557L12.9003 13.8594L12.9014 13.8631L12.9043 13.8656L17.9175 16.7433L17.9211 16.7443L17.9247 16.7433L22.9395 13.8648L22.9421 13.8622L22.943 13.8586L22.9421 13.8551L22.9395 13.8525L17.9259 10.9755ZM36.0327 14.3805L36.0295 14.3797L36.0263 14.3805L31.0111 17.2587L31.0092 17.2603L31.0081 17.2625L31.0079 17.2651L31.0087 17.2674L31.0111 17.2698L36.0243 20.1483L36.0275 20.1492L36.0307 20.1483L41.0451 17.2698L41.047 17.2682L41.0481 17.2659L41.0483 17.2634L41.0475 17.2611L41.0451 17.2587L36.0327 14.3805ZM17.7411 31.5352C17.6347 31.4872 17.5461 31.407 17.488 31.306C17.4298 31.205 17.405 31.0882 17.4171 30.9724V17.6228C17.4172 17.6192 17.4163 17.6156 17.4144 17.6125C17.4126 17.6094 17.4099 17.6069 17.4067 17.6053L12.4027 14.7335C12.4004 14.7322 12.3977 14.7319 12.3951 14.7325C12.3926 14.7332 12.3904 14.7348 12.3891 14.7371C12.3887 14.7387 12.3887 14.7403 12.3891 14.7419V34.1661C12.389 34.1689 12.3896 34.1717 12.3911 34.1742C12.3925 34.1766 12.3946 34.1786 12.3971 34.18L23.4443 40.5218L23.4485 40.5231L23.4527 40.522L23.4557 40.5189L23.4567 40.5146V34.7683C23.4568 34.7655 23.4561 34.7627 23.4547 34.7603C23.4533 34.7579 23.4512 34.756 23.4487 34.7547L17.7411 31.5352ZM23.4555 14.7387C23.4555 14.7368 23.4547 14.735 23.4533 14.7336C23.4521 14.7323 23.4502 14.7315 23.4483 14.7315H23.4447L18.4299 17.6104L18.4272 17.6131L18.4263 17.6168V30.1807C18.4263 30.1826 18.427 30.1844 18.4284 30.1858C18.4297 30.1871 18.4316 30.1879 18.4335 30.1879H18.4371L23.4519 27.3102L23.4545 27.3074L23.4555 27.3038V14.7387ZM41.5595 18.1441C41.5595 18.1424 41.5588 18.1408 41.5576 18.1396C41.5564 18.1384 41.5548 18.1378 41.5531 18.1378H41.5499L36.5339 21.0166L36.5315 21.019L36.5307 21.0222V26.7202C36.5307 26.7219 36.5313 26.7236 36.5325 26.7248C36.5337 26.726 36.5354 26.7266 36.5371 26.7266H36.5403L41.5563 23.8485L41.5586 23.8462L41.5595 23.843V18.1441ZM30.4975 23.8398L30.4985 23.8438L30.5015 23.8469L35.5139 26.7238C35.5158 26.7249 35.5181 26.7251 35.5201 26.7245C35.5222 26.7239 35.524 26.7226 35.5251 26.7206V26.7166V21.023L35.5241 21.019L35.5211 21.0158L30.5099 18.139L30.5067 18.1378L30.5034 18.1381L30.5005 18.1396L30.4983 18.1422V18.1461L30.4975 23.8398ZM29.9983 24.7148L29.9945 24.7138L29.9907 24.7148L18.9507 31.0522L18.9485 31.0542L18.9471 31.0568L18.9469 31.0598L18.9479 31.0626L18.9507 31.0654L23.9547 33.8889L23.9585 33.8898L23.9623 33.8889L35.0067 27.6041L35.0089 27.6022L35.0102 27.5995L35.0105 27.5966L35.0095 27.5938L35.0067 27.591L29.9983 24.7148ZM35.5267 28.474C35.5267 28.4721 35.5259 28.4703 35.5245 28.469C35.5233 28.4676 35.5214 28.4668 35.5195 28.4668H35.5159L24.4643 34.7579L24.4616 34.7606L24.4607 34.7643V40.517L24.4616 40.5206L24.4642 40.5234L24.4678 40.5243L24.4715 40.5234L35.5247 34.1816L35.5273 34.1789L35.5283 34.1752L35.5267 28.474Z" fill="#E71D1F"/>
</g>
</g>
<defs>
<filter id="filter0_dd_7256_883" x="0.946777" y="0.89502" width="52" height="52" filterUnits="userSpaceOnUse" color-interpolation-filters="sRGB">
<feFlood flood-opacity="0" result="BackgroundImageFix"/>
<feColorMatrix in="SourceAlpha" type="matrix" values="0 0 0 0 0 0 0 0 0 0 0 0 0 0 0 0 0 0 127 0" result="hardAlpha"/>
<feMorphology radius="1" operator="erode" in="SourceAlpha" result="effect1_dropShadow_7256_883"/>
<feOffset dy="1"/>
<feGaussianBlur stdDeviation="1"/>
<feComposite in2="hardAlpha" operator="out"/>
<feColorMatrix type="matrix" values="0 0 0 0 0.0705882 0 0 0 0 0.101961 0 0 0 0 0.168627 0 0 0 0.06 0"/>
<feBlend mode="normal" in2="BackgroundImageFix" result="effect1_dropShadow_7256_883"/>
<feColorMatrix in="SourceAlpha" type="matrix" values="0 0 0 0 0 0 0 0 0 0 0 0 0 0 0 0 0 0 127 0" result="hardAlpha"/>
<feOffset dy="1"/>
<feGaussianBlur stdDeviation="1"/>
<feComposite in2="hardAlpha" operator="out"/>
<feColorMatrix type="matrix" values="0 0 0 0 0.0705882 0 0 0 0 0.101961 0 0 0 0 0.168627 0 0 0 0.1 0"/>
<feBlend mode="normal" in2="effect1_dropShadow_7256_883" result="effect2_dropShadow_7256_883"/>
<feBlend mode="normal" in="SourceGraphic" in2="effect2_dropShadow_7256_883" result="shape"/>
</filter>
</defs>
</svg>
