<svg width="30" height="34" viewBox="0 0 30 34" fill="none" xmlns="http://www.w3.org/2000/svg">
<g clip-path="url(#clip0_259_2952)">
<path d="M29.9 22.3002C29.9 23.4002 29.2 24.8002 28.2 25.4002L16.5 33.2002C15.6 33.8002 14.1 33.8002 13.2 33.2002L1.60002 25.4002C0.700024 24.8002 -0.0999756 23.4002 -0.0999756 22.3002V11.3002C-0.0999756 10.2002 0.600024 8.8002 1.60002 8.2002L13.3 0.400195C14.2 -0.199805 15.7 -0.199805 16.6 0.400195L28.3 8.2002C29.2 8.8002 30 10.2002 30 11.3002C29.9 11.3002 29.9 22.3002 29.9 22.3002Z" fill="#42BFBF"/>
<path d="M6.80002 25.9C6.50002 25.9 6.40002 25.7 6.40002 25.6L5.90002 22.8L3.00002 22.7C2.80002 22.7 2.70002 22.6 2.60002 22.4C2.50002 22.2 2.60002 22.1 2.70002 21.9L11.6 13.1C11.7 13 11.8 13 11.9 13C12 13 12.1 13 12.2 13.1L15.3 15.8C15.4 15.9 15.4 16 15.4 16.1C15.4 16.2 15.4 16.3 15.3 16.4L7.10002 25.8C7.00002 25.9 6.90002 25.9 6.80002 25.9Z" fill="white"/>
<path d="M11.8 13.5001L14.9 16.2001L6.70002 25.5001L6.10002 22.3001L2.80002 22.2001L11.8 13.5001ZM11.8 12.6001C11.6 12.6001 11.4 12.7001 11.2 12.8001L2.30002 21.6001C2.10002 21.8001 2.00002 22.2001 2.10002 22.5001C2.20002 22.8001 2.50002 23.0001 2.90002 23.0001L5.50002 23.1001L5.90002 25.6001C6.00002 25.9001 6.20002 26.2001 6.50002 26.3001H6.70002C6.90002 26.3001 7.20002 26.2001 7.30002 26.0001L15.5 16.7001C15.6 16.5001 15.7 16.3001 15.7 16.1001C15.7 15.9001 15.6 15.7001 15.4 15.5001L12.4 12.8001C12.2 12.7001 12 12.6001 11.8 12.6001Z" fill="#42BFBF"/>
<path d="M23.1 25.9001C23 25.9001 22.9 25.8001 22.8 25.8001L14.6 16.5001C14.5 16.4001 14.5 16.3001 14.5 16.2001C14.5 16.1001 14.6 16.0001 14.6 15.9001L17.7 13.2001C17.8 13.1001 17.9 13.1001 18 13.1001C18.1 13.1001 18.2 13.1001 18.3 13.2001L27.2 22.0001C27.3 22.1001 27.4 22.3001 27.3 22.5001C27.2 22.7001 27.1 22.8001 26.9 22.8001L24 22.7001L23.5 25.5001C23.5 25.7001 23.4 25.8001 23.2 25.8001C23.2 25.9001 23.1 25.9001 23.1 25.9001Z" fill="white"/>
<path d="M18 13.5001L26.9 22.3001L23.6 22.4001L23 25.6001L14.8 16.3001L18 13.5001ZM18 12.6001C17.8 12.6001 17.6 12.7001 17.4 12.8001L14.3 15.5001C14.1 15.6001 14 15.9001 14 16.1001C14 16.3001 14.1 16.6001 14.2 16.7001L22.4 26.0001C22.6 26.2001 22.8 26.3001 23 26.3001H23.2C23.5 26.2001 23.8 25.9001 23.8 25.6001L24.2 23.1001L26.8 23.0001C27.1 23.0001 27.5 22.8001 27.6 22.5001C27.7 22.2001 27.6 21.8001 27.4 21.6001L18.5 12.8001C18.5 12.7001 18.2 12.6001 18 12.6001Z" fill="#42BFBF"/>
<path d="M25.2 19.8001C25 19.8001 24.8 19.8001 24.6 19.7001L18.7999 17.5001C18.0999 17.2001 17.7 16.6001 17.7 15.9001V12.6001C17.7 11.8001 18.2 11.2001 18.9 11.0001L24.7 9.2001C24.9 9.1001 25 9.1001 25.2 9.1001C26.1 9.1001 26.9 9.9001 26.9 10.8001V18.1001C26.9 19.0001 26.2 19.8001 25.2 19.8001Z" fill="white"/>
<path d="M25.2001 9.4001C25.9001 9.4001 26.5 10.0001 26.5 10.7001V18.0001C26.5 18.7001 25.9001 19.3001 25.2001 19.3001C25.0001 19.3001 24.9001 19.3001 24.7001 19.2001L19 17.0001C18.5 16.8001 18.2001 16.3001 18.2001 15.8001V12.5001C18.2001 11.9001 18.6 11.4001 19.1 11.3001L24.9 9.5001C25 9.5001 25.1001 9.4001 25.2001 9.4001ZM25.2001 8.6001C25.0001 8.6001 24.8 8.6001 24.6 8.7001L18.8 10.5001C17.9 10.8001 17.3 11.6001 17.3 12.5001V15.8001C17.3 16.7001 17.9001 17.5001 18.7001 17.8001L24.5 20.0001C24.7 20.1001 25 20.1001 25.3 20.1001C26.5 20.1001 27.4 19.1001 27.4 18.0001V10.7001C27.4 9.5001 26.4001 8.6001 25.2001 8.6001Z" fill="#42BFBF"/>
<path d="M4.60002 19.3001C3.70002 19.3001 2.90002 18.5001 2.90002 17.6001V10.3001C2.90002 9.4001 3.70002 8.6001 4.60002 8.6001C4.80002 8.6001 5.00002 8.6001 5.20002 8.7001L11 10.8001C11.7 11.1001 12.1 11.7001 12.1 12.4001V15.8001C12.1 16.6001 11.6 17.2001 10.9 17.4001L5.10002 19.2001C5.00002 19.2001 4.80002 19.3001 4.60002 19.3001Z" fill="white"/>
<path d="M4.6 8.9001C4.8 8.9001 4.9 8.9001 5.1 9.0001L10.9 11.2001C11.4 11.4001 11.7 11.9001 11.7 12.4001V15.8001C11.7 16.4001 11.3 16.9001 10.8 17.0001L5 18.8001C4.9 18.8001 4.8 18.8001 4.6 18.8001C3.9 18.8001 3.3 18.2001 3.3 17.5001V10.2001C3.3 9.5001 4 8.9001 4.6 8.9001ZM4.6 8.1001C3.4 8.1001 2.5 9.1001 2.5 10.2001V17.5001C2.5 18.7001 3.5 19.6001 4.6 19.6001C4.8 19.6001 5 19.6001 5.2 19.5001L11 17.7001C11.9 17.4001 12.5 16.6001 12.5 15.7001V12.4001C12.5 11.5001 11.9 10.7001 11.1 10.4001L5.4 8.2001C5.2 8.1001 4.9 8.1001 4.6 8.1001Z" fill="#42BFBF"/>
<path d="M13.4 17.8C12.6 17.8 11.9 17.1 11.9 16.3V12C11.9 11.2 12.6 10.5 13.4 10.5H16.4C17.2 10.5 17.9 11.2 17.9 12V16.3C17.9 17.1 17.2 17.8 16.4 17.8H13.4Z" fill="white"/>
<path d="M16.4 10.9001C17 10.9001 17.5 11.4001 17.5 12.0001V16.3001C17.5 16.9001 17 17.4001 16.4 17.4001H13.4C12.8 17.4001 12.3 16.9001 12.3 16.3001V12.0001C12.3 11.4001 12.8 10.9001 13.4 10.9001H16.4ZM16.4 10.1001H13.4C12.3 10.1001 11.5 11.0001 11.5 12.0001V16.3001C11.5 17.4001 12.4 18.2001 13.4 18.2001H16.4C17.5 18.2001 18.3 17.3001 18.3 16.3001V12.0001C18.4 10.9001 17.5 10.1001 16.4 10.1001Z" fill="#42BFBF"/>
<path d="M14.9 1C15.3 1 15.7 1.1 16 1.3L27.7 9.1C28.3 9.5 28.9 10.6 28.9 11.4V22.4C28.9 23.2 28.3 24.3 27.7 24.7L16 32.4C15.7 32.6 15.3 32.7 14.9 32.7C14.5 32.7 14.1 32.6 13.8 32.4L2.10002 24.6C1.50002 24.2 0.900024 23.1 0.900024 22.3V11.3C0.900024 10.5 1.50002 9.4 2.10002 9L13.8 1.2C14.1 1.1 14.5 1 14.9 1ZM14.9 0C14.3 0 13.7 0.2 13.2 0.5L1.60002 8.2C0.700024 8.8 -0.0999756 10.2 -0.0999756 11.3V22.3C-0.0999756 23.4 0.600024 24.8 1.60002 25.4L13.3 33.2C13.8 33.5 14.4 33.7 15 33.7C15.6 33.7 16.2 33.5 16.7 33.2L28.4 25.4C29.3 24.8 30.1 23.4 30.1 22.3V11.3C30.1 10.2 29.4 8.8 28.4 8.2L16.6 0.4C16.1 0.1 15.5 0 14.9 0Z" fill="#42BFBF"/>
</g>
<defs>
<clipPath id="clip0_259_2952">
<rect width="30" height="33.7" fill="white"/>
</clipPath>
</defs>
</svg>
