<svg width="30" height="34" viewBox="0 0 30 34" fill="none" xmlns="http://www.w3.org/2000/svg">
<g clip-path="url(#clip0_259_2926)">
<path d="M30 22.4988C30 23.5988 29.251 24.9988 28.335 25.6098L16.665 33.3898C15.749 33.9998 14.251 33.9998 13.335 33.3898L1.665 25.6098C0.749 24.9988 0 23.5998 0 22.4988V11.5008C0 10.4008 0.749 9.00084 1.665 8.38984L13.335 0.609844C14.251 -0.000156254 15.749 -0.000156254 16.665 0.609844L28.335 8.38984C29.251 9.00084 30 10.3998 30 11.5008V22.4988Z" fill="#F95858"/>
<path d="M25.826 13.197C26.253 12.415 26.236 11.49 25.781 10.724C25.326 9.958 24.522 9.5 23.631 9.5H21.667L22 7H8.00002L8.33302 9.5H6.36902C5.47802 9.5 4.67402 9.958 4.21902 10.724C3.76402 11.49 3.74701 12.415 4.17401 13.197L7.75402 19.76C7.87702 19.986 7.78902 20.181 7.74502 20.255C7.70202 20.329 7.57202 20.5 7.31502 20.5H6.00002C5.72402 20.5 5.50002 20.724 5.50002 21C5.50002 21.276 5.72402 21.5 6.00002 21.5H7.31502C7.85002 21.5 8.33202 21.226 8.60501 20.766C8.87801 20.306 8.88802 19.751 8.63202 19.282L5.05202 12.719C4.79602 12.25 4.80602 11.695 5.07902 11.235C5.35202 10.775 5.83402 10.5 6.36902 10.5H8.46702L10 22H13.5V26H10V28H20V26H16.5V22H20L21.533 10.5H23.631C24.166 10.5 24.648 10.774 24.921 11.234C25.194 11.694 25.204 12.249 24.948 12.718L21.368 19.281C21.112 19.751 21.122 20.305 21.395 20.765C21.668 21.224 22.15 21.499 22.685 21.499H24C24.276 21.499 24.5 21.275 24.5 20.999C24.5 20.723 24.276 20.499 24 20.499H22.685C22.428 20.499 22.299 20.328 22.255 20.254C22.211 20.18 22.123 19.985 22.246 19.759L25.826 13.197Z" fill="white"/>
</g>
<defs>
<clipPath id="clip0_259_2926">
<rect width="30" height="34" fill="white"/>
</clipPath>
</defs>
</svg>
