<svg width="30" height="34" viewBox="0 0 30 34" fill="none" xmlns="http://www.w3.org/2000/svg">
<g clip-path="url(#clip0_259_2990)">
<path d="M30 22.4988C30 23.5988 29.251 24.9988 28.335 25.6098L16.665 33.3898C15.749 33.9998 14.251 33.9998 13.335 33.3898L1.665 25.6098C0.749 24.9988 0 23.5998 0 22.4988V11.5008C0 10.4008 0.749 9.00084 1.665 8.38984L13.335 0.609844C14.251 -0.000156254 15.749 -0.000156254 16.665 0.609844L28.335 8.38984C29.251 9.00084 30 10.3998 30 11.5008V22.4988Z" fill="#F38844"/>
<path d="M15.226 13.4381C15.885 13.3551 16.495 12.9571 16.793 12.3941C17.114 11.7881 17.061 11.0601 16.642 10.3431C15.791 8.8831 16.21 7.5991 16.228 7.5461C16.263 7.4441 16.236 7.3291 16.16 7.2561C16.083 7.1841 15.973 7.1671 15.88 7.2151C15.761 7.2761 13 8.7361 13 11.2341C13 12.3631 13.752 13.2961 14.72 13.4361L15.226 13.4381Z" fill="white"/>
<path d="M15 12V18" stroke="#F38844" stroke-miterlimit="10" stroke-linecap="round" stroke-linejoin="round"/>
<path d="M14.998 27.0472C12.689 27.0472 10.611 25.8762 10.611 23.4182C10.611 22.0002 11.568 20.9932 12.706 20.6302V20.5972C11.7 20.2182 10.924 19.3602 10.924 18.0742C10.924 15.9132 12.838 14.7422 14.998 14.7422C17.143 14.7422 19.072 15.8642 19.072 18.0242C19.072 19.3112 18.33 20.2342 17.291 20.5812V20.6302C18.462 20.9602 19.386 22.0322 19.386 23.4012C19.386 25.8592 17.308 27.0472 14.998 27.0472ZM14.998 21.7192C14.041 21.7192 13.365 22.3952 13.365 23.3022C13.365 24.2422 14.041 24.8532 14.998 24.8532C15.955 24.8532 16.615 24.2432 16.615 23.3022C16.615 22.4122 15.938 21.7192 14.998 21.7192ZM14.998 16.8862C14.173 16.8862 13.613 17.4632 13.613 18.2222C13.613 18.9642 14.141 19.6082 14.998 19.6082C15.807 19.6082 16.4 18.9642 16.4 18.2222C16.4 17.4632 15.773 16.8862 14.998 16.8862Z" fill="white"/>
</g>
<defs>
<clipPath id="clip0_259_2990">
<rect width="30" height="34" fill="white"/>
</clipPath>
</defs>
</svg>
