<svg width="30" height="34" viewBox="0 0 30 34" fill="none" xmlns="http://www.w3.org/2000/svg">
<g clip-path="url(#clip0_259_2981)">
<path d="M30 22.4988C30 23.5988 29.251 24.9988 28.335 25.6098L16.665 33.3898C15.749 33.9998 14.251 33.9998 13.335 33.3898L1.665 25.6098C0.749 24.9988 0 23.5998 0 22.4988V11.5008C0 10.4008 0.749 9.00084 1.665 8.38984L13.335 0.609844C14.251 -0.000156254 15.749 -0.000156254 16.665 0.609844L28.335 8.38984C29.251 9.00084 30 10.3998 30 11.5008V22.4988Z" fill="#D868C3"/>
<path d="M15 27L25 15L22 10H8L5 15L15 27Z" fill="white"/>
</g>
<defs>
<clipPath id="clip0_259_2981">
<rect width="30" height="34" fill="white"/>
</clipPath>
</defs>
</svg>
