<svg width="30" height="34" viewBox="0 0 30 34" fill="none" xmlns="http://www.w3.org/2000/svg">
<g clip-path="url(#clip0_259_3012)">
<path d="M0.00793457 11.5206V22.5327C0.00793457 22.6039 0.0197767 22.6805 0.0260925 22.7541H29.9803C29.9866 22.6805 29.9977 22.6039 29.9977 22.5327V11.5206C29.9977 11.4487 29.9866 11.372 29.9787 11.2969H0.0260925C0.0197767 11.372 0.00793457 11.4487 0.00793457 11.5206Z" fill="white"/>
<path d="M0.026001 22.7563C0.116001 23.8183 0.817054 25.0763 1.67205 25.6463L13.3381 33.4355C14.2539 34.0475 15.7515 34.0475 16.6673 33.4355L28.3334 25.6471C29.1876 25.0763 29.8894 23.8183 29.9786 22.7563H0.026001Z" fill="#2B8A3B"/>
<path d="M13.3381 0.616715L1.67205 8.40509C0.817054 8.97676 0.116001 10.2348 0.026001 11.2959H29.9786C29.8894 10.2348 29.1876 8.97676 28.3334 8.40588L16.6673 0.616715C15.7515 0.00471486 14.2539 0.00471486 13.3381 0.616715Z" fill="#F68B28"/>
<path d="M15.0023 12.2812C16.2586 12.2812 17.4635 12.7811 18.3518 13.6708C19.2401 14.5605 19.7392 15.7672 19.7392 17.0254C19.7392 18.2837 19.2401 19.4904 18.3518 20.3801C17.4635 21.2698 16.2586 21.7696 15.0023 21.7696C13.7461 21.7696 12.5412 21.2698 11.6529 20.3801C10.7646 19.4904 10.2655 18.2837 10.2655 17.0254C10.2655 15.7672 10.7646 14.5605 11.6529 13.6708C12.5412 12.7811 13.7461 12.2813 15.0023 12.2812Z" fill="#282D78"/>
<path d="M15.0024 12.874C15.5467 12.874 16.0857 12.9814 16.5885 13.19C17.0914 13.3986 17.5483 13.7044 17.9332 14.0899C18.318 14.4753 18.6233 14.933 18.8316 15.4366C19.0399 15.9402 19.1471 16.48 19.1471 17.0252C19.1471 17.5703 19.0399 18.1101 18.8316 18.6138C18.6233 19.1174 18.318 19.575 17.9332 19.9605C17.5483 20.346 17.0914 20.6517 16.5885 20.8604C16.0857 21.069 15.5467 21.1763 15.0024 21.1763C13.9032 21.1763 12.8489 20.739 12.0716 19.9605C11.2943 19.182 10.8577 18.1261 10.8577 17.0252C10.8577 15.9242 11.2943 14.8684 12.0716 14.0899C12.8489 13.3114 13.9032 12.874 15.0024 12.874Z" fill="white"/>
<path d="M15.0024 16.1953C15.2223 16.1953 15.4331 16.2828 15.5886 16.4385C15.744 16.5942 15.8314 16.8054 15.8314 17.0255C15.8314 17.2457 15.744 17.4569 15.5886 17.6126C15.4331 17.7683 15.2223 17.8558 15.0024 17.8558C14.7826 17.8558 14.5717 17.7683 14.4163 17.6126C14.2608 17.4569 14.1735 17.2457 14.1735 17.0255C14.1735 16.8054 14.2608 16.5942 14.4163 16.4385C14.5717 16.2828 14.7826 16.1953 15.0024 16.1953ZM19.1393 17.3616C19.2521 17.3766 19.3327 17.481 19.3169 17.5948C19.3133 17.6218 19.3044 17.6479 19.2907 17.6714C19.277 17.695 19.2589 17.7156 19.2372 17.7321C19.2156 17.7486 19.1909 17.7607 19.1646 17.7677C19.1383 17.7747 19.1109 17.7764 19.084 17.7728C19.057 17.7691 19.0311 17.7602 19.0075 17.7465C18.984 17.7328 18.9634 17.7146 18.9469 17.693C18.9304 17.6713 18.9184 17.6466 18.9114 17.6203C18.9044 17.5939 18.9027 17.5665 18.9064 17.5395C18.91 17.5125 18.9188 17.4865 18.9325 17.4629C18.9461 17.4393 18.9643 17.4187 18.9859 17.4021C19.0076 17.3856 19.0323 17.3735 19.0586 17.3666C19.0849 17.3596 19.1123 17.3579 19.1393 17.3616Z" fill="#282D78"/>
<path d="M15.0024 21.1762L15.1445 18.6855L15.0024 17.4995L14.8603 18.6855L15.0024 21.1762ZM18.9111 18.4222C18.9363 18.4326 18.9591 18.4479 18.9784 18.4672C18.9976 18.4865 19.0129 18.5094 19.0232 18.5346C19.0336 18.5598 19.0388 18.5868 19.0387 18.6141C19.0385 18.6414 19.033 18.6683 19.0224 18.6934C19.0121 18.7186 18.9969 18.7415 18.9778 18.7608C18.9586 18.7801 18.9358 18.7954 18.9107 18.8058C18.8856 18.8163 18.8587 18.8216 18.8316 18.8216C18.8044 18.8216 18.7775 18.8162 18.7524 18.8057C18.7272 18.7954 18.7042 18.7802 18.6849 18.7609C18.6656 18.7417 18.6503 18.7187 18.64 18.6935C18.6296 18.6682 18.6244 18.6412 18.6246 18.6139C18.6248 18.5866 18.6304 18.5596 18.6411 18.5345C18.6514 18.5093 18.6666 18.4864 18.6857 18.4671C18.7049 18.4478 18.7277 18.4325 18.7528 18.4221C18.7779 18.4117 18.8048 18.4063 18.8319 18.4063C18.8591 18.4063 18.886 18.4118 18.9111 18.4222ZM13.9303 21.0355L14.7111 18.6666L14.88 17.4837L14.4364 18.593L13.9303 21.0355ZM18.4177 19.3877C18.4392 19.4042 18.4573 19.4249 18.4709 19.4484C18.4845 19.472 18.4933 19.498 18.4969 19.525C18.5005 19.552 18.4987 19.5794 18.4916 19.6057C18.4846 19.632 18.4725 19.6567 18.456 19.6782C18.4394 19.6998 18.4188 19.718 18.3953 19.7316C18.3717 19.7452 18.3458 19.754 18.3188 19.7576C18.2919 19.7612 18.2645 19.7594 18.2383 19.7523C18.212 19.7453 18.1874 19.7332 18.1658 19.7166C18.1223 19.6831 18.0938 19.6337 18.0866 19.5792C18.0794 19.5248 18.0941 19.4696 18.1275 19.426C18.1609 19.3824 18.2103 19.3539 18.2647 19.3467C18.3191 19.3395 18.3741 19.3542 18.4177 19.3877ZM12.93 20.6212L14.2974 18.5345L14.7656 17.4362L14.0511 18.393L12.93 20.6212ZM17.6898 20.1926C17.7064 20.2142 17.7185 20.2389 17.7256 20.2652C17.7327 20.2915 17.7345 20.3189 17.731 20.3459C17.7275 20.373 17.7187 20.399 17.7051 20.4226C17.6915 20.4463 17.6734 20.467 17.6519 20.4836C17.6303 20.5002 17.6057 20.5124 17.5794 20.5195C17.5532 20.5266 17.5257 20.5284 17.4988 20.5249C17.4718 20.5213 17.4458 20.5125 17.4222 20.4989C17.3986 20.4853 17.3779 20.4672 17.3614 20.4456C17.3278 20.402 17.313 20.3468 17.3201 20.2923C17.3272 20.2377 17.3557 20.1882 17.3992 20.1546C17.4428 20.1211 17.4979 20.1062 17.5524 20.1134C17.6068 20.1205 17.6563 20.149 17.6898 20.1926ZM12.0711 19.9609L13.9311 18.3005L14.6677 17.3611L13.7298 18.0988L12.0711 19.9609ZM16.7803 20.7809C16.8013 20.8317 16.8014 20.8889 16.7803 20.9397C16.7593 20.9906 16.719 21.031 16.6682 21.0521C16.6174 21.0732 16.5604 21.0732 16.5096 21.0521C16.4588 21.0311 16.4184 20.9907 16.3974 20.9398C16.387 20.9146 16.3816 20.8876 16.3816 20.8604C16.3816 20.8331 16.387 20.8061 16.3974 20.7809C16.4078 20.7558 16.423 20.7329 16.4423 20.7136C16.4615 20.6943 16.4844 20.679 16.5095 20.6686C16.5347 20.6582 16.5616 20.6528 16.5888 20.6528C16.616 20.6528 16.643 20.6581 16.6681 20.6686C16.6933 20.679 16.7161 20.6943 16.7354 20.7135C16.7546 20.7328 16.7699 20.7557 16.7803 20.7809ZM11.4127 19.1006L13.6382 17.9794L14.5927 17.2623L13.4953 17.7327L11.4127 19.1006ZM15.7492 21.1138C15.7545 21.1544 15.7476 21.1956 15.7295 21.2324C15.7114 21.2691 15.6828 21.2996 15.6473 21.32C15.6119 21.3404 15.5712 21.3499 15.5304 21.3472C15.4896 21.3444 15.4505 21.3297 15.4181 21.3047C15.3856 21.2797 15.3613 21.2457 15.3482 21.2069C15.3351 21.1681 15.3338 21.1263 15.3444 21.0867C15.355 21.0472 15.377 21.0117 15.4078 20.9847C15.4385 20.9577 15.4766 20.9404 15.5171 20.9351C15.5441 20.9315 15.5715 20.9333 15.5978 20.9404C15.624 20.9474 15.6486 20.9596 15.6702 20.9762C15.6917 20.9928 15.7098 21.0135 15.7234 21.0371C15.737 21.0607 15.7457 21.0868 15.7492 21.1138ZM10.9998 18.1004L13.4385 17.592L14.5453 17.1476L13.3642 17.3176L10.9998 18.1004ZM14.6669 21.1675C14.6599 21.222 14.6315 21.2716 14.5881 21.3051C14.5446 21.3387 14.4896 21.3536 14.4352 21.3466C14.3807 21.3396 14.3313 21.3112 14.2978 21.2677C14.2642 21.2242 14.2493 21.1691 14.2564 21.1145C14.2634 21.06 14.2917 21.0105 14.3352 20.9769C14.3786 20.9434 14.4336 20.9284 14.4881 20.9355C14.5425 20.9425 14.5919 20.9709 14.6255 21.0144C14.659 21.0579 14.6739 21.113 14.6669 21.1675ZM10.8577 17.0251L13.3445 17.1674L14.5287 17.0251L13.3445 16.8827L10.8577 17.0251ZM13.6082 20.9398C13.5987 20.9663 13.5838 20.9906 13.5647 21.0111C13.5455 21.0317 13.5223 21.0482 13.4966 21.0595C13.4709 21.0709 13.4431 21.0769 13.415 21.0772C13.3869 21.0775 13.359 21.072 13.3331 21.0612C13.3071 21.0504 13.2836 21.0344 13.264 21.0142C13.2444 20.994 13.2291 20.97 13.219 20.9438C13.209 20.9175 13.2043 20.8894 13.2054 20.8613C13.2065 20.8331 13.2132 20.8055 13.2253 20.7801C13.2482 20.7318 13.2887 20.6942 13.3385 20.6751C13.3883 20.6559 13.4435 20.6567 13.4927 20.6773C13.5419 20.6978 13.5814 20.7365 13.6029 20.7854C13.6244 20.8343 13.6263 20.8896 13.6082 20.9398ZM10.9998 15.9505L13.3642 16.7333L14.5453 16.9025L13.4385 16.4581L10.999 15.9505M12.6442 20.4456C12.6284 20.4693 12.608 20.4895 12.5841 20.5049C12.5602 20.5203 12.5334 20.5306 12.5053 20.5353C12.4773 20.5399 12.4486 20.5387 12.421 20.5317C12.3934 20.5248 12.3676 20.5122 12.345 20.4949C12.3225 20.4775 12.3038 20.4557 12.29 20.4308C12.2762 20.4059 12.2677 20.3784 12.265 20.3501C12.2622 20.3217 12.2653 20.2931 12.2741 20.2661C12.2828 20.239 12.297 20.214 12.3158 20.1926C12.3506 20.153 12.3992 20.1281 12.4516 20.1231C12.5041 20.118 12.5565 20.1331 12.5982 20.1652C12.64 20.1974 12.668 20.2443 12.6765 20.2963C12.6851 20.3484 12.6735 20.4018 12.6442 20.4456ZM11.4127 14.9495L13.4961 16.3182L14.5927 16.7879L13.6374 16.0715L11.4127 14.9495ZM11.8406 19.7166C11.819 19.7333 11.7944 19.7455 11.7681 19.7526C11.7418 19.7597 11.7144 19.7615 11.6874 19.758C11.6604 19.7545 11.6344 19.7457 11.6108 19.732C11.5873 19.7184 11.5666 19.7003 11.55 19.6786C11.5334 19.657 11.5213 19.6324 11.5142 19.6061C11.5071 19.5798 11.5053 19.5523 11.5088 19.5253C11.5123 19.4983 11.5211 19.4722 11.5347 19.4486C11.5483 19.425 11.5664 19.4043 11.5879 19.3877C11.6095 19.3711 11.6341 19.3589 11.6604 19.3518C11.6867 19.3447 11.7141 19.3429 11.741 19.3464C11.768 19.3499 11.794 19.3587 11.8176 19.3723C11.8412 19.3859 11.8619 19.404 11.8785 19.4256C11.8951 19.4472 11.9073 19.4719 11.9144 19.4982C11.9215 19.5245 11.9233 19.552 11.9198 19.579C11.9163 19.606 11.9075 19.6321 11.8939 19.6557C11.8803 19.6793 11.8622 19.7 11.8406 19.7166ZM12.0711 14.09L13.7298 15.9521L14.6677 16.6898L13.9311 15.7505L12.0711 14.09ZM11.2524 18.8057C11.227 18.8175 11.1995 18.8239 11.1715 18.8247C11.1435 18.8255 11.1156 18.8207 11.0896 18.8104C11.0635 18.8002 11.0398 18.7848 11.0198 18.7651C10.9999 18.7454 10.9841 18.7219 10.9735 18.696C10.9628 18.6701 10.9575 18.6423 10.9578 18.6142C10.9582 18.5862 10.9642 18.5585 10.9755 18.5329C10.9868 18.5072 11.0032 18.4841 11.0236 18.465C11.0441 18.4458 11.0682 18.431 11.0945 18.4214C11.1449 18.4031 11.2003 18.405 11.2493 18.4266C11.2983 18.4483 11.3371 18.4881 11.3575 18.5377C11.3779 18.5873 11.3783 18.6429 11.3587 18.6929C11.3391 18.7428 11.3011 18.7832 11.2524 18.8057ZM12.93 13.4305L14.0511 15.6587L14.7656 16.6147L14.2974 15.5164L12.93 13.4305ZM10.9208 17.7731C10.8684 17.7764 10.8167 17.7597 10.776 17.7263C10.7354 17.693 10.7089 17.6454 10.7019 17.5933C10.6949 17.5411 10.7079 17.4883 10.7383 17.4453C10.7686 17.4024 10.8141 17.3726 10.8656 17.3619C10.918 17.3586 10.9697 17.3753 11.0103 17.4086C11.051 17.442 11.0774 17.4896 11.0845 17.5417C11.0915 17.5938 11.0785 17.6467 11.0481 17.6896C11.0177 17.7326 10.9723 17.7624 10.9208 17.7731ZM13.9303 13.0146L14.4356 15.4579L14.88 16.5672L14.7111 15.3844L13.9295 13.0154M10.8664 16.6898C10.8158 16.6781 10.7714 16.6479 10.7419 16.6052C10.7124 16.5624 10.6998 16.5102 10.7068 16.4586C10.7137 16.4071 10.7395 16.36 10.7793 16.3266C10.819 16.2932 10.8698 16.2758 10.9216 16.2779C10.9731 16.2885 11.0185 16.3183 11.0489 16.3613C11.0793 16.4042 11.0923 16.4571 11.0852 16.5092C11.0782 16.5614 11.0518 16.6089 11.0111 16.6423C10.9705 16.6756 10.9188 16.6923 10.8664 16.689M15.0024 12.8739L14.8603 15.3646L15.0024 16.5506L15.1445 15.3646L15.0024 12.8739ZM11.0945 15.6287C11.0437 15.6077 11.0034 15.5674 10.9823 15.5166C10.9612 15.4658 10.9611 15.4087 10.982 15.3579C11.0029 15.307 11.0432 15.2666 11.0939 15.2455C11.1446 15.2243 11.2016 15.2242 11.2524 15.2452C11.2775 15.2556 11.3004 15.2708 11.3197 15.2901C11.3389 15.3093 11.3542 15.3321 11.3647 15.3573C11.3751 15.3824 11.3805 15.4094 11.3805 15.4366C11.3806 15.4639 11.3753 15.4908 11.3649 15.516C11.3545 15.5412 11.3393 15.5641 11.3201 15.5834C11.3009 15.6027 11.2781 15.618 11.253 15.6284C11.2279 15.6389 11.201 15.6443 11.1738 15.6444C11.1466 15.6444 11.1197 15.6391 11.0945 15.6287ZM16.0761 13.0146L15.2945 15.3844L15.1256 16.5672L15.5692 15.4587L16.0761 13.0146ZM11.5879 14.6625C11.5664 14.6458 11.5484 14.6251 11.5349 14.6016C11.5213 14.578 11.5126 14.5519 11.5091 14.5249C11.5056 14.498 11.5075 14.4706 11.5146 14.4443C11.5217 14.418 11.5338 14.3934 11.5504 14.3719C11.567 14.3503 11.5877 14.3323 11.6112 14.3187C11.6348 14.3052 11.6608 14.2964 11.6877 14.2929C11.7147 14.2894 11.742 14.2913 11.7683 14.2984C11.7945 14.3055 11.819 14.3177 11.8406 14.3343C11.8621 14.3509 11.8801 14.3716 11.8936 14.3952C11.9072 14.4188 11.9159 14.4448 11.9194 14.4718C11.9229 14.4988 11.921 14.5262 11.9139 14.5525C11.9068 14.5787 11.8946 14.6034 11.8781 14.6249C11.8615 14.6464 11.8408 14.6645 11.8173 14.6781C11.7937 14.6916 11.7677 14.7004 11.7408 14.7039C11.7138 14.7073 11.6865 14.7055 11.6602 14.6984C11.634 14.6913 11.6094 14.6791 11.5879 14.6625ZM17.0748 13.4305L15.709 15.5164L15.2392 16.6147L15.9545 15.6579L17.0748 13.4305ZM12.3158 13.8583C12.298 13.8368 12.2847 13.8119 12.2767 13.7851C12.2688 13.7583 12.2663 13.7301 12.2694 13.7024C12.2725 13.6746 12.2812 13.6477 12.2949 13.6234C12.3087 13.599 12.3271 13.5777 12.3493 13.5607C12.3714 13.5436 12.3968 13.5313 12.4238 13.5243C12.4509 13.5173 12.479 13.5158 12.5066 13.52C12.5343 13.5242 12.5607 13.5339 12.5845 13.5485C12.6083 13.5632 12.6289 13.5825 12.645 13.6053C12.6785 13.6491 12.6933 13.7045 12.686 13.7592C12.6788 13.8139 12.6501 13.8635 12.6064 13.8971C12.5626 13.9306 12.5073 13.9454 12.4527 13.9381C12.398 13.9309 12.3493 13.9021 12.3158 13.8583ZM17.9337 14.09L16.0753 15.7505L15.3379 16.6898L16.275 15.9521L17.9337 14.09ZM13.2253 13.27C13.2043 13.2192 13.2042 13.162 13.2253 13.1112C13.2463 13.0603 13.2866 13.0199 13.3374 12.9988C13.3882 12.9778 13.4452 12.9777 13.496 12.9988C13.5468 13.0199 13.5872 13.0603 13.6082 13.1111C13.6291 13.162 13.629 13.2191 13.6079 13.2699C13.5868 13.3206 13.5465 13.361 13.4957 13.3819C13.4449 13.4029 13.3879 13.4028 13.3372 13.3817C13.2865 13.3605 13.2462 13.3209 13.2253 13.27ZM18.5921 14.9495L16.3682 16.0715L15.4129 16.7879L16.5103 16.3182L18.5921 14.9495ZM14.2564 12.9364C14.2528 12.9094 14.2546 12.8819 14.2617 12.8556C14.2688 12.8294 14.2809 12.8047 14.2975 12.7831C14.3141 12.7615 14.3347 12.7434 14.3583 12.7298C14.3818 12.7162 14.4078 12.7074 14.4348 12.7039C14.4617 12.7004 14.4891 12.7022 14.5154 12.7093C14.5416 12.7163 14.5662 12.7285 14.5878 12.7451C14.6093 12.7617 14.6274 12.7824 14.641 12.806C14.6546 12.8296 14.6634 12.8556 14.6669 12.8826C14.674 12.9371 14.6592 12.9922 14.6257 13.0358C14.5923 13.0794 14.5429 13.1079 14.4885 13.1151C14.434 13.1222 14.379 13.1074 14.3355 13.0739C14.2919 13.0403 14.2635 12.9909 14.2564 12.9364ZM19.0066 15.9505L16.5671 16.4581L15.4603 16.9025L16.6414 16.7333L19.0066 15.9505ZM15.3379 12.8826C15.3415 12.8556 15.3503 12.8296 15.3638 12.806C15.3774 12.7824 15.3955 12.7617 15.417 12.7451C15.4386 12.7285 15.4632 12.7163 15.4894 12.7093C15.5157 12.7022 15.5431 12.7004 15.57 12.7039C15.597 12.7074 15.623 12.7162 15.6465 12.7298C15.6701 12.7434 15.6907 12.7615 15.7073 12.7831C15.7239 12.8047 15.736 12.8294 15.7431 12.8556C15.7502 12.8819 15.752 12.9094 15.7485 12.9364C15.7449 12.9634 15.7361 12.9894 15.7226 13.013C15.709 13.0366 15.6909 13.0573 15.6694 13.0739C15.6478 13.0905 15.6232 13.1026 15.5969 13.1097C15.5707 13.1168 15.5433 13.1186 15.5164 13.1151C15.4894 13.1115 15.4634 13.1027 15.4398 13.0891C15.4163 13.0755 15.3956 13.0574 15.3791 13.0358C15.3625 13.0143 15.3503 12.9896 15.3433 12.9633C15.3362 12.937 15.3344 12.9096 15.3379 12.8826ZM19.1471 17.0251L16.6603 16.8827L15.4761 17.0251L16.6603 17.1674L19.1471 17.0251ZM16.3974 13.1103C16.4079 13.0852 16.4232 13.0624 16.4425 13.0432C16.4617 13.024 16.4846 13.0088 16.5097 12.9984C16.5349 12.9881 16.5618 12.9828 16.589 12.9828C16.6162 12.9829 16.6431 12.9883 16.6682 12.9988C16.6933 13.0093 16.7161 13.0247 16.7352 13.044C16.7544 13.0633 16.7696 13.0862 16.7799 13.1113C16.7903 13.1365 16.7956 13.1635 16.7955 13.1907C16.7954 13.218 16.79 13.2449 16.7795 13.27C16.7569 13.3184 16.7164 13.3562 16.6667 13.3754C16.6169 13.3947 16.5616 13.3939 16.5124 13.3733C16.4632 13.3527 16.4238 13.3138 16.4025 13.2648C16.3812 13.2158 16.3789 13.1604 16.3974 13.1103ZM19.0066 18.1004L16.6414 17.3176L15.4603 17.1476L16.5671 17.592L19.0066 18.1004ZM17.3614 13.6053C17.3779 13.5837 17.3986 13.5656 17.4222 13.552C17.4458 13.5384 17.4718 13.5296 17.4988 13.5261C17.5257 13.5225 17.5532 13.5244 17.5794 13.5314C17.6057 13.5385 17.6303 13.5507 17.6519 13.5673C17.6734 13.584 17.6915 13.6047 17.7051 13.6283C17.7187 13.6519 17.7275 13.6779 17.731 13.705C17.7345 13.732 17.7327 13.7594 17.7256 13.7857C17.7185 13.8121 17.7064 13.8367 17.6898 13.8583C17.6733 13.8799 17.6527 13.8981 17.6292 13.9117C17.6057 13.9253 17.5797 13.9341 17.5528 13.9376C17.5259 13.9412 17.4985 13.9393 17.4723 13.9322C17.4461 13.9251 17.4215 13.9129 17.4 13.8963C17.3783 13.8798 17.36 13.8592 17.3463 13.8356C17.3326 13.812 17.3236 13.7859 17.32 13.7589C17.3164 13.7318 17.3182 13.7043 17.3253 13.6779C17.3324 13.6516 17.3447 13.6269 17.3614 13.6053ZM18.5921 19.1006L16.5095 17.7327L15.4121 17.2623L16.3674 17.9794L18.5921 19.1006ZM18.165 14.3343C18.1865 14.3176 18.2111 14.3053 18.2374 14.2981C18.2637 14.2909 18.2911 14.2889 18.3181 14.2924C18.3451 14.2958 18.3712 14.3045 18.3948 14.318C18.4185 14.3315 18.4393 14.3495 18.456 14.3711C18.4726 14.3926 18.4849 14.4173 18.4921 14.4436C18.4993 14.4699 18.5013 14.4973 18.4979 14.5244C18.4944 14.5514 18.4857 14.5776 18.4723 14.6013C18.4588 14.6249 18.4408 14.6457 18.4192 14.6625C18.3758 14.6962 18.3207 14.7113 18.2662 14.7044C18.2116 14.6975 18.162 14.6692 18.1283 14.6257C18.0946 14.5822 18.0795 14.527 18.0864 14.4724C18.0933 14.4177 18.1216 14.3681 18.165 14.3343ZM17.9337 19.9609L16.2758 18.0988L15.3379 17.3611L16.0753 18.3005L17.9337 19.9609ZM18.7524 15.2444C18.7775 15.234 18.8045 15.2286 18.8317 15.2286C18.8589 15.2287 18.8858 15.2341 18.9109 15.2446C18.936 15.2551 18.9588 15.2705 18.9779 15.2899C18.9971 15.3092 19.0122 15.3322 19.0224 15.3575C19.0331 15.3826 19.0387 15.4096 19.0389 15.4369C19.0391 15.4642 19.0339 15.4912 19.0235 15.5165C19.0132 15.5417 18.9979 15.5646 18.9786 15.5839C18.9593 15.6032 18.9363 15.6184 18.9111 15.6287C18.886 15.6392 18.8591 15.6446 18.8319 15.6446C18.8048 15.6446 18.7779 15.6392 18.7528 15.6288C18.7277 15.6184 18.7049 15.6031 18.6857 15.5838C18.6666 15.5645 18.6514 15.5416 18.6411 15.5164C18.6305 15.4913 18.625 15.4643 18.6248 15.4371C18.6247 15.4098 18.6299 15.3828 18.6403 15.3576C18.6506 15.3323 18.6659 15.3094 18.6851 15.2901C18.7044 15.2709 18.7272 15.2548 18.7524 15.2444ZM17.0748 20.6212L15.9553 18.3914L15.24 17.4354L15.709 18.5345L17.0756 20.6196M19.0848 16.2771C19.1118 16.2735 19.1392 16.2753 19.1656 16.2825C19.1919 16.2896 19.2165 16.3018 19.2381 16.3185C19.2596 16.3352 19.2777 16.356 19.2912 16.3796C19.3048 16.4033 19.3135 16.4295 19.3169 16.4566C19.3205 16.4835 19.3187 16.511 19.3117 16.5373C19.3047 16.5636 19.2925 16.5883 19.276 16.6099C19.2595 16.6315 19.2389 16.6497 19.2153 16.6633C19.1918 16.677 19.1658 16.6858 19.1389 16.6894C19.1119 16.693 19.0845 16.6912 19.0582 16.6842C19.032 16.6772 19.0073 16.665 18.9857 16.6485C18.9641 16.6319 18.946 16.6113 18.9324 16.5877C18.9188 16.5641 18.9099 16.5381 18.9064 16.5111C18.9026 16.484 18.9042 16.4564 18.9112 16.4299C18.9181 16.4034 18.9302 16.3786 18.9468 16.3568C18.9634 16.335 18.9841 16.3168 19.0078 16.3031C19.0315 16.2894 19.0577 16.2806 19.0848 16.2771ZM16.0761 21.0355L15.5692 18.5922L15.1256 17.4837L15.2945 18.6666L16.0761 21.0355Z" fill="#282D78"/>
</g>
<defs>
<clipPath id="clip0_259_3012">
<rect width="30" height="34" fill="white"/>
</clipPath>
</defs>
</svg>
