<svg width="30" height="34" viewBox="0 0 30 34" fill="none" xmlns="http://www.w3.org/2000/svg">
<g clip-path="url(#clip0_259_2973)">
<path d="M30 22.4999C30 23.5999 29.3 24.9999 28.3 25.5999L16.6 33.3999C15.7 33.9999 14.2 33.9999 13.3 33.3999L1.7 25.5999C0.7 24.9999 0 23.5999 0 22.4999V11.4999C0 10.3999 0.7 8.9999 1.7 8.3999L13.4 0.599902C14.3 -9.76622e-05 15.8 -9.76622e-05 16.7 0.599902L28.4 8.3999C29.3 8.9999 30.1 10.3999 30.1 11.4999V22.4999H30Z" fill="#72BF40"/>
<path d="M10.8 17.2L10.7 17.5L10.5 17.2L9.29995 15.7C9.09995 15.5 8.79995 15.3 8.49995 15.3C8.19995 15.3 7.89995 15.4 7.69995 15.7L6.19995 17.7L6.09995 17.8H3.49995C2.99995 17.8 2.69995 18.1 2.69995 18.6C2.69995 19.1 2.99995 19.4 3.49995 19.4H6.59995C6.89995 19.4 7.19995 19.3 7.39995 19L8.29995 17.7L8.49995 17.5L8.69995 17.7L9.89995 19.3L10.1 19.5C10.3 19.7 10.6 19.9 10.9 19.9H11C11.3 19.9 11.6 19.7 11.8 19.4L13.6 15.6L13.8 15.1L14 15.6L15.8 21.3C15.9 21.6 16.2 21.9 16.6 21.9H16.7C17 21.9 17.3 21.7 17.5 21.5L19.7 18L19.9 17.7L20.1 18L20.7999 19C21 19.2 21.3 19.4 21.6 19.4H26.7999C27.2999 19.4 27.6 19.1 27.6 18.6C27.6 18.1 27.2999 17.8 26.7999 17.8H22.1L22 17.7L21.1 16.4L20.7 15.8C20.5 15.6 20.1999 15.4 19.9 15.4C19.5 15.4 19.2 15.6 19.1 15.8L17 18.8L16.8 19.2L16.7 18.8L14.8 12.6C14.7 12.3 14.4 12 14 12H13.9C13.5 12 13.2 12.2 13.1 12.5L10.8 17.2Z" fill="white"/>
<path d="M15 1.2002C15.4 1.2002 15.8 1.3002 16.1 1.5002L27.8 9.3002C28.4 9.7002 29 10.8002 29 11.6002V22.6002C29 23.4002 28.4 24.5002 27.8 24.9002L16.1 32.7002C15.8 32.9002 15.4 33.0002 15 33.0002C14.6 33.0002 14.2 32.9002 13.9 32.7002L2.2 24.8002C1.6 24.4002 1 23.3002 1 22.5002V11.5002C1 10.7002 1.6 9.60019 2.2 9.2002L13.9 1.4002C14.2 1.3002 14.6 1.2002 15 1.2002ZM15 0.200195C14.4 0.200195 13.8 0.400195 13.3 0.700195L1.7 8.4002C0.7 9.0002 0 10.4002 0 11.5002V22.5002C0 23.6002 0.7 25.0002 1.7 25.6002L13.4 33.4002C13.9 33.7002 14.5 33.9002 15.1 33.9002C15.7 33.9002 16.3 33.7002 16.8 33.4002L28.5 25.6002C29.4 25.0002 30.2 23.6002 30.2 22.5002V11.5002C30.2 10.4002 29.5 9.0002 28.5 8.4002L16.7 0.600195C16.2 0.300195 15.6 0.200195 15 0.200195Z" fill="#72BF40"/>
</g>
<defs>
<clipPath id="clip0_259_2973">
<rect width="30" height="34" fill="white"/>
</clipPath>
</defs>
</svg>
