<svg width="31" height="34" viewBox="0 0 31 34" fill="none" xmlns="http://www.w3.org/2000/svg">
<g clip-path="url(#clip0_259_2977)">
<path d="M28.3 25.5999L16.6 33.3999C15.7 33.9999 14.2 33.9999 13.3 33.3999L1.7 25.5999C0.7 24.9999 0 23.5999 0 22.4999V11.4999C0 10.3999 0.7 8.9999 1.7 8.3999L13.4 0.599902C14.3 -9.76622e-05 15.8 -9.76622e-05 16.7 0.599902L28.4 8.3999C29.3 8.9999 30.1 10.3999 30.1 11.4999V22.4999C30.1 23.5999 29.3 24.9999 28.3 25.5999Z" fill="#56A4CA"/>
<path d="M16.5 15.1H20L10 27L13.5 18.9H10L20 7L16.5 15.1Z" fill="white"/>
</g>
<defs>
<clipPath id="clip0_259_2977">
<rect width="31" height="34" fill="white"/>
</clipPath>
</defs>
</svg>
