<svg width="30" height="34" viewBox="0 0 30 34" fill="none" xmlns="http://www.w3.org/2000/svg">
<g clip-path="url(#clip0_259_2966)">
<path d="M30 22.4988C30 23.5988 29.251 24.9988 28.335 25.6098L16.665 33.3898C15.749 33.9998 14.251 33.9998 13.335 33.3898L1.665 25.6098C0.749 24.9988 0 23.5998 0 22.4988V11.5008C0 10.4008 0.749 9.00084 1.665 8.38984L13.335 0.609844C14.251 -0.000156254 15.749 -0.000156254 16.665 0.609844L28.335 8.38984C29.251 9.00084 30 10.3998 30 11.5008V22.4988Z" fill="#C94E4B"/>
<path d="M20.089 18.2831C17.668 15.3211 12.803 15.1631 10.154 17.8911C8.76504 19.3221 8.12304 21.1261 9.32704 22.8791C10.273 24.2571 11.407 24.7331 13.018 24.3271C13.521 24.2011 14.038 24.0561 14.615 24.0561H14.897C15.451 24.1141 15.943 24.3231 16.405 24.5131C16.707 24.6371 17.016 24.7631 17.34 24.8181C18.049 24.9471 18.81 24.5601 19.395 24.1911C21.619 22.7861 21.699 20.2521 20.089 18.2831ZM11.331 13.2241C11.772 13.4381 12.264 13.5651 12.754 13.5841C14.913 13.5841 15.493 6.74809 12.948 7.17709C11.705 7.38609 10.808 8.86109 10.286 9.88109C9.58304 11.2581 9.80504 12.4851 11.331 13.2241ZM10.714 15.4191C10.6 14.1711 8.50904 11.3661 7.03004 12.4031C5.52204 13.5461 5.70204 16.7291 7.36404 17.7091C8.53904 18.4011 10.595 16.5731 10.714 15.4191C10.682 15.0771 10.629 16.2351 10.714 15.4191ZM16.688 13.7641C17.893 13.9431 19.878 13.2291 19.933 11.7751C19.933 10.4011 18.316 6.84109 16.509 7.50609C14.775 8.06209 14.81 13.4861 16.688 13.7641ZM23.988 14.5361C23.921 13.7551 23.574 13.0281 22.999 12.4941C22.202 11.8201 21.1 12.7761 20.561 13.3351C19.535 14.3971 18.718 15.6191 19.856 16.8771C20.41 17.4901 21.511 18.3701 22.412 18.0081C23.598 17.5331 24.086 15.6681 23.988 14.5361Z" fill="white"/>
<path d="M15 1.15186C15.429 1.15186 15.834 1.25786 16.11 1.44186L27.78 9.22186C28.419 9.64785 29 10.7339 29 11.5009V22.4989C29 23.2659 28.419 24.3519 27.781 24.7779L16.111 32.5579C15.835 32.7419 15.43 32.8479 15.001 32.8479C14.572 32.8479 14.167 32.7419 13.891 32.5579L2.221 24.7779C1.581 24.3519 1 23.2659 1 22.4989V11.5009C1 10.7339 1.581 9.64785 2.219 9.22186L13.889 1.44186C14.166 1.25786 14.571 1.15186 15 1.15186ZM15 0.151855C14.397 0.151855 13.793 0.304855 13.335 0.609855L1.665 8.38986C0.749 9.00086 0 10.3999 0 11.5009V22.4989C0 23.5989 0.749 24.9989 1.665 25.6099L13.335 33.3899C13.793 33.6949 14.396 33.8479 15 33.8479C15.604 33.8479 16.207 33.6949 16.665 33.3899L28.335 25.6099C29.251 24.9989 30 23.5999 30 22.4989V11.5009C30 10.4009 29.251 9.00086 28.335 8.38986L16.665 0.609855C16.207 0.304855 15.603 0.151855 15 0.151855Z" fill="#C94E4B"/>
<path d="M24.689 21.75C23.409 21.75 22.362 22.23 21.617 23.098C21.228 22.254 20.421 21.857 19.613 21.857C19.112 21.857 18.62 22.036 18.107 22.404L16.361 23.681C15.76 24.128 15.459 24.669 15.459 25.292C15.459 26.344 16.272 27.168 17.31 27.168C17.49 27.168 17.67 27.141 17.845 27.09V30.461C17.845 31.923 18.886 32.589 19.853 32.589C20.58 32.589 21.348 32.212 21.685 31.404C22.425 32.233 23.445 32.696 24.689 32.696C27.348 32.696 29 30.59 29 27.199C29 23.838 27.348 21.75 24.689 21.75Z" fill="#C94E4B"/>
<path d="M19.613 22.857C19.374 22.857 19.074 22.941 18.69 23.216L16.951 24.488C16.58 24.764 16.459 25.028 16.459 25.292C16.459 25.795 16.832 26.168 17.31 26.168C17.491 26.168 17.718 26.107 17.934 25.939L18.845 25.232V30.461C18.845 31.432 19.529 31.588 19.853 31.588C20.177 31.588 20.861 31.432 20.861 30.461V24.272C20.861 23.037 20.045 22.857 19.613 22.857ZM24.689 22.749C22.279 22.749 21.355 24.8 21.355 27.198C21.355 29.609 22.279 31.696 24.689 31.696C27.088 31.696 28 29.609 28 27.198C28 24.8 27.088 22.749 24.689 22.749ZM24.689 29.969C23.623 29.969 23.418 28.289 23.418 27.198C23.418 26.131 23.623 24.451 24.689 24.451C25.746 24.451 25.937 26.131 25.937 27.198C25.937 28.289 25.746 29.969 24.689 29.969Z" fill="white"/>
</g>
<defs>
<clipPath id="clip0_259_2966">
<rect width="30" height="34" fill="white"/>
</clipPath>
</defs>
</svg>
