<svg width="30" height="34" viewBox="0 0 30 34" fill="none" xmlns="http://www.w3.org/2000/svg">
<g clip-path="url(#clip0_259_2984)">
<path d="M29.994 22.5491C29.994 23.6559 29.1949 25.0728 28.1975 25.6748L16.5412 33.5439C15.6459 34.152 14.1498 34.152 13.2546 33.5439L1.69437 25.6748C0.696976 25.0667 0 23.6559 0 22.5491V11.4509C0 10.3441 0.696976 8.92721 1.69437 8.32517L13.3567 0.45609C14.252 -0.15203 15.748 -0.15203 16.6433 0.45609L28.3056 8.32517C29.2009 8.93329 30 10.3441 30 11.4509V22.5491H29.994Z" fill="#99C267"/>
<path d="M16.6159 21.8494H14.7568V13.2758H14.6946L12.2832 14.8346V13.1026L14.8346 11.4414H16.6082V21.8494H16.6159Z" fill="white"/>
<path d="M19.3301 11.4414H23.2661C25.4986 11.4414 26.5954 12.5908 26.5954 14.1418C26.5954 15.4094 25.802 16.1179 24.7985 16.3541V16.4565C25.8953 16.5116 26.9999 17.4406 26.9999 19.0152C26.9999 20.637 25.8486 21.8494 23.4917 21.8494H19.3301V11.4414ZM23.0327 15.866C24.0051 15.866 24.7363 15.2991 24.7363 14.3859C24.7363 13.5828 24.1684 13.0002 23.0716 13.0002H21.1892V15.8739H23.0327V15.866ZM23.1961 20.2748C24.5496 20.2748 25.1097 19.6922 25.1097 18.8656C25.1097 17.9366 24.394 17.228 23.2506 17.228H21.197V20.2748H23.1961Z" fill="white"/>
<path d="M7.61439 22.649C7.89978 22.649 8.13113 22.4148 8.13113 22.126C8.13113 21.8371 7.89978 21.603 7.61439 21.603C7.32901 21.603 7.09766 21.8371 7.09766 22.126C7.09766 22.4148 7.32901 22.649 7.61439 22.649Z" fill="white"/>
<path d="M10.5824 18.5643L7.67067 18.8797C7.61743 18.8853 7.59003 18.8171 7.63231 18.783L10.4814 16.5381C10.6662 16.3852 10.7844 16.1467 10.7335 15.8915C10.6834 15.5001 10.3632 15.2449 9.95996 15.2956L6.86425 15.7544C6.80945 15.7623 6.78048 15.6918 6.82432 15.6577L9.89341 13.286C10.4986 12.809 10.5495 11.8732 9.99441 11.328C9.48942 10.8169 8.68222 10.8343 8.17801 11.3446L3.23302 16.4351C3.04825 16.6395 2.96369 16.9121 3.01458 17.2014C3.09836 17.661 3.55246 17.9676 4.00734 17.8821L6.67322 17.3321C6.73116 17.3202 6.76247 17.3979 6.71237 17.4304L3.75445 19.3464C3.38413 19.585 3.21658 20.0105 3.33402 20.436C3.45146 20.9978 4.00656 21.3211 4.54521 21.1848L8.96642 20.0826C9.01575 20.0699 9.05255 20.1286 9.02045 20.169L8.3299 21.0311C8.14513 21.2696 8.44734 21.5929 8.70023 21.4059L10.9707 19.516C11.3747 19.1753 11.1054 18.5112 10.584 18.5627L10.5824 18.5643Z" fill="white"/>
</g>
<defs>
<clipPath id="clip0_259_2984">
<rect width="30" height="34" fill="white"/>
</clipPath>
</defs>
</svg>
