<svg width="30" height="34" viewBox="0 0 30 34" fill="none" xmlns="http://www.w3.org/2000/svg">
<g clip-path="url(#clip0_259_2929)">
<path d="M30 22.2998C30 23.3998 29.3 24.7998 28.3 25.3998L16.6 33.1998C15.7 33.7998 14.2 33.7998 13.3 33.1998L1.7 25.4998C0.8 24.8998 0 23.4998 0 22.3998V11.3998C0 10.2998 0.7 8.89981 1.7 8.2998L13.4 0.499805C14.3 -0.100195 15.8 -0.100195 16.7 0.499805L28.4 8.2998C29.3 8.89981 30.1 10.2998 30.1 11.3998V22.2998H30Z" fill="#8360A8"/>
<path d="M15 15.4998C19.4 15.4998 23 11.8998 23 7.4998C23 6.2998 22.7 5.1998 22.3 4.1998L20.2 2.7998C21.3 3.9998 22 5.6998 22 7.4998C22 11.3998 18.9 14.4998 15 14.4998C11.1 14.4998 8 11.3998 8 7.4998C8 5.6998 8.7 3.9998 9.8 2.7998L7.7 4.1998C7.3 5.1998 7 6.2998 7 7.4998C7 11.8998 10.6 15.4998 15 15.4998Z" fill="white"/>
<path d="M15 27.2998C14.3 27.2998 13.7 27.1998 13.2 26.9998C12.8 26.7998 12.4 26.4998 12 25.9998L11.7 25.8998L9.30002 26.9998H9.20001C9.00001 26.9998 8.80001 26.8998 8.70001 26.6998C8.60001 26.4998 8.50002 26.1998 8.60002 25.9998L11.1 18.9998V16.3998C11.1 11.1998 13.6 6.2998 15.2 6.2998C16.8 6.2998 19.3 11.1998 19.3 16.3998V18.9998L21.8 25.9998C21.9 26.1998 21.8 26.4998 21.7 26.6998C21.6 26.8998 21.4 26.9998 21.2 26.9998H21L18.6 25.9998L18 26.0998C17.7 26.5998 17.3 26.9998 16.8 27.0998C16.3 27.1998 15.7 27.2998 15 27.2998Z" fill="white"/>
<path d="M15 6.7998C16 6.7998 18.6 11.0998 18.6 16.3998C18.6 17.0998 18.6 18.0998 18.5 19.0998L21 26.1998C21 26.2998 21 26.4998 20.9 26.4998L18.4 25.3998L17.8 25.5998C17.5 26.0998 17.2 26.3998 16.8 26.4998C16.4 26.6998 15.8 26.6998 15.2 26.6998C14.6 26.6998 14 26.5998 13.6 26.4998C13.2 26.3998 12.9 25.9998 12.6 25.5998L12 25.2998L9.50005 26.3998C9.00005 26.4998 9.00005 26.2998 9.00005 26.1998L11.5 19.0998V16.3998C11.4 11.0998 14 6.7998 15 6.7998ZM15 5.7998C12.7 5.7998 10.4 11.8998 10.4 16.3998V18.8998L8.00005 25.7998C7.90005 26.2998 8.00005 26.6998 8.20005 26.9998C8.40005 27.2998 8.80005 27.4998 9.10005 27.4998H9.30005L9.50005 27.3998L11.7 26.4998C12.1 26.9998 12.5 27.3998 13 27.5998C13.5 27.7998 14.2 27.8998 14.9 27.8998C15.6 27.8998 16.3 27.7998 16.8 27.5998C17.3 27.3998 17.7 27.0998 18.1 26.5998L20.3 27.4998L20.5 27.5998H20.7C21.1 27.5998 21.4 27.3998 21.6 27.0998C21.8 26.7998 21.9 26.2998 21.8 25.9998L19.4 19.0998V16.5998C19.6 11.8998 17.3 5.7998 15 5.7998Z" fill="#8360A8"/>
<path d="M15 17.2998C15.8284 17.2998 16.5 16.6282 16.5 15.7998C16.5 14.9714 15.8284 14.2998 15 14.2998C14.1716 14.2998 13.5 14.9714 13.5 15.7998C13.5 16.6282 14.1716 17.2998 15 17.2998Z" fill="#8360A8"/>
<path d="M11 9.5C11.5523 9.5 12 9.05228 12 8.5C12 7.94772 11.5523 7.5 11 7.5C10.4477 7.5 10 7.94772 10 8.5C10 9.05228 10.4477 9.5 11 9.5Z" fill="white"/>
<path d="M13 5.5C13.5523 5.5 14 5.05228 14 4.5C14 3.94772 13.5523 3.5 13 3.5C12.4477 3.5 12 3.94772 12 4.5C12 5.05228 12.4477 5.5 13 5.5Z" fill="white"/>
<path d="M15 1C15.4 1 15.8 1.1 16.1 1.3L27.8 9.1C28.4 9.5 29 10.6 29 11.4V22.4C29 23.2 28.4 24.3 27.8 24.7L16.1 32.5C15.8 32.7 15.4 32.8 15 32.8C14.6 32.8 14.2 32.7 13.9 32.5L2.2 24.6C1.6 24.2 1 23.1 1 22.3V11.3C1 10.5 1.6 9.4 2.2 9L13.9 1.2C14.2 1.1 14.6 1 15 1ZM15 0C14.4 0 13.8 0.2 13.3 0.5L1.7 8.2C0.7 8.8 0 10.2 0 11.3V22.3C0 23.4 0.7 24.8 1.7 25.4L13.4 33.2C13.9 33.5 14.5 33.7 15.1 33.7C15.7 33.7 16.3 33.5 16.8 33.2L28.5 25.4C29.4 24.8 30.2 23.4 30.2 22.3V11.3C30.2 10.2 29.5 8.8 28.5 8.2L16.7 0.5C16.2 0.2 15.6 0 15 0Z" fill="#8360A8"/>
<path d="M28.2 32.8001C28 32.8001 27.6 32.8001 27.2 32.4001C27 32.2001 26.8 31.9001 26.8 31.3001V30.4001L26.3 31.6001C26 32.3001 25.5 32.7001 24.9 32.7001C24.3 32.7001 23.8 32.3001 23.5 31.6001L23 30.6001V31.4001C23 32.4001 22.3 32.8001 21.7 32.8001C21.1 32.8001 20.4 32.4001 20.4 31.4001V26.2001C20.4 25.1001 21.2 24.6001 21.9 24.6001C22.6 24.6001 23.2 25.0001 23.5 25.9001L24.9 29.1001L26.3 25.9001C26.7 25.0001 27.2 24.6001 27.9 24.6001C28.7 24.6001 29.4 25.1001 29.4 26.2001V31.4001C29.5 32.4001 28.8 32.8001 28.2 32.8001Z" fill="white"/>
<path d="M28 25.1001C28.3 25.1001 29 25.3001 29 26.2001V31.4001C29 32.2001 28.4 32.3001 28.2 32.3001C27.9 32.3001 27.4 32.2001 27.4 31.4001V28.1001L25.9 31.5001C25.6 32.2001 25.3 32.3001 25 32.3001C24.7 32.3001 24.3 32.2001 24.1 31.5001L22.7 28.1001V31.4001C22.7 32.2001 22.2 32.3001 21.9 32.3001C21.6 32.3001 21.1 32.2001 21.1 31.4001V26.2001C21.1 25.2001 21.8 25.1001 22.1 25.1001C22.4 25.1001 22.9 25.2001 23.3 26.1001L25.1 30.4001L26.9 26.1001C27.2 25.2001 27.7 25.1001 28 25.1001ZM28 24.1001C27.1 24.1001 26.4 24.6001 25.9 25.7001L25 27.3001L24 25.7001C23.5 24.6001 22.8 24.1001 21.9 24.1001C20.9 24.1001 19.9 24.8001 19.9 26.2001V31.4001C19.9 32.6001 20.8 33.3001 21.7 33.3001C22.3 33.3001 22.9 33.0001 23.3 32.4001C23.7 33.0001 24.2 33.3001 24.9 33.3001C25.6 33.3001 26.2 33.0001 26.5 32.3001C26.6 32.5001 26.7 32.6001 26.8 32.7001C27.1 33.0001 27.6 33.2001 28.1 33.2001C29 33.2001 29.9 32.6001 29.9 31.3001V26.1001C30 24.7001 29 24.1001 28 24.1001Z" fill="#8360A8"/>
<path d="M16.5 33.9998V29.2998C16.5 28.4998 15.8 27.7998 15 27.7998C14.2 27.7998 13.5 28.4998 13.5 29.2998V33.9998H16.5Z" fill="white"/>
</g>
<defs>
<clipPath id="clip0_259_2929">
<rect width="30" height="34" fill="white"/>
</clipPath>
</defs>
</svg>
