<svg width="30" height="34" viewBox="0 0 30 34" fill="none" xmlns="http://www.w3.org/2000/svg">
<g clip-path="url(#clip0_259_2996)">
<path d="M30 22.4988C30 23.5988 29.251 24.9988 28.335 25.6098L16.665 33.3898C15.749 33.9998 14.251 33.9998 13.335 33.3898L1.665 25.6098C0.749 24.9988 0 23.5998 0 22.4988V11.5008C0 10.4008 0.749 9.00084 1.665 8.38984L13.335 0.609844C14.251 -0.000156254 15.749 -0.000156254 16.665 0.609844L28.335 8.38984C29.251 9.00084 30 10.3998 30 11.5008V22.4988Z" fill="#C94E4B"/>
<path d="M28 15V11H25V10H24V7H20V8.5C20 9.328 19.328 10 18.5 10C17.672 10 17 9.328 17 8.5V7H13V8.5C13 9.328 12.328 10 11.5 10C10.672 10 10 9.328 10 8.5V7H6V10H5V11H2V15H3.5C4.328 15 5 15.672 5 16.5C5 17.328 4.328 18 3.5 18H2V22H5V23H6V26H10V24.5C10 23.672 10.672 23 11.5 23C12.328 23 13 23.672 13 24.5V26H17V24.5C17 23.672 17.672 23 18.5 23C19.328 23 20 23.672 20 24.5V26H24V23H25V22H28V18H26.5C25.672 18 25 17.328 25 16.5C25 15.672 25.672 15 26.5 15H28ZM24 22H6V11H24V22ZM8 13H12V14H8V13ZM8 13H9V16H8V13ZM8 15H11V16H8V15ZM11 15H12V18H11V15ZM8 17H12V18H8V17ZM13 14H17V15H13V14ZM13 15H14V17H13V15ZM13 17H17V18H13V17Z" fill="white"/>
<path d="M15 1.15186C15.429 1.15186 15.834 1.25786 16.11 1.44186L27.78 9.22186C28.419 9.64785 29 10.7339 29 11.5009V22.4989C29 23.2659 28.419 24.3519 27.781 24.7779L16.111 32.5579C15.835 32.7419 15.43 32.8479 15.001 32.8479C14.572 32.8479 14.167 32.7419 13.891 32.5579L2.221 24.7779C1.581 24.3519 1 23.2659 1 22.4989V11.5009C1 10.7339 1.581 9.64785 2.219 9.22186L13.889 1.44186C14.166 1.25786 14.571 1.15186 15 1.15186ZM15 0.151855C14.397 0.151855 13.793 0.304855 13.335 0.609855L1.665 8.38986C0.749 9.00086 0 10.3999 0 11.5009V22.4989C0 23.5989 0.749 24.9989 1.665 25.6099L13.335 33.3899C13.793 33.6949 14.396 33.8479 15 33.8479C15.604 33.8479 16.207 33.6949 16.665 33.3899L28.335 25.6099C29.251 24.9989 30 23.5999 30 22.4989V11.5009C30 10.4009 29.251 9.00086 28.335 8.38986L16.665 0.609855C16.207 0.304855 15.603 0.151855 15 0.151855Z" fill="#C94E4B"/>
<path d="M27.7959 25.148C27.7959 23.147 26.1569 21.75 23.8099 21.75C22.5409 21.75 21.3469 22.224 20.6149 23.02C20.3289 23.332 20.0039 23.777 20.0039 24.464C20.0039 25.44 20.7349 26.216 21.6999 26.307C21.5909 26.549 21.5389 26.811 21.5389 27.067C21.5389 27.39 21.6219 27.723 21.7939 28.013L21.6749 28.009C20.6209 28.009 19.7629 28.861 19.7629 29.909C19.7629 30.479 19.9949 31 20.4529 31.456C21.2809 32.269 22.4349 32.696 23.7979 32.696C25.8859 32.696 27.9999 31.426 27.9999 28.998C27.9999 28.218 27.6939 27.498 27.1779 26.955C27.5699 26.459 27.7959 25.831 27.7959 25.148Z" fill="#C94E4B"/>
<path d="M22.5389 27.067C22.5389 26.815 22.6589 26.287 23.4259 26.287C24.4339 26.287 24.7459 25.82 24.7459 25.328C24.7459 24.716 24.2299 24.392 23.6779 24.392C23.2579 24.392 22.9709 24.56 22.6709 24.92C22.4909 25.136 22.2629 25.316 21.8909 25.316C21.3989 25.316 21.0039 24.956 21.0039 24.464C21.0039 24.188 21.0999 23.972 21.3519 23.697C21.9029 23.097 22.8389 22.75 23.8099 22.75C25.3099 22.75 26.7959 23.517 26.7959 25.148C26.7959 26.084 26.1969 26.779 25.3689 26.995V27.031C26.3409 27.258 26.9999 28.05 26.9999 28.998C26.9999 30.857 25.3569 31.696 23.7979 31.696C22.7189 31.696 21.8069 31.384 21.1599 30.749C20.8839 30.473 20.7639 30.209 20.7639 29.909C20.7639 29.393 21.1839 29.009 21.6749 29.009C21.9869 29.009 22.2029 29.154 22.5629 29.513C22.9109 29.861 23.2579 30.005 23.7019 30.005C24.2779 30.005 24.9369 29.717 24.9369 28.925C24.9369 28.326 24.4459 27.858 23.4259 27.858C22.6589 27.858 22.5389 27.331 22.5389 27.067Z" fill="white"/>
</g>
<defs>
<clipPath id="clip0_259_2996">
<rect width="30" height="34" fill="white"/>
</clipPath>
</defs>
</svg>
