<svg width="30" height="34" viewBox="0 0 30 34" fill="none" xmlns="http://www.w3.org/2000/svg">
<g clip-path="url(#clip0_259_2943)">
<path d="M30 22.2998C30 23.3998 29.3 24.7998 28.3 25.3998L16.6 33.1998C15.7 33.7998 14.2 33.7998 13.3 33.1998L1.7 25.4998C0.8 24.8998 0 23.4998 0 22.3998V11.3998C0 10.2998 0.7 8.89981 1.7 8.2998L13.4 0.499805C14.3 -0.100195 15.8 -0.100195 16.7 0.499805L28.4 8.2998C29.3 8.89981 30.1 10.2998 30.1 11.3998V22.2998H30Z" fill="#8360A8"/>
<path d="M15 27.2998C14.3 27.2998 13.7 27.1998 13.2 26.9998C12.8 26.7998 12.4 26.4998 12 25.9998L11.7 25.8998L9.30002 26.9998H9.20001C9.00001 26.9998 8.80001 26.8998 8.70001 26.6998C8.60001 26.4998 8.50002 26.1998 8.60002 25.9998L11.1 18.9998V16.3998C11.1 11.1998 13.6 6.2998 15.2 6.2998C16.8 6.2998 19.3 11.1998 19.3 16.3998V18.9998L21.8 25.9998C21.9 26.1998 21.8 26.4998 21.7 26.6998C21.6 26.8998 21.4 26.9998 21.2 26.9998H21L18.6 25.9998L18 26.0998C17.7 26.5998 17.3 26.9998 16.8 27.0998C16.3 27.1998 15.7 27.2998 15 27.2998Z" fill="white"/>
<path d="M15 6.7998C16 6.7998 18.6 11.0998 18.6 16.3998C18.6 17.0998 18.6 18.0998 18.5 19.0998L21 26.1998C21 26.2998 21 26.4998 20.9 26.4998L18.4 25.3998L17.8 25.5998C17.5 26.0998 17.2 26.3998 16.8 26.4998C16.4 26.6998 15.8 26.6998 15.2 26.6998C14.6 26.6998 14 26.5998 13.6 26.4998C13.2 26.3998 12.9 25.9998 12.6 25.5998L12 25.2998L9.50005 26.3998C9.00005 26.4998 9.00005 26.2998 9.00005 26.1998L11.5 19.0998V16.3998C11.4 11.0998 14 6.7998 15 6.7998ZM15 5.7998C12.7 5.7998 10.4 11.8998 10.4 16.3998V18.8998L8.00005 25.7998C7.90005 26.2998 8.00005 26.6998 8.20005 26.9998C8.40005 27.2998 8.80005 27.4998 9.10005 27.4998H9.30005L9.50005 27.3998L11.7 26.4998C12.1 26.9998 12.5 27.3998 13 27.5998C13.5 27.7998 14.2 27.8998 14.9 27.8998C15.6 27.8998 16.3 27.7998 16.8 27.5998C17.3 27.3998 17.7 27.0998 18.1 26.5998L20.3 27.4998L20.5 27.5998H20.7C21.1 27.5998 21.4 27.3998 21.6 27.0998C21.8 26.7998 21.9 26.2998 21.8 25.9998L19.4 19.0998V16.5998C19.6 11.8998 17.3 5.7998 15 5.7998Z" fill="#8360A8"/>
<path d="M15 17.2998C15.8284 17.2998 16.5 16.6282 16.5 15.7998C16.5 14.9714 15.8284 14.2998 15 14.2998C14.1716 14.2998 13.5 14.9714 13.5 15.7998C13.5 16.6282 14.1716 17.2998 15 17.2998Z" fill="#8360A8"/>
<path d="M16.5 34V29.3C16.5 28.5 15.8 27.8 15 27.8C14.2 27.8 13.5 28.5 13.5 29.3V34H16.5ZM26.3 32.8C25.5 32.8 25 32.4 24.7 31.5L24 29.1L23.3 31.5C23 32.3 22.5 32.8 21.7 32.8C20.9 32.8 20.4 32.4 20.1 31.5L18.5 26.4C18.4 26.2 18.4 26 18.4 25.9C18.4 25.1 19 24.5 19.8 24.5C20.2 24.5 20.9 24.7 21.2 25.7L21.8 28L22.4 26C22.7 25 23.2 24.5 24 24.5C24.8 24.5 25.3 25 25.6 26L26.2 28L26.8 25.6C27 24.9 27.5 24.5 28.1 24.5C28.9 24.5 29.4 25.1 29.4 25.8C29.4 26 29.4 26.1 29.3 26.3L27.7 31.4C27.6 32.4 27 32.8 26.3 32.8Z" fill="white"/>
<path d="M28.2 25.0996C28.6 25.0996 29 25.3996 29 25.8996C29 25.9996 29 26.0996 28.9 26.2996L27.3 31.3996C27 32.1996 26.5 32.2996 26.2 32.2996C25.9 32.2996 25.4 32.1996 25.1 31.3996L24 27.4996L22.8 31.3996C22.6 32.1996 22.1 32.2996 21.7 32.2996C21.3 32.2996 20.9 32.1996 20.6 31.3996L19 26.2996C19 26.0996 18.9 25.9996 18.9 25.8996C18.9 25.3996 19.3 24.9996 19.8 24.9996C20.1 24.9996 20.5 25.0996 20.7 25.7996L21.8 29.7996L22.9 26.0996C23.2 25.0996 23.7 24.9996 24 24.9996C24.3 24.9996 24.8 25.0996 25.1 26.0996L26.2 29.7996L27.3 25.7996C27.5 25.1996 27.9 25.0996 28.2 25.0996ZM28.2 24.0996C27.3 24.0996 26.6 24.6996 26.4 25.5996L26.2 26.1996L26.1 25.8996C25.7 24.3996 24.7 24.0996 24 24.0996C23.3 24.0996 22.3 24.3996 21.9 25.8996L21.8 26.1996L21.7 25.6996C21.4 24.6996 20.8 24.0996 19.8 24.0996C18.8 24.0996 17.9 24.8996 17.9 25.9996C17.9 26.1996 17.9 26.3996 18 26.6996L19.6 31.7996C19.9 32.8996 20.7 33.3996 21.7 33.3996C22.7 33.3996 23.4 32.7996 23.7 31.6996L24 30.8996L24.3 31.6996C24.6 32.7996 25.3 33.2996 26.3 33.2996C27.3 33.2996 28 32.6996 28.3 31.6996L29.9 26.5996C30 26.2996 30 26.0996 30 25.8996C30 24.8996 29.2 24.0996 28.2 24.0996Z" fill="#8360A8"/>
</g>
<defs>
<clipPath id="clip0_259_2943">
<rect width="30" height="34" fill="white"/>
</clipPath>
</defs>
</svg>
