<svg width="80" height="24" viewBox="0 0 80 24" fill="none" xmlns="http://www.w3.org/2000/svg">
<g clip-path="url(#clip0_269_3103)">
<path d="M20.8252 0H24.4655V24H20.8252V0ZM37.2066 16.344C37.2066 20.017 34.2789 20.3098 33.408 20.3098C31.232 20.3098 30.8361 18.1613 30.8361 16.8653V7.68H27.1958V16.8461C27.1958 19.1213 27.8729 20.999 29.0596 22.2509C30.108 23.3578 31.6788 23.9626 33.3807 23.9626C34.5874 23.9626 36.2966 23.5661 37.2066 22.6896V24H40.847V7.68H37.2066V16.344ZM48.1276 1.92H44.4873V7.68H41.757V11.52H44.4873V24H48.1276V11.52H50.8578V7.68H48.1276V1.92ZM62.3221 19.1203C61.5294 19.872 60.4828 20.2886 59.3343 20.2886C56.8025 20.2886 54.9432 18.3274 54.9432 15.6346C54.9432 12.9418 56.7433 11.063 59.3343 11.063C60.4628 11.063 61.5294 11.4595 62.3421 12.2112L62.8946 12.7123L65.349 10.1242L64.7347 9.53952C63.2904 8.16384 61.3729 7.392 59.3334 7.392C54.783 7.392 51.4785 10.8557 51.4785 15.6144C51.4785 20.353 54.8622 23.9405 59.3334 23.9405C61.4111 23.9405 63.3487 23.1686 64.7748 21.7709L65.3681 21.1862L62.8754 18.6L62.3221 19.1203ZM78.3422 9.10272C77.2938 7.9968 76.0652 7.392 74.3634 7.392C73.1566 7.392 71.7897 7.78848 70.8796 8.664V0H67.2393V24H70.8796V15.0096C70.8796 11.3366 73.3532 11.0448 74.2241 11.0448C76.4001 11.0448 76.3401 13.1942 76.3401 14.4883V24H79.9804V14.5085C79.9804 12.2333 79.5299 10.3555 78.3422 9.10272Z" fill="white"/>
<path d="M59.214 12.9004C59.912 12.9004 60.5815 13.1929 61.0751 13.7136C61.5686 14.2342 61.8459 14.9404 61.8459 15.6767C61.8459 16.413 61.5686 17.1192 61.0751 17.6399C60.5815 18.1605 59.912 18.453 59.214 18.453C58.5159 18.453 57.8465 18.1605 57.3529 17.6399C56.8593 17.1192 56.582 16.413 56.582 15.6767C56.582 14.9404 56.8593 14.2342 57.3529 13.7136C57.8465 13.1929 58.5159 12.9004 59.214 12.9004Z" fill="#FF3D2E"/>
<path d="M15.7284 17.972C14.3442 19.4744 12.464 20.2885 10.4855 20.2885C6.43014 20.2885 3.48148 16.9285 3.48148 12.3167C3.48148 7.68371 6.43014 4.32371 10.4855 4.32371C12.4449 4.32371 14.3041 5.13683 15.7093 6.61907L16.2626 7.20371L18.6962 4.63667L18.162 4.05203C16.1443 1.86036 13.4141 0.671875 10.4855 0.671875C4.51078 0.671875 0.0195312 5.68019 0.0195312 12.3368C0.0195312 18.9733 4.5308 23.9615 10.4855 23.9615C13.4341 23.9615 16.1644 22.7519 18.182 20.5602L18.7162 19.9756L16.3027 17.3672L15.7284 17.972Z" fill="white"/>
</g>
<defs>
<clipPath id="clip0_269_3103">
<rect width="80" height="24" fill="white"/>
</clipPath>
</defs>
</svg>
