<svg width="80" height="24" viewBox="0 0 80 24" fill="none" xmlns="http://www.w3.org/2000/svg">
<g clip-path="url(#clip0_269_3137)">
<path d="M73.3504 11.504H70.5199C68.6978 11.504 67.7216 12.8613 67.7216 15.1232V23.2999H62.3532V11.5031H60.0751C58.253 11.5031 57.2776 12.8604 57.2776 15.1224V23.299H51.9084V7.14086H57.2776V9.59715C58.1565 7.69035 59.3603 7.14086 61.1503 7.14086H67.7224V9.59715C68.6013 7.69035 69.8051 7.14086 71.5951 7.14086H73.3513L73.3504 11.504ZM50.7368 16.4805H39.5442C39.8369 18.2905 40.9755 19.3247 42.8949 19.3247C44.3263 19.3247 45.3355 18.7424 45.6612 17.709L50.4111 19.0336C49.2403 21.845 46.3438 23.5582 42.8949 23.5582C37.0707 23.5582 34.4026 19.0655 34.4026 15.2208C34.4026 11.44 36.745 6.91533 42.5693 6.91533C48.7514 6.91533 50.8011 11.504 50.8011 14.8976C50.8052 15.426 50.7837 15.9542 50.7368 16.4805ZM45.5309 13.346C45.4006 11.9558 44.3914 10.6641 42.5701 10.6641C40.8774 10.6641 39.8698 11.4064 39.5442 13.346H45.5309ZM25.0329 23.299H29.7499L35.6393 7.1425H30.2388L27.3753 16.5453L24.4467 7.14168H19.0775L25.0329 23.299ZM3.03765 23.299H8.37383V11.504H13.4511V23.2999H18.7543V7.14168H8.37383V6.14031C8.37383 5.04133 9.15463 4.36309 10.3914 4.36309H13.4503V0H9.51329C5.6406 0 3.03765 2.35951 3.03765 5.81636V7.14168H0.0117188V11.5048H3.03765V23.299Z" fill="white"/>
<path d="M76.6698 23.7839C78.5027 23.7839 79.9884 22.3077 79.9884 20.487C79.9884 18.6663 78.5027 17.1909 76.6698 17.1909C74.8369 17.1909 73.3503 18.6672 73.3503 20.4878C73.3503 22.3085 74.8369 23.7839 76.6698 23.7839Z" fill="#1DBF73"/>
</g>
<defs>
<clipPath id="clip0_269_3137">
<rect width="80" height="24" fill="white"/>
</clipPath>
</defs>
</svg>
