<svg width="98" height="24" viewBox="0 0 98 24" fill="none" xmlns="http://www.w3.org/2000/svg">
<path d="M25.7578 8.50488H35.6721V10.346H31.7685V20.7248H29.6288V10.346H25.7415L25.7578 8.50488ZM35.2475 11.8776H37.0768V13.5884H37.1095C37.1748 13.344 37.2891 13.1159 37.4525 12.8878C37.6158 12.6597 37.8118 12.4479 38.0568 12.2686C38.2855 12.0731 38.5468 11.9265 38.8408 11.8124C39.1185 11.6984 39.4125 11.6332 39.7065 11.6332C39.9351 11.6332 40.0985 11.6495 40.1801 11.6495C40.2618 11.6658 40.3598 11.6821 40.4415 11.6821V13.5558C40.3108 13.5232 40.1638 13.5069 40.0168 13.4906C39.8698 13.4743 39.7391 13.458 39.5921 13.458C39.2655 13.458 38.9551 13.5232 38.6611 13.6536C38.3671 13.7839 38.1221 13.9794 37.8935 14.2238C37.6811 14.4845 37.5015 14.7941 37.3708 15.1688C37.2401 15.5436 37.1748 15.9835 37.1748 16.4723V20.676H35.2148L35.2475 11.8776ZM49.4248 20.7248H47.4974V19.4865H47.4648C47.2198 19.9428 46.8605 20.2849 46.3868 20.5619C45.9131 20.8389 45.4231 20.9692 44.9331 20.9692C43.7735 20.9692 42.9241 20.6922 42.4015 20.1057C41.8788 19.5354 41.6174 18.6556 41.6174 17.4988V11.8776H43.5774V17.3033C43.5774 18.0853 43.7245 18.6393 44.0348 18.9489C44.3288 19.2747 44.7535 19.4377 45.2924 19.4377C45.7008 19.4377 46.0438 19.3725 46.3215 19.2421C46.5991 19.1118 46.8278 18.9489 46.9911 18.7371C47.1708 18.5252 47.2851 18.2646 47.3668 17.9713C47.4485 17.678 47.4811 17.3521 47.4811 17.01V11.8776H49.4411V20.7248H49.4248ZM52.7568 17.8898C52.8221 18.4601 53.0345 18.8511 53.4101 19.0955C53.7858 19.3236 54.2431 19.4377 54.7658 19.4377C54.9454 19.4377 55.1578 19.4214 55.3865 19.3888C55.6151 19.3562 55.8438 19.3073 56.0398 19.2259C56.2521 19.1444 56.4155 19.0303 56.5461 18.8674C56.6768 18.7045 56.7421 18.509 56.7258 18.2646C56.7094 18.0202 56.6278 17.8083 56.4481 17.6454C56.2685 17.4825 56.0561 17.3684 55.7948 17.2544C55.5335 17.1566 55.2231 17.0751 54.8801 17.01C54.5371 16.9448 54.1941 16.8633 53.8348 16.7819C53.4755 16.7004 53.1161 16.6026 52.7731 16.4886C52.4301 16.3745 52.1361 16.2279 51.8584 16.0161C51.5971 15.8206 51.3685 15.5762 51.2215 15.2666C51.0581 14.957 50.9765 14.5986 50.9765 14.1424C50.9765 13.6536 51.0908 13.2625 51.3358 12.9367C51.5644 12.6108 51.8748 12.3501 52.2341 12.1546C52.5934 11.9591 53.0018 11.8124 53.4428 11.7309C53.8838 11.6495 54.3084 11.6169 54.7004 11.6169C55.1578 11.6169 55.5988 11.6658 56.0071 11.7635C56.4154 11.8613 56.8074 12.0079 57.1341 12.236C57.4771 12.4479 57.7548 12.7411 57.9671 13.0833C58.1958 13.4254 58.3265 13.8491 58.3918 14.3379H56.3501C56.2521 13.8654 56.0398 13.5558 55.7131 13.3929C55.3701 13.2299 54.9944 13.1485 54.5534 13.1485C54.4228 13.1485 54.2431 13.1648 54.0634 13.181C53.8675 13.2136 53.7041 13.2462 53.5245 13.3114C53.3611 13.3766 53.2141 13.4743 53.0998 13.5884C52.9855 13.7024 52.9201 13.8654 52.9201 14.0609C52.9201 14.3053 53.0018 14.4845 53.1651 14.6311C53.3285 14.7778 53.5408 14.8918 53.8185 15.0059C54.0798 15.1037 54.3901 15.1851 54.7331 15.2503C55.0761 15.3155 55.4355 15.3969 55.7948 15.4784C56.1541 15.5599 56.4971 15.6576 56.8401 15.7717C57.1831 15.8857 57.4935 16.0324 57.7548 16.2442C58.0161 16.4397 58.2448 16.6841 58.4081 16.9774C58.5714 17.2707 58.6531 17.6454 58.6531 18.069C58.6531 18.5904 58.5388 19.0303 58.2938 19.4051C58.0488 19.7635 57.7385 20.0731 57.3628 20.3012C56.9871 20.5293 56.5461 20.6923 56.0888 20.8063C55.6151 20.9041 55.1578 20.9692 54.7004 20.9692C54.1451 20.9692 53.6224 20.9041 53.1488 20.7737C52.6751 20.6434 52.2504 20.4479 51.9074 20.2035C51.5644 19.9428 51.2868 19.6332 51.0908 19.2421C50.8948 18.8674 50.7804 18.4112 50.7641 17.8735H52.7404V17.8898H52.7568ZM59.2085 11.8776H60.6948V9.20549H62.6548V11.8613H64.4188V13.3114H62.6548V18.0364C62.6548 18.2483 62.6711 18.4112 62.6874 18.5741C62.7038 18.7208 62.7528 18.8511 62.8018 18.9489C62.8671 19.0466 62.9651 19.1281 63.0795 19.177C63.2101 19.2259 63.3734 19.2584 63.6021 19.2584C63.7328 19.2584 63.8798 19.2584 64.0104 19.2421C64.1411 19.2259 64.2881 19.2096 64.4188 19.177V20.6922C64.2064 20.7248 63.9941 20.7411 63.7818 20.7574C63.5695 20.79 63.3735 20.79 63.1448 20.79C62.6221 20.79 62.2138 20.7411 61.9035 20.6434C61.5931 20.5456 61.3481 20.399 61.1684 20.2197C60.9888 20.0242 60.8744 19.7961 60.8091 19.5191C60.7438 19.2421 60.7111 18.9 60.6948 18.5415V13.3277H59.2085V11.845V11.8776ZM65.7908 11.8776H67.6364V13.0833H67.6691C67.9468 12.5619 68.3224 12.2035 68.8124 11.9753C69.3024 11.7472 69.8251 11.6332 70.4131 11.6332C71.1154 11.6332 71.7198 11.7472 72.2424 12.0079C72.7651 12.2523 73.1898 12.5782 73.5328 13.0181C73.8758 13.4417 74.1371 13.9468 74.3004 14.5171C74.4638 15.0874 74.5618 15.7065 74.5618 16.3419C74.5618 16.9448 74.4801 17.5151 74.3331 18.069C74.1698 18.623 73.9411 19.1281 73.6308 19.5517C73.3204 19.9753 72.9284 20.3175 72.4384 20.5782C71.9484 20.8389 71.3931 20.9692 70.7398 20.9692C70.4621 20.9692 70.1681 20.9367 69.8904 20.8878C69.6128 20.8389 69.3351 20.7574 69.0738 20.6434C68.8124 20.5293 68.5674 20.3827 68.3551 20.2035C68.1264 20.0242 67.9468 19.8124 67.7998 19.5843H67.7671V23.9998H65.8071V11.8776H65.7908ZM72.6344 16.3094C72.6344 15.9183 72.5854 15.5273 72.4711 15.1525C72.3731 14.7778 72.2098 14.4519 71.9974 14.1586C71.7851 13.8654 71.5238 13.6373 71.2298 13.458C70.9194 13.2788 70.5601 13.1973 70.1681 13.1973C69.3514 13.1973 68.7308 13.4743 68.3061 14.0446C67.8978 14.6149 67.6854 15.3806 67.6854 16.3257C67.6854 16.7819 67.7344 17.1892 67.8488 17.5639C67.9631 17.9387 68.1101 18.2646 68.3388 18.5415C68.5511 18.8185 68.8125 19.0303 69.1228 19.1933C69.4331 19.3562 69.7761 19.4377 70.1845 19.4377C70.6418 19.4377 71.0011 19.3399 71.3114 19.1607C71.6218 18.9815 71.8668 18.7371 72.0791 18.4601C72.2751 18.1668 72.4221 17.8409 72.5038 17.4662C72.5854 17.0751 72.6344 16.7004 72.6344 16.3094ZM76.0808 8.50488H78.0408V10.346H76.0808V8.50488ZM76.0808 11.8776H78.0408V20.7248H76.0808V11.8776ZM79.7884 8.50488H81.7484V20.7248H79.7884V8.50488ZM87.7264 20.9692C87.0241 20.9692 86.3871 20.8552 85.8318 20.6108C85.2764 20.3664 84.8191 20.0568 84.4271 19.6495C84.0514 19.2421 83.7574 18.7371 83.5614 18.1668C83.3654 17.5965 83.2511 16.9611 83.2511 16.2931C83.2511 15.625 83.3491 15.0059 83.5614 14.4356C83.7574 13.8654 84.0514 13.3766 84.4271 12.9529C84.8028 12.5456 85.2764 12.2197 85.8318 11.9916C86.3871 11.7635 87.0241 11.6332 87.7264 11.6332C88.4288 11.6332 89.0658 11.7472 89.6211 11.9916C90.1764 12.2197 90.6338 12.5456 91.0258 12.9529C91.4014 13.3603 91.6954 13.8654 91.8914 14.4356C92.0874 15.0059 92.2018 15.625 92.2018 16.2931C92.2018 16.9774 92.1038 17.5965 91.8914 18.1668C91.6791 18.7371 91.4014 19.2259 91.0258 19.6495C90.6501 20.0568 90.1764 20.3827 89.6211 20.6108C89.0658 20.8389 88.4451 20.9692 87.7264 20.9692ZM87.7264 19.4214C88.1511 19.4214 88.5431 19.3236 88.8534 19.1444C89.1801 18.9652 89.4251 18.7208 89.6374 18.4275C89.8498 18.1342 89.9968 17.792 90.0948 17.4336C90.1928 17.0588 90.2418 16.6841 90.2418 16.2931C90.2418 15.9183 90.1928 15.5436 90.0948 15.1688C89.9968 14.7941 89.8498 14.4682 89.6374 14.1749C89.4251 13.8817 89.1638 13.6536 88.8534 13.4743C88.5268 13.2951 88.1511 13.1973 87.7264 13.1973C87.3018 13.1973 86.9098 13.2951 86.5994 13.4743C86.2728 13.6536 86.0278 13.898 85.8154 14.1749C85.6031 14.4682 85.4561 14.7941 85.3581 15.1688C85.2601 15.5436 85.2111 15.9183 85.2111 16.2931C85.2111 16.6841 85.2601 17.0588 85.3581 17.4336C85.4561 17.8083 85.6031 18.1342 85.8154 18.4275C86.0278 18.7208 86.2891 18.9652 86.5994 19.1444C86.9261 19.3399 87.3018 19.4214 87.7264 19.4214ZM92.7898 11.8776H94.2761V9.20549H96.2361V11.8613H98.0001V13.3114H96.2361V18.0364C96.2361 18.2483 96.2524 18.4112 96.2688 18.5741C96.2851 18.7208 96.3341 18.8511 96.3831 18.9489C96.4484 19.0466 96.5464 19.1281 96.6608 19.177C96.7914 19.2259 96.9548 19.2584 97.1834 19.2584C97.3141 19.2584 97.4611 19.2584 97.5918 19.2421C97.7224 19.2259 97.8694 19.2096 98.0001 19.177V20.6922C97.7878 20.7248 97.5754 20.7411 97.3631 20.7574C97.1508 20.79 96.9548 20.79 96.7261 20.79C96.2034 20.79 95.7951 20.7411 95.4848 20.6434C95.1744 20.5456 94.9294 20.399 94.7498 20.2197C94.5701 20.0242 94.4558 19.7961 94.3904 19.5191C94.3251 19.2421 94.2924 18.9 94.2761 18.5415V13.3277H92.7898V11.845V11.8776Z" fill="white"/>
<path d="M22.2812 8.77117H14.2234L11.7429 1.12842L9.24777 8.77117L1.18994 8.75653L7.70666 13.4857L5.21152 21.1284L11.7282 16.3993L18.2449 21.1284L15.7645 13.4857L22.2812 8.77117Z" fill="#00B67A"/>
<path d="M16.3222 15.213L15.7645 13.4854L11.7429 16.399L16.3222 15.213Z" fill="#005128"/>
</svg>
