<svg width="80" height="24" viewBox="0 0 80 24" fill="none" xmlns="http://www.w3.org/2000/svg">
<g clip-path="url(#clip0_269_3134)">
<path d="M21.8936 15.1573C20.5936 15.1573 19.3754 14.6047 18.2686 13.7051L18.5381 12.4351L18.5498 12.388C18.7898 11.0359 19.5512 8.76623 21.8936 8.76623C23.6503 8.76623 25.0792 10.2009 25.0792 11.9647C25.0733 13.7226 23.6445 15.1573 21.8936 15.1573ZM21.8936 5.5267C18.9011 5.5267 16.5822 7.4787 15.6395 10.6889C14.1988 8.51933 13.1096 5.91478 12.4714 3.72168H9.25057V12.1352C9.25057 13.7932 7.90366 15.1454 6.25225 15.1454C4.60085 15.1454 3.2541 13.7932 3.2541 12.1352V3.72168H0.0329957V12.1352C0.0212781 15.5807 2.81461 18.4086 6.24616 18.4086C9.67787 18.4086 12.4712 15.5807 12.4712 12.1352V10.7242C13.0977 12.0352 13.8648 13.3581 14.796 14.5341L12.8224 23.847H16.1194L17.5482 17.0916C18.8014 17.897 20.242 18.4028 21.8934 18.4028C25.4245 18.4028 28.2999 15.4983 28.2999 11.9529C28.2999 8.41344 25.4247 5.5267 21.8936 5.5267Z" fill="#6FDA44"/>
<path d="M38.1319 5.8912L40.2108 14.3047L42.5006 5.8912H45.2294L41.71 18.0499H38.9811L36.8203 9.58344L34.6652 18.044H31.9364L28.4167 5.8854H31.1457L33.4353 14.2989L35.5142 5.8854H38.1318V5.89136L38.1319 5.8912ZM51.7588 5.52665C48.216 5.52665 45.3466 8.4134 45.3466 11.9646C45.3466 15.5218 48.2218 18.4027 51.7588 18.4027C55.3017 18.4027 58.1769 15.5218 58.1769 11.9646C58.1769 8.40759 55.3017 5.52665 51.7588 5.52665ZM51.7588 15.7569C49.6741 15.7569 47.9876 14.0636 47.9876 11.9706C47.9876 9.8774 49.6799 8.18422 51.7588 8.18422C53.8436 8.18422 55.53 9.8774 55.53 11.9706C55.53 14.0578 53.8436 15.7569 51.7588 15.7569ZM65.9712 8.6134C64.1384 8.6134 62.6568 10.1067 62.6568 11.9411V18.044H59.9102V5.8912H62.6568V7.76085C62.6568 7.76085 63.8279 5.88524 66.2347 5.88524H67.0779V8.6134H65.9712ZM75.1886 11.4943C77.1384 10.3889 78.462 8.28995 78.462 5.88524H75.7154C75.7154 7.91363 74.0759 9.55991 72.0556 9.55991H71.6866V0.0234375H68.9403V18.0438H71.6866V12.3174H72.0147C72.284 12.3174 72.6354 12.4939 72.7935 12.7113L76.6934 18.044H79.9845L75.1886 11.4943Z" fill="white"/>
</g>
<defs>
<clipPath id="clip0_269_3134">
<rect width="80" height="24" fill="white"/>
</clipPath>
</defs>
</svg>
