<svg id="Component_53_1" data-name="Component 53 – 1" xmlns="http://www.w3.org/2000/svg" width="488" height="247.027" viewBox="0 0 488 247.027">
  <path id="Intersection_5" data-name="Intersection 5" d="M262.261,247.027c-47.823,0-94.877-14.754-140.606-55.53C64.306,140.358,26.647,73.847,0,0H3.539C29.958,72.809,67.179,138.3,123.6,188.607c103.971,92.709,215.694,48.567,327.622,4.341,12.261-4.844,24.525-9.689,36.781-14.356v4.115c-11.8,4.5-23.615,9.17-35.424,13.836C388.661,221.8,324.8,247.026,262.266,247.027Zm0-18.527c-47.823,0-94.877-14.755-140.606-55.53C69.145,126.146,33.14,66.429,6.984,0h3.58C36.469,65.379,72.008,124.08,123.6,170.08c103.971,92.708,215.694,48.567,327.622,4.341,12.261-4.844,24.525-9.689,36.781-14.356v4.114c-11.8,4.5-23.615,9.17-35.424,13.836C388.661,203.27,324.8,228.5,262.266,228.5Zm0-20.071c-47.823,0-94.877-14.755-140.606-55.53C74.488,110.839,40.642,58.385,15.285,0h3.636C43.994,57.32,77.344,108.767,123.6,150.009c103.971,92.708,215.694,48.567,327.622,4.341,12.261-4.844,24.525-9.689,36.781-14.356v4.114c-11.8,4.5-23.615,9.17-35.424,13.836C388.661,183.2,324.8,208.427,262.266,208.429Zm0-18.527c-47.823,0-94.877-14.755-140.606-55.53C79.535,96.813,48.035,50.959,23.719,0h3.7c24,49.886,54.966,94.735,96.178,131.482,103.971,92.709,215.694,48.567,327.622,4.341,12.261-4.844,24.525-9.689,36.781-14.356v4.115c-11.8,4.5-23.615,9.17-35.424,13.836C388.661,164.672,324.8,189.9,262.266,189.9Z" transform="translate(488.001 247.027) rotate(180)" fill="#d4e3ff" opacity="0.39"/>
</svg>
